<?xml version="1.0" encoding="UTF-8"?><svg id="BOY" xmlns="http://www.w3.org/2000/svg" xmlns:xlink="http://www.w3.org/1999/xlink" viewBox="0 0 400 200"><defs><clipPath id="clippath"><path d="M125,200V46.18c0-6.73,5.47-12.18,12.22-12.18h17.75c1.46,0,2.65,1.18,2.65,2.64h0c0,4.81,3.91,8.7,8.73,8.7h67.32c4.78,0,8.68-3.84,8.73-8.61v-.09c0-1.46,1.19-2.64,2.65-2.64h17.75c6.75,0,12.22,5.46,12.22,12.18v153.82H125Z" fill="none" stroke-width="0"/></clipPath></defs><g id="Overlay"><rect width="400" height="200" fill="#1b1b1b" stroke-width="0"/></g><path d="M117,200V42c0-9.94,8.06-18,18-18h130c9.94,0,18,8.06,18,18v158H117Z" fill="#666" stroke-width="0"/><rect x="180.55" y="34.98" width="24.86" height="3.01" rx="1.51" ry="1.51" fill="#1b1b1b" stroke-width="0"/><circle cx="215.44" cy="36.49" r="4.01" fill="#1b1b1b" stroke-width="0"/><g clip-path="url(#clippath)"><rect x="125" y="33" width="150" height="167" fill="#1b1b1b" stroke-width="0"/><rect x="134" y="59" width="25" height="6" fill="#666" stroke-width="0"/><rect x="143.84" y="80" width="112.32" height="94.2" rx="10" ry="10" fill="#fff" stroke-width="0"/><rect x="155.66" y="90.46" width="88.69" height="23.16" rx="5" ry="5" fill="#999" stroke-width="0"/><rect x="155.66" y="117.43" width="88.69" height="23.16" rx="5" ry="5" fill="#999" stroke-width="0"/><rect x="155.66" y="149.46" width="88.69" height="14.28" rx="4" ry="4" fill="#999" stroke-width="0"/></g></svg>