<svg xmlns="http://www.w3.org/2000/svg" width="32" height="32" viewBox="0 0 32 32">
  <defs>
    <style>
      .cls-1 {
        fill-rule: evenodd;
      }
    </style>
  </defs>
  <path id="Module_molecule" data-name="Module molecule" class="cls-1" d="M24.592,19.136a3.585,3.585,0,0,0-1.564.357l-2.591-1.985a4.4,4.4,0,0,0-.107-1.559l2.634-2.019a3.2,3.2,0,1,0-2.08-2.437l-2.414,1.85a4.395,4.395,0,0,0-.806-0.417V9.442a3.6,3.6,0,1,0-3.2.016v3.468a4.39,4.39,0,0,0-.806.417L11.248,11.5a3.2,3.2,0,1,0-2.057,2.456l2.605,2a4.4,4.4,0,0,0-.107,1.559L9.062,19.522a3.6,3.6,0,1,0,1.919,2.561l2.232-1.71a4.4,4.4,0,0,0,1.251.751v2.313a3.2,3.2,0,1,0,3.2,0V21.123a4.4,4.4,0,0,0,1.251-.751l2.148,1.646A3.6,3.6,0,1,0,24.592,19.136Zm-7.728,3.973v0.7a0.8,0.8,0,0,1-1.6,0V21.351a4.414,4.414,0,0,0,1.6,0v1.758Zm-7.1-3.119,2.109-1.616,0.338-.259,0.164-.126a0.805,0.805,0,0,1,.485-0.164,0.8,0.8,0,0,1,.488,1.434l-0.067.051-0.319.244L12.65,19.8l-1.922,1.473A3.611,3.611,0,0,0,9.767,19.989ZM8.932,11.737a0.8,0.8,0,0,1,1.122-.148l0.938,0.719,2.022,1.549a4.42,4.42,0,0,0-.933,1.3L9.969,13.539l-0.888-.681A0.8,0.8,0,0,1,8.932,11.737ZM15.264,12.7V9.738a3.626,3.626,0,0,0,1.6-.007v4.093a0.8,0.8,0,0,1-1.6,0V12.7Zm6.81-1.109a0.8,0.8,0,0,1,1.122.148h0a0.8,0.8,0,0,1-.148,1.122l-0.867.664-2.133,1.635a4.421,4.421,0,0,0-.933-1.3L21.147,12.3Zm-3.231,7.721-0.067-.051a0.8,0.8,0,0,1,.784-1.377,0.792,0.792,0,0,1,.189.107l0.164,0.126,0.338,0.259,2.059,1.578a3.612,3.612,0,0,0-.982,1.263L19.478,19.8l-0.316-.242Z"/>
</svg>
