<?xml version="1.0" encoding="UTF-8"?>
<svg width="24px" height="24px" viewBox="0 0 24 24" version="1.1" xmlns="http://www.w3.org/2000/svg" xmlns:xlink="http://www.w3.org/1999/xlink">
    <title>icons/communication/I-R/mdpi/ic_Legal</title>
    <g id="icons/communication/I-R/ic_Legal" stroke="none" stroke-width="1" fill="none" fill-rule="evenodd">
        <path d="M10.5422305,4.86414567 L11.0023825,5.32408167 L8.24151848,8.08369767 L7.78129448,7.62376167 L6.56651048,8.83799367 C6.27851624,9.12581105 6.11670788,9.51628135 6.11670788,9.92344167 C6.11670788,10.330602 6.27851624,10.7210723 6.56651048,11.0088897 L9.16179848,13.6029777 C9.67015648,14.1110121 10.4940245,14.1110121 11.0023825,13.6029777 L12.3828145,12.2231697 L11.9226625,11.7632337 L12.8428945,10.8433137 L20.2052785,18.2022897 C20.4594506,18.4563121 20.8713863,18.4563121 21.1255585,18.2022897 L21.1255585,18.2022897 C21.247594,18.0803351 21.3161596,17.9148807 21.3161596,17.7423537 C21.3161596,17.5698267 21.247594,17.4043722 21.1255585,17.2824177 L13.7632465,9.92344167 L14.6835265,9.00356967 L15.1436785,9.46350567 L16.9842625,7.62376167 L12.3858625,3.02137767 L10.5422305,4.86414567 Z M14.2264465,8.54058567 L11.4655825,11.3002017 L8.70469448,8.54058567 L11.4655825,5.78099367 L14.2264465,8.54058567 Z M3.85676648,17.4213777 L3.00783848,17.4213777 C2.84215305,17.4213777 2.70783848,17.2870631 2.70783848,17.1213777 C2.70783848,16.9556922 2.84215305,16.8213777 3.00783848,16.8213777 L3.85676648,16.8213777 C4.0224519,16.8213777 4.15676648,16.9556922 4.15676648,17.1213777 C4.15676648,17.2870631 4.0224519,17.4213777 3.85676648,17.4213777 Z M4.50853448,15.8983377 L4.50853448,15.0498177 C4.51000739,14.8851065 4.6439487,14.7523576 4.80866648,14.7523576 C4.97338426,14.7523576 5.10732557,14.8851065 5.10879848,15.0498177 L5.10879848,15.8983377 C5.10732557,16.0630489 4.97338426,16.1957978 4.80866648,16.1957978 C4.6439487,16.1957978 4.51000739,16.0630489 4.50853448,15.8983377 Z M4.14563048,16.693266 C4.07204706,16.6933807 4.00100446,16.6663616 3.94609448,16.6173777 L3.31213448,16.0530657 C3.23209269,15.9817526 3.1961761,15.8731548 3.21791414,15.7681801 C3.23965218,15.6632053 3.31574232,15.5778017 3.41752214,15.5441401 C3.51930197,15.5104784 3.6313087,15.5336726 3.71135048,15.6049857 L4.34531048,16.1692977 C4.43825677,16.2521294 4.47038376,16.3837607 4.42604836,16.5000985 C4.38171297,16.6164362 4.2701299,16.6933008 4.14563048,16.693266 Z M5.10879848,17.4213777 L11.7117985,17.4213777 L11.7117985,18.6213777 L12.3120625,18.6213777 L12.3120625,21.0213777 L4.50853448,21.0213777 L4.50853448,18.6213777 L5.10879848,18.6213777 L5.10879848,17.4213777 Z" id="Legal" fill="#000000"></path>
    </g>
</svg>