<svg width="250" height="249" viewBox="0 0 250 249" fill="none" xmlns="http://www.w3.org/2000/svg">
<path d="M231.224 191.448C230.336 190.535 229.171 190.194 228.053 189.921C220.211 187.995 212.158 187.995 204.164 187.995C143.724 188.003 83.2763 188.012 22.8355 188.02L25.3816 189.273C22.1382 189.788 18.7697 190.352 16.0132 192.568C13.2566 194.784 11.3026 199.175 12.3553 203.084C12.8487 204.91 13.9145 206.404 15.1184 207.6C23.0592 215.493 34.6645 210.795 44.6053 213.119C50.7829 214.563 56.3092 218.771 62.2171 221.469C70.8092 225.378 80.3224 226.017 89.1908 223.27C94.3618 221.668 99.2895 218.962 104.474 217.435C111.039 215.501 117.855 215.501 124.599 215.518L158.526 215.576C164.724 215.584 170.928 215.601 177.092 216.422C187.474 217.809 197.763 221.502 208.184 220.556C218.599 219.61 229.704 212.405 232.434 199.69C233.033 196.826 233.033 193.315 231.224 191.448Z" fill="#D1DEF2"/>
<path d="M232.309 200.445L31.2368 200.238C31.2368 200.238 -3.99342 155.791 21.3618 117.163C46.7171 78.5346 56.7895 141.017 63.1447 82.4024C70.7434 12.367 160.145 5.727 162.566 60.6647C169.066 208.098 271.164 60.8722 232.309 200.445Z" fill="#E6EBF4"/>
<path d="M23.1711 182.899H23.75L23.6579 187.796H23.1711V182.899Z" fill="#5CA88D"/>
<path d="M28.5724 180.376C28.7895 180.135 34.7105 173.337 34.0132 164.796C33.3158 156.264 27.6645 154.148 29.2697 144.204C30.875 134.261 29.2697 127.397 24.3882 127.305C19.5066 127.214 17.2763 133.198 19.0855 143.847C20.9013 154.496 13.1316 158.663 13.5066 166.465C13.9408 175.47 19.5724 190.236 28.5724 180.376Z" fill="#7AC094"/>
<path opacity="0.2" d="M21.0066 128.642C21.0921 129.115 21.3092 129.58 21.671 129.787C22.0066 129.978 22.3881 129.936 22.7368 129.862C23.3881 129.721 24.0395 129.414 24.7105 129.521C25.046 129.58 25.3684 129.762 25.6645 129.953C25.9934 130.161 26.3092 130.41 26.5987 130.692C27.1579 131.24 27.6447 131.912 27.9802 132.7C28.3618 133.597 28.4934 134.593 28.5197 135.597C28.546 136.767 28.4605 137.929 28.625 139.083C28.7368 139.855 28.921 140.693 29.3487 141.283C29.4276 141.399 29.5197 141.49 29.6184 141.565C30.546 133.066 28.8158 127.38 24.3816 127.305C23.0395 127.28 21.9079 127.72 20.9934 128.584C21.0066 128.608 21.0066 128.625 21.0066 128.642Z" fill="#F2FAFF"/>
<path opacity="0.15" d="M24.5987 162.937C23.921 161.36 23.9079 159.401 24.2829 157.708C24.4803 156.804 24.7895 155.932 25.1382 155.102C25.2829 154.77 25.4539 154.455 25.5855 154.106C25.6776 153.857 25.6579 153.641 25.5855 153.392C25.4539 152.952 25.2697 152.537 25.125 152.114C24.9803 151.682 24.8355 151.243 24.7171 150.803C24.4671 149.873 24.3618 148.935 24.3026 147.964C24.2434 147.001 24.2697 146.005 24.5132 145.084C24.7303 144.262 25.1974 143.598 25.4342 142.793C25.046 142.494 24.7105 142.104 24.4276 141.656C24.1053 141.133 23.8553 140.552 23.6579 139.93C23.6579 141.291 23.6579 142.652 23.6513 144.013C23.6382 149.441 23.625 154.87 23.6118 160.298C23.6053 165.137 23.6053 169.976 23.6053 174.806C23.6842 174.458 23.7697 174.109 23.8684 173.769C24.7303 170.706 26.171 167.984 27.5658 165.27C26.3158 165.336 25.1908 164.323 24.5987 162.937Z" fill="#202234"/>
<path opacity="0.15" d="M25.3158 182.998C24.6316 183.007 23.9408 182.866 23.3224 182.467C22.671 182.052 22.1645 181.363 21.8026 180.575C21.5789 180.085 21.4474 179.604 21.375 179.048C21.296 178.45 21.2105 177.894 20.9013 177.412C20.3618 176.574 19.4408 176.458 18.7039 176.043C18.0131 175.645 17.4802 174.898 17.0724 174.109C16.6579 173.312 16.3684 172.424 16.171 171.511C15.75 169.577 15.7039 167.519 15.9013 165.535C16.0855 163.701 16.4671 161.891 17.1842 160.273C18.0395 158.347 19.171 156.629 19.9737 154.662C20.3684 153.699 20.6645 152.67 20.7895 151.591C20.9408 150.313 20.8487 149.018 20.6184 147.765C20.3618 146.379 19.9539 145.042 19.5395 143.723C19.1513 142.494 18.8158 141.249 18.5921 139.955C18.6908 141.175 18.8618 142.469 19.0921 143.847C20.9079 154.496 13.1381 158.663 13.5131 166.465C13.8881 174.325 18.2302 186.584 25.3158 182.998Z" fill="#202234"/>
<path d="M29.8487 162.912C29.8224 162.879 29.7763 162.879 29.7434 162.912L23.5592 170.714V157.443L27.0066 152.853C27.0329 152.82 27.0329 152.753 27.0066 152.72C26.9803 152.687 26.9276 152.687 26.9013 152.72L23.5592 157.169V145.225L26.0658 142.021C26.0921 141.988 26.0921 141.93 26.0658 141.889C26.0395 141.855 25.9934 141.855 25.9605 141.889L23.5592 144.96V134.692C23.5592 134.643 23.5263 134.601 23.4868 134.593C23.4474 134.585 23.4145 134.634 23.4079 134.684V134.692V149.01L21.5 146.96C21.4671 146.927 21.4211 146.935 21.3947 146.968C21.3684 147.01 21.375 147.068 21.4013 147.101L23.4013 149.251V162.738L19.625 157.974C19.5987 157.941 19.5526 157.941 19.5197 157.974C19.4934 158.007 19.4934 158.065 19.5197 158.107L23.4013 162.995V183.355C23.4013 183.405 23.4342 183.447 23.4737 183.447C23.5132 183.447 23.5461 183.405 23.5461 183.355V170.963L29.8355 163.029C29.875 163.004 29.875 162.946 29.8487 162.912Z" fill="#B8DEBF"/>
<path d="M168.349 188.003H168.928L168.836 192.9H168.349V188.003Z" fill="#5CA88D"/>
<path d="M173.757 185.488C173.974 185.248 179.895 178.45 179.197 169.909C178.5 161.377 172.849 159.26 174.454 149.317C176.059 139.374 174.454 132.51 169.572 132.418C164.691 132.327 162.461 138.311 164.27 148.96C166.086 159.609 158.316 163.776 158.691 171.578C159.118 180.575 164.757 195.341 173.757 185.488Z" fill="#7AC094"/>
<path opacity="0.2" d="M166.191 133.746C166.276 134.219 166.493 134.684 166.855 134.892C167.191 135.082 167.572 135.041 167.921 134.966C168.572 134.825 169.224 134.518 169.895 134.626C170.23 134.684 170.553 134.867 170.849 135.058C171.178 135.265 171.493 135.514 171.783 135.796C172.342 136.344 172.829 137.016 173.164 137.805C173.546 138.701 173.678 139.697 173.704 140.702C173.73 141.872 173.645 143.034 173.809 144.188C173.921 144.959 174.112 145.798 174.533 146.387C174.612 146.503 174.704 146.595 174.803 146.669C175.73 138.17 174 132.485 169.566 132.41C168.224 132.385 167.092 132.825 166.178 133.688C166.184 133.713 166.184 133.73 166.191 133.746Z" fill="#F2FAFF"/>
<path opacity="0.15" d="M169.776 168.042C169.099 166.465 169.092 164.506 169.461 162.813C169.658 161.908 169.967 161.037 170.316 160.207C170.461 159.875 170.632 159.559 170.763 159.211C170.855 158.962 170.836 158.746 170.763 158.497C170.632 158.057 170.447 157.642 170.303 157.219C170.158 156.787 170.013 156.347 169.895 155.907C169.645 154.978 169.539 154.04 169.48 153.069C169.421 152.106 169.447 151.11 169.691 150.188C169.908 149.367 170.375 148.703 170.612 147.898C170.224 147.599 169.888 147.209 169.605 146.761C169.283 146.238 169.033 145.657 168.836 145.034C168.836 146.395 168.836 147.757 168.829 149.118C168.816 154.546 168.803 159.974 168.789 165.402C168.783 170.241 168.783 175.08 168.783 179.911C168.862 179.562 168.947 179.214 169.046 178.873C169.908 175.811 171.349 173.088 172.743 170.374C171.5 170.44 170.375 169.428 169.776 168.042Z" fill="#202234"/>
<path opacity="0.15" d="M170.5 188.103C169.816 188.111 169.125 187.97 168.507 187.572C167.855 187.157 167.349 186.468 166.987 185.679C166.763 185.19 166.632 184.708 166.559 184.152C166.48 183.555 166.395 182.998 166.086 182.517C165.546 181.679 164.625 181.563 163.888 181.148C163.197 180.749 162.664 180.002 162.257 179.214C161.842 178.417 161.553 177.529 161.355 176.616C160.934 174.682 160.888 172.623 161.086 170.64C161.27 168.805 161.651 166.996 162.368 165.378C163.23 163.452 164.355 161.734 165.158 159.767C165.553 158.804 165.842 157.775 165.974 156.696C166.125 155.418 166.033 154.123 165.803 152.869C165.546 151.483 165.138 150.147 164.724 148.827C164.336 147.599 164 146.354 163.776 145.059C163.882 146.279 164.046 147.574 164.276 148.952C166.092 159.601 158.322 163.767 158.697 171.569C159.066 179.438 163.414 191.689 170.5 188.103Z" fill="#202234"/>
<path d="M175.033 168.017C175.007 167.984 174.961 167.984 174.928 168.017L168.743 175.819V162.547L172.191 157.957C172.217 157.924 172.217 157.858 172.191 157.825C172.164 157.791 172.112 157.791 172.086 157.825L168.743 162.273V150.33L171.25 147.126C171.276 147.093 171.276 147.035 171.25 146.993C171.224 146.96 171.178 146.96 171.145 146.993L168.743 150.064V139.797C168.743 139.747 168.711 139.706 168.671 139.706C168.632 139.706 168.599 139.747 168.599 139.797V154.131L166.691 152.081C166.658 152.048 166.612 152.056 166.586 152.089C166.559 152.131 166.566 152.189 166.592 152.222L168.592 154.372V167.859L164.816 163.095C164.789 163.062 164.743 163.062 164.711 163.095C164.684 163.128 164.684 163.186 164.711 163.228L168.592 168.116V188.476C168.592 188.526 168.625 188.568 168.664 188.568C168.704 188.568 168.737 188.526 168.737 188.476V176.084L175.026 168.15C175.059 168.108 175.059 168.05 175.033 168.017Z" fill="#B8DEBF"/>
<path d="M157.072 185.43H156.257L156.388 192.386H157.079V185.43H157.072Z" fill="#5CA88D"/>
<path d="M149.401 181.853C149.092 181.513 140.684 171.852 141.678 159.734C142.671 147.616 150.691 144.611 148.414 130.493C146.138 116.366 148.414 106.622 155.349 106.497C162.283 106.373 165.454 114.872 162.875 129.995C160.303 145.117 171.335 151.027 170.803 162.116C170.178 174.881 162.178 195.855 149.401 181.853Z" fill="#7AC094"/>
<path opacity="0.2" d="M160.145 108.381C160.026 109.054 159.711 109.718 159.197 110.008C158.724 110.274 158.178 110.224 157.678 110.108C156.757 109.9 155.822 109.469 154.875 109.626C154.401 109.701 153.947 109.967 153.52 110.232C153.053 110.523 152.605 110.88 152.191 111.286C151.395 112.058 150.704 113.021 150.23 114.142C149.691 115.42 149.5 116.823 149.467 118.258C149.428 119.91 149.553 121.57 149.316 123.213C149.158 124.309 148.888 125.504 148.283 126.343C148.164 126.5 148.039 126.633 147.901 126.749C146.586 114.673 149.039 106.605 155.342 106.497C157.243 106.464 158.862 107.087 160.151 108.315C160.151 108.332 160.145 108.357 160.145 108.381Z" fill="#F2FAFF"/>
<path opacity="0.15" d="M155.046 157.094C156.007 154.853 156.02 152.073 155.493 149.674C155.211 148.387 154.776 147.151 154.276 145.972C154.072 145.499 153.829 145.051 153.645 144.561C153.513 144.212 153.539 143.905 153.645 143.549C153.829 142.926 154.092 142.337 154.303 141.731C154.513 141.117 154.711 140.494 154.888 139.863C155.243 138.544 155.388 137.216 155.474 135.83C155.553 134.468 155.513 133.057 155.171 131.746C154.862 130.576 154.197 129.638 153.862 128.492C154.414 128.069 154.895 127.521 155.289 126.874C155.743 126.127 156.099 125.305 156.382 124.425C156.382 126.359 156.382 128.293 156.388 130.227C156.401 137.938 156.428 145.648 156.447 153.351C156.461 160.223 156.461 167.087 156.461 173.96C156.349 173.47 156.224 172.972 156.092 172.491C154.868 168.133 152.822 164.274 150.842 160.414C152.605 160.489 154.204 159.053 155.046 157.094Z" fill="#202234"/>
<path opacity="0.15" d="M154.026 185.58C155 185.596 155.98 185.389 156.855 184.824C157.776 184.235 158.5 183.256 159.013 182.135C159.329 181.438 159.513 180.757 159.618 179.969C159.737 179.122 159.855 178.326 160.289 177.645C161.053 176.458 162.362 176.292 163.414 175.694C164.395 175.13 165.151 174.068 165.737 172.947C166.322 171.818 166.737 170.557 167.02 169.262C167.618 166.523 167.684 163.593 167.408 160.779C167.151 158.181 166.605 155.6 165.586 153.301C164.368 150.562 162.763 148.122 161.625 145.333C161.066 143.964 160.651 142.503 160.467 140.976C160.25 139.158 160.388 137.324 160.717 135.539C161.079 133.572 161.658 131.68 162.25 129.804C162.803 128.061 163.276 126.293 163.592 124.459C163.447 126.193 163.211 128.036 162.875 129.995C160.303 145.117 171.336 151.027 170.803 162.116C170.263 173.271 164.092 190.676 154.026 185.58C154.02 185.58 154.02 185.58 154.026 185.58Z" fill="#202234"/>
<path d="M147.592 157.053C147.632 157.003 147.697 157.003 147.737 157.053L156.52 168.133V149.284L151.625 142.76C151.585 142.71 151.586 142.627 151.632 142.577C151.671 142.528 151.737 142.528 151.776 142.586L156.52 148.91V131.953L152.961 127.397C152.921 127.347 152.921 127.264 152.961 127.214C153 127.164 153.066 127.164 153.105 127.214L156.513 131.58V116.997C156.513 116.922 156.559 116.864 156.618 116.864C156.678 116.864 156.724 116.922 156.724 116.997V137.332L159.428 134.427C159.474 134.377 159.539 134.385 159.572 134.443C159.612 134.502 159.605 134.584 159.559 134.626L156.717 137.68V156.837L162.079 150.072C162.118 150.022 162.184 150.022 162.224 150.072C162.263 150.122 162.263 150.205 162.224 150.255L156.717 157.202V186.111C156.717 186.186 156.671 186.244 156.612 186.244C156.553 186.244 156.507 186.186 156.507 186.111V168.507L147.572 157.235C147.546 157.185 147.546 157.102 147.592 157.053Z" fill="#B8DEBF"/>
<path d="M37.3882 180.608H38.2368L38.1053 187.846H37.3882V180.608Z" fill="#5CA88D"/>
<path d="M45.375 176.881C45.6974 176.533 54.4474 166.481 53.4145 153.865C52.3816 141.258 44.0395 138.137 46.4079 123.438C48.7763 108.747 46.4079 98.604 39.1908 98.4712C31.9803 98.3384 28.6776 107.178 31.3618 122.915C34.0395 138.643 22.5592 144.802 23.1184 156.33C23.7566 169.635 32.079 191.448 45.375 176.881Z" fill="#7AC094"/>
<path opacity="0.2" d="M34.1974 100.447C34.3224 101.144 34.6513 101.841 35.1842 102.14C35.6776 102.414 36.2434 102.364 36.7632 102.248C37.7237 102.032 38.6908 101.584 39.6776 101.741C40.1711 101.824 40.6447 102.098 41.0921 102.38C41.579 102.688 42.0461 103.053 42.4737 103.476C43.3026 104.281 44.0197 105.285 44.5132 106.447C45.079 107.775 45.2697 109.236 45.3026 110.73C45.3421 112.457 45.2171 114.175 45.4605 115.885C45.625 117.022 45.9013 118.267 46.5329 119.138C46.6513 119.304 46.7895 119.437 46.9276 119.561C48.2961 107.004 45.7434 98.604 39.1842 98.4878C37.204 98.4546 35.5263 99.102 34.1776 100.38C34.1908 100.397 34.1908 100.422 34.1974 100.447Z" fill="#F2FAFF"/>
<path opacity="0.15" d="M39.5 151.118C38.5 148.786 38.4869 145.897 39.0329 143.399C39.329 142.054 39.7829 140.776 40.2961 139.556C40.5066 139.058 40.7632 138.593 40.954 138.087C41.0921 137.722 41.0658 137.398 40.954 137.033C40.7632 136.386 40.4869 135.771 40.2698 135.141C40.0526 134.501 39.8421 133.854 39.6645 133.198C39.2895 131.829 39.1448 130.443 39.0592 128.999C38.9737 127.579 39.0132 126.11 39.375 124.749C39.6974 123.537 40.3882 122.549 40.7369 121.363C40.1645 120.923 39.6645 120.35 39.2566 119.678C38.7829 118.906 38.4145 118.043 38.1184 117.13C38.1184 119.138 38.1184 121.155 38.1119 123.164C38.0987 131.181 38.0724 139.199 38.0526 147.225C38.0395 154.372 38.0395 161.518 38.0395 168.664C38.1579 168.15 38.2829 167.643 38.4276 167.137C39.704 162.605 41.829 158.588 43.8882 154.579C42.0395 154.662 40.375 153.16 39.5 151.118Z" fill="#202234"/>
<path opacity="0.15" d="M40.5592 180.757C39.546 180.774 38.5263 180.558 37.6184 179.977C36.6579 179.363 35.9079 178.35 35.375 177.18C35.046 176.458 34.8553 175.744 34.7434 174.931C34.625 174.051 34.5 173.221 34.0395 172.516C33.2434 171.279 31.8816 171.113 30.7895 170.49C29.7697 169.909 28.9803 168.797 28.375 167.627C27.7697 166.457 27.3355 165.137 27.0395 163.792C26.4145 160.937 26.3487 157.891 26.6381 154.969C26.9079 152.264 27.4737 149.583 28.5329 147.192C29.8026 144.345 31.4671 141.806 32.6579 138.901C33.2434 137.473 33.671 135.954 33.8618 134.369C34.0855 132.476 33.9474 130.567 33.6053 128.708C33.2303 126.658 32.625 124.691 32.0066 122.74C31.4276 120.923 30.9408 119.088 30.6118 117.179C30.7631 118.981 31.0066 120.898 31.3553 122.931C34.0329 138.66 22.5526 144.818 23.1118 156.347C23.671 167.951 30.0921 186.061 40.5658 180.757C40.5658 180.757 40.5658 180.757 40.5592 180.757Z" fill="#202234"/>
<path d="M47.2566 151.077C47.2105 151.018 47.1447 151.018 47.1053 151.077L37.9671 162.605V143.009L43.0592 136.22C43.1053 136.17 43.1053 136.079 43.0592 136.029C43.0197 135.971 42.9474 135.971 42.9079 136.029L42.9013 136.037L37.9671 142.611V124.973L41.6645 120.234C41.7039 120.176 41.7039 120.093 41.6645 120.043C41.625 119.993 41.5526 119.993 41.5132 120.043L37.9671 124.583V109.411C37.9671 109.336 37.9211 109.27 37.8553 109.27C37.7961 109.27 37.7434 109.328 37.7434 109.411V130.559L34.9276 127.538C34.8816 127.488 34.8158 127.496 34.7763 127.554C34.7368 127.613 34.7434 127.695 34.7895 127.745L37.7434 130.924V150.853L32.1645 143.814C32.125 143.764 32.0526 143.764 32.0132 143.814C31.9737 143.864 31.9737 143.955 32.0132 144.005L37.7434 151.234V181.305C37.7434 181.38 37.7895 181.438 37.8553 181.438C37.9145 181.438 37.9671 181.38 37.9671 181.305V162.995L47.2566 151.276C47.3026 151.218 47.3026 151.135 47.2566 151.077Z" fill="#B8DEBF"/>
<path d="M20.7829 191.78C20.7829 191.78 22.5131 175.943 19.0724 177.512C15.625 179.072 17.2039 185.422 20.7829 191.78Z" fill="#394CA4"/>
<path d="M21.0066 191.63C21.0066 191.63 13.9671 176.01 9.11184 181.38C4.25657 186.75 21.0066 191.63 21.0066 191.63Z" fill="#100959"/>
<path opacity="0.5" d="M9.38158 181.554C9.51974 182.044 9.75 182.459 10.1711 182.583C10.6908 182.741 11.2632 182.55 11.7829 182.509C12.3816 182.467 12.9539 182.575 13.4934 182.907C14.0132 183.222 14.4671 183.704 14.9079 184.169C15.3487 184.633 15.8026 185.148 16.3224 185.48C16.8158 185.795 17.3947 185.928 17.9408 186.036C15.5132 182.268 12.0724 178.45 9.29605 181.189C9.32237 181.313 9.34868 181.438 9.38158 181.554Z" fill="#F2FAFF"/>
<path d="M11.1053 200.229H71.8816L71.0132 196.395L68.9605 187.314C67.5066 180.907 62.4605 176.898 57.25 178.018L54.6184 178.591C54.4211 178.633 54.2303 178.657 54.0395 178.657C52.875 178.657 51.7763 177.927 51.1184 176.674C46.6053 168.133 36.3947 169.187 33.0395 178.55L32.5921 179.803C31.8026 182.019 29.7368 183.007 27.9803 182.019L25.3553 180.533C23.8224 179.662 22.1118 180.317 21.1645 181.845C20.8158 182.401 20.5658 183.073 20.4671 183.82L20.079 186.692C19.9803 187.406 19.7632 188.028 19.454 188.559C19.3947 188.651 19.3355 188.75 19.2829 188.833C18.7566 189.605 18.0329 190.12 17.2434 190.302C17.0461 190.352 16.829 190.377 16.6184 190.377C15.9605 190.377 15.2961 190.153 14.6842 189.638C13.3158 188.485 11.4868 188.775 10.3224 190.236L8.55922 192.46C6.2829 195.332 7.89474 200.229 11.1053 200.229Z" fill="#4094F2"/>
<path opacity="0.2" d="M8.7237 194.112C9.07896 193.44 9.29607 192.668 9.67764 192.021C10.4671 190.684 11.9211 190.419 13.1513 190.684C13.9803 190.858 14.7632 191.232 15.6184 191.141C16.2829 191.066 16.9474 190.933 17.5921 190.717C18.8619 190.294 20.1513 189.514 20.8619 188.053C21.5724 186.609 21.2303 184.692 22.0724 183.314C22.9737 181.836 24.5263 181.977 25.7763 182.55C26.4803 182.874 27.0987 183.413 27.8026 183.721C28.625 184.077 29.5132 184.127 30.3619 183.878C30.8026 183.754 31.2237 183.555 31.6316 183.306C31.8816 183.148 32.1119 182.982 32.2895 182.7C32.579 182.243 32.6908 181.637 32.6711 181.056C32.6645 180.708 32.5987 180.351 32.4934 180.035C31.6447 182.085 29.6711 182.974 27.9737 182.019L25.3487 180.533C23.8158 179.662 22.1053 180.317 21.1579 181.845C20.8092 182.401 20.5592 183.073 20.4605 183.82L20.0724 186.692C19.9737 187.406 19.7566 188.028 19.4474 188.559C19.3882 188.651 19.329 188.75 19.2763 188.833C18.75 189.605 18.0263 190.12 17.2369 190.302C17.0395 190.352 16.8224 190.377 16.6119 190.377C15.954 190.377 15.2895 190.153 14.6776 189.638C13.3092 188.485 11.4803 188.775 10.3158 190.236L8.55264 192.46C7.91449 193.266 7.57896 194.237 7.50659 195.216C8.01317 195.083 8.42764 194.676 8.7237 194.112Z" fill="#F2FAFF"/>
<path opacity="0.25" d="M16.4671 200.229H71.875L71.0066 196.395C68.2697 193.299 64.4803 191.78 60.6316 192.618L58.5789 193.058L57.4737 193.29C57.2303 193.34 56.9934 193.365 56.7632 193.365C56.25 193.365 55.7434 193.249 55.2697 193.017C54.4737 192.626 53.7763 191.946 53.2763 191.008C52.5789 189.68 51.7566 188.551 50.8618 187.613C50.5132 187.24 50.1579 186.899 49.7829 186.601C47.7632 184.916 45.4539 184.077 43.125 184.044C41.7632 184.011 40.4145 184.26 39.1184 184.8C35.9737 186.053 33.1842 188.916 31.6316 193.257L31.0921 194.743C30.1382 197.416 27.6579 198.594 25.546 197.399L23.9539 196.494L22.421 195.623C21.7237 195.224 20.9934 195.1 20.296 195.183C18.4868 195.399 16.8947 197.1 16.5592 199.557L16.4671 200.229Z" fill="#F2FAFF"/>
<path d="M23.9803 186.103C23.9803 186.858 24.4671 187.464 25.0592 187.464C25.6513 187.464 26.1381 186.85 26.1381 186.103C26.1381 185.347 25.6513 184.741 25.0592 184.741C24.4671 184.741 23.9803 185.347 23.9803 186.103Z" fill="#100959"/>
<path opacity="0.15" d="M24.2303 186.426C24.2303 187.182 24.7171 187.787 25.3092 187.787C25.9013 187.787 26.3882 187.173 26.3882 186.426C26.3882 185.671 25.9013 185.065 25.3092 185.065C24.7171 185.065 24.2303 185.671 24.2303 186.426Z" fill="#202234"/>
<path d="M39.6447 196.511C39.6447 197.266 40.125 197.872 40.7237 197.872C41.3224 197.872 41.8026 197.258 41.8026 196.511C41.8026 195.756 41.3224 195.15 40.7237 195.15C40.125 195.15 39.6447 195.756 39.6447 196.511Z" fill="#394CA4"/>
<path opacity="0.15" d="M35.5 179.189C35.5 180.641 36.4342 181.811 37.5789 181.811C38.7303 181.811 39.6645 180.633 39.6645 179.189C39.6645 177.744 38.7303 176.566 37.5789 176.566C36.4342 176.558 35.5 177.736 35.5 179.189Z" fill="#202234"/>
<path d="M35.7632 178.251C35.7632 179.703 36.6974 180.874 37.8421 180.874C38.9934 180.874 39.9276 179.695 39.9276 178.251C39.9276 176.798 38.9934 175.628 37.8421 175.628C36.6974 175.628 35.7632 176.798 35.7632 178.251Z" fill="#394CA4"/>
<path d="M24.0197 199.515C24.0197 199.515 28.8881 191.763 26.6645 191.232C24.4408 190.701 23.7039 194.71 24.0197 199.515Z" fill="#100959"/>
<path opacity="0.5" d="M24.1776 194.751C24.4079 194.685 24.5461 194.486 24.6447 194.22C24.8421 193.697 24.8289 193.091 25.0526 192.585C25.1645 192.328 25.3421 192.137 25.5526 192.012C25.7566 191.896 25.9868 191.83 26.1842 191.689C26.375 191.547 26.4079 191.373 26.2632 191.174C25.0987 191.191 24.4145 192.618 24.125 194.751C24.1382 194.759 24.1579 194.759 24.1776 194.751Z" fill="#F2FAFF"/>
<path d="M24.0197 199.515C24.0197 199.515 20.9474 189.091 17.5592 191.763C14.171 194.436 24.0197 199.515 24.0197 199.515Z" fill="#394CA4"/>
<path opacity="0.2" d="M17.6974 191.672C17.7303 191.772 17.8092 191.863 17.875 191.896C18.0131 191.962 18.1842 191.938 18.3289 191.938C18.6447 191.929 18.9671 191.904 19.2763 191.979C19.6118 192.062 19.9276 192.311 20.2039 192.552C20.7105 193 21.0329 193.705 21.5526 194.12C21.6381 194.187 21.7566 194.262 21.8881 194.328C20.7566 192.261 19.2631 190.601 17.6974 191.672Z" fill="#F2FAFF"/>
<path d="M24.0197 199.515C24.0197 199.515 35.3487 197.781 32.4934 195.507C29.6316 193.232 24.0197 199.515 24.0197 199.515Z" fill="#394CA4"/>
<path opacity="0.2" d="M27.8026 196.345C28.1382 196.27 28.3816 196.021 28.6645 195.805C28.9342 195.606 29.2237 195.44 29.5329 195.357C29.9671 195.241 30.4013 195.382 30.8421 195.307C30.9934 195.282 31.1711 195.216 31.2303 195.025C30.0987 194.934 28.7895 195.556 27.5987 196.37C27.6711 196.361 27.7369 196.361 27.8026 196.345Z" fill="#F2FAFF"/>
<path d="M119.533 191.78C119.533 191.78 121.263 175.943 117.816 177.512C114.382 179.072 115.961 185.422 119.533 191.78Z" fill="#394CA4"/>
<path d="M119.763 191.63C119.763 191.63 112.724 176.01 107.868 181.38C103.007 186.75 119.763 191.63 119.763 191.63Z" fill="#100959"/>
<path opacity="0.5" d="M108.138 181.554C108.276 182.044 108.513 182.459 108.928 182.583C109.447 182.741 110.02 182.55 110.539 182.509C111.138 182.467 111.711 182.575 112.25 182.907C112.77 183.222 113.224 183.704 113.664 184.169C114.105 184.633 114.559 185.148 115.079 185.48C115.572 185.795 116.151 185.928 116.697 186.036C114.27 182.268 110.829 178.45 108.053 181.189C108.072 181.313 108.099 181.438 108.138 181.554Z" fill="#F2FAFF"/>
<path d="M109.855 200.229H170.632L169.763 196.395L167.711 187.314C166.257 180.907 161.211 176.898 156 178.018L153.368 178.591C153.171 178.633 152.98 178.657 152.789 178.657C151.625 178.657 150.526 177.927 149.868 176.674C145.355 168.133 135.145 169.187 131.789 178.55L131.342 179.803C130.553 182.019 128.487 183.007 126.73 182.019L124.105 180.533C122.572 179.662 120.862 180.317 119.914 181.845C119.566 182.401 119.316 183.073 119.217 183.82L118.829 186.692C118.73 187.406 118.513 188.028 118.204 188.559C118.145 188.651 118.086 188.75 118.026 188.833C117.5 189.605 116.776 190.12 115.987 190.302C115.789 190.352 115.572 190.377 115.362 190.377C114.704 190.377 114.033 190.153 113.428 189.638C112.059 188.485 110.23 188.775 109.066 190.236L107.303 192.46C105.033 195.332 106.645 200.229 109.855 200.229Z" fill="#4094F2"/>
<path opacity="0.2" d="M107.48 194.112C107.836 193.44 108.053 192.668 108.434 192.021C109.224 190.684 110.678 190.419 111.908 190.684C112.737 190.858 113.52 191.232 114.375 191.141C115.039 191.066 115.704 190.933 116.349 190.717C117.618 190.294 118.908 189.514 119.618 188.053C120.329 186.609 119.987 184.692 120.829 183.314C121.73 181.836 123.283 181.977 124.533 182.55C125.237 182.874 125.855 183.413 126.559 183.721C127.388 184.077 128.27 184.127 129.118 183.878C129.559 183.754 129.987 183.555 130.388 183.306C130.638 183.148 130.868 182.982 131.046 182.7C131.336 182.243 131.447 181.637 131.428 181.056C131.414 180.708 131.355 180.351 131.25 180.035C130.401 182.085 128.428 182.974 126.73 182.019L124.105 180.533C122.572 179.662 120.862 180.317 119.914 181.845C119.566 182.401 119.316 183.073 119.217 183.82L118.829 186.692C118.73 187.406 118.513 188.028 118.204 188.559C118.145 188.651 118.086 188.75 118.026 188.833C117.5 189.605 116.776 190.12 115.987 190.302C115.789 190.352 115.572 190.377 115.362 190.377C114.704 190.377 114.033 190.153 113.428 189.638C112.059 188.485 110.23 188.775 109.066 190.236L107.303 192.46C106.664 193.266 106.329 194.237 106.257 195.216C106.77 195.083 107.178 194.676 107.48 194.112Z" fill="#F2FAFF"/>
<path opacity="0.25" d="M115.217 200.229H170.625L169.757 196.395C167.02 193.299 163.23 191.78 159.382 192.618L157.329 193.058L156.224 193.29C155.98 193.34 155.743 193.365 155.507 193.365C154.993 193.365 154.487 193.249 154.013 193.017C153.217 192.626 152.52 191.946 152.02 191.008C151.322 189.68 150.5 188.551 149.605 187.613C149.257 187.24 148.901 186.899 148.526 186.601C146.507 184.916 144.191 184.077 141.868 184.044C140.507 184.011 139.158 184.26 137.862 184.8C134.717 186.053 131.928 188.916 130.375 193.257L129.836 194.743C128.882 197.416 126.401 198.594 124.289 197.399L122.697 196.494L121.164 195.623C120.467 195.224 119.737 195.1 119.039 195.183C117.23 195.399 115.638 197.1 115.303 199.557L115.217 200.229Z" fill="#F2FAFF"/>
<path d="M122.737 186.103C122.737 186.858 123.217 187.464 123.816 187.464C124.414 187.464 124.895 186.85 124.895 186.103C124.895 185.347 124.414 184.741 123.816 184.741C123.217 184.741 122.737 185.347 122.737 186.103Z" fill="#100959"/>
<path opacity="0.15" d="M122.987 186.426C122.987 187.182 123.467 187.787 124.066 187.787C124.664 187.787 125.145 187.173 125.145 186.426C125.145 185.671 124.664 185.065 124.066 185.065C123.467 185.065 122.987 185.671 122.987 186.426Z" fill="#202234"/>
<path d="M138.401 196.511C138.401 197.266 138.888 197.872 139.48 197.872C140.079 197.872 140.559 197.258 140.559 196.511C140.559 195.756 140.072 195.15 139.48 195.15C138.882 195.15 138.401 195.756 138.401 196.511Z" fill="#394CA4"/>
<path opacity="0.15" d="M134.257 179.189C134.257 180.641 135.191 181.811 136.336 181.811C137.487 181.811 138.414 180.633 138.414 179.189C138.414 177.744 137.48 176.566 136.336 176.566C135.184 176.558 134.257 177.736 134.257 179.189Z" fill="#202234"/>
<path d="M134.513 178.251C134.513 179.703 135.447 180.874 136.599 180.874C137.75 180.874 138.678 179.695 138.678 178.251C138.678 176.798 137.743 175.628 136.599 175.628C135.447 175.628 134.513 176.798 134.513 178.251Z" fill="#394CA4"/>
<path d="M122.776 199.515C122.776 199.515 127.651 191.763 125.421 191.232C123.197 190.701 122.454 194.71 122.776 199.515Z" fill="#100959"/>
<path opacity="0.5" d="M122.928 194.751C123.151 194.685 123.296 194.486 123.395 194.22C123.592 193.697 123.579 193.091 123.803 192.585C123.914 192.328 124.092 192.137 124.303 192.012C124.507 191.896 124.737 191.83 124.934 191.689C125.125 191.547 125.158 191.373 125.013 191.174C123.849 191.191 123.164 192.618 122.868 194.751C122.888 194.759 122.908 194.759 122.928 194.751Z" fill="#F2FAFF"/>
<path d="M122.776 199.515C122.776 199.515 119.704 189.091 116.316 191.763C112.921 194.436 122.776 199.515 122.776 199.515Z" fill="#394CA4"/>
<path opacity="0.2" d="M116.454 191.672C116.487 191.772 116.566 191.863 116.632 191.896C116.77 191.962 116.941 191.938 117.086 191.938C117.401 191.929 117.724 191.904 118.033 191.979C118.368 192.062 118.684 192.311 118.961 192.552C119.467 193 119.796 193.705 120.309 194.12C120.395 194.187 120.513 194.262 120.645 194.328C119.507 192.261 118.02 190.601 116.454 191.672Z" fill="#F2FAFF"/>
<path d="M122.776 199.515C122.776 199.515 134.105 197.781 131.25 195.507C128.388 193.232 122.776 199.515 122.776 199.515Z" fill="#394CA4"/>
<path opacity="0.2" d="M126.559 196.345C126.895 196.27 127.138 196.021 127.421 195.805C127.691 195.606 127.98 195.44 128.289 195.357C128.724 195.241 129.158 195.382 129.599 195.307C129.75 195.282 129.928 195.216 129.987 195.025C128.855 194.934 127.546 195.556 126.355 196.37C126.421 196.361 126.487 196.361 126.559 196.345Z" fill="#F2FAFF"/>
<path d="M222.211 187.331C222.211 187.331 219.572 163.153 224.829 165.535C230.086 167.926 227.671 177.612 222.211 187.331Z" fill="#394CA4"/>
<path d="M221.868 187.09C221.868 187.09 232.618 163.244 240.033 171.437C247.447 179.645 221.868 187.09 221.868 187.09Z" fill="#100959"/>
<path opacity="0.5" d="M239.618 171.71C239.401 172.457 239.053 173.088 238.414 173.279C237.618 173.52 236.75 173.229 235.954 173.171C235.039 173.105 234.164 173.279 233.342 173.777C232.546 174.258 231.862 174.997 231.184 175.703C230.507 176.416 229.816 177.197 229.026 177.703C228.276 178.184 227.382 178.384 226.559 178.55C230.27 172.798 235.52 166.963 239.757 171.146C239.717 171.345 239.671 171.528 239.618 171.71Z" fill="#F2FAFF"/>
<path d="M236.993 200.229H144.184L145.513 194.378L148.645 180.517C150.862 170.731 158.566 164.606 166.526 166.315L170.546 167.195C170.849 167.262 171.145 167.295 171.434 167.295C173.211 167.295 174.895 166.174 175.895 164.274C182.789 151.226 198.382 152.844 203.5 167.137L204.184 169.054C205.395 172.441 208.546 173.951 211.23 172.441L215.237 170.175C217.579 168.847 220.191 169.843 221.638 172.175C222.171 173.022 222.553 174.043 222.704 175.196L223.303 179.579C223.454 180.666 223.783 181.629 224.25 182.426C224.342 182.567 224.428 182.716 224.52 182.841C225.322 184.019 226.428 184.808 227.638 185.082C227.941 185.165 228.27 185.198 228.586 185.198C229.592 185.198 230.612 184.849 231.533 184.069C233.618 182.309 236.414 182.749 238.191 184.99L240.882 188.385C244.355 192.751 241.895 200.237 236.993 200.229Z" fill="#4094F2"/>
<path opacity="0.2" d="M240.625 190.892C240.079 189.871 239.757 188.684 239.171 187.696C237.961 185.663 235.75 185.248 233.868 185.646C232.605 185.912 231.408 186.484 230.105 186.343C229.092 186.227 228.079 186.028 227.092 185.696C225.151 185.049 223.191 183.853 222.099 181.629C221.013 179.421 221.533 176.491 220.25 174.4C218.875 172.142 216.507 172.358 214.592 173.238C213.52 173.727 212.572 174.557 211.5 175.03C210.237 175.578 208.888 175.645 207.592 175.271C206.921 175.08 206.27 174.781 205.651 174.391C205.27 174.151 204.921 173.893 204.651 173.47C204.204 172.773 204.039 171.843 204.066 170.963C204.079 170.424 204.178 169.893 204.336 169.403C205.632 172.532 208.651 173.893 211.237 172.432L215.243 170.167C217.586 168.839 220.197 169.835 221.645 172.167C222.178 173.014 222.559 174.034 222.711 175.188L223.309 179.57C223.461 180.658 223.789 181.621 224.257 182.417C224.349 182.559 224.434 182.708 224.526 182.832C225.329 184.011 226.434 184.8 227.645 185.073C227.947 185.156 228.276 185.19 228.592 185.19C229.599 185.19 230.618 184.841 231.539 184.061C233.625 182.301 236.421 182.741 238.197 184.982L240.888 188.377C241.868 189.614 242.375 191.091 242.487 192.585C241.711 192.369 241.086 191.747 240.625 190.892Z" fill="#F2FAFF"/>
<path opacity="0.25" d="M228.803 200.229H144.184L145.513 194.378C149.697 189.647 155.474 187.323 161.355 188.609L164.487 189.281L166.171 189.63C166.539 189.713 166.908 189.746 167.263 189.746C168.046 189.746 168.822 189.572 169.546 189.215C170.763 188.626 171.829 187.58 172.586 186.144C173.651 184.111 174.908 182.384 176.276 180.965C176.809 180.392 177.355 179.878 177.921 179.413C181 176.84 184.539 175.562 188.086 175.512C190.164 175.462 192.23 175.852 194.211 176.665C199.013 178.583 203.27 182.949 205.645 189.589L206.467 191.863C207.921 195.938 211.717 197.747 214.934 195.921L217.368 194.544L219.711 193.216C220.776 192.61 221.888 192.419 222.954 192.543C225.717 192.875 228.151 195.465 228.658 199.225L228.803 200.229Z" fill="#F2FAFF"/>
<path d="M217.329 178.649C217.329 179.803 216.592 180.732 215.678 180.732C214.763 180.732 214.026 179.803 214.026 178.649C214.026 177.495 214.763 176.566 215.678 176.566C216.586 176.574 217.329 177.504 217.329 178.649Z" fill="#100959"/>
<path opacity="0.15" d="M216.947 179.147C216.947 180.301 216.211 181.23 215.296 181.23C214.382 181.23 213.645 180.301 213.645 179.147C213.645 177.993 214.382 177.064 215.296 177.064C216.211 177.064 216.947 177.993 216.947 179.147Z" fill="#202234"/>
<path d="M193.408 194.552C193.408 195.706 192.671 196.635 191.757 196.635C190.842 196.635 190.105 195.706 190.105 194.552C190.105 193.398 190.842 192.469 191.757 192.469C192.671 192.469 193.408 193.398 193.408 194.552Z" fill="#394CA4"/>
<path opacity="0.15" d="M199.737 168.092C199.737 170.308 198.316 172.101 196.559 172.101C194.803 172.101 193.382 170.308 193.382 168.092C193.382 165.875 194.803 164.083 196.559 164.083C198.309 164.083 199.737 165.875 199.737 168.092Z" fill="#202234"/>
<path d="M199.336 166.672C199.336 168.888 197.914 170.681 196.158 170.681C194.401 170.681 192.98 168.888 192.98 166.672C192.98 164.456 194.401 162.663 196.158 162.663C197.914 162.655 199.336 164.456 199.336 166.672Z" fill="#394CA4"/>
<path d="M217.27 199.134C217.27 199.134 209.829 187.298 213.224 186.484C216.618 185.671 217.75 191.796 217.27 199.134Z" fill="#100959"/>
<path opacity="0.5" d="M217.026 191.863C216.678 191.763 216.461 191.456 216.316 191.058C216.02 190.261 216.039 189.331 215.697 188.559C215.526 188.169 215.257 187.879 214.934 187.688C214.618 187.505 214.27 187.414 213.967 187.19C213.678 186.974 213.625 186.708 213.849 186.41C215.625 186.443 216.678 188.618 217.118 191.879C217.092 191.879 217.059 191.871 217.026 191.863Z" fill="#F2FAFF"/>
<path d="M217.27 199.134C217.27 199.134 221.96 183.214 227.132 187.298C232.309 191.381 217.27 199.134 217.27 199.134Z" fill="#394CA4"/>
<path opacity="0.2" d="M226.921 187.165C226.868 187.314 226.743 187.456 226.651 187.505C226.447 187.613 226.178 187.572 225.961 187.563C225.48 187.555 224.987 187.514 224.513 187.63C224 187.763 223.513 188.136 223.092 188.51C222.322 189.199 221.822 190.269 221.026 190.908C220.901 191.008 220.717 191.124 220.507 191.224C222.25 188.061 224.526 185.522 226.921 187.165Z" fill="#F2FAFF"/>
<path d="M217.27 199.134C217.27 199.134 199.967 196.478 204.329 193.008C208.697 189.547 217.27 199.134 217.27 199.134Z" fill="#394CA4"/>
<path opacity="0.2" d="M211.487 194.295C210.974 194.178 210.605 193.797 210.171 193.473C209.763 193.166 209.316 192.917 208.849 192.792C208.184 192.618 207.52 192.826 206.849 192.718C206.618 192.676 206.342 192.577 206.257 192.286C207.987 192.153 209.98 193.099 211.803 194.336C211.697 194.328 211.592 194.32 211.487 194.295Z" fill="#F2FAFF"/>
<path d="M75.7105 68.5829C75.7105 68.5829 82.875 75.9948 85.8158 76.2438C89 76.5177 97.5526 69.886 97.5526 69.886L99.3619 73.2475C99.3619 73.2475 89.0395 84.6185 84.5592 84.6434C80.5987 84.66 71.0329 74.2518 71.0329 74.2518L75.7105 68.5829Z" fill="#FB8A77"/>
<path d="M97.5526 69.886L98.875 68.5165C98.875 68.5165 98.9342 61.8516 99.6645 62.6899C100.395 63.5365 100.803 64.7649 100.803 64.7649C100.803 64.7649 101.855 61.9927 102.895 62.8891C103.934 63.7855 106.132 67.0806 105.059 68.1264C103.987 69.1722 104.118 71.1227 102.592 70.8405C101.395 70.6247 99.3618 73.2392 99.3618 73.2392L97.5526 69.886Z" fill="#FB8A77"/>
<path d="M64.9145 200.196C65.9079 199.632 67.0329 199.673 67.8684 199.831C68.4671 199.947 68.9934 200.345 69.4605 200.86C70.7171 202.238 74.3289 202.495 75.1381 203.599C76.0658 204.852 74.3684 205.691 74.3684 205.691H65.1908C63.7303 206.006 63.875 204.96 63.875 204.96C63.875 204.96 63.0658 201.242 64.9145 200.196Z" fill="#231F20"/>
<path d="M68.3684 194.535V201.756C68.3684 201.756 66.6118 203.383 64.8618 201.756V194.535H68.3684Z" fill="#FF8D7D"/>
<path d="M59.0197 100.696L61.9737 151.558L64.4145 199.74L68.8618 198.91L73.046 148.329L68.3684 100.704L59.0197 100.696Z" fill="#202234"/>
<path d="M47.1777 200.594C48.2303 200.262 49.3487 200.52 50.1579 200.827C50.7369 201.051 51.2237 201.516 51.6316 202.088C52.7237 203.607 56.3027 204.545 56.9869 205.716C57.7698 207.06 55.9803 207.508 55.9803 207.508L46.829 205.74C45.3356 205.749 45.5987 204.811 45.5987 204.811C45.5987 204.811 45.2106 201.209 47.1777 200.594Z" fill="#231F20"/>
<path d="M51.5724 194.535L50.3816 201.756C50.3816 201.756 48.625 203.383 46.875 201.756L48.0658 194.535H51.5724Z" fill="#FF8D7D"/>
<path d="M52.125 103.435C52.125 103.435 49.1711 107.784 49.4145 118.341C49.6579 128.899 49.4013 145.35 49.4013 145.35L47.2829 197.266C47.2829 197.266 50.5395 199.574 51.5658 198.71C61.9342 190.029 61.9671 136.958 61.9671 136.958C61.9671 136.958 66.1513 102.19 63.4408 100.945C60.7434 99.7079 52.125 103.435 52.125 103.435Z" fill="#232B57"/>
<path d="M70.2171 78.9496C70.2171 78.9496 75.0197 80.7673 75.8487 79.9539C76.6776 79.1405 79.5526 70.9484 78.7105 70.2097C77.8684 69.471 69.25 62.7895 64.3618 62.6152C64.3618 62.6152 71.5987 74.368 70.2171 78.9496Z" fill="#1976D2"/>
<path opacity="0.25" d="M78.704 70.2097C78.375 69.9192 76.8553 68.724 74.8421 67.3628C74.625 67.7114 74.4342 68.0849 74.2434 68.4501C73.9605 68.9979 73.6842 69.5457 73.3684 70.0603C73.0724 70.5334 72.7303 70.9899 72.3158 71.2887C71.9079 71.5792 71.4474 71.6871 70.9803 71.5875C70.8553 71.5626 70.7171 71.5294 70.6053 71.4547C70.4803 71.3717 70.375 71.2638 70.2697 71.1476C70.0132 70.8654 69.7895 70.5417 69.5329 70.2595C69.2566 69.9524 68.9342 69.7449 68.5987 69.554C68.3618 69.4212 68.1184 69.3133 67.875 69.222C69.4803 72.6914 70.8882 76.692 70.2105 78.9413C70.2105 78.9413 75.0132 80.759 75.8421 79.9456C76.6776 79.1405 79.5461 70.9484 78.704 70.2097Z" fill="#231F20"/>
<path d="M60.25 61.2042C71.3224 60.8307 71.3224 79.2152 71.3224 79.2152C71.3224 79.2152 73.5855 101.102 69.4737 105.294C65.8618 108.979 53.8487 109.817 50.8947 105.294C47.7632 100.505 50.8947 80.4602 50.8947 80.4602C50.8947 80.4602 47.2961 61.6441 60.25 61.2042Z" fill="#1976D2"/>
<path opacity="0.25" d="M64.329 105.045C63.7763 104.563 63.1316 104.455 62.4737 104.472C61.7697 104.489 61.0724 104.588 60.375 104.514C59.7434 104.447 59.1447 104.24 58.5724 103.891C58.0197 103.551 57.4934 103.161 56.9803 102.746C55.7961 101.8 54.6382 100.737 53.6513 99.4672C53.2237 98.9111 52.8553 98.3218 52.6119 97.608C52.2632 96.5705 52.1382 95.4417 52.1382 94.3212C52.1316 91.8727 52.625 89.4657 52.6447 87.0172C52.6776 83.3652 52.204 79.7713 51.6908 76.1857C51.5395 76.3102 51.3947 76.4513 51.2566 76.5924C51.0066 76.8497 50.7632 77.1319 50.5263 77.4141C50.6579 79.2401 50.8947 80.4519 50.8947 80.4519C50.8947 80.4519 47.7632 100.496 50.8947 105.294C53.1447 108.738 60.6316 109.07 65.6776 107.419C65.4013 106.481 64.9868 105.617 64.329 105.045Z" fill="#231F20"/>
<path d="M50.4408 79.1737L45.4868 92.2462L52.9934 105.285L51.2895 108.539C51.2895 108.539 39.7237 98.0645 38.7171 92.5533C37.8289 87.6812 45.046 74.6834 45.046 74.6834L50.4408 79.1737Z" fill="#FB8A77"/>
<path d="M52.9934 105.294L56.2105 107.02C56.2105 107.02 59.5132 106.24 59.0198 107.327C58.5263 108.415 57.6645 108.157 57.6645 108.157C57.6645 108.157 60.0395 108.838 59.579 110.315C59.1184 111.793 57.0526 115.221 56.0066 114.133C54.9605 113.046 53.5461 113.411 53.4211 111.477C53.3224 109.95 51.2895 108.539 51.2895 108.539L52.9934 105.294Z" fill="#FB8A77"/>
<path d="M50.9013 80.4519L48.6842 83.249C48.6842 83.249 41.6118 79.2484 41.6118 77.5054C41.6118 75.7624 48.3224 64.408 54.3421 63.3539C57.0987 62.8642 50.9013 80.4519 50.9013 80.4519Z" fill="#1976D2"/>
<path d="M50.4868 192.56L56.171 148.346V115.636C59.3355 114.324 60.7631 108.381 60.8223 108.124L60.6184 108.049C60.6052 108.108 59.1381 114.2 56.0329 115.411L55.9539 115.445V148.321L50.2697 192.51L50.4868 192.56Z" fill="#726658"/>
<path opacity="0.5" d="M66.7237 193.714C66.9408 189.356 68.8355 151.118 68.4605 150.247C68.1777 149.583 65.0263 132.949 63.4079 124.243L63.1974 124.309C63.3882 125.338 67.9013 149.524 68.2763 150.388C68.5527 151.326 67.0921 181.969 66.5132 193.705L66.7237 193.714Z" fill="#726658"/>
<path d="M68.7894 70.8239C66.8815 72.0938 64.671 73.0317 62.5921 72.791C61.5526 72.6665 60.6776 71.9859 59.7302 71.3634C58.8026 70.7575 57.6908 70.3425 56.8158 71.38C56.6447 71.5875 56.4737 71.1227 56.6447 70.9152C58.3618 68.8651 60.3158 71.6456 62.0263 72.1353C63.1579 72.459 64.3552 72.21 65.4737 71.8697C66.5789 71.5294 67.6579 70.9982 68.6973 70.301C68.8947 70.1682 68.9868 70.6911 68.7894 70.8239ZM69.2236 75.7956C68.1118 76.0695 66.9934 76.3351 65.8815 76.609C64.8421 76.858 63.7697 77.2813 62.7171 77.3228C61.75 77.3643 61.0592 76.277 60.1644 75.8869C59.1513 75.4553 58.0723 75.6213 57.046 75.7873C56.8289 75.8205 56.8355 75.281 57.046 75.2478C57.9737 75.0984 58.9144 74.9656 59.8421 75.2146C60.2763 75.3391 60.6973 75.5549 61.0921 75.8786C61.5789 76.277 62.0065 76.7418 62.5723 76.775C63.1315 76.8082 63.7039 76.5841 64.25 76.4513C64.7631 76.3268 65.2829 76.2023 65.796 76.0778C66.9079 75.8039 68.0263 75.5383 69.1381 75.2644C69.3487 75.2229 69.4408 75.7458 69.2236 75.7956ZM68.5197 80.0369C66.6842 80.8835 64.7697 81.5143 62.8552 81.0246C61.9144 80.7839 61.0065 80.2942 60.125 79.7464C59.171 79.1488 58.2105 78.4931 57.1644 78.6923C56.9473 78.7338 56.9539 78.1943 57.1644 78.1528C58.0723 77.9785 58.9342 78.4267 59.7763 78.9496C60.6644 79.5057 61.5526 80.0535 62.4934 80.3689C64.4868 81.0412 66.5065 80.4021 68.4342 79.514C68.6381 79.4227 68.7302 79.9456 68.5197 80.0369Z" fill="white"/>
<path d="M58.6184 53.7176L58.0724 62.001C58.0724 62.001 60.1645 65.7775 62.1645 62.8891L62.0329 57.3281L58.6184 53.7176Z" fill="#FB8A77"/>
<path opacity="0.15" d="M60.4145 63.0302C60.8421 62.084 60.9868 60.6481 60.2961 59.8264C60.0197 59.4944 59.6579 59.2869 59.3882 58.9466C59.0526 58.515 58.9868 57.851 59.0263 57.27C59.0921 56.3321 59.3947 55.4025 59.3289 54.4729L62.0263 57.3281L62.1579 62.8891C61.375 64.0179 60.5855 64.1341 59.9079 63.8436C60.1053 63.6112 60.2763 63.3456 60.4145 63.0302Z" fill="#33133F"/>
<path d="M67.1842 45.0275C67.1842 45.0275 67.7368 58.3158 63.5526 58.8221C59.375 59.3284 57.4605 53.8089 57.4605 53.8089C57.4605 53.8089 56.6973 54.4314 56.5 53.4603C56.3026 52.4892 55.3618 50.796 56.2697 50.132C57.1776 49.4597 57.4868 50.5221 57.4868 50.5221L56.9342 47.5258C56.9408 47.5258 67.0197 40.6783 67.1842 45.0275Z" fill="#FB8A77"/>
<path opacity="0.05" d="M57.125 50.8043C57.125 50.8043 56.5658 50.4391 56.3553 50.9869C56.1447 51.5347 56.6579 53.5931 57.3026 53.3275C57.3026 53.3275 56.4605 52.8876 56.5395 51.6177C56.625 50.3561 56.9868 51.211 57.125 50.8043Z" fill="#33133F"/>
<path d="M57.2237 50.2233C57.5263 50.7711 60.0066 45.2433 61.7631 46.397C63.5197 47.5507 65.6316 47.1274 66.2566 46.0152C66.8816 44.903 68.7237 45.0358 67.2171 41.7988C64.4802 35.8809 51.0197 38.9768 57.2237 50.2233Z" fill="#202234"/>
<path opacity="0.05" d="M59.7566 52.6635C59.704 53.037 60.0263 53.4105 60.4671 53.5018C60.9079 53.5931 61.3092 53.3773 61.3553 53.0038C61.4079 52.6386 61.0856 52.2568 60.6448 52.1655C60.204 52.0659 59.8027 52.29 59.7566 52.6635ZM64.7698 52.6967C64.7171 53.0702 65.0395 53.4437 65.4803 53.535C65.9211 53.6263 66.3224 53.4105 66.3685 53.037C66.4145 52.6635 66.0987 52.29 65.6579 52.1987C65.2171 52.0991 64.8158 52.3232 64.7698 52.6967Z" fill="#33133F"/>
<path d="M64.5526 49.2273C64.5987 49.2273 64.6381 49.2024 64.6579 49.1526C64.6776 49.1111 65.1579 48.1151 66.3289 48.7708C66.3881 48.804 66.4671 48.7708 66.4934 48.6878C66.5197 48.6131 66.4934 48.5135 66.4276 48.4803C65.046 47.7084 64.4474 48.9783 64.4408 48.9949C64.4079 49.0696 64.4276 49.1609 64.4868 49.2107C64.5131 49.219 64.5329 49.2273 64.5526 49.2273ZM62.1579 49.2522C62.171 49.2522 62.1908 49.2522 62.2039 49.2439C62.2697 49.2107 62.296 49.1194 62.2697 49.0447C62.2631 49.0281 61.8158 47.6669 60.1908 48.1068C60.125 48.1234 60.0789 48.2064 60.0921 48.2894C60.1053 48.3724 60.171 48.4305 60.2368 48.4056C61.6513 48.0238 62.0197 49.1028 62.0329 49.1526C62.0592 49.219 62.1052 49.2522 62.1579 49.2522ZM63.5658 53.1947C63.6118 53.1947 63.6513 53.1864 63.6908 53.1698C63.9539 53.0702 64.0658 52.6967 64.0724 52.6884C64.0855 52.6386 64.0789 52.5888 64.0592 52.5473C63.6184 51.6924 63.7302 50.5304 63.7368 50.5138C63.7434 50.4308 63.6974 50.3478 63.6316 50.3395C63.5658 50.3229 63.5 50.3893 63.4934 50.4723C63.4868 50.5221 63.3684 51.7007 63.8224 52.6386C63.7895 52.7216 63.7237 52.8378 63.6316 52.8627C63.546 52.8959 63.4474 52.8544 63.3289 52.7382C63.2763 52.6884 63.1974 52.6967 63.1579 52.7631C63.1184 52.8295 63.125 52.9291 63.1776 52.9789C63.3026 53.1283 63.4342 53.1947 63.5658 53.1947Z" fill="#202234"/>
<path d="M57.296 47.0278C57.296 47.0278 57.1579 52.3647 59.8421 55.3942C59.8421 55.3942 60.125 53.452 63.2302 54.0081C66.3355 54.5642 65.8684 55.776 65.8684 55.776C65.8684 55.776 66.625 55.6266 67.0658 50.1652C67 53.6097 66.8947 54.5725 66.8947 54.5725C66.8947 54.5725 66.4144 58.3988 63.8421 59.0711C61.2763 59.7517 57.5 57.8759 57.4934 53.7176C57.4934 53.7176 57.6776 50.9703 57.0921 49.3767C56.5 47.7997 56.2237 47.1523 57.296 47.0278Z" fill="#202234"/>
<path d="M64.3618 54.7634C64.3618 54.7634 62.9473 55.5685 61.3684 54.6389C61.0066 55.4689 62.8816 57.6269 64.3618 54.7634Z" fill="#FCFAF7"/>
<path d="M64.9276 50.5221C64.9276 51.0118 65.1382 51.4019 65.4079 51.4019C65.6776 51.4019 65.8816 51.0035 65.8816 50.5221C65.8816 50.0407 65.6711 49.6423 65.4079 49.6423C65.1448 49.6423 64.9276 50.0324 64.9276 50.5221ZM60.6316 50.5221C60.6316 51.0118 60.8421 51.4019 61.1119 51.4019C61.3816 51.4019 61.5921 51.0035 61.5921 50.5221C61.5921 50.0407 61.3816 49.6423 61.1119 49.6423C60.8421 49.6423 60.6316 50.0324 60.6316 50.5221Z" fill="#202234"/>
<path d="M173.651 67.3628H78.7829C75.6184 67.3628 73.0526 70.5998 73.0526 74.5921V120.25C73.0526 124.243 75.6184 127.48 78.7829 127.48H173.664C176.822 127.48 179.388 124.251 179.388 120.259V74.5921C179.382 70.5998 176.816 67.3628 173.651 67.3628Z" fill="#1976D2"/>
<path d="M161.316 97.5416C161.316 97.5416 161.066 103.41 164.724 102.945C168.382 102.48 179.382 111.311 179.382 111.311V96.7282L161.316 97.5416Z" fill="#1976D2"/>
<path d="M183.632 82.336L181.303 93.3086L168.164 95.8899L168.059 99.3842C168.059 99.3842 179.717 101.733 182.993 99.1601C185.888 96.8859 189.099 83.7719 189.099 83.7719L183.632 82.336Z" fill="#FB8A77"/>
<path d="M194.566 200.204C193.776 199.839 192.895 199.922 192.25 200.072C191.783 200.179 191.382 200.495 191.033 200.893C190.092 201.956 187.27 202.304 186.664 203.143C185.974 204.097 187.322 204.628 187.322 204.628L194.5 204.213C195.651 204.371 195.507 203.624 195.507 203.624C195.507 203.624 196.046 200.885 194.566 200.204Z" fill="#231F20"/>
<path d="M191.862 196.478L192.033 201.2C192.033 201.2 193.217 202.196 194.329 201.067L194.158 196.345L191.862 196.478Z" fill="#FB8A77"/>
<path d="M203.382 113.303C203.382 113.303 207.967 118.482 206.316 127.837C204.664 137.191 196.816 159.617 196.816 159.617L195.171 198.503L191.23 198.569L187.033 155.002C187.033 155.002 191.053 109.153 193.632 108.63C196.211 108.116 203.382 113.303 203.382 113.303Z" fill="#202234"/>
<path d="M233.691 190.028C232.882 190.253 232.184 190.9 231.711 191.456C231.368 191.854 231.164 192.377 231.039 192.942C230.697 194.444 228.493 196.61 228.342 197.706C228.164 198.959 229.507 198.503 229.507 198.503L235.303 193.407C236.329 192.776 235.895 192.245 235.895 192.245C235.895 192.245 235.204 189.613 233.691 190.028Z" fill="#231F20"/>
<path d="M229.895 188.717L232 192.527C232 192.527 233.401 192.577 233.849 190.9L231.743 187.09L229.895 188.717Z" fill="#FB8A77"/>
<path d="M209.072 109.361C209.072 109.361 209.914 108.406 213.184 117.063C215.026 121.952 215.151 132.584 215.151 132.584L219.592 150.736L233.303 189.149L230.928 191.265L209.651 155.235C209.651 155.235 191.408 112.266 193.461 110.216C195.5 108.174 209.072 109.361 209.072 109.361Z" fill="#232B57"/>
<path d="M194.296 71.131C189.368 72.0274 183.059 78.0615 182.178 85.8137L188.224 87.8389C188.224 87.8389 197.776 70.5002 194.296 71.131Z" fill="#1976D2"/>
<path opacity="0.25" d="M186.75 87.3492L185.553 86.9508L189.658 75.9616C189.658 75.9616 188.375 86.0129 186.75 87.3492Z" fill="#231F20"/>
<path d="M191.697 114.009C191.697 114.009 193.434 98.0645 191.388 95.2259C189.342 92.3873 185.388 91.8478 187.013 86.2287C188.625 80.6096 191.086 73.5878 193.961 71.1974C194.967 70.3757 198.658 69.9524 198.658 69.9524C198.658 69.9524 207.599 66.6324 208.336 70.7741C208.645 72.4839 208.658 78.3437 208.776 85.075C208.862 89.8558 208.987 95.0765 209.283 99.5751C209.605 104.231 210.092 108.074 210.928 109.826C213.039 114.274 191.697 114.009 191.697 114.009Z" fill="#1976D2"/>
<path d="M210.572 84.3861L217.158 94.1386L212.697 113.237L214.947 113.461C214.947 113.461 223.257 96.4211 222.638 91.6154C222.086 87.3658 213.73 78.5844 213.73 78.5844L210.572 84.3861Z" fill="#FB8A77"/>
<path d="M211.539 115.353C211.539 115.353 211.362 113.901 211.579 113.577C212.079 112.822 212.842 112.598 213.079 112.697C212.408 113.527 211.539 115.353 211.539 115.353Z" fill="#FB8A77"/>
<path opacity="0.2" d="M212.066 113.436C211.914 113.461 211.763 113.511 211.612 113.519C212.112 112.805 212.849 112.598 213.072 112.689C212.895 112.905 212.71 113.187 212.526 113.494C212.375 113.444 212.224 113.419 212.066 113.436Z" fill="white"/>
<path d="M214.947 115.204C214.862 115.478 214.757 115.744 214.645 115.984C214.638 116.001 214.618 116.059 214.579 116.159C214.553 116.233 214.513 116.325 214.474 116.424C214.474 116.424 214.053 117.536 213.763 117.52C213.467 117.503 213.421 117.229 213.421 117.229C213.421 117.229 213.217 117.478 212.967 117.321C212.717 117.163 212.73 116.906 212.73 116.906C212.73 116.906 212.546 117.138 212.263 116.972C211.98 116.806 211.961 116.432 211.961 116.432C211.961 116.432 211.664 116.764 211.421 116.233C211.178 115.702 211.599 114.963 211.612 114.93C211.671 114.781 211.737 114.648 211.803 114.515C211.822 114.482 211.836 114.44 211.855 114.407C213.5 112.258 214.579 107.502 214.993 107.41C214.993 107.41 216.901 107.908 216.895 108.514C216.73 109.037 214.947 113.444 214.947 113.444C214.947 113.444 215.283 114.183 214.947 115.204Z" fill="#FB8A77"/>
<path opacity="0.2" d="M214.651 115.984C214.645 116.001 214.625 116.067 214.586 116.159C214.559 116.233 214.52 116.324 214.48 116.424C214.48 116.424 214.059 117.536 213.77 117.52C213.474 117.503 213.428 117.229 213.428 117.229C213.428 117.229 213.224 117.478 212.974 117.321C212.724 117.163 212.737 116.906 212.737 116.906C212.737 116.906 212.553 117.138 212.27 116.972C211.987 116.806 211.967 116.432 211.967 116.432C211.967 116.432 211.671 116.764 211.428 116.233C211.342 116.042 211.342 115.827 211.375 115.619C211.454 115.827 211.592 116.026 211.757 116.125C211.796 116.15 211.849 116.167 211.895 116.167C211.947 116.167 212 116.15 212.053 116.15C212.171 116.142 212.243 116.258 212.322 116.349C212.421 116.474 212.526 116.582 212.664 116.615C212.77 116.64 212.875 116.632 212.98 116.632C213.092 116.632 213.197 116.648 213.296 116.731C213.388 116.806 213.467 116.881 213.572 116.914C213.757 116.972 213.928 116.864 214.066 116.706C214.158 116.598 214.23 116.466 214.303 116.333C214.395 116.167 214.493 115.993 214.586 115.827C214.743 115.536 214.901 115.245 215.033 114.93C215.013 115.021 214.987 115.113 214.961 115.196C214.862 115.478 214.763 115.744 214.651 115.984Z" fill="white"/>
<path opacity="0.25" d="M209.276 99.5834C208.822 98.2471 208.257 96.8527 207.592 95.6409C205.697 92.1798 201.434 93.2173 201.434 93.2173C207.178 91.4328 207.447 87.5733 207.447 87.5733C207.803 86.6437 208.309 85.7722 208.776 85.075C208.862 89.8558 208.987 95.0848 209.276 99.5834Z" fill="#231F20"/>
<path d="M206.928 69.0477C206.928 69.0477 213.947 73.455 216.625 80.7922C216.625 80.7922 213.474 85.158 211.079 86.1789L208.263 83.5644L206.928 69.0477Z" fill="#1976D2"/>
<path d="M200.579 69.3548L201.414 69.0477C201.414 69.0477 203.164 74.1439 198.461 74.8411C193.75 75.5466 192.829 73.621 192.829 73.621C192.829 73.621 192.52 72.0191 193.717 71.2887C194.914 70.5583 200.579 69.3548 200.579 69.3548Z" fill="#F56F58"/>
<path d="M196.533 48.9617C195.625 49.2771 192.23 49.2688 190.914 51.7422C189.487 54.3401 191.217 58.9051 189.066 59.4114C186.737 59.4695 187.743 63.1298 189.711 64.7317C190.664 65.5368 192.868 66.0763 193.862 66.7652C195.461 68.0932 198.408 68.7738 200.632 68.2924C202.868 67.9023 204.382 66.3502 203.493 65.2629C201.671 62.5737 204.408 61.6026 202.586 58.7391C201.118 56.2159 201.829 55.4938 201.408 54.3235C200.099 50.4806 198.842 48.638 196.533 48.9617Z" fill="#231F20"/>
<path d="M198.678 62.7563L199.309 70.6662C199.309 70.6662 197.362 74.3182 195.414 71.5958L195.467 66.2838L198.678 62.7563Z" fill="#F18A66"/>
<path opacity="0.15" d="M197.079 71.6954C196.658 70.799 196.5 69.4295 197.151 68.6244C197.414 68.3007 197.757 68.1015 198.007 67.7612C198.322 67.3462 198.375 66.7071 198.329 66.1593C198.257 65.2629 197.954 64.3831 198 63.495L195.461 66.2838L195.408 71.5958C196.171 72.6582 196.928 72.7495 197.572 72.4673C197.388 72.2432 197.217 71.9942 197.079 71.6954Z" fill="#33133F"/>
<path d="M190.368 54.6306C190.368 54.6306 190.02 67.3462 194.02 67.7446C198.02 68.143 199.776 62.831 199.776 62.831C199.776 62.831 200.513 63.4037 200.691 62.4741C200.868 61.5445 201.743 59.9011 200.868 59.2869C199.993 58.6644 199.711 59.6853 199.711 59.6853L200.204 56.8052C200.204 56.7969 190.474 50.464 190.368 54.6306Z" fill="#F18A66"/>
<path opacity="0.05" d="M200.099 59.8596C200.099 59.8596 200.625 59.5027 200.836 60.0173C201.046 60.5319 200.586 62.5156 199.961 62.2749C199.961 62.2749 200.763 61.835 200.664 60.6232C200.566 59.4114 200.237 60.2414 200.099 59.8596ZM197.671 62.9223C197.717 63.2709 197.414 63.6361 196.987 63.7274C196.566 63.8187 196.184 63.6029 196.138 63.2543C196.092 62.9057 196.395 62.5405 196.822 62.4492C197.243 62.3579 197.625 62.5737 197.671 62.9223ZM192.882 62.9555C192.928 63.3041 192.625 63.6693 192.197 63.7606C191.776 63.8519 191.395 63.6361 191.349 63.2875C191.303 62.9389 191.605 62.5737 192.033 62.4824C192.447 62.3911 192.829 62.6069 192.882 62.9555Z" fill="#33133F"/>
<path d="M193.079 59.6355C193.039 59.6355 193 59.6106 192.974 59.5608C192.954 59.5193 192.5 58.5648 191.375 59.1956C191.316 59.2288 191.243 59.1956 191.217 59.1209C191.191 59.0462 191.217 58.9549 191.276 58.9217C192.599 58.183 193.171 59.4031 193.178 59.4114C193.211 59.4861 193.191 59.5774 193.132 59.6189C193.125 59.6355 193.105 59.6355 193.079 59.6355ZM195.375 59.6687C195.362 59.6687 195.349 59.6687 195.329 59.6604C195.27 59.6272 195.237 59.5442 195.263 59.4695C195.27 59.4529 195.697 58.1581 197.25 58.5731C197.316 58.5897 197.355 58.6727 197.342 58.7474C197.329 58.8304 197.263 58.8802 197.204 58.8636C195.849 58.4984 195.5 59.5359 195.487 59.5774C195.467 59.6272 195.421 59.6687 195.375 59.6687ZM194.026 63.4369C193.987 63.4369 193.947 63.4286 193.908 63.412C193.658 63.3207 193.553 62.9638 193.546 62.9472C193.533 62.9057 193.539 62.8559 193.559 62.8144C193.98 61.9927 193.868 60.8805 193.868 60.8722C193.862 60.7892 193.908 60.7145 193.967 60.7062C194.033 60.6979 194.092 60.756 194.099 60.8307C194.105 60.8805 194.217 62.001 193.789 62.9057C193.822 62.9804 193.888 63.0883 193.974 63.1215C194.053 63.1464 194.151 63.1132 194.263 63.0053C194.316 62.9555 194.388 62.9638 194.428 63.0302C194.467 63.0966 194.454 63.1879 194.408 63.2377C194.276 63.3705 194.151 63.4369 194.026 63.4369Z" fill="#231F20"/>
<path d="M193.27 64.9309C193.27 64.9309 194.618 65.7028 196.132 64.8147C196.474 65.6115 194.678 67.6699 193.27 64.9309Z" fill="#FCFAF7"/>
<path d="M192.724 60.8805C192.724 61.3453 192.52 61.7188 192.27 61.7188C192.02 61.7188 191.816 61.3453 191.816 60.8805C191.816 60.4157 192.02 60.0422 192.27 60.0422C192.52 60.0422 192.724 60.4074 192.724 60.8805ZM196.829 60.8805C196.829 61.3453 196.625 61.7188 196.375 61.7188C196.125 61.7188 195.921 61.3453 195.921 60.8805C195.921 60.4157 196.125 60.0422 196.375 60.0422C196.625 60.0339 196.829 60.4074 196.829 60.8805Z" fill="#231F20"/>
<path opacity="0.05" d="M195.02 67.0474C194.895 67.0474 194.816 67.0225 194.803 67.0225C194.77 67.0142 194.75 66.9727 194.757 66.9312C194.763 66.8897 194.796 66.8648 194.829 66.8731C194.836 66.8731 195.355 67.0225 195.822 66.5079C195.849 66.483 195.882 66.483 195.908 66.5162C195.928 66.5494 195.928 66.5992 195.901 66.6241C195.579 66.981 195.23 67.0474 195.02 67.0474Z" fill="#33133F"/>
<path d="M192.191 52.5473C192.217 52.0161 192.197 51.6675 192.197 51.6675C188.039 52.1323 190.039 57.5771 190.039 57.5771C191.487 56.6641 191.974 54.7385 192.132 53.3275C193.25 55.2614 196.75 57.5688 200.658 57.6684L201.145 56.5728L192.191 52.5473Z" fill="#231F20"/>
<path d="M191.803 52.4394C191.98 53.9085 192.816 55.195 193.711 56.108C194.882 57.3115 196.336 58.0336 197.842 58.1664C198.849 58.2494 199.855 58.0502 200.809 57.6435C200.987 57.5688 200.914 57.2036 200.73 57.2866C199.171 57.9589 197.493 58.0004 195.934 57.2866C194.697 56.7222 193.539 55.7013 192.776 54.3401C192.441 53.7425 192.178 53.0785 192.086 52.3481C192.059 52.1074 191.776 52.207 191.803 52.4394Z" fill="#33133F"/>
<path d="M104.868 88.5859V104.588H103.941V96.9772H95.4605V104.588H94.5395V88.5859H95.4605V95.948H103.941V88.5859H104.868ZM118.493 103.534V104.588H109.743V88.5859H118.224V89.64H110.671V95.948H117.428V96.9772H110.671V103.534H118.493ZM122.316 88.5859H123.243V103.534H130.546V104.588H122.322V88.5859H122.316ZM133.368 88.5859H134.289V103.534H141.592V104.588H133.368V88.5859ZM146.171 103.634C145.171 102.928 144.382 101.957 143.809 100.72C143.237 99.4838 142.947 98.106 142.947 96.5871C142.947 95.0682 143.237 93.6821 143.809 92.4537C144.382 91.217 145.171 90.2459 146.171 89.5404C147.171 88.8349 148.296 88.478 149.539 88.478C150.783 88.478 151.908 88.8266 152.908 89.5321C153.908 90.2293 154.697 91.2004 155.27 92.4371C155.842 93.6738 156.132 95.0599 156.132 96.5954C156.132 98.1309 155.842 99.517 155.27 100.754C154.697 101.99 153.908 102.953 152.908 103.659C151.908 104.364 150.783 104.713 149.539 104.713C148.296 104.696 147.178 104.348 146.171 103.634ZM152.421 102.712C153.276 102.107 153.954 101.26 154.447 100.189C154.941 99.1186 155.191 97.9151 155.191 96.5871C155.191 95.2591 154.941 94.0639 154.447 92.9849C153.954 91.9142 153.276 91.0676 152.421 90.4617C151.566 89.8558 150.605 89.5487 149.539 89.5487C148.474 89.5487 147.513 89.8558 146.651 90.4617C145.789 91.0676 145.112 91.9142 144.612 92.9849C144.118 94.0556 143.868 95.2591 143.868 96.5871C143.868 97.9151 144.118 99.1103 144.612 100.189C145.105 101.26 145.789 102.107 146.651 102.712C147.513 103.318 148.48 103.625 149.539 103.625C150.605 103.625 151.566 103.318 152.421 102.712Z" fill="white"/>
<g opacity="0.25">
<path d="M139.197 51.5181C139.197 51.8916 139.441 52.1987 139.737 52.1987C140.033 52.1987 140.276 51.8916 140.276 51.5181C140.276 51.1446 140.033 50.8375 139.737 50.8375C139.441 50.8375 139.197 51.1363 139.197 51.5181ZM136.066 51.5181C136.066 51.8916 136.309 52.1987 136.605 52.1987C136.901 52.1987 137.145 51.8916 137.145 51.5181C137.145 51.1446 136.901 50.8375 136.605 50.8375C136.309 50.8375 136.066 51.1363 136.066 51.5181ZM132.941 51.5181C132.941 51.8916 133.184 52.1987 133.48 52.1987C133.776 52.1987 134.02 51.8916 134.02 51.5181C134.02 51.1446 133.776 50.8375 133.48 50.8375C133.184 50.8375 132.941 51.1363 132.941 51.5181Z" fill="#4094F2"/>
<path d="M130.349 52.1987C130.647 52.1987 130.888 51.894 130.888 51.5181C130.888 51.1422 130.647 50.8375 130.349 50.8375C130.051 50.8375 129.809 51.1422 129.809 51.5181C129.809 51.894 130.051 52.1987 130.349 52.1987Z" fill="#4094F2"/>
<path d="M127.224 52.1987C127.522 52.1987 127.763 51.894 127.763 51.5181C127.763 51.1422 127.522 50.8375 127.224 50.8375C126.926 50.8375 126.684 51.1422 126.684 51.5181C126.684 51.894 126.926 52.1987 127.224 52.1987Z" fill="#4094F2"/>
<path d="M138.211 54.8713C138.211 55.2448 138.454 55.5519 138.75 55.5519C139.046 55.5519 139.289 55.2448 139.289 54.8713C139.289 54.4978 139.046 54.1907 138.75 54.1907C138.454 54.1907 138.211 54.4978 138.211 54.8713ZM135.086 54.8713C135.086 55.2448 135.329 55.5519 135.625 55.5519C135.921 55.5519 136.164 55.2448 136.164 54.8713C136.164 54.4978 135.921 54.1907 135.625 54.1907C135.329 54.1907 135.086 54.4978 135.086 54.8713ZM131.954 54.8713C131.954 55.2448 132.197 55.5519 132.493 55.5519C132.789 55.5519 133.033 55.2448 133.033 54.8713C133.033 54.4978 132.789 54.1907 132.493 54.1907C132.197 54.1907 131.954 54.4978 131.954 54.8713ZM128.829 54.8713C128.829 55.2448 129.072 55.5519 129.368 55.5519C129.664 55.5519 129.908 55.2448 129.908 54.8713C129.908 54.4978 129.664 54.1907 129.368 54.1907C129.072 54.1907 128.829 54.4978 128.829 54.8713ZM125.697 54.8713C125.697 55.2448 125.941 55.5519 126.237 55.5519C126.533 55.5519 126.776 55.2448 126.776 54.8713C126.776 54.4978 126.533 54.1907 126.237 54.1907C125.941 54.1907 125.697 54.4978 125.697 54.8713ZM122.572 54.8713C122.572 55.2448 122.816 55.5519 123.112 55.5519C123.408 55.5519 123.651 55.2448 123.651 54.8713C123.651 54.4978 123.408 54.1907 123.112 54.1907C122.816 54.1907 122.572 54.4978 122.572 54.8713Z" fill="#4094F2"/>
</g>
<g opacity="0.25">
<path d="M98.375 156.862C98.671 156.862 98.9145 156.555 98.9145 156.181C98.9145 155.808 98.671 155.501 98.375 155.501C98.0789 155.501 97.8355 155.808 97.8355 156.181C97.8355 156.555 98.0789 156.862 98.375 156.862ZM98.375 160.804C98.671 160.804 98.9145 160.497 98.9145 160.124C98.9145 159.75 98.671 159.443 98.375 159.443C98.0789 159.443 97.8355 159.75 97.8355 160.124C97.8355 160.505 98.0789 160.804 98.375 160.804ZM98.375 164.755C98.671 164.755 98.9145 164.448 98.9145 164.074C98.9145 163.701 98.671 163.394 98.375 163.394C98.0789 163.394 97.8355 163.701 97.8355 164.074C97.8355 164.448 98.0789 164.755 98.375 164.755Z" fill="#4094F2"/>
<path d="M98.375 168.697C98.6729 168.697 98.9145 168.393 98.9145 168.017C98.9145 167.641 98.6729 167.336 98.375 167.336C98.077 167.336 97.8355 167.641 97.8355 168.017C97.8355 168.393 98.077 168.697 98.375 168.697Z" fill="#4094F2"/>
<path d="M98.375 172.648C98.6729 172.648 98.9145 172.344 98.9145 171.968C98.9145 171.592 98.6729 171.287 98.375 171.287C98.077 171.287 97.8355 171.592 97.8355 171.968C97.8355 172.344 98.077 172.648 98.375 172.648Z" fill="#4094F2"/>
<path d="M101.039 158.098C101.336 158.098 101.579 157.791 101.579 157.418C101.579 157.044 101.336 156.737 101.039 156.737C100.743 156.737 100.5 157.044 100.5 157.418C100.5 157.8 100.737 158.098 101.039 158.098ZM101.039 162.049C101.336 162.049 101.579 161.742 101.579 161.369C101.579 160.995 101.336 160.688 101.039 160.688C100.743 160.688 100.5 160.995 100.5 161.369C100.5 161.742 100.737 162.049 101.039 162.049ZM101.039 165.992C101.336 165.992 101.579 165.685 101.579 165.311C101.579 164.938 101.336 164.63 101.039 164.63C100.743 164.63 100.5 164.938 100.5 165.311C100.5 165.693 100.737 165.992 101.039 165.992ZM101.039 169.942C101.336 169.942 101.579 169.635 101.579 169.262C101.579 168.888 101.336 168.581 101.039 168.581C100.743 168.581 100.5 168.888 100.5 169.262C100.5 169.635 100.737 169.942 101.039 169.942ZM101.039 173.893C101.336 173.893 101.579 173.586 101.579 173.213C101.579 172.839 101.336 172.532 101.039 172.532C100.743 172.532 100.5 172.839 100.5 173.213C100.5 173.586 100.737 173.893 101.039 173.893ZM101.039 177.836C101.336 177.836 101.579 177.529 101.579 177.155C101.579 176.782 101.336 176.475 101.039 176.475C100.743 176.475 100.5 176.782 100.5 177.155C100.5 177.529 100.737 177.836 101.039 177.836Z" fill="#4094F2"/>
</g>
<path d="M163.737 100.712C164.5 100.704 165.184 100.654 165.533 100.563C165.803 100.488 166.053 100.38 166.276 100.264C166.467 100.156 166.645 100.048 166.796 99.932C167.197 99.6415 167.434 99.3759 167.434 99.3759L173.105 99.6664C173.355 98.3135 173.158 96.4211 173.105 96.1057C173.105 96.1057 167.875 96.4294 167.125 95.6409C167.118 95.6326 167.112 95.6243 167.105 95.616C167.099 95.5994 167.092 95.5828 167.086 95.5662C166.961 95.3338 166.671 95.0931 166.316 94.9105C166.053 94.7777 165.763 94.6698 165.48 94.5951C164.796 94.4374 164.026 92.2213 163.645 92.4786C163.263 92.7359 163.434 94.1718 163.895 94.62C164.349 95.0682 164.026 95.5828 163.474 95.5828H163.303C162.197 95.5828 158.783 95.6077 158.697 96.3049C158.638 96.7614 160.059 96.9274 161.158 96.9938C159.809 96.9772 157.882 97.0436 158.013 97.5499C158.118 97.94 160.072 98.1724 161.164 98.2969C160.408 98.3052 158.921 98.3799 158.914 98.7036C158.901 99.4091 160.447 99.5087 161.493 99.4921C160.875 99.5585 160.164 99.7079 160.125 100.081C160.072 100.538 162.099 100.729 163.737 100.712Z" fill="#FB8A77"/>
<path opacity="0.25" d="M163.02 97.0851L161.316 96.944L163.02 96.9689C163.026 96.9689 163.086 96.5207 163.145 96.3049C163.099 96.6286 163.086 96.9523 163.079 97.276C163.079 97.3922 163.079 97.5167 163.079 97.6412C163.079 97.6329 163.013 97.1432 163.02 97.0851ZM163.02 98.438L161.316 98.2969L163.007 98.3218C163 97.9981 163.079 97.7906 163.079 97.7906C163.079 97.94 163.086 98.0977 163.099 98.2471C163.105 98.4297 163.132 98.6123 163.164 98.8032C163.138 98.8032 163.033 98.5708 163.02 98.438ZM163.237 99.5004L161.533 99.4838L163.224 99.3759C163.211 99.3178 163.164 98.9443 163.191 98.936C163.204 99.019 163.224 99.102 163.243 99.185C163.309 99.5004 163.395 99.8075 163.48 100.115C163.388 99.9154 163.243 99.5004 163.237 99.5004Z" fill="#231F20"/>
<path d="M102.059 65.5202C102.059 65.5202 102 65.5949 101.908 65.7194C101.901 65.2463 101.816 64.7068 101.447 64.6653C100.776 64.5906 98.8882 67.8442 99.4803 68.1513C99.7434 68.2924 100.243 67.9687 100.717 67.5703C100.388 68.2343 100.474 69.1473 100.993 69.2552C101.757 69.4212 102.164 68.3837 102.526 67.7944C102.079 68.6908 101.829 70.1848 102.355 70.1599C103.118 70.1184 104.013 68.1347 104.013 68.1347C104.013 68.1347 103.217 69.7532 104.013 70.135C104.678 70.4587 105.349 67.3628 105.349 67.3628C105.349 67.3628 104.257 63.9432 102.059 65.5202Z" fill="#FB8A77"/>
</svg>
