<svg xmlns="http://www.w3.org/2000/svg" width="32" height="32" viewBox="0 0 32 32">
  <defs>
    <style>
      .cls-1 {
        fill-rule: evenodd;
      }
    </style>
  </defs>
  <path id="Atom_Component" data-name="Atom / Component" class="cls-1" d="M25.333,11.557q-0.49-.2-1.019-0.374c0.675-2.732.265-6.137-1.512-6.958h0C21.329,3.375,19.272,3.86,17,5.588l1.144,1.144C19.377,5.9,20.707,5.024,22,5.611h0c1.4,1.029,1.063,3.369.769,5.131a26.2,26.2,0,0,0-3.447-.591,23.438,23.438,0,0,0-3.729-4.1C10.165,1.312,6.074,4.5,7.655,11.18c-7.015,2.143-6.943,7.489.043,9.6-1.517,6.409,2.182,9.751,7.449,5.537A25.739,25.739,0,0,0,21.192,19L20.32,17.278a26.173,26.173,0,0,1-5.472,7.206c-4.32,3.778-6.723,2.334-5.606-3.269a26.226,26.226,0,0,0,3.363.575q0.662,0.908,1.359,1.719l1.145-1.122q-0.185-.218-0.369-0.444c0.38,0.014.4,0.022,0.786,0.023l1.344-1.617a29.183,29.183,0,0,1-3.384-.083,30.9,30.9,0,0,1-1.713-2.788l-0.8,1.828q0.213,0.36.434,0.71c-0.614-.1-1.208-0.216-1.776-0.354,0.165-.56.359-1.132,0.581-1.713l0.012,0.023,0.817-1.931-0.007-.015a31.078,31.078,0,0,1,2.517-4.356,31.123,31.123,0,0,1,4.9,0,28.766,28.766,0,0,1,3.9,7.986l-0.2.048-1.317,1.885c0.657-.106,1.294-0.233,1.9-0.381,0.838,4.107-.242,7.168-4.541,4.088l-1.132,1.155c5.205,3.976,8.675.5,7.217-5.681C30.288,19.019,31.84,14.112,25.333,11.557ZM10.809,13.008c-0.463.754-1.186,2.315-1.582,3.124h0a26.1,26.1,0,0,0-1.135,3.091c-5.4-1.829-5.471-4.627-.044-6.485,0.163,0.556.353,1.123,0.568,1.7l1.071-1.8q-0.053-.17-0.1-0.338c0.6-.147,1.232-0.273,1.885-0.375Q11.131,12.451,10.809,13.008ZM15.98,9.976c-0.132,0-.934.013-1.177,0.021q0.169-.208.34-0.409L14.01,8.455c-0.456.531-.9,1.1-1.34,1.692a26.225,26.225,0,0,0-3.472.592C7.591,1.861,13.928,5.791,17.192,10Q16.591,9.977,15.98,9.976Zm11.242,7.44a9.413,9.413,0,0,1-3.341,1.8,29.736,29.736,0,0,0-3.36-7.3c0.647,0.1,1.272.227,1.867,0.373q-0.067.23-.141,0.463l1,1.976c0.261-.675.487-1.341,0.677-1.993C25.98,13.418,29.515,15.208,27.222,17.416ZM15.98,13.464a2.561,2.561,0,1,0,2.56,2.561A2.56,2.56,0,0,0,15.98,13.464Z"/>
</svg>
