<svg xmlns="http://www.w3.org/2000/svg" width="32" height="32" viewBox="0 0 32 32">
  <defs>
    <style>
      .cls-1 {
        fill-rule: evenodd;
      }
    </style>
  </defs>
  <path class="cls-1" d="M15.991,3.436A12.556,12.556,0,1,0,28.547,15.991,12.556,12.556,0,0,0,15.991,3.436Zm0,2.954a2.216,2.216,0,1,1-2.216,2.216A2.216,2.216,0,0,1,15.991,6.39h0Zm3.693,17.726H13.037v-0.76l0.156,0a1.355,1.355,0,0,0,1.015-.388,2.5,2.5,0,0,0,.206-1.393V14.857a2.507,2.507,0,0,0-.246-1.452,1.386,1.386,0,0,0-.98-0.33l-0.152-.009V12.3h5.17v9.271a2.139,2.139,0,0,0,.362,1.452,1.323,1.323,0,0,0,.964.329l0.152,0.009v0.756h0Z"/>
</svg>
