<?xml version="1.0" encoding="UTF-8"?>
<svg id="Calque_1" data-name="Calque 1" xmlns="http://www.w3.org/2000/svg" viewBox="0 0 33 33">
  <defs>
    <style>
      .cls-1 {
        fill-rule: evenodd;
      }
    </style>
  </defs>
  <path class="cls-1" d="m16.5,2.92c-7.51,0-13.6,6.09-13.6,13.6s6.09,13.6,13.6,13.6,13.6-6.09,13.6-13.6S24.01,2.92,16.5,2.92Zm0,3.2c1.33,0,2.4,1.07,2.4,2.4s-1.07,2.4-2.4,2.4-2.4-1.07-2.4-2.4,1.07-2.4,2.4-2.4Zm4,19.2h-7.2v-.82h.17c.5-.02.87-.16,1.1-.43.08-.1.22-.42.22-1.51v-7.27c0-1.04-.14-1.43-.27-1.57-.17-.2-.53-.32-1.06-.36h-.16v-.84h5.6v10.04c0,1.04.27,1.43.39,1.57.17.2.5.32,1.04.36h.16v.83h0Z"/>
</svg>