<?xml version="1.0" encoding="UTF-8"?><svg id="BOY" xmlns="http://www.w3.org/2000/svg" viewBox="0 0 250 250"><path d="M130.28,91.66c-2.49,3.4,5.63,6.61,5.63,6.61l3.91-3.23-5.78-2.21-3.76-1.17Z" stroke-width="0"/><path d="M167.6,74.02c7.03.98,24.13,8.68,37.47,2.46l2.74,7.34s-5.82,10.18-40.13,8.3" fill="#fff" stroke-width="0"/><path d="M175.85,92.64c-2.53,0-5.25-.07-8.18-.23l.03-.56c31.78,1.73,39.04-7,39.8-8.06l-2.58-6.92c-10.23,4.61-22.66,1.22-30.91-1.03-2.58-.7-4.81-1.31-6.45-1.54l.08-.55c1.68.23,3.92.84,6.52,1.55,8.24,2.25,20.7,5.64,30.8.94l.28-.13,2.89,7.75-.07.11c-.22.39-5.3,8.68-32.2,8.68Z" stroke-width="0"/><polygon points="221.58 82.24 219.61 81.99 222.2 61.04 224.3 61.28 221.58 82.24" stroke-width="0"/><path d="M218.33,79l-10.87,3.61-2.05-5.49s9.46-2.25,9.65-2.59c.19-.34,1.24-3.12,2.81-2.99,1.57.12,4.31.18,1.24,2.51" fill="#fff" stroke-width="0"/><path d="M207.29,82.95l-2.25-6.04.31-.07c3.38-.8,8.87-2.17,9.5-2.5.02-.04.04-.09.07-.16.38-.84,1.41-3.06,2.98-2.93l.26.02c1.12.08,2.39.18,2.6.91.16.54-.3,1.18-1.48,2.08l-.34-.45c1.3-.98,1.31-1.37,1.28-1.47-.11-.37-1.41-.46-2.11-.51l-.26-.02c-1.18-.09-2.12,1.94-2.43,2.61-.05.11-.09.2-.12.24-.07.13-.25.44-9.52,2.65l1.84,4.94,10.61-3.52.18.53-11.13,3.69Z" stroke-width="0"/><polygon points="222.2 61.04 220.25 61.99 218.15 80.15 219.61 81.99 222.2 61.04" fill="#ff7900" stroke-width="0"/><path d="M223.69,72.11c-1.3.33-6,3.41-6.1,4.71s4.31,4.44,5.51,3.74c1.2-.7,2.63-9.77.59-8.45Z" fill="#fff" stroke-width="0"/><path d="M222.67,80.94c-.85,0-1.99-.65-2.52-.97-1.42-.89-2.91-2.26-2.84-3.17.11-1.47,4.85-4.55,6.26-4.94.36-.22.63-.16.79-.08.4.21.61.84.63,1.93.05,2.26-.79,6.53-1.75,7.09-.16.1-.36.14-.57.14ZM224.06,72.26c-.07,0-.16.05-.22.09l-.08.04c-1.37.35-5.8,3.4-5.89,4.46-.04.48.99,1.65,2.58,2.65,1.31.82,2.2,1.01,2.51.83.59-.34,1.53-4.15,1.48-6.6-.03-1.25-.3-1.43-.33-1.45-.01,0-.03-.01-.05-.01Z" stroke-width="0"/><path d="M217.77,71.82c.67.03,1.74.05,2.33.39.59.34-1.33,1.79-1.54,1.87-.21.08-1.3,1.07-1.3,1.07v-2.07l.51-1.26Z" fill="#fff" stroke-width="0"/><path d="M207.48,83.67c-4.53,1.79-13.62,7.59-20.56,4.67-7.8-3.29-13.96.85-15.42-6.1l-4.16,6.04.02,3.7c34.3,1.88,40.13-8.3,40.13-8.3Z" fill="#ff7900" stroke-width="0"/><path d="M172.95,70.03c12.18,9.19,10.19-4.69,7.73-9.61-1.06-2.13-6.28-2.09-6.28-2.09l-4.67,3.03-3.15,7.15-1.38,2.08" fill="#ff7900" stroke-width="0"/><path d="M175.14,57.38c3.53,1,6.25,2.26,6.78,5.1.52,2.83.31,4.19.79,4.67.48.48.22.65,0,1.18-.22.52-.16,3.12-.61,3.88-.52.89-1.89,1.16-3.64.59-1.74-.57-6.13-2.34-6.96-3.95" fill="#ff7900" stroke-width="0"/><path d="M180.16,73.38c-.54,0-1.14-.1-1.78-.31-1.68-.55-6.22-2.34-7.12-4.09-.07-.14-.02-.31.12-.38.14-.07.31-.02.38.12.75,1.45,4.9,3.2,6.8,3.81,1.55.5,2.84.32,3.31-.47.23-.4.33-1.54.39-2.37.06-.76.1-1.23.2-1.47.05-.11.09-.2.13-.29.16-.31.17-.34-.07-.58-.34-.34-.4-.94-.49-1.93-.07-.7-.15-1.67-.38-2.89-.49-2.64-2.98-3.86-6.58-4.88-.15-.04-.24-.2-.19-.35.04-.15.2-.24.35-.19,3.8,1.08,6.44,2.39,6.98,5.31.23,1.25.32,2.23.39,2.94.08.83.13,1.38.33,1.58.53.53.35.88.18,1.23-.04.08-.08.16-.12.26-.07.17-.12.77-.16,1.3-.08.99-.17,2.11-.47,2.61-.4.68-1.18,1.03-2.18,1.03Z" stroke-width="0"/><path d="M180,60.55c1.17,3.93,1.09,12.62-3.21,11.29,0,0,3.22,1.7,4.59-.24s.75-7.46-1.37-11.06Z" fill="none" stroke-width="0"/><path d="M181.8,72.12c.45-.76.39-3.36.61-3.88.22-.52.48-.7,0-1.18s-.27-1.84-.79-4.67c-.52-2.83-3.24-4.09-6.78-5.1l-.55,8.14.65,5.54s4.78,2.3,5.53,2.12c.75-.18,1.11-.59,1.33-.98Z" fill="#fff" stroke-width="0"/><path d="M174.84,57.29c3.53,1,6.25,2.26,6.78,5.1.52,2.83.31,4.19.79,4.67.48.48.22.65,0,1.18-.22.52-.16,3.12-.61,3.88-.23.39-.59.8-1.33.98-.03,0-.06,0-.1,0-1,0-5.42-2.13-5.42-2.13l-.65-5.54.55-8.14M174.84,56.73c-.11,0-.23.03-.32.1-.14.1-.23.25-.24.42l-.55,8.14s0,.07,0,.1l.65,5.54c.02.19.14.36.31.44.76.37,4.59,2.19,5.67,2.19.08,0,.16,0,.23-.03.75-.18,1.3-.58,1.69-1.24.31-.52.4-1.46.51-2.73.04-.45.09-1.07.14-1.22.04-.09.08-.17.11-.24.17-.35.44-.88-.23-1.55-.13-.13-.19-.75-.25-1.41-.07-.72-.16-1.71-.39-2.97-.6-3.24-3.8-4.58-7.17-5.53-.05-.01-.1-.02-.15-.02h0Z" stroke-width="0"/><path d="M62.88,182.26c-17.86.57-54,7.86-19.59,8.59,34.41.73,38.84,2.2,28.92,4.77-9.92,2.57,41.41,6.97,65.98-5.13,24.57-12.1-57.45-8.8-75.31-8.23Z" fill="#eee" stroke-width="0"/><path d="M121.37,93.38s-4.91,2.27-7.05,5.25c-2.15,2.98-6.31,5.43-6.81,4.74-.5-.7,1.62-2.94,1.62-2.94-1.62.77-9.81,2.14-9.81,1.13s10.35-5.67,10.35-5.67c0,0,3.27-3.2,7.63-6.85" fill="#fff" stroke-width="0"/><path d="M107.82,103.77c-.31,0-.46-.13-.54-.24-.42-.58.3-1.69.95-2.5-2.51.7-7.95,1.57-8.94.94-.22-.14-.25-.32-.25-.42,0-1.04,6.54-4.13,10.47-5.9.37-.36,3.53-3.41,7.61-6.83l.36.43c-4.3,3.61-7.58,6.81-7.62,6.84l-.08.06c-4.7,2.11-9.68,4.65-10.16,5.38.82.44,7.67-.53,9.39-1.35l1.36-.65-1.04,1.1c-1.03,1.09-1.79,2.31-1.6,2.58.45.25,4.2-1.75,6.36-4.74,2.17-3.01,6.96-5.25,7.16-5.34l.24.51s-4.86,2.27-6.94,5.16c-1.94,2.7-5.51,4.97-6.72,4.97h0Z" stroke-width="0"/><path d="M171.13,81.56h-.56c0-2.15,2.68-9.68,3.64-10.69l.41.38c-.89.94-3.48,8.29-3.48,10.31Z" stroke-width="0"/><path d="M132.68,94.33c-10.74-2.56,16.41-10.77,18.25-16.13,1.84-5.36,12.27-13.25,17.17-4.53,3.41,6.07,3.68,12.25,1.14,16.84-2.54,4.59-8.03,9.66-10.98,11.96-2.96,2.3-7.14,6.06-7.14,6.06,0,0-7.7-11.65-18.44-14.21Z" fill="#fff" stroke-width="0"/><path d="M151.07,108.96l-.18-.27c-.08-.12-7.76-11.59-18.27-14.09-1.72-.41-2.61-1-2.71-1.8-.24-1.93,4.39-4.35,9.76-7.16,4.81-2.52,10.26-5.37,11-7.53,1.24-3.63,6.21-8.16,10.75-8.58,2.03-.18,4.88.36,6.93,4.01,3.4,6.04,3.82,12.28,1.15,17.12-2.65,4.79-8.39,9.97-11.06,12.05-2.92,2.27-7.09,6.01-7.13,6.05l-.24.22ZM162.13,70.06c-.22,0-.44.01-.66.03-4.34.4-9.08,4.73-10.27,8.2-.81,2.37-6.13,5.15-11.27,7.84-4.53,2.37-9.66,5.05-9.46,6.59.07.53.86.99,2.29,1.33h0c9.81,2.34,17.18,12.3,18.42,14.06.93-.83,4.39-3.9,6.92-5.86,2.64-2.05,8.31-7.17,10.91-11.88,2.58-4.66,2.16-10.7-1.14-16.57-1.4-2.49-3.33-3.75-5.73-3.75Z" stroke-width="0"/><path d="M151.15,108.54l-1.94-2.11c-4.34,13.8-35.84,43.08-54.15,55.01,40.16-20.25,56.1-52.9,56.1-52.9Z" fill="#ff7900" stroke-width="0"/><path d="M165.39,70.23c2.09,1.25,3.54,4.44,3.54,4.44l3.15.92,1.92-4.46-1.28-.75-.82-.5-6.5.35Z" fill="#ff7900" stroke-width="0"/><path d="M69.18,168.92s-7.46,4.82-9.93,7.16c-1.11,1.05-2.48,3.21-4.1,6.09-2,3.56,5.5,6.27-.53,6.27-6.9,0-1.16-12.53-1.03-18.09.04-1.48,5.68-1.86,8.4-2.57,2.72-.7,2.89-1.37,4.98-3.35l2.21,4.49Z" fill="#fff" stroke-width="0"/><path d="M54.61,188.72c-1.24,0-2.17-.39-2.79-1.16-1.7-2.14-.63-6.72.4-11.14.54-2.31,1.04-4.49,1.08-6.07.03-1.29,2.83-1.77,5.79-2.28,1.06-.18,2.06-.36,2.83-.55,2.12-.55,2.61-1.05,3.81-2.25.3-.3.64-.64,1.05-1.03l.28-.26,2.49,5.06-.21.14c-.07.05-7.47,4.83-9.89,7.13-.98.92-2.26,2.84-4.05,6.02-.85,1.51.21,2.87,1.07,3.96.57.72,1.01,1.29.77,1.79-.23.47-.98.66-2.61.66ZM66.89,164.89c-.29.28-.54.53-.76.75-1.24,1.25-1.8,1.81-4.07,2.4-.79.2-1.8.38-2.87.56-2.11.36-5.3.91-5.32,1.74-.04,1.64-.55,3.85-1.1,6.19-.95,4.1-2.03,8.74-.5,10.67.51.64,1.27.95,2.35.95,1.75,0,2.06-.24,2.11-.34.09-.19-.35-.75-.7-1.2-.86-1.09-2.15-2.74-1.12-4.58,1.84-3.28,3.12-5.18,4.15-6.16,2.26-2.14,8.52-6.24,9.77-7.06l-1.93-3.92Z" stroke-width="0"/><path d="M54.42,169.61c-.08,3.73,1.14,6.56-.81,9.41-1.95,2.85-.66,3.52,0,5.65,1.04,3.33,5.19,3.76,1.81,3.76-6.93,0-3.32-10.31-2.88-12,.45-1.7.9-6.51,1.87-6.82Z" stroke-width="0"/><path d="M106.02,135.91c-8.23,2.09-14.46,4.39-18.44,9.87s-7.39,9.2-12.46,9.2-9.29,8.4-9.29,8.4l2.71,1.05,41.8-26.97-4.33-1.54Z" stroke-width="0"/><path d="M65.83,164.21c-.13,0-.26-.03-.38-.09-.42-.21-.58-.71-.37-1.13.18-.36,4.51-8.86,10.04-8.86,4.49,0,7.6-3.11,11.78-8.85,3.85-5.29,9.61-7.55,15.27-9.2.45-.13.91.13,1.04.57.13.45-.13.91-.57,1.04-7.34,2.14-11.5,4.63-14.38,8.57-3.66,5.03-7.42,9.55-13.14,9.55-3.74,0-7.43,5.73-8.54,7.93-.15.29-.44.46-.75.46Z" fill="#085ebd" stroke-width="0"/><path d="M141.43,94.89c-2.45-3.54.88-5.8,8.67-5.05,7.79.75,9.49-1.18,13.57-5.75,3.05-3.4-7.46-1.51-15.31-2.92-7.18,5.04-24.35,11-15.37,13.15,10.48,2.51,17.8,13.26,18.15,13.78h0s0,0,0,0c.44-4.92-7.26-9.69-9.71-13.22Z" fill="#ff7900" stroke-width="0"/><path d="M173.55,67.47l-.64,2.4s1.17.8,2.1,1.18c.73.3,3.28,1.48,4.89,1.98.91.28,1.36-.36,1.36-.36-1.6.43-3.5-3.01-2.96-5.02.54-2.01-.79-2.38-5.14-5.81h-3.01l-.64,1.48c1.12,2.22,4.04,4.15,4.04,4.15Z" fill="#ff7900" stroke-width="0"/><path d="M171.91,65.43c-1.42-2.02.03-2.39,1.06-2.02,1.03.37,1.32,2.02,1.32,2.02,0,0,3.37-7.11,6.5-4.49,1.19.99,3.21-3.55-2.49-4.66-5.71-1.11-7.68-.48-17.21-3.33-9.12-2.73-19.67,1-14.21,3.93,3.67,1.97,4.36,5.05-5.51,2.47-11.19-2.93-36.33-2.97-23.72,1.89,12.61,4.87,11.31,6.55,4.02,8.21s-.93,7.61,19.31,4.46c16.46-2.56,30.69-2.23,30.92-8.48Z" stroke-width="0"/><path d="M181.22,61.65c-.26,0-.51-.09-.72-.27l.72-.86s.02.01.02.01c.08-.02.4-.36.4-1,0-1.28-1.25-2.29-3.38-2.7-1.89-.37-3.39-.54-4.85-.72-2.96-.35-6.02-.71-12.41-2.62-6.85-2.05-14.22-.27-14.94,1.47-.23.55.5,1.08,1.16,1.43l-.53.99c-2.02-1.09-1.91-2.25-1.66-2.85,1.1-2.66,9.36-4.19,16.3-2.12,6.29,1.88,9.31,2.24,12.22,2.58,1.48.17,3.01.36,4.93.73,3.45.67,4.12,2.54,4.25,3.31.17,1.02-.22,2.04-.92,2.44-.19.11-.39.16-.58.16Z" fill="#fff" stroke-width="0"/><path d="M130.31,75.67c-7.57,0-11.88-1.69-12.3-3.88-.13-.68-.04-2.34,3.53-3.15,4.64-1.06,4.83-1.75,4.83-1.83.02-.21-.34-1.45-8.97-4.77-2.22-.86-4.42-1.94-3.93-3.47.18-.57.74-2.29,11.35-2.04,6.15.14,12.59.92,16.81,2.02,5.24,1.37,6.65.92,6.93.77-.11-.27-.66-.96-2.03-1.69-.41-.22-.56-.73-.34-1.14.22-.41.73-.56,1.14-.34,2.23,1.2,3.29,2.62,2.83,3.79-.39,1-1.75,2.12-8.95.23-8.95-2.34-23.93-2.46-26.01-1.15.24.23.93.72,2.81,1.45,8.51,3.28,10.15,4.91,10.04,6.46-.12,1.65-2.44,2.51-6.14,3.35-1.78.41-2.3.99-2.26,1.2.26,1.36,6.96,3.83,21.25,1.61,4.01-.63,7.97-1.09,11.46-1.5,10.39-1.21,18.6-2.17,18.75-6.18.02-.46.41-.82.87-.81.46.02.83.41.81.87-.2,5.45-8.61,6.43-20.23,7.79-3.48.41-7.42.87-11.4,1.49-4.14.64-7.77.93-10.87.93ZM148.6,59.39h0,0Z" fill="#085ebd" stroke-width="0"/><path d="M175.86,60.98c-.22,0-.44-.14-.52-.36-.44-1.12-2.65-1.24-5.22-1.37-3.85-.2-8.64-.45-12.2-3.82-.22-.21-.23-.57-.02-.79.21-.22.57-.23.79-.02,3.27,3.09,7.83,3.33,11.49,3.52,3.08.16,5.51.29,6.21,2.08.11.29-.03.61-.32.73-.07.03-.14.04-.2.04Z" fill="#ffc4eb" stroke-width="0"/><path d="M168.32,67.42c-.4,0-.76-.29-.83-.7-.03-.2-.5-1.19-6.35-1.61-4.22-.3-10.04-.26-16.78-.2-2.79.02-5.72.05-8.74.05-.46,0-.84-.38-.84-.84s.38-.84.84-.84c3.02,0,5.94-.02,8.73-.05,16.35-.13,24.24-.05,24.8,3.21.08.46-.23.89-.68.97-.05,0-.1.01-.15.01Z" fill="#4bb4e6" stroke-width="0"/><path d="M172.63,74.82s12.9,3.99,17.85,4.25c0,0-9.27.11-18.41-2.54l.56-1.71Z" stroke-width="0"/><path d="M116.5,90.01c1.22,2.6.63,5.53-.77,7.07,0,0,3.72-2.72,4.42-3.08l-3.64-4Z" stroke-width="0"/><path d="M169.63,89.77c3.78,2.26,11.51,2.4,16.42,1.94,0,0-3.73.72-9.21.65s-8.1-.15-8.1-.15l.89-2.44Z" stroke-width="0"/><path d="M156.41,104.81c-.26,0-.51-.12-.67-.34-.28-.37-.2-.9.17-1.18,16.66-12.53,15.29-20.35,12.45-27.28-.18-.43.03-.92.46-1.1.43-.18.92.03,1.1.46,3.77,9.2,2.91,17.3-12.99,29.26-.15.11-.33.17-.5.17Z" fill="#4bb4e6" stroke-width="0"/><path d="M138.53,120.24c-38.92,29.18-88.31,12.44-88.31,12.44l1.93-10.41c37.39,7.68,50.31,2.05,59.37-7.58,9.06-9.63,19.57-17.63,25.48-18.95,0,0,4.55,2.84,7.07,4.92,2.52,2.08,7.18,7.99,7.18,7.99,0,0-22.58,45.92-81.37,62.57l-4.04-7.85s28.96-15.99,43.12-30.27" stroke-width="0"/><path d="M82.38,126.7c-8.1,0-17.82-1.2-29.59-3.61-.45-.09-.75-.54-.65-.99.09-.45.54-.75.99-.65,19.94,4.09,33.88,4.66,43.88,1.79.45-.13.91.13,1.04.58.13.45-.13.91-.58,1.04-4.29,1.23-9.27,1.85-15.1,1.85Z" fill="#085ebd" stroke-width="0"/><path d="M80.21,168.61c-.34,0-.66-.21-.79-.55-.16-.44.06-.92.5-1.08,39.49-14.57,60.15-42.34,67.2-53.61.25-.39.76-.51,1.16-.27.39.25.51.76.27,1.16-7.14,11.41-28.06,39.55-68.04,54.3-.1.04-.19.05-.29.05Z" fill="#ffb4e6" stroke-width="0"/><path d="M51.22,129.67s-8.63.23-11.97.87-14.83,8.62-13.91,5.35c.92-3.27,10.93-12.51,12.22-13.23s5.79,1.48,8.47,2.36c2.68.87,3.17.4,6-.14" fill="#fff" stroke-width="0"/><path d="M25.83,136.96c-.25,0-.44-.05-.58-.17-.25-.2-.31-.52-.19-.97.96-3.41,11.16-12.74,12.36-13.4,1.06-.59,3.68.43,6.22,1.42.9.35,1.75.68,2.46.91,2.08.68,2.77.52,4.42.15.41-.09.88-.2,1.44-.3l.11.55c-.55.11-1.01.21-1.42.3-1.71.38-2.5.56-4.72-.17-.73-.24-1.59-.57-2.49-.92-2.19-.85-4.92-1.91-5.75-1.45-1.17.65-11.19,9.86-12.09,13.06-.05.19-.06.34,0,.38.58.46,4.32-1.56,7.06-3.03,2.66-1.43,5.18-2.79,6.53-3.05,3.33-.64,11.67-.87,12.02-.88v.56c-.07,0-8.63.23-11.91.87-1.27.24-3.86,1.64-6.37,2.99-3.5,1.89-5.91,3.14-7.1,3.14Z" stroke-width="0"/><path d="M110.35,115.15c-4.64,3.43-9.56,5.33-13.47,5.08s-2.27,3.06-6.9,3.26c-4.64.2-10.4,2.98-18.59,2.57-8.19-.4,19.04,4.24,19.04,4.24l30.95-7.58-11.03-7.58Z" stroke-width="0"/><path d="M131.93,100.33s-8.98,4.16-16.21,14.35c-8.93,12.6-16.14,7.86-18.01,7.8-1.87-.06-2.63,3.1-4.9,3.1s-8.1,2.16-17.17,2.42c-10.36.29-22.95-1.61-22.95-1.61l-1.47,6.6s21.06,6.3,46.76,3.49c25.7-2.81,46.85-17.72,51.23-30.05,0,0-5.06-5.71-17.27-6.1Z" fill="#ff7900" stroke-width="0"/><path d="M82.62,138.29c-1.21,0-2.39-.02-3.52-.06-17.14-.54-29.68-4.73-29.8-4.77-.44-.15-.68-.63-.53-1.07.15-.44.63-.67,1.07-.53.12.04,12.47,4.16,29.37,4.68,15.55.49,38.27-2.08,58.17-17,.37-.28.9-.2,1.18.17.28.37.2.9-.17,1.18-18.84,14.13-40.13,17.39-55.76,17.39Z" fill="#ffb4e6" stroke-width="0"/><path d="M38.03,123.81c-1.15.6-8.99,7.53-9.81,10.25-.81,2.72,8.56-4.3,11.53-4.83,2.97-.54,10.96-.2,10.96-.2l.08-2.37c-1.13,1.05-5.86,2.4-6.75,1.54-1.31-1.26-4.06-1.07-7.52.23-2.7,1.02-.52-2.55,1.51-4.29.18-.16.51-.59,0-.33Z" stroke-width="0"/><path d="M108.71,117.79c-.2,0-.39-.07-.55-.21-.35-.3-.39-.84-.08-1.19.6-.69,14.82-16.94,26.49-20.6.44-.14.91.11,1.05.55.14.44-.11.91-.55,1.05-11.22,3.52-25.58,19.94-25.73,20.1-.17.19-.4.29-.63.29Z" fill="#0074c9" stroke-width="0"/><path d="M163.8,72.31c-4.37-2.44-28.24,1.93-33.66,5.07-5.41,3.14-14.43,11.13-14.43,11.13,0,0,2.16,3.26,6.25,7.29,0,0,10.11-11.05,29-8.49,11.05,1.76,15.28-6.27,15.28-6.27" fill="#fff" stroke-width="0"/><path d="M121.97,96.08c-.07,0-.14-.03-.2-.08-4.06-4-6.26-7.3-6.28-7.33-.08-.12-.06-.27.05-.36.09-.08,9.1-8.04,14.47-11.16,5.39-3.13,29.35-7.63,33.93-5.07.14.08.18.25.11.38-.08.13-.25.18-.38.11-4.08-2.28-27.72,1.79-33.38,5.07-4.9,2.84-12.88,9.78-14.19,10.93.53.75,2.55,3.54,5.87,6.84,1.54-1.52,11.67-10.73,29.04-8.37,5.61.89,9.38-.82,11.56-2.41,2.37-1.73,3.42-3.69,3.44-3.71.07-.14.24-.19.38-.12.14.07.19.24.12.38-.04.08-1.12,2.08-3.58,3.89-2.27,1.66-6.19,3.45-11.99,2.53-18.51-2.52-28.65,8.29-28.75,8.4-.05.06-.12.09-.2.09,0,0,0,0,0,0Z" stroke-width="0"/><path d="M123.46,84.5c7.22-2.21,9.51-7.54,15.2-9.68-3.62.9-6.62,1.71-8.15,2.59-5.41,3.14-14.43,11.13-14.43,11.13,0,0,1.89,2.85,5.47,6.51h0c-1.9-4.17-6.35-8.01,1.91-10.54Z" fill="#ff7900" stroke-width="0"/><path d="M52.02,124.88c-.41,1.31-3.67,4.63-6.72,4.79h5.92l.81-4.79Z" stroke-width="0"/><path d="M66.71,165.08c1.32,2.55-1.53,6.25-3.12,7.28s5.59-3.45,5.59-3.45l-1.42-4.1-1.04.27Z" stroke-width="0"/></svg>