<?xml version="1.0" encoding="UTF-8"?>
<svg width="24px" height="24px" viewBox="0 0 24 24" version="1.1" xmlns="http://www.w3.org/2000/svg" xmlns:xlink="http://www.w3.org/1999/xlink">
    <title>icons/communication/#-D/mdpi/ic_Accessibility</title>
    <g id="icons/communication/#-D/ic_Accessibility" stroke="none" stroke-width="1" fill="none" fill-rule="evenodd">
        <path d="M12,1.79999996 C6.36669598,1.79999996 1.79999996,6.36669598 1.79999996,12 C1.79999996,12.308064 1.81346396,12.612752 1.84039196,12.914064 C2.02922393,15.0441295 2.8855385,17.0602546 4.28731197,18.675144 C4.34073597,18.736824 4.39488797,18.797856 4.44976797,18.85824 C5.22131071,19.7074245 6.13006832,20.4209192 7.13807998,20.96892 C7.21033598,21.008152 7.28313598,21.046552 7.35647998,21.08412 C7.53974398,21.177992 7.72614398,21.266408 7.91567998,21.349368 C7.95356798,21.36596 7.99158398,21.382312 8.02972798,21.398424 C8.29667198,21.511352 8.56923199,21.613032 8.84740799,21.703464 C8.88710399,21.716344 8.92691999,21.729 8.96685599,21.741432 C9.41012787,21.8792706 9.86234415,21.986499 10.320312,22.06236 C10.40436,22.07628 10.488768,22.089176 10.573536,22.101048 C10.74304,22.12476 10.913848,22.14428 11.08596,22.159608 C11.387048,22.186344 11.691728,22.2000021 12,22.2000021 C12.308272,22.2000021 12.61296,22.186728 12.914064,22.159608 C13.086144,22.144312 13.256952,22.124792 13.426488,22.101048 C13.511288,22.089192 13.595696,22.076296 13.679712,22.06236 C14.1376798,21.986499 14.5898961,21.8792706 15.033168,21.741432 C15.073088,21.729 15.112904,21.716344 15.152616,21.703464 C15.430616,21.613192 15.703176,21.511512 15.970296,21.398424 C16.00844,21.382296 16.046456,21.365944 16.084344,21.349368 C16.273816,21.266472 16.460216,21.178056 16.643544,21.08412 C16.71684,21.046584 16.78964,21.008184 16.861944,20.96892 C17.8699471,20.420917 18.7786965,19.7074223 19.550232,18.85824 C19.605096,18.797856 19.659248,18.736824 19.712688,18.675144 C21.1144545,17.0602502 21.970768,15.0441275 22.159608,12.914064 C22.186344,12.61296 22.2,12.308272 22.2,12 C22.2,6.36669598 17.633304,1.79999996 12,1.79999996 Z M4.25937597,8.73088799 C5.81245909,5.04582456 9.74808875,2.96653982 13.6674756,3.76037001 C17.5868625,4.5542002 20.403236,8.00103148 20.4000028,12 L14.4,12 L14.4,17.4 L12.6,17.4 L12.6,13.8 L11.4,13.8 L11.4,17.4 L9.59999999,17.4 L9.59999999,12 L3.59998122,12 C3.59761988,10.8770329 3.82188849,9.76513436 4.25937597,8.73088799 L4.25937597,8.73088799 Z M12,8.99999999 L12,8.99999999 C10.6745166,8.99999999 9.59999999,10.0745166 9.59999999,11.4 L9.59999999,12 L14.4,12 L14.4,11.4 C14.4,10.0745166 13.3254834,8.99999999 12,8.99999999 Z M12,8.39999998 C12.9941126,8.39999998 13.8,7.59411253 13.8,6.59999998 C13.8,5.60588742 12.9941126,4.79999997 12,4.79999997 C11.0058874,4.79999997 10.2,5.60588742 10.2,6.59999998 C10.2,7.59411253 11.0058874,8.39999998 12,8.39999998 Z" fill="#000000"></path>
    </g>
</svg>