<?xml version="1.0" encoding="UTF-8"?>
<svg width="24px" height="24px" viewBox="0 0 24 24" version="1.1" xmlns="http://www.w3.org/2000/svg" xmlns:xlink="http://www.w3.org/1999/xlink">
    <title>icons/communication/R-U/mdpi/ic_Tools</title>
    <g id="icons/communication/R-U/ic_Tools" stroke="none" stroke-width="1" fill="none" fill-rule="evenodd">
        <path d="M20.24916,7.95748798 L16.43076,11.775888 L16.006488,11.351616 L19.824888,7.53321598 C20.0582344,7.29850437 20.0582344,6.91940759 19.824888,6.68469598 L17.279304,4.13911197 C17.0445924,3.90576559 16.6654956,3.90576559 16.430784,4.13911197 L16.006512,4.56338397 L17.067168,5.62403997 C17.1843275,5.74119945 17.1843275,5.93115249 17.067168,6.04831196 C16.9500085,6.16547143 16.7600555,6.16547144 16.642896,6.04831198 L15.58224,4.98763197 L14.73372,5.83617597 L15.370104,6.47255998 C15.4863894,6.58986171 15.4859804,6.77909507 15.369189,6.89589303 C15.2523977,7.01269098 15.0631643,7.0131107 14.945856,6.89683198 L14.309448,6.26042398 L13.460928,7.10896798 L14.521584,8.16959998 C14.5973729,8.24538888 14.6269718,8.3558536 14.5992312,8.45938315 C14.5714905,8.5629127 14.4906247,8.64377849 14.3870952,8.67151915 C14.2835656,8.69925981 14.1731009,8.66966088 14.097312,8.59387199 L13.036656,7.53319198 L12.612408,7.95746398 L12.188136,7.53319198 L16.006536,3.71479197 C16.4759729,3.24810955 17.2341632,3.24810955 17.7036,3.71479197 L20.24916,6.26042398 C20.7158424,6.72986083 20.7158424,7.48805113 20.24916,7.95748798 L20.24916,7.95748798 Z M19.513968,15.685728 C19.6610252,15.8321872 19.773993,16.0092597 19.844832,16.204344 C19.845024,16.204824 19.845144,16.205352 19.845336,16.205856 C19.85844,16.243464 19.869672,16.2816 19.879344,16.320024 C19.889016,16.358448 19.89672,16.39668 19.90296,16.435392 C19.904856,16.447176 19.90668,16.45896 19.908264,16.470792 C19.9647505,16.8879677 19.8228901,17.3075553 19.52484,17.604864 L18.4638,18.66516 L17.62764,19.500696 C17.3745838,19.7541845 17.0309811,19.8964361 16.6728,19.896001 L16.671264,19.896001 C16.630128,19.896001 16.589048,19.894072 16.548024,19.890216 C16.543896,19.889832 16.539768,19.889376 16.535664,19.888968 C16.498864,19.885224 16.462216,19.879968 16.42572,19.8732 C16.418304,19.871832 16.410912,19.870392 16.403496,19.86888 C16.152336,19.818072 15.897336,19.714488 15.702696,19.519872 L9.78669599,13.599072 L5.40532797,9.22960799 L5.40532797,9.22960799 L4.53328797,6.31048798 L4.53328797,6.31048798 L4.11182397,4.92261597 L4.02825597,4.58901597 C4.02825597,4.58872797 4.02811197,4.58843997 4.02801597,4.58815197 C4.02481597,4.57744797 4.02199197,4.56676797 4.01954397,4.55611197 C4.01867997,4.55222397 4.01810397,4.54835997 4.01731197,4.54447197 C4.01591997,4.53743997 4.01445597,4.53040797 4.01337597,4.52342397 C4.01270397,4.51888797 4.01231997,4.51442397 4.01176797,4.50991197 C4.01099997,4.50359997 4.01015997,4.49728797 4.00965597,4.49102397 C4.00929597,4.48622397 4.00919997,4.48161597 4.00898397,4.47691197 C4.00871997,4.47091197 4.00821597,4.46491197 4.00821597,4.45895997 C4.00821597,4.45804797 4.00821597,4.45708797 4.00821597,4.45617597 C4.00821597,4.44943197 4.00852797,4.44278397 4.00883997,4.43611197 C4.00883997,4.43416797 4.00883997,4.43219997 4.00900797,4.43025597 C4.00958397,4.42065597 4.01049597,4.41105597 4.01167197,4.40145597 C4.01198397,4.39905597 4.01243997,4.39665597 4.01277597,4.39425597 C4.01378397,4.38724797 4.01486397,4.38028797 4.01620797,4.37339997 C4.01685597,4.37003997 4.01762397,4.36672797 4.01834397,4.36339197 C4.01961597,4.35751197 4.02095997,4.35160797 4.02247197,4.34577597 C4.02340797,4.34222397 4.02441597,4.33857597 4.02542397,4.33516797 C4.02703197,4.32962397 4.02871197,4.32412797 4.03051197,4.31865597 C4.03168797,4.31515197 4.03291197,4.31164797 4.03411197,4.30819197 C4.03605597,4.30271997 4.03816797,4.29729597 4.04032797,4.29191997 C4.04164797,4.28863197 4.04294397,4.28534397 4.04433597,4.28210397 C4.04673597,4.27636797 4.04947197,4.27072797 4.05218397,4.26511197 C4.05347997,4.26237597 4.05472797,4.25961597 4.05607197,4.25692797 C4.06005597,4.24905597 4.06425597,4.24131997 4.06867197,4.23371997 L4.06927197,4.23261597 C4.07392797,4.22467197 4.07887197,4.21691997 4.08398397,4.20928797 C4.08563997,4.20688797 4.08741597,4.20448797 4.08911997,4.20208797 C4.09269597,4.19697597 4.09631997,4.19191197 4.10006397,4.18694397 C4.10222397,4.18413597 4.10443197,4.18139997 4.10663997,4.17863997 C4.11019197,4.17419197 4.11381597,4.16980797 4.11751197,4.16548797 C4.11991197,4.16267997 4.12231197,4.15994397 4.12487997,4.15720797 C4.12862397,4.15304797 4.13244797,4.14896797 4.13635197,4.14496797 C4.13889597,4.14235197 4.14146397,4.13971197 4.14407997,4.13714397 C4.14820797,4.13311197 4.15245597,4.12919997 4.15672797,4.12531197 C4.15927197,4.12291197 4.16176797,4.12065597 4.16435997,4.11839997 C4.16930397,4.11410397 4.17436797,4.10999997 4.17947997,4.10591997 C4.18156797,4.10428797 4.18358397,4.10253597 4.18567197,4.10092797 C4.19293597,4.09532797 4.20036797,4.08995997 4.20796797,4.08482397 C4.20943197,4.08381597 4.21099197,4.08290397 4.21250397,4.08191997 C4.21867197,4.07783997 4.22493597,4.07385597 4.23131997,4.07008797 C4.23410397,4.06843197 4.23698397,4.06689597 4.23981597,4.06528797 C4.24502397,4.06233597 4.25027997,4.05945597 4.25563197,4.05671997 C4.25884797,4.05506397 4.26211197,4.05350397 4.26535197,4.05191997 C4.27048797,4.04951997 4.27567197,4.04711997 4.28090397,4.04471997 C4.28427997,4.04323197 4.28769597,4.04179197 4.29115197,4.04039997 C4.29645597,4.03823997 4.30180797,4.03622397 4.30723197,4.03425597 C4.31063997,4.03303197 4.31404797,4.03185597 4.31747997,4.03063197 C4.32326397,4.02868797 4.32909597,4.02695997 4.33495197,4.02525597 C4.33811997,4.02434397 4.34121597,4.02335997 4.34440797,4.02251997 C4.35160797,4.02057597 4.35911997,4.01889597 4.36655997,4.01731197 C4.36835997,4.01695197 4.37011197,4.01647197 4.37191197,4.01611197 C4.38117597,4.01428797 4.39054397,4.01275997 4.40001597,4.01152797 C4.40241597,4.01119197 4.40507997,4.01102397 4.40757597,4.01073597 C4.41455997,4.00994397 4.42156797,4.00924797 4.42862397,4.00879197 C4.43210397,4.00857597 4.43563197,4.00847997 4.43913597,4.00835997 C4.44532797,4.00809597 4.45151997,4.00792797 4.45778397,4.00792797 C4.46157597,4.00792797 4.46539197,4.00792797 4.46923197,4.00814397 C4.47530397,4.00831197 4.48139997,4.00862397 4.48751997,4.00903197 C4.49140797,4.00929597 4.49527197,4.00960797 4.49915997,4.00996797 C4.50542397,4.01056797 4.51168797,4.01135997 4.51797597,4.01219997 C4.52171997,4.01272797 4.52546397,4.01320797 4.52923197,4.01383197 C4.53609597,4.01493597 4.54298397,4.01623197 4.54987197,4.01776797 C4.55306397,4.01843997 4.55623197,4.01899197 4.55947197,4.01973597 C4.56955197,4.02213597 4.57967997,4.02472797 4.58980797,4.02779997 L5.58719997,4.31279997 L6.31250398,4.53273597 L6.31250398,4.53273597 L9.22759199,5.40662397 L19.513968,15.685728 Z M5.97619197,4.84603197 L4.85942397,5.96203197 L5.73758397,8.89396799 L6.25415998,8.37278398 L16.660056,18.771288 L17.084424,18.347208 L6.67852798,7.94879998 L7.95167998,6.67653598 L18.3576,17.074968 L18.781992,16.650888 L8.37599998,6.25233598 L8.91014399,5.72356797 L5.97619197,4.84603197 Z M7.94548798,12.624432 L7.52121598,13.04868 L8.58189599,14.109336 C8.6576806,14.1851292 8.68727329,14.2955956 8.65952677,14.3991236 C8.63178025,14.5026516 8.55090989,14.5835128 8.44737876,14.6112476 C8.34384764,14.6389824 8.23338459,14.6093772 8.15759998,14.533584 L7.09694398,13.472928 L6.24839998,14.321448 L6.88480798,14.957856 C7.0010867,15.0751643 7.00066698,15.2643977 6.88386903,15.381189 C6.76707107,15.4979804 6.57783771,15.4983894 6.46053598,15.382104 L5.82415197,14.74572 L4.97563197,15.59424 L6.03631198,16.654896 C6.15347145,16.7720555 6.15347144,16.9620085 6.03631197,17.079168 C5.91915249,17.1963275 5.72919945,17.1963275 5.61203997,17.079168 L4.55138397,16.018512 L4.12711197,16.442784 C3.89376559,16.6774956 3.89376559,17.0565924 4.12711197,17.291304 L6.67269598,19.836888 C6.90740759,20.0702344 7.28650437,20.0702344 7.52121598,19.836888 L11.339616,16.018488 L11.763864,16.44276 L7.94546398,20.26116 C7.47602713,20.7278424 6.71783683,20.7278424 6.24839998,20.26116 L3.70283997,17.715576 C3.23615755,17.2461392 3.23615755,16.4879489 3.70283997,16.018512 L7.52123998,12.200112 L7.94548798,12.624432 Z" fill="#000000"></path>
    </g>
</svg>