<svg width="24" height="24" viewBox="0 0 24 24" fill="none" xmlns="http://www.w3.org/2000/svg">
<g id="icons/communication/#-D/ic_Beam_angle_110">
<path id="icons/communication/D-I/ic_Food_and_Entertainment" fill-rule="evenodd" clip-rule="evenodd" d="M19.824 4.2H4.20005C2.88005 4.2 1.80005 4.92 1.80005 6.24V17.064C1.80005 18.384 2.88005 19.8 4.20005 19.8H19.824C21.144 19.8 22.2 18.384 22.2 17.064V6.24C22.2 4.92 21.144 4.2 19.824 4.2ZM5.42405 9.087V9.537C5.42402 9.82305 5.24373 10.078 4.97405 10.1734V16.662C4.97405 16.9105 4.77258 17.112 4.52405 17.112C4.27552 17.112 4.07405 16.9105 4.07405 16.662V10.1734C3.80437 10.078 3.62408 9.82305 3.62405 9.537V7.287C3.62405 7.16273 3.72478 7.062 3.84905 7.062C3.97331 7.062 4.07405 7.16273 4.07405 7.287V9.087H4.29905V7.287C4.29905 7.16273 4.39978 7.062 4.52405 7.062C4.64831 7.062 4.74905 7.16273 4.74905 7.287V9.087H4.97405V7.287C4.97405 7.16273 5.07478 7.062 5.19905 7.062C5.32331 7.062 5.42405 7.16273 5.42405 7.287V9.087ZM11.987 17.7196C8.87448 17.7196 6.35129 15.1004 6.35129 11.9879C6.35129 8.87534 8.87448 6.35215 11.987 6.35215C15.0995 6.35215 17.6227 8.87534 17.6227 11.9879C17.6227 15.1004 15.0995 17.7196 11.987 17.7196ZM19.8 10.416V16.536C19.8 16.9584 19.6191 17.136 19.392 17.136C19.165 17.136 18.9841 16.9914 18.9841 16.536L18.9872 12.5591H18.576V8.32375C18.576 7.54406 19.0363 6.912 19.604 6.912C19.7176 6.912 19.8 6.876 19.8 7.032V10.416ZM11.987 7.53585C9.50172 7.53585 7.48699 9.55058 7.48699 12.0359C7.48699 14.5211 9.50172 16.5359 11.987 16.5359C14.4723 16.5359 16.487 14.5211 16.487 12.0359C16.487 9.55058 14.4723 7.53585 11.987 7.53585ZM11.987 16.2679C9.64971 16.2679 7.75498 14.3731 7.75498 12.0359C7.75498 9.69858 9.64971 7.80384 11.987 7.80384C14.3243 7.80384 16.219 9.69858 16.219 12.0359C16.219 13.1583 15.7731 14.2347 14.9795 15.0283C14.1858 15.822 13.1094 16.2679 11.987 16.2679Z" fill="black"/>
</g>
</svg>
