<?xml version="1.0" encoding="UTF-8"?><svg xmlns="http://www.w3.org/2000/svg" viewBox="0 0 1692 852"><defs><style>.e{fill:#ff7900;}.f{fill:#1b1b1b;}.g{isolation:isolate;}</style></defs><g id="a"/><g id="b"><g id="c"><rect class="f" y="0" width="1692" height="852"/><g id="d" transform="translate(0 16)"><g class="g"><path class="e" d="M679.27,384.25h10.55v84.55h-10.55v-84.55Zm5.27,75.23h25.08c6.33,0,11.14-1.26,14.44-3.78,3.3-2.52,4.95-6.2,4.95-11.04v-.12c0-3.28-.76-6.02-2.29-8.2-1.52-2.19-3.8-3.83-6.83-4.92-3.03-1.09-6.79-1.64-11.28-1.64h-24.08v-9.08h21.09c6.25,0,11.02-1.21,14.33-3.63,3.3-2.42,4.95-5.92,4.95-10.49v-.12c0-4.18-1.39-7.37-4.16-9.58-2.77-2.21-6.72-3.31-11.84-3.31h-24.38v-9.32h26.78c4.84,0,9.08,.88,12.71,2.64s6.46,4.22,8.5,7.38c2.03,3.16,3.05,6.86,3.05,11.07v.12c0,2.93-.67,5.72-1.99,8.38-1.33,2.66-3.14,4.89-5.45,6.71-2.31,1.82-4.92,2.94-7.85,3.37v.23c4.06,.47,7.56,1.64,10.49,3.52s5.18,4.29,6.74,7.24c1.56,2.95,2.34,6.3,2.34,10.05v.12c0,4.96-1.14,9.21-3.43,12.74-2.29,3.54-5.56,6.25-9.81,8.14-4.26,1.9-9.4,2.84-15.41,2.84h-26.66v-9.32Z"/><path class="e" d="M760.84,467.22c-3.14-1.84-5.55-4.44-7.21-7.82-1.66-3.38-2.49-7.37-2.49-11.98v-39.55h10.2v37.73c0,4.96,1.16,8.76,3.49,11.4,2.32,2.64,5.83,3.96,10.52,3.96,3.2,0,6-.71,8.38-2.14,2.38-1.43,4.23-3.44,5.54-6.04,1.31-2.6,1.96-5.62,1.96-9.05v-35.86h10.2v60.94h-10.2v-8.67h-.23c-1.64,2.85-4.01,5.21-7.12,7.06s-6.98,2.78-11.63,2.78-8.25-.92-11.4-2.75Z"/><path class="e" d="M823.12,465.99c-2.77-2.66-4.16-6.89-4.16-12.71v-36.97h-8.91v-8.44h8.91v-16.46h10.55v16.46h11.6v8.44h-11.6v36.91c0,3.24,.7,5.44,2.11,6.59,1.41,1.15,3.48,1.73,6.21,1.73,.62,0,1.22-.03,1.79-.09,.57-.06,1.06-.11,1.49-.15v8.26c-.62,.08-1.44,.17-2.43,.26-1,.1-2,.15-3.02,.15-5.59,0-9.77-1.33-12.54-3.98Z"/><path class="e" d="M860.47,465.99c-2.77-2.66-4.16-6.89-4.16-12.71v-36.97h-8.91v-8.44h8.91v-16.46h10.55v16.46h11.6v8.44h-11.6v36.91c0,3.24,.7,5.44,2.11,6.59,1.41,1.15,3.48,1.73,6.21,1.73,.62,0,1.22-.03,1.79-.09,.57-.06,1.06-.11,1.49-.15v8.26c-.62,.08-1.44,.17-2.43,.26-1,.1-2,.15-3.02,.15-5.59,0-9.77-1.33-12.54-3.98Z"/><path class="e" d="M899.26,466.1c-4.24-2.58-7.54-6.24-9.9-10.99-2.36-4.75-3.54-10.34-3.54-16.79v-.12c0-6.48,1.18-12.08,3.54-16.79,2.36-4.71,5.66-8.34,9.9-10.9,4.24-2.56,9.15-3.84,14.74-3.84s10.56,1.28,14.79,3.84c4.24,2.56,7.54,6.19,9.9,10.9,2.36,4.71,3.54,10.3,3.54,16.79v.12c0,6.48-1.18,12.09-3.54,16.82-2.36,4.73-5.65,8.38-9.87,10.96s-9.14,3.87-14.77,3.87-10.56-1.29-14.79-3.87Zm24.2-7.82c2.64-1.78,4.69-4.36,6.15-7.73,1.46-3.38,2.2-7.45,2.2-12.22v-.12c0-4.77-.73-8.83-2.2-12.19-1.46-3.36-3.54-5.92-6.21-7.68-2.68-1.76-5.81-2.64-9.4-2.64s-6.61,.89-9.29,2.67c-2.68,1.78-4.76,4.34-6.24,7.68-1.49,3.34-2.23,7.39-2.23,12.16v.12c0,4.77,.74,8.84,2.23,12.22,1.48,3.38,3.56,5.96,6.24,7.73,2.67,1.78,5.81,2.67,9.4,2.67s6.71-.89,9.35-2.67Z"/><path class="e" d="M953.69,407.86h10.2v8.67h.23c1.64-2.85,4.02-5.21,7.15-7.06,3.12-1.85,6.99-2.78,11.6-2.78,6.68,0,11.87,2.02,15.56,6.06s5.54,9.54,5.54,16.49v39.55h-10.2v-37.73c0-4.96-1.16-8.76-3.49-11.4-2.32-2.64-5.83-3.96-10.52-3.96-3.2,0-6,.71-8.38,2.14-2.38,1.43-4.23,3.43-5.54,6.01-1.31,2.58-1.96,5.61-1.96,9.08v35.86h-10.2v-60.94Z"/></g></g></g></g></svg>