<?xml version="1.0" encoding="UTF-8"?><svg xmlns="http://www.w3.org/2000/svg" viewBox="0 0 1692 854"><defs><style>.e{fill:#1b1b1b;}.f{fill:#ff7900;}.f,.g{fill-rule:evenodd;}.g{fill:#fff;}</style></defs><g id="a"/><g id="b"><g id="c"><g><rect class="e" width="1692" height="854"/><path id="d" class="f" d="M1517.36,204.95c0-35.32-28.63-63.95-63.95-63.95s-63.95,28.63-63.95,63.95c-.02,11.14,2.89,22.09,8.43,31.75h0l55.53,101.97,55.53-101.97h0c5.54-9.66,8.44-20.61,8.43-31.75Zm-63.95,46.51c-25.69,0-46.51-20.82-46.51-46.51s20.82-46.51,46.51-46.51,46.51,20.82,46.51,46.51-20.82,46.51-46.51,46.51Zm28.71-73.41l-67.05,29.73,23.97,7.07,3.67,27.37,39.42-64.17Z"/><path class="f" d="M1064.04,146.91h0c-7.65-7.78-20.15-7.89-27.94-.25-.1,.09-.19,.19-.28,.29h0l-91.3,92.89h39.54v79.07c0,10.92,8.85,19.77,19.77,19.77h92.25c10.92,0,19.77-8.85,19.77-19.77v-79.07h39.54l-91.33-92.93Zm6.99,102.82v57.32h-57.33c-5.46,0-9.88-4.43-9.88-9.88h0v-57.33h57.33c5.46,0,9.88,4.43,9.88,9.88h0Z"/><path class="f" d="M726.05,239.84c0-26.83,29.28-6.53,15.65-39.44-13.64-32.91-19.98,2.14-38.95-16.83-18.97-18.97,16.09-25.31-16.82-38.94-32.92-13.63-12.62,15.64-39.44,15.64s-6.53-29.27-39.44-15.64c-32.91,13.63,2.14,19.97-16.83,38.94-18.97,18.97-25.32-16.08-38.95,16.83-13.64,32.91,15.64,12.61,15.64,39.44s-29.28,6.53-15.64,39.44c13.63,32.91,19.98-2.14,38.95,16.82,18.97,18.97-16.08,25.32,16.83,38.95,32.91,13.63,12.61-15.64,39.44-15.64s6.52,29.27,39.44,15.64c32.91-13.63-2.15-19.98,16.82-38.95,18.97-18.96,25.32,16.09,38.95-16.82,13.63-32.91-15.65-12.61-15.65-39.44Zm-79.45-48.38c26.79,0,48.51,21.72,48.51,48.51s-21.72,48.51-48.51,48.51-48.51-21.72-48.51-48.51,21.72-48.51,48.51-48.51Z"/><path class="g" d="M732.26,618.57c.95-4.43,1.43-8.95,1.43-13.49,0-35.32-28.63-63.96-63.96-63.96-19.35-.02-37.67,8.75-49.79,23.82-14.15-3-28.04,6.04-31.04,20.19-.2,.94-.35,1.89-.44,2.85-23,2.81-40.82,22.4-40.82,46.17,0,25.69,20.82,46.51,46.51,46.51h116.28c19.27,0,34.88-15.62,34.88-34.89,0-10.58-4.8-20.59-13.05-27.21Zm-62.53,3.95v34.88c0,3.21-2.6,5.81-5.81,5.81h-23.26c-3.21,0-5.81-2.6-5.81-5.81v-34.88h-23.26l36.59-36.59c2.27-2.27,5.95-2.27,8.22,0h0l36.59,36.59h-23.26Z"/><path class="g" d="M321.96,691.67l-13.34-11.67c30.77-33.79,30.77-85.44,0-119.23l13.34-11.68c36.57,40.49,36.57,102.09,0,142.58Zm-22.24-19.46l-13.35-11.68c21.03-22.64,21.03-57.66,0-80.3l13.35-11.68c26.21,29.19,25.65,73.96,0,103.66h0Zm-22.25-19.46l-13.36-11.69c11.26-11.49,11.26-29.87,0-41.36l13.36-11.69c16.81,18.13,16.57,46.37,0,64.73h0Zm-129.01,9c-6.53,0-11.82-5.29-11.82-11.82v-59.09c0-6.53,5.29-11.82,11.82-11.82h53.18l53.18-47.28v177.28l-53.18-47.28h-53.18Z"/><path class="f" d="M279.69,221.79c-20.6,19.41-52.75,19.41-73.35,0-16.45,8.97-26.86,26.05-27.27,44.79h-.01v48.84c0,12.84,10.41,23.26,23.26,23.26h104.65v-70.93c0-19.16-10.46-36.78-27.28-45.95Zm5.19-38.93c0,23.12-18.74,41.86-41.86,41.86s-41.86-18.74-41.86-41.86,18.74-41.86,41.86-41.86,41.86,18.74,41.86,41.86Z"/><path class="g" d="M1125.65,534.95h-172.92v130.51c0,11.82,9.59,21.39,21.41,21.39h173.02v-130.92c0-11.86-9.64-20.97-21.51-20.97Zm3.28,45.6l-57.42,55.26h-.05c-5.63,5.59-13.26,8.49-21.66,8.49s-16.03-2.9-21.67-8.49h-.15l-57.03-55.22v-21.03c22.84,22.57,64.4,62.88,64.4,62.88h.01c3.72,3.89,8.78,5.54,14.37,5.54,5.92,0,11.24-2.38,15.01-6.51h.03l64.15-62.2v21.29h0Z"/><path class="g" d="M1519.41,517h-150v174c0,9.94,8.06,18,18,18h150v-174c0-9.94-8.06-18-18-18Zm-120,180h-18v-18h18v18Zm0-30h-18v-18h18v18Zm0-30h-18v-18h18v18Zm0-30h-18v-18h18v18Zm0-30h-18v-18h18v18Zm0-30h-18v-18h18v18Zm60,81l-24,15v-60l24,15,24,15-24,15Zm66,69h-18v-18h18v18Zm0-30h-18v-18h18v18Zm0-30h-18v-18h18v18Zm0-30h-18v-18h18v18Zm0-30h-18v-18h18v18Zm0-30h-18v-18h18v18Z"/></g></g></g></svg>