<?xml version="1.0" encoding="UTF-8"?><svg id="BOY" xmlns="http://www.w3.org/2000/svg" viewBox="0 0 250 250"><path d="M126.99,210.2c-38.8,0-70.37-31.57-70.37-70.37s31.57-70.37,70.37-70.37,70.37,31.57,70.37,70.37-31.57,70.37-70.37,70.37ZM126.99,70.35c-38.31,0-69.48,31.17-69.48,69.48s31.17,69.48,69.48,69.48,69.48-31.17,69.48-69.48-31.17-69.48-69.48-69.48Z" fill="#595959" stroke-width="0"/><path d="M50.06,158.49c-.61,0-1.16-.42-1.31-1.04-5.91-25.18.81-51.79,17.96-71.19.49-.56,1.34-.61,1.9-.12.56.49.61,1.34.12,1.9-16.58,18.75-23.07,44.46-17.36,68.79.17.72-.28,1.45-1,1.62-.1.02-.21.04-.31.04Z" fill="#666" stroke-width="0"/><path d="M201.12,167.05c-.15,0-.3-.03-.45-.08-.7-.25-1.06-1.02-.81-1.72,5.04-14.01,5.89-29.11,2.48-43.67-.17-.72.28-1.45,1-1.62.72-.17,1.45.28,1.62,1,3.54,15.07,2.65,30.69-2.56,45.19-.2.55-.71.89-1.27.89Z" fill="#999" stroke-width="0"/><path d="M223.29,219.99H26.35c-.74,0-1.35-.6-1.35-1.35s.6-1.35,1.35-1.35h196.94c.74,0,1.35.6,1.35,1.35s-.6,1.35-1.35,1.35Z" fill="#595959" stroke-width="0"/><path d="M120.95,224.24c-5.4,1.33-13.23,2.41-17.27,4.17-4.03,1.75-7.47,4.98-11.81,6.83-1.96.84-4.09,1.1-5.64.49-1.8-.71-2.74-1.92-3.69-5.06-1.31-4.33,6.42-10.17,9.16-12.85,2.74-2.68,9.65-5.11,14.22-4.05,4.57,1.06,13.55.04,15.01-.18,1.47-.22,0,10.64,0,10.64Z" fill="#fff" stroke-width="0"/><path d="M88.18,236.52c-.77,0-1.48-.12-2.11-.37-1.98-.78-2.98-2.13-3.95-5.34-1.17-3.89,4.09-8.61,7.58-11.74.66-.59,1.25-1.12,1.7-1.56,2.9-2.83,9.92-5.27,14.64-4.17,4.42,1.03,13.28.05,14.84-.18.23-.03.45.04.63.21,1.12,1.1.19,8.65-.12,10.94l-.04.3-.3.07c-1.84.45-3.91.87-6.1,1.31-4.16.83-8.47,1.7-11.1,2.84-1.93.84-3.7,2.01-5.57,3.24-1.96,1.29-3.98,2.63-6.24,3.59-1.34.57-2.68.87-3.87.87ZM103.52,213.97c-4.17,0-9.25,1.99-11.49,4.18-.46.45-1.06.98-1.73,1.59-3.11,2.79-8.33,7.47-7.32,10.81.89,2.94,1.72,4.1,3.42,4.77,1.35.53,3.33.35,5.3-.49,2.19-.93,4.18-2.25,6.1-3.51,1.82-1.2,3.71-2.45,5.71-3.32,2.71-1.18,7.07-2.05,11.28-2.89,2.06-.41,4.02-.81,5.77-1.23.56-4.26.85-9.06.37-9.82-2.1.3-10.62,1.2-15.08.16-.72-.17-1.5-.24-2.32-.24Z" stroke-width="0"/><path d="M99.53,181.39h55.26l29.47,2.13-11.44,12.24s-45.43,15.7-46.18,15.12c-.74-.58-39.73-21.33-40.79-22.1-1.06-.78-4.93-6.4-4.93-6.4l18.61-.99Z" stroke-width="0"/><path d="M126.59,211.3c-.15,0-.19-.03-.22-.06-.48-.34-10.01-5.46-19.23-10.41-12.67-6.81-21.02-11.3-21.55-11.69-1.09-.8-4.64-5.92-5.04-6.51l-.45-.66,19.43-1.03h55.26l30.44,2.19-12.16,13.01-.11.04c-39.66,13.71-45.39,15.11-46.38,15.11ZM81.74,182.79c1.55,2.21,3.71,5.15,4.37,5.63.54.39,11.64,6.36,21.44,11.62,12.12,6.51,18.25,9.81,19.23,10.41,2.12-.18,28.36-9.06,45.78-15.08l10.72-11.48-28.53-2.06h-55.21s-17.8.95-17.8.95Z" fill="#fff" stroke-width="0"/><path d="M136.64,224.24c5.4,1.33,13.23,2.41,17.27,4.17,4.03,1.75,7.47,4.98,11.81,6.83,1.96.84,4.09,1.1,5.64.49,1.8-.71,2.74-1.92,3.69-5.06,1.31-4.33-6.42-10.17-9.16-12.85-2.74-2.68-9.65-5.11-14.22-4.05-4.57,1.06-13.55.04-15.01-.18-1.47-.22,0,10.64,0,10.64Z" fill="#fff" stroke-width="0"/><path d="M154.08,213.52c4.31,0,9.51,2.07,11.8,4.31,2.74,2.68,10.47,8.52,9.16,12.85-.95,3.14-1.89,4.35-3.69,5.06-.58.23-1.23.33-1.93.33-1.18,0-2.48-.3-3.71-.83-4.34-1.85-7.77-5.08-11.81-6.83-4.03-1.75-11.86-2.84-17.27-4.17,0,0-1.44-10.65-.04-10.65.01,0,.03,0,.04,0,.98.15,5.32.65,9.46.65,2.05,0,4.04-.12,5.56-.48.75-.18,1.57-.26,2.42-.26M154.08,212.62v.9s0-.9,0-.9c-.95,0-1.83.09-2.62.28-1.29.3-3.09.45-5.35.45-4.15,0-8.48-.52-9.32-.64h-.07s-.11-.01-.11-.01c-.34,0-.66.15-.9.42-1.05,1.2-.55,6.78.05,11.24l.08.6.59.15c1.85.46,3.92.87,6.12,1.31,4.14.83,8.42,1.69,11,2.81,1.89.82,3.64,1.98,5.5,3.2,1.97,1.3,4.01,2.65,6.31,3.63,1.38.59,2.78.9,4.06.9.83,0,1.59-.13,2.26-.4,2.11-.83,3.21-2.3,4.21-5.63,1.26-4.16-4.14-9-7.71-12.2-.67-.6-1.24-1.12-1.68-1.55-2.62-2.56-8.08-4.56-12.43-4.56h0Z" stroke-width="0"/><path d="M165.88,217.82c-2.74-2.68-9.65-5.11-14.22-4.05-4.57,1.06-13.55.04-15.01-.18-1.47-.22,0,10.64,0,10.64,4.51,1.11,10.69,2.05,14.97,3.35l14.92-9.15c-.24-.22-.46-.42-.65-.61Z" fill="#999" stroke-width="0"/><path d="M91.33,218.7c2.74-2.68,9.31-5.68,13.88-4.62,4.57,1.06,12.41-.27,13.88-.49,1.47-.22,0,10.64,0,10.64-4.51,1.11-10.53,2.11-14.8,3.4l-13.61-8.33c.24-.22.46-.42.65-.61Z" fill="#999" stroke-width="0"/><path d="M223.68,187.55c-.77.14-3.56.68-4.05.63-.5-.05-3.14-.81-3.14-.81,0,0,3.95-1.22,4.26-2.03.32-.81.98-3.65,1.36-4.72.38-1.07-.93-.92-.93-.92,0,0,1.16-1.37,0-1.85-1.16-.48-4.3-1.96-6.37-2.54-2.07-.58-4.7.21-7.44.41-2.74.2-6.34,1.07-8.04-.55-1.7-1.62-21.54-19.02-26.12-20.13l-3.42-3.68s-15.52-4.54-12.79,5.23c2.72,9.78,7.06,10.28,12.3,12.6,5.24,2.32,26.57,11.27,28.67,12.11s3.54,1.83,4.42,2.98c.88,1.15,6.62,9.79,7.31,10.82s4.76,2.94,6.05,3.68c1.29.74,1.73-1.33,1.03-1.68-.7-.35-2.54-1.38-2.58-1.49-.04-.11-1.5-2.93-1.5-2.93,0,0,3.74,2.42,4.21,2.49.47.07,3.88.23,5.06.1,1.18-.12,1.05-1.73.29-1.77-.76-.04-3.64-.76-4.04-.97-.4-.22-2.53-1.72-2.53-1.72,0,0,3.78.31,4.35.27.57-.04,3.52-1.61,4.2-1.98.68-.37.23-1.71-.54-1.58ZM215.33,184c-.73.1-3.54-4.76-3.43-4.81.12-.05,2.2-.41,2.2-.41,0,0,4.54,1.2,5.09,1.36-.64.61-1.13,2.78-1.8,3.34-.53.43-1.74.48-2.07.52Z" fill="#fff" stroke-width="0"/><path d="M216.26,199.4c-.21,0-.46-.06-.74-.22-.3-.17-.76-.41-1.3-.69-2.36-1.23-4.36-2.32-4.9-3.13l-.68-1.01c-1.61-2.42-5.89-8.83-6.62-9.78-.84-1.1-2.22-2.03-4.23-2.84-1.87-.76-23.38-9.77-28.69-12.12-.66-.29-1.31-.56-1.95-.82-4.38-1.79-8.17-3.33-10.6-12.07-.64-2.31-.36-4.08.83-5.25,3.25-3.2,12.15-.64,12.52-.53l.12.03,3.42,3.68c5.05,1.45,24.99,19.05,26.19,20.2,1.2,1.15,3.72.86,5.94.61.6-.07,1.2-.14,1.75-.18.86-.06,1.72-.19,2.54-.3,1.82-.26,3.55-.51,5.05-.09,1.6.45,3.82,1.42,5.29,2.07.46.2.85.38,1.13.49.51.21.7.56.76.82.09.37-.02.76-.17,1.08.18.06.35.17.48.33.16.2.3.55.11,1.1-.18.51-.44,1.46-.68,2.39-.26.98-.51,1.91-.68,2.35-.25.65-1.82,1.34-3.16,1.83.75.2,1.45.38,1.65.4.35.03,2.56-.37,3.39-.53l.55-.1c.56-.1,1.09.25,1.31.88.22.63.03,1.26-.47,1.53-.04.02-3.61,1.98-4.38,2.04-.34.02-1.65-.06-2.77-.14.53.36.99.67,1.14.75.32.17,3.13.89,3.85.92.57.03.99.53,1.01,1.2.02.64-.37,1.36-1.27,1.46-1.22.13-4.69-.03-5.18-.11-.35-.05-1.71-.87-2.97-1.66.44.86.62,1.22.7,1.38.32.22,1.73,1.01,2.41,1.36.35.18.56.56.58,1.05.02.51-.19,1.17-.7,1.47-.13.08-.33.16-.59.16ZM162.73,150.75c-1.88,0-3.67.33-4.71,1.35-.94.93-1.14,2.4-.59,4.37,2.32,8.32,5.74,9.72,10.08,11.48.64.26,1.3.53,1.97.83,5.3,2.35,26.79,11.35,28.66,12.11,2.16.87,3.66,1.89,4.6,3.12.75.98,4.88,7.18,6.65,9.83l.68,1.01c.46.69,3.04,2.03,4.57,2.83.55.28,1.02.53,1.33.71.18.1.32.13.42.07.16-.1.28-.39.26-.67,0-.19-.07-.27-.08-.28-1-.5-2.68-1.4-2.8-1.74-.06-.13-.94-1.83-1.47-2.86l-.78-1.5,1.42.92c1.73,1.12,3.72,2.34,4.05,2.43.4.06,3.77.22,4.93.1.43-.05.47-.39.47-.54,0-.18-.09-.33-.15-.33-.77-.04-3.74-.76-4.23-1.03-.41-.22-2.36-1.59-2.58-1.75l-1.35-.95,1.64.13c1.51.12,3.89.3,4.28.27.39-.04,2.67-1.19,4.01-1.93.12-.07.12-.28.06-.45-.05-.13-.16-.31-.31-.29l-.54.1c-2,.37-3.23.57-3.63.54-.51-.05-2.77-.7-3.22-.83l-1.44-.42,1.43-.44c1.97-.61,3.79-1.42,3.98-1.77.15-.38.4-1.33.65-2.25.25-.94.51-1.91.71-2.45.06-.16.04-.24.04-.24-.05-.06-.3-.1-.49-.08l-1.1.12.71-.85c.2-.24.46-.7.4-.95,0-.03-.03-.12-.23-.2-.28-.12-.68-.29-1.15-.5-1.44-.64-3.63-1.6-5.17-2.02-1.32-.37-2.96-.13-4.68.11-.84.12-1.72.25-2.61.31-.54.04-1.12.11-1.72.18-2.42.28-5.16.59-6.67-.85-2.05-1.97-21.53-18.96-25.92-20.02l-.13-.03-3.43-3.69c-.64-.18-3.83-1.01-6.82-1.01ZM215.34,184.45c-1.24,0-3.84-5.05-3.86-5.1l-.11-.37.35-.19c.06-.03.17-.08,2.31-.44l.1-.02.09.02s4.55,1.21,5.1,1.36l.75.22-.56.54c-.24.23-.51.89-.75,1.46-.33.79-.64,1.54-1.07,1.89-.55.46-1.56.55-2.1.6l-.19.02s-.04,0-.06,0ZM215.29,183.56s-.01,0-.02,0h.02ZM212.54,179.51c.59,1.1,2.25,3.73,2.8,4.04l.15-.02c.38-.04,1.28-.12,1.62-.4.26-.22.57-.95.81-1.55.18-.43.35-.84.54-1.18-1.24-.34-3.85-1.03-4.38-1.17-.56.09-1.14.2-1.55.27Z" stroke-width="0"/><path d="M29.23,189.13c.68.37,3.63,1.94,4.2,1.98.57.04,4.35-.27,4.35-.27,0,0-2.14,1.5-2.53,1.72-.4.22-3.28.94-4.04.97-.76.04-.89,1.65.29,1.77,1.18.12,4.59-.03,5.06-.1s4.21-2.49,4.21-2.49c0,0-1.46,2.82-1.5,2.93s-1.88,1.13-2.58,1.49c-.7.35-.26,2.42,1.03,1.68,1.29-.74,5.36-2.65,6.05-3.68s6.43-9.67,7.31-10.82c.88-1.15,2.32-2.13,4.42-2.98s23.44-9.79,28.67-12.11c5.24-2.32,9.58-2.82,12.3-12.6,2.72-9.78-12.79-5.23-12.79-5.23l-3.42,3.68c-4.58,1.11-24.43,18.5-26.12,20.13-1.7,1.62-5.3.75-8.04.55-2.74-.2-5.37-.99-7.44-.41-2.07.58-5.21,2.07-6.37,2.54-1.16.48,0,1.85,0,1.85,0,0-1.31-.15-.93.92.38,1.07,1.05,3.91,1.36,4.72.32.81,4.26,2.03,4.26,2.03,0,0-2.64.77-3.14.81-.5.05-3.29-.5-4.05-.63s-1.22,1.2-.54,1.58ZM36.05,183.48c-.67-.56-1.16-2.72-1.8-3.34.54-.16,5.09-1.36,5.09-1.36,0,0,2.09.35,2.2.41.12.05-2.69,4.91-3.43,4.81-.32-.04-1.54-.09-2.07-.52Z" fill="#fff" stroke-width="0"/><path d="M37.2,199.4c-.26,0-.46-.09-.59-.16-.51-.31-.72-.96-.7-1.47.02-.49.23-.87.58-1.05.69-.35,2.1-1.14,2.41-1.36.08-.16.26-.52.7-1.38-1.27.8-2.62,1.61-2.97,1.66-.49.08-3.96.23-5.18.11-.9-.09-1.29-.82-1.27-1.46.02-.67.44-1.18,1.01-1.2.72-.03,3.53-.75,3.85-.92.15-.08.61-.39,1.14-.75-1.11.08-2.42.17-2.77.14-.77-.05-4.35-2.02-4.38-2.04h0c-.5-.28-.69-.91-.47-1.53.22-.62.75-.98,1.31-.88l.55.1c.83.15,3.03.57,3.39.53.2-.02.9-.2,1.65-.4-1.33-.48-2.9-1.18-3.16-1.83-.17-.43-.42-1.36-.68-2.34-.25-.92-.5-1.88-.69-2.39-.2-.55-.05-.91.11-1.1.13-.17.31-.27.48-.33-.15-.32-.26-.71-.17-1.08.06-.26.25-.61.76-.82.28-.11.67-.29,1.13-.49,1.47-.65,3.69-1.62,5.29-2.07,1.5-.42,3.23-.17,5.05.09.83.12,1.68.24,2.54.3.56.04,1.15.11,1.75.18,2.22.26,4.74.55,5.94-.61,1.21-1.15,21.14-18.75,26.19-20.2l3.42-3.68.12-.03c.38-.11,9.28-2.67,12.52.53,1.19,1.18,1.47,2.94.83,5.25-2.43,8.74-6.22,10.29-10.6,12.07-.63.26-1.28.52-1.94.82-5.3,2.35-26.81,11.36-28.69,12.12-2,.81-3.38,1.74-4.23,2.84-.73.95-5.01,7.37-6.62,9.78l-.68,1.01c-.54.81-2.54,1.9-4.91,3.13-.53.28-.99.52-1.29.69-.28.16-.53.22-.74.22ZM41.94,191.4l-.78,1.5c-.54,1.03-1.41,2.73-1.48,2.89-.11.32-1.79,1.22-2.79,1.72-.02,0-.08.1-.08.28-.01.28.11.58.26.67.1.06.24.04.42-.07.31-.18.78-.42,1.33-.71,1.54-.8,4.11-2.15,4.58-2.84l.68-1.01c1.77-2.65,5.9-8.85,6.65-9.83.94-1.23,2.45-2.25,4.6-3.12,1.87-.76,23.36-9.76,28.66-12.11.67-.3,1.33-.57,1.97-.83,4.34-1.77,7.76-3.16,10.08-11.48.55-1.97.35-3.44-.59-4.37-2.69-2.65-10.48-.63-11.53-.34l-3.43,3.69-.13.03c-4.39,1.06-23.87,18.05-25.92,20.02-1.51,1.44-4.25,1.13-6.67.85-.59-.07-1.17-.14-1.72-.18-.89-.06-1.76-.19-2.61-.31-1.73-.25-3.36-.48-4.69-.11-1.54.43-3.72,1.39-5.17,2.02-.47.21-.87.38-1.15.5-.2.08-.22.17-.23.2-.06.24.2.71.4.95l.72.86-1.12-.13c-.19-.02-.44.02-.49.08,0,0-.02.08.04.24.19.55.45,1.52.71,2.46.25.92.5,1.86.65,2.25.18.34,2.01,1.15,3.98,1.76l1.43.44-1.44.42c-.45.13-2.71.78-3.22.83-.39.03-1.63-.17-3.63-.54l-.54-.1c-.14-.03-.26.16-.31.29-.06.17-.06.38.06.45,1.34.74,3.62,1.89,4.01,1.93.39.03,2.77-.15,4.28-.27l1.64-.13-1.35.95c-.22.16-2.17,1.53-2.58,1.75-.5.27-3.46.99-4.23,1.03-.07,0-.15.15-.16.33,0,.15.03.5.47.54,1.16.12,4.53-.04,4.95-.1.31-.09,2.3-1.3,4.03-2.43l1.42-.92ZM38.12,184.45s-.04,0-.06,0l-.19-.02c-.54-.05-1.55-.15-2.1-.6-.43-.36-.74-1.1-1.07-1.89-.24-.58-.51-1.23-.75-1.46l-.56-.54.75-.22c.55-.16,5.1-1.36,5.1-1.36l.09-.02.1.02c2.14.36,2.26.41,2.32.44l.35.16-.11.41c-.02.05-2.62,5.1-3.86,5.1ZM38.16,183.56h.02s-.01,0-.02,0ZM34.99,180.41c.19.34.36.75.54,1.18.25.59.55,1.33.81,1.55h0c.34.28,1.23.36,1.62.4l.15.02c.56-.3,2.21-2.94,2.8-4.04-.39-.07-.98-.18-1.55-.27-.53.14-3.13.83-4.38,1.17Z" stroke-width="0"/><path d="M151.57,180.81c13.1.08,34.47-2.74,41.56-2.34,7.1.4,9.04,9.13,9.13,13.15.08,4.02-2.87,11.39-8.99,13-6.12,1.61-60.8,16.66-60.8,16.66l-9.14-12.12s38.76-23.16,48.19-25.12" stroke-width="0"/><path d="M132.29,221.79l-9.62-12.76.43-.26c1.59-.95,38.93-23.23,48.33-25.18l.18.88c-8.72,1.81-43.35,22.28-47.62,24.81l8.65,11.48c4.34-1.19,54.69-15.04,60.51-16.58,5.71-1.51,8.75-8.38,8.66-12.56-.07-3.4-1.78-12.32-8.7-12.71-3.38-.19-9.93.35-17.53.97-8.05.66-17.18,1.42-24.01,1.37v-.9c6.8.03,15.9-.71,23.94-1.36,7.63-.63,14.21-1.17,17.65-.97,3.23.18,5.85,2.07,7.57,5.46,1.39,2.75,1.94,6,1.98,8.13.09,4.46-3.17,11.82-9.33,13.44-6.05,1.6-60.25,16.5-60.79,16.65l-.29.08Z" fill="#fff" stroke-width="0"/><path d="M122.72,210.5c-.46,0-.9-.23-1.16-.66-.38-.64-.17-1.46.46-1.84,1.59-.95,39.06-23.3,48.61-25.29.73-.16,1.44.32,1.59,1.04.15.73-.32,1.44-1.04,1.59-9.11,1.89-47.39,24.73-47.78,24.96-.22.13-.45.19-.69.19Z" fill="#595959" stroke-width="0"/><path d="M103.02,180.81c-13.1.08-34.47-2.74-41.56-2.34-7.1.4-9.04,9.13-9.13,13.15-.08,4.02,2.87,11.39,8.99,13,6.12,1.61,73.36,24.12,73.36,24.12,0,0,4.67-.84,6.32-6.02,1.65-5.18,0-9.21,0-9.21,0,0-48.51-27.52-57.94-29.48" stroke-width="0"/><path d="M134.65,229.21l-.11-.04c-.67-.23-67.3-22.52-73.33-24.11-6.16-1.62-9.42-8.98-9.33-13.44.11-5.25,2.74-13.2,9.55-13.59,3.43-.2,10.02.35,17.65.97,8.04.66,17.15,1.4,23.93,1.36v.9c-6.81.05-15.95-.71-24.01-1.37-7.6-.62-14.16-1.16-17.53-.97-6.93.39-8.63,9.31-8.7,12.71-.09,4.18,2.95,11.05,8.66,12.56,5.95,1.57,70.12,23.04,73.28,24.09.7-.16,4.43-1.21,5.87-5.69,1.41-4.42.32-8.02.06-8.76-2.92-1.65-48.66-27.48-57.67-29.35l.18-.88c9.39,1.95,56.09,28.41,58.07,29.53l.13.08.06.14c.07.17,1.7,4.24.01,9.52-1.72,5.37-6.47,6.29-6.67,6.32l-.11.02Z" fill="#fff" stroke-width="0"/><path d="M120.45,225.24c-.14,0-.28-.02-.43-.07-20.11-6.71-54.49-18.12-58.74-19.24-3.9-1.03-6.31-3.95-7.64-6.22-1.5-2.56-2.41-5.67-2.35-8.11.02-.74.61-1.34,1.37-1.32.74.02,1.33.63,1.32,1.37-.07,3.41,2.54,10.23,7.99,11.67,4.32,1.14,38.77,12.58,58.91,19.29.7.23,1.09,1,.85,1.7-.19.56-.71.92-1.28.92Z" fill="#333" stroke-width="0"/><path d="M177.58,157.6c.3.24.63.38.97.51-2.33-1.64-4.25-2.81-5.33-3.07l-3.42-3.68s-15.52-4.54-12.79,5.23c1.74,6.25,3.47,7.98,6.2,9.79-5.99-3.97,8.3-13.65,14.38-8.79Z" stroke-width="0"/><path d="M75.88,157.6c-.3.24-.63.38-.97.51,2.33-1.64,4.25-2.81,5.33-3.07l3.42-3.68s15.52-4.54,12.79,5.23c-1.74,6.25-3.47,7.98-6.2,9.79,5.99-3.97-8.3-13.65-14.38-8.79Z" stroke-width="0"/><path d="M127.07,186.11c-16.1,0-25.92-4.26-26.26-8.35-.34-4.09-1.24-23.09-1.73-23.28-.49-.19-.54,0-1.93,2.11-1.39,2.11-18.88-.13-17.83-3.8,1.05-3.67,6.34-26.29,8.2-32.3,1.86-6.01,6.29-7.71,9.25-8.82,2.96-1.12,6.64-2.35,13.15-4.58,6.51-2.24,7.9-2.69,17.15-2.69s10.64.45,17.15,2.69c6.51,2.24,10.18,3.47,13.15,4.58,2.96,1.12,7.39,2.82,9.25,8.82,1.86,6.01,7.15,28.63,8.2,32.3,1.05,3.67-16.44,5.91-17.83,3.8-1.39-2.11-1.44-2.3-1.93-2.11-.49.19-1.39,19.19-1.73,23.28-.34,4.09-10.16,8.35-26.26,8.35" fill="#fff" stroke-width="0"/><path d="M127.07,186.56c-16.87,0-26.35-4.51-26.7-8.76-.11-1.28-.27-4.02-.46-7.19-.33-5.59-.82-13.83-1.13-15.6-.19.2-.48.65-.86,1.23l-.39.6c-1.27,1.93-11.74.87-16.25-1.2-1.9-.87-2.7-1.87-2.39-2.97.4-1.4,1.44-5.66,2.65-10.6,1.96-8.02,4.4-18,5.55-21.71,1.94-6.26,6.69-8.04,9.52-9.11,2.35-.88,5.16-1.85,9.43-3.31l3.74-1.28c6.54-2.24,7.9-2.71,17.3-2.71s10.76.47,17.3,2.71l3.75,1.28c4.26,1.46,7.07,2.42,9.41,3.3,2.83,1.07,7.58,2.85,9.52,9.11,1.15,3.71,3.59,13.69,5.55,21.71,1.21,4.94,2.25,9.2,2.65,10.6.31,1.1-.49,2.1-2.39,2.97-4.51,2.07-14.98,3.13-16.25,1.2l-.39-.6c-.38-.58-.68-1.04-.86-1.26-.32,1.72-.81,10.01-1.14,15.63-.19,3.17-.35,5.91-.46,7.19-.35,4.25-9.83,8.76-26.7,8.76ZM98.82,153.97c.13,0,.26.03.42.09.45.17.61.23,1.57,16.49.19,3.16.35,5.9.45,7.17.32,3.82,10.28,7.94,25.81,7.94s25.49-4.12,25.81-7.94c.11-1.27.27-4.01.45-7.17.96-16.26,1.11-16.32,1.57-16.49.78-.3,1.03.08,2.07,1.69l.39.6c.77,1.17,10.33.67,15.13-1.52.81-.37,2.13-1.11,1.9-1.9-.41-1.42-1.45-5.69-2.66-10.64-1.96-8.01-4.4-17.97-5.54-21.65-1.81-5.84-6.13-7.46-8.98-8.54-2.34-.88-5.14-1.84-9.39-3.29l-3.75-1.28c-6.42-2.2-7.76-2.66-17-2.66s-10.58.46-17,2.66l-3.74,1.28c-4.25,1.46-7.06,2.42-9.4,3.3-2.85,1.07-7.17,2.7-8.98,8.54-1.14,3.68-3.58,13.65-5.54,21.66-1.21,4.94-2.25,9.21-2.66,10.63-.23.8,1.09,1.53,1.9,1.9,4.79,2.2,14.36,2.7,15.13,1.52l.39-.6c.83-1.28,1.16-1.78,1.65-1.78Z" stroke-width="0"/><path d="M144.18,107.64c-6.51-2.24-8-3.23-17.25-3.23s-10.23.81-16.74,3.05c-6.51,2.24-10.63,3.78-13.59,4.9-2.96,1.12-7.35,2.14-9.22,8.15-1.04,3.35-3.13,14.72-4.97,22.23,0,0,2.42-2.92,8.07-5.78,5.65-2.86,11.25-4.49,11.25-4.49l45.06-23.95s-2.6-.87-2.61-.87Z" fill="#595959" stroke-width="0"/><path d="M115.33,90.9l-.48,15.44s3,5.34,12.06,5.34,11.59-5.59,11.59-5.59l.11-13.88-23.28-1.31Z" fill="#fff" stroke-width="0"/><path d="M126.91,112.13c-9.22,0-12.33-5.34-12.45-5.57l-.06-.11.49-16.03,24.17,1.36-.15,14.48c-.11.24-2.75,5.86-12,5.86ZM115.3,106.21c.47.71,3.62,5.01,11.61,5.01s10.79-4.56,11.14-5.25l.1-13.35-22.4-1.26-.46,14.85Z" stroke-width="0"/><path d="M168.9,155.85c-5.03.83-14.94-12.64-16.75-20.22,0,0,1.83,17.04,4.41,20.05,2.59,3.01,12.34.17,12.34.17Z" fill="none" stroke-width="0"/><path d="M85.06,136.95c-1.81,7.26,2.52,18.83,7.14,19.89-1.08.22-12.97-.93-12.48-3.7.94-3.49,3.41-13.52,3.41-13.52l1.92-2.67Z" fill="none" stroke-width="0"/><path d="M115.81,90.92l-.48,15.29s.9,2.03,4.58,3.61v-18.67l-4.1-.23Z" fill="#999" stroke-width="0"/><path d="M114.94,78.57c-1.56-1.24-3.83.49-3.29,4.21.54,3.72,3.19,3.51,3.19,3.51" fill="#999" stroke-width="0"/><path d="M139.29,78.57c1.56-1.24,3.83.49,3.29,4.21-.54,3.72-3.19,3.51-3.19,3.51" fill="#fff" stroke-width="0"/><path d="M139.44,86.74c-.05,0-.08,0-.08,0l.07-.89c.09,0,2.24.11,2.71-3.13.32-2.23-.42-3.5-1.14-3.92-.47-.27-.98-.23-1.42.13l-.56-.7c.73-.58,1.64-.66,2.42-.2,1.02.59,1.97,2.16,1.59,4.83-.54,3.71-3.09,3.89-3.59,3.89Z" stroke-width="0"/><path d="M127.07,100.66s6.04-.27,9.67-2.74c3.63-2.47,2.25-10.06,2.46-21.78s-6.35-12.58-12.13-12.58-12.33.87-12.13,12.58c.2,11.72-1.18,19.32,2.46,21.78,3.63,2.47,9.67,2.74,9.67,2.74" fill="#fff" stroke-width="0"/><path d="M127.07,101.11h-.02c-.25-.01-6.21-.31-9.9-2.82-2.92-1.98-2.83-6.81-2.7-14.11.04-2.39.09-5.09.04-8.03-.08-4.73.89-8.05,2.98-10.18,2.47-2.52,6.07-2.86,9.59-2.86s7.12.35,9.59,2.86c2.09,2.12,3.06,5.45,2.98,10.18-.05,2.94,0,5.65.04,8.04.13,7.3.22,12.13-2.69,14.11-3.69,2.51-9.65,2.81-9.9,2.82h-.02ZM127.07,64c-3.33,0-6.71.31-8.95,2.59-1.91,1.94-2.8,5.06-2.72,9.53.05,2.96,0,5.67-.04,8.07-.13,7.01-.21,11.64,2.3,13.35,3.38,2.3,9.04,2.64,9.42,2.66.39-.02,6.04-.37,9.42-2.66,2.52-1.71,2.43-6.34,2.3-13.35-.04-2.39-.09-5.11-.04-8.07.08-4.47-.81-7.59-2.72-9.53-2.24-2.28-5.63-2.59-8.95-2.59Z" stroke-width="0"/><path d="M120.67,93.62c0-2.93-2.11-24.97,2.75-24.55l-1.63-4.96c-3.82,1.03-6.89,3.95-6.75,12.03.2,11.72-.77,19.08,2.86,21.55,3.63,2.47,9.17,2.51,9.17,2.51,0,0,1.22-.17,2.35-.32,0,0,.36-.6,0,0-3.16.61-8.75-3.32-8.75-6.25Z" fill="#999" stroke-width="0"/><path d="M126.76,63.55c-5.78,0-12.33.87-12.13,12.58.05,2.65.47,5.08.43,7.29l23.19-13.11c-1.76-6.21-6.87-6.77-11.49-6.77Z" fill="#999" stroke-width="0"/><path d="M129.69,70.61c-4.52,0-6.25-2.18-9.35-2.18s-5.77.83-4.53,12.87h-1.37s.45-1.5-3.3-4.76c-3.75-3.27-12.66-3.68-11.96-25.06.7-21.37-13.09-15.82-2.2-37.99" stroke-width="0"/><path d="M116.32,81.75h-2.47l.17-.58h0s.19-1.37-3.16-4.3c-.65-.56-1.49-1.06-2.39-1.59-4.35-2.55-10.3-6.05-9.72-23.82.29-8.91-1.92-12.98-3.87-16.57-2.61-4.8-4.67-8.6,1.72-21.61.11-.22.38-.31.6-.2.22.11.31.38.2.6-6.18,12.59-4.32,16.03-1.73,20.78,1.9,3.51,4.28,7.87,3.98,17.03-.56,17.23,5.13,20.58,9.28,23.02.93.55,1.81,1.07,2.53,1.69,2.71,2.36,3.34,3.88,3.45,4.65h.42c-.6-6.22-.17-9.92,1.35-11.6,1.01-1.11,2.36-1.27,3.67-1.27,1.49,0,2.67.47,3.92.97,1.5.6,3.04,1.21,5.43,1.21.25,0,.45.2.45.45s-.2.45-.45.45c-2.56,0-4.26-.68-5.76-1.27-1.22-.48-2.27-.9-3.59-.9s-2.28.16-3.01.97c-1.36,1.51-1.71,5.24-1.07,11.4l.05.49Z" fill="#333" stroke-width="0"/><path d="M96.99,13.49s12.38,23.82,33.59,17.76c21.21-6.06,29.99,25.08,18.67,35.2-11.32,10.12-8.15,11.55-9.32,14.05h-1.53s.27-4.93-.38-8.92-2.26-2.79-3.39-2.28c-1.13.51-2.21,1.32-4.94,1.32" stroke-width="0"/><path d="M140.22,80.94h-2.29l.03-.47s.26-4.93-.37-8.82c-.28-1.7-.7-2.24-1.01-2.41-.39-.2-.92.06-1.44.31-.11.05-.21.1-.32.15-.18.08-.37.17-.56.27-.98.49-2.19,1.09-4.57,1.09-.25,0-.45-.2-.45-.45s.2-.45.45-.45c2.17,0,3.23-.53,4.17-1,.2-.1.39-.2.59-.28.09-.04.19-.09.29-.14.61-.3,1.46-.71,2.24-.3.74.38,1.21,1.35,1.48,3.06.54,3.31.45,7.21.4,8.54h.76c.14-.41.17-.81.2-1.29.13-2.02.32-4.78,9.12-12.64,5.8-5.18,6.49-16.71,1.54-25.69-4.36-7.9-11.57-11.09-19.78-8.74-21.32,6.09-33.99-17.74-34.11-17.98-.11-.22-.03-.49.19-.6.22-.11.49-.03.6.19.12.23,12.46,23.42,33.07,17.53,8.65-2.47,16.24.87,20.81,9.17,5.14,9.33,4.37,21.35-1.73,26.79-8.52,7.62-8.7,10.17-8.82,12.03-.04.62-.08,1.21-.39,1.87l-.12.26Z" fill="#fff" stroke-width="0"/><polygon points="116.19 54.35 116.92 57.29 119.9 57.84 116.95 58.56 116.41 61.55 115.68 58.6 112.7 58.05 115.64 57.33 116.19 54.35" fill="#fff" stroke-width="0"/><polygon points="141.82 60.45 142.3 62.41 144.28 62.78 142.32 63.26 141.95 65.25 141.47 63.28 139.48 62.91 141.45 62.43 141.82 60.45" fill="#fff" stroke-width="0"/><path d="M136.62,42.06c0,.64-.52,1.15-1.15,1.15s-1.15-.52-1.15-1.15.52-1.15,1.15-1.15,1.15.52,1.15,1.15Z" fill="#fff" stroke-width="0"/><circle cx="108.04" cy="32.48" r="1.15" fill="#fff" stroke-width="0"/><path d="M109.86,53.46c0,.64-.52,1.15-1.15,1.15s-1.15-.52-1.15-1.15.52-1.15,1.15-1.15,1.15.52,1.15,1.15Z" fill="#fff" stroke-width="0"/><circle cx="144.72" cy="48.55" r=".68" fill="#fff" stroke-width="0"/><path d="M112.94,68.47c0,.38-.31.68-.68.68s-.68-.31-.68-.68.31-.68.68-.68.68.31.68.68Z" fill="#fff" stroke-width="0"/><path d="M146.78,59.76c0,.38-.31.68-.68.68s-.68-.31-.68-.68.31-.68.68-.68.68.31.68.68Z" fill="#fff" stroke-width="0"/><path d="M130.38,57.73c0,.38-.31.68-.68.68s-.68-.31-.68-.68.31-.68.68-.68.68.31.68.68Z" fill="#fff" stroke-width="0"/><circle cx="102.89" cy="28.71" r=".68" fill="#fff" stroke-width="0"/><path d="M80.92,149.5c-.11,0-.22-.01-.32-.04-.72-.18-1.16-.91-.98-1.63.43-1.73.93-3.78,1.47-5.98,1.96-8.02,4.41-18.01,5.56-21.75,2.07-6.68,7.07-8.56,10.06-9.68.7-.26,1.47.09,1.73.79.26.7-.09,1.47-.79,1.73-2.85,1.07-6.76,2.54-8.44,7.96-1.13,3.65-3.57,13.6-5.52,21.59-.54,2.21-1.04,4.26-1.47,5.99-.15.61-.7,1.02-1.3,1.02Z" fill="#333" stroke-width="0"/><path d="M175.01,154.15c-.58,0-1.12-.38-1.29-.98-.41-1.43-1.46-5.71-2.67-10.67-1.96-8-4.39-17.95-5.52-21.61-.22-.71.18-1.46.89-1.68.71-.22,1.46.18,1.68.89,1.16,3.74,3.6,13.73,5.57,21.76,1.2,4.93,2.24,9.18,2.64,10.56.2.71-.21,1.46-.92,1.66-.12.04-.25.05-.37.05Z" fill="#666" stroke-width="0"/><path d="M129.69,91.37h-6.95c-.25,0-.45-.2-.45-.45s.2-.45.45-.45h6.95c.98,0,1.82-.6,1.9-.81.02-.25.24-.42.48-.4.25.02.43.25.41.49-.06.79-1.49,1.62-2.79,1.62Z" stroke-width="0"/><path d="M152.86,177.55c.32-3.8,1.12-20.48,1.62-22.96-1.89,5.49-7.68,23.82-34.83,30.73,2.27.21,4.71.32,7.33.32,16.1,0,25.54-4,25.88-8.09Z" fill="#595959" stroke-width="0"/></svg>