<?xml version="1.0" encoding="UTF-8"?>
<svg id="Calque_1" data-name="Calque 1" xmlns="http://www.w3.org/2000/svg" viewBox="0 0 33 33">
  <defs>
    <style>
      .cls-1 {
        fill-rule: evenodd;
      }
    </style>
  </defs>
  <path id="Shape_1_copy" data-name="Shape 1 copy" class="cls-1" d="m16.51,30.15c1.77,0,3.2-1.43,3.2-3.2h-6.4c0,1.77,1.43,3.2,3.2,3.2Zm11.28-5.21l-1.68-2.79v-7.94c0-4.46-3.07-8.27-7.2-9.35v-.31c0-1.33-1.08-2.4-2.41-2.39-1.32,0-2.39,1.07-2.39,2.39v.3c-4.14,1.07-7.2,4.82-7.2,9.3v8l-1.68,2.79c-.23.38-.1.87.27,1.1.12.07.27.11.41.11h21.18c.44,0,.8-.36.8-.8,0-.15-.04-.29-.11-.41Z"/>
</svg>