<?xml version="1.0" encoding="UTF-8"?><svg xmlns="http://www.w3.org/2000/svg" viewBox="0 0 1692 854"><defs><style>.d{fill:#fff;}.e{fill:#ff7900;}.f{fill:#1b1b1b;}</style></defs><g id="a"/><g id="b"><g id="c"><rect class="f" width="1692" height="854"/><g><path class="d" d="M191.65,680.62c-9.73-4.8-17.53-11.36-23.42-19.68-5.88-8.32-9.32-17.78-10.32-28.37l-.14-1.49h24.03l.14,1.09c.81,6.43,3.17,12.24,7.06,17.44,3.89,5.2,8.96,9.3,15.2,12.28s13.26,4.48,21.04,4.48c8.87,0,16.7-1.9,23.48-5.7s12.08-9.07,15.88-15.81c3.8-6.74,5.7-14.5,5.7-23.28v-.27c0-8.6-1.92-16.22-5.77-22.87-3.85-6.65-9.12-11.88-15.81-15.68-6.7-3.8-14.39-5.7-23.08-5.7-6.61,0-12.74,.97-18.39,2.92-5.66,1.95-10.66,4.91-15,8.89-1.72,1.63-3.37,3.39-4.95,5.29-1.58,1.9-3.01,3.98-4.28,6.24h-21.58l10.04-111.72h112.12v21.72h-92.03l-6.65,65.83h.54c4.62-6.6,10.81-11.63,18.6-15.07,7.78-3.44,16.42-5.16,25.93-5.16,12.58,0,23.73,2.81,33.46,8.42,9.73,5.61,17.38,13.28,22.94,23.01,5.57,9.73,8.35,20.88,8.35,33.46v.27c0,13.03-2.99,24.57-8.96,34.61s-14.21,17.9-24.71,23.55c-10.5,5.65-22.53,8.48-36.11,8.48-12.49,0-23.6-2.4-33.32-7.19Z"/><path class="d" d="M351.77,680.62c-9.73-4.8-17.53-11.36-23.42-19.68-5.88-8.32-9.32-17.78-10.32-28.37l-.14-1.49h24.03l.14,1.09c.81,6.43,3.17,12.24,7.06,17.44,3.89,5.2,8.96,9.3,15.2,12.28s13.26,4.48,21.04,4.48c8.87,0,16.7-1.9,23.48-5.7s12.08-9.07,15.88-15.81c3.8-6.74,5.7-14.5,5.7-23.28v-.27c0-8.6-1.92-16.22-5.77-22.87-3.85-6.65-9.12-11.88-15.81-15.68-6.7-3.8-14.39-5.7-23.08-5.7-6.61,0-12.74,.97-18.39,2.92-5.66,1.95-10.66,4.91-15,8.89-1.72,1.63-3.37,3.39-4.95,5.29-1.58,1.9-3.01,3.98-4.28,6.24h-21.58l10.04-111.72h112.12v21.72h-92.03l-6.65,65.83h.54c4.62-6.6,10.81-11.63,18.6-15.07,7.78-3.44,16.42-5.16,25.93-5.16,12.58,0,23.73,2.81,33.46,8.42,9.73,5.61,17.38,13.28,22.94,23.01,5.57,9.73,8.35,20.88,8.35,33.46v.27c0,13.03-2.99,24.57-8.96,34.61s-14.21,17.9-24.71,23.55c-10.5,5.65-22.53,8.48-36.11,8.48-12.49,0-23.6-2.4-33.32-7.19Z"/><path class="d" d="M592.79,488.68h18.05v29.32h-6.24l-59.05,166.56h-25.66l72.89-195.88Zm-31.36,119.05h86.88l8.14,20.77h-103.16l8.14-20.77Zm43.71-89.73v-29.32h11.81l72.76,195.88h-25.66l-58.91-166.56Z"/><path class="d" d="M722.64,681.98c-7.06-3.53-12.56-8.51-16.49-14.93-3.94-6.42-5.9-13.89-5.9-22.4v-.27c0-12.03,4.48-21.65,13.44-28.85s21.54-11.24,37.74-12.15l52.26-2.99v18.33l-49.55,2.99c-9.41,.54-16.72,2.81-21.92,6.79-5.21,3.98-7.81,9.28-7.81,15.88v.27c0,6.79,2.56,12.17,7.67,16.15,5.11,3.98,11.92,5.97,20.43,5.97,7.42,0,14.09-1.56,20.02-4.68,5.93-3.12,10.63-7.4,14.12-12.83,3.48-5.43,5.23-11.54,5.23-18.33v-41.67c0-8.6-2.69-15.36-8.08-20.29-5.39-4.93-13.01-7.4-22.87-7.4-9.05,0-16.36,1.97-21.92,5.9s-9.03,9.07-10.38,15.41l-.27,1.22h-22.8l.14-1.49c.72-7.78,3.37-14.84,7.94-21.18,4.57-6.33,10.88-11.38,18.94-15.14,8.05-3.75,17.6-5.63,28.64-5.63s20.75,1.9,28.85,5.7c8.1,3.8,14.37,9.16,18.8,16.09,4.43,6.92,6.65,15.09,6.65,24.5v97.6h-23.62v-22.94h-.54c-2.71,5.16-6.34,9.66-10.86,13.51s-9.62,6.83-15.27,8.96c-5.66,2.13-11.65,3.19-17.99,3.19-9.32,0-17.51-1.76-24.57-5.29Z"/></g><g><path class="e" d="M247.69,197.36v-.8h-97.62v-31.88h137.2v32.27l-79.96,159.38h-42.1l82.48-158.98Z"/><path class="e" d="M345.51,352.22c-10.45-4.96-18.73-11.69-24.84-20.19-6.11-8.5-9.56-18.06-10.36-28.69l-.13-1.99h37.06l.27,.93c.97,4.78,3.03,9.12,6.18,13.02,3.14,3.9,7.15,6.97,12.02,9.23,4.87,2.26,10.36,3.39,16.47,3.39,6.99,0,13.17-1.48,18.53-4.45,5.36-2.97,9.54-7.06,12.55-12.29,3.01-5.22,4.52-11.24,4.52-18.06v-.27c0-6.73-1.53-12.66-4.58-17.8-3.05-5.13-7.24-9.16-12.55-12.09-5.31-2.92-11.42-4.38-18.33-4.38-4.87,0-9.39,.69-13.55,2.06-4.16,1.37-7.88,3.39-11.16,6.04-1.86,1.42-3.59,3.03-5.18,4.85-1.59,1.82-2.92,3.74-3.98,5.78h-34.93l8.77-112.63h122.32v31.88h-90.45l-4.65,54.06h.8c3.98-6.46,9.74-11.55,17.27-15.27,7.52-3.72,16.16-5.58,25.9-5.58,12.22,0,23.02,2.68,32.41,8.04,9.38,5.36,16.78,12.73,22.18,22.11,5.4,9.39,8.1,20.1,8.1,32.14v.27c0,13.37-3.12,25.1-9.36,35.2s-14.94,17.98-26.1,23.64c-11.16,5.67-24.04,8.5-38.65,8.5s-26.08-2.48-36.52-7.44Z"/><path class="e" d="M584.33,164.69h35.46v37.19h-12.22l-47.95,154.46h-42.1l66.81-191.65Zm-20.98,115.15h89.38l9.83,30.02h-109.04l9.83-30.02Zm45.02-77.96v-37.19h23.24l66.81,191.65h-42.24l-47.81-154.46Z"/><path class="e" d="M729.64,353.09c-7.22-3.67-12.84-8.77-16.87-15.27-4.03-6.51-6.04-13.92-6.04-22.25v-.27c0-12.93,4.85-23.09,14.54-30.48,9.7-7.39,23.35-11.66,40.97-12.82l55.52-3.45v24.17l-49.67,3.32c-7.44,.44-13.11,2.17-17,5.18-3.9,3.01-5.84,7.04-5.84,12.09v.27c0,5.23,1.99,9.32,5.98,12.29,3.98,2.97,9.34,4.45,16.07,4.45,5.75,0,10.91-1.13,15.47-3.39,4.56-2.26,8.15-5.36,10.76-9.3,2.61-3.94,3.92-8.34,3.92-13.22v-43.3c0-6.29-1.99-11.24-5.98-14.88-3.98-3.63-9.78-5.45-17.4-5.45s-13.02,1.48-17.27,4.45c-4.25,2.97-6.86,6.75-7.84,11.36l-.27,1.2h-35.59l.13-1.59c.8-8.77,3.74-16.56,8.83-23.38,5.09-6.82,12.17-12.15,21.25-16,9.08-3.85,19.86-5.78,32.34-5.78s22.98,1.97,32.01,5.91c9.03,3.94,16.05,9.5,21.05,16.67,5,7.17,7.5,15.54,7.5,25.1v97.62h-38.78v-21.12h-.8c-2.75,4.78-6.2,8.94-10.36,12.48-4.16,3.54-8.92,6.24-14.28,8.1-5.36,1.86-11.14,2.79-17.33,2.79-9.48,0-17.82-1.84-25.04-5.51Z"/></g></g></g></svg>