<?xml version="1.0" encoding="UTF-8"?>
<svg id="iOS_Thumbnails" data-name="iOS Thumbnails" xmlns="http://www.w3.org/2000/svg" viewBox="0 0 400 200">
  <defs>
    <style>
      .cls-1 {
        fill: #fff;
      }

      .cls-2, .cls-3 {
        fill: #ccc;
      }

      .cls-4 {
        fill: #ddd;
      }

      .cls-5 {
        fill: #1b1b1b;
      }

      .cls-6 {
        fill: none;
        stroke: #ccc;
        stroke-miterlimit: 10;
        stroke-width: 2px;
      }

      .cls-3 {
        fill-rule: evenodd;
      }
    </style>
  </defs>
  <rect class="cls-5" width="400" height="200"/>
  <g>
    <rect class="cls-1" x="209.83" y="23.34" width="140" height="153.31" rx="7.82" ry="7.82"/>
    <path class="cls-4" d="m217.65,23.34h124.37c4.31,0,7.82,3.5,7.82,7.82v73.73h-140V31.16c0-4.31,3.5-7.82,7.82-7.82Z"/>
    <path class="cls-3" d="m303.54,45.49c0-2.81-2.27-5.08-5.08-5.08h-42.34v42.34c0,2.81,2.27,5.08,5.08,5.08h42.34v-42.34Zm-44.04-1.69h38.11c1.4,0,2.54,1.14,2.54,2.54h0v26.25l-13.02-14.78c-.47-.61-1.23-.61-1.7,0l-9.68,11.25-5.35-7.5c-.47-.61-1.23-.61-1.7,0l-7.86,8.81c-.79-.6-1.33-1.26-1.35-2.62v-23.95Zm13.55,9.18c.08,2.34-1.76,4.29-4.09,4.37-2.34.08-4.29-1.76-4.37-4.09-.08-2.34,1.76-4.29,4.09-4.37.09,0,.18,0,.28,0,2.23.07,4.02,1.86,4.09,4.09Z"/>
    <rect class="cls-6" x="216.46" y="143.66" width="48.14" height="24.07" rx="3.73" ry="3.73"/>
    <rect class="cls-2" x="215.6" y="112" width="28" height="9"/>
    <rect class="cls-2" x="215.6" y="127" width="34" height="5"/>
    <rect class="cls-2" x="223.53" y="153.19" width="34" height="5"/>
  </g>
  <g>
    <rect class="cls-1" x="50.17" y="23.34" width="140" height="105.66" rx="7.66" ry="7.66"/>
    <path class="cls-4" d="m57.82,23.34h124.69c4.22,0,7.66,3.43,7.66,7.66v73.9H50.17V31c0-4.22,3.43-7.66,7.66-7.66Z"/>
    <path class="cls-3" d="m143.88,45.49c0-2.81-2.27-5.08-5.08-5.08h-42.34v42.34c0,2.81,2.27,5.08,5.08,5.08h42.34v-42.34Zm-44.04-1.69h38.11c1.4,0,2.54,1.14,2.54,2.54h0v26.25l-13.02-14.78c-.47-.61-1.23-.61-1.7,0l-9.68,11.25-5.35-7.5c-.47-.61-1.23-.61-1.7,0l-7.86,8.81c-.79-.6-1.33-1.26-1.35-2.62v-23.95Zm13.55,9.18c.08,2.34-1.76,4.29-4.09,4.37-2.34.08-4.29-1.76-4.37-4.09-.08-2.34,1.76-4.29,4.09-4.37.09,0,.18,0,.28,0,2.23.07,4.02,1.86,4.09,4.09Z"/>
    <rect class="cls-2" x="56" y="112" width="28" height="9" transform="translate(140 233) rotate(180)"/>
  </g>
</svg>