<?xml version="1.0" encoding="UTF-8"?>
<svg id="iOS_Thumbnails" data-name="iOS Thumbnails" xmlns="http://www.w3.org/2000/svg" viewBox="0 0 400 200">
  <defs>
    <style>
      .cls-1, .cls-2 {
        stroke-linecap: round;
        stroke-linejoin: round;
      }

      .cls-1, .cls-2, .cls-3 {
        fill: none;
      }

      .cls-1, .cls-3 {
        stroke: #3e3e3e;
      }

      .cls-4 {
        letter-spacing: .05em;
      }

      .cls-5 {
        letter-spacing: .03em;
      }

      .cls-6 {
        fill: #333;
      }

      .cls-7 {
        fill: #1b1b1b;
      }

      .cls-2 {
        stroke: #999;
        stroke-width: 2px;
      }

      .cls-8 {
        fill: #fff;
        font-family: SFPro-Regular, 'SF Pro';
        font-size: 19.2px;
        font-variation-settings: 'wdth' 100, 'opsz' 28, 'wght' 400;
      }

      .cls-3 {
        stroke-miterlimit: 10;
      }
    </style>
  </defs>
  <rect id="Overlay" class="cls-7" width="400" height="200"/>
  <rect class="cls-6" x="16" y="27.6" width="368" height="172"/>
  <g>
    <g>
      <text class="cls-8" transform="translate(33.37 57.7)"><tspan class="cls-5" x="0" y="0">T</tspan><tspan class="cls-4" x="11.65" y="0">itle</tspan></text>
      <polyline class="cls-2" points="360.15 56.51 364.88 51.79 360.09 46.99"/>
      <line class="cls-1" x1="24" y1="72.71" x2="376" y2="72.71"/>
    </g>
    <g>
      <text class="cls-8" transform="translate(33.37 100.13)"><tspan class="cls-5" x="0" y="0">T</tspan><tspan class="cls-4" x="11.65" y="0">itle</tspan></text>
      <polyline class="cls-2" points="360.15 98.94 364.88 94.22 360.09 89.42"/>
      <line class="cls-1" x1="24" y1="115.14" x2="376" y2="115.14"/>
    </g>
    <g>
      <text class="cls-8" transform="translate(33.37 142.56)"><tspan class="cls-5" x="0" y="0">T</tspan><tspan class="cls-4" x="11.65" y="0">itle</tspan></text>
      <polyline class="cls-2" points="360.15 141.37 364.88 136.64 360.09 131.85"/>
      <line class="cls-1" x1="24" y1="157.57" x2="376" y2="157.57"/>
    </g>
    <g>
      <text class="cls-8" transform="translate(33.37 184.99)"><tspan class="cls-5" x="0" y="0">T</tspan><tspan class="cls-4" x="11.65" y="0">itle</tspan></text>
      <polyline class="cls-2" points="360.15 183.8 364.88 179.07 360.09 174.28"/>
      <line class="cls-3" x1="24" y1="200" x2="376" y2="200"/>
    </g>
  </g>
</svg>