<?xml version="1.0" encoding="UTF-8"?><svg xmlns="http://www.w3.org/2000/svg" viewBox="0 0 1692 854"><defs><style>.i{fill:#0a84ff;}.j{fill:#1b1b1b;}.k{fill:#2c2c2e;}.l{isolation:isolate;}.m{fill:#252525;opacity:.78;}</style></defs><g id="a"/><g id="b"><g id="c"><rect id="d" class="j" width="1692" height="854"/><g><rect id="e" class="m" x="125.01" y="186" width="1441.98" height="224.93" rx="56.23" ry="56.23"/><rect id="f" class="k" x="125.01" y="443.07" width="1441.98" height="224.93" rx="56.23" ry="56.23"/><g id="g" transform="translate(0 16)"><g class="l"><path class="i" d="M740.09,580.98c-3.88-2.41-6.88-5.8-9-10.18-2.12-4.38-3.18-9.54-3.18-15.47v-.04c0-5.94,1.06-11.09,3.18-15.45,2.12-4.37,5.11-7.75,8.98-10.14,3.87-2.39,8.43-3.59,13.69-3.59,3.92,0,7.49,.75,10.71,2.24,3.22,1.49,5.9,3.57,8.06,6.24,2.16,2.67,3.59,5.79,4.29,9.37l.08,.39h-7.14l-.28-.86c-.73-2.3-1.82-4.26-3.27-5.86-1.45-1.61-3.22-2.84-5.32-3.71-2.09-.86-4.47-1.29-7.14-1.29-3.77,0-7.04,.94-9.83,2.8-2.79,1.87-4.94,4.5-6.47,7.88-1.53,3.39-2.29,7.38-2.29,11.98v.04c0,4.58,.76,8.57,2.29,11.98,1.53,3.41,3.69,6.06,6.49,7.94,2.8,1.88,6.07,2.82,9.81,2.82,2.64,0,5-.43,7.08-1.29,2.08-.86,3.86-2.14,5.35-3.82,1.49-1.69,2.64-3.77,3.45-6.26l.12-.35h7.14l-.08,.39c-.71,3.61-2.13,6.75-4.28,9.43-2.14,2.68-4.83,4.75-8.04,6.22-3.22,1.46-6.8,2.2-10.75,2.2-5.23,0-9.79-1.2-13.67-3.61Z"/><path class="i" d="M789.78,582.91c-2.04-1.02-3.63-2.46-4.77-4.31-1.14-1.86-1.71-4.01-1.71-6.47v-.08c0-3.48,1.29-6.26,3.88-8.34,2.59-2.08,6.22-3.25,10.9-3.51l15.1-.86v5.3l-14.32,.86c-2.72,.16-4.83,.81-6.33,1.96-1.5,1.15-2.26,2.68-2.26,4.59v.08c0,1.96,.74,3.52,2.22,4.67,1.48,1.15,3.45,1.73,5.9,1.73,2.14,0,4.07-.45,5.79-1.35,1.71-.9,3.07-2.14,4.08-3.71,1.01-1.57,1.51-3.33,1.51-5.3v-12.04c0-2.48-.78-4.44-2.33-5.86-1.56-1.42-3.76-2.14-6.61-2.14-2.62,0-4.73,.57-6.34,1.71-1.61,1.14-2.61,2.62-3,4.45l-.08,.35h-6.59l.04-.43c.21-2.25,.97-4.29,2.29-6.12,1.32-1.83,3.14-3.29,5.47-4.37,2.33-1.08,5.09-1.63,8.28-1.63s5.99,.55,8.33,1.65c2.34,1.1,4.15,2.65,5.43,4.65s1.92,4.36,1.92,7.08v28.2h-6.82v-6.63h-.16c-.78,1.49-1.83,2.79-3.14,3.9-1.31,1.11-2.78,1.97-4.41,2.59-1.63,.61-3.37,.92-5.2,.92-2.69,0-5.06-.51-7.1-1.53Z"/><path class="i" d="M826.09,542.86h6.82v5.81h.16c1.1-1.91,2.69-3.48,4.79-4.73,2.09-1.24,4.68-1.86,7.77-1.86,4.47,0,7.94,1.35,10.41,4.06,2.47,2.71,3.71,6.39,3.71,11.04v26.48h-6.82v-25.26c0-3.32-.78-5.86-2.33-7.63-1.56-1.77-3.9-2.65-7.04-2.65-2.14,0-4.02,.48-5.61,1.43-1.6,.96-2.83,2.29-3.71,4.02-.88,1.73-1.31,3.75-1.31,6.08v24.01h-6.82v-40.79Z"/><path class="i" d="M876.1,581.83c-2.84-1.74-5.03-4.2-6.57-7.37s-2.31-6.92-2.31-11.24v-.04c0-4.29,.79-8.01,2.35-11.18,1.57-3.16,3.77-5.61,6.59-7.34,2.82-1.73,6.12-2.59,9.88-2.59,3.4,0,6.32,.66,8.75,1.98,2.43,1.32,4.35,3.03,5.75,5.12,1.4,2.09,2.24,4.3,2.53,6.63l.04,.31h-6.67l-.08-.31c-.5-2.04-1.59-3.83-3.28-5.37-1.69-1.54-4.03-2.31-7.04-2.31-2.35,0-4.42,.62-6.2,1.86-1.78,1.24-3.16,2.99-4.16,5.26-.99,2.26-1.49,4.94-1.49,8.02v.04c0,3.16,.5,5.87,1.51,8.12,1.01,2.25,2.41,3.98,4.2,5.18,1.79,1.2,3.86,1.8,6.22,1.8,2.8,0,5.07-.71,6.81-2.14,1.74-1.42,2.9-3.28,3.47-5.55l.08-.31h6.71l-.04,.27c-.37,2.59-1.31,4.92-2.84,7-1.53,2.08-3.5,3.73-5.92,4.94-2.42,1.22-5.17,1.82-8.26,1.82-3.84,0-7.19-.87-10.02-2.61Z"/><path class="i" d="M916.99,581.85c-2.81-1.73-4.97-4.16-6.47-7.32-1.5-3.15-2.26-6.86-2.26-11.12v-.04c0-4.21,.76-7.92,2.28-11.12,1.52-3.2,3.65-5.7,6.39-7.49,2.75-1.79,5.98-2.69,9.69-2.69s6.91,.86,9.59,2.57c2.68,1.71,4.74,4.11,6.18,7.2,1.44,3.09,2.16,6.67,2.16,10.75v2.51h-32.87v-5.33h29.5l-3.45,4.94v-2.63c0-3.16-.48-5.78-1.43-7.84-.95-2.07-2.27-3.6-3.94-4.61-1.67-1.01-3.6-1.51-5.77-1.51s-4.12,.53-5.84,1.59c-1.73,1.06-3.09,2.63-4.08,4.71-.99,2.08-1.49,4.64-1.49,7.67v2.63c0,2.88,.49,5.33,1.47,7.37,.98,2.04,2.37,3.6,4.18,4.69,1.8,1.09,3.94,1.63,6.39,1.63,1.73,0,3.27-.26,4.63-.78,1.36-.52,2.5-1.24,3.41-2.16,.92-.92,1.57-1.96,1.96-3.14l.12-.35h6.71l-.08,.39c-.34,1.67-.99,3.24-1.94,4.71-.96,1.46-2.18,2.75-3.67,3.86-1.49,1.11-3.19,1.97-5.1,2.59-1.91,.61-3.98,.92-6.2,.92-3.9,0-7.25-.86-10.06-2.59Z"/><path class="i" d="M952.56,527.05h6.83v56.6h-6.83v-56.6Z"/></g></g><g id="h" class="l" transform="translate(0 16)"><g class="l"><path class="i" d="M745.5,269.98h10.47v10.98h-3.61l-14.16,45.62h-12.43l19.73-56.6Zm-6.2,34.01h26.4l2.9,8.86h-32.2l2.9-8.86Zm13.3-23.03v-10.98h6.86l19.73,56.6h-12.47l-14.12-45.62Z"/><path class="i" d="M791.42,324.78c-3.11-1.78-5.51-4.31-7.2-7.59-1.69-3.28-2.53-7.17-2.53-11.67v-.04c0-4.5,.85-8.37,2.55-11.63,1.7-3.26,4.1-5.77,7.2-7.53,3.1-1.77,6.74-2.65,10.92-2.65,3.82,0,7.13,.71,9.92,2.14,2.8,1.43,4.99,3.35,6.57,5.79,1.58,2.43,2.45,5.17,2.61,8.2v.27h-10.67l-.04-.35c-.34-1.99-1.2-3.66-2.59-5.02-1.39-1.36-3.27-2.04-5.65-2.04-1.86,0-3.47,.52-4.84,1.55-1.37,1.03-2.43,2.51-3.18,4.43s-1.12,4.22-1.12,6.88v.04c0,2.75,.37,5.08,1.12,7,.75,1.92,1.8,3.39,3.18,4.39,1.37,1.01,3,1.51,4.88,1.51,2.3,0,4.15-.65,5.55-1.94,1.4-1.29,2.28-3,2.65-5.12l.08-.35h10.67v.24c-.18,3.06-1.07,5.81-2.67,8.24-1.59,2.43-3.79,4.36-6.57,5.79-2.78,1.43-6.05,2.14-9.79,2.14-4.26,0-7.95-.89-11.06-2.67Z"/><path class="i" d="M834.19,324.51c-2.25-1.96-3.37-5.19-3.37-9.69v-21.65h-5.84v-8.63h5.84v-10.28h11.57v10.28h7.69v8.63h-7.69v20.4c0,1.96,.44,3.33,1.31,4.1,.88,.77,2.18,1.16,3.9,1.16,.52,0,.98-.02,1.37-.06,.39-.04,.76-.08,1.1-.14v8.39c-.63,.1-1.41,.2-2.33,.29-.93,.09-1.99,.14-3.2,.14-4.66,0-8.11-.98-10.36-2.94Z"/><path class="i" d="M858.78,277.38c-1.19-1.19-1.79-2.59-1.79-4.22s.59-3.05,1.79-4.22c1.19-1.16,2.65-1.75,4.37-1.75s3.18,.58,4.35,1.75c1.18,1.16,1.76,2.57,1.76,4.22s-.59,3.03-1.76,4.22c-1.18,1.19-2.63,1.78-4.35,1.78s-3.18-.59-4.37-1.78Zm-1.39,7.16h11.49v42.05h-11.49v-42.05Z"/><path class="i" d="M885.57,324.84c-3.11-1.74-5.52-4.25-7.24-7.53-1.71-3.28-2.57-7.2-2.57-11.75v-.08c0-4.52,.87-8.41,2.61-11.67s4.16-5.76,7.28-7.51c3.11-1.75,6.76-2.63,10.94-2.63s7.88,.87,11,2.61c3.12,1.74,5.55,4.24,7.28,7.49,1.73,3.26,2.59,7.16,2.59,11.71v.08c0,4.58-.86,8.5-2.57,11.77-1.71,3.27-4.12,5.77-7.24,7.51-3.11,1.74-6.79,2.61-11.02,2.61s-7.95-.87-11.06-2.61Zm15.93-7.88c1.36-1.01,2.41-2.47,3.16-4.39,.75-1.92,1.12-4.26,1.12-7v-.08c0-2.69-.38-5-1.14-6.92-.76-1.92-1.82-3.39-3.2-4.39-1.37-1.01-2.99-1.51-4.84-1.51s-3.43,.51-4.81,1.53c-1.37,1.02-2.44,2.48-3.2,4.39-.76,1.91-1.14,4.21-1.14,6.9v.08c0,2.75,.37,5.08,1.12,7,.75,1.92,1.81,3.39,3.2,4.39,1.39,1.01,3.02,1.51,4.9,1.51s3.46-.5,4.83-1.51Z"/><path class="i" d="M924.15,284.53h11.45v6.9h.24c1.1-2.41,2.72-4.3,4.86-5.69,2.14-1.39,4.8-2.08,7.96-2.08,4.63,0,8.2,1.39,10.73,4.18,2.52,2.78,3.79,6.65,3.79,11.59v27.14h-11.45v-24.75c0-2.75-.65-4.88-1.94-6.39-1.29-1.52-3.22-2.28-5.79-2.28-1.7,0-3.18,.39-4.43,1.18-1.25,.78-2.23,1.87-2.92,3.26-.69,1.39-1.04,2.99-1.04,4.82v24.16h-11.45v-42.05Z"/></g></g></g></g></g></svg>