<?xml version="1.0" encoding="UTF-8"?>
<svg id="Calque_1" data-name="Calque 1" xmlns="http://www.w3.org/2000/svg" viewBox="0 0 33 33">
  <defs>
    <style>
      .cls-1 {
        fill-rule: evenodd;
      }
    </style>
  </defs>
  <path class="cls-1" d="m26.98,16.48c0-3.54,3.86-.86,2.06-5.2-1.8-4.34-2.64.28-5.14-2.22s2.12-3.34-2.22-5.14c-4.34-1.8-1.66,2.06-5.2,2.06s-.86-3.86-5.2-2.06c-4.34,1.8.28,2.64-2.22,5.14-2.5,2.5-3.34-2.12-5.14,2.22-1.8,4.34,2.06,1.66,2.06,5.2s-3.86.86-2.06,5.2c1.8,4.34,2.64-.28,5.14,2.22,2.5,2.5-2.12,3.34,2.22,5.14,4.34,1.8,1.66-2.06,5.2-2.06s.86,3.86,5.2,2.06c4.34-1.8-.28-2.64,2.22-5.14,2.5-2.5,3.34,2.12,5.14-2.22,1.8-4.34-2.06-1.66-2.06-5.2Zm-10.48-6.38c3.53,0,6.4,2.87,6.4,6.4s-2.87,6.4-6.4,6.4-6.4-2.87-6.4-6.4,2.87-6.4,6.4-6.4Z"/>
</svg>