<?xml version="1.0" encoding="UTF-8"?><svg xmlns="http://www.w3.org/2000/svg" viewBox="0 0 1692 852"><defs><style>.d{fill:#ff7900;}.e{fill:#1b1b1b;}.f{isolation:isolate;}</style></defs><g id="a"/><g id="b"><g id="c"><rect class="e" y="0" width="1692" height="852"/><rect class="d" x="244" y="338.61" width="1204" height="174.77" rx="30.43" ry="30.43"/><g class="f"><path d="M716.49,395.03h13.19v63.04h-13.19v-63.04Zm6.6,53.21h17.96c3.76,0,6.64-.76,8.65-2.29s3.01-3.75,3.01-6.66v-.09c0-1.92-.46-3.55-1.38-4.87-.92-1.33-2.29-2.32-4.11-2.99-1.82-.67-4.07-1-6.75-1h-17.39v-8.96h15.82c3.73,0,6.56-.74,8.5-2.23,1.94-1.49,2.9-3.6,2.9-6.33v-.09c0-2.5-.86-4.44-2.58-5.81-1.72-1.37-4.12-2.05-7.21-2.05h-17.43v-9.83h20.84c3.99,0,7.43,.64,10.31,1.92,2.88,1.28,5.11,3.11,6.69,5.48,1.57,2.37,2.36,5.18,2.36,8.41v.09c0,2.33-.53,4.48-1.59,6.44s-2.51,3.6-4.35,4.89c-1.83,1.3-3.92,2.1-6.25,2.42v.26c2.94,.17,5.55,.94,7.82,2.29,2.27,1.35,4.05,3.13,5.35,5.33,1.29,2.2,1.94,4.68,1.94,7.45v.09c0,3.67-.88,6.84-2.64,9.52-1.76,2.68-4.27,4.75-7.51,6.23-3.25,1.47-7.13,2.21-11.64,2.21h-21.32v-9.83Z"/><path d="M780.69,456.92c-2.42-1.41-4.25-3.43-5.5-6.05-1.25-2.62-1.88-5.75-1.88-9.39v-30.23h12.76v27.57c0,3.06,.72,5.43,2.16,7.12,1.44,1.69,3.59,2.53,6.44,2.53,1.92,0,3.57-.44,4.96-1.31,1.38-.87,2.46-2.09,3.23-3.65,.77-1.56,1.16-3.34,1.16-5.35v-26.91h12.76v46.83h-12.76v-7.73h-.31c-1.19,2.71-2.99,4.83-5.37,6.38-2.39,1.54-5.36,2.32-8.91,2.32s-6.32-.71-8.74-2.12Z"/><path d="M833.05,455.76c-2.5-2.18-3.76-5.78-3.76-10.79v-24.12h-6.51v-9.61h6.51v-11.45h12.89v11.45h8.56v9.61h-8.56v22.72c0,2.18,.49,3.71,1.46,4.57,.98,.86,2.42,1.29,4.35,1.29,.58,0,1.09-.02,1.53-.07,.44-.04,.84-.09,1.22-.15v9.35c-.7,.12-1.57,.23-2.6,.33s-2.22,.15-3.56,.15c-5.18,0-9.03-1.09-11.53-3.28Z"/><path d="M865.75,455.76c-2.5-2.18-3.76-5.78-3.76-10.79v-24.12h-6.51v-9.61h6.51v-11.45h12.89v11.45h8.56v9.61h-8.56v22.72c0,2.18,.49,3.71,1.46,4.57,.97,.86,2.42,1.29,4.35,1.29,.58,0,1.09-.02,1.53-.07,.44-.04,.85-.09,1.22-.15v9.35c-.7,.12-1.57,.23-2.6,.33-1.04,.1-2.22,.15-3.56,.15-5.19,0-9.03-1.09-11.53-3.28Z"/><path d="M899.89,456.13c-3.47-1.94-6.15-4.73-8.06-8.39-1.91-3.65-2.86-8.02-2.86-13.08v-.09c0-5.04,.97-9.37,2.91-13,1.94-3.63,4.64-6.42,8.1-8.37,3.46-1.95,7.53-2.93,12.19-2.93s8.77,.97,12.25,2.91,6.18,4.72,8.1,8.34c1.92,3.63,2.88,7.97,2.88,13.04v.09c0,5.1-.96,9.47-2.86,13.11-1.91,3.64-4.59,6.43-8.06,8.37-3.47,1.94-7.56,2.91-12.28,2.91s-8.85-.97-12.32-2.91Zm17.74-8.78c1.51-1.12,2.69-2.75,3.52-4.89s1.25-4.74,1.25-7.8v-.09c0-3-.42-5.57-1.27-7.71s-2.03-3.77-3.56-4.89c-1.53-1.12-3.33-1.68-5.39-1.68s-3.82,.57-5.35,1.7c-1.53,1.14-2.72,2.77-3.56,4.89s-1.27,4.69-1.27,7.69v.09c0,3.06,.41,5.66,1.24,7.8s2.02,3.77,3.56,4.89c1.54,1.12,3.37,1.68,5.46,1.68s3.86-.56,5.37-1.68Z"/><path d="M942.86,411.24h12.76v7.69h.26c1.22-2.68,3.03-4.79,5.42-6.33,2.39-1.54,5.34-2.32,8.87-2.32,5.16,0,9.14,1.55,11.95,4.65,2.81,3.1,4.22,7.41,4.22,12.91v30.23h-12.76v-27.57c0-3.06-.72-5.43-2.16-7.12-1.44-1.69-3.59-2.53-6.44-2.53-1.89,0-3.54,.44-4.94,1.31-1.4,.87-2.48,2.08-3.26,3.63-.77,1.54-1.16,3.34-1.16,5.37v26.91h-12.76v-46.83Z"/></g></g></g></svg>