<?xml version="1.0" encoding="UTF-8"?><svg id="BOY" xmlns="http://www.w3.org/2000/svg" xmlns:xlink="http://www.w3.org/1999/xlink" viewBox="0 0 400 200"><defs><clipPath id="clippath"><path d="M125,200V46.18c0-6.73,5.47-12.18,12.22-12.18h17.75c1.46,0,2.65,1.18,2.65,2.64h0c0,4.81,3.91,8.7,8.73,8.7h67.32c4.78,0,8.68-3.84,8.73-8.61v-.09c0-1.46,1.19-2.64,2.65-2.64h17.75c6.75,0,12.22,5.46,12.22,12.18v153.82H125Z" fill="none" stroke-width="0"/></clipPath><clipPath id="clippath-1"><rect x="125" y="87.79" width="150" height="100" fill="none" stroke-width="0"/></clipPath></defs><g id="Overlay"><rect width="400" height="200" fill="#1b1b1b" stroke-width="0"/></g><path d="M117,200V42c0-9.94,8.06-18,18-18h130c9.94,0,18,8.06,18,18v158H117Z" fill="#666" stroke-width="0"/><rect x="180.55" y="34.98" width="24.86" height="3.01" rx="1.51" ry="1.51" fill="#1b1b1b" stroke-width="0"/><circle cx="215.44" cy="36.49" r="4.01" fill="#1b1b1b" stroke-width="0"/><g clip-path="url(#clippath)"><rect x="125" y="33" width="150" height="167" fill="#1b1b1b" stroke-width="0"/><rect x="134" y="52" width="25" height="4" fill="#666" stroke-width="0"/><rect x="134" y="62" width="42" height="8" fill="#fff" stroke-width="0"/><rect x="125" y="87.79" width="150" height="100" fill="#939393" stroke-width="0"/><g clip-path="url(#clippath-1)"><rect x="200.09" y="113.38" width="30.85" height="41.14" fill="#b7b7b7" stroke-width="0"/><path d="M219.37,125.17s-.03,0-.05,0h-7.62s-.03,0-.05,0c-2.97.59-5.46,1.85-7,3.49,1.68,1.79,4.49,3.12,7.83,3.63,0,0,0,0,0,0h6.05s0,0,0,0c3.34-.51,6.15-1.85,7.83-3.63-1.54-1.64-4.03-2.9-7-3.49Z" fill="#898989" stroke-width="0"/><path d="M219.37,125.17s0,0,0,0h-.05s.03,0,.05,0Z" fill="#595959" stroke-width="0"/><path d="M211.66,125.16s0,0,0,0c.02,0,.03,0,.05,0h-.05Z" fill="#595959" stroke-width="0"/><path d="M215.51,121.31c-2.13,0-3.86,1.73-3.86,3.86h7.71c0-2.13-1.73-3.86-3.86-3.86Z" fill="#595959" stroke-width="0"/><path d="M212.79,124.52s-.07,0-.11-.02c-.17-.06-.25-.24-.2-.41.45-1.28,1.67-2.14,3.03-2.14.18,0,.32.14.32.32s-.14.32-.32.32c-1.09,0-2.06.69-2.42,1.71-.05.13-.17.21-.3.21Z" fill="#d6d6d6" stroke-width="0"/><path d="M226.37,128.98h-21.71c-.18,0-.32-.14-.32-.32s.14-.32.32-.32h21.71c.18,0,.32.14.32.32s-.14.32-.32.32Z" fill="#595959" stroke-width="0"/><polygon points="218.54 132.29 218.54 132.29 218.54 132.29 218.54 132.29" fill="#b7b7b7" stroke-width="0"/><polygon points="212.49 132.29 212.49 132.29 212.49 132.29 212.49 132.29" fill="#b7b7b7" stroke-width="0"/><polygon points="218.54 132.29 218.54 132.29 212.49 132.29 212.49 132.29 208.76 154.52 222.26 154.52 218.54 132.29" fill="#d6d6d6" stroke-width="0"/><path d="M217.68,129.65c0,.13-.11.24-.24.24s-.24-.11-.24-.24.11-.24.24-.24.24.11.24.24Z" fill="#595959" stroke-width="0"/><path d="M215.75,129.65c0,.13-.11.24-.24.24s-.24-.11-.24-.24.11-.24.24-.24.24.11.24.24Z" fill="#595959" stroke-width="0"/><path d="M213.83,129.65c0,.13-.11.24-.24.24s-.24-.11-.24-.24.11-.24.24-.24.24.11.24.24Z" fill="#595959" stroke-width="0"/><path d="M211.9,129.65c0,.13-.11.24-.24.24s-.24-.11-.24-.24.11-.24.24-.24.24.11.24.24Z" fill="#595959" stroke-width="0"/><path d="M209.97,129.65c0,.13-.11.24-.24.24s-.24-.11-.24-.24.11-.24.24-.24.24.11.24.24Z" fill="#595959" stroke-width="0"/><path d="M208.04,129.65c0,.13-.11.24-.24.24s-.24-.11-.24-.24.11-.24.24-.24.24.11.24.24Z" fill="#595959" stroke-width="0"/><path d="M223.47,129.65c0,.13-.11.24-.24.24s-.24-.11-.24-.24.11-.24.24-.24.24.11.24.24Z" fill="#595959" stroke-width="0"/><path d="M221.54,129.65c0,.13-.11.24-.24.24s-.24-.11-.24-.24.11-.24.24-.24.24.11.24.24Z" fill="#595959" stroke-width="0"/><path d="M219.61,129.65c0,.13-.11.24-.24.24s-.24-.11-.24-.24.11-.24.24-.24.24.11.24.24Z" fill="#595959" stroke-width="0"/><rect x="205.07" y="157.1" width="20.57" height="30.85" rx="1.29" ry="1.29" fill="#595959" stroke-width="0"/><path d="M221.78,179.27c0,3.55-2.88,6.43-6.43,6.43s-6.43-2.88-6.43-6.43,2.88-6.43,6.43-6.43,6.43,2.88,6.43,6.43Z" fill="#9a9a9a" stroke-width="0"/><path d="M221.78,178.63c0,3.55-2.88,6.43-6.43,6.43s-6.43-2.88-6.43-6.43,2.88-6.43,6.43-6.43,6.43,2.88,6.43,6.43Z" fill="#4f4f4f" stroke-width="0"/><path d="M222.75,178.95c0,4.08-3.31,7.39-7.39,7.39s-7.39-3.31-7.39-7.39,3.31-7.39,7.39-7.39,7.39,3.31,7.39,7.39Z" fill="#8f8f8f" stroke-width="0"/><path d="M221.78,178.95c0,3.55-2.88,6.43-6.43,6.43s-6.43-2.88-6.43-6.43,2.88-6.43,6.43-6.43,6.43,2.88,6.43,6.43Z" fill="#fff" stroke-width="0"/><circle cx="215.35" cy="178.95" r="3.86" fill="#d6d6d6" stroke-width="0"/><path d="M220.5,164.49c0,2.84-2.3,5.14-5.14,5.14s-5.14-2.3-5.14-5.14,2.3-5.14,5.14-5.14,5.14,2.3,5.14,5.14Z" fill="#8f8f8f" stroke-width="0"/><path d="M219.85,164.49c0,2.49-2.01,4.5-4.5,4.5s-4.5-2.01-4.5-4.5,2.01-4.5,4.5-4.5,4.5,2.01,4.5,4.5Z" fill="#fff" stroke-width="0"/><path d="M217.92,164.49c0,1.42-1.15,2.57-2.57,2.57s-2.57-1.15-2.57-2.57,1.15-2.57,2.57-2.57,2.57,1.15,2.57,2.57Z" fill="#d6d6d6" stroke-width="0"/><path d="M216.32,164.49c0,.53-.43.96-.96.96s-.96-.43-.96-.96.43-.96.96-.96.96.43.96.96Z" fill="#595959" stroke-width="0"/><circle cx="215.35" cy="178.95" r="1.93" fill="#595959" stroke-width="0"/><path d="M215.67,177.99c0,.18-.14.32-.32.32s-.32-.14-.32-.32.14-.32.32-.32.32.14.32.32Z" fill="#d6d6d6" stroke-width="0"/><path d="M215.51,164.17c0,.09-.07.16-.16.16s-.16-.07-.16-.16.07-.16.16-.16.16.07.16.16Z" fill="#d6d6d6" stroke-width="0"/><path d="M234.78,178.38c-.36,0-.64-.29-.64-.64,0-9.72-2.04-18.1-6.07-24.93-2.93-4.97-6.85-9.03-11.63-12.07-.3-.19-.39-.59-.2-.89.19-.3.59-.39.89-.2,4.96,3.15,9.01,7.36,12.05,12.51,4.15,7.03,6.25,15.64,6.25,25.58,0,.35-.29.64-.64.64Z" fill="#979797" stroke-width="0"/><path d="M225.84,160.96c2.45,1.35,5.74.23,6.36-.9l-11.26-6.2c.31,3.1,2.08,5.55,4.9,7.1Z" fill="#d9d9d9" stroke-width="0"/><path d="M229.56,154.2c2.45,1.35,3.27,4.73,2.65,5.86l-11.26-6.2c2.79-1.4,5.8-1.21,8.62.34Z" fill="#979797" stroke-width="0"/><path d="M235.2,163.66c-1.98,1.98-1.82,5.45-.91,6.36l9.09-9.09c-3.07-.57-5.91.45-8.18,2.73Z" fill="#d9d9d9" stroke-width="0"/><path d="M240.66,169.12c-1.98,1.98-5.45,1.82-6.36.91l9.09-9.09c.57,3.07-.45,5.91-2.73,8.18Z" fill="#979797" stroke-width="0"/><path d="M215.54,144.21c2.01.61,4.25-.72,4.53-1.64l-9.22-2.82c.7,2.23,2.38,3.75,4.69,4.46Z" fill="#d9d9d9" stroke-width="0"/><path d="M217.23,138.68c2.01.61,3.12,2.97,2.84,3.89l-9.22-2.82c1.83-1.46,4.07-1.78,6.38-1.07Z" fill="#979797" stroke-width="0"/><path d="M229.52,156.1c-.08,2.1,1.78,3.93,2.74,3.96l.37-9.64c-1.98,1.25-3.02,3.26-3.11,5.67Z" fill="#d9d9d9" stroke-width="0"/><path d="M235.3,156.32c-.08,2.1-2.07,3.78-3.04,3.74l.37-9.64c1.88,1.4,2.76,3.48,2.67,5.89Z" fill="#979797" stroke-width="0"/><path d="M229.9,168.06c1.02,1.84,3.56,2.44,4.4,1.97l-4.67-8.43c-1.04,2.09-.89,4.35.28,6.46Z" fill="#d9d9d9" stroke-width="0"/><path d="M234.95,165.25c1.02,1.84.18,4.31-.66,4.78l-4.67-8.43c2.33.22,4.17,1.55,5.33,3.66Z" fill="#979797" stroke-width="0"/><path d="M231.64,171.94c1.4.02,2.59-1.24,2.6-1.88l-6.43-.11c.86,1.3,2.22,1.97,3.82,2Z" fill="#d9d9d9" stroke-width="0"/><path d="M231.71,168.08c1.4.02,2.55,1.33,2.54,1.97l-6.43-.11c.91-1.27,2.28-1.89,3.89-1.86Z" fill="#979797" stroke-width="0"/><path d="M227.13,145.62c-1.09,1.37-.75,3.52-.12,4.02l5.01-6.28c-1.95-.14-3.64.7-4.89,2.27Z" fill="#d9d9d9" stroke-width="0"/><path d="M230.9,148.63c-1.09,1.37-3.26,1.51-3.89,1.01l5.01-6.28c.57,1.87.13,3.7-1.12,5.27Z" fill="#979797" stroke-width="0"/><path d="M222.79,147.31c.83,1.93,3.3,2.78,4.18,2.4l-3.81-8.86c-1.25,1.98-1.32,4.24-.37,6.46Z" fill="#d9d9d9" stroke-width="0"/><path d="M228.1,145.02c.83,1.93-.25,4.31-1.13,4.69l-3.81-8.86c2.3.46,3.99,1.96,4.94,4.17Z" fill="#979797" stroke-width="0"/><path d="M224.14,151.34c1.39.16,2.7-.98,2.78-1.61l-6.38-.75c.73,1.38,2.01,2.18,3.6,2.37Z" fill="#d9d9d9" stroke-width="0"/><path d="M224.59,147.51c1.39.16,2.4,1.58,2.33,2.22l-6.38-.75c1.03-1.17,2.46-1.65,4.06-1.46Z" fill="#979797" stroke-width="0"/><path d="M233.64,157.16c-1.24.65-1.67,2.34-1.37,2.91l5.69-3c-1.38-.72-2.89-.66-4.31.09Z" fill="#d9d9d9" stroke-width="0"/><path d="M235.44,160.57c-1.24.65-2.87.06-3.17-.51l5.69-3c-.18,1.55-1.09,2.76-2.51,3.51Z" fill="#979797" stroke-width="0"/><path d="M218.19,140.06c0,1.4,1.29,2.57,1.93,2.57v-6.43c-1.29.88-1.93,2.25-1.93,3.86Z" fill="#d9d9d9" stroke-width="0"/><path d="M222.05,140.06c0,1.4-1.29,2.57-1.93,2.57v-6.43c1.29.88,1.93,2.25,1.93,3.86Z" fill="#979797" stroke-width="0"/><rect x="228.56" y="176.08" width="12.16" height="4.56" fill="#b7b7b7" stroke-width="0"/><polygon points="229.32 180.64 239.96 180.64 239.2 188.25 230.08 188.25 229.32 180.64" fill="#b7b7b7" stroke-width="0"/><rect x="89.36" y="157.1" width="20.57" height="30.85" rx="1.29" ry="1.29" fill="#595959" stroke-width="0"/><path d="M106.08,179.27c0,3.55-2.88,6.43-6.43,6.43s-6.43-2.88-6.43-6.43,2.88-6.43,6.43-6.43,6.43,2.88,6.43,6.43Z" fill="#9a9a9a" stroke-width="0"/><path d="M106.08,178.63c0,3.55-2.88,6.43-6.43,6.43s-6.43-2.88-6.43-6.43,2.88-6.43,6.43-6.43,6.43,2.88,6.43,6.43Z" fill="#4f4f4f" stroke-width="0"/><path d="M107.04,178.95c0,4.08-3.31,7.39-7.39,7.39s-7.39-3.31-7.39-7.39,3.31-7.39,7.39-7.39,7.39,3.31,7.39,7.39Z" fill="#8f8f8f" stroke-width="0"/><path d="M106.08,178.95c0,3.55-2.88,6.43-6.43,6.43s-6.43-2.88-6.43-6.43,2.88-6.43,6.43-6.43,6.43,2.88,6.43,6.43Z" fill="#fff" stroke-width="0"/><circle cx="99.65" cy="178.95" r="3.86" fill="#d6d6d6" stroke-width="0"/><path d="M104.79,164.49c0,2.84-2.3,5.14-5.14,5.14s-5.14-2.3-5.14-5.14,2.3-5.14,5.14-5.14,5.14,2.3,5.14,5.14Z" fill="#8f8f8f" stroke-width="0"/><path d="M104.15,164.49c0,2.49-2.01,4.5-4.5,4.5s-4.5-2.01-4.5-4.5,2.01-4.5,4.5-4.5,4.5,2.01,4.5,4.5Z" fill="#fff" stroke-width="0"/><path d="M102.22,164.49c0,1.42-1.15,2.57-2.57,2.57s-2.57-1.15-2.57-2.57,1.15-2.57,2.57-2.57,2.57,1.15,2.57,2.57Z" fill="#d6d6d6" stroke-width="0"/><path d="M100.61,164.49c0,.53-.43.96-.96.96s-.96-.43-.96-.96.43-.96.96-.96.96.43.96.96Z" fill="#595959" stroke-width="0"/><circle cx="99.65" cy="178.95" r="1.93" fill="#595959" stroke-width="0"/><path d="M99.97,177.99c0,.18-.14.32-.32.32s-.32-.14-.32-.32.14-.32.32-.32.32.14.32.32Z" fill="#d6d6d6" stroke-width="0"/><path d="M99.81,164.17c0,.09-.07.16-.16.16s-.16-.07-.16-.16.07-.16.16-.16.16.07.16.16Z" fill="#d6d6d6" stroke-width="0"/><path d="M192.21,186.66c0-2.49,2.3-4.5,5.14-4.5s5.14,2.01,5.14,4.5h-10.28Z" fill="#d6d6d6" stroke-width="0"/><rect x="192.21" y="186.7" width="10.28" height="2.57" fill="#8f8f8f" stroke-width="0"/><rect x="145.92" y="186.66" width="20.57" height="1.29" fill="#8f8f8f" stroke-width="0"/><rect x="148.5" y="178.99" width="15.43" height="7.68" fill="#595959" stroke-width="0"/><path d="M189.63,139.13s0,0,0,0v30.85h-66.85v-30.85s0,0,0,0h66.84ZM189.63,136.56h-66.85c-1.41,0-2.57,1.16-2.57,2.57v33.43h71.99v-33.43c0-1.41-1.16-2.57-2.57-2.57h0Z" fill="#595959" stroke-width="0"/><polygon points="189.63 139.13 189.63 139.14 189.63 169.99 122.78 169.99 122.78 139.14 122.79 139.13 189.63 139.13 189.63 139.13" fill="#d9d9d9" stroke-width="0"/><path d="M120.21,172.56v5.14c0,1.41,1.16,2.57,2.57,2.57h66.85c1.41,0,2.57-1.16,2.57-2.57v-5.14h-71.99Z" fill="#8f8f8f" stroke-width="0"/><rect x="153.64" y="175.13" width="5.14" height="2.57" fill="#595959" stroke-width="0"/><path d="M77.05,187.63c-.19,0-.37-.07-.51-.21l-19.09-19.09c-.28-.28-.28-.74,0-1.02.28-.28.74-.28,1.02,0l19.09,19.09c.28.28.28.74,0,1.02-.14.14-.33.21-.51.21Z" fill="#cecece" stroke-width="0"/><path d="M79.78,184.9c-.19,0-.37-.07-.51-.21l-19.09-19.09c-.28-.28-.28-.74,0-1.02.28-.28.74-.28,1.02,0l19.09,19.09c.28.28.28.74,0,1.02-.14.14-.33.21-.51.21Z" fill="#cecece" stroke-width="0"/><path d="M57.96,168.54c-.19,0-.37-.07-.51-.21-.28-.28-.28-.74,0-1.02l19.09-19.09c.28-.28.74-.28,1.02,0,.28.28.28.74,0,1.02l-19.09,19.09c-.14.14-.33.21-.51.21Z" fill="#cecece" stroke-width="0"/><path d="M60.69,171.27c-.19,0-.37-.07-.51-.21-.28-.28-.28-.74,0-1.02l19.09-19.09c.28-.28.74-.28,1.02,0,.28.28.28.74,0,1.02l-19.09,19.09c-.14.14-.33.21-.51.21Z" fill="#cecece" stroke-width="0"/><path d="M79.78,149.45h-2.73c-.4,0-.72-.32-.72-.72s.32-.72.72-.72h2.73c.4,0,.72.32.72.72s-.32.72-.72.72Z" fill="#cecece" stroke-width="0"/><path d="M79.78,152.18c-.4,0-.72-.32-.72-.72v-2.73c0-.4.32-.72.72-.72s.72.32.72.72v2.73c0,.4-.32.72-.72.72Z" fill="#cecece" stroke-width="0"/><path d="M79.78,149.45c-.19,0-.37-.07-.51-.21-.28-.28-.28-.74,0-1.02l4.09-4.09c.28-.28.74-.28,1.02,0,.28.28.28.74,0,1.02l-4.09,4.09c-.14.14-.33.21-.51.21Z" fill="#cecece" stroke-width="0"/><path d="M96.39,152.57c-1.53,1.53-4.01,1.53-5.54,0-1.53-1.53-1.53-4.01,0-5.54,1.53-1.53,4.01-1.53,5.54,0,1.53,1.53,1.53,4.01,0,5.54Z" fill="#b7b7b7" stroke-width="0"/><rect x="83.72" y="149.39" width="19.81" height=".83" transform="translate(-78.5 110.04) rotate(-44.99)" fill="#cecece" stroke-width="0"/><polygon points="77.77 139.29 83.11 133.95 93.06 142.35 86.17 149.24 77.77 139.29" fill="#b7b7b7" stroke-width="0"/><polygon points="100.33 142.5 86.32 156.51 83.2 144.84 88.66 139.38 100.33 142.5" fill="#b7b7b7" stroke-width="0"/><path d="M82.9,184.09h-11.57c-2.13,0-3.86,1.73-3.86,3.86h19.28c0-2.13-1.73-3.86-3.86-3.86Z" fill="#b7b7b7" stroke-width="0"/><path d="M107.68,172.56v12.86c0,1.42,1.15,2.57,2.57,2.57h5.14c1.42,0,2.57-1.15,2.57-2.57v-12.86h-10.28Z" fill="#b7b7b7" stroke-width="0"/><path d="M117.93,184.13v-1.29c1.75,0,3.17-1.42,3.17-3.17s-1.42-3.17-3.17-3.17v-1.29c2.45,0,4.45,2,4.45,4.45s-2,4.45-4.45,4.45Z" fill="#b7b7b7" stroke-width="0"/><rect x="134.81" y="102.34" width="4.02" height="24.11" fill="#b7b7b7" stroke-width="0"/><rect x="134.81" y="106.35" width="4.02" height="16.07" fill="#4f4f4f" stroke-width="0"/><rect x="136.32" y="108.36" width="1" height="12.05" fill="#d6d6d6" stroke-width="0"/><rect x="118.74" y="102.34" width="4.02" height="24.11" fill="#595959" stroke-width="0"/><rect x="118.74" y="106.35" width="4.02" height="16.07" fill="#d9d9d9" stroke-width="0"/><rect x="122.76" y="102.34" width="4.02" height="24.11" fill="#4f4f4f" stroke-width="0"/><rect x="108.7" y="102.34" width="6.03" height="24.11" fill="#595959" stroke-width="0"/><rect x="108.7" y="108.36" width="6.03" height="12.05" fill="#fff" stroke-width="0"/><rect x="116.73" y="104.34" width="2.01" height="22.1" fill="#4f4f4f" stroke-width="0"/><rect x="116.73" y="106.35" width="2.01" height="18.08" fill="#fff" stroke-width="0"/><rect x="122.76" y="104.34" width="4.02" height="2.01" fill="#fff" stroke-width="0"/><rect x="122.76" y="122.42" width="4.02" height="2.01" fill="#fff" stroke-width="0"/><rect x="122.76" y="112.38" width="4.02" height="4.02" fill="#fff" stroke-width="0"/><rect x="126.78" y="108.36" width="2.01" height="18.08" fill="#b7b7b7" stroke-width="0"/><rect x="138.78" y="102.34" width="4.02" height="24.1" fill="#595959" stroke-width="0"/><rect x="138.78" y="108.36" width="4.02" height="12.05" fill="#fff" stroke-width="0"/><rect x="140.79" y="109.87" width="2.01" height="1" fill="#b7b7b7" stroke-width="0"/><rect x="140.79" y="111.88" width="2.01" height="1" fill="#b7b7b7" stroke-width="0"/><rect x="140.79" y="113.89" width="2.01" height="1" fill="#b7b7b7" stroke-width="0"/><rect x="140.79" y="115.9" width="2.01" height="1" fill="#b7b7b7" stroke-width="0"/><rect x="140.79" y="117.9" width="2.01" height="1" fill="#b7b7b7" stroke-width="0"/><rect x="114.72" y="108.36" width="2.01" height="18.08" fill="#b7b7b7" stroke-width="0"/><polygon points="111.71 110.37 109.7 114.39 111.71 118.41 113.72 114.39 111.71 110.37" fill="#b7b7b7" stroke-width="0"/><path d="M121.75,108.36c0,.55-.45,1-1,1s-1-.45-1-1,.45-1,1-1,1,.45,1,1Z" fill="#fff" stroke-width="0"/><rect x="128.78" y="106.35" width="6.03" height="20.09" fill="#fff" stroke-width="0"/><rect x="128.78" y="110.37" width="6.03" height="12.05" fill="#d9d9d9" stroke-width="0"/><ellipse cx="131.8" cy="116.4" rx="2.01" ry="4.02" fill="#4f4f4f" stroke-width="0"/><rect x="142.8" y="106.35" width="6.03" height="20.09" fill="#fff" stroke-width="0"/><rect x="142.8" y="110.37" width="6.03" height="12.05" fill="#d9d9d9" stroke-width="0"/><rect x="104.68" y="110.37" width="4.02" height="16.07" fill="#4f4f4f" stroke-width="0"/><rect x="148.83" y="110.37" width="4.02" height="16.07" fill="#4f4f4f" stroke-width="0"/><rect x="100.48" y="126.24" width="56.56" height="5.14" fill="#9a9a9a" stroke-width="0"/><polygon points="180.53 174.67 180.53 181.71 185.56 181.71 187.57 181.71 187.57 179.69 187.57 174.67 180.53 174.67" fill="#f2f2f2" stroke-width="0"/><rect x="180.54" y="174.67" width="7.01" height="1.4" fill="#b7b7b7" stroke-width="0"/><path d="M186.72,177.18h-5.34c-.13,0-.24-.11-.24-.24s.11-.24.24-.24h5.34c.13,0,.24.11.24.24s-.11.24-.24.24Z" fill="#b7b7b7" stroke-width="0"/><path d="M186.72,178.17h-5.34c-.13,0-.24-.11-.24-.24s.11-.24.24-.24h5.34c.13,0,.24.11.24.24s-.11.24-.24.24Z" fill="#b7b7b7" stroke-width="0"/><path d="M186.72,178.17h-5.34c-.13,0-.24-.11-.24-.24s.11-.24.24-.24h5.34c.13,0,.24.11.24.24s-.11.24-.24.24Z" fill="#b7b7b7" stroke-width="0"/><path d="M186.72,179.15h-1.08c-.13,0-.24-.11-.24-.24s.11-.24.24-.24h1.08c.13,0,.24.11.24.24s-.11.24-.24.24Z" fill="#b7b7b7" stroke-width="0"/><path d="M184.83,179.18h-3.46c-.13,0-.24-.11-.24-.24s.11-.24.24-.24h3.46c.13,0,.24.11.24.24s-.11.24-.24.24Z" fill="#b7b7b7" stroke-width="0"/><path d="M186.72,180.17h-5.34c-.13,0-.24-.11-.24-.24s.11-.24.24-.24h5.34c.13,0,.24.11.24.24s-.11.24-.24.24Z" fill="#b7b7b7" stroke-width="0"/><polygon points="127.96 176.1 128.62 183.1 133.62 182.63 135.62 182.45 135.43 180.44 134.96 175.44 127.96 176.1" fill="#cecece" stroke-width="0"/><rect x="128.01" y="175.77" width="7.01" height="1.4" transform="translate(-15.92 13.07) rotate(-5.36)" fill="#b5b5b5" stroke-width="0"/><path d="M129,178.52c-.12,0-.23-.09-.24-.22-.01-.13.08-.25.22-.26l5.32-.5c.13-.01.25.08.26.22.01.13-.08.25-.22.26l-5.32.5s-.02,0-.02,0Z" fill="#7d7d7d" stroke-width="0"/><path d="M129.1,179.5c-.12,0-.23-.09-.24-.22-.01-.13.08-.25.22-.26l4.19-.39c.13-.01.25.08.26.22.01.13-.09.25-.22.26l-4.19.39s-.02,0-.02,0Z" fill="#7d7d7d" stroke-width="0"/><path d="M129.19,180.51c-.12,0-.23-.09-.24-.22-.01-.13.08-.25.22-.26l2.57-.24c.13-.01.25.08.26.22.01.13-.08.25-.22.26l-2.57.24s-.02,0-.02,0Z" fill="#7d7d7d" stroke-width="0"/><path d="M130.91,181.34c-.12,0-.23-.09-.24-.22-.01-.13.08-.25.22-.26l3.69-.35c.13-.01.25.08.26.22.01.13-.08.25-.22.26l-3.69.35s-.02,0-.02,0Z" fill="#7d7d7d" stroke-width="0"/><polygon points="176.78 175.79 176.28 182.81 181.3 183.16 183.3 183.3 183.44 181.29 183.8 176.28 176.78 175.79" fill="#d9d9d9" stroke-width="0"/><rect x="179.53" y="173.23" width="1.4" height="7.01" transform="translate(-8.71 344.13) rotate(-85.98)" fill="#595959" stroke-width="0"/><path d="M179.93,181.73c-.07,0-.14-.04-.19-.09l-1.24-1.39c-.1-.12-.09-.29.02-.4.12-.1.29-.09.4.02l.98,1.09,1.2-2.1c.08-.13.25-.18.38-.11.13.08.18.25.11.38l-1.39,2.44c-.04.08-.12.13-.21.14-.02,0-.03,0-.05,0Z" fill="#595959" stroke-width="0"/><path d="M190.16,113.38c0,7.1-5.76,12.86-12.86,12.86s-12.86-5.76-12.86-12.86,5.76-12.86,12.86-12.86,12.86,5.76,12.86,12.86Z" fill="#fff" stroke-width="0"/><path d="M177.31,101.81c3.09,0,6,1.2,8.18,3.39,2.19,2.19,3.39,5.09,3.39,8.18s-1.2,6-3.39,8.18-5.09,3.39-8.18,3.39-6-1.2-8.18-3.39c-2.19-2.19-3.39-5.09-3.39-8.18s1.2-6,3.39-8.18,5.09-3.39,8.18-3.39h0ZM177.31,100.53c-7.1,0-12.86,5.76-12.86,12.86s5.76,12.86,12.86,12.86,12.86-5.76,12.86-12.86-5.76-12.86-12.86-12.86h0Z" fill="#595959" stroke-width="0"/><path d="M177.95,113.38c0,.36-.29.64-.64.64s-.64-.29-.64-.64.29-.64.64-.64.64.29.64.64Z" fill="#595959" stroke-width="0"/><rect x="175.69" y="103.26" width=".64" height="10.28" transform="translate(-21.6 47.73) rotate(-14.56)" fill="#595959" stroke-width="0"/><rect x="181.04" y="107.53" width=".16" height="12.86" transform="translate(41.16 275.83) rotate(-81.33)" fill="#595959" stroke-width="0"/><rect x="170.78" y="115.29" width="7.29" height=".64" transform="translate(-34.29 130.7) rotate(-37.67)" fill="#595959" stroke-width="0"/><path d="M186.67,113.38c0,.3-.25.55-.55.55s-.55-.25-.55-.55.25-.55.55-.55.55.25.55.55Z" fill="#595959" stroke-width="0"/><path d="M169.05,113.38c0,.3-.25.55-.55.55s-.55-.25-.55-.55.25-.55.55-.55.55.25.55.55Z" fill="#595959" stroke-width="0"/><path d="M177.88,104.56c0,.3-.25.55-.55.55s-.55-.25-.55-.55.25-.55.55-.55.55.25.55.55Z" fill="#595959" stroke-width="0"/><path d="M177.88,122.21c0,.3-.25.55-.55.55s-.55-.25-.55-.55.25-.55.55-.55.55.25.55.55Z" fill="#595959" stroke-width="0"/><path d="M185.18,117.93c-.08.13-.24.18-.38.1-.13-.08-.18-.24-.1-.38.08-.13.24-.18.38-.1.13.08.18.24.1.38Z" fill="#595959" stroke-width="0"/><path d="M169.92,109.12c-.08.13-.24.18-.38.1-.13-.08-.18-.24-.1-.38.08-.13.24-.18.38-.1.13.08.18.24.1.38Z" fill="#595959" stroke-width="0"/><path d="M181.97,105.89c-.08.13-.24.18-.38.1-.13-.08-.18-.24-.1-.38.08-.13.24-.18.38-.1.13.08.18.24.1.38Z" fill="#595959" stroke-width="0"/><path d="M173.15,121.17c-.08.13-.24.18-.38.1-.13-.08-.18-.24-.1-.38.08-.13.24-.18.38-.1.13.08.18.24.1.38Z" fill="#595959" stroke-width="0"/><path d="M181.86,121.25c-.13.08-.3.03-.38-.1-.08-.13-.03-.3.1-.38.13-.08.3-.03.38.1.08.13.03.3-.1.38Z" fill="#595959" stroke-width="0"/><path d="M173.05,106c-.13.08-.3.03-.38-.1-.08-.13-.03-.3.1-.38.13-.08.3-.03.38.1.08.13.03.3-.1.38Z" fill="#595959" stroke-width="0"/><path d="M185.1,109.23c-.13.08-.3.03-.38-.1-.08-.13-.03-.3.1-.38.13-.08.3-.03.38.1.08.13.03.3-.1.38Z" fill="#595959" stroke-width="0"/><path d="M169.82,118.05c-.13.08-.3.03-.38-.1-.08-.13-.03-.3.1-.38.13-.08.3-.03.38.1.08.13.03.3-.1.38Z" fill="#595959" stroke-width="0"/><polygon points="189.63 139.13 189.63 139.14 189.63 169.99 122.78 169.99 122.78 139.14 122.79 139.13 189.63 139.13 189.63 139.13" fill="#d9d9d9" stroke-width="0"/><rect x="174.21" y="154.56" width="10.28" height="7.71" fill="#595959" stroke-width="0"/><path d="M180.64,158.42c0,1.42-1.15,2.57-2.57,2.57s-2.57-1.15-2.57-2.57,1.15-2.57,2.57-2.57,2.57,1.15,2.57,2.57Z" fill="#d9d9d9" stroke-width="0"/><polygon points="180.64 158.58 177.9 158.58 177.9 155.84 178.23 155.84 178.23 158.25 180.64 158.25 180.64 158.58" fill="#fff" stroke-width="0"/><rect x="130.66" y="149.9" width="2.41" height="2.25" fill="#595959" stroke-width="0"/><rect x="127.92" y="160.18" width="2.41" height="2.25" fill="#595959" stroke-width="0"/><rect x="130.66" y="152.47" width="2.41" height="2.25" fill="#595959" stroke-width="0"/><rect x="130.66" y="147.33" width="2.41" height="2.25" fill="#595959" stroke-width="0"/><rect x="127.92" y="157.61" width="2.41" height="2.25" fill="#595959" stroke-width="0"/><rect x="130.66" y="162.75" width="2.41" height="2.41" fill="#595959" stroke-width="0"/><rect x="127.92" y="162.75" width="2.41" height="2.41" fill="#595959" stroke-width="0"/><rect x="130.66" y="160.18" width="2.41" height="2.25" fill="#595959" stroke-width="0"/><rect x="130.66" y="157.61" width="2.41" height="2.25" fill="#595959" stroke-width="0"/><rect x="130.66" y="155.04" width="2.41" height="2.25" fill="#595959" stroke-width="0"/><rect x="127.92" y="155.04" width="2.41" height="2.25" fill="#595959" stroke-width="0"/><rect x="127.92" y="144.6" width="2.41" height="2.41" fill="#595959" stroke-width="0"/><rect x="127.92" y="149.9" width="2.41" height="2.25" fill="#595959" stroke-width="0"/><rect x="127.92" y="147.33" width="2.41" height="2.25" fill="#595959" stroke-width="0"/><rect x="130.66" y="144.6" width="2.41" height="2.41" fill="#595959" stroke-width="0"/><rect x="127.92" y="152.47" width="2.41" height="2.25" fill="#595959" stroke-width="0"/><polygon points="130.66 144.6 130.34 144.6 130.34 147.01 127.92 147.01 127.92 147.33 130.34 147.33 130.34 149.58 127.92 149.58 127.92 149.9 130.34 149.9 130.34 152.15 127.92 152.15 127.92 152.47 130.34 152.47 130.34 154.72 127.92 154.72 127.92 155.04 130.34 155.04 130.34 157.29 127.92 157.29 127.92 157.61 130.34 157.61 130.34 159.86 127.92 159.86 127.92 160.18 130.34 160.18 130.34 162.43 127.92 162.43 127.92 162.75 130.34 162.75 130.34 165.17 130.66 165.17 130.66 162.75 133.07 162.75 133.07 162.43 130.66 162.43 130.66 160.18 133.07 160.18 133.07 159.86 130.66 159.86 130.66 157.61 133.07 157.61 133.07 157.29 130.66 157.29 130.66 155.04 133.07 155.04 133.07 154.72 130.66 154.72 130.66 152.47 133.07 152.47 133.07 152.15 130.66 152.15 130.66 149.9 133.07 149.9 133.07 149.58 130.66 149.58 130.66 147.33 133.07 147.33 133.07 147.01 130.66 147.01 130.66 144.6" fill="#d9d9d9" stroke-width="0"/><rect x="135.64" y="142.02" width="36" height="25.71" fill="#fff" stroke-width="0"/><path d="M153.64,152.31c0,4.26-3.45,7.71-7.71,7.71s-7.71-3.45-7.71-7.71,3.45-7.71,7.71-7.71,7.71,3.45,7.71,7.71Z" fill="#d9d9d9" stroke-width="0"/><path d="M156.39,149.26c0,1.54-1.25,2.79-2.79,2.79s-2.79-1.25-2.79-2.79,1.25-2.79,2.79-2.79,2.79,1.25,2.79,2.79Z" fill="#4f4f4f" stroke-width="0"/><circle cx="164.14" cy="160.02" r="5.2" transform="translate(2.99 323.05) rotate(-89.6)" fill="#b7b7b7" stroke-width="0"/><polygon points="152.35 158.42 152.35 160.34 153.64 159.7 152.35 158.42" fill="#595959" stroke-width="0"/><rect x="152.93" y="158.81" width=".32" height="2.92" transform="translate(-48.58 68.33) rotate(-21.8)" fill="#595959" stroke-width="0"/><rect x="174.21" y="142.83" width="10.28" height="10.28" fill="#595959" stroke-width="0"/><rect x="174.21" y="163.94" width="10.28" height="2.46" fill="#595959" stroke-width="0"/><rect x="175.49" y="144.43" width="7.71" height=".32" fill="#d9d9d9" stroke-width="0"/><rect x="175.49" y="147.01" width="7.71" height=".32" fill="#d9d9d9" stroke-width="0"/><rect x="175.49" y="149.58" width="7.71" height=".32" fill="#d9d9d9" stroke-width="0"/><polygon points="181.28 145.88 181.92 144.6 182.56 145.88 181.28 145.88" fill="#d9d9d9" stroke-width="0"/><polygon points="176.78 148.45 177.42 147.17 178.06 148.45 176.78 148.45" fill="#d9d9d9" stroke-width="0"/><polygon points="180.64 151.02 181.28 149.74 181.92 151.02 180.64 151.02" fill="#d9d9d9" stroke-width="0"/><rect x="135.64" y="141.38" width="36" height="1.29" fill="#595959" stroke-width="0"/><path d="M129.77,145.8c0,.36-.29.64-.64.64s-.64-.29-.64-.64.29-.64.64-.64.64.29.64.64Z" fill="#b7b7b7" stroke-width="0"/><path d="M132.19,156.17c0,.36-.29.64-.64.64s-.64-.29-.64-.64.29-.64.64-.64.64.29.64.64Z" fill="#7d7d7d" stroke-width="0"/><path d="M132.83,156.17c0,.36-.29.64-.64.64s-.64-.29-.64-.64.29-.64.64-.64.64.29.64.64Z" fill="#d9d9d9" stroke-width="0"/><rect x="131.22" y="145.64" width="1.29" height=".32" fill="#d9d9d9" stroke-width="0"/><rect x="131.22" y="161.15" width="1.29" height=".32" fill="#fff" stroke-width="0"/><rect x="128.33" y="152.95" width=".32" height="1.29" fill="#d9d9d9" stroke-width="0"/><rect x="128.97" y="152.95" width=".32" height="1.29" fill="#d9d9d9" stroke-width="0"/><rect x="129.61" y="152.95" width=".32" height="1.29" fill="#d9d9d9" stroke-width="0"/><rect x="131.38" y="147.97" width=".96" height=".96" transform="translate(-66.35 136.75) rotate(-45.01)" fill="#7d7d7d" stroke-width="0"/><rect x="128.65" y="158.25" width=".96" height=".96" transform="translate(-74.43 137.87) rotate(-45.02)" fill="#fff" stroke-width="0"/><rect x="128.65" y="155.68" width=".96" height=".96" fill="#7d7d7d" stroke-width="0"/><rect x="131.38" y="158.25" width=".96" height=".96" fill="#b7b7b7" stroke-width="0"/><rect x="128.65" y="147.97" width=".96" height=".96" fill="#fff" stroke-width="0"/><polygon points="131.86 150.54 131.38 150.54 131.38 151.51 132.35 151.51 132.35 151.02 131.86 151.02 131.86 150.54" fill="#d9d9d9" stroke-width="0"/><rect x="131.86" y="150.54" width=".48" height=".48" fill="#b7b7b7" stroke-width="0"/><polygon points="132.35 163.94 132.35 163.45 131.38 163.45 131.38 164.42 131.86 164.42 131.86 163.94 132.35 163.94" fill="#7d7d7d" stroke-width="0"/><rect x="131.86" y="163.94" width=".48" height=".48" fill="#b7b7b7" stroke-width="0"/><path d="M129.13,162.06l-.75-.75.75-.75.75.75-.75.75ZM128.84,161.31l.29.29.29-.29-.29-.29-.29.29Z" fill="#d9d9d9" stroke-width="0"/><path d="M178.39,155.84c0,.18-.14.32-.32.32s-.32-.14-.32-.32.14-.32.32-.32.32.14.32.32Z" fill="#7d7d7d" stroke-width="0"/><path d="M180.96,158.42c0,.18-.14.32-.32.32s-.32-.14-.32-.32.14-.32.32-.32.32.14.32.32Z" fill="#b7b7b7" stroke-width="0"/><rect x="175.9" y="159.18" width="2.56" height=".32" transform="translate(-60.4 177.75) rotate(-46.4)" fill="#fff" stroke-width="0"/><rect x="181.92" y="155.84" width="1.29" height="1.29" fill="#d9d9d9" stroke-width="0"/><rect x="181.92" y="157.77" width="1.29" height="1.29" fill="#7d7d7d" stroke-width="0"/><rect x="181.92" y="159.7" width="1.29" height="1.29" fill="#b7b7b7" stroke-width="0"/><path d="M176.62,160.27c0,.18-.14.32-.32.32s-.32-.14-.32-.32.14-.32.32-.32.32.14.32.32Z" fill="#9a9a9a" stroke-width="0"/><path d="M175.81,165.23c0,.18-.14.32-.32.32s-.32-.14-.32-.32.14-.32.32-.32.32.14.32.32Z" fill="#9a9a9a" stroke-width="0"/><path d="M131.22,153.59c0,.35.29.64.64.64v-1.29c-.36,0-.64.29-.64.64Z" fill="#b7b7b7" stroke-width="0"/><path d="M131.86,152.95v1.29c.35,0,.64-.29.64-.64s-.29-.64-.64-.64Z" fill="#fff" stroke-width="0"/><rect x="128.33" y="163.64" width=".64" height=".64" fill="#d9d9d9" stroke-width="0"/><rect x="129.29" y="163.64" width=".64" height=".64" fill="#fff" stroke-width="0"/><rect x="128.81" y="150.7" width=".64" height=".64" fill="#b7b7b7" stroke-width="0"/><path d="M183.21,165.37h-6.27c-.09,0-.16-.07-.16-.16s.07-.16.16-.16h6.27c.09,0,.16.07.16.16s-.07.16-.16.16Z" fill="#d9d9d9" stroke-width="0"/></g></g></svg>