<svg width="250" height="250" viewBox="0 0 250 250" fill="none" xmlns="http://www.w3.org/2000/svg">
<path d="M130 206.885C165.622 206.885 194.5 170.224 194.5 125C194.5 79.7763 165.622 43.1152 130 43.1152C94.3776 43.1152 65.5 79.7763 65.5 125C65.5 170.224 94.3776 206.885 130 206.885Z" fill="#DBE8EC"/>
<path d="M217.154 107.861V99.0234C217.154 95.5078 214.923 92.6758 212.154 92.6758H194.462C191.692 92.6758 189.462 89.8438 189.462 86.3281V77.4902C189.462 73.9746 191.692 71.1426 194.462 71.1426H195.038C197.808 71.1426 200.038 68.3105 200.038 64.7949V55.957C200.038 52.4414 197.808 49.6094 195.038 49.6094H66.5769C63.8077 49.6094 61.5769 52.4414 61.5769 55.957V64.7949C61.5769 68.3105 63.8077 71.1426 66.5769 71.1426C69.3462 71.1426 71.5769 73.9746 71.5769 77.4902V86.3281C71.5769 89.8438 69.3462 92.6758 66.5769 92.6758H47.1923C44.4231 92.6758 42.1923 95.5078 42.1923 99.0234V107.861C42.1923 111.377 44.4231 114.209 47.1923 114.209H54.8077C57.5769 114.209 59.8077 117.041 59.8077 120.557V129.395C59.8077 132.91 57.5769 135.742 54.8077 135.742C52.0385 135.742 49.8077 138.574 49.8077 142.09V150.928C49.8077 154.443 52.0385 157.275 54.8077 157.275H55.9231C58.6923 157.275 60.9231 160.107 60.9231 163.623V172.461C60.9231 175.977 58.6923 178.809 55.9231 178.809H37.8462C35.0769 178.809 32.8462 181.641 32.8462 185.156V193.994C32.8462 197.51 35.0769 200.342 37.8462 200.342H197.692C200.462 200.342 202.692 197.51 202.692 193.994V185.156C202.692 181.641 200.462 178.809 197.692 178.809H193.346C190.577 178.809 188.346 175.977 188.346 172.461V163.623C188.346 160.107 190.577 157.275 193.346 157.275H203.577C206.346 157.275 208.577 154.443 208.577 150.928V142.09C208.577 138.574 206.346 135.742 203.577 135.742H200.462C197.692 135.742 195.462 132.91 195.462 129.395V120.557C195.462 117.041 197.692 114.209 200.462 114.209H212.115C214.923 114.209 217.154 111.377 217.154 107.861Z" fill="#DBE8EC"/>
<path d="M148 45.0195H160.423" stroke="#B9D4DB" stroke-width="3" stroke-miterlimit="10" stroke-linecap="round"/>
<path d="M148 49.5605H160.423" stroke="#B9D4DB" stroke-width="3" stroke-miterlimit="10" stroke-linecap="round"/>
<path d="M148 54.1016H160.423" stroke="#B9D4DB" stroke-width="3" stroke-miterlimit="10" stroke-linecap="round"/>
<path d="M45.8461 141.553H58.2692" stroke="#B9D4DB" stroke-width="3" stroke-miterlimit="10" stroke-linecap="round"/>
<path d="M45.8461 146.094H58.2692" stroke="#B9D4DB" stroke-width="3" stroke-miterlimit="10" stroke-linecap="round"/>
<path d="M45.8461 150.635H58.2692" stroke="#B9D4DB" stroke-width="3" stroke-miterlimit="10" stroke-linecap="round"/>
<path d="M194.5 183.203H206.923" stroke="#B9D4DB" stroke-width="3" stroke-miterlimit="10" stroke-linecap="round"/>
<path d="M194.5 187.744H206.923" stroke="#B9D4DB" stroke-width="3" stroke-miterlimit="10" stroke-linecap="round"/>
<path d="M194.5 192.334H206.923" stroke="#B9D4DB" stroke-width="3" stroke-miterlimit="10" stroke-linecap="round"/>
<path d="M210.308 105.518C213.239 105.518 215.615 102.501 215.615 98.7793C215.615 95.0578 213.239 92.041 210.308 92.041C207.376 92.041 205 95.0578 205 98.7793C205 102.501 207.376 105.518 210.308 105.518Z" fill="#B9D4DB"/>
<path d="M196.269 107.178C197.799 107.178 199.038 105.604 199.038 103.662C199.038 101.72 197.799 100.146 196.269 100.146C194.74 100.146 193.5 101.72 193.5 103.662C193.5 105.604 194.74 107.178 196.269 107.178Z" fill="#B9D4DB"/>
<path d="M203.269 87.3047C205.436 87.3047 207.192 85.0749 207.192 82.3242C207.192 79.5736 205.436 77.3438 203.269 77.3438C201.103 77.3438 199.346 79.5736 199.346 82.3242C199.346 85.0749 201.103 87.3047 203.269 87.3047Z" fill="#B9D4DB"/>
<path d="M63.2308 198.145C66.7144 198.145 69.5385 194.559 69.5385 190.137C69.5385 185.714 66.7144 182.129 63.2308 182.129C59.7471 182.129 56.9231 185.714 56.9231 190.137C56.9231 194.559 59.7471 198.145 63.2308 198.145Z" fill="#B9D4DB"/>
<path d="M50.7308 198.34C52.5576 198.34 54.0385 196.46 54.0385 194.141C54.0385 191.821 52.5576 189.941 50.7308 189.941C48.904 189.941 47.4231 191.821 47.4231 194.141C47.4231 196.46 48.904 198.34 50.7308 198.34Z" fill="#B9D4DB"/>
<path d="M46.8462 182.666C47.887 182.666 48.7308 181.595 48.7308 180.273C48.7308 178.952 47.887 177.881 46.8462 177.881C45.8053 177.881 44.9615 178.952 44.9615 180.273C44.9615 181.595 45.8053 182.666 46.8462 182.666Z" fill="#B9D4DB"/>
<path d="M56.2692 179.834C58.7758 179.834 60.8077 177.254 60.8077 174.072C60.8077 170.89 58.7758 168.311 56.2692 168.311C53.7627 168.311 51.7308 170.89 51.7308 174.072C51.7308 177.254 53.7627 179.834 56.2692 179.834Z" fill="#B9D4DB"/>
<path d="M96.3461 74.1699C99.8298 74.1699 102.654 70.5847 102.654 66.1621C102.654 61.7395 99.8298 58.1543 96.3461 58.1543C92.8625 58.1543 90.0385 61.7395 90.0385 66.1621C90.0385 70.5847 92.8625 74.1699 96.3461 74.1699Z" fill="#B9D4DB"/>
<path d="M96.5769 54.0039C98.4037 54.0039 99.8846 52.1239 99.8846 49.8047C99.8846 47.4855 98.4037 45.6055 96.5769 45.6055C94.7501 45.6055 93.2692 47.4855 93.2692 49.8047C93.2692 52.1239 94.7501 54.0039 96.5769 54.0039Z" fill="#B9D4DB"/>
<path d="M118.5 55.8594C120.072 55.8594 121.346 54.2417 121.346 52.2461C121.346 50.2505 120.072 48.6328 118.5 48.6328C116.928 48.6328 115.654 50.2505 115.654 52.2461C115.654 54.2417 116.928 55.8594 118.5 55.8594Z" fill="#B9D4DB"/>
<path d="M108.115 51.123C109.156 51.123 110 50.0519 110 48.7305C110 47.4091 109.156 46.3379 108.115 46.3379C107.075 46.3379 106.231 47.4091 106.231 48.7305C106.231 50.0519 107.075 51.123 108.115 51.123Z" fill="#B9D4DB"/>
<path d="M110.346 67.627C112.853 67.627 114.885 65.0473 114.885 61.8652C114.885 58.6831 112.853 56.1035 110.346 56.1035C107.84 56.1035 105.808 58.6831 105.808 61.8652C105.808 65.0473 107.84 67.627 110.346 67.627Z" fill="#B9D4DB"/>
<path d="M186.154 142.383L144.154 171.094V105.908L186.154 89.3066V142.383Z" fill="#1976D2"/>
<path d="M144.154 105.908L94.577 99.5605L84.4231 80.5176C84.077 79.834 84.1923 78.9551 84.7308 78.4668C84.9231 78.3203 85.1539 78.2227 85.3846 78.2227H132.077C132.5 78.2227 132.885 78.5156 133.115 79.0039L144.154 105.908Z" fill="#529DDB"/>
<path d="M94.5385 164.697L77.2308 160.107C76.6923 159.961 76.3077 159.375 76.3077 158.691V96.5332C76.3077 95.7031 76.8077 95.0684 77.4615 95.0684C77.5384 95.0684 77.6154 95.0684 77.6923 95.1172L94.5385 99.5605V164.697ZM160.846 178.174L144.115 171.094V105.908L161.577 113.281C162.038 113.477 162.385 114.063 162.385 114.648V176.758C162.385 177.588 161.885 178.223 161.231 178.223C161.077 178.223 160.962 178.223 160.846 178.174Z" fill="#529DDB"/>
<path d="M144.154 171.094L94.5385 164.697V99.5605L144.154 105.908V171.094Z" fill="#236487"/>
<path d="M131.538 188.525L80.9615 185.986L94.5769 164.746L144.154 171.094L132.462 188.037C132.192 188.379 131.885 188.525 131.538 188.525Z" fill="#529DDB"/>
<path d="M144.154 105.908L186.154 89.3066L134.808 83.2031L144.154 105.908Z" fill="#1976D2"/>
<path d="M94.5385 164.697L144.154 135.303V105.908L94.5385 99.5605V164.697Z" fill="#2F75A5"/>
<path d="M97.5385 143.506C97.5385 143.506 102.962 140.479 104.385 142.627C105.808 144.775 109.038 145.752 109.038 145.752L111.846 139.746L119.462 144.238L123.615 151.416L120.923 159.912C120.923 159.912 115.423 159.814 112.808 161.182C110.192 162.549 103.346 162.695 103.346 162.695L100.231 155.078C100.154 155.078 96.1539 147.656 97.5385 143.506Z" fill="#DBE8EC"/>
<path d="M109.038 145.752C109.577 146.338 110.077 146.924 110.538 147.559C111.038 148.193 111.5 148.828 112 149.414C112.462 150.049 112.962 150.684 113.385 151.367C113.846 152.002 114.308 152.686 114.731 153.32L113.769 153.955C113.538 152.783 113.346 151.611 113.115 150.439C112.923 149.268 112.731 148.096 112.577 146.924C112.269 144.531 111.962 142.187 111.808 139.746C112.5 141.992 113.038 144.336 113.538 146.631C113.769 147.803 114.038 148.975 114.231 150.146C114.462 151.318 114.654 152.49 114.846 153.662C114.923 154.053 114.731 154.443 114.423 154.492C114.231 154.541 114 154.443 113.885 154.248C113.462 153.564 113.038 152.881 112.615 152.197C112.192 151.514 111.769 150.781 111.385 150.098C110.962 149.365 110.577 148.682 110.192 147.949C109.769 147.217 109.385 146.484 109.038 145.752Z" fill="#BAD5DB"/>
<path d="M119.462 144.238C119.154 145.117 118.769 145.996 118.423 146.826C118.038 147.656 117.692 148.486 117.269 149.316C116.885 150.146 116.462 150.977 116.077 151.758C115.654 152.588 115.231 153.369 114.846 154.15L114.269 153.027C115.038 152.832 115.808 152.637 116.577 152.49C117.346 152.344 118.115 152.148 118.923 152.002C119.692 151.855 120.5 151.758 121.269 151.611C122.038 151.514 122.846 151.416 123.654 151.367C122.923 151.709 122.154 152.002 121.385 152.295C120.615 152.588 119.885 152.832 119.115 153.076C118.346 153.32 117.577 153.564 116.808 153.76C116.038 153.955 115.269 154.199 114.5 154.395C114.192 154.492 113.885 154.199 113.846 153.809C113.808 153.613 113.846 153.418 113.923 153.271C114.346 152.49 114.769 151.709 115.231 150.928C115.692 150.146 116.115 149.365 116.577 148.633C117.038 147.852 117.5 147.119 118 146.387C118.423 145.703 118.923 144.971 119.462 144.238Z" fill="#BAD5DB"/>
<path d="M120.885 159.912C120.269 159.521 119.654 159.082 119.077 158.691C118.5 158.252 117.923 157.812 117.346 157.324C116.192 156.396 115.077 155.42 114 154.395L114.846 154.199C114.192 155.566 113.5 156.885 112.769 158.203C112.423 158.838 112.038 159.521 111.654 160.156C111.269 160.791 110.885 161.426 110.423 162.012C110.654 161.23 110.923 160.498 111.154 159.766C111.423 159.033 111.692 158.301 112 157.617C112.577 156.201 113.192 154.785 113.846 153.418C114 153.076 114.346 152.979 114.615 153.174L114.654 153.223C115.731 154.248 116.808 155.273 117.846 156.396C118.385 156.934 118.885 157.52 119.385 158.105C119.923 158.691 120.423 159.277 120.885 159.912Z" fill="#BAD5DB"/>
<path d="M97.5385 143.506C100.462 144.922 103.308 146.484 106.154 148.096C107.577 148.926 109 149.756 110.385 150.586C111.808 151.416 113.192 152.295 114.577 153.174C114.846 153.369 114.962 153.76 114.846 154.102C114.808 154.199 114.731 154.297 114.654 154.395C113.731 155.127 112.808 155.859 111.846 156.592C110.923 157.324 109.962 158.008 109.038 158.74C108.077 159.424 107.154 160.107 106.192 160.791C105.231 161.475 104.269 162.109 103.308 162.744C104.192 161.914 105.038 161.084 105.923 160.254C106.808 159.424 107.692 158.643 108.615 157.861C109.5 157.08 110.423 156.299 111.308 155.518C112.231 154.736 113.115 153.955 114.038 153.223L114.077 154.443C112.654 153.613 111.269 152.734 109.885 151.855C108.5 150.977 107.115 150.098 105.731 149.219C102.962 147.363 100.192 145.508 97.5385 143.506Z" fill="#BAD5DB"/>
<path d="M99.8077 154.395C100.808 153.906 101.731 153.32 102.654 152.637C103.5 152.002 104.192 151.123 104.692 150.049C105.115 148.975 105.269 147.705 105.115 146.533C104.962 145.215 104.731 143.896 104.385 142.627C105.154 143.652 105.692 144.922 106 146.289C106.346 147.754 106.231 149.365 105.692 150.732C105.115 152.051 104.192 153.076 103.077 153.662C102.038 154.199 100.923 154.492 99.8077 154.395ZM108.462 150.195C108.385 151.221 108.269 152.197 108.038 153.174C107.846 154.15 107.615 155.078 107.346 156.006C107.077 156.934 106.769 157.812 106.385 158.691C106.038 159.57 105.615 160.449 105.115 161.23C105.192 160.205 105.308 159.229 105.538 158.252C105.731 157.275 105.962 156.348 106.269 155.42C106.538 154.492 106.846 153.613 107.231 152.734C107.538 151.855 107.962 150.977 108.462 150.195Z" fill="#BAD5DB"/>
<path d="M97.2308 178.906C97.2308 178.906 93.1154 184.277 91.1154 182.959C89.1154 181.641 85.8846 182.275 85.8846 182.275L85.0769 189.209L76.6923 188.672L70.7308 183.984V174.805C70.7308 174.805 75.8462 172.266 77.8846 169.727C79.9231 167.188 86.2308 163.818 86.2308 163.818L91.3846 169.385C91.3846 169.434 97.2692 174.365 97.2308 178.906Z" fill="#C0D8DD"/>
<path d="M85.9231 182.324C84.6538 181.641 83.3846 180.908 82.1538 180.176C81.5385 179.785 80.9231 179.395 80.3077 179.004C79.6923 178.613 79.0769 178.223 78.4615 177.832L78.9615 177.148C80.0769 179.102 81.1154 181.104 82.1538 183.105C83.1923 185.107 84.1923 187.158 85.1154 189.258C83.8846 187.402 82.7308 185.498 81.6154 183.594C80.5 181.641 79.3846 179.688 78.3462 177.734C78.2308 177.539 78.2692 177.246 78.4615 177.1C78.5769 177.002 78.7308 177.002 78.8462 177.051C79.4615 177.441 80.0385 177.881 80.6538 178.32C81.2692 178.76 81.8462 179.199 82.4615 179.639C83.5769 180.469 84.7692 181.348 85.9231 182.324Z" fill="#9FC6CC"/>
<path d="M76.6923 188.672C76.8462 186.768 77.0769 184.863 77.3462 182.959C77.6154 181.055 77.8846 179.15 78.2308 177.295L78.8077 177.783L76.8462 179.395C76.1923 179.932 75.5 180.469 74.8462 180.957C74.1923 181.494 73.5 181.982 72.8077 182.471C72.1154 182.959 71.4231 183.447 70.7308 183.936C71.3462 183.301 71.9615 182.666 72.5769 182.08C73.1923 181.494 73.8462 180.908 74.5 180.322C75.1539 179.736 75.8077 179.199 76.4231 178.613L78.3846 176.953C78.5769 176.807 78.8077 176.855 78.9231 177.1C79 177.197 79 177.344 78.9615 177.49C78.6539 179.346 78.3077 181.25 77.9231 183.105C77.5769 185.01 77.1923 186.865 76.6923 188.672Z" fill="#9FC6CC"/>
<path d="M70.7308 174.854C71.4231 174.951 72.0769 175.098 72.7692 175.244C73.4231 175.391 74.1154 175.586 74.7692 175.732C76.1154 176.074 77.4231 176.465 78.7308 176.904L78.2692 177.295C78.3846 176.514 78.4615 175.732 78.5769 174.951C78.6923 174.17 78.8077 173.389 78.9231 172.607C79.1923 171.045 79.4615 169.482 79.8077 167.92C79.7692 169.531 79.6539 171.143 79.5 172.705C79.4231 173.486 79.3462 174.316 79.2692 175.098C79.1923 175.879 79.0769 176.66 79 177.49C78.9615 177.734 78.7692 177.93 78.5769 177.881H78.5385C77.2308 177.441 75.9231 177.002 74.6154 176.514C73.9615 176.27 73.3077 176.025 72.6539 175.732C72 175.439 71.3462 175.146 70.7308 174.854Z" fill="#9FC6CC"/>
<path d="M97.2308 178.906C95.6538 178.906 94.1154 178.857 92.5769 178.809C91.0385 178.76 89.4615 178.662 87.9231 178.564C84.8077 178.369 81.6923 178.125 78.6154 177.881C78.4231 177.881 78.2692 177.637 78.2692 177.393C78.2692 177.295 78.3077 177.246 78.3461 177.148C78.9615 176.025 79.6154 174.902 80.2692 173.779C80.9231 172.656 81.5769 171.533 82.2308 170.459C82.8846 169.336 83.5385 168.262 84.2308 167.139C84.9231 166.064 85.5769 164.941 86.2692 163.867C85.6923 165.039 85.0769 166.211 84.5 167.383C83.9231 168.555 83.3077 169.678 82.6923 170.85C82.0769 171.973 81.4615 173.145 80.8461 174.268C80.2308 175.391 79.6154 176.562 78.9615 177.686L78.6923 176.953C81.8077 177.197 84.8846 177.441 88 177.783C89.5385 177.93 91.1154 178.125 92.6538 178.32C94.1538 178.467 95.6923 178.662 97.2308 178.906Z" fill="#9FC6CC"/>
</svg>
