<?xml version="1.0" encoding="UTF-8"?>
<svg id="iOS_Thumbnails" data-name="iOS Thumbnails" xmlns="http://www.w3.org/2000/svg" xmlns:xlink="http://www.w3.org/1999/xlink" viewBox="0 0 400 200">
  <defs>
    <style>
      .cls-1, .cls-2 {
        fill: none;
      }

      .cls-3 {
        clip-path: url(#clippath);
      }

      .cls-4 {
        fill: #fff;
      }

      .cls-5 {
        fill: #999;
      }

      .cls-6 {
        fill: #333;
      }

      .cls-7 {
        fill: #ddd;
      }

      .cls-8 {
        fill: #1b1b1b;
      }

      .cls-9 {
        fill: #949494;
      }

      .cls-2 {
        stroke: #949494;
        stroke-linecap: round;
        stroke-linejoin: round;
        stroke-width: 2px;
      }
    </style>
    <clipPath id="clippath">
      <rect id="Overlay-2" data-name="Overlay" class="cls-1" width="400" height="200"/>
    </clipPath>
  </defs>
  <rect id="Overlay" class="cls-7" width="400" height="200"/>
  <g class="cls-3">
    <g>
      <g>
        <rect x="116.26" y="24.32" width="167.49" height="341.72" rx="18.2" ry="18.2"/>
        <g>
          <rect class="cls-6" x="180.38" y="35.4" width="25.09" height="3.04" rx="1.52" ry="1.52" transform="translate(385.84 73.85) rotate(180)"/>
          <circle class="cls-6" cx="215.58" cy="36.92" r="4.05"/>
        </g>
        <path class="cls-8" d="m157.4,36.62h0c0,4.84,3.93,8.77,8.77,8.77h67.65c4.81,0,8.72-3.87,8.77-8.68v-.09c0-1.47,1.19-2.66,2.66-2.66h17.84c6.78,0,12.28,5.5,12.28,12.28v296.85c0,6.78-5.5,12.28-12.28,12.28h-126.19c-6.78,0-12.28-5.5-12.28-12.28V46.24c0-6.78,5.5-12.28,12.28-12.28h17.84c1.47,0,2.66,1.19,2.66,2.66Z"/>
      </g>
      <g>
        <rect id="b_g_stroke" data-name="b/g + stroke" class="cls-8" x="126.43" y="52.2" width="147.98" height="263.02"/>
        <rect class="cls-9" x="140.32" y="61.27" width="16.25" height="3.8" rx="1.9" ry="1.9"/>
        <polyline class="cls-2" points="136.31 67.02 132.49 63.2 136.16 59.53"/>
      </g>
    </g>
  </g>
  <g>
    <rect class="cls-4" x="143.84" y="85.25" width="112.32" height="94.2" rx="9.98" ry="9.98"/>
    <g>
      <rect class="cls-5" x="155.66" y="95.71" width="88.69" height="23.16" rx="4.63" ry="4.63"/>
      <rect class="cls-5" x="155.66" y="122.68" width="88.69" height="23.16" rx="4.63" ry="4.63"/>
      <rect class="cls-5" x="155.66" y="154.71" width="88.69" height="14.28" rx="3.72" ry="3.72"/>
    </g>
  </g>
</svg>