<?xml version="1.0" encoding="UTF-8"?>
<svg width="24px" height="24px" viewBox="0 0 24 24" version="1.1" xmlns="http://www.w3.org/2000/svg" xmlns:xlink="http://www.w3.org/1999/xlink">
    <title>icons/functional_UI/S-Z/mdpi/ic_Subtitles</title>
    <g id="icons/functional_UI/S-Z/ic_Subtitles" stroke="none" stroke-width="1" fill="none" fill-rule="evenodd">
        <path d="M19.8,2.99999996 L2.39999996,2.99999996 L2.39999996,15.6 C2.39999996,16.5941126 3.20588741,17.4 4.19999997,17.4 L14.4,17.4 L14.4,21 L18,17.4 L21.6,17.4 L21.6,4.79999997 C21.6,3.80588742 20.7941126,2.99999996 19.8,2.99999996 Z M5.39999997,11.4 L8.39999999,11.4 C8.73137084,11.4 8.99999999,11.6686291 8.99999999,12 C8.99999999,12.3313709 8.73137084,12.6 8.39999999,12.6 L5.39999997,12.6 C5.06862912,12.6 4.79999997,12.3313709 4.79999997,12 C4.79999997,11.6686291 5.06862912,11.4 5.39999997,11.4 Z M7.19999998,14.43432 C7.19903775,14.7652915 6.93097144,15.0333578 6.59999998,15.03432 L5.39999997,15.03432 C5.06902851,15.0333578 4.8009622,14.7652915 4.79999997,14.43432 L4.79999997,14.43432 C4.8009622,14.1033485 5.06902851,13.8352822 5.39999997,13.83432 L6.59999998,13.83432 C6.93097144,13.8352822 7.19903775,14.1033485 7.19999998,14.43432 L7.19999998,14.43432 L7.19999998,14.43432 Z M13.8,14.491608 C13.7991169,14.790973 13.556653,15.0334369 13.257288,15.03432 L8.94271199,15.03432 C8.64334697,15.0334369 8.40088305,14.790973 8.39999998,14.491608 L8.39999998,14.377032 C8.40088305,14.077667 8.64334697,13.8352031 8.94271199,13.83432 L13.257288,13.83432 C13.556653,13.8352031 13.7991169,14.077667 13.8,14.377032 L13.8,14.491608 Z M14.4,12.63432 L10.8,12.63432 C10.4690285,12.6333578 10.2009622,12.3652915 10.2,12.03432 L10.2,12.03432 C10.2009622,11.7033485 10.4690285,11.4352822 10.8,11.43432 L14.4,11.43432 C14.7309715,11.4352822 14.9990378,11.7033485 15,12.03432 L15,12.03432 C14.9990378,12.3652915 14.7309715,12.6333578 14.4,12.63432 L14.4,12.63432 Z M19.2,14.473056 C19.1991038,14.7826522 18.9483562,15.0334105 18.63876,15.03432 L15.56124,15.03432 C15.2516439,15.0334105 15.0008963,14.7826522 15,14.473056 L15,14.39556 C15.0008964,14.0859678 15.2516478,13.8352164 15.56124,13.83432 L18.63876,13.83432 C18.9483523,13.8352164 19.1991037,14.0859678 19.2,14.39556 L19.2,14.473056 L19.2,14.473056 Z M19.2,12.03432 C19.1990378,12.3652915 18.9309715,12.6333578 18.6,12.63432 L16.8,12.63432 C16.4690286,12.6333578 16.2009622,12.3652915 16.2,12.03432 L16.2,12.03432 C16.2009622,11.7033485 16.4690286,11.4352822 16.8,11.43432 L18.6,11.43432 C18.9309715,11.4352822 19.1990378,11.7033485 19.2,12.03432 L19.2,12.03432 L19.2,12.03432 Z" fill="#000000"></path>
    </g>
</svg>