<?xml version="1.0" encoding="UTF-8"?><svg id="BOY" xmlns="http://www.w3.org/2000/svg" viewBox="0 0 400 200"><g id="Overlay"><rect width="400" height="200" fill="#1b1b1b" stroke-width="0"/></g><path d="M117,200V42c0-9.94,8.06-18,18-18h130c9.94,0,18,8.06,18,18v158H117Z" fill="#666" stroke-width="0"/><rect x="180.55" y="34.98" width="24.86" height="3.01" rx="1.51" ry="1.51" fill="#1b1b1b" stroke-width="0"/><circle cx="215.44" cy="36.49" r="4.01" fill="#1b1b1b" stroke-width="0"/><path d="M125,200V46.18c0-6.73,5.47-12.18,12.22-12.18h17.75c1.46,0,2.65,1.18,2.65,2.64h0c0,4.81,3.91,8.7,8.73,8.7h67.32c4.78,0,8.68-3.84,8.73-8.61v-.09c0-1.46,1.19-2.64,2.65-2.64h17.75c6.75,0,12.22,5.46,12.22,12.18v153.82H125Z" fill="#1b1b1b" stroke-width="0"/><rect x="125" y="80" width="150" height="14" fill="#333" stroke-width="0"/><rect x="137" y="105" width="30" height="30" rx="8" ry="8" fill="#666" stroke-width="0"/><g id="Solairs_icon"><path id="My_Orange" d="M152.36,121.2c0-.66.54-1.2,1.2-1.2h3.88c-.54-1.09-1.44-1.97-2.54-2.49-2.02,1.72-4.98,1.72-7,0-1.89.89-3.1,2.8-3.1,4.9v4.81h0c0,1.33,1.07,2.4,2.4,2.4h5.16v-8.42ZM155.6,113.39c0,2.32-1.89,4.2-4.21,4.19-2.32,0-4.2-1.89-4.19-4.21,0-2.32,1.88-4.19,4.2-4.19,2.32,0,4.2,1.89,4.2,4.21h0ZM158.6,120.6h-5.04c-.33,0-.6.27-.6.6v9.02c0,.33.27.6.6.6h5.04c.33,0,.6-.27.6-.6v-9.02c0-.33-.27-.6-.6-.6h0ZM156.08,130.34c-.27,0-.48-.21-.48-.48,0-.27.21-.48.48-.48s.48.21.48.48h0c0,.27-.21.48-.48.48h0ZM158.24,128.9h-4.32v-7.21h4.32v7.21Z" fill="#fff" fill-rule="evenodd" stroke-width="0"/></g><rect x="125" y="146" width="150" height="1" fill="#cbcbcb" stroke-width="0"/><rect x="125" y="199" width="150" height="1" fill="#cbcbcb" stroke-width="0"/><rect x="125" y="93" width="150" height="1" fill="#989898" stroke-width="0"/><rect x="178" y="110" width="37.97" height="8" fill="#595959" stroke-width="0"/><rect x="178" y="124" width="56" height="6" fill="#595959" stroke-width="0"/><rect x="178" y="163" width="37.97" height="8" fill="#595959" stroke-width="0"/><rect x="178" y="177" width="56" height="6" fill="#595959" stroke-width="0"/><rect x="178" y="62" width="44" height="8" fill="#fff" stroke-width="0"/><path d="M140.62,71.04c-.35,0-.7-.13-.97-.4l-5.25-5.25c-.54-.54-.54-1.41,0-1.94l5.04-5.04c.54-.54,1.41-.54,1.94,0s.54,1.41,0,1.94l-4.07,4.07,4.28,4.28c.54.54.54,1.41,0,1.94-.27.27-.62.4-.97.4Z" fill="#666" stroke-width="0"/><path d="M255.18,115.26c.26,0,.51.1.71.29l3.82,3.82c.39.39.39,1.02,0,1.41l-3.67,3.67c-.39.39-1.02.39-1.41,0s-.39-1.02,0-1.41l2.96-2.96-3.11-3.11c-.39-.39-.39-1.02,0-1.41.2-.2.45-.29.71-.29Z" fill="#989898" stroke-width="0"/><path d="M255.18,168.26c.26,0,.51.1.71.29l3.82,3.82c.39.39.39,1.02,0,1.41l-3.67,3.67c-.39.39-1.02.39-1.41,0s-.39-1.02,0-1.41l2.96-2.96-3.11-3.11c-.39-.39-.39-1.02,0-1.41.2-.2.45-.29.71-.29Z" fill="#989898" stroke-width="0"/><rect x="136" y="158" width="30" height="30" rx="8" ry="8" fill="#666" stroke-width="0"/><g id="Solairs_icon-2"><path id="livebox_phone" d="M160.94,172.79h-3.73v7.49h0c0,1.03-.83,1.87-1.86,1.87h-8.7c-1.03,0-1.86-.84-1.86-1.87h0v-7.49h-3.73l8.07-8.11h.02c.92-1.02,2.48-1.1,3.5-.19.08.07.15.15.22.23l8.06,8.07ZM150.23,176.69c-.84-.84-1.64-1.81-1.26-2.2.96-.96,1.03-.89.05-2.1-.97-1.21-.85-1.05-2.15.25-.61.62-.03,2.91,2.23,5.17,2.26,2.27,4.55,2.85,5.16,2.23,1.3-1.31,1.46-1.18.25-2.16-1.21-.97-1.14-.91-2.1.05-.38.38-1.35-.42-2.19-1.26Z" fill="#fff" fill-rule="evenodd" stroke-width="0"/></g></svg>