<?xml version="1.0" encoding="UTF-8"?><svg id="BOY" xmlns="http://www.w3.org/2000/svg" xmlns:xlink="http://www.w3.org/1999/xlink" viewBox="0 0 400 200"><defs><clipPath id="clippath"><path d="M125,200V46.18c0-6.73,5.47-12.18,12.22-12.18h17.75c1.46,0,2.65,1.18,2.65,2.64h0c0,4.81,3.91,8.7,8.73,8.7h67.32c4.78,0,8.68-3.84,8.73-8.61v-.09c0-1.46,1.19-2.64,2.65-2.64h17.75c6.75,0,12.22,5.46,12.22,12.18v153.82H125Z" fill="none" stroke-width="0"/></clipPath></defs><g id="Overlay"><rect width="400" height="200" fill="#1b1b1b" stroke-width="0"/></g><path d="M117,200V42c0-9.94,8.06-18,18-18h130c9.94,0,18,8.06,18,18v158H117Z" fill="#666" stroke-width="0"/><rect x="180.55" y="34.98" width="24.86" height="3.01" rx="1.51" ry="1.51" fill="#1b1b1b" stroke-width="0"/><circle cx="215.44" cy="36.49" r="4.01" fill="#1b1b1b" stroke-width="0"/><g clip-path="url(#clippath)"><rect x="125" y="33" width="150" height="167" fill="#1b1b1b" stroke-width="0"/><rect x="134" y="59" width="25" height="6" fill="#666" stroke-width="0"/><rect x="136" y="72" width="72" height="8" fill="#595959" opacity=".72" stroke-width="0"/><rect x="184" y="96" width="40" height="8" fill="#595959" opacity=".72" stroke-width="0"/><rect x="184" y="112" width="56" height="8" fill="#595959" opacity=".72" stroke-width="0"/><rect x="125.08" y="134" width="149.85" height="2" fill="#595959" opacity=".72" stroke-width="0"/><path d="M258.31,114.17c-.26,0-.51-.1-.71-.29-.39-.39-.39-1.02,0-1.41l4.36-4.36-4.57-4.57c-.39-.39-.39-1.02,0-1.41s1.02-.39,1.41,0l5.28,5.28c.39.39.39,1.02,0,1.41l-5.07,5.07c-.2.2-.45.29-.71.29Z" fill="#595959" opacity=".72" stroke-width="0"/><circle cx="156" cy="108" r="12" fill="#eee" opacity=".72" stroke-width="0"/><rect x="184" y="144" width="40" height="8" fill="#595959" opacity=".72" stroke-width="0"/><rect x="184" y="160" width="56" height="8" fill="#595959" opacity=".72" stroke-width="0"/><rect x="125.08" y="182" width="149.85" height="2" fill="#595959" opacity=".72" stroke-width="0"/><path d="M258.31,162.17c-.26,0-.51-.1-.71-.29-.39-.39-.39-1.02,0-1.41l4.36-4.36-4.57-4.57c-.39-.39-.39-1.02,0-1.41s1.02-.39,1.41,0l5.28,5.28c.39.39.39,1.02,0,1.41l-5.07,5.07c-.2.2-.45.29-.71.29Z" fill="#595959" opacity=".72" stroke-width="0"/><circle cx="156" cy="156" r="12" fill="#eee" opacity=".72" stroke-width="0"/><rect x="184" y="192" width="40" height="8" fill="#595959" opacity=".72" stroke-width="0"/><path d="M258.31,210.17c-.26,0-.51-.1-.71-.29-.39-.39-.39-1.02,0-1.41l4.36-4.36-4.57-4.57c-.39-.39-.39-1.02,0-1.41s1.02-.39,1.41,0l5.28,5.28c.39.39.39,1.02,0,1.41l-5.07,5.07c-.2.2-.45.29-.71.29Z" fill="#595959" opacity=".72" stroke-width="0"/><circle cx="156" cy="204" r="12" fill="#eee" opacity=".72" stroke-width="0"/></g></svg>