<svg width="251" height="251" viewBox="0 0 251 251" fill="none" xmlns="http://www.w3.org/2000/svg">
<g clip-path="url(#clip0_1504_1826)">
<g clip-path="url(#clip1_1504_1826)">
<mask id="mask0_1504_1826" style="mask-type:luminance" maskUnits="userSpaceOnUse" x="0" y="0" width="251" height="251">
<rect x="0.5" y="0.5" width="250" height="250" fill="white"/>
</mask>
<g mask="url(#mask0_1504_1826)">
<path d="M91.6136 171.911C92.3704 167.663 96.4275 164.833 100.675 165.59C104.923 166.347 107.753 170.404 106.996 174.652C104.297 189.804 107.194 203.214 113.752 214.462C115.925 218.19 114.664 222.973 110.937 225.146C107.209 227.319 102.426 226.059 100.253 222.332C91.9208 208.039 88.2245 190.932 91.6136 171.911Z" fill="#4BB4E6"/>
<path fill-rule="evenodd" clip-rule="evenodd" d="M128.581 249.725C128.585 249.741 128.587 249.748 128.587 249.748L123.618 236.736C123.689 236.798 123.758 236.86 123.825 236.921L123.542 236.537L123.618 236.736C123.152 236.328 122.606 235.889 121.982 235.387C120.07 233.85 117.422 231.721 114.098 228.08C107.484 220.836 94.3767 201.37 99.3824 173.281L102.964 182.658L169.079 180.92L179.229 224.481L188.608 238.214L196.183 249.748H195.674H128.588L128.581 249.725Z" fill="white"/>
<path d="M97.075 172.87L101.69 173.693C97.7623 195.731 104.739 214.354 115.829 226.5L116.068 226.759L116.58 227.295C116.668 227.386 116.758 227.478 116.85 227.571L117.708 228.422L118.314 229.004L119.256 229.888L120.221 230.773L122.445 232.757L126.029 235.884L126.38 236.204L126.522 236.343C126.539 236.36 126.552 236.376 126.562 236.388C127.075 237.019 127.446 237.676 127.673 238.404L128.485 241.084L130.838 249.094L126.337 250.403L123.883 242.057L123.199 239.802C123.161 239.678 123.08 239.536 122.923 239.343L121.059 237.766L119.834 236.713L117.843 234.959L116.937 234.14L116.327 233.58C114.904 232.265 113.492 230.892 112.367 229.661C107.726 224.577 103.271 217.55 100.188 209.32C96.1498 198.541 94.8054 186.673 96.893 173.934L97.075 172.87Z" fill="black"/>
<path fill-rule="evenodd" clip-rule="evenodd" d="M62.2987 116.877C62.2987 116.877 56.2019 118.457 53.1164 119.511C50.0302 120.565 49.5124 122.317 49.3351 127.728C49.1577 133.139 49.6015 142.754 49.7788 144.174C49.9562 145.593 49.9747 148.355 51.2881 150.406C52.0673 151.624 59.7126 152.476 60.8657 146.711C62.0188 140.945 66.011 134.026 66.011 134.026" fill="white"/>
<path d="M61.7106 114.608L62.8869 119.145L61.6324 119.476L59.3076 120.108L57.4818 120.622L56.0721 121.034L54.8683 121.403L54.1809 121.625L53.7176 121.784L53.4285 121.897L53.1696 122.019C52.5177 122.362 52.1676 122.861 51.9621 123.992L51.8916 124.447C51.8701 124.609 51.8506 124.782 51.8327 124.966L51.7837 125.556C51.7762 125.661 51.7691 125.768 51.7623 125.879L51.7247 126.586L51.6776 127.805L51.6552 128.728C51.6524 128.892 51.6501 129.061 51.6482 129.234L51.6421 130.318L51.6509 132.087L51.6911 134.602L51.7543 137.049L51.8447 139.603L51.9123 141.11L51.9827 142.388L52.0357 143.157L52.1045 143.883L52.125 144.057L52.2812 145.636L52.3499 146.24L52.4176 146.7L52.4682 146.968L52.5616 147.374C52.5736 147.421 52.5861 147.471 52.5993 147.522C52.6995 147.911 52.8186 148.262 52.9576 148.573L53.0547 148.772L53.2151 148.814L53.3903 148.851C54.0338 148.974 54.8185 148.986 55.5549 148.864C57.2359 148.587 58.2646 147.765 58.5675 146.251C58.7427 145.375 58.98 144.458 59.2737 143.503C59.7604 141.922 60.3931 140.264 61.1371 138.564C61.7565 137.149 62.4185 135.783 63.0809 134.513L63.5745 133.586L63.9809 132.855L68.041 135.198L67.7187 135.776L67.2368 136.681C66.621 137.862 66.0048 139.134 65.4312 140.444C64.7541 141.991 64.1834 143.486 63.7539 144.882C63.5669 145.49 63.4087 146.072 63.2811 146.626L63.1639 147.17C61.8091 153.944 51.8238 155.592 49.3142 151.67C48.7462 150.783 48.3428 149.79 48.0597 148.69C47.8861 148.016 47.7627 147.323 47.6675 146.561L47.6008 145.973L47.4531 144.464L47.3949 143.894L47.3358 143.123L47.2388 141.462L47.1312 139.003L47.0418 136.241L46.9935 134.156L46.9673 132.48L46.9553 130.873L46.9592 129.382L46.9716 128.474L46.9926 127.651L47.0103 127.166L47.0557 126.241C47.0644 126.092 47.0738 125.945 47.0838 125.801L47.1518 124.964C47.5848 120.384 48.8498 118.491 52.3591 117.293L53.4405 116.939L55.1913 116.406L56.1884 116.116L57.11 115.854L59.0154 115.327L61.7106 114.608Z" fill="black"/>
<path fill-rule="evenodd" clip-rule="evenodd" d="M66.219 94.4919C66.219 94.4919 59.1235 96.3317 55.5324 97.5582C51.9405 98.784 51.3365 100.824 51.13 107.122C50.9241 113.419 51.9569 124.569 52.1634 126.221C52.3693 127.872 52.5758 131.589 53.0922 134.377C53.6086 137.164 63.209 135.925 64.5516 129.214C65.8935 122.504 70.5395 114.451 70.5395 114.451" fill="white"/>
<path d="M65.6307 92.2231L66.8072 96.7606L64.8398 97.2817C63.731 97.5795 62.6225 97.8834 61.5568 98.1835L59.9331 98.6477L58.861 98.9638L57.454 99.3952C57.3108 99.4405 57.172 99.4848 57.0378 99.5281L56.2893 99.7763L55.9409 99.9024C54.7768 100.353 54.1855 100.922 53.86 102.486L53.774 102.961L53.7008 103.494L53.6389 104.09C53.6295 104.195 53.6204 104.303 53.6117 104.413L53.5427 105.491L53.4883 106.74C53.4828 106.889 53.4776 107.042 53.4725 107.198C53.4508 107.862 53.445 108.624 53.4526 109.455L53.4736 110.75L53.5124 112.126L53.5671 113.562L53.6356 115.035L53.7158 116.523L53.8059 118.004L53.9037 119.456L54.0605 121.53L54.1687 122.812L54.3317 124.529L54.4377 125.503L54.5008 126.032L54.9988 131.143L55.1266 132.203L55.2382 132.999L55.2977 133.378C55.863 133.475 56.645 133.424 57.4732 133.214L57.8304 133.115C60.1384 132.413 61.8361 130.84 62.2534 128.754C62.4546 127.748 62.7277 126.693 63.066 125.593C63.6277 123.768 64.3588 121.852 65.219 119.887C65.7927 118.576 66.3981 117.301 67.01 116.091L67.668 114.818L68.5094 113.28L72.5696 115.623L72.3188 116.07L71.811 117.011L71.6259 117.363C70.9054 118.745 70.1845 120.233 69.5132 121.766C68.7199 123.579 68.0507 125.332 67.5462 126.972C67.2522 127.927 67.0184 128.831 66.8498 129.674C66.059 133.627 63.0297 136.434 59.1937 137.6C55.3462 138.769 51.3964 138.09 50.7877 134.803C50.6602 134.115 50.5464 133.358 50.441 132.517L50.3178 131.454L49.8378 126.511L49.7835 126.061L49.6721 125.04L49.5018 123.255L49.3892 121.926L49.2797 120.512L49.1754 119.035L49.0783 117.517L48.9507 115.211L48.8806 113.687L48.825 112.198L48.7858 110.768L48.7651 109.417C48.7579 108.549 48.7645 107.748 48.7875 107.045L48.8268 106.05L48.8785 105.114L48.9441 104.235C49.4067 98.8375 50.7924 96.6992 54.7749 95.3402L55.5822 95.0723L56.4957 94.7836L57.5106 94.475L58.6238 94.1468L59.2132 93.9765C59.916 93.7747 60.643 93.5701 61.3822 93.3656L63.6239 92.7547L65.6307 92.2231Z" fill="black"/>
<path fill-rule="evenodd" clip-rule="evenodd" d="M61.044 118.011C61.044 118.011 61.6181 144.182 58.4557 147.425C58.4557 147.425 64.7983 146.196 63.8332 132.42C62.9314 119.556 61.5767 114.323 61.5767 114.323L61.044 118.011Z" fill="#FF7900"/>
<path d="M61.524 61.9197C65.6828 60.7704 69.9859 63.2101 71.1353 67.3689C72.2535 71.4153 69.9742 75.5984 66.0195 76.8802L65.975 76.8918L65.8434 76.9651L65.7475 77.0201C65.3787 77.2355 64.9067 77.5523 64.3832 77.9393C63.3724 78.6864 62.2836 79.613 61.6032 80.282C61.2789 80.6009 60.9958 81.4515 60.7836 82.6917L60.6909 83.2913L60.6088 83.9431L60.5381 84.644L60.4795 85.3909L60.4335 86.1808C60.427 86.3159 60.4209 86.4526 60.4155 86.5909L60.3897 87.4393C60.3866 87.5837 60.3841 87.7296 60.3822 87.8769L60.3781 88.7769C60.3787 88.9295 60.3799 89.0834 60.3818 89.2385L60.4009 90.1831C60.4054 90.3428 60.4106 90.5035 60.4165 90.6653L60.4602 91.6474C60.4689 91.813 60.4784 91.9794 60.4885 92.1467L60.5583 93.1595C60.5846 93.5 60.6139 93.8433 60.6463 94.1888L60.7532 95.2316C60.792 95.5811 60.8341 95.9323 60.8795 96.2847L61.026 97.345C61.0521 97.5221 61.0791 97.6995 61.107 97.8769C61.7768 102.139 58.8643 106.138 54.6019 106.807C50.3395 107.477 46.3412 104.565 45.6714 100.302L45.4575 98.8696L45.2682 97.4479L45.1039 96.0385C45.0282 95.3371 44.9621 94.6408 44.906 93.9504L44.8072 92.5777C44.1825 82.5726 45.7599 73.9473 50.6486 69.1403C53.8257 66.0168 58.0813 62.8712 61.524 61.9197Z" fill="#FF8AD4"/>
<path fill-rule="evenodd" clip-rule="evenodd" d="M75.8496 70.663C72.1046 69.0455 67.7392 68.3304 63.6872 69.4501C61.6203 70.0213 57.9386 73.0092 56.2079 74.7115C52.1174 78.7336 52.0576 90.0918 53.4714 99.0897C54.8852 108.087 55.2706 111.3 57.97 111.557C60.6701 111.814 66.2556 109.222 67.9743 104.502C69.6124 100.003 67.881 83.0021 67.881 83.0021" fill="white"/>
<path d="M63.063 67.191C67.2289 66.0398 71.845 66.5101 76.2109 68.274L76.7789 68.5114L74.9203 72.8146C71.309 71.2549 67.5446 70.8158 64.3116 71.7091C63.9045 71.8216 63.3056 72.1358 62.6135 72.5756L61.9998 72.9815C61.3678 73.4146 60.6881 73.9239 60.0228 74.4615L59.3645 75.0068C58.8237 75.4661 58.3073 75.934 57.8511 76.3826C55.6756 78.5218 54.7154 84.3768 55.0363 91.4032L55.1017 92.5847C55.1532 93.379 55.2206 94.186 55.3039 95.0022L55.4408 96.2331C55.4905 96.6454 55.5441 97.0595 55.6018 97.4751L55.7868 98.7258L56.6995 104.412L56.8833 105.392L57.0354 106.147L57.1839 106.813L57.3296 107.395C57.3778 107.575 57.4257 107.741 57.4733 107.895L57.6155 108.319C57.6864 108.513 57.7571 108.679 57.828 108.821L57.9948 109.12C58.0308 109.176 58.0546 109.199 58.0919 109.21L58.1922 109.224C60.4437 109.438 64.6247 106.851 65.772 103.7C65.8486 103.49 65.9175 103.225 65.9787 102.911L66.0645 102.401L66.1386 101.82C66.1614 101.614 66.1821 101.397 66.2009 101.169L66.2514 100.451L66.29 99.6702L66.3166 98.8282C66.3201 98.683 66.323 98.5354 66.3254 98.3854L66.334 97.4576L66.3306 96.4763L66.3149 95.4444L66.2871 94.3647C66.2367 92.7278 66.1495 90.9983 66.034 89.2279L65.8898 87.1843L65.7817 85.819L65.5493 83.2395L70.2127 82.7646L70.34 84.1178L70.509 86.1216L70.6176 87.5558C70.7832 89.8503 70.9072 92.1035 70.9724 94.2205L71.0051 95.4984L71.0223 96.714L71.0232 97.8666L71.0071 98.9557L70.9732 99.9805C70.9589 100.311 70.9414 100.631 70.9208 100.94L70.8492 101.835C70.7133 103.271 70.4942 104.432 70.1766 105.304C68.2928 110.478 62.1071 114.305 57.7478 113.89C54.807 113.61 53.5043 111.758 52.5555 107.596L52.3701 106.732L52.072 105.165L51.2967 100.348L51.1561 99.4535C50.9792 98.3275 50.8276 97.2099 50.7022 96.1057L50.5643 94.7875C49.6465 85.1725 50.7839 76.7578 54.5644 73.0405C57.1103 70.5364 60.7848 67.8205 63.063 67.191Z" fill="black"/>
<path fill-rule="evenodd" clip-rule="evenodd" d="M63.0368 78.9287C63.0368 78.9287 63.7384 105.1 59.8723 108.343C59.8723 108.343 67.6272 107.114 66.447 93.3376C65.3445 80.4743 63.6878 75.24 63.6878 75.24L63.0368 78.9287Z" fill="#FF7900"/>
<path fill-rule="evenodd" clip-rule="evenodd" d="M81.2347 43.5106C81.2347 43.5106 72.7461 29.111 71.5338 27.5947C70.3208 26.079 66.531 22.1381 64.7126 20.1673C62.8935 18.1965 51.6478 25.4465 59.0751 41.0591C66.5025 56.6716 75.5972 69.4045 75.5972 69.4045" fill="white"/>
<path d="M56.4166 22.8137C59.01 18.4909 63.9073 15.8393 66.4351 18.578L70.9467 23.4027L71.9852 24.5377L72.6057 25.2337L73.2387 25.976L73.4326 26.2186L73.6866 26.5709L74.0147 27.0565L74.89 28.4204L76.0524 30.2959L78.0382 33.5676L79.7636 36.4436L83.2537 42.3204L79.2156 44.7008L76.4009 39.9558L73.5668 35.2307L71.4872 31.8241L70.3262 29.9766L69.8688 29.2854L69.7493 29.1182L69.5976 28.9283L69.1929 28.452L68.2245 27.369L66.8753 25.9067L63.4897 22.295L63.3209 22.3716L63.1357 22.4657C62.1993 22.9727 61.2043 23.9449 60.4362 25.2252C58.2974 28.7902 58.2297 33.8263 61.1916 40.0522C62.2826 42.3455 63.4479 44.6556 64.6777 46.973C67.487 52.2673 70.4996 57.3607 73.5116 62.064L74.3953 63.4324L75.2383 64.7157L76.0369 65.9105L76.641 66.7997L77.5044 68.0422L73.69 70.7667L73.1943 70.0593L72.1515 68.5328L71.3323 67.3072L70.4687 65.9925L69.5642 64.5919C66.4871 59.7871 63.4107 54.5857 60.537 49.1702C59.2761 46.794 58.08 44.4229 56.9587 42.0659C53.3468 34.4736 53.4368 27.7807 56.4166 22.8137Z" fill="black"/>
<path fill-rule="evenodd" clip-rule="evenodd" d="M78.3885 55.853L59.533 26.9541C59.533 26.9541 57.5359 32.8907 62.5964 42.7468C67.6577 52.603 75.85 65.9213 75.85 65.9213L78.3885 55.853Z" fill="#FF7900"/>
<path fill-rule="evenodd" clip-rule="evenodd" d="M92.9735 1.24159L171.003 7.75156C175.304 8.12407 178.485 11.9211 178.098 16.2209L162.54 189.164C162.146 193.546 158.207 196.735 153.838 196.208L57.9714 184.655C53.4123 184.106 50.3126 179.754 51.2812 175.266L84.6772 7.36623C85.5063 3.52649 89.0604 0.902557 92.9735 1.24159Z" fill="black"/>
<path fill-rule="evenodd" clip-rule="evenodd" d="M94.7166 5.33388L168.447 12.3567C170.966 12.6864 172.586 14.3567 172.313 17.2527L155.4 185.624C155.08 187.993 152.868 190.108 149.833 189.83L62.0841 179.913C59.4346 179.55 57.6433 176.585 58.1725 173.957L89.8391 9.46422C90.3762 7.02761 91.8897 5.04399 94.7166 5.33388ZM105.313 6.33373C108.901 6.67561 107.699 12.2233 114.284 12.8216C120.87 13.4206 144.078 15.4961 148.302 15.8665C153.378 16.3124 155.398 11.1044 160.489 11.5887" fill="white"/>
<path fill-rule="evenodd" clip-rule="evenodd" d="M133.646 9.50204C133.646 10.4379 132.887 11.1972 131.95 11.1972C131.015 11.1972 130.255 10.4379 130.255 9.50204C130.255 8.56614 131.015 7.80688 131.95 7.80688C132.887 7.80688 133.646 8.56614 133.646 9.50204Z" fill="white"/>
<path fill-rule="evenodd" clip-rule="evenodd" d="M97.9743 173.734C97.9743 169.335 101.541 165.768 105.941 165.768C110.34 165.768 113.908 169.335 113.908 173.734C113.908 178.134 110.341 181.701 105.941 181.701C101.541 181.701 97.9743 178.134 97.9743 173.734ZM112.345 173.734C112.345 170.198 109.477 167.331 105.941 167.331C102.404 167.331 99.5368 170.198 99.5368 173.734C99.5368 177.271 102.404 180.138 105.941 180.138C109.478 180.138 112.345 177.271 112.345 173.734Z" fill="black"/>
<path d="M190.03 99.8619C194.714 99.0922 199.134 102.265 199.904 106.948L207.81 155.184L207.87 155.5C208.95 161.173 208.831 166.308 207.729 171.466L207.193 173.911L199.433 212.616L198.572 216.697L198.339 217.716L198.143 218.512L197.886 219.607L197.669 220.609C197.537 221.246 197.432 221.821 197.354 222.335L197.269 222.965L197.224 223.411L197.202 223.75L197.275 224.075C198.103 228.158 195.858 232.308 191.9 233.807L191.566 233.926C187.063 235.426 182.196 232.992 180.697 228.489C179.659 225.373 179.784 222.177 180.72 217.624L180.983 216.405L181.281 215.119L181.77 213.083L182.944 207.463L186.159 191.43L190.022 172.089L190.623 169.196L190.809 168.374C191.501 165.41 191.639 162.631 191.11 159.413L190.598 156.515L189.127 147.643L182.944 109.735C182.174 105.052 185.347 100.632 190.03 99.8619Z" fill="#085EBD"/>
<path fill-rule="evenodd" clip-rule="evenodd" d="M195.675 249.748C195.675 249.748 189.563 227.723 188.913 225.773C188.263 223.823 189.014 219.837 190.012 215.846C191.01 211.855 198.368 174.068 199.241 170.327C200.113 166.585 200.488 162.345 199.49 157.107C198.492 151.869 189.237 93.7057 188.178 88.9421C187.116 84.1786 173.483 85.4927 171.841 97.3196C170.197 109.146 168.884 133.62 168.227 138.384C167.57 143.147 166.499 143.671 162.314 149.389C158.519 154.573 146.472 167.077 138.073 205.062" fill="white"/>
<path fill-rule="evenodd" clip-rule="evenodd" d="M172.677 112.102L172.927 109.191L173.142 106.823L173.363 104.531L173.583 102.419L173.728 101.109L173.945 99.2899L174.162 97.6422C174.774 93.2391 177.406 90.2848 180.948 89.1395C182.379 88.677 183.798 88.5926 184.842 88.8526C185.56 89.0315 185.85 89.2726 185.89 89.4518L186.058 90.2879L186.535 92.9342L187.628 99.3763L196.505 153.644L197.334 158.366C198.008 162.437 197.833 166.046 196.958 169.794L196.471 172.05L190.597 201.44L188.568 211.453L187.841 214.849L187.591 215.872L187.32 217.016L187.079 218.098C187.041 218.273 187.005 218.446 186.97 218.617L186.776 219.611C186.215 222.67 186.146 224.883 186.689 226.514L186.778 226.796L187.656 229.814L193.416 250.375L197.933 249.122L196.413 243.658L193.169 232.073L191.49 226.193L191.097 224.895C190.978 224.411 190.973 223.641 191.079 222.618L191.156 221.974C191.165 221.907 191.174 221.839 191.184 221.77C191.19 221.724 191.197 221.677 191.204 221.63L191.32 220.898L191.462 220.108L191.63 219.264L191.823 218.366C191.842 218.283 191.86 218.2 191.879 218.116C191.896 218.044 191.913 217.971 191.93 217.897L192.161 216.921L192.286 216.415L192.646 214.832L194.453 206.046L200.12 177.661L201.301 171.858L201.694 170.091C202.614 165.743 202.706 161.466 201.793 156.669L201.656 155.954L201.407 154.544L193.043 103.367L191.161 92.182L190.702 89.6205L190.507 88.6279L190.392 88.1404C189.309 84.3034 184.311 83.1257 179.506 84.6794C174.303 86.3618 170.386 90.7577 169.519 96.9972C169.496 97.1647 169.473 97.3347 169.449 97.5075L169.31 98.5767L169.172 99.7115L169.033 100.913L168.894 102.181L168.684 104.213L168.402 107.166L168.043 111.26L167.752 114.816L166.917 125.863L166.169 135.25L165.967 137.502L165.918 137.963L165.845 138.481C165.599 140.092 165.305 141.032 164.792 141.962L164.581 142.327L164.332 142.72C164.241 142.858 164.143 143.003 164.034 143.159L163.674 143.662L163.242 144.246L161.187 146.97L160.422 148.005L160.2 148.301L157.888 151.297L157.117 152.318C156.007 153.807 154.978 155.275 153.921 156.902C150.489 162.184 147.3 168.35 144.302 175.932C141.073 184.097 138.214 193.57 135.784 204.556L140.361 205.568L140.688 204.111C142.992 193.982 145.669 185.223 148.661 177.655C151.543 170.366 154.588 164.477 157.851 159.457C159.051 157.61 160.213 155.979 161.522 154.261L163.983 151.07L165.098 149.567L167.548 146.305L168.011 145.649C168.365 145.134 168.644 144.686 168.898 144.224C169.761 142.657 170.218 141.103 170.548 138.704L170.628 137.978L170.951 134.279L172.677 112.102ZM189.867 180.591C191.528 176.318 192.979 172.585 194.316 169.863C193.971 184.46 181.894 223.887 181.894 223.887L188.108 249.749H164.646L158.76 225.955C174.965 218.92 183.81 196.17 189.867 180.591Z" fill="black"/>
<path fill-rule="evenodd" clip-rule="evenodd" d="M175.238 96.6191C175.238 96.6191 173 134.034 172.605 139.053C172.208 144.073 170.466 148.181 165.033 153.224C159.6 158.267 150.162 174.69 144.989 195.381C144.989 195.381 152.264 173.608 169.08 161.182C182.391 151.344 176.345 117.779 176.89 100.576C177.008 96.8357 175.238 96.6191 175.238 96.6191Z" fill="#FF7900"/>
<path fill-rule="evenodd" clip-rule="evenodd" d="M116.518 93.8186L121.507 94.2389L124.387 82.0551L118.406 81.5095L116.518 93.8186ZM115.349 101.026L120.143 101.605L121.071 96.5963L116.239 96.1262L115.349 101.026Z" fill="white"/>
</g>
</g>
</g>
<path fill-rule="evenodd" clip-rule="evenodd" d="M92.5369 79.8969C96.7036 75.7302 104.805 67.5021 108.971 63.3354L92.5369 79.8969Z" stroke="black" stroke-width="3"/>
<path fill-rule="evenodd" clip-rule="evenodd" d="M92.5369 63.3354C95.6619 67.5021 104.558 75.7302 107.683 79.8969L92.5369 63.3354Z" stroke="black" stroke-width="3"/>
<path d="M128.222 84.5269C132.909 79.8394 140.301 72.0269 144.989 67.3394" stroke="black" stroke-width="3"/>
<path fill-rule="evenodd" clip-rule="evenodd" d="M128.222 65.7769C128.222 65.7769 144.989 86.364 144.989 86.364L128.222 65.7769Z" stroke="black" stroke-width="3"/>
<path d="M94.2202 108.59C105.941 89.2767 133.896 97.7884 138.073 115.831" stroke="black" stroke-width="3"/>
<defs>
<clipPath id="clip0_1504_1826">
<rect width="250" height="250" fill="white" transform="translate(0.5 0.5)"/>
</clipPath>
<clipPath id="clip1_1504_1826">
<rect width="250" height="250" fill="white" transform="translate(0.5 0.5)"/>
</clipPath>
</defs>
</svg>
