<svg width="251" height="250" viewBox="0 0 251 250" fill="none" xmlns="http://www.w3.org/2000/svg">
<g clip-path="url(#clip0_1504_1691)">
<path fill-rule="evenodd" clip-rule="evenodd" d="M167.006 183.464C174.17 183.464 180.571 180.701 184.841 176.361C185 176.254 185.163 176.158 185.317 176.037C187.052 174.197 188.407 172.088 189.288 169.794C189.664 168.621 189.93 167.347 190.095 166.013C190.131 165.759 190.158 165.504 190.183 165.246C190.21 164.941 190.223 164.628 190.238 164.316C190.247 164.086 190.279 163.861 190.279 163.629C190.279 163.578 190.27 163.53 190.27 163.479C190.27 163.4 190.279 163.323 190.279 163.245C190.279 162.1 190.186 160.992 190.029 159.925C189.111 155.788 186.687 152.107 183.259 149.308C183.174 149.279 183.084 149.268 182.997 149.243C178.826 145.874 173.206 143.794 167.006 143.794C154.152 143.794 143.733 152.674 143.733 163.629C143.733 174.583 154.152 183.464 167.006 183.464Z" fill="white"/>
<path fill-rule="evenodd" clip-rule="evenodd" d="M189.142 212.523C189.142 210.925 188.299 209.517 187.017 208.675V200.2C188.946 199.241 190.279 197.336 190.279 195.116C190.279 191.94 187.58 189.364 184.253 189.364C184.233 189.364 184.215 189.369 184.195 189.369L181.021 185.447H168.659H157.744H145.383L141.617 190.241V217.148L146.752 222.377H148.859V225.419H147.343L149.275 230.374L148.25 235.035H154.565L155.902 231.053L155.176 225.419H154.386V222.377H159.113H168.202H180.564L181.49 221.237V225.419H180.583L182.515 230.374L181.49 235.035H187.806L189.142 231.053L188.416 225.419H187.017V216.37C188.299 215.529 189.142 214.121 189.142 212.523Z" fill="white"/>
<path fill-rule="evenodd" clip-rule="evenodd" d="M158.543 185.447C165.707 185.447 172.109 182.684 176.378 178.345C176.537 178.238 176.7 178.142 176.855 178.021C178.589 176.18 179.945 174.071 180.825 171.777C181.201 170.604 181.468 169.33 181.632 167.997C181.668 167.742 181.695 167.487 181.72 167.23C181.747 166.924 181.76 166.611 181.775 166.3C181.784 166.07 181.816 165.844 181.816 165.612C181.816 165.562 181.807 165.513 181.807 165.462C181.808 165.384 181.816 165.307 181.816 165.228C181.816 164.083 181.723 162.975 181.566 161.908C180.648 157.772 178.224 154.09 174.797 151.292C174.711 151.263 174.621 151.252 174.534 151.227C170.363 147.858 164.744 145.777 158.543 145.777C145.69 145.777 135.27 154.658 135.27 165.612C135.27 176.567 145.69 185.447 158.543 185.447Z" fill="#FF7900"/>
<path fill-rule="evenodd" clip-rule="evenodd" d="M182.796 214.506C182.796 212.908 181.953 211.5 180.671 210.659V202.183C182.6 201.224 183.932 199.32 183.932 197.099C183.932 193.924 181.234 191.347 177.907 191.347C177.887 191.347 177.868 191.353 177.849 191.353L174.673 187.431H162.312H151.397H139.035L135.27 192.225V219.131L140.404 224.361H142.512V227.403H140.996L142.928 232.358L141.903 237.018H148.218L149.555 233.036L148.829 227.403H148.039V224.361H152.766H161.856H174.216L175.144 223.22V227.403H174.235L176.169 232.358L175.144 237.018H181.459L182.796 233.036L182.07 227.403H180.671V218.353C181.953 217.512 182.796 216.104 182.796 214.506Z" fill="#FF7900"/>
<path fill-rule="evenodd" clip-rule="evenodd" d="M145.848 227.101H152.196V213.216H145.848V227.101Z" fill="black"/>
<path fill-rule="evenodd" clip-rule="evenodd" d="M145.848 227.101H152.196V213.216H145.848V227.101Z" stroke="#FF7900" stroke-width="0.5"/>
<path fill-rule="evenodd" clip-rule="evenodd" d="M143.733 227.101H151.477L152.196 232.911L150.873 237.018H144.629L145.644 232.211L143.733 227.101Z" fill="black"/>
<path fill-rule="evenodd" clip-rule="evenodd" d="M143.733 227.101H151.477L152.196 232.911L150.873 237.018H144.629L145.644 232.211L143.733 227.101Z" stroke="#FF7900" stroke-width="0.5"/>
<path fill-rule="evenodd" clip-rule="evenodd" d="M112.835 94.2065C112.835 94.2065 115.846 93.6834 116.63 93.5412C117.414 93.399 118.209 86.2082 118.334 85.3459C118.459 84.4826 117.38 77.6392 116.594 76.7139C115.81 75.7876 113.246 72.9438 111.935 72.3497C110.625 71.7565 106.412 70.5388 105.241 70.4138C104.071 70.2889 105.344 71.463 104.839 71.5504C104.334 71.6377 97.6294 72.6005 96.296 73.3186C94.9616 74.0367 96.9081 75.7237 96.4753 76.9729C96.0436 78.2222 94.4797 78.4944 95.3103 80.6384C96.142 82.7814 94.4141 83.6234 96.6338 86.5221C98.8545 89.4218 100.712 92.0208 100.712 92.0208L102.17 92.9329L112.835 94.2065Z" fill="white"/>
<path fill-rule="evenodd" clip-rule="evenodd" d="M100.141 90.0429L99.4448 93.6891C99.4448 93.6891 87.2423 99.6224 85.0411 100.988C82.8388 102.353 68.6368 119.541 67.6218 121.509C66.6068 123.479 79.8851 141.81 79.8851 141.81L84.4497 137.355C84.4497 137.355 80.6646 125.632 80.4765 125.044C80.2884 124.455 80.8674 123.923 83.0202 122.173C85.1718 120.422 87.7234 118.313 87.7234 118.313C87.7234 118.313 91.1063 132.967 92.4356 135.142C93.7649 137.316 93.9226 140.155 93.9226 140.155C93.9226 140.155 93.8832 140.852 104.921 140.983C115.958 141.113 123.263 140.212 123.506 139.42C123.749 138.628 124.933 137.986 125.298 136.348C125.661 134.709 127.584 113.895 127.584 113.895C127.584 113.895 149.045 105.781 151.154 103.57C153.263 101.358 151.894 98.5363 149.499 96.8767C147.104 95.217 134.847 85.5288 134.31 85.2462C133.774 84.9626 132.519 85.5151 132.519 85.5151C132.519 85.5151 128.771 81.7044 127.881 81.0802C126.991 80.4559 118.447 80.322 118.447 80.322L118.755 83.7416C118.755 83.7416 123.674 83.75 124.123 84.1032C124.572 84.4554 126.437 84.603 128.692 86.1024L135.541 97.7508C135.541 97.7508 127.941 95.8781 124.931 95.1685C121.921 94.4578 118.609 94.0982 116.462 93.9833C114.316 93.8684 113.233 93.8104 113.233 93.8104L112.74 91.5665C112.74 91.5665 107.045 87.74 100.141 90.0429Z" fill="white"/>
<path fill-rule="evenodd" clip-rule="evenodd" d="M92.6945 142.647C91.516 144.006 89.7753 146.806 88.5569 150.756C87.3385 154.707 87.2799 162.982 86.7 165.113C86.1201 167.244 65.4507 232.997 65.4507 232.997L73.1749 236.106C73.1749 236.106 84.0873 210.508 89.7675 200.533C95.2099 190.978 105.059 165.822 105.059 165.822C105.059 165.822 108.207 238.583 108.229 238.893C108.252 239.202 115.9 238.755 115.9 238.755C115.9 238.755 122.546 198.179 122.575 141.81" fill="white"/>
<path fill-rule="evenodd" clip-rule="evenodd" d="M110.832 237.287V239.647C110.832 239.647 109.918 240.427 109.918 241.381C109.918 242.334 109.835 246.366 109.918 247.686C109.918 247.686 109.918 248.919 111.414 248.919H124.121C124.868 248.919 124.894 246.523 124.121 245.92C123.348 245.317 117.717 240.121 117.646 239.406C117.574 238.691 117.646 237.018 117.646 237.018" fill="white"/>
<path fill-rule="evenodd" clip-rule="evenodd" d="M78.5703 153.054L74.1395 146.017C73.7188 145.348 73.9029 144.453 74.5506 144.018L86.3614 136.093C87.0101 135.659 87.8772 135.849 88.2979 136.517L92.7287 143.555C93.1504 144.224 92.9663 145.118 92.3176 145.554L80.5068 153.478C79.8591 153.913 78.992 153.722 78.5703 153.054Z" fill="#FF7900"/>
<path fill-rule="evenodd" clip-rule="evenodd" d="M78.5703 151.07L74.1395 144.033C73.7188 143.363 73.9029 142.469 74.5506 142.034L86.3614 134.109C87.0101 133.675 87.8772 133.865 88.299 134.534L92.7287 141.571C93.1504 142.24 92.9663 143.135 92.3176 143.57L80.5068 151.495C79.8591 151.929 78.992 151.739 78.5703 151.07Z" fill="white"/>
<path fill-rule="evenodd" clip-rule="evenodd" d="M78.5702 153.054L74.1394 146.017C73.7187 145.348 73.9028 144.453 74.5516 144.018L86.3613 136.093C87.0101 135.659 87.8772 135.849 88.2989 136.517L92.7287 143.555C93.1504 144.224 92.9663 145.119 92.3176 145.554L80.5068 153.478C79.8591 153.913 78.992 153.722 78.5702 153.054Z" fill="black"/>
<path fill-rule="evenodd" clip-rule="evenodd" d="M139.501 165.612C139.501 176.567 149.921 185.447 162.774 185.447C175.627 185.447 186.047 176.567 186.047 165.612C186.047 154.658 175.627 145.777 162.774 145.777C149.921 145.777 139.501 154.658 139.501 165.612Z" fill="black"/>
<path fill-rule="evenodd" clip-rule="evenodd" d="M169.121 163.629C169.121 155.961 172.911 149.744 177.584 149.744C178.165 149.744 178.732 149.841 179.28 150.024C182.585 152.756 184.922 156.35 185.806 160.388C185.958 161.43 186.047 162.511 186.047 163.629C186.047 165.936 185.699 168.107 185.092 170.022C184.243 172.262 182.936 174.321 181.264 176.118C180.15 177.004 178.905 177.513 177.584 177.513C172.911 177.513 169.121 171.297 169.121 163.629Z" fill="black"/>
<path fill-rule="evenodd" clip-rule="evenodd" d="M169.121 163.629C169.121 155.961 172.911 149.744 177.584 149.744C178.165 149.744 178.732 149.841 179.28 150.024C182.585 152.756 184.922 156.35 185.806 160.388C185.958 161.43 186.047 162.511 186.047 163.629C186.047 165.936 185.699 168.107 185.092 170.022C184.243 172.262 182.936 174.321 181.264 176.118C180.15 177.004 178.905 177.513 177.584 177.513C172.911 177.513 169.121 171.297 169.121 163.629Z" stroke="#FF7900" stroke-width="0.5"/>
<path fill-rule="evenodd" clip-rule="evenodd" d="M175.469 163.629C175.469 166.915 177.363 169.579 179.7 169.579C182.037 169.579 183.932 166.915 183.932 163.629C183.932 160.342 182.037 157.678 179.7 157.678C177.363 157.678 175.469 160.342 175.469 163.629Z" fill="black"/>
<path fill-rule="evenodd" clip-rule="evenodd" d="M175.469 163.629C175.469 166.915 177.363 169.579 179.7 169.579C182.037 169.579 183.932 166.915 183.932 163.629C183.932 160.342 182.037 157.678 179.7 157.678C177.363 157.678 175.469 160.342 175.469 163.629Z" stroke="#FF7900" stroke-width="0.5"/>
<path fill-rule="evenodd" clip-rule="evenodd" d="M177.834 187.431L181.816 192.065V217.974L177.365 223.134H155.35L150.08 218.079V192.065L153.943 187.431H177.834Z" fill="black"/>
<path fill-rule="evenodd" clip-rule="evenodd" d="M177.834 187.431L181.816 192.065V217.974L177.365 223.134H155.35L150.08 218.079V192.065L153.943 187.431H177.834Z" stroke="#FF7900" stroke-width="0.5"/>
<path d="M182.737 192.201H169.417" stroke="#FF7900" stroke-width="0.5"/>
<path fill-rule="evenodd" clip-rule="evenodd" d="M165.14 187.431L169.121 192.065V217.974L164.671 223.134H142.655L137.386 218.079V192.065L141.25 187.431H165.14Z" fill="black"/>
<path fill-rule="evenodd" clip-rule="evenodd" d="M165.14 187.431L169.121 192.065V217.974L164.671 223.134H142.655L137.386 218.079V192.065L141.25 187.431H165.14Z" stroke="#FF7900" stroke-width="0.5"/>
<path fill-rule="evenodd" clip-rule="evenodd" d="M177.584 215.2H183.932V199.332H177.584V215.2Z" fill="black"/>
<path fill-rule="evenodd" clip-rule="evenodd" d="M177.584 215.2H183.932V199.332H177.584V215.2Z" stroke="#FF7900" stroke-width="0.5"/>
<path fill-rule="evenodd" clip-rule="evenodd" d="M177.584 227.101H183.932V213.216H177.584V227.101Z" fill="black"/>
<path fill-rule="evenodd" clip-rule="evenodd" d="M177.584 227.101H183.932V213.216H177.584V227.101Z" stroke="#FF7900" stroke-width="0.5"/>
<path fill-rule="evenodd" clip-rule="evenodd" d="M188.163 197.348C188.163 200.635 185.321 203.299 181.816 203.299C178.31 203.299 175.469 200.635 175.469 197.348C175.469 194.062 178.31 191.398 181.816 191.398C185.321 191.398 188.163 194.062 188.163 197.348Z" fill="black"/>
<path fill-rule="evenodd" clip-rule="evenodd" d="M188.163 197.348C188.163 200.635 185.321 203.299 181.816 203.299C178.31 203.299 175.469 200.635 175.469 197.348C175.469 194.062 178.31 191.398 181.816 191.398C185.321 191.398 188.163 194.062 188.163 197.348Z" stroke="#FF7900" stroke-width="0.5"/>
<path fill-rule="evenodd" clip-rule="evenodd" d="M186.047 214.208C186.047 216.947 183.679 219.167 180.757 219.167C177.837 219.167 175.469 216.947 175.469 214.208C175.469 211.469 177.837 209.249 180.757 209.249C183.679 209.249 186.047 211.469 186.047 214.208Z" fill="black"/>
<path fill-rule="evenodd" clip-rule="evenodd" d="M186.047 214.208C186.047 216.947 183.679 219.167 180.757 219.167C177.837 219.167 175.469 216.947 175.469 214.208C175.469 211.469 177.837 209.249 180.757 209.249C183.679 209.249 186.047 211.469 186.047 214.208Z" stroke="#FF7900" stroke-width="0.5"/>
<path fill-rule="evenodd" clip-rule="evenodd" d="M177.584 227.101H185.329L186.047 232.911L184.725 237.018H178.481L179.496 232.211L177.584 227.101Z" fill="black"/>
<path fill-rule="evenodd" clip-rule="evenodd" d="M177.584 227.101H185.329L186.047 232.911L184.725 237.018H178.481L179.496 232.211L177.584 227.101Z" stroke="#FF7900" stroke-width="0.5"/>
<path d="M76.0294 148.178L78.713 149.744L79.9287 144.107L84.3344 148.074L86.3603 143.584L88.7238 144.342V139.827" stroke="#FF7900" stroke-width="0.5" stroke-linecap="round"/>
<path d="M139.501 201.353L144.059 207.184L148.054 202.988L152.196 209.249L160.573 198.983L161.559 201.8L164.89 197.348" stroke="#FF7900" stroke-width="0.5" stroke-linecap="round"/>
<path fill-rule="evenodd" clip-rule="evenodd" d="M80.5498 149.857C79.3277 150.321 82.2714 154.29 83.9832 153.64C85.6937 152.99 82.7236 149.031 80.5498 149.857Z" fill="#FF7900"/>
<path fill-rule="evenodd" clip-rule="evenodd" d="M84.7812 147.874C83.5593 148.338 86.5026 152.306 88.2142 151.656C89.9258 151.006 86.9547 147.048 84.7812 147.874Z" fill="#FF7900"/>
<path fill-rule="evenodd" clip-rule="evenodd" d="M110.719 92.223C110.719 92.223 113.73 91.6999 114.515 91.5577C115.298 91.4155 116.094 84.2247 116.218 83.3624C116.343 82.4991 115.264 75.6557 114.478 74.7304C113.694 73.8041 111.13 70.9603 109.82 70.3661C108.509 69.773 104.296 68.5552 103.126 68.4303C101.955 68.3054 103.228 69.4795 102.723 69.5668C102.218 69.6542 95.5136 70.617 94.1803 71.3351C92.8459 72.0531 94.7923 73.7401 94.3596 74.9894C93.9279 76.2386 92.364 76.5119 93.1945 78.6549C94.0262 80.7989 92.2984 81.6399 94.5191 84.5396C96.7388 87.4382 98.5978 90.0373 98.5978 90.0373L100.055 90.9494L110.719 92.223Z" fill="black"/>
<path fill-rule="evenodd" clip-rule="evenodd" d="M98.0252 90.0429L97.329 93.6891C97.329 93.6891 85.1255 99.6224 82.9243 100.988C80.7231 102.353 66.52 119.541 65.5061 121.509C64.4911 123.479 77.7682 141.81 77.7682 141.81L83.7309 138.732C83.7309 138.732 78.5478 125.632 78.3596 125.044C78.1715 124.455 78.7517 123.923 80.9044 122.173C83.0561 120.422 85.6076 118.313 85.6076 118.313C85.6076 118.313 88.9906 132.967 90.3199 135.142C91.648 137.316 91.8069 140.155 91.8069 140.155C91.8069 140.155 91.7674 140.852 102.805 140.983C113.843 141.113 121.146 140.212 121.39 139.42C121.634 138.628 122.818 137.986 123.181 136.347C123.545 134.709 125.468 113.895 125.468 113.895C125.468 113.895 146.93 105.781 149.038 103.57C151.147 101.358 149.778 98.5363 147.383 96.8767C144.987 95.217 132.73 85.5288 132.195 85.2462C131.658 84.9626 130.404 85.5151 130.404 85.5151C130.404 85.5151 126.654 81.7044 125.766 81.0802C124.876 80.4559 116.331 80.322 116.331 80.322L116.639 83.7416C116.639 83.7416 120.412 85.5531 120.862 85.9053C121.31 86.2585 123.047 87.741 125.796 86.8015L133.425 97.7508C133.425 97.7508 125.825 95.8781 122.815 95.1685C119.805 94.4578 116.492 94.0982 114.346 93.9833C112.2 93.8694 111.118 93.8104 111.118 93.8104L110.624 91.5676C110.624 91.5676 104.93 87.74 98.0252 90.0429Z" fill="black"/>
<path fill-rule="evenodd" clip-rule="evenodd" d="M64.9766 231.068C64.9766 231.068 63.2796 233.584 62.5116 235.929C61.7425 238.273 60.607 240.787 61.6204 241.411C62.6326 242.034 66.548 245.615 70.4771 246.529C74.4073 247.444 77.9005 246.529 77.9005 246.529C77.9005 246.529 78.4745 244.288 77.864 243.999C77.2557 243.71 73.0276 238.482 72.6191 237.735C72.2094 236.988 70.9016 235.137 71.6434 233.731" fill="black"/>
<path fill-rule="evenodd" clip-rule="evenodd" d="M106.6 237.287V239.647C106.6 239.647 105.687 240.427 105.687 241.381C105.687 242.334 105.603 246.366 105.687 247.686C105.687 247.686 105.687 248.919 107.182 248.919H119.89C120.637 248.919 120.662 246.523 119.89 245.921C119.117 245.317 113.486 240.121 113.414 239.406C113.342 238.691 113.414 237.018 113.414 237.018" fill="black"/>
<path fill-rule="evenodd" clip-rule="evenodd" d="M91.205 140.556C90.0186 141.906 87.8207 145.469 86.5942 149.392C85.3677 153.315 85.3097 161.532 84.726 163.649C84.1412 165.765 63.335 231.055 63.335 231.055L71.1096 234.143C71.1096 234.143 82.0947 208.724 87.8129 198.82C93.2915 189.333 103.206 164.352 103.206 164.352C103.206 164.352 106.375 236.603 106.398 236.91C106.421 237.217 114.12 236.774 114.12 236.774C114.12 236.774 120.429 195.8 120.46 139.827" fill="black"/>
<path fill-rule="evenodd" clip-rule="evenodd" d="M82.6655 149.857C81.4435 150.322 84.3868 154.289 86.0985 153.64C87.8101 152.99 84.839 149.032 82.6655 149.857Z" fill="black"/>
<path fill-rule="evenodd" clip-rule="evenodd" d="M84.7812 147.874C83.5593 148.338 86.5026 152.306 88.2142 151.656C89.9258 151.007 86.9547 147.048 84.7812 147.874Z" fill="black"/>
<path d="M124.691 118.008L122.575 133.876" stroke="#4BB4E6" stroke-width="2" stroke-linecap="round"/>
<path fill-rule="evenodd" clip-rule="evenodd" d="M68.6213 122.22C69.0477 121.212 84.3057 103.358 85.1597 102.651C86.0126 101.946 98.531 94.2014 98.531 94.2014L99.3024 90.2395C98.7768 90.3499 97.8588 90.4812 97.3167 90.6635L96.6356 94.266C96.6356 94.266 84.698 100.129 82.5447 101.478C80.3914 102.827 66.4978 119.808 65.5049 121.754C64.512 123.699 77.501 141.81 77.501 141.81L79.0239 140.967C76.2756 136.597 68.2609 123.072 68.6213 122.22Z" fill="#FF7900"/>
<path fill-rule="evenodd" clip-rule="evenodd" d="M62.4507 235.929C61.7178 238.273 60.6359 240.788 61.6014 241.41C62.5659 242.034 66.2966 245.615 70.0403 246.53C72.4879 247.127 74.7518 246.943 76.0294 246.744C74.2407 245.452 72.4749 245.749 69.8294 244.572C66.3716 242.323 65.2332 240.384 63.1911 240.274C62.8595 239.289 63.7968 236.568 64.2295 235.636C64.6884 234.651 65.7399 232.636 66.3684 231.725L64.7993 231.068C64.7993 231.068 63.1824 233.584 62.4507 235.929Z" fill="#FF7900"/>
<path fill-rule="evenodd" clip-rule="evenodd" d="M98.7984 89.381C99.1304 88.1949 94.2193 83.8033 93.2099 82.745C92.1992 81.6857 94.3638 80.5651 93.5553 79.3821C92.7456 78.199 92.1539 77.3903 93.5553 76.4547C94.9555 75.5201 94.4361 74.4629 93.7869 73.0304C93.1376 71.5979 93.6105 71.4213 98.0438 71.2247C104.909 70.9202 104.351 69.937 101.678 68.421C101.667 68.7509 102.166 69.3112 101.787 69.3725C101.223 69.4624 93.7072 70.4646 92.2127 71.212C90.717 71.9595 92.8987 73.7155 92.4136 75.0158C91.9297 76.3162 90.1767 76.6006 91.1078 78.8313C92.0388 81.063 90.1032 81.9384 92.5925 84.9567C94.4814 87.2476 96.1352 89.3567 96.8224 90.2395C97.1863 89.9551 98.742 89.5851 98.7984 89.381Z" fill="#FF7900"/>
<path fill-rule="evenodd" clip-rule="evenodd" d="M135.27 98.1735L125.684 85.9183C125.684 85.9183 123.91 85.6274 122.474 85.5038C121.384 85.4087 117.861 83.3104 116.228 82.3055L116.324 83.4187C116.324 83.4187 120.059 85.2972 120.504 85.6624C120.949 86.0287 122.668 87.5661 125.388 86.5918L132.941 97.9461C132.941 97.9461 132.577 97.852 131.999 97.7033L132.272 97.8837L135.27 98.1735Z" fill="#FF7900"/>
<path fill-rule="evenodd" clip-rule="evenodd" d="M106.605 241.051C106.605 241.051 105.686 241.713 105.686 242.522C105.686 243.331 105.604 246.752 105.686 247.872C105.686 247.872 105.686 248.919 107.188 248.919H119.95C120.211 248.919 120.377 248.667 120.46 248.326L115.839 248.359L107.065 247.829C107.065 247.829 107.062 244.059 107.062 242.563C107.062 241.065 107.988 241.002 107.988 241.002V239.002L106.605 239.047V241.051Z" fill="#FF7900"/>
<path fill-rule="evenodd" clip-rule="evenodd" d="M103.534 163.629C103.534 163.629 106.771 236.602 106.794 236.913C106.799 236.98 107.184 237.01 107.765 237.018L105.453 167.687L103.534 163.629Z" fill="#FF7900"/>
<path fill-rule="evenodd" clip-rule="evenodd" d="M88.4933 165.594C88.4933 165.594 89.3391 163.212 90.326 154.879C91.3072 146.598 94.1043 143.09 97.1867 142.096L90.8798 141.81C89.6871 143.167 87.9283 145.96 86.6964 149.902C85.4635 153.843 85.4053 162.1 84.819 164.227C84.2316 166.354 63.335 231.958 63.335 231.958L66.0851 233.051L88.4933 165.594Z" fill="#FF7900"/>
<path fill-rule="evenodd" clip-rule="evenodd" d="M94.5942 135.048C91.4471 133.722 84.9555 108.091 84.9555 108.091C84.9555 108.091 83.752 113.05 85.225 117.723C85.4248 118.358 85.5851 119.029 85.7176 119.712C86.7283 123.734 89.0296 132.603 90.0833 134.243C91.4541 136.379 91.6179 139.165 91.6179 139.165C91.6179 139.165 91.5935 139.584 97.0291 139.827L97.1407 139.119C97.1407 139.119 97.7424 136.374 94.5942 135.048Z" fill="#FF7900"/>
<path d="M120.46 145.777C120.187 159.736 119.312 185.248 118.344 197.348" stroke="#4BB4E6" stroke-width="2" stroke-linecap="round"/>
<path d="M99.3024 173.546C99.3024 173.546 92.5948 192.152 86.6081 203.299" stroke="#FFB4E6" stroke-width="2" stroke-linecap="round"/>
<path fill-rule="evenodd" clip-rule="evenodd" d="M35.7222 12.5712L29.8193 13.521L27.1039 18.6404L26.9292 13.3096L21.6871 11.5503L27.5884 10.6004L30.3055 5.48254L30.4785 10.8103L35.7222 12.5712Z" fill="#7D7D7D"/>
<path fill-rule="evenodd" clip-rule="evenodd" d="M204.143 129.897L198.241 130.846L195.526 135.965L195.352 130.635L190.108 128.877L196.01 127.927L198.727 122.807L198.9 128.137L204.143 129.897Z" fill="#7D7D7D"/>
<path fill-rule="evenodd" clip-rule="evenodd" d="M231.284 7.55582L226.366 8.34686L230.734 9.81339L230.879 14.2545L233.143 9.98819L238.061 9.19715L233.693 7.73062L233.548 3.28955L231.284 7.55582Z" fill="#7D7D7D"/>
<path fill-rule="evenodd" clip-rule="evenodd" d="M54.3796 57.7528C55.9657 58.956 58.4188 58.5729 59.8601 56.8975C61.2999 55.2206 61.0571 53.0203 59.5971 51.6855C48.8679 43.8595 36.6088 34.4224 36.6088 34.4224C36.6088 34.4224 50.3544 53.4238 54.3796 57.7528Z" fill="#7D7D7D"/>
<path fill-rule="evenodd" clip-rule="evenodd" d="M55.8251 55.9996C56.5598 56.5566 57.6992 56.3797 58.3669 55.6034C59.0347 54.8256 58.9226 53.8052 58.244 53.1853C53.2693 49.5566 47.5833 45.1794 47.5833 45.1794C47.5833 45.1794 53.3907 52.7964 55.8251 55.9996Z" fill="#7D7D7D"/>
<path fill-rule="evenodd" clip-rule="evenodd" d="M23.9938 94.604C27.84 95.9651 32.1998 93.9695 33.7298 90.1479C33.8725 89.7921 33.9855 89.4331 34.0702 89.0734C32.0576 89.453 29.5926 89.7544 26.9215 89.9175C24.1778 90.0855 21.6301 90.0829 19.5511 89.941C20.164 92.0383 21.7408 93.8079 23.9938 94.604ZM19.4605 86.2989C19.5451 85.939 19.658 85.5798 19.8005 85.2239C21.3321 81.4037 25.692 79.4081 29.5381 80.7678C31.79 81.5638 33.3669 83.3336 33.9799 85.4308C31.901 85.2888 29.3535 85.286 26.6102 85.454C23.9386 85.6177 21.4733 85.9192 19.4605 86.2989Z" fill="#7D7D7D"/>
<path fill-rule="evenodd" clip-rule="evenodd" d="M37.6701 87.7518C38.4313 87.4671 38.8532 87.1884 38.8364 86.9472C38.8197 86.7059 38.3629 86.4811 37.5687 86.2916L37.1026 86.1918L36.5734 86.0998C36.4801 86.0851 36.3843 86.0708 36.2862 86.0568L35.669 85.9776C35.5615 85.9651 35.4518 85.9531 35.3399 85.9414L34.6432 85.8766L33.898 85.8221L33.1081 85.7787L32.2772 85.7472L31.4089 85.7281L30.0446 85.7244C29.8893 85.7257 29.7328 85.7276 29.5752 85.7301L28.6172 85.7525L27.6367 85.7902L26.6373 85.8437C26.3014 85.8643 25.9684 85.8873 25.6389 85.9126L24.6614 85.9949L23.7083 86.0894L22.7833 86.1952C22.6317 86.2137 22.4814 86.2326 22.3325 86.2519L21.4562 86.3724L20.6169 86.5012L19.8182 86.6372L19.0636 86.7793L18.3566 86.9265L17.7009 87.0775L17.1001 87.2312C17.0047 87.257 16.9117 87.2828 16.8213 87.3087L16.3093 87.4644L15.8612 87.6201C15.1001 87.9046 14.6784 88.1831 14.6952 88.4242C14.7119 88.6657 15.1685 88.8907 15.9624 89.0802L16.4284 89.18L16.9575 89.272C17.0508 89.2867 17.1465 89.301 17.2446 89.315L17.8617 89.3942C18.0766 89.4191 18.3005 89.4424 18.5327 89.464L19.2541 89.5237L20.022 89.5727L20.8329 89.6102L21.683 89.6355L22.5686 89.6481L23.486 89.6471C23.6414 89.6458 23.7979 89.6439 23.9555 89.6414L24.9138 89.6189C25.0755 89.6139 25.2381 89.6082 25.4016 89.602L26.3924 89.5564L26.8944 89.5276L27.8925 89.459L28.8697 89.3769L29.8226 89.2824L30.7474 89.1768L31.6407 89.061L32.4989 88.9363L33.3183 88.8038L34.0955 88.6646L34.8268 88.5198L35.5086 88.3706C35.618 88.3454 35.7251 88.3201 35.8299 88.2946L36.4309 88.1409L36.9735 87.9855C37.0588 87.9595 37.1416 87.9335 37.2218 87.9075L37.6701 87.7518Z" fill="#7D7D7D"/>
<path fill-rule="evenodd" clip-rule="evenodd" d="M117.079 20.2693C117.079 21.6801 115.862 22.8234 114.36 22.8234C112.858 22.8234 111.641 21.6801 111.641 20.2693C111.641 18.8599 112.858 17.7152 114.36 17.7152C115.862 17.7152 117.079 18.8599 117.079 20.2693Z" fill="#7D7D7D"/>
<path fill-rule="evenodd" clip-rule="evenodd" d="M219.87 95.1086C219.87 97.2358 218.033 98.9609 215.77 98.9609C213.505 98.9609 211.668 97.2358 211.668 95.1086C211.668 92.9814 213.505 91.2577 215.77 91.2577C218.033 91.2577 219.87 92.9814 219.87 95.1086Z" fill="#7D7D7D"/>
<path fill-rule="evenodd" clip-rule="evenodd" d="M198.819 84.1922C198.819 85.3252 197.842 86.2433 196.637 86.2433C195.431 86.2433 194.453 85.3252 194.453 84.1922C194.453 83.0606 195.431 82.1425 196.637 82.1425C197.842 82.1425 198.819 83.0606 198.819 84.1922Z" fill="#7D7D7D"/>
<path fill-rule="evenodd" clip-rule="evenodd" d="M143.876 13.0379C143.876 13.7835 143.233 14.3873 142.441 14.3873C141.647 14.3873 141.004 13.7835 141.004 13.0379C141.004 12.2923 141.647 11.6885 142.441 11.6885C143.233 11.6885 143.876 12.2923 143.876 13.0379Z" fill="#7D7D7D"/>
<path fill-rule="evenodd" clip-rule="evenodd" d="M209.975 169.703C209.975 170.449 209.332 171.053 208.538 171.053C207.746 171.053 207.103 170.449 207.103 169.703C207.103 168.959 207.746 168.355 208.538 168.355C209.332 168.355 209.975 168.959 209.975 169.703Z" fill="#7D7D7D"/>
<path fill-rule="evenodd" clip-rule="evenodd" d="M62.8029 87.6857C62.8029 88.4313 62.16 89.0351 61.3678 89.0351C60.5739 89.0351 59.9311 88.4313 59.9311 87.6857C59.9311 86.9416 60.5739 86.3378 61.3678 86.3378C62.16 86.3378 62.8029 86.9416 62.8029 87.6857Z" fill="#7D7D7D"/>
<path fill-rule="evenodd" clip-rule="evenodd" d="M103.342 1.48906C103.342 2.23322 102.7 2.83702 101.906 2.83702C101.114 2.83702 100.471 2.23322 100.471 1.48906C100.471 0.74345 101.114 0.139648 101.906 0.139648C102.7 0.139648 103.342 0.74345 103.342 1.48906Z" fill="#7D7D7D"/>
</g>
<defs>
<clipPath id="clip0_1504_1691">
<rect width="225" height="250" fill="white" transform="translate(13.5)"/>
</clipPath>
</defs>
</svg>
