<?xml version="1.0" encoding="UTF-8"?>
<svg id="iOS_Thumbnails" data-name="iOS Thumbnails" xmlns="http://www.w3.org/2000/svg" viewBox="0 0 400 200">
  <defs>
    <style>
      .cls-1 {
        fill: #999;
      }

      .cls-2 {
        fill: #333;
      }

      .cls-3 {
        fill: #1b1b1b;
      }

      .cls-4 {
        fill: #949494;
      }

      .cls-5 {
        fill: #898989;
      }
    </style>
  </defs>
  <rect id="Overlay" class="cls-3" width="400" height="200"/>
  <g>
    <rect class="cls-2" x="80" y="76.25" width="240" height="47.5"/>
    <g>
      <g>
        <rect class="cls-5" x="118.31" y="111.49" width="17.73" height="1.14" rx=".53" ry=".53"/>
        <path class="cls-4" d="m127.86,87.87l1.67,5.14c.1.29.37.49.68.49h5.4c.69,0,.98.88.42,1.29l-4.37,3.18c-.25.18-.35.5-.26.8l1.67,5.14c.21.66-.54,1.2-1.1.8l-4.37-3.18c-.25-.18-.59-.18-.84,0l-4.37,3.18c-.56.41-1.31-.14-1.1-.8l1.67-5.14c.1-.29,0-.62-.26-.8l-4.37-3.18c-.56-.41-.27-1.29.42-1.29h5.4c.31,0,.58-.2.68-.49l1.67-5.14c.21-.66,1.14-.66,1.36,0Z"/>
      </g>
      <g>
        <rect class="cls-1" x="191.13" y="111.49" width="17.73" height="1.14" rx=".53" ry=".53"/>
        <path class="cls-1" d="m200.68,87.87l1.67,5.14c.1.29.37.49.68.49h5.4c.69,0,.98.88.42,1.29l-4.37,3.18c-.25.18-.35.5-.26.8l1.67,5.14c.21.66-.54,1.2-1.1.8l-4.37-3.18c-.25-.18-.59-.18-.84,0l-4.37,3.18c-.56.41-1.31-.14-1.1-.8l1.67-5.14c.1-.29,0-.62-.26-.8l-4.37-3.18c-.56-.41-.27-1.29.42-1.29h5.4c.31,0,.58-.2.68-.49l1.67-5.14c.21-.66,1.14-.66,1.36,0Z"/>
      </g>
      <g>
        <rect class="cls-1" x="263.95" y="111.49" width="17.73" height="1.14" rx=".53" ry=".53"/>
        <path class="cls-1" d="m273.5,87.87l1.67,5.14c.1.29.37.49.68.49h5.4c.69,0,.98.88.42,1.29l-4.37,3.18c-.25.18-.35.5-.26.8l1.67,5.14c.21.66-.54,1.2-1.1.8l-4.37-3.18c-.25-.18-.59-.18-.84,0l-4.37,3.18c-.56.41-1.31-.14-1.1-.8l1.67-5.14c.1-.29,0-.62-.26-.8l-4.37-3.18c-.56-.41-.27-1.29.42-1.29h5.4c.31,0,.58-.2.68-.49l1.67-5.14c.21-.66,1.14-.66,1.36,0Z"/>
      </g>
    </g>
  </g>
</svg>