<?xml version="1.0" encoding="UTF-8"?>
<svg id="Calque_1" data-name="Calque 1" xmlns="http://www.w3.org/2000/svg" viewBox="0 0 33 33">
  <defs>
    <style>
      .cls-1 {
        fill-rule: evenodd;
      }
    </style>
  </defs>
  <path class="cls-1" d="m29.05,26.72l-7.22-7.22c1.21-1.69,1.86-3.72,1.86-5.8,0-5.52-4.47-9.99-9.99-9.99S3.7,8.17,3.7,13.69s4.47,9.99,9.99,9.99c2.08,0,4.11-.65,5.8-1.86l7.22,7.22c.31.31.82.31,1.13,0l1.2-1.2c.31-.31.31-.82,0-1.13Zm-15.36-6.23c-3.75,0-6.8-3.04-6.8-6.8s3.04-6.8,6.8-6.8,6.8,3.04,6.8,6.8-3.04,6.8-6.8,6.8Z"/>
</svg>