<svg width="44" height="44" viewBox="0 0 44 44" xmlns="http://www.w3.org/2000/svg">
    <path d="M39.05 17.6H4.95c-.91.003-1.647.74-1.65 1.65.003.91.74 1.647 1.65 1.65h1.402a.55.55 0 0 1 .548.507l.725 9.188a.51.51 0 0 1 .002.037c.01 3.132 2.382 5.668 5.307 5.668h18.132c2.925 0 5.298-2.536 5.307-5.668 0-.012 0-.025.002-.037l.725-9.188a.55.55 0 0 1 .548-.507h1.402a1.655 1.655 0 0 0 1.65-1.65 1.655 1.655 0 0 0-1.65-1.65zm-1.324-4.35a9.787 9.787 0 0 1-1.05-.382c-4.016-1.78-8.64-2.852-13.576-2.992v-.542c0-.295.24-.534.534-.534a.56.56 0 0 0 .558-.455.551.551 0 0 0-.542-.645h-3.284a.56.56 0 0 0-.558.455.551.551 0 0 0 .542.645.55.55 0 0 1 .55.55v.526c-4.936.14-9.56 1.212-13.576 2.992a9.787 9.787 0 0 1-1.05.382A1.1 1.1 0 0 0 6.6 15.4h30.8a1.1 1.1 0 0 0 .326-2.15z" fill="#000" fill-rule="evenodd"/>
</svg>
