<?xml version="1.0" encoding="UTF-8"?>
<svg width="24px" height="24px" viewBox="0 0 24 24" version="1.1" xmlns="http://www.w3.org/2000/svg" xmlns:xlink="http://www.w3.org/1999/xlink">
    <title>icons/functional_UI/M-S/mdpi/ic_Review</title>
    <g id="icons/functional_UI/M-S/ic_Review" stroke="none" stroke-width="1" fill="none" fill-rule="evenodd">
        <path d="M19.7957245,7.21140143 L4.19572447,7.21140143 C2.87572447,7.21140143 1.79572447,8.29140143 1.79572447,9.61140143 L1.79572447,14.4114014 C1.79572447,15.7314014 2.87572447,16.8114014 4.19572447,16.8114014 L6.59572447,16.8114014 L6.59572447,19.8114014 L9.59572447,16.8114014 L19.7957245,16.8114014 C21.1157245,16.8114014 22.1957245,15.7314014 22.1957245,14.4114014 L22.1957245,9.61140143 C22.1957245,8.29140143 21.1157245,7.21140143 19.7957245,7.21140143 Z M6.10682047,13.4264654 L4.81192447,14.3696654 C4.73739501,14.4239399 4.63638223,14.4240089 4.56177871,14.3698363 C4.48717519,14.3156637 4.45597548,14.2195899 4.48451647,14.1319214 L4.98086047,12.6079214 L3.68387647,11.6666894 C3.60927808,11.6125409 3.57805716,11.5164985 3.60655634,11.4288356 C3.63505552,11.3411728 3.71678543,11.2818506 3.80896447,11.2819214 L5.41094047,11.2833374 L5.90452447,9.75856943 C5.93293228,9.67084577 6.01463577,9.61142332 6.10684447,9.61142332 C6.19905316,9.61142332 6.28075665,9.67084577 6.30916447,9.75856943 L6.80272447,11.2832414 L8.40470047,11.2818254 C8.4968795,11.2817546 8.57860941,11.3410768 8.60710859,11.4287396 C8.63560777,11.5164025 8.60438685,11.6124449 8.52978847,11.6665934 L7.23280447,12.6078254 L7.72914847,14.1318254 C7.75768945,14.2194939 7.72648974,14.3155677 7.65188622,14.3697403 C7.5772827,14.4239129 7.47626992,14.4238439 7.40174047,14.3695694 L6.10682047,13.4264654 Z M14.4036205,11.6665934 L13.1066365,12.6078254 L13.6029805,14.1318254 C13.6315214,14.2194939 13.6003217,14.3155677 13.5257182,14.3697403 C13.4511147,14.4239129 13.3501019,14.4238439 13.2755725,14.3695694 L11.9806765,13.4263694 L10.6857805,14.3695694 C10.611251,14.4238439 10.5102382,14.4239129 10.4356347,14.3697403 C10.3610312,14.3155677 10.3298315,14.2194939 10.3583725,14.1318254 L10.8547165,12.6078254 L9.55773247,11.6665934 C9.48313408,11.6124449 9.45191316,11.5164025 9.48041234,11.4287396 C9.50891152,11.3410768 9.59064143,11.2817546 9.68282047,11.2818254 L11.2847965,11.2832414 L11.7783565,9.75856943 C11.8067643,9.67084577 11.8884678,9.61142332 11.9806765,9.61142332 C12.0728852,9.61142332 12.1545887,9.67084577 12.1829965,9.75856943 L12.6765565,11.2832414 L14.2785325,11.2818254 C14.3707027,11.2817755 14.4524134,11.3411048 14.4809,11.4287625 C14.5093865,11.5164201 14.4781637,11.6124501 14.4035725,11.6665934 L14.4036205,11.6665934 Z M20.3076205,11.6665934 L19.0106365,12.6078254 L19.5069805,14.1318254 C19.5355214,14.2194939 19.5043217,14.3155677 19.4297182,14.3697403 C19.3551147,14.4239129 19.2541019,14.4238439 19.1795725,14.3695694 L17.8846765,13.4263694 L16.5897805,14.3695694 C16.515251,14.4238439 16.4142382,14.4239129 16.3396347,14.3697403 C16.2650312,14.3155677 16.2338315,14.2194939 16.2623725,14.1318254 L16.7587165,12.6078254 L15.4617325,11.6665934 C15.3871341,11.6124449 15.3559132,11.5164025 15.3844123,11.4287396 C15.4129115,11.3410768 15.4946414,11.2817546 15.5868205,11.2818254 L17.1887965,11.2832414 L17.6823565,9.75856943 C17.7107643,9.67084577 17.7924678,9.61142332 17.8846765,9.61142332 C17.9768852,9.61142332 18.0585887,9.67084577 18.0869965,9.75856943 L18.5805565,11.2832414 L20.1825325,11.2818254 C20.2747027,11.2817755 20.3564134,11.3411048 20.3849,11.4287625 C20.4133865,11.5164201 20.3821637,11.6124501 20.3075725,11.6665934 L20.3076205,11.6665934 Z" id="Reviews" fill="#000000"></path>
    </g>
</svg>