<?xml version="1.0" encoding="UTF-8"?>
<!--Generator: Apple Native CoreSVG 175-->
<!DOCTYPE svg
PUBLIC "-//W3C//DTD SVG 1.1//EN"
       "http://www.w3.org/Graphics/SVG/1.1/DTD/svg11.dtd">
<svg version="1.1" xmlns="http://www.w3.org/2000/svg" xmlns:xlink="http://www.w3.org/1999/xlink" width="3300" height="2200">
 <!--glyph: "", point size: 100.0, font version: "17.0d11e1", template writer version: "65.1"-->
 <g id="Notes">
  <rect height="2200" id="artboard" style="fill:white;opacity:1" width="3300" x="0" y="0"/>
  <line style="fill:none;stroke:black;opacity:1;stroke-width:0.5;" x1="263" x2="3036" y1="292" y2="292"/>
  <text style="stroke:none;fill:black;font-family:sans-serif;font-size:13;font-weight:bold;" transform="matrix(1 0 0 1 263 322)">Weight/Scale Variations</text>
  <text style="stroke:none;fill:black;font-family:sans-serif;font-size:13;text-anchor:middle;" transform="matrix(1 0 0 1 559.711 322)">Ultralight</text>
  <text style="stroke:none;fill:black;font-family:sans-serif;font-size:13;text-anchor:middle;" transform="matrix(1 0 0 1 856.422 322)">Thin</text>
  <text style="stroke:none;fill:black;font-family:sans-serif;font-size:13;text-anchor:middle;" transform="matrix(1 0 0 1 1153.13 322)">Light</text>
  <text style="stroke:none;fill:black;font-family:sans-serif;font-size:13;text-anchor:middle;" transform="matrix(1 0 0 1 1449.84 322)">Regular</text>
  <text style="stroke:none;fill:black;font-family:sans-serif;font-size:13;text-anchor:middle;" transform="matrix(1 0 0 1 1746.56 322)">Medium</text>
  <text style="stroke:none;fill:black;font-family:sans-serif;font-size:13;text-anchor:middle;" transform="matrix(1 0 0 1 2043.27 322)">Semibold</text>
  <text style="stroke:none;fill:black;font-family:sans-serif;font-size:13;text-anchor:middle;" transform="matrix(1 0 0 1 2339.98 322)">Bold</text>
  <text style="stroke:none;fill:black;font-family:sans-serif;font-size:13;text-anchor:middle;" transform="matrix(1 0 0 1 2636.69 322)">Heavy</text>
  <text style="stroke:none;fill:black;font-family:sans-serif;font-size:13;text-anchor:middle;" transform="matrix(1 0 0 1 2933.4 322)">Black</text>
  <line style="fill:none;stroke:black;opacity:1;stroke-width:0.5;" x1="263" x2="3036" y1="1903" y2="1903"/>
  <g transform="matrix(1 0 0 1 263 1933)">
   <path d="M9.24805 0.830078Q10.8691 0.830078 12.2949 0.214844Q13.7207-0.400391 14.8096-1.49414Q15.8984-2.58789 16.5186-4.01367Q17.1387-5.43945 17.1387-7.05078Q17.1387-8.66211 16.5186-10.0879Q15.8984-11.5137 14.8047-12.6074Q13.7109-13.7012 12.2852-14.3164Q10.8594-14.9316 9.23828-14.9316Q7.62695-14.9316 6.20117-14.3164Q4.77539-13.7012 3.69141-12.6074Q2.60742-11.5137 1.9873-10.0879Q1.36719-8.66211 1.36719-7.05078Q1.36719-5.43945 1.9873-4.01367Q2.60742-2.58789 3.69629-1.49414Q4.78516-0.400391 6.21094 0.214844Q7.63672 0.830078 9.24805 0.830078ZM9.24805-0.654297Q7.91992-0.654297 6.7627-1.14746Q5.60547-1.64062 4.73145-2.51953Q3.85742-3.39844 3.36426-4.56055Q2.87109-5.72266 2.87109-7.05078Q2.87109-8.37891 3.35938-9.54102Q3.84766-10.7031 4.72168-11.582Q5.5957-12.4609 6.75293-12.9541Q7.91016-13.4473 9.23828-13.4473Q10.5762-13.4473 11.7334-12.9541Q12.8906-12.4609 13.7695-11.582Q14.6484-10.7031 15.1465-9.54102Q15.6445-8.37891 15.6445-7.05078Q15.6445-5.72266 15.1514-4.56055Q14.6582-3.39844 13.7842-2.51953Q12.9102-1.64062 11.748-1.14746Q10.5859-0.654297 9.24805-0.654297ZM5.6543-7.05078Q5.6543-6.72852 5.85938-6.52832Q6.06445-6.32812 6.40625-6.32812L8.51562-6.32812L8.51562-4.20898Q8.51562-3.88672 8.71094-3.67676Q8.90625-3.4668 9.23828-3.4668Q9.56055-3.4668 9.77051-3.67676Q9.98047-3.88672 9.98047-4.20898L9.98047-6.32812L12.0898-6.32812Q12.4219-6.32812 12.627-6.52832Q12.832-6.72852 12.832-7.05078Q12.832-7.38281 12.627-7.58789Q12.4219-7.79297 12.0898-7.79297L9.98047-7.79297L9.98047-9.90234Q9.98047-10.2344 9.77051-10.4443Q9.56055-10.6543 9.23828-10.6543Q8.90625-10.6543 8.71094-10.4443Q8.51562-10.2344 8.51562-9.90234L8.51562-7.79297L6.40625-7.79297Q6.06445-7.79297 5.85938-7.58789Q5.6543-7.38281 5.6543-7.05078Z"/>
  </g>
  <g transform="matrix(1 0 0 1 281.867 1933)">
   <path d="M11.709 2.91016Q13.75 2.91016 15.5518 2.12891Q17.3535 1.34766 18.7305-0.0292969Q20.1074-1.40625 20.8887-3.20801Q21.6699-5.00977 21.6699-7.05078Q21.6699-9.0918 20.8887-10.8936Q20.1074-12.6953 18.7305-14.0723Q17.3535-15.4492 15.5469-16.2305Q13.7402-17.0117 11.6992-17.0117Q9.6582-17.0117 7.85645-16.2305Q6.05469-15.4492 4.68262-14.0723Q3.31055-12.6953 2.5293-10.8936Q1.74805-9.0918 1.74805-7.05078Q1.74805-5.00977 2.5293-3.20801Q3.31055-1.40625 4.6875-0.0292969Q6.06445 1.34766 7.86621 2.12891Q9.66797 2.91016 11.709 2.91016ZM11.709 1.25Q9.98047 1.25 8.47656 0.605469Q6.97266-0.0390625 5.83496-1.17676Q4.69727-2.31445 4.05762-3.81836Q3.41797-5.32227 3.41797-7.05078Q3.41797-8.7793 4.05762-10.2832Q4.69727-11.7871 5.83008-12.9297Q6.96289-14.0723 8.4668-14.7119Q9.9707-15.3516 11.6992-15.3516Q13.4277-15.3516 14.9316-14.7119Q16.4355-14.0723 17.5781-12.9297Q18.7207-11.7871 19.3652-10.2832Q20.0098-8.7793 20.0098-7.05078Q20.0098-5.32227 19.3701-3.81836Q18.7305-2.31445 17.5928-1.17676Q16.4551-0.0390625 14.9463 0.605469Q13.4375 1.25 11.709 1.25ZM7.17773-7.05078Q7.17773-6.69922 7.41211-6.47461Q7.64648-6.25 8.01758-6.25L10.8887-6.25L10.8887-3.36914Q10.8887-2.99805 11.1133-2.76855Q11.3379-2.53906 11.6895-2.53906Q12.0605-2.53906 12.29-2.76855Q12.5195-2.99805 12.5195-3.36914L12.5195-6.25L15.4004-6.25Q15.7715-6.25 16.001-6.47461Q16.2305-6.69922 16.2305-7.05078Q16.2305-7.42188 16.001-7.65137Q15.7715-7.88086 15.4004-7.88086L12.5195-7.88086L12.5195-10.752Q12.5195-11.1328 12.29-11.3623Q12.0605-11.5918 11.6895-11.5918Q11.3379-11.5918 11.1133-11.3574Q10.8887-11.123 10.8887-10.752L10.8887-7.88086L8.01758-7.88086Q7.63672-7.88086 7.40723-7.65137Q7.17773-7.42188 7.17773-7.05078Z"/>
  </g>
  <g transform="matrix(1 0 0 1 305.646 1933)">
   <path d="M14.9707 5.66406Q17.0605 5.66406 18.96 5.01465Q20.8594 4.36523 22.4512 3.19336Q24.043 2.02148 25.2197 0.429688Q26.3965-1.16211 27.0459-3.06641Q27.6953-4.9707 27.6953-7.05078Q27.6953-9.14062 27.0459-11.04Q26.3965-12.9395 25.2197-14.5312Q24.043-16.123 22.4512-17.2998Q20.8594-18.4766 18.9551-19.126Q17.0508-19.7754 14.9609-19.7754Q12.8711-19.7754 10.9717-19.126Q9.07227-18.4766 7.48535-17.2998Q5.89844-16.123 4.72168-14.5312Q3.54492-12.9395 2.90039-11.04Q2.25586-9.14062 2.25586-7.05078Q2.25586-4.9707 2.90527-3.06641Q3.55469-1.16211 4.72656 0.429688Q5.89844 2.02148 7.49023 3.19336Q9.08203 4.36523 10.9814 5.01465Q12.8809 5.66406 14.9707 5.66406ZM14.9707 3.84766Q13.1641 3.84766 11.5283 3.2959Q9.89258 2.74414 8.53516 1.74805Q7.17773 0.751953 6.17676-0.610352Q5.17578-1.97266 4.62891-3.6084Q4.08203-5.24414 4.08203-7.05078Q4.08203-8.86719 4.62891-10.5029Q5.17578-12.1387 6.17188-13.501Q7.16797-14.8633 8.52539-15.8594Q9.88281-16.8555 11.5186-17.4023Q13.1543-17.9492 14.9609-17.9492Q16.7773-17.9492 18.4131-17.4023Q20.0488-16.8555 21.4111-15.8594Q22.7734-14.8633 23.7695-13.501Q24.7656-12.1387 25.3174-10.5029Q25.8691-8.86719 25.8691-7.05078Q25.8789-5.24414 25.332-3.6084Q24.7852-1.97266 23.7842-0.610352Q22.7832 0.751953 21.4209 1.74805Q20.0586 2.74414 18.4229 3.2959Q16.7871 3.84766 14.9707 3.84766ZM9.19922-7.05078Q9.19922-6.66992 9.45801-6.4209Q9.7168-6.17188 10.1172-6.17188L14.0625-6.17188L14.0625-2.2168Q14.0625-1.81641 14.3115-1.55762Q14.5605-1.29883 14.9512-1.29883Q15.3516-1.29883 15.6104-1.55273Q15.8691-1.80664 15.8691-2.2168L15.8691-6.17188L19.8242-6.17188Q20.2246-6.17188 20.4785-6.4209Q20.7324-6.66992 20.7324-7.05078Q20.7324-7.46094 20.4785-7.71484Q20.2246-7.96875 19.8242-7.96875L15.8691-7.96875L15.8691-11.9141Q15.8691-12.3242 15.6104-12.583Q15.3516-12.8418 14.9512-12.8418Q14.5605-12.8418 14.3115-12.583Q14.0625-12.3242 14.0625-11.9141L14.0625-7.96875L10.1172-7.96875Q9.70703-7.96875 9.45312-7.71484Q9.19922-7.46094 9.19922-7.05078Z"/>
  </g>
  <text style="stroke:none;fill:black;font-family:sans-serif;font-size:13;font-weight:bold;" transform="matrix(1 0 0 1 263 1953)">Design Variations</text>
  <text style="stroke:none;fill:black;font-family:sans-serif;font-size:13;" transform="matrix(1 0 0 1 263 1971)">Symbols are supported in up to nine weights and three scales.</text>
  <text style="stroke:none;fill:black;font-family:sans-serif;font-size:13;" transform="matrix(1 0 0 1 263 1989)">For optimal layout with text and other symbols, vertically align</text>
  <text style="stroke:none;fill:black;font-family:sans-serif;font-size:13;" transform="matrix(1 0 0 1 263 2007)">symbols with the adjacent text.</text>
  <line style="fill:none;stroke:#00AEEF;stroke-width:0.5;opacity:1.0;" x1="776" x2="776" y1="1919" y2="1933"/>
  <g transform="matrix(1 0 0 1 776 1933)">
   <path d="M3.31055 0.15625Q3.70117 0.15625 3.91602-0.00976562Q4.13086-0.175781 4.26758-0.585938L5.52734-4.0332L11.2891-4.0332L12.5488-0.585938Q12.6855-0.175781 12.9004-0.00976562Q13.1152 0.15625 13.4961 0.15625Q13.8867 0.15625 14.1162-0.0585938Q14.3457-0.273438 14.3457-0.644531Q14.3457-0.869141 14.2383-1.17188L9.6582-13.3691Q9.48242-13.8184 9.17969-14.043Q8.87695-14.2676 8.4082-14.2676Q7.5-14.2676 7.17773-13.3789L2.59766-1.16211Q2.49023-0.859375 2.49023-0.634766Q2.49023-0.263672 2.70996-0.0537109Q2.92969 0.15625 3.31055 0.15625ZM6.00586-5.51758L8.37891-12.0898L8.42773-12.0898L10.8008-5.51758Z"/>
  </g>
  <line style="fill:none;stroke:#00AEEF;stroke-width:0.5;opacity:1.0;" x1="793.197" x2="793.197" y1="1919" y2="1933"/>
  <text style="stroke:none;fill:black;font-family:sans-serif;font-size:13;font-weight:bold;" transform="matrix(1 0 0 1 776 1953)">Margins</text>
  <text style="stroke:none;fill:black;font-family:sans-serif;font-size:13;" transform="matrix(1 0 0 1 776 1971)">Leading and trailing margins on the left and right side of each symbol</text>
  <text style="stroke:none;fill:black;font-family:sans-serif;font-size:13;" transform="matrix(1 0 0 1 776 1989)">can be adjusted by modifying the x-location of the margin guidelines.</text>
  <text style="stroke:none;fill:black;font-family:sans-serif;font-size:13;" transform="matrix(1 0 0 1 776 2007)">Modifications are automatically applied proportionally to all</text>
  <text style="stroke:none;fill:black;font-family:sans-serif;font-size:13;" transform="matrix(1 0 0 1 776 2025)">scales and weights.</text>
  <g transform="matrix(1 0 0 1 1289 1933)">
   <path d="M2.8418 1.86523L4.54102 3.57422Q5.18555 4.22852 5.90332 4.17969Q6.62109 4.13086 7.31445 3.35938L18.0078-8.42773L17.041-9.4043L6.42578 2.27539Q6.16211 2.57812 5.89355 2.61719Q5.625 2.65625 5.27344 2.30469L4.10156 1.14258Q3.75 0.791016 3.79395 0.522461Q3.83789 0.253906 4.14062-0.0195312L15.6152-10.8203L14.6387-11.7871L3.04688-0.898438Q2.30469-0.214844 2.25098 0.498047Q2.19727 1.21094 2.8418 1.86523ZM9.25781-16.3281Q8.94531-16.0254 8.90625-15.6348Q8.86719-15.2441 9.04297-14.9512Q9.21875-14.6777 9.55566-14.541Q9.89258-14.4043 10.3809-14.5215Q11.4746-14.7754 12.5977-14.7314Q13.7207-14.6875 14.7949-13.9844L14.209-12.5293Q13.9551-11.9043 14.0674-11.4404Q14.1797-10.9766 14.5801-10.5664L16.875-8.25195Q17.2363-7.88086 17.5781-7.82227Q17.9199-7.76367 18.3398-7.8418L19.4043-8.03711L20.0684-7.36328L20.0293-6.80664Q20-6.43555 20.1221-6.12305Q20.2441-5.81055 20.6055-5.44922L21.3672-4.70703Q21.7285-4.3457 22.1533-4.33105Q22.5781-4.31641 22.9297-4.66797L25.8398-7.58789Q26.1914-7.93945 26.1816-8.35449Q26.1719-8.76953 25.8105-9.13086L25.0391-9.89258Q24.6875-10.2539 24.3799-10.3857Q24.0723-10.5176 23.7109-10.4883L23.1348-10.4395L22.4902-11.0742L22.7344-12.1973Q22.832-12.6172 22.6953-12.9834Q22.5586-13.3496 22.1191-13.7891L19.9219-15.9766Q18.6719-17.2168 17.2607-17.8369Q15.8496-18.457 14.4189-18.4814Q12.9883-18.5059 11.665-17.959Q10.3418-17.4121 9.25781-16.3281ZM10.752-15.957Q11.6602-16.6211 12.7002-16.9043Q13.7402-17.1875 14.8047-17.085Q15.8691-16.9824 16.8701-16.5137Q17.8711-16.0449 18.7012-15.2051L21.1328-12.793Q21.3086-12.6172 21.3525-12.4512Q21.3965-12.2852 21.3379-12.0312L21.0156-10.5469L22.5195-9.0625L23.5059-9.12109Q23.6914-9.13086 23.7891-9.09668Q23.8867-9.0625 24.0332-8.91602L24.6094-8.33984L22.168-5.89844L21.5918-6.47461Q21.4453-6.62109 21.4062-6.71875Q21.3672-6.81641 21.377-7.01172L21.4453-7.98828L19.9512-9.47266L18.4277-9.21875Q18.1836-9.16992 18.042-9.2041Q17.9004-9.23828 17.7148-9.41406L15.7129-11.416Q15.5176-11.5918 15.4932-11.7529Q15.4688-11.9141 15.5859-12.1875L16.4648-14.2773Q15.293-15.3711 13.8281-15.791Q12.3633-16.2109 10.8398-15.7617Q10.7227-15.7324 10.6885-15.8057Q10.6543-15.8789 10.752-15.957Z"/>
  </g>
  <text style="stroke:none;fill:black;font-family:sans-serif;font-size:13;font-weight:bold;" transform="matrix(1 0 0 1 1289 1953)">Exporting</text>
  <text style="stroke:none;fill:black;font-family:sans-serif;font-size:13;" transform="matrix(1 0 0 1 1289 1971)">Symbols should be outlined when exporting to ensure the</text>
  <text style="stroke:none;fill:black;font-family:sans-serif;font-size:13;" transform="matrix(1 0 0 1 1289 1989)">design is preserved when submitting to Xcode.</text>
  <text id="template-version" style="stroke:none;fill:black;font-family:sans-serif;font-size:13;text-anchor:end;" transform="matrix(1 0 0 1 3036 1933)">Template v.3.0</text>
  <text style="stroke:none;fill:black;font-family:sans-serif;font-size:13;text-anchor:end;" transform="matrix(1 0 0 1 3036 1951)">Requires Xcode 13 or greater</text>
  <text id="descriptive-name" style="stroke:none;fill:black;font-family:sans-serif;font-size:13;text-anchor:end;" transform="matrix(1 0 0 1 3036 1969)">Generated from orange.magnifyingglass</text>
  <text style="stroke:none;fill:black;font-family:sans-serif;font-size:13;text-anchor:end;" transform="matrix(1 0 0 1 3036 1987)">Typeset at 100 points</text>
  <text style="stroke:none;fill:black;font-family:sans-serif;font-size:13;" transform="matrix(1 0 0 1 263 726)">Small</text>
  <text style="stroke:none;fill:black;font-family:sans-serif;font-size:13;" transform="matrix(1 0 0 1 263 1156)">Medium</text>
  <text style="stroke:none;fill:black;font-family:sans-serif;font-size:13;" transform="matrix(1 0 0 1 263 1586)">Large</text>
 </g>
 <g id="Guides">
  <g id="H-reference" style="fill:#27AAE1;stroke:none;" transform="matrix(1 0 0 1 339 696)">
   <path d="M0.976562 0L3.66211 0L29.3457-67.1387L30.0293-67.1387L30.0293-70.459L28.125-70.459ZM11.6699-24.4629L46.9727-24.4629L46.2402-26.709L12.4512-26.709ZM55.127 0L57.7637 0L30.6152-70.459L29.4434-70.459L29.4434-67.1387Z"/>
  </g>
  <line id="Baseline-S" style="fill:none;stroke:#27AAE1;opacity:1;stroke-width:0.5;" x1="263" x2="3036" y1="696" y2="696"/>
  <line id="Capline-S" style="fill:none;stroke:#27AAE1;opacity:1;stroke-width:0.5;" x1="263" x2="3036" y1="625.541" y2="625.541"/>
  <g id="H-reference" style="fill:#27AAE1;stroke:none;" transform="matrix(1 0 0 1 339 1126)">
   <path d="M0.976562 0L3.66211 0L29.3457-67.1387L30.0293-67.1387L30.0293-70.459L28.125-70.459ZM11.6699-24.4629L46.9727-24.4629L46.2402-26.709L12.4512-26.709ZM55.127 0L57.7637 0L30.6152-70.459L29.4434-70.459L29.4434-67.1387Z"/>
  </g>
  <line id="Baseline-M" style="fill:none;stroke:#27AAE1;opacity:1;stroke-width:0.5;" x1="263" x2="3036" y1="1126" y2="1126"/>
  <line id="Capline-M" style="fill:none;stroke:#27AAE1;opacity:1;stroke-width:0.5;" x1="263" x2="3036" y1="1055.54" y2="1055.54"/>
  <g id="H-reference" style="fill:#27AAE1;stroke:none;" transform="matrix(1 0 0 1 339 1556)">
   <path d="M0.976562 0L3.66211 0L29.3457-67.1387L30.0293-67.1387L30.0293-70.459L28.125-70.459ZM11.6699-24.4629L46.9727-24.4629L46.2402-26.709L12.4512-26.709ZM55.127 0L57.7637 0L30.6152-70.459L29.4434-70.459L29.4434-67.1387Z"/>
  </g>
  <line id="Baseline-L" style="fill:none;stroke:#27AAE1;opacity:1;stroke-width:0.5;" x1="263" x2="3036" y1="1556" y2="1556"/>
  <line id="Capline-L" style="fill:none;stroke:#27AAE1;opacity:1;stroke-width:0.5;" x1="263" x2="3036" y1="1485.54" y2="1485.54"/>
  <line id="left-margin-Regular-M" style="fill:none;stroke:#00AEEF;stroke-width:0.5;opacity:1.0;" x1="1390.94" x2="1390.94" y1="1030.78" y2="1150.12"/>
  <line id="right-margin-Regular-M" style="fill:none;stroke:#00AEEF;stroke-width:0.5;opacity:1.0;" x1="1508.75" x2="1508.75" y1="1030.78" y2="1150.12"/>
 </g>
 <g id="Symbols">
  <g id="Black-L" transform="matrix(1 0 0 1 2854.49 1556)">
   <path d="M14.4756-45.396Q14.4756-34.0574 18.7433-24.112Q23.0109-14.1666 30.5338-6.64307Q38.0567 0.880501 47.9918 5.13714Q57.9268 9.39377 69.2861 9.39377Q76.0119 9.39377 82.2742 7.79245Q88.5364 6.19109 94.0836 3.29701L115.92 25.1561Q118.245 27.4605 121.249 28.5745Q124.252 29.6884 127.424 29.6884Q134.264 29.6884 138.802 25.0971Q143.341 20.5057 143.341 13.7286Q143.341 10.595 142.218 7.66064Q141.095 4.72624 138.772 2.38281L117.211-19.1999Q120.506-24.9652 122.291-31.6179Q124.076-38.2706 124.076-45.396Q124.076-56.7539 119.809-66.6896Q115.542-76.6253 108.029-84.1489Q100.517-91.6724 90.57-95.9394Q80.6233-100.206 69.2861-100.206Q57.9268-100.206 47.9918-95.9394Q38.0567-91.6724 30.5338-84.1489Q23.0109-76.6253 18.7433-66.6896Q14.4756-56.7539 14.4756-45.396ZM36.8244-45.396Q36.8244-52.1074 39.3385-57.987Q41.8525-63.8666 46.3333-68.3371Q50.8142-72.8075 56.6944-75.3325Q62.5746-77.8576 69.2861-77.8576Q75.9976-77.8576 81.8667-75.3325Q87.7359-72.8075 92.2168-68.3371Q96.6976-63.8666 99.2227-57.987Q101.748-52.1074 101.748-45.396Q101.748-38.6845 99.2227-32.8147Q96.6976-26.9448 92.2168-22.4646Q87.7359-17.9844 81.8667-15.4594Q75.9976-12.9343 69.2861-12.9343Q62.5746-12.9343 56.6944-15.4594Q50.8142-17.9844 46.3333-22.4646Q41.8525-26.9448 39.3385-32.8147Q36.8244-38.6845 36.8244-45.396Z"/>
  </g>
  <g id="Heavy-L" transform="matrix(1 0 0 1 2558.51 1556)">
   <path d="M14.4756-45.8313Q14.4756-34.7379 18.6554-25.0057Q22.835-15.2734 30.2028-7.90263Q37.5706-0.531832 47.288 3.63Q57.0053 7.79181 68.1285 7.79181Q75.2041 7.79181 81.7447 5.97378Q88.2852 4.15569 93.9745 0.874283L118.096 25.0378Q120.126 27.0376 122.728 28.0064Q125.331 28.9751 128.078 28.9751Q134.033 28.9751 137.951 24.9902Q141.868 21.0052 141.868 15.1188Q141.868 12.3868 140.891 9.84689Q139.913 7.30695 137.922 5.28623L114.039-18.6333Q117.716-24.5221 119.734-31.4439Q121.752-38.3655 121.752-45.8313Q121.752-56.9483 117.575-66.6687Q113.398-76.3891 106.045-83.7599Q98.6923-91.1306 88.954-95.3074Q79.2157-99.4841 68.1285-99.4841Q57.0053-99.4841 47.288-95.3074Q37.5706-91.1306 30.2028-83.7599Q22.835-76.3891 18.6554-66.6687Q14.4756-56.9483 14.4756-45.8313ZM33.9221-45.8313Q33.9221-52.9072 36.5678-59.1029Q39.2136-65.2985 43.9343-70.0044Q48.6552-74.7104 54.8538-77.374Q61.0524-80.0376 68.1285-80.0376Q75.2045-80.0376 81.3852-77.374Q87.5659-74.7104 92.2868-70.0044Q97.0076-65.2985 99.6712-59.1029Q102.335-52.9072 102.335-45.8313Q102.335-38.7552 99.6712-32.5715Q97.0076-26.3878 92.2868-21.67Q87.5659-16.9522 81.3852-14.2885Q75.2045-11.625 68.1285-11.625Q61.0524-11.625 54.8538-14.2885Q48.6552-16.9522 43.9343-21.67Q39.2136-26.3878 36.5678-32.5715Q33.9221-38.7552 33.9221-45.8313Z"/>
  </g>
  <g id="Bold-L" transform="matrix(1 0 0 1 2262.73 1556)">
   <path d="M14.4756-46.3815Q14.4756-35.5941 18.5455-26.1334Q22.6153-16.6726 29.7865-9.4944Q36.9577-2.31608 46.3999 1.72819Q55.8422 5.77243 66.6666 5.77243Q74.145 5.77243 81.0027 3.69758Q87.8603 1.62265 93.7028-2.11794L120.598 24.8422Q122.268 26.4753 124.391 27.273Q126.514 28.0707 128.755 28.0707Q133.659 28.0707 136.837 24.8059Q140.014 21.5411 140.014 16.7229Q140.014 14.4747 139.212 12.4062Q138.41 10.3378 136.808 8.69818L110.104-18.057Q114.232-24.0754 116.526-31.3024Q118.821-38.5294 118.821-46.3815Q118.821-57.1916 114.758-66.641Q110.695-76.0904 103.542-83.2687Q96.3896-90.4469 86.9147-94.5097Q77.4397-98.5724 66.6666-98.5724Q55.8422-98.5724 46.3999-94.5097Q36.9577-90.4469 29.7865-83.2687Q22.6153-76.0904 18.5455-66.641Q14.4756-57.1916 14.4756-46.3815ZM30.3618-46.3815Q30.3618-53.894 33.1677-60.4677Q35.9737-67.0413 40.983-72.0323Q45.9925-77.0232 52.5733-79.8547Q59.154-82.6863 66.6666-82.6863Q74.1791-82.6863 80.7342-79.8547Q87.2894-77.0232 92.2988-72.0323Q97.3082-67.0413 100.14-60.4677Q102.971-53.894 102.971-46.3815Q102.971-38.8689 100.14-32.3067Q97.3082-25.7445 92.2988-20.7422Q87.2894-15.7398 80.7342-12.9083Q74.1791-10.0768 66.6666-10.0768Q59.154-10.0768 52.5733-12.9083Q45.9925-15.7398 40.983-20.7422Q35.9737-25.7445 33.1677-32.3067Q30.3618-38.8689 30.3618-46.3815Z"/>
  </g>
  <g id="Semibold-L" transform="matrix(1 0 0 1 1966.66 1556)">
   <path d="M14.4756-46.7608Q14.4756-36.1844 18.4698-26.9108Q22.4639-17.6372 29.4995-10.5917Q36.5352-3.54612 45.7877 0.417096Q55.0403 4.38028 65.6588 4.38028Q73.4149 4.38028 80.4911 2.12838Q87.5673-0.123612 93.5155-4.18076L122.322 24.7074Q123.744 26.0877 125.537 26.7675Q127.33 27.4472 129.221 27.4472Q133.401 27.4472 136.069 24.6789Q138.736 21.9105 138.736 17.8287Q138.736 15.914 138.055 14.1706Q137.374 12.4272 136.04 11.0504L107.391-17.6597Q111.831-23.7675 114.315-31.2049Q116.8-38.6423 116.8-46.7608Q116.8-57.3594 112.816-66.6219Q108.831-75.8844 101.817-82.93Q94.8022-89.9756 85.5087-93.9597Q76.2153-97.944 65.6588-97.944Q55.0403-97.944 45.7877-93.9597Q36.5352-89.9756 29.4995-82.93Q22.4639-75.8844 18.4698-66.6219Q14.4756-57.3594 14.4756-46.7608ZM27.9073-46.7608Q27.9073-54.5743 30.8237-61.4086Q33.7401-68.2428 38.9484-73.4302Q44.1569-78.6177 51.0011-81.565Q57.8452-84.5123 65.6588-84.5123Q73.4723-84.5123 80.2855-81.565Q87.0987-78.6177 92.3071-73.4302Q97.5155-68.2428 100.463-61.4086Q103.41-54.5743 103.41-46.7608Q103.41-38.9473 100.463-32.1242Q97.5155-25.301 92.3071-20.1026Q87.0987-14.9041 80.2855-11.9567Q73.4723-9.0095 65.6588-9.0095Q57.8452-9.0095 51.0011-11.9567Q44.1569-14.9041 38.9484-20.1026Q33.7401-25.301 30.8237-32.1242Q27.9073-38.9473 27.9073-46.7608Z"/>
  </g>
  <g id="Medium-L" transform="matrix(1 0 0 1 1670.43 1556)">
   <path d="M14.4756-47.0485Q14.4756-36.632 18.4123-27.5003Q22.349-18.3687 29.2819-11.4238Q36.2148-4.4788 45.3235-0.577032Q54.4323 3.32469 64.8946 3.32469Q72.8613 3.32469 80.1032 0.938543Q87.3452-1.4477 93.3735-5.74488L123.629 24.6051Q124.864 25.7938 126.406 26.3841Q127.949 26.9745 129.575 26.9745Q133.206 26.9745 135.486 24.5825Q137.767 22.1906 137.767 18.6672Q137.767 17.0054 137.178 15.5084Q136.589 14.0115 135.457 12.8339L105.335-17.3584Q110.01-23.534 112.639-31.131Q115.268-38.7279 115.268-47.0485Q115.268-57.4866 111.343-66.6074Q107.418-75.7283 100.508-82.6732Q93.5985-89.6181 84.4427-93.5428Q75.2869-97.4674 64.8946-97.4674Q54.4323-97.4674 45.3235-93.5428Q36.2148-89.6181 29.2819-82.6732Q22.349-75.7283 18.4123-66.6074Q14.4756-57.4866 14.4756-47.0485ZM26.0462-47.0485Q26.0462-55.0902 29.0463-62.122Q32.0465-69.1538 37.4057-74.4902Q42.7651-79.8267 49.809-82.8617Q56.8528-85.8968 64.8946-85.8968Q72.9363-85.8968 79.9452-82.8617Q86.9542-79.8267 92.3134-74.4902Q97.6727-69.1538 100.708-62.122Q103.743-55.0902 103.743-47.0485Q103.743-39.0068 100.708-31.9858Q97.6727-24.9648 92.3134-19.6176Q86.9542-14.2703 79.9452-11.2352Q72.9363-8.20023 64.8946-8.20023Q56.8528-8.20023 49.809-11.2352Q42.7651-14.2703 37.4057-19.6176Q32.0465-24.9648 29.0463-31.9858Q26.0462-39.0068 26.0462-47.0485Z"/>
  </g>
  <g id="Regular-L" transform="matrix(1 0 0 1 1374.35 1556)">
   <path d="M14.4756-47.4236Q14.4756-37.2158 18.3374-28.2693Q22.1992-19.3227 28.9981-12.5091Q35.797-5.69532 44.7181-1.87372Q53.6392 1.94784 63.8979 1.94784Q72.1392 1.94784 79.5973-0.613413Q87.0555-3.17477 93.1882-7.78503L125.335 24.4717Q126.324 25.4104 127.54 25.8841Q128.756 26.3578 130.037 26.3578Q132.951 26.3578 134.727 24.4569Q136.503 22.5559 136.503 19.7609Q136.503 18.4289 136.033 17.2534Q135.564 16.0779 134.697 15.1602L102.652-16.9655Q107.635-23.2294 110.452-31.0345Q113.269-38.8396 113.269-47.4236Q113.269-57.6525 109.422-66.5885Q105.575-75.5246 98.802-82.3383Q92.0284-89.152 83.0522-92.9989Q74.076-96.8459 63.8979-96.8459Q53.6392-96.8459 44.7181-92.9989Q35.797-89.152 28.9981-82.3383Q22.1992-75.5246 18.3374-66.5885Q14.4756-57.6525 14.4756-47.4236ZM23.6187-47.4236Q23.6187-55.763 26.7281-63.0525Q29.8375-70.3421 35.3935-75.8728Q40.9496-81.4036 48.2541-84.5532Q55.5584-87.7027 63.8979-87.7027Q72.2372-87.7027 79.5014-84.5532Q86.7656-81.4036 92.3216-75.8728Q97.8777-70.3421 101.027-63.0525Q104.177-55.763 104.177-47.4236Q104.177-39.0843 101.027-31.8053Q97.8777-24.5262 92.3216-18.985Q86.7656-13.4438 79.5014-10.2941Q72.2372-7.14466 63.8979-7.14466Q55.5584-7.14466 48.2541-10.2941Q40.9496-13.4438 35.3935-18.985Q29.8375-24.5262 26.7281-31.8053Q23.6187-39.0843 23.6187-47.4236Z"/>
  </g>
  <g id="Light-L" transform="matrix(1 0 0 1 1078.38 1556)">
   <path d="M14.4756-47.8751Q14.4756-37.893 18.2553-29.1825Q22.035-20.472 28.6698-13.8123Q35.3044-7.15239 43.9998-3.41291Q52.6952 0.326615 62.7076 0.326615Q71.031 0.326615 78.5301-2.33727Q86.0294-5.00123 92.1211-9.79616L125.807 24.0203Q126.591 24.7742 127.591 25.1864Q128.591 25.5985 129.647 25.5985Q132.13 25.5985 133.578 23.9951Q135.025 22.3917 135.025 20.1098Q135.025 19.0241 134.648 18.064Q134.271 17.104 133.527 16.33L99.9019-17.3759Q105.049-23.5783 107.979-31.4142Q110.909-39.2501 110.909-47.8751Q110.909-57.8372 107.155-66.5577Q103.4-75.2783 96.7805-81.9381Q90.161-88.5979 81.4002-92.3524Q72.6394-96.1071 62.7076-96.1071Q52.6952-96.1071 43.9998-92.3524Q35.3044-88.5979 28.6698-81.9381Q22.035-75.2783 18.2553-66.5577Q14.4756-57.8372 14.4756-47.8751ZM21.3818-47.8751Q21.3818-56.4197 24.5835-63.8837Q27.7853-71.3476 33.485-77.0323Q39.1848-82.717 46.6739-85.959Q54.1629-89.2008 62.7076-89.2008Q71.2522-89.2008 78.701-85.959Q86.1499-82.717 91.8497-77.0323Q97.5493-71.3476 100.791-63.8837Q104.033-56.4197 104.033-47.8751Q104.033-39.3306 100.791-31.8565Q97.5493-24.3825 91.8497-18.708Q86.1499-13.0333 78.701-9.79133Q71.2522-6.54953 62.7076-6.54953Q54.1629-6.54953 46.6739-9.79133Q39.1848-13.0333 33.485-18.708Q27.7853-24.3825 24.5835-31.8565Q21.3818-39.3306 21.3818-47.8751Z"/>
  </g>
  <g id="Thin-L" transform="matrix(1 0 0 1 782.649 1556)">
   <path d="M14.4756-48.4722Q14.4756-38.7887 18.1467-30.3902Q21.8179-21.9919 28.2355-15.5358Q34.653-9.07947 43.0498-5.4486Q51.4466-1.81759 61.1333-1.81759Q69.5654-1.81759 77.1187-4.61722Q84.6723-7.41686 90.7098-12.456L126.431 23.4231Q126.944 23.9328 127.659 24.2635Q128.374 24.5943 129.131 24.5943Q131.044 24.5943 132.058 23.3844Q133.071 22.1746 133.071 20.5712Q133.071 19.8112 132.816 19.1361Q132.561 18.4611 131.98 17.877L96.2648-17.9188Q101.629-24.0397 104.708-31.9164Q107.788-39.7929 107.788-48.4722Q107.788-58.0815 104.156-66.517Q100.523-74.9526 94.107-81.4088Q87.6911-87.8651 79.2152-91.4975Q70.7395-95.13 61.1333-95.13Q51.4466-95.13 43.0498-91.4975Q34.653-87.8651 28.2355-81.4088Q21.8179-74.9526 18.1467-66.517Q14.4756-58.0815 14.4756-48.4722ZM18.4233-48.4722Q18.4233-57.2882 21.7472-64.9829Q25.0711-72.6776 30.9608-78.5658Q36.8506-84.4541 44.5839-87.8182Q52.3173-91.1821 61.1333-91.1821Q69.9493-91.1821 77.6425-87.8182Q85.3356-84.4541 91.2254-78.5658Q97.1151-72.6776 100.479-64.9829Q103.843-57.2882 103.843-48.4722Q103.843-39.6563 100.479-31.9243Q97.1151-24.1925 91.2254-18.3416Q85.3356-12.4904 77.6425-9.12634Q69.9493-5.76242 61.1333-5.76242Q52.3173-5.76242 44.5839-9.12634Q36.8506-12.4904 30.9608-18.3416Q25.0711-24.1925 21.7472-31.9243Q18.4233-39.6563 18.4233-48.4722Z"/>
  </g>
  <g id="Ultralight-L" transform="matrix(1 0 0 1 486.439 1556)">
   <path d="M14.4756-48.778Q14.4756-39.2475 18.0911-31.0089Q21.7067-22.7704 28.0131-16.4186Q34.3193-10.0665 42.5632-6.49128Q50.8071-2.91584 60.3269-2.91584Q68.8147-2.91584 76.3958-5.785Q83.9772-8.65413 89.9869-13.8184L126.751 23.1173Q127.125 23.5018 127.694 23.7909Q128.263 24.0799 128.867 24.0799Q130.488 24.0799 131.279 23.0716Q132.07 22.0634 132.07 20.8075Q132.07 20.2144 131.878 19.6853Q131.685 19.1562 131.188 18.6695L94.402-18.1969Q99.8772-24.2761 103.033-32.1736Q106.189-40.071 106.189-48.778Q106.189-58.2066 102.619-66.4961Q99.0494-74.7858 92.7377-81.1377Q86.426-87.4898 78.0961-91.0596Q69.7664-94.6295 60.3269-94.6295Q50.8071-94.6295 42.5632-91.0596Q34.3193-87.4898 28.0131-81.1377Q21.7067-74.7858 18.0911-66.4961Q14.4756-58.2066 14.4756-48.778ZM16.908-48.778Q16.908-57.7331 20.2945-65.5459Q23.6809-73.3587 29.6679-79.3513Q35.655-85.3439 43.5134-88.7705Q51.3719-92.197 60.3269-92.197Q69.282-92.197 77.1003-88.7705Q84.9185-85.3439 90.9057-79.3513Q96.8926-73.3587 100.319-65.5459Q103.746-57.7331 103.746-48.778Q103.746-39.8232 100.319-31.9591Q96.8926-24.0952 90.9057-18.1539Q84.9185-12.2124 77.1003-8.78574Q69.282-5.35927 60.3269-5.35927Q51.3719-5.35927 43.5134-8.78574Q35.655-12.2124 29.6679-18.1539Q23.6809-24.0952 20.2945-31.9591Q16.908-39.8232 16.908-48.778Z"/>
  </g>
  <g id="Black-M" transform="matrix(1 0 0 1 2871.73 1126)">
   <path d="M11.2148-42.7931Q11.2148-33.8285 14.5856-25.9722Q17.9564-18.1158 23.8958-12.1766Q29.8352-6.23729 37.6888-2.86915Q45.5424 0.499014 54.5125 0.499014Q59.4337 0.499014 64.0518-0.569251Q68.6698-1.63753 72.8397-3.57182L88.0008 11.5941Q90.0284 13.6162 92.6714 14.5957Q95.3143 15.5752 98.1054 15.5752Q104.108 15.5752 108.112 11.5372Q112.117 7.49915 112.117 1.55274Q112.117-1.18671 111.135-3.76992Q110.152-6.35314 108.084-8.42658L93.1626-23.3534Q95.4086-27.7055 96.6066-32.6326Q97.8045-37.5596 97.8045-42.7931Q97.8045-51.7635 94.4336-59.6169Q91.0627-67.4703 85.126-73.4096Q79.1894-79.3488 71.3334-82.7197Q63.4773-86.0906 54.5125-86.0906Q45.5424-86.0906 37.6888-82.7197Q29.8352-79.3488 23.8958-73.4096Q17.9564-67.4703 14.5856-59.6169Q11.2148-51.7635 11.2148-42.7931ZM30.7207-42.7931Q30.7207-47.7072 32.5678-52.0144Q34.4149-56.3216 37.6995-59.6035Q40.9843-62.8854 45.2913-64.7351Q49.5983-66.5849 54.5125-66.5849Q59.4266-66.5849 63.731-64.7351Q68.0354-62.8854 71.3202-59.6035Q74.6048-56.3216 76.4545-52.0144Q78.3042-47.7072 78.3042-42.7931Q78.3042-37.8789 76.4545-33.5746Q74.6048-29.2704 71.3202-25.9855Q68.0354-22.7007 63.731-20.851Q59.4266-19.0013 54.5125-19.0013Q49.5983-19.0013 45.2913-20.851Q40.9843-22.7007 37.6995-25.9855Q34.4149-29.2704 32.5678-33.5746Q30.7207-37.8789 30.7207-42.7931Z"/>
  </g>
  <g id="Heavy-M" transform="matrix(1 0 0 1 2575.67 1126)">
   <path d="M11.2148-43.177Q11.2148-34.4312 14.5073-26.7615Q17.7996-19.0917 23.6025-13.2876Q29.4054-7.48353 37.067-4.20048Q44.7287-0.91744 53.4907-0.91744Q58.7462-0.91744 63.6326-2.18809Q68.5189-3.45877 72.8315-5.75467L90.0853 11.5201Q91.8428 13.2615 94.1134 14.1047Q96.3838 14.9479 98.7808 14.9479Q103.957 14.9479 107.386 11.4753Q110.814 8.00267 110.814 2.87958Q110.814 0.509987 109.965-1.7075Q109.117-3.92498 107.362-5.6962L90.3148-22.7616Q92.9198-27.2402 94.3349-32.4274Q95.7501-37.6146 95.7501-43.177Q95.7501-51.9364 92.4589-59.5993Q89.1678-67.2621 83.373-73.0663Q77.5782-78.8703 69.9061-82.1615Q62.2338-85.4527 53.4907-85.4527Q44.7287-85.4527 37.067-82.1615Q29.4054-78.8703 23.6025-73.0663Q17.7996-67.2621 14.5073-59.5993Q11.2148-51.9364 11.2148-43.177ZM28.0898-43.177Q28.0898-48.4285 30.0571-53.0286Q32.0244-57.6286 35.5304-61.1265Q39.0365-64.6245 43.6378-66.6011Q48.239-68.5777 53.4907-68.5777Q58.7422-68.5777 63.3341-66.6011Q67.926-64.6245 71.4321-61.1265Q74.9381-57.6286 76.9147-53.0286Q78.8914-48.4285 78.8914-43.177Q78.8914-37.9253 76.9147-33.3322Q74.9381-28.7391 71.4321-25.2342Q67.926-21.7294 63.3341-19.7528Q58.7422-17.7762 53.4907-17.7762Q48.239-17.7762 43.6378-19.7528Q39.0365-21.7294 35.5304-25.2342Q32.0244-28.7391 30.0571-33.3322Q28.0898-37.9253 28.0898-43.177Z"/>
  </g>
  <g id="Bold-M" transform="matrix(1 0 0 1 2279.69 1126)">
   <path d="M11.2148-43.6064Q11.2148-35.1055 14.4196-27.6445Q17.6243-20.1834 23.2745-14.5306Q28.9246-8.87762 36.3715-5.68977Q43.8184-2.50195 52.3476-2.50195Q57.9772-2.50195 63.1636-3.99899Q68.35-5.4961 72.8223-8.19651L92.417 11.4374Q93.8725 12.8647 95.7264 13.5555Q97.5801 14.2463 99.5364 14.2463Q103.789 14.2463 106.573 11.4061Q109.357 8.56594 109.357 4.36384Q109.357 2.40799 108.657 0.599626Q107.958-1.20874 106.553-2.64188L87.1292-22.0996Q90.1356-26.7196 91.7938-32.1979Q93.4519-37.6761 93.4519-43.6064Q93.4519-52.1299 90.25-59.5796Q87.048-67.0293 81.412-72.6822Q75.7759-78.3351 68.3094-81.537Q60.8428-84.739 52.3476-84.739Q43.8184-84.739 36.3715-81.537Q28.9246-78.3351 23.2745-72.6822Q17.6243-67.0293 14.4196-59.5796Q11.2148-52.1299 11.2148-43.6064ZM25.1469-43.6064Q25.1469-49.2354 27.2486-54.163Q29.3504-59.0907 33.104-62.8302Q36.8577-66.5698 41.7881-68.6884Q46.7184-70.807 52.3476-70.807Q57.9766-70.807 62.8901-68.6884Q67.8036-66.5698 71.5573-62.8302Q75.3109-59.0907 77.4296-54.163Q79.5481-49.2354 79.5481-43.6064Q79.5481-37.9773 77.4296-33.0611Q75.3109-28.1448 71.5573-24.3939Q67.8036-20.6429 62.8901-18.5243Q57.9766-16.4058 52.3476-16.4058Q46.7184-16.4058 41.7881-18.5243Q36.8577-20.6429 33.104-24.3939Q29.3504-28.1448 27.2486-33.0611Q25.1469-37.9773 25.1469-43.6064Z"/>
  </g>
  <g id="Semibold-M" transform="matrix(1 0 0 1 1983.48 1126)">
   <path d="M11.2148-43.9024Q11.2148-35.5703 14.3592-28.2532Q17.5034-20.9361 23.0483-15.3874Q28.5932-9.8387 35.892-6.71647Q43.1909-3.5943 51.5595-3.5943Q57.4471-3.5943 62.8404-5.24742Q68.2336-6.90062 72.816-9.87989L94.0245 11.3804Q95.2717 12.5912 96.8384 13.1769Q98.4049 13.7626 100.057 13.7626Q103.673 13.7626 106.013 11.3584Q108.352 8.95424 108.352 5.38708Q108.352 3.71646 107.756 2.19014Q107.159 0.663826 105.996-0.536248L84.933-21.6432Q88.2162-26.3608 90.0419-32.0397Q91.8676-37.7185 91.8676-43.9024Q91.8676-52.2633 88.7271-59.566Q85.5866-66.8687 80.0601-72.4174Q74.5334-77.9661 67.2087-81.1065Q59.8839-84.247 51.5595-84.247Q43.1909-84.247 35.892-81.1065Q28.5932-77.9661 23.0483-72.4174Q17.5034-66.8687 14.3592-59.566Q11.2148-52.2633 11.2148-43.9024ZM23.118-43.9024Q23.118-49.7916 25.3124-54.9451Q27.5069-60.0986 31.4312-64.0048Q35.3556-67.9109 40.5129-70.1274Q45.6702-72.3439 51.5595-72.3439Q57.4488-72.3439 62.584-70.1274Q67.7192-67.9109 71.6436-64.0048Q75.568-60.0986 77.7845-54.9451Q80.0009-49.7916 80.0009-43.9024Q80.0009-38.0131 77.7845-32.8741Q75.568-27.735 71.6436-23.8145Q67.7192-19.8939 62.584-17.6774Q57.4488-15.461 51.5595-15.461Q45.6702-15.461 40.5129-17.6774Q35.3556-19.8939 31.4312-23.8145Q27.5069-27.735 25.3124-32.8741Q23.118-38.0131 23.118-43.9024Z"/>
  </g>
  <g id="Medium-M" transform="matrix(1 0 0 1 1687.15 1126)">
   <path d="M11.2148-44.1269Q11.2148-35.9228 14.3134-28.7148Q17.4117-21.5067 22.8768-16.0371Q28.3419-10.5674 35.5285-7.49496Q42.7151-4.42256 50.962-4.42256Q57.0451-4.42256 62.5952-6.19403Q68.1454-7.96558 72.8112-11.1563L95.2434 11.3371Q96.3327 12.3837 97.6815 12.8898Q99.0303 13.3958 100.452 13.3958Q103.585 13.3958 105.588 11.3222Q107.59 9.24868 107.59 6.16295Q107.59 4.7086 107.072 3.39614Q106.554 2.08368 105.573 1.06033L83.2678-21.2972Q86.7608-26.0887 88.7136-31.9197Q90.6663-37.7507 90.6663-44.1269Q90.6663-52.3644 87.5724-59.5558Q84.4786-66.747 79.035-72.2167Q73.5913-77.6863 66.3741-80.7801Q59.1568-83.874 50.962-83.874Q42.7151-83.874 35.5285-80.7801Q28.3419-77.6863 22.8768-72.2167Q17.4117-66.747 14.3134-59.5558Q11.2148-52.3644 11.2148-44.1269ZM21.5797-44.1269Q21.5797-50.2134 23.8443-55.5382Q26.1091-60.8629 30.1628-64.8953Q34.2167-68.9278 39.5461-71.2185Q44.8754-73.5092 50.962-73.5092Q57.0486-73.5092 62.3519-71.2185Q67.6552-68.9278 71.709-64.8953Q75.7629-60.8629 78.0536-55.5382Q80.3442-50.2134 80.3442-44.1269Q80.3442-38.0403 78.0536-32.7324Q75.7629-27.4244 71.709-23.3752Q67.6552-19.326 62.3519-17.0352Q57.0486-14.7446 50.962-14.7446Q44.8754-14.7446 39.5461-17.0352Q34.2167-19.326 30.1628-23.3752Q26.1091-27.4244 23.8443-32.7324Q21.5797-38.0403 21.5797-44.1269Z"/>
  </g>
  <g id="Regular-M" transform="matrix(1 0 0 1 1390.94 1126)">
   <path d="M11.2148-44.4196Q11.2148-36.3825 14.2536-29.3168Q17.2922-22.2511 22.6531-16.8846Q28.0141-11.5179 35.0543-8.51039Q42.0945-5.50291 50.1826-5.50291Q56.5208-5.50291 62.2755-7.42874Q68.0302-9.35467 72.8049-12.8212L96.8332 11.2807Q97.7166 12.1132 98.7813 12.5153Q99.8459 12.9174 100.967 12.9174Q103.47 12.9174 105.033 11.2751Q106.596 9.63272 106.596 7.17494Q106.596 6.00269 106.18 4.96918Q105.764 3.93567 105.022 3.14282L81.0957-20.8458Q84.8625-25.7338 86.981-31.7632Q89.0994-37.7926 89.0994-44.4196Q89.0994-52.4964 86.0663-59.5423Q83.0333-66.5882 77.6979-71.9548Q72.3625-77.3213 65.2854-80.3544Q58.2083-83.3874 50.1826-83.3874Q42.0945-83.3874 35.0543-80.3544Q28.0141-77.3213 22.6531-71.9548Q17.2922-66.5882 14.2536-59.5423Q11.2148-52.4964 11.2148-44.4196ZM19.5731-44.4196Q19.5731-50.7635 21.9294-56.3117Q24.2858-61.8598 28.5084-66.057Q32.7311-70.2542 38.2849-72.6416Q43.8386-75.0291 50.1826-75.0291Q56.5266-75.0291 62.0491-72.6416Q67.5718-70.2542 71.7944-66.057Q76.0171-61.8598 78.4046-56.3117Q80.7921-50.7635 80.7921-44.4196Q80.7921-38.0757 78.4046-32.5475Q76.0171-27.0191 71.7944-22.8022Q67.5718-18.5852 62.0491-16.1976Q56.5266-13.8102 50.1826-13.8102Q43.8386-13.8102 38.2849-16.1976Q32.7311-18.5852 28.5084-22.8022Q24.2858-27.0191 21.9294-32.5475Q19.5731-38.0757 19.5731-44.4196Z"/>
  </g>
  <g id="Light-M" transform="matrix(1 0 0 1 1094.89 1126)">
   <path d="M11.2148-44.8244Q11.2148-36.9897 14.18-30.1356Q17.145-23.2814 22.3588-18.0529Q27.5725-12.8243 34.4103-9.89035Q41.2481-6.95642 49.1155-6.95642Q55.5272-6.95642 61.3187-8.97427Q67.1103-10.9922 71.8482-14.6243L97.2564 10.8759Q97.9558 11.5428 98.8273 11.8897Q99.6988 12.2366 100.618 12.2366Q102.734 12.2366 104.003 10.8611Q105.272 9.48553 105.272 7.48772Q105.272 6.53626 104.938 5.69594Q104.605 4.85562 103.973 4.19156L78.6303-21.2138Q82.5442-26.0466 84.7639-32.1037Q86.9835-38.1606 86.9835-44.8244Q86.9835-52.662 84.0333-59.5147Q81.083-66.3675 75.8856-71.596Q70.6882-76.8246 63.8043-79.7748Q56.9204-82.725 49.1155-82.725Q41.2481-82.725 34.4103-79.7748Q27.5725-76.8246 22.3588-71.596Q17.145-66.3675 14.18-59.5147Q11.2148-52.662 11.2148-44.8244ZM17.5676-44.8244Q17.5676-51.3523 20.0067-57.0568Q22.4459-62.7613 26.7973-67.0965Q31.1488-71.4317 36.8682-73.902Q42.5875-76.3723 49.1155-76.3723Q55.6434-76.3723 61.3316-73.902Q67.0198-71.4317 71.3712-67.0965Q75.7227-62.7613 78.193-57.0568Q80.6633-51.3523 80.6633-44.8244Q80.6633-38.2966 78.193-32.5935Q75.7227-26.8904 71.3712-22.5538Q67.0198-18.2172 61.3316-15.7469Q55.6434-13.2767 49.1155-13.2767Q42.5875-13.2767 36.8682-15.7469Q31.1488-18.2172 26.7973-22.5538Q22.4459-26.8904 20.0067-32.5935Q17.5676-38.2966 17.5676-44.8244Z"/>
  </g>
  <g id="Thin-M" transform="matrix(1 0 0 1 799.055 1126)">
   <path d="M11.2148-45.3597Q11.2148-37.7928 14.0826-31.2184Q16.9503-24.6441 21.9695-19.5981Q26.9885-14.552 33.5586-11.7155Q40.1287-8.87881 47.7041-8.87881Q54.2132-8.87881 60.0533-11.0184Q65.8936-13.1579 70.5829-17.009L97.816 10.3406Q98.2721 10.7885 98.8881 11.0624Q99.5041 11.3362 100.155 11.3362Q101.761 11.3362 102.64 10.3136Q103.52 9.29085 103.52 7.90141Q103.52 7.24195 103.296 6.65713Q103.072 6.07233 102.586 5.57861L75.3695-21.7005Q79.4781-26.4603 81.8316-32.5539Q84.1851-38.6473 84.1851-45.3597Q84.1851-52.881 81.3443-59.4782Q78.5036-66.0755 73.4887-71.1215Q68.4738-76.1676 61.8454-79.0083Q55.2171-81.849 47.7041-81.849Q40.1287-81.849 33.5586-79.0083Q26.9885-76.1676 21.9695-71.1215Q16.9503-66.0755 14.0826-59.4782Q11.2148-52.881 11.2148-45.3597ZM14.9152-45.3597Q14.9152-52.131 17.4638-58.0423Q20.0125-63.9537 24.5342-68.4714Q29.0561-72.9891 34.9944-75.5689Q40.9328-78.1486 47.7041-78.1486Q54.4753-78.1486 60.3825-75.5689Q66.2897-72.9891 70.8116-68.4714Q75.3333-63.9537 77.9131-58.0423Q80.4929-52.131 80.4929-45.3597Q80.4929-38.5886 77.9131-32.6543Q75.3333-26.72 70.8116-22.2253Q66.2897-17.7305 60.3825-15.1507Q54.4753-12.571 47.7041-12.571Q40.9328-12.571 34.9944-15.1507Q29.0561-17.7305 24.5342-22.2253Q20.0125-26.72 17.4638-32.6543Q14.9152-38.5886 14.9152-45.3597Z"/>
  </g>
  <g id="Ultralight-M" transform="matrix(1 0 0 1 502.793 1126)">
   <path d="M11.2148-45.6339Q11.2148-38.2041 14.0327-31.773Q16.8506-25.3421 21.77-20.3896Q26.6893-15.4369 33.1224-12.6503Q39.5554-9.86345 46.9811-9.86345Q53.5402-9.86345 59.4052-12.0653Q65.2704-14.2672 69.9348-18.2304L98.1027 10.0664Q98.4342 10.4021 98.9192 10.6386Q99.4044 10.8751 99.9185 10.8751Q101.263 10.8751 101.942 10.0331Q102.622 9.19114 102.622 8.11329Q102.622 7.60341 102.454 7.14946Q102.287 6.69552 101.876 6.28905L73.6993-21.9498Q77.9076-26.6722 80.3297-32.7845Q82.7518-38.8966 82.7518-45.6339Q82.7518-52.9932 79.9671-59.4595Q77.1824-65.9259 72.261-70.8784Q67.3396-75.8311 60.842-78.6156Q54.3446-81.4003 46.9811-81.4003Q39.5554-81.4003 33.1224-78.6156Q26.6893-75.8311 21.77-70.8784Q16.8506-65.9259 14.0327-59.4595Q11.2148-52.9932 11.2148-45.6339ZM13.5566-45.6339Q13.5566-52.5298 16.1614-58.5471Q18.7661-64.5644 23.3751-69.1756Q27.9842-73.7868 34.0347-76.4227Q40.0852-79.0585 46.9811-79.0585Q53.877-79.0585 59.8964-76.4227Q65.9158-73.7868 70.5249-69.1756Q75.1339-64.5644 77.7698-58.5471Q80.4057-52.5298 80.4057-45.6339Q80.4057-38.7382 77.7698-32.6854Q75.1339-26.6328 70.5249-22.057Q65.9158-17.4812 59.8964-14.8453Q53.877-12.2095 46.9811-12.2095Q40.0852-12.2095 34.0347-14.8453Q27.9842-17.4812 23.3751-22.057Q18.7661-26.6328 16.1614-32.6854Q13.5566-38.7382 13.5566-45.6339Z"/>
  </g>
  <g id="Black-S" transform="matrix(1 0 0 1 2884.91 696)">
   <path d="M8.78906-41.0645Q8.78906-33.9844 11.4502-27.7832Q14.1113-21.582 18.7988-16.8945Q23.4863-12.207 29.6875-9.5459Q35.8887-6.88477 42.9688-6.88477Q46.7285-6.88477 50.2686-7.66602Q53.8086-8.44727 57.0312-9.86328L68.3594 1.46484Q70.0195 3.125 72.1924 3.93066Q74.3652 4.73633 76.6602 4.73633Q81.5918 4.73633 84.8877 1.41602Q88.1836-1.9043 88.1836-6.78711Q88.1836-9.0332 87.3779-11.1572Q86.5723-13.2812 84.8633-14.9902L73.7305-26.123Q75.3906-29.4922 76.2695-33.2764Q77.1484-37.0605 77.1484-41.0645Q77.1484-48.1445 74.4873-54.3457Q71.8262-60.5469 67.1387-65.2344Q62.4512-69.9219 56.25-72.583Q50.0488-75.2441 42.9688-75.2441Q35.8887-75.2441 29.6875-72.583Q23.4863-69.9219 18.7988-65.2344Q14.1113-60.5469 11.4502-54.3457Q8.78906-48.1445 8.78906-41.0645ZM24.7559-41.0645Q24.7559-44.8242 26.1719-48.1201Q27.5879-51.416 30.1025-53.9307Q32.6172-56.4453 35.9131-57.8613Q39.209-59.2773 42.9688-59.2773Q46.7285-59.2773 50.0244-57.8613Q53.3203-56.4453 55.835-53.9307Q58.3496-51.416 59.7656-48.1201Q61.1816-44.8242 61.1816-41.0645Q61.1816-37.3047 59.7656-34.0088Q58.3496-30.7129 55.835-28.1982Q53.3203-25.6836 50.0244-24.2676Q46.7285-22.8516 42.9688-22.8516Q39.209-22.8516 35.9131-24.2676Q32.6172-25.6836 30.1025-28.1982Q27.5879-30.7129 26.1719-34.0088Q24.7559-37.3047 24.7559-41.0645Z"/>
  </g>
  <g id="Heavy-S" transform="matrix(1 0 0 1 2588.67 696)">
   <path d="M8.78906-41.3411Q8.78906-34.4223 11.3926-28.3537Q13.9961-22.285 18.5856-17.6955Q23.1752-13.1059 29.238-10.5082Q35.3009-7.91045 42.2312-7.91045Q46.2675-7.91045 50.0323-8.85304Q53.7971-9.79564 57.1464-11.4998L70.0881 1.45332Q71.5407 2.89451 73.4198 3.59069Q75.2987 4.28688 77.2825 4.28688Q81.5572 4.28688 84.3979 1.41602Q87.2386-1.45485 87.2386-5.69229Q87.2386-7.65027 86.5366-9.48616Q85.8347-11.3221 84.3793-12.789L71.61-25.5698Q73.5582-29.0543 74.61-33.0574Q75.6618-37.0605 75.6618-41.3411Q75.6618-48.2713 73.0583-54.3342Q70.4548-60.3971 65.871-64.9866Q61.2872-69.5762 55.2186-72.1796Q49.1499-74.7831 42.2312-74.7831Q35.3009-74.7831 29.238-72.1796Q23.1752-69.5762 18.5856-64.9866Q13.9961-60.3971 11.3926-54.3342Q8.78906-48.2713 8.78906-41.3411ZM22.7622-41.3411Q22.7622-45.3658 24.2703-48.8922Q25.7786-52.4186 28.466-55.1004Q31.1536-57.7821 34.68-59.2961Q38.2064-60.8101 42.2312-60.8101Q46.256-60.8101 49.7766-59.2961Q53.2973-57.7821 55.9848-55.1004Q58.6723-52.4186 60.1863-48.8922Q61.7002-45.3658 61.7002-41.3411Q61.7002-37.3162 60.1863-33.7956Q58.6723-30.275 55.9848-27.5874Q53.2973-24.8999 49.7766-23.386Q46.256-21.872 42.2312-21.872Q38.2064-21.872 34.68-23.386Q31.1536-24.8999 28.466-27.5874Q25.7786-30.275 24.2703-33.7956Q22.7622-37.3162 22.7622-41.3411Z"/>
  </g>
  <g id="Bold-S" transform="matrix(1 0 0 1 2292.49 696)">
   <path d="M8.78906-41.6504Q8.78906-34.9121 11.3282-28.9917Q13.8672-23.0713 18.3472-18.5913Q22.8271-14.1113 28.7354-11.5845Q34.6436-9.05764 41.4063-9.05764Q45.752-9.05764 49.7681-10.1807Q53.7842-11.3037 57.2754-13.3301L72.0215 1.44043Q73.2421 2.63672 74.7925 3.21044Q76.3428 3.78418 77.9785 3.78418Q81.5186 3.78418 83.8501 1.41602Q86.1816-0.95215 86.1816-4.46778Q86.1816-6.10351 85.5957-7.61717Q85.0098-9.13083 83.8379-10.3271L69.2383-24.9512Q71.5088-28.5645 72.7539-32.8125Q73.999-37.0605 73.999-41.6504Q73.999-48.413 71.4599-54.3213Q68.9209-60.2295 64.4531-64.7095Q59.9854-69.1895 54.0649-71.7285Q48.1445-74.2675 41.4063-74.2675Q34.6436-74.2675 28.7354-71.7285Q22.8271-69.1895 18.3472-64.7095Q13.8672-60.2295 11.3282-54.3213Q8.78906-48.413 8.78906-41.6504ZM20.5323-41.6504Q20.5323-45.9717 22.1435-49.7559Q23.7549-53.54 26.6357-56.4087Q29.5166-59.2774 33.3008-60.9008Q37.0849-62.5244 41.4063-62.5244Q45.7276-62.5244 49.4995-60.9008Q53.2715-59.2774 56.1524-56.4087Q59.0332-53.54 60.6568-49.7559Q62.2802-45.9717 62.2802-41.6504Q62.2802-37.3291 60.6568-33.5571Q59.0332-29.7851 56.1524-26.9043Q53.2715-24.0234 49.4995-22.3999Q45.7276-20.7764 41.4063-20.7764Q37.0849-20.7764 33.3008-22.3999Q29.5166-24.0234 26.6357-26.9043Q23.7549-29.7851 22.1435-33.5571Q20.5323-37.3291 20.5323-41.6504Z"/>
  </g>
  <g id="Semibold-S" transform="matrix(1 0 0 1 1996.14 696)">
   <path d="M8.78906-41.8637Q8.78906-35.2498 11.2837-29.4316Q13.7783-23.6133 18.1827-19.2089Q22.5872-14.8045 28.3888-12.3265Q34.1903-9.84856 40.8376-9.84856Q45.3965-9.84856 49.5859-11.096Q53.7753-12.3435 57.3642-14.592L73.3545 1.43154Q74.4152 2.45899 75.7389 2.94829Q77.0626 3.4376 78.4584 3.4376Q81.4919 3.4376 83.4724 1.41602Q85.4529-0.605567 85.4529-3.62354Q85.4529-5.03711 84.947-6.32861Q84.441-7.6201 83.4647-8.62977L67.6031-24.5246Q70.0958-28.2267 71.4742-32.6436Q72.8526-37.0605 72.8526-41.8637Q72.8526-48.5108 70.358-54.3124Q67.8634-60.114 63.4756-64.5184Q59.0878-68.9228 53.2696-71.4175Q47.4513-73.9121 40.8376-73.9121Q34.1903-73.9121 28.3888-71.4175Q22.5872-68.9228 18.1827-64.5184Q13.7783-60.114 11.2837-54.3124Q8.78906-48.5108 8.78906-41.8637ZM18.9948-41.8637Q18.9948-46.3893 20.6772-50.3513Q22.3597-54.3132 25.3738-57.3107Q28.388-60.3082 32.3499-62.0072Q36.3118-63.7063 40.8376-63.7063Q45.3632-63.7063 49.3084-62.0072Q53.2537-60.3082 56.2679-57.3107Q59.282-54.3132 60.9811-50.3513Q62.6802-46.3893 62.6802-41.8637Q62.6802-37.338 60.9811-33.3927Q59.282-29.4474 56.2679-26.4333Q53.2537-23.4192 49.3084-21.7201Q45.3632-20.021 40.8376-20.021Q36.3118-20.021 32.3499-21.7201Q28.388-23.4192 25.3738-26.4333Q22.3597-29.4474 20.6772-33.3927Q18.9948-37.338 18.9948-41.8637Z"/>
  </g>
  <g id="Medium-S" transform="matrix(1 0 0 1 1699.71 696)">
   <path d="M8.78906-42.0254Q8.78906-35.5058 11.25-29.7651Q13.7109-24.0244 18.0581-19.6773Q22.4053-15.3301 28.126-12.8891Q33.8467-10.4483 40.4063-10.4483Q45.127-10.4483 49.4478-11.79Q53.7686-13.1319 57.4316-15.5488L74.3652 1.42481Q75.3046 2.32422 76.4566 2.74951Q77.6084 3.1748 78.8223 3.1748Q81.4717 3.1748 83.186 1.41602Q84.9004-0.342774 84.9004-2.9834Q84.9004-4.22852 84.4551-5.35156Q84.0098-6.4746 83.1816-7.34277L66.3633-24.2012Q69.0244-27.9707 70.5039-32.5156Q71.9834-37.0605 71.9834-42.0254Q71.9834-48.5849 69.5224-54.3057Q67.0615-60.0264 62.7344-64.3736Q58.4072-68.7207 52.6665-71.1816Q46.9257-73.6426 40.4063-73.6426Q33.8467-73.6426 28.126-71.1816Q22.4053-68.7207 18.0581-64.3736Q13.7109-60.0264 11.25-54.3057Q8.78906-48.5849 8.78906-42.0254ZM17.8291-42.0254Q17.8291-46.706 19.5654-50.8027Q21.3018-54.8994 24.4169-57.9946Q27.5322-61.0899 31.6289-62.8462Q35.7256-64.6025 40.4063-64.6025Q45.0869-64.6025 49.1636-62.8462Q53.2403-61.0899 56.3555-57.9946Q59.4707-54.8994 61.2271-50.8027Q62.9834-46.706 62.9834-42.0254Q62.9834-37.3447 61.2271-33.2681Q59.4707-29.1914 56.3555-26.0762Q53.2403-22.961 49.1636-21.2046Q45.0869-19.4483 40.4063-19.4483Q35.7256-19.4483 31.6289-21.2046Q27.5322-22.961 24.4169-26.0762Q21.3018-29.1914 19.5654-33.2681Q17.8291-37.3447 17.8291-42.0254Z"/>
  </g>
  <g id="Regular-S" transform="matrix(1 0 0 1 1403.36 696)">
   <path d="M8.78906-42.2363Q8.78906-35.8398 11.2061-30.2002Q13.623-24.5605 17.8955-20.2881Q22.168-16.0156 27.7832-13.623Q33.3984-11.2305 39.8438-11.2305Q44.7754-11.2305 49.2676-12.6953Q53.7598-14.1602 57.5195-16.7969L75.6836 1.41602Q76.4648 2.14844 77.3926 2.49023Q78.3203 2.83203 79.2969 2.83203Q81.4453 2.83203 82.8125 1.41602Q84.1797 0 84.1797-2.14844Q84.1797-3.17383 83.8135-4.07715Q83.4473-4.98047 82.8125-5.66406L64.7461-23.7793Q67.627-27.6367 69.2383-32.3486Q70.8496-37.0605 70.8496-42.2363Q70.8496-48.6816 68.4326-54.2969Q66.0156-59.9121 61.7676-64.1846Q57.5195-68.457 51.8799-70.874Q46.2402-73.291 39.8438-73.291Q33.3984-73.291 27.7832-70.874Q22.168-68.457 17.8955-64.1846Q13.623-59.9121 11.2061-54.2969Q8.78906-48.6816 8.78906-42.2363ZM16.3086-42.2363Q16.3086-47.1191 18.1152-51.3916Q19.9219-55.6641 23.1689-58.8867Q26.416-62.1094 30.6885-63.9404Q34.9609-65.7715 39.8438-65.7715Q44.7266-65.7715 48.9746-63.9404Q53.2227-62.1094 56.4697-58.8867Q59.7168-55.6641 61.5479-51.3916Q63.3789-47.1191 63.3789-42.2363Q63.3789-37.3535 61.5479-33.1055Q59.7168-28.8574 56.4697-25.6104Q53.2227-22.3633 48.9746-20.5322Q44.7266-18.7012 39.8438-18.7012Q34.9609-18.7012 30.6885-20.5322Q26.416-22.3633 23.1689-25.6104Q19.9219-28.8574 18.1152-33.1055Q16.3086-37.3535 16.3086-42.2363Z"/>
  </g>
  <g id="Light-S" transform="matrix(1 0 0 1 1107.23 696)">
   <path d="M8.78906-42.5944Q8.78906-36.3769 11.141-30.9245Q13.4928-25.472 17.6351-21.3216Q21.7774-17.1712 27.2135-14.8437Q32.6497-12.5163 38.8998-12.5163Q43.8965-12.5163 48.4212-14.0625Q52.946-15.6088 56.6732-18.3919L76.0579 1.05795Q76.6764 1.64388 77.4333 1.93685Q78.1901 2.22982 78.9876 2.22982Q80.7943 2.22982 81.901 1.04981Q83.0078-0.130208 83.0078-1.87175Q83.0078-2.70182 82.7149-3.43425Q82.4219-4.16667 81.8848-4.73633L62.5651-24.1048Q65.5762-27.9134 67.277-32.6497Q68.9779-37.386 68.9779-42.5944Q68.9779-48.8281 66.6341-54.2725Q64.2903-59.7168 60.1644-63.8672Q56.0384-68.0176 50.5697-70.3613Q45.1009-72.7051 38.8998-72.7051Q32.6497-72.7051 27.2135-70.3613Q21.7774-68.0176 17.6351-63.8672Q13.4928-59.7168 11.141-54.2725Q8.78906-48.8281 8.78906-42.5944ZM14.5345-42.5944Q14.5345-47.6399 16.4144-52.0508Q18.2943-56.4616 21.6552-59.8063Q25.0163-63.1511 29.4352-65.0553Q33.8541-66.9596 38.8998-66.9596Q43.9453-66.9596 48.3398-65.0553Q52.7344-63.1511 56.0954-59.8063Q59.4564-56.4616 61.3607-52.0508Q63.265-47.6399 63.265-42.5944Q63.265-37.5488 61.3607-33.1462Q59.4564-28.7435 56.0954-25.3907Q52.7344-22.0378 48.3398-20.1334Q43.9453-18.2292 38.8998-18.2292Q33.8541-18.2292 29.4352-20.1334Q25.0163-22.0378 21.6552-25.3907Q18.2943-28.7435 16.4144-33.1462Q14.5345-37.5488 14.5345-42.5944Z"/>
  </g>
  <g id="Thin-S" transform="matrix(1 0 0 1 811.299 696)">
   <path d="M8.78906-43.0679Q8.78906-37.0873 11.0548-31.8824Q13.3206-26.6775 17.2907-22.6886Q21.2607-18.6996 26.4601-16.4583Q31.6595-14.2169 37.6512-14.2169Q42.7341-14.2169 47.3018-15.8707Q51.8697-17.5246 55.5538-20.5015L76.553 0.584363Q76.9563 0.976563 77.4871 1.20495Q78.0179 1.43334 78.5786 1.43334Q79.9332 1.43334 80.6955 0.565462Q81.4579-0.302419 81.4579-1.5058Q81.4579-2.07756 81.2618-2.58396Q81.0657-3.09035 80.6578-3.50932L59.6806-24.5354Q62.8639-28.2794 64.6831-33.048Q66.5023-37.8166 66.5023-43.0679Q66.5023-49.0219 64.2554-54.2402Q62.0085-59.4585 58.044-63.4474Q54.0795-67.4364 48.8368-69.6832Q43.5941-71.9301 37.6512-71.9301Q31.6595-71.9301 26.4601-69.6832Q21.2607-67.4364 17.2907-63.4474Q13.3206-59.4585 11.0548-54.2402Q8.78906-49.0219 8.78906-43.0679ZM12.1881-43.0679Q12.1881-48.3288 14.1649-52.9226Q16.1417-57.5164 19.6533-61.0225Q23.165-64.5288 27.7777-66.5299Q32.3903-68.531 37.6512-68.531Q42.912-68.531 47.5003-66.5299Q52.0886-64.5288 55.6003-61.0225Q59.1119-57.5164 61.1131-52.9226Q63.1143-48.3288 63.1143-43.0679Q63.1143-37.8072 61.1131-33.2Q59.1119-28.5928 55.6003-25.1001Q52.0886-21.6072 47.5003-19.606Q42.912-17.6049 37.6512-17.6049Q32.3903-17.6049 27.7777-19.606Q23.165-21.6072 19.6533-25.1001Q16.1417-28.5928 14.1649-33.2Q12.1881-37.8072 12.1881-43.0679Z"/>
  </g>
  <g id="Ultralight-S" transform="matrix(1 0 0 1 514.985 696)">
   <path d="M8.78906-43.3105Q8.78906-37.4512 11.0107-32.373Q13.2324-27.2949 17.1143-23.3887Q20.9961-19.4824 26.0742-17.2852Q31.1523-15.0879 37.0117-15.0879Q42.1387-15.0879 46.7285-16.7969Q51.3184-18.5059 54.9805-21.582L76.8066 0.341797Q77.0996 0.634766 77.5146 0.830078Q77.9297 1.02539 78.3691 1.02539Q79.4922 1.02539 80.0781 0.317383Q80.6641-0.390625 80.6641-1.31836Q80.6641-1.75781 80.5176-2.14844Q80.3711-2.53906 80.0293-2.88086L58.2031-24.7559Q61.4746-28.4668 63.3545-33.252Q65.2344-38.0371 65.2344-43.3105Q65.2344-49.1211 63.0371-54.2236Q60.8398-59.3262 56.958-63.2324Q53.0762-67.1387 47.9492-69.3359Q42.8223-71.5332 37.0117-71.5332Q31.1523-71.5332 26.0742-69.3359Q20.9961-67.1387 17.1143-63.2324Q13.2324-59.3262 11.0107-54.2236Q8.78906-49.1211 8.78906-43.3105ZM10.9863-43.3105Q10.9863-48.6816 13.0127-53.3691Q15.0391-58.0566 18.6279-61.6455Q22.2168-65.2344 26.9287-67.2852Q31.6406-69.3359 37.0117-69.3359Q42.3828-69.3359 47.0703-67.2852Q51.7578-65.2344 55.3467-61.6455Q58.9355-58.0566 60.9863-53.3691Q63.0371-48.6816 63.0371-43.3105Q63.0371-37.9395 60.9863-33.2275Q58.9355-28.5156 55.3467-24.9512Q51.7578-21.3867 47.0703-19.3359Q42.3828-17.2852 37.0117-17.2852Q31.6406-17.2852 26.9287-19.3359Q22.2168-21.3867 18.6279-24.9512Q15.0391-28.5156 13.0127-33.2275Q10.9863-37.9395 10.9863-43.3105Z"/>
  </g>
 </g>
</svg>
