<?xml version="1.0" encoding="UTF-8"?>
<svg width="24px" height="24px" viewBox="0 0 24 24" version="1.1" xmlns="http://www.w3.org/2000/svg" xmlns:xlink="http://www.w3.org/1999/xlink">
    <title>icons/communication/#-D/mdpi/ic_Calendar_event_info</title>
    <g id="icons/communication/#-D/ic_Calendar_event_info" stroke="none" stroke-width="1" fill="none" fill-rule="evenodd">
        <path d="M19.2,4.19999997 L16.8,4.19999997 L16.8,3.28799996 C16.8,2.79095996 16.397064,2.39999996 15.9,2.39999996 C15.4029437,2.39999996 15,2.80294369 15,3.29999996 L15,4.19999997 L8.40026399,4.19999997 L8.39999996,3.29999996 C8.39999996,2.80294369 7.99705626,2.39999996 7.49999998,2.39999996 C7.0029437,2.39999996 6.59999998,2.80294369 6.59999998,3.29999996 L6.59999998,4.19999997 L2.39999996,4.19999997 L2.39999996,19.2 C2.39999996,20.1941126 3.20588741,21 4.19999997,21 L21,21 L21,5.99999997 C21,5.00588742 20.1941126,4.19999997 19.2,4.19999997 L19.2,4.19999997 Z M19.8,19.8 L4.49999997,19.8 C4.00294369,19.8 3.59999997,19.3970563 3.59999997,18.9 L3.59999997,9.59999999 L18.9,9.59999999 C19.3970563,9.59999999 19.8,10.0029437 19.8,10.5 L19.8,19.8 Z M5.99999949,6.29999998 C5.99962151,5.82777476 6.22199272,5.38303233 6.59999998,5.09999997 L6.59999998,6.29999998 C6.59999998,6.79705625 7.0029437,7.19999998 7.49999949,7.19999998 C7.99705626,7.19999998 8.39999999,6.79705625 8.39999999,6.29999998 L8.39999999,5.99999997 L8.40026399,5.99999997 L8.40026399,5.10016797 C8.96444741,5.52349953 9.15747242,6.28271686 8.86398541,6.92410435 C8.57049839,7.56549184 7.86979533,7.9157558 7.18062315,7.76557508 C6.49145097,7.61539437 5.99999949,7.00534567 5.99999949,6.29999998 L5.99999949,6.29999998 Z M14.3999995,6.29999998 C14.3996215,5.82777476 14.6219928,5.38303233 15,5.09999997 L15,6.29999998 C15,6.79705625 15.4029437,7.19999998 15.8999995,7.19999998 C16.3970563,7.19999998 16.8,6.79705625 16.8,6.29999998 L16.799736,5.99999997 L16.8,5.99999997 L16.8,5.11199997 C17.1774076,5.39016582 17.400131,5.83115806 17.3999995,6.29999998 C17.3999995,7.1284271 16.7284271,7.79999998 15.8999995,7.79999998 C15.0715729,7.79999998 14.3999995,7.1284271 14.3999995,6.29999998 Z M11.7,10.8 C9.54608947,10.8 7.79999998,12.5460895 7.79999998,14.7 C7.79999998,16.8539105 9.54608947,18.6 11.7,18.6 C13.8539105,18.6 15.6,16.8539105 15.6,14.7 C15.6,13.6656557 15.1891083,12.6736754 14.4577165,11.9422836 C13.7263246,11.2108917 12.7343443,10.8 11.7,10.8 Z M11.311368,11.950656 C11.432684,11.8285934 11.5976725,11.7599563 11.769768,11.7599563 C11.9418635,11.7599563 12.106852,11.8285934 12.228168,11.950656 C12.3507934,12.0711698 12.4188011,12.2365889 12.4164,12.408504 C12.4188251,12.5804624 12.349813,12.7457229 12.225816,12.864888 C12.1051521,12.9873522 11.9397552,13.0552982 11.767848,13.053024 C11.507038,13.0522551 11.2722336,12.8948448 11.1724508,12.6538763 C11.0726681,12.4129077 11.1274523,12.1355815 11.311368,11.950656 Z M12.912,17.277024 L10.8,17.277024 L10.8,17.052384 L10.844952,17.050896 C10.918994,17.0500096 10.9922758,17.035841 11.061312,17.009064 C11.1053578,16.9910896 11.1450107,16.9638303 11.177568,16.929144 C11.20236,16.901784 11.252568,16.807944 11.252568,16.492656 L11.252568,14.389104 C11.252568,14.089248 11.200896,13.97616 11.164608,13.934088 C11.1366376,13.9048318 11.1019441,13.8828507 11.063544,13.870056 C10.99237,13.8467002 10.9182541,13.833514 10.843392,13.830888 L10.8,13.82796 L10.8,13.570248 L12.459432,13.570248 L12.459432,16.492656 C12.459432,16.792656 12.503472,16.905816 12.53988,16.947648 C12.59112,17.006808 12.69972,17.041632 12.86256,17.050848 L12.912,17.053752 L12.912,17.276952 L12.912,17.277024 Z" fill="#000000"></path>
    </g>
</svg>