<?xml version="1.0" encoding="utf-8"?>
<!-- Generator: Adobe Illustrator 25.3.1, SVG Export Plug-In . SVG Version: 6.00 Build 0)  -->
<svg version="1.1" id="Layer_1" xmlns="http://www.w3.org/2000/svg" xmlns:xlink="http://www.w3.org/1999/xlink" x="0px" y="0px"
	 viewBox="0 0 3300 2200" style="enable-background:new 0 0 3300 2200;" xml:space="preserve">
<style type="text/css">
	.st0{fill:#FFFFFF;}
	.st1{fill:none;stroke:#000000;stroke-width:0.5;}
	.st2{font-family:'Helvetica-Bold';}
	.st3{font-size:13px;}
	.st4{font-family:'Helvetica';}
	.st5{fill:none;stroke:#00AEEF;stroke-width:0.5;}
	.st6{fill:#27AAE1;}
	.st7{fill:none;stroke:#27AAE1;stroke-width:0.5;}
	.st8{fill-rule:evenodd;clip-rule:evenodd;}
</style>
<g id="Notes">
	<rect id="artboard" x="-83.6" y="-54.5" class="st0" width="3300" height="2200"/>
	<line class="st1" x1="179.4" y1="237.5" x2="2952.4" y2="237.5"/>
	<text transform="matrix(1 0 0 1 179.3767 267.5182)" class="st2 st3">Weight/Scale Variations</text>
	<text transform="matrix(1 0 0 1 450.4401 267.5182)" class="st4 st3">Ultralight</text>
	<text transform="matrix(1 0 0 1 760.1542 267.5182)" class="st4 st3">Thin</text>
	<text transform="matrix(1 0 0 1 1055.4119 267.5182)" class="st4 st3">Light</text>
	<text transform="matrix(1 0 0 1 1343.4541 267.5182)" class="st4 st3">Regular</text>
	<text transform="matrix(1 0 0 1 1639.8187 267.5182)" class="st4 st3">Medium</text>
	<text transform="matrix(1 0 0 1 1932.5486 267.5182)" class="st4 st3">Semibold</text>
	<text transform="matrix(1 0 0 1 2243.3472 267.5182)" class="st4 st3">Bold</text>
	<text transform="matrix(1 0 0 1 2534.6426 267.5182)" class="st4 st3">Heavy</text>
	<text transform="matrix(1 0 0 1 2833.8821 267.5182)" class="st4 st3">Black</text>
	<line class="st1" x1="179.4" y1="1848.5" x2="2952.4" y2="1848.5"/>
	<g transform="matrix(1 0 0 1 263 1933)">
		<path d="M-74.4-53.7c1.1,0,2.1-0.2,3-0.6c1-0.4,1.8-1,2.5-1.7c0.7-0.7,1.3-1.6,1.7-2.5c0.4-1,0.6-2,0.6-3s-0.2-2.1-0.6-3
			c-0.4-1-1-1.8-1.7-2.5c-0.7-0.7-1.6-1.3-2.5-1.7c-1-0.4-2-0.6-3-0.6c-1.1,0-2.1,0.2-3,0.6c-1,0.4-1.8,1-2.5,1.7
			c-0.7,0.7-1.3,1.6-1.7,2.5c-0.4,1-0.6,2-0.6,3s0.2,2.1,0.6,3c0.4,1,1,1.8,1.7,2.5c0.7,0.7,1.6,1.3,2.5,1.7
			C-76.5-53.9-75.4-53.7-74.4-53.7z M-74.4-55.1c-0.9,0-1.7-0.2-2.5-0.5s-1.4-0.8-2-1.4c-0.6-0.6-1-1.3-1.4-2
			c-0.3-0.8-0.5-1.6-0.5-2.5c0-0.9,0.2-1.7,0.5-2.5c0.3-0.8,0.8-1.5,1.4-2c0.6-0.6,1.3-1,2-1.4c0.8-0.3,1.6-0.5,2.5-0.5
			c0.9,0,1.7,0.2,2.5,0.5c0.8,0.3,1.5,0.8,2,1.4c0.6,0.6,1,1.3,1.4,2c0.3,0.8,0.5,1.6,0.5,2.5c0,0.9-0.2,1.7-0.5,2.5
			c-0.3,0.8-0.8,1.5-1.4,2c-0.6,0.6-1.3,1-2,1.4C-72.6-55.3-73.5-55.1-74.4-55.1z M-78-61.5c0,0.2,0.1,0.4,0.2,0.5
			c0.1,0.1,0.3,0.2,0.5,0.2h2.1v2.1c0,0.2,0.1,0.4,0.2,0.5c0.1,0.1,0.3,0.2,0.5,0.2c0.2,0,0.4-0.1,0.5-0.2c0.1-0.1,0.2-0.3,0.2-0.5
			v-2.1h2.1c0.2,0,0.4-0.1,0.5-0.2c0.1-0.1,0.2-0.3,0.2-0.5c0-0.2-0.1-0.4-0.2-0.5c-0.1-0.1-0.3-0.2-0.5-0.2h-2.1v-2.1
			c0-0.2-0.1-0.4-0.2-0.5c-0.1-0.1-0.3-0.2-0.5-0.2c-0.2,0-0.4,0.1-0.5,0.2c-0.1,0.1-0.2,0.3-0.2,0.5v2.1h-2.1
			c-0.2,0-0.4,0.1-0.5,0.2C-77.9-61.9-78-61.8-78-61.5z"/>
	</g>
	<g transform="matrix(1 0 0 1 281.867 1933)">
		<path d="M-71.9-51.6c1.4,0,2.6-0.3,3.8-0.8c1.2-0.5,2.3-1.2,3.2-2.2c0.9-0.9,1.6-2,2.2-3.2c0.5-1.2,0.8-2.5,0.8-3.8
			c0-1.4-0.3-2.6-0.8-3.8c-0.5-1.2-1.2-2.3-2.2-3.2c-0.9-0.9-2-1.6-3.2-2.2c-1.2-0.5-2.5-0.8-3.8-0.8s-2.6,0.3-3.8,0.8
			c-1.2,0.5-2.3,1.2-3.2,2.2c-0.9,0.9-1.6,2-2.2,3.2c-0.5,1.2-0.8,2.5-0.8,3.8c0,1.4,0.3,2.6,0.8,3.8c0.5,1.2,1.2,2.3,2.2,3.2
			c0.9,0.9,2,1.6,3.2,2.2C-74.6-51.8-73.3-51.6-71.9-51.6z M-71.9-53.2c-1.2,0-2.2-0.2-3.2-0.6c-1-0.4-1.9-1-2.6-1.8
			c-0.8-0.8-1.4-1.6-1.8-2.6c-0.4-1-0.6-2.1-0.6-3.2c0-1.2,0.2-2.2,0.6-3.2c0.4-1,1-1.9,1.8-2.6c0.8-0.8,1.6-1.4,2.6-1.8
			c1-0.4,2.1-0.6,3.2-0.6s2.2,0.2,3.2,0.6c1,0.4,1.9,1,2.6,1.8s1.4,1.6,1.8,2.6c0.4,1,0.6,2.1,0.6,3.2c0,1.2-0.2,2.2-0.6,3.2
			c-0.4,1-1,1.9-1.8,2.6c-0.8,0.8-1.6,1.4-2.6,1.8S-70.8-53.2-71.9-53.2z M-76.4-61.5c0,0.2,0.1,0.4,0.2,0.6
			c0.2,0.1,0.4,0.2,0.6,0.2h2.9v2.9c0,0.2,0.1,0.4,0.2,0.6c0.1,0.2,0.3,0.2,0.6,0.2c0.2,0,0.4-0.1,0.6-0.2c0.2-0.2,0.2-0.4,0.2-0.6
			v-2.9h2.9c0.2,0,0.4-0.1,0.6-0.2c0.2-0.1,0.2-0.3,0.2-0.6c0-0.2-0.1-0.4-0.2-0.6s-0.4-0.2-0.6-0.2h-2.9v-2.9
			c0-0.3-0.1-0.5-0.2-0.6s-0.4-0.2-0.6-0.2c-0.2,0-0.4,0.1-0.6,0.2s-0.2,0.4-0.2,0.6v2.9h-2.9c-0.3,0-0.5,0.1-0.6,0.2
			C-76.4-62-76.4-61.8-76.4-61.5z"/>
	</g>
	<g transform="matrix(1 0 0 1 305.646 1933)">
		<path d="M-68.7-48.8c1.4,0,2.7-0.2,4-0.6c1.3-0.4,2.4-1,3.5-1.8c1.1-0.8,2-1.7,2.8-2.8c0.8-1.1,1.4-2.2,1.8-3.5
			c0.4-1.3,0.6-2.6,0.6-4c0-1.4-0.2-2.7-0.6-4c-0.4-1.3-1-2.4-1.8-3.5c-0.8-1.1-1.7-2-2.8-2.8c-1.1-0.8-2.2-1.4-3.5-1.8
			c-1.3-0.4-2.6-0.6-4-0.6c-1.4,0-2.7,0.2-4,0.6c-1.3,0.4-2.4,1-3.5,1.8c-1.1,0.8-2,1.7-2.8,2.8c-0.8,1.1-1.4,2.2-1.8,3.5
			c-0.4,1.3-0.6,2.6-0.6,4c0,1.4,0.2,2.7,0.6,4c0.4,1.3,1,2.4,1.8,3.5c0.8,1.1,1.7,2,2.8,2.8c1.1,0.8,2.2,1.4,3.5,1.8
			C-71.4-49-70-48.8-68.7-48.8z M-68.7-50.6c-1.2,0-2.4-0.2-3.4-0.6c-1.1-0.4-2.1-0.9-3-1.5c-0.9-0.7-1.7-1.5-2.4-2.4
			c-0.7-0.9-1.2-1.9-1.5-3c-0.4-1.1-0.5-2.2-0.5-3.4c0-1.2,0.2-2.4,0.5-3.5c0.4-1.1,0.9-2.1,1.5-3c0.7-0.9,1.4-1.7,2.4-2.4
			c0.9-0.7,1.9-1.2,3-1.5c1.1-0.4,2.2-0.5,3.4-0.5c1.2,0,2.4,0.2,3.5,0.5c1.1,0.4,2.1,0.9,3,1.5c0.9,0.7,1.7,1.5,2.4,2.4
			c0.7,0.9,1.2,1.9,1.5,3c0.4,1.1,0.6,2.2,0.6,3.5c0,1.2-0.2,2.4-0.5,3.4c-0.4,1.1-0.9,2.1-1.5,3c-0.7,0.9-1.5,1.7-2.4,2.4
			c-0.9,0.7-1.9,1.2-3,1.5C-66.3-50.8-67.4-50.6-68.7-50.6z M-74.4-61.5c0,0.3,0.1,0.5,0.3,0.6c0.2,0.2,0.4,0.2,0.7,0.2h3.9v4
			c0,0.3,0.1,0.5,0.2,0.7c0.2,0.2,0.4,0.3,0.6,0.3c0.3,0,0.5-0.1,0.7-0.3c0.2-0.2,0.3-0.4,0.3-0.7v-4h4c0.3,0,0.5-0.1,0.7-0.2
			c0.2-0.2,0.3-0.4,0.3-0.6c0-0.3-0.1-0.5-0.3-0.7c-0.2-0.2-0.4-0.3-0.7-0.3h-4v-3.9c0-0.3-0.1-0.5-0.3-0.7
			c-0.2-0.2-0.4-0.3-0.7-0.3c-0.3,0-0.5,0.1-0.6,0.3c-0.2,0.2-0.2,0.4-0.2,0.7v3.9h-3.9c-0.3,0-0.5,0.1-0.7,0.3
			C-74.3-62-74.4-61.8-74.4-61.5z"/>
	</g>
	<text transform="matrix(1 0 0 1 179.3767 1898.5182)" class="st2 st3">Design Variations</text>
	<text transform="matrix(1 0 0 1 179.3767 1916.5182)" class="st4 st3">Symbols are supported in up to nine weights and three scales.</text>
	<text transform="matrix(1 0 0 1 179.3767 1934.5182)" class="st4 st3">For optimal layout with text and other symbols, vertically align</text>
	<text transform="matrix(1 0 0 1 179.3767 1952.5182)" class="st4 st3">symbols with the adjacent text.</text>
	<line class="st5" x1="692.4" y1="1864.5" x2="692.4" y2="1878.5"/>
	<g transform="matrix(1 0 0 1 776 1933)">
		<path d="M-80.3-54.3c0.3,0,0.5-0.1,0.6-0.2c0.1-0.1,0.3-0.3,0.4-0.6l1.3-3.4h5.8l1.3,3.4c0.1,0.3,0.2,0.5,0.4,0.6
			c0.1,0.1,0.3,0.2,0.6,0.2c0.3,0,0.5-0.1,0.6-0.2c0.2-0.1,0.2-0.3,0.2-0.6c0-0.1,0-0.3-0.1-0.5L-74-67.9c-0.1-0.3-0.3-0.5-0.5-0.7
			c-0.2-0.1-0.5-0.2-0.8-0.2c-0.6,0-1,0.3-1.2,0.9L-81-55.6c-0.1,0.2-0.1,0.4-0.1,0.5c0,0.2,0.1,0.4,0.2,0.6
			C-80.8-54.4-80.6-54.3-80.3-54.3z M-77.6-60l2.4-6.6h0l2.4,6.6H-77.6z"/>
	</g>
	<line class="st5" x1="709.6" y1="1864.5" x2="709.6" y2="1878.5"/>
	<text transform="matrix(1 0 0 1 692.3768 1898.5182)" class="st2 st3">Margins</text>
	<text transform="matrix(1 0 0 1 692.3768 1916.5182)" class="st4 st3">Leading and trailing margins on the left and right side of each symbol</text>
	<text transform="matrix(1 0 0 1 692.3768 1934.5182)" class="st4 st3">can be adjusted by modifying the x-location of the margin guidelines.</text>
	<text transform="matrix(1 0 0 1 692.3768 1952.5182)" class="st4 st3">Modifications are automatically applied proportionally to all</text>
	<text transform="matrix(1 0 0 1 692.3768 1970.5182)" class="st4 st3">scales and weights.</text>
	<g transform="matrix(1 0 0 1 1289 1933)">
		<path d="M-80.8-52.6l1.7,1.7c0.4,0.4,0.9,0.6,1.4,0.6c0.5,0,0.9-0.3,1.4-0.8l10.7-11.8l-1-1l-10.6,11.7c-0.2,0.2-0.4,0.3-0.5,0.3
			c-0.2,0-0.4-0.1-0.6-0.3l-1.2-1.2c-0.2-0.2-0.3-0.4-0.3-0.6c0-0.2,0.1-0.4,0.3-0.5L-68-65.3l-1-1l-11.6,10.9
			c-0.5,0.5-0.8,0.9-0.8,1.4S-81.2-53.1-80.8-52.6z M-74.4-70.8c-0.2,0.2-0.3,0.4-0.4,0.7c0,0.3,0,0.5,0.1,0.7
			c0.1,0.2,0.3,0.3,0.5,0.4c0.2,0.1,0.5,0.1,0.8,0c0.7-0.2,1.5-0.2,2.2-0.2c0.7,0,1.5,0.3,2.2,0.7l-0.6,1.5
			c-0.2,0.4-0.2,0.8-0.1,1.1c0.1,0.3,0.2,0.6,0.5,0.9l2.3,2.3c0.2,0.2,0.5,0.4,0.7,0.4c0.2,0,0.5,0,0.8,0l1.1-0.2l0.7,0.7l0,0.6
			c0,0.2,0,0.5,0.1,0.7c0.1,0.2,0.2,0.4,0.5,0.7l0.8,0.7c0.2,0.2,0.5,0.4,0.8,0.4c0.3,0,0.5-0.1,0.8-0.3l2.9-2.9
			c0.2-0.2,0.3-0.5,0.3-0.8c0-0.3-0.1-0.5-0.4-0.8l-0.8-0.8c-0.2-0.2-0.5-0.4-0.7-0.5c-0.2-0.1-0.4-0.1-0.7-0.1l-0.6,0l-0.6-0.6
			l0.2-1.1c0.1-0.3,0.1-0.5,0-0.8s-0.3-0.5-0.6-0.8l-2.2-2.2c-0.8-0.8-1.7-1.4-2.7-1.9c-0.9-0.4-1.9-0.6-2.8-0.6
			c-1,0-1.9,0.2-2.8,0.5C-72.8-72.1-73.6-71.5-74.4-70.8z M-72.9-70.4c0.6-0.4,1.3-0.8,1.9-0.9c0.7-0.2,1.4-0.2,2.1-0.2
			c0.7,0.1,1.4,0.3,2.1,0.6c0.7,0.3,1.3,0.7,1.8,1.3l2.4,2.4c0.1,0.1,0.2,0.2,0.2,0.3c0,0.1,0,0.3,0,0.4l-0.3,1.5l1.5,1.5l1-0.1
			c0.1,0,0.2,0,0.3,0c0.1,0,0.1,0.1,0.2,0.2l0.6,0.6l-2.4,2.4L-62-61c-0.1-0.1-0.2-0.2-0.2-0.2c0-0.1,0-0.2,0-0.3l0.1-1l-1.5-1.5
			l-1.5,0.3c-0.2,0-0.3,0-0.4,0c-0.1,0-0.2-0.1-0.3-0.2l-2-2c-0.1-0.1-0.2-0.2-0.2-0.3c0-0.1,0-0.3,0.1-0.4l0.9-2.1
			c-0.8-0.7-1.7-1.2-2.6-1.5c-1-0.3-2-0.3-3,0c-0.1,0-0.1,0-0.2,0C-73-70.3-72.9-70.4-72.9-70.4z"/>
	</g>
	<text transform="matrix(1 0 0 1 1205.3767 1898.5182)" class="st2 st3">Exporting</text>
	<text transform="matrix(1 0 0 1 1205.3767 1916.5182)" class="st4 st3">Symbols should be outlined when exporting to ensure the</text>
	<text transform="matrix(1 0 0 1 1205.3767 1934.5182)" class="st4 st3">design is preserved when submitting to Xcode.</text>
	<text id="template-version" transform="matrix(1 0 0 1 2868.7908 1878.5182)" class="st4 st3">Template v.3.0</text>
	<text transform="matrix(1 0 0 1 2781.8342 1896.5182)" class="st4 st3">Requires Xcode 13 or greater</text>
	<text id="descriptive-name" transform="matrix(1 0 0 1 2765.9333 1914.5182)" class="st4 st3">Generated from orange.folder.fill</text>
	<text transform="matrix(1 0 0 1 2828.7878 1932.5182)" class="st4 st3">Typeset at 100 points</text>
	<text transform="matrix(1 0 0 1 179.3767 671.5181)" class="st4 st3">Small</text>
	<text transform="matrix(1 0 0 1 179.3767 1101.5182)" class="st4 st3">Medium</text>
	<text transform="matrix(1 0 0 1 179.3767 1531.5182)" class="st4 st3">Large</text>
</g>
<g id="Guides">
	<g id="H-reference" transform="matrix(1 0 0 1 339 696)">
		<path class="st6" d="M1,0h2.7l25.7-67.1H30v-3.3h-1.9L1,0z M11.7-24.5H47l-0.7-2.2H12.5L11.7-24.5z M55.1,0h2.6L30.6-70.5h-1.2
			v3.3L55.1,0z"/>
	</g>
	<line id="Baseline-S" class="st7" x1="263" y1="696" x2="3036" y2="696"/>
	<line id="Capline-S" class="st7" x1="263" y1="625.5" x2="3036" y2="625.5"/>
	<g id="H-reference_1_" transform="matrix(1 0 0 1 339 1126)">
		<path class="st6" d="M1,0h2.7l25.7-67.1H30v-3.3h-1.9L1,0z M11.7-24.5H47l-0.7-2.2H12.5L11.7-24.5z M55.1,0h2.6L30.6-70.5h-1.2
			v3.3L55.1,0z"/>
	</g>
	<line id="Baseline-M" class="st7" x1="263" y1="1126" x2="3036" y2="1126"/>
	<line id="Capline-M" class="st7" x1="263" y1="1055.5" x2="3036" y2="1055.5"/>
	<g id="H-reference_2_" transform="matrix(1 0 0 1 339 1556)">
		<path class="st6" d="M1,0h2.7l25.7-67.1H30v-3.3h-1.9L1,0z M11.7-24.5H47l-0.7-2.2H12.5L11.7-24.5z M55.1,0h2.6L30.6-70.5h-1.2
			v3.3L55.1,0z"/>
	</g>
	<line id="Baseline-L" class="st7" x1="263" y1="1556" x2="3036" y2="1556"/>
	<line id="Capline-L" class="st7" x1="263" y1="1485.5" x2="3036" y2="1485.5"/>
	<line id="left-margin-Regular-M" class="st5" x1="1382" y1="1030.8" x2="1382" y2="1150.1"/>
	<line id="right-margin-Regular-M" class="st5" x1="1517.7" y1="1030.8" x2="1517.7" y2="1150.1"/>
</g>
<g id="Symbols">
	<g id="Black-L" transform="matrix(1 0 0 1 2842.84 1556)">
		<path d="M16.1,1.9c0,7.6,2.1,13.4,6.2,17.5c4.1,4.1,10,6.2,17.6,6.2h102c7.3,0,13-2.1,17.1-6.2c4.1-4.1,6.1-10,6.1-17.5v-45.2
			H16.1V1.9z M16.1-55.1H165v-8.1c0-7.5-2.1-13.4-6.2-17.5c-4.1-4.1-10-6.2-17.6-6.2H89c-2.6,0-4.8-0.3-6.7-1
			c-1.9-0.7-3.9-1.8-6.2-3.5l-2.8-2.2c-2.6-2-5.1-3.4-7.3-4.1c-2.2-0.8-5.3-1.2-9.2-1.2H39.3c-7.1,0-12.7,2.1-16.9,6.3
			c-4.2,4.2-6.3,10.1-6.3,17.7V-55.1z"/>
	</g>
	<g id="Heavy-L" transform="matrix(1 0 0 1 2546.89 1556)">
		<path d="M16.1,2.1c0,7.3,2,12.9,5.9,16.8c3.9,3.9,9.5,5.9,16.8,5.9h102.8c6.9,0,12.3-2,16.1-5.9c3.8-3.9,5.8-9.5,5.8-16.8v-46.8
			H16.1V2.1z M16.1-55.6h147.4v-7.4c0-7.3-2-12.9-5.9-16.8c-3.9-3.9-9.5-5.9-16.9-5.9H86.5c-2.5,0-4.6-0.3-6.4-1
			c-1.8-0.6-3.7-1.8-5.8-3.4l-3.1-2.4c-2.5-1.9-4.8-3.3-7-4c-2.2-0.7-5.1-1.1-8.8-1.1H37.9c-6.7,0-12,2-15.9,5.9
			c-3.9,3.9-5.9,9.5-5.9,16.8V-55.6z"/>
	</g>
	<g id="Bold-L" transform="matrix(1 0 0 1 2251.15 1556)">
		<path d="M16.1,2.2c0,6.9,1.8,12.2,5.5,15.9c3.7,3.7,9,5.5,15.9,5.5h103.7c6.4,0,11.5-1.8,15-5.5c3.6-3.7,5.3-8.9,5.3-15.9v-48.7
			H16.1V2.2z M16.1-56h145.5v-6.6c0-6.9-1.8-12.2-5.5-15.8c-3.7-3.7-9-5.5-16-5.5H83.6c-2.4,0-4.5-0.3-6.2-0.9
			c-1.7-0.6-3.5-1.7-5.4-3.2l-3.3-2.7c-2.4-1.9-4.6-3.2-6.6-3.9c-2.1-0.7-4.8-1.1-8.4-1.1H36.1c-6.2,0-11.1,1.8-14.7,5.4
			c-3.6,3.6-5.3,8.8-5.3,15.6V-56z"/>
	</g>
	<g id="Semibold-L" transform="matrix(1 0 0 1 1955.1 1556)">
		<path d="M16.1,2.4c0,6.7,1.8,11.8,5.3,15.2c3.5,3.5,8.6,5.2,15.3,5.2h104.3c6.1,0,10.9-1.7,14.3-5.2c3.4-3.5,5.1-8.6,5.1-15.2v-50
			H16.1V2.4z M16.1-56.3h144.2v-6.2c0-6.7-1.7-11.7-5.2-15.2c-3.5-3.5-8.6-5.2-15.3-5.2h-58c-2.4,0-4.4-0.3-6-0.9
			c-1.6-0.6-3.3-1.6-5.2-3.1l-3.4-2.9c-2.3-1.9-4.4-3.1-6.4-3.8c-2-0.7-4.7-1-8.1-1H34.9c-5.9,0-10.5,1.7-13.8,5
			c-3.3,3.4-5,8.3-5,14.8V-56.3z"/>
	</g>
	<g id="Medium-L" transform="matrix(1 0 0 1 1658.89 1556)">
		<path d="M16.1,2.5c0,6.5,1.7,11.4,5.1,14.8c3.4,3.3,8.3,5,14.8,5h104.7c5.9,0,10.5-1.7,13.7-5c3.2-3.4,4.8-8.3,4.8-14.7v-51H16.1
			V2.5z M16.1-56.6h143.2v-5.8c0-6.5-1.7-11.4-5-14.7c-3.4-3.3-8.3-5-14.9-5H80.1c-2.3,0-4.3-0.3-5.9-0.9s-3.2-1.6-5-3l-3.5-3
			c-2.2-1.8-4.2-3.1-6.2-3.8c-1.9-0.7-4.5-1-7.8-1H33.9c-5.7,0-10.1,1.6-13.2,4.8c-3.1,3.2-4.7,7.9-4.7,14.2V-56.6z"/>
	</g>
	<g id="Regular-L" transform="matrix(1 0 0 1 1362.84 1556)">
		<path d="M145.5-75h-68L64.3-92.6H16.1V10.5c0,6.1,4.9,11,11,11h129.4v-85.5C156.4-70.1,151.5-75,145.5-75z"/>
	</g>
	<g id="Light-L" transform="matrix(1 0 0 1 1066.94 1556)">
		<path d="M16.1,2.7c0,5.9,1.5,10.4,4.5,13.4c3,3,7.5,4.5,13.5,4.5h105.2c5.5,0,9.7-1.5,12.6-4.6c2.9-3,4.4-7.5,4.4-13.3v-53.1H16.1
			V2.7z M16.1-56h140.2v-6.1c0-5.9-1.5-10.3-4.5-13.3c-3-3-7.5-4.5-13.5-4.5H77.2c-2.5,0-4.5-0.3-6.1-0.8c-1.5-0.5-3.2-1.5-4.8-3
			l-3.5-3.2c-2.1-1.8-4-3.1-5.8-3.7s-4.2-0.9-7.4-0.9H31.7c-5.1,0-9,1.4-11.7,4.1c-2.7,2.7-4,6.8-4,12.3V-56z"/>
	</g>
	<g id="Thin-L" transform="matrix(1 0 0 1 771.3 1556)">
		<path d="M16.1,2.9c0,5.5,1.4,9.6,4.2,12.4c2.8,2.8,7,4.2,12.4,4.2h105c5.4,0,9.5-1.4,12.2-4.3c2.8-2.9,4.2-7,4.2-12.3v-54.1H16.1
			V2.9z M16.1-54.9h138.1V-62c0-5.4-1.4-9.5-4.2-12.3c-2.8-2.9-7-4.3-12.4-4.3H76c-2.8,0-5-0.2-6.6-0.7c-1.6-0.5-3.3-1.6-5-3.2
			l-3.2-3.1c-2.1-1.9-3.9-3.2-5.6-3.8c-1.6-0.6-4.1-0.9-7.3-0.9H30.4c-4.8,0-8.4,1.2-10.8,3.6c-2.4,2.4-3.5,6-3.5,10.8V-54.9z"/>
	</g>
	<g id="Ultralight-L" transform="matrix(1 0 0 1 475.138 1556)">
		<path d="M16.1,3c0,5.2,1.4,9.2,4.1,11.9C22.8,17.6,26.8,19,32,19h105c5.3,0,9.3-1.4,12-4.2c2.7-2.8,4.1-6.7,4.1-11.8v-54.6h-137V3
			z M16.1-54.3h137v-7.7c0-5.1-1.4-9.1-4.1-11.8c-2.7-2.8-6.7-4.2-11.9-4.2H75.3c-3,0-5.3-0.2-6.9-0.7c-1.6-0.5-3.3-1.6-5.1-3.3
			l-3-3.1c-2.1-2-3.9-3.2-5.5-3.8c-1.6-0.6-4-0.9-7.3-0.9H29.7c-4.6,0-8.1,1.1-10.3,3.3c-2.2,2.2-3.3,5.6-3.3,10V-54.3z"/>
	</g>
	<g id="Black-M" transform="matrix(1 0 0 1 2862.7 1126)">
		<path d="M12.5-6.6c0,6,1.7,10.7,5,14.1c3.4,3.4,8.1,5,14.1,5h78.3c6,0,10.6-1.7,14-5c3.3-3.4,5-8.1,5-14.1v-33.7H12.5V-6.6z
			 M12.5-50.1h116.5v-7c0-6-1.7-10.7-5-14.1c-3.4-3.4-8.1-5-14.1-5H70.9c-2.1,0-3.9-0.3-5.5-0.8c-1.5-0.5-3.3-1.5-5.1-2.9l-2-1.5
			c-2.2-1.6-4.1-2.7-5.9-3.3c-1.8-0.6-4.3-0.9-7.5-0.9H31.6c-5.8,0-10.4,1.7-13.9,5.2c-3.5,3.4-5.2,8.2-5.2,14.3V-50.1z"/>
	</g>
	<g id="Heavy-M" transform="matrix(1 0 0 1 2566.65 1126)">
		<path d="M12.5-6.4C12.5-0.6,14,3.9,17.2,7c3.2,3.2,7.7,4.7,13.5,4.7h79.1c5.6,0,10-1.6,13.1-4.8c3.1-3.2,4.7-7.7,4.7-13.5v-35.2
			H12.5V-6.4z M12.5-50.6h115.1v-6.2c0-5.8-1.6-10.3-4.8-13.4c-3.2-3.2-7.7-4.7-13.5-4.7H68.6c-2,0-3.7-0.3-5.2-0.8
			c-1.4-0.5-3-1.4-4.8-2.7l-2.2-1.7c-2-1.5-3.9-2.6-5.6-3.2c-1.7-0.6-4.1-0.9-7.1-0.9H30.2c-5.4,0-9.7,1.6-13,4.8
			c-3.2,3.2-4.8,7.7-4.8,13.5V-50.6z"/>
	</g>
	<g id="Bold-M" transform="matrix(1 0 0 1 2270.69 1126)">
		<path d="M12.5-6.3c0,5.5,1.5,9.8,4.4,12.7c3,2.9,7.2,4.4,12.8,4.4h80c5.2,0,9.2-1.5,12.1-4.4c2.9-3,4.3-7.2,4.3-12.7v-36.9H12.5
			V-6.3z M12.5-51.3h113.6v-5.3c0-5.5-1.5-9.8-4.4-12.7c-3-2.9-7.2-4.4-12.8-4.4H66c-1.9,0-3.5-0.2-4.8-0.7
			c-1.3-0.5-2.8-1.3-4.3-2.5l-2.5-2c-1.9-1.5-3.7-2.5-5.3-3.1c-1.6-0.6-3.9-0.9-6.7-0.9H28.7c-5,0-9,1.5-11.9,4.4
			c-2.9,2.9-4.4,7.2-4.4,12.7V-51.3z"/>
	</g>
	<g id="Semibold-M" transform="matrix(1 0 0 1 1974.5 1126)">
		<path d="M12.5-6.2c0,5.4,1.4,9.4,4.2,12.2c2.8,2.8,6.9,4.2,12.3,4.2h80.6c4.9,0,8.7-1.4,11.4-4.2s4.1-6.9,4.1-12.2v-38H12.5V-6.2z
			 M12.5-51.7h112.6v-4.7c0-5.4-1.4-9.4-4.2-12.2c-2.8-2.8-6.9-4.2-12.3-4.2H64.2c-1.8,0-3.3-0.2-4.6-0.7c-1.3-0.5-2.6-1.3-4.1-2.4
			l-2.7-2.2c-1.8-1.4-3.5-2.4-5.1-3c-1.6-0.6-3.7-0.8-6.4-0.8H27.7c-4.8,0-8.5,1.4-11.2,4.1c-2.7,2.8-4.1,6.8-4.1,12.1V-51.7z"/>
	</g>
	<g id="Medium-M" transform="matrix(1 0 0 1 1678.18 1126)">
		<path d="M12.5-6.1c0,5.2,1.4,9.2,4.1,11.9c2.7,2.7,6.7,4,11.9,4h81.1c4.7,0,8.3-1.3,10.9-4c2.6-2.7,3.9-6.6,3.9-11.8V-45H12.5
			V-6.1z M12.5-52h111.8v-4.3c0-5.2-1.3-9.2-4-11.8c-2.7-2.7-6.7-4-12-4H62.9c-1.7,0-3.2-0.2-4.4-0.7s-2.5-1.2-3.8-2.3l-2.8-2.3
			c-1.7-1.4-3.4-2.4-4.9-2.9c-1.6-0.5-3.6-0.8-6.1-0.8H26.9c-4.5,0-8.1,1.3-10.6,3.9c-2.6,2.6-3.8,6.5-3.8,11.6V-52z"/>
	</g>
	<g id="Regular-M" transform="matrix(1 0 0 1 1381.98 1126)">
		<g id="icons_x2F_functional_x5F_UI_x2F_E-M_x2F_ic_x5F_Folder_1_">
			<path class="st8" d="M113.8-66.5H60.6L50.3-80.2H12.5V0.6c0,4.7,3.8,8.6,8.6,8.6h101.4v-67C122.4-62.6,118.6-66.5,113.8-66.5z"/>
		</g>
	</g>
	<g id="Light-M" transform="matrix(1 0 0 1 1085.99 1126)">
		<path d="M12.5-5.9c0,4.7,1.2,8.3,3.6,10.7s6,3.6,10.8,3.6h81.6c4.3,0,7.6-1.2,9.9-3.6s3.5-6,3.5-10.7v-40.8H12.5V-5.9z M12.5-51.7
			h109.4v-4.4c0-4.7-1.2-8.3-3.6-10.7c-2.4-2.4-6-3.6-10.8-3.6H60.3c-1.9,0-3.4-0.2-4.5-0.6c-1.2-0.4-2.4-1.2-3.7-2.3l-2.8-2.5
			c-1.6-1.4-3.1-2.4-4.5-2.9c-1.4-0.5-3.3-0.8-5.8-0.8H25c-4.1,0-7.2,1.1-9.3,3.3c-2.2,2.2-3.2,5.6-3.2,10V-51.7z"/>
	</g>
	<g id="Thin-M" transform="matrix(1 0 0 1 790.242 1126)">
		<path d="M12.5-5.7c0,4.3,1.1,7.6,3.3,9.8c2.2,2.2,5.5,3.3,9.8,3.3h81.4c4.2,0,7.4-1.1,9.6-3.4c2.2-2.3,3.3-5.5,3.3-9.8v-41.7H12.5
			V-5.7z M12.5-50.7h107.4V-56c0-4.3-1.1-7.5-3.3-9.8c-2.2-2.3-5.5-3.4-9.8-3.4H59.1c-2.1,0-3.8-0.2-5-0.6c-1.2-0.4-2.5-1.2-3.9-2.4
			l-2.5-2.4c-1.6-1.5-3.1-2.4-4.4-2.9c-1.3-0.5-3.2-0.7-5.7-0.7H23.8c-3.8,0-6.6,1-8.5,2.9c-1.9,1.9-2.8,4.8-2.8,8.7V-50.7z"/>
	</g>
	<g id="Ultralight-M" transform="matrix(1 0 0 1 494.023 1126)">
		<path d="M12.5-5.6c0,4.1,1.1,7.3,3.2,9.4c2.1,2.1,5.2,3.2,9.4,3.2h81.3c4.1,0,7.3-1.1,9.4-3.3c2.1-2.2,3.2-5.3,3.2-9.3v-42.2H12.5
			V-5.6z M12.5-50.2h106.5v-5.8c0-4-1.1-7.1-3.2-9.3c-2.1-2.2-5.3-3.3-9.4-3.3H58.6c-2.2,0-4-0.2-5.3-0.6c-1.3-0.4-2.6-1.2-4-2.5
			L47-74c-1.6-1.5-3-2.5-4.3-2.9c-1.2-0.5-3.1-0.7-5.7-0.7H23.2c-3.6,0-6.4,0.9-8.1,2.7c-1.8,1.8-2.6,4.4-2.6,8V-50.2z"/>
	</g>
	<g id="Black-S" transform="matrix(1 0 0 1 2877.83 696)">
		<path d="M9.8-12.8c0,4.8,1.3,8.5,4,11.2c2.7,2.7,6.4,4,11.2,4h61.1c4.8,0,8.5-1.3,11.2-4c2.7-2.7,4-6.4,4-11.2v-26H9.8V-12.8z
			 M9.8-46.6h91.6v-5.8c0-4.8-1.3-8.5-4-11.2c-2.7-2.7-6.4-4-11.2-4H56.2c-1.7,0-3.2-0.2-4.4-0.6c-1.2-0.4-2.6-1.2-4.2-2.3l-1.5-1.1
			c-1.7-1.3-3.3-2.1-4.7-2.6s-3.4-0.7-6-0.7H25.1c-4.6,0-8.3,1.4-11.1,4.1c-2.8,2.8-4.2,6.6-4.2,11.4V-46.6z"/>
	</g>
	<g id="Heavy-S" transform="matrix(1 0 0 1 2581.6 696)">
		<path d="M9.8-12.7C9.8-8.1,11-4.5,13.6-2c2.5,2.5,6.1,3.8,10.8,3.8h61.8c4.5,0,8-1.3,10.5-3.8c2.5-2.5,3.8-6.1,3.8-10.7v-27.2H9.8
			V-12.7z M9.8-47.2h90.6v-5c0-4.6-1.3-8.2-3.8-10.7c-2.5-2.5-6.1-3.8-10.8-3.8H54.4c-1.6,0-2.9-0.2-4.1-0.6
			c-1.1-0.4-2.4-1.1-3.8-2.1l-1.7-1.3c-1.6-1.2-3.1-2.1-4.5-2.5C38.9-73.8,37-74,34.6-74H24.1c-4.3,0-7.8,1.3-10.4,3.9
			c-2.6,2.6-3.9,6.2-3.9,10.9V-47.2z"/>
	</g>
	<g id="Bold-S" transform="matrix(1 0 0 1 2285.42 696)">
		<path d="M9.8-12.6c0,4.4,1.2,7.8,3.6,10.2c2.4,2.4,5.8,3.6,10.3,3.6h62.6c4.1,0,7.4-1.2,9.7-3.6c2.3-2.4,3.5-5.8,3.5-10.2v-28.5
			H9.8V-12.6z M9.8-47.9h89.6V-52c0-4.4-1.2-7.8-3.6-10.2c-2.4-2.4-5.8-3.5-10.3-3.5H52.3c-1.4,0-2.7-0.2-3.7-0.6
			c-1-0.4-2.2-1-3.4-2l-2-1.5c-1.5-1.2-2.9-2-4.2-2.4c-1.3-0.5-3.1-0.7-5.3-0.7H22.9c-4,0-7.2,1.2-9.6,3.6
			c-2.4,2.4-3.6,5.8-3.6,10.3V-47.9z"/>
	</g>
	<g id="Semibold-S" transform="matrix(1 0 0 1 1989.08 696)">
		<path d="M9.8-12.5c0,4.3,1.1,7.6,3.4,9.9c2.3,2.3,5.6,3.4,9.9,3.4h63.1c3.9,0,6.9-1.1,9.1-3.4c2.2-2.3,3.3-5.5,3.3-9.9V-42H9.8
			V-12.5z M9.8-48.3h88.8v-3.6c0-4.3-1.1-7.6-3.4-9.8c-2.3-2.2-5.6-3.4-9.9-3.4H50.8c-1.4,0-2.5-0.2-3.5-0.6c-1-0.4-2-1-3.2-1.9
			L42-69.2c-1.4-1.1-2.8-1.9-4-2.3c-1.3-0.4-3-0.7-5-0.7H22.1c-3.8,0-6.8,1.1-9.1,3.4c-2.2,2.3-3.3,5.5-3.3,9.9V-48.3z"/>
	</g>
	<g id="Medium-S" transform="matrix(1 0 0 1 1692.65 696)">
		<path d="M9.8-12.5c0,4.2,1.1,7.4,3.3,9.6c2.2,2.2,5.4,3.2,9.7,3.2h63.5c3.7,0,6.6-1.1,8.7-3.2C97-5.1,98-8.2,98-12.5v-30.1H9.8
			V-12.5z M9.8-48.7H98v-3.1c0-4.2-1.1-7.4-3.3-9.6c-2.2-2.2-5.4-3.2-9.7-3.2H49.7c-1.3,0-2.4-0.2-3.3-0.6c-0.9-0.4-1.9-1-3-1.8
			l-2.3-1.8c-1.4-1.1-2.7-1.8-3.9-2.3c-1.3-0.4-2.9-0.7-4.9-0.7H21.5c-3.7,0-6.5,1.1-8.6,3.2c-2.1,2.2-3.1,5.3-3.1,9.5V-48.7z"/>
	</g>
	<g id="Regular-S" transform="matrix(1 0 0 1 1396.3 696)">
		<g id="icons_x2F_functional_x5F_UI_x2F_E-M_x2F_ic_x5F_Folder">
			<path class="st8" d="M90.8-60H48.6l-8.2-10.9h-30v64c0,3.8,3,6.8,6.8,6.8h80.3v-53.1C97.6-57,94.6-60,90.8-60z"/>
		</g>
	</g>
	<g id="Light-S" transform="matrix(1 0 0 1 1100.24 696)">
		<path d="M9.8-12.3c0,3.8,1,6.7,2.9,8.6c2,1.9,4.9,2.9,8.7,2.9h64c3.4,0,6-1,7.9-2.9S96-8.5,96-12.3V-44H9.8V-12.3z M9.8-48.4H96
			v-3.2c0-3.8-1-6.7-2.9-8.6c-1.9-1.9-4.9-2.9-8.7-2.9H47.5c-1.4,0-2.5-0.2-3.4-0.5c-0.9-0.3-1.8-0.9-2.8-1.8L39-67.3
			c-1.3-1.1-2.5-1.8-3.6-2.2c-1.1-0.4-2.7-0.6-4.6-0.6H20c-3.3,0-5.8,0.9-7.5,2.7c-1.8,1.8-2.6,4.6-2.6,8.2V-48.4z"/>
	</g>
	<g id="Thin-S" transform="matrix(1 0 0 1 804.376 696)">
		<path d="M9.8-12.1c0,3.5,0.9,6.1,2.7,7.9c1.8,1.8,4.4,2.7,7.9,2.7h63.8c3.3,0,5.8-0.9,7.6-2.7c1.7-1.8,2.6-4.4,2.6-7.8v-32.5H9.8
			V-12.1z M9.8-47.5h84.6v-4c0-3.4-0.9-6-2.7-7.8c-1.8-1.8-4.4-2.7-7.9-2.7H46.6c-1.6,0-2.9-0.2-3.8-0.5c-1-0.3-1.9-0.9-3-1.9
			l-2-1.9c-1.3-1.1-2.4-1.9-3.5-2.3c-1-0.4-2.5-0.6-4.5-0.6H18.9c-3,0-5.3,0.8-6.8,2.3c-1.5,1.6-2.3,3.9-2.3,7.1V-47.5z"/>
	</g>
	<g id="Ultralight-S" transform="matrix(1 0 0 1 508.1 696)">
		<path d="M9.8-12.1c0,3.3,0.8,5.8,2.5,7.5c1.7,1.7,4.2,2.5,7.5,2.5h63.8c3.3,0,5.7-0.9,7.4-2.6c1.7-1.7,2.5-4.2,2.5-7.4V-45H9.8
			V-12.1z M9.8-47.1h83.7v-4.4c0-3.2-0.8-5.7-2.5-7.4c-1.7-1.7-4.2-2.6-7.5-2.6H46c-1.7,0-3.1-0.1-4.1-0.4c-1-0.3-2-0.9-3.1-2
			L37-65.8c-1.3-1.2-2.4-1.9-3.4-2.3c-1-0.4-2.5-0.5-4.4-0.5H18.4c-2.9,0-5.1,0.7-6.5,2.1C10.5-65,9.8-62.9,9.8-60V-47.1z"/>
	</g>
</g>
</svg>
