<svg xmlns="http://www.w3.org/2000/svg" width="32" height="32" viewBox="0 0 32 32">
  <defs>
    <style>
      .cls-1 {
        fill-rule: evenodd;
      }
    </style>
  </defs>
  <path id="Guideline" class="cls-1" d="M22.857,2.4a1.138,1.138,0,0,0-1.143,1.133V4H12a0.8,0.8,0,1,0,0,1.6h9.7a8.637,8.637,0,0,1-.235,1.6H12.8a0.8,0.8,0,0,0,0,1.6h8.118a9.285,9.285,0,0,1-.929,1.6H15.2a0.8,0.8,0,0,0,0,1.6h3.338l-1.473,1.339,1.7,1.531,1.422-1.292a11.606,11.606,0,0,0,3.461-5.669A10.81,10.81,0,0,0,24,5.2V3.533A1.138,1.138,0,0,0,22.857,2.4ZM20.322,18.261c-0.181-.143-6.99-6.354-6.99-6.354a9.355,9.355,0,0,1-2.778-4.563,8.6,8.6,0,0,1-.28-2.147V3.533A1.137,1.137,0,0,0,8,3.533V5.2a10.86,10.86,0,0,0,.352,2.712A11.616,11.616,0,0,0,11.8,13.578s6.893,6.284,7.115,6.46a6.962,6.962,0,0,1,2.735,5.633v2.8a1.137,1.137,0,0,0,2.274,0v-2.8A9.267,9.267,0,0,0,20.322,18.261ZM20,26.4H10.286V25.67a7.729,7.729,0,0,1,.053-0.9,0.671,0.671,0,0,0,.212.035h8.775A0.674,0.674,0,0,0,20,24.126h0a0.926,0.926,0,0,0-.926-0.926H10.7a6.7,6.7,0,0,1,.832-1.6H16.8a0.8,0.8,0,0,0,0-1.6H13.081c0.2-.161.38-0.31,0.538-0.454l1.329-1.208L13.3,16.759l-1.228,1.116c-0.132.12-.278,0.242-0.46,0.385A9.25,9.25,0,0,0,8,25.67v2.8a1.143,1.143,0,0,0,2.286,0V28H20A0.8,0.8,0,0,0,20,26.4Z"/>
</svg>
