<svg width="250" height="250" viewBox="0 0 250 250" fill="none" xmlns="http://www.w3.org/2000/svg">
<path d="M73.2841 61.1386L35.8801 98.6686L72.7244 181.29L110.128 143.76L73.2841 61.1386Z" fill="#F5F5F5"/>
<path d="M90.8 139.85L90.3667 143.75L71.8 139.75L72.2 135.8L90.8 139.85Z" fill="#E0E0E0"/>
<path d="M81.4333 125.75L84.1 126.35L81.1667 153.8L78.4667 153.25L81.4333 125.75Z" fill="#E0E0E0"/>
<path d="M64.3333 90.85C64.3666 90.9 60.6 94.75 55.9666 99.4C51.3333 104.05 47.5333 107.8 47.5 107.75C47.4666 107.7 51.2333 103.85 55.8666 99.2C60.5 94.55 64.3 90.8 64.3333 90.85Z" fill="#E0E0E0"/>
<path d="M78.0667 85.7C78.1 85.75 71.8667 92.1 64.1333 99.8C56.4 107.5 50.1333 113.75 50.1 113.7C50.0667 113.65 56.3 107.3 64.0333 99.55C71.7667 91.8 78.0333 85.65 78.0667 85.7Z" fill="#E0E0E0"/>
<path d="M80.8333 91.85C80.8666 91.9 74.6333 98.25 66.9 105.95C59.1666 113.65 52.9 119.9 52.8666 119.85C52.8333 119.8 59.0666 113.45 66.8 105.75C74.5333 98.05 80.8 91.8 80.8333 91.85Z" fill="#E0E0E0"/>
<path d="M83.6 98.05C83.6334 98.1 77.4 104.45 69.6667 112.15C61.9334 119.85 55.6667 126.1 55.6667 126.05C55.6667 126 61.8667 119.65 69.6 111.95C77.3334 104.25 83.5667 98 83.6 98.05Z" fill="#E0E0E0"/>
<path d="M86.3333 104.25C86.3666 104.3 80.1333 110.65 72.4 118.35C64.6666 126.05 58.4 132.3 58.3666 132.25C58.3333 132.2 64.5666 125.85 72.3 118.15C80.0333 110.45 86.3333 104.2 86.3333 104.25Z" fill="#E0E0E0"/>
<path d="M198.377 116.475L166.958 148.001L197.89 217.364L229.309 185.839L198.377 116.475Z" fill="#F5F5F5"/>
<path d="M213.067 182.6L212.7 185.9L197.1 182.5L197.467 179.2L213.067 182.6Z" fill="#E0E0E0"/>
<path d="M205.2 170.8L207.433 171.25L204.967 194.35L202.733 193.85L205.2 170.8Z" fill="#E0E0E0"/>
<path d="M190.833 141.5C190.867 141.55 187.733 144.8 183.8 148.7C179.867 152.6 176.7 155.75 176.667 155.7C176.633 155.65 179.8 152.4 183.7 148.5C187.6 144.6 190.8 141.4 190.833 141.5Z" fill="#E0E0E0"/>
<path d="M202.367 137.1C202.4 137.15 197.167 142.5 190.7 149C184.233 155.5 178.933 160.75 178.933 160.65C178.933 160.55 184.133 155.25 190.6 148.75C197.067 142.25 202.333 137.05 202.367 137.1Z" fill="#E0E0E0"/>
<path d="M204.7 142.3C204.733 142.35 199.5 147.7 193.033 154.2C186.567 160.7 181.267 165.9 181.267 165.85C181.267 165.8 186.467 160.5 192.933 154C199.4 147.5 204.667 142.25 204.7 142.3Z" fill="#E0E0E0"/>
<path d="M207 147.5C207.033 147.55 201.8 152.9 195.333 159.4C188.867 165.9 183.567 171.1 183.567 171.05C183.567 171 188.767 165.65 195.233 159.15C201.7 152.65 206.967 147.45 207 147.5Z" fill="#E0E0E0"/>
<path d="M209.333 152.7C209.367 152.75 204.133 158.1 197.667 164.6C191.2 171.1 185.9 176.3 185.9 176.25C185.9 176.2 191.1 170.85 197.567 164.35C204.033 157.85 209.3 152.65 209.333 152.7Z" fill="#E0E0E0"/>
<path d="M114.384 36.6358L87.3932 112.338L121.666 139.833L148.657 64.1301L114.384 36.6358Z" fill="#F5F5F5"/>
<path d="M115.8 116.2L113.633 117.3L108.1 94.4L110.3 93.3L115.8 116.2Z" fill="#E0E0E0"/>
<path d="M119.133 99.75L119.933 103.05L104.767 110.85L104 107.55L119.133 99.75Z" fill="#E0E0E0"/>
<path d="M129.9 66C129.867 66.05 126.4 63.35 122.133 59.95C117.867 56.55 114.433 53.7 114.467 53.6C114.5 53.5 117.967 56.25 122.233 59.65C126.5 63.05 129.933 65.9 129.9 66Z" fill="#E0E0E0"/>
<path d="M138.133 79.6C138.1 79.65 132.367 75.15 125.3 69.45C118.233 63.75 112.533 59.1 112.567 59.05C112.6 59 118.333 63.5 125.4 69.2C132.467 74.9 138.167 79.55 138.133 79.6Z" fill="#E0E0E0"/>
<path d="M136.1 85.3C136.067 85.35 130.333 80.85 123.267 75.15C116.2 69.45 110.5 64.8 110.533 64.75C110.567 64.7 116.3 69.2 123.367 74.9C130.433 80.6 136.133 85.2 136.1 85.3Z" fill="#E0E0E0"/>
<path d="M134.1 90.95C134.067 91 128.333 86.5 121.267 80.8C114.2 75.1 108.5 70.5 108.533 70.4C108.567 70.3 114.3 74.85 121.367 80.55C128.433 86.25 134.133 90.85 134.1 90.95Z" fill="#E0E0E0"/>
<path d="M132.067 96.6C132.033 96.65 126.3 92.15 119.233 86.45C112.167 80.75 106.467 76.1 106.5 76.05C106.533 76 112.267 80.5 119.333 86.2C126.4 91.9 132.1 96.55 132.067 96.6Z" fill="#E0E0E0"/>
<path opacity="0.2" d="M132.267 0H131.4V22H132.267V0Z" fill="black"/>
<path d="M111.733 48.6H151.9C151.9 48.6 148.2 22 131.533 22C116.7 22 111.733 48.6 111.733 48.6Z" fill="#407BFF"/>
<path d="M132.267 0H131.4V22H132.267V0Z" fill="#407BFF"/>
<path d="M221.233 219.9C221.233 219.95 178.167 220.05 125 220.05C71.8333 220.05 28.7667 220 28.7667 219.9C28.7667 219.8 71.8333 219.75 125 219.75C178.167 219.75 221.233 219.85 221.233 219.9Z" fill="#263238"/>
<path d="M31.5371 188C32.6705 188.1 33.7371 188.95 34.4705 190.25C35.2038 191.55 35.7038 193.1 35.9705 194.75C36.5371 197.9 36.1705 201.65 35.6038 204.8C33.3371 203.55 31.9038 199.9 31.2705 198C30.2371 194.95 29.6371 188.55 31.5371 188Z" fill="#407BFF"/>
<path d="M38.8371 208.65C38.1371 207.05 38.0704 204.95 38.6704 203.25C39.2704 201.55 40.3038 200.3 41.5371 199.8C42.1038 199.55 42.7371 199.45 43.2371 199.9C43.6704 200.4 43.9038 201.25 43.8371 202.05C43.7371 202.85 43.5038 203.65 43.1704 204.25C42.0371 206.5 40.7038 208.4 38.8371 208.65Z" fill="#407BFF"/>
<path d="M39.1038 219.2C39.0705 219 39.0038 218.75 39.0038 218.55C38.9371 218.1 38.8705 217.5 38.7705 216.75C38.4705 214.75 38.4038 212.7 38.5371 210.7C38.7038 208.65 39.2038 206.75 40.0371 205.1C40.3038 204.6 40.5705 204.15 40.9038 203.8C41.0038 203.7 41.0705 203.6 41.1705 203.5C41.2038 203.45 41.2371 203.45 41.2705 203.4C40.8371 203.95 40.4705 204.55 40.1371 205.2C39.3705 206.85 38.8705 208.75 38.7038 210.75C38.5038 213.1 38.7371 215.2 38.9038 216.75C38.9705 217.5 39.0371 218.15 39.1038 218.55C39.0705 218.75 39.1038 218.95 39.1038 219.2Z" fill="#263238"/>
<path d="M32.2704 192.8C32.3038 192.9 32.3371 192.95 32.3704 193.05C32.4371 193.25 32.5038 193.5 32.6038 193.8C32.8038 194.45 33.1038 195.45 33.4371 196.6C34.1371 199 35.0371 202.35 36.0038 206.05C36.9704 209.75 37.7704 213.15 38.3371 215.6C38.6371 216.85 38.8371 217.85 39.0038 218.55C39.0704 218.9 39.1371 219.15 39.1704 219.35C39.2038 219.45 39.2038 219.55 39.2038 219.65C39.1704 219.55 39.1371 219.45 39.1371 219.4C39.1038 219.2 39.0371 218.95 38.9371 218.6L38.2371 215.7C37.6371 213.25 36.8038 209.9 35.8371 206.15C34.8704 202.4 33.9704 199.1 33.3038 196.7C32.9704 195.5 32.7038 194.55 32.5371 193.85C32.4371 193.55 32.3704 193.3 32.3371 193.05C32.3038 193 32.2704 192.9 32.2704 192.8Z" fill="#263238"/>
<path d="M36.4038 212.2C35.0038 208.7 32.6038 206.45 29.9038 206.15C29.2371 206.1 28.4038 206.25 28.1038 207.15C27.8038 208.05 28.2038 209.15 28.6705 209.9C30.6705 213.05 33.7371 214.05 36.4371 212.5" fill="#407BFF"/>
<path d="M30.9038 208.85C31.0371 208.85 31.1705 208.85 31.3371 208.85C31.5038 208.85 31.6705 208.9 31.8371 208.95C32.0371 209 32.2371 209.05 32.4705 209.15C32.7371 209.25 33.0038 209.35 33.2371 209.45C33.5371 209.6 33.8038 209.75 34.1038 209.95C34.7371 210.4 35.3371 210.9 35.9038 211.55C36.4705 212.2 36.9705 212.95 37.4038 213.75C37.6038 214.1 37.7705 214.5 37.9371 214.85C38.0705 215.2 38.2038 215.55 38.3371 215.9C38.4371 216.2 38.5371 216.5 38.6038 216.8C38.6705 217.05 38.7371 217.25 38.7705 217.5C38.8038 217.7 38.8705 217.9 38.8705 218.1C38.8371 218.1 38.6705 217.25 38.2371 215.95C38.1038 215.6 37.9705 215.25 37.8371 214.95C37.6705 214.55 37.5038 214.2 37.3038 213.85C36.4371 212.25 35.3038 210.95 34.0705 210.1C33.7705 209.9 33.5038 209.75 33.2371 209.6C33.0038 209.45 32.7371 209.35 32.4705 209.25C31.5038 208.95 30.9038 208.9 30.9038 208.85Z" fill="#263238"/>
<path d="M201.426 52.75C200.051 53.1 199.34 54.8 199.198 56.3C199.056 57.8 199.245 59.4 198.629 60.75C197.965 62.3 196.353 63.45 196.306 65.1C196.258 66.15 196.875 67.1 196.827 68.15C196.78 69.85 195.12 71.15 195.025 72.85C194.978 74.05 195.737 75.25 195.547 76.45C195.405 77.4 194.693 78.15 194.409 79.05C193.84 80.85 194.978 82.85 196.543 83.85C199.767 86 204.034 84.95 206.073 81.55C206.263 81.2 206.452 80.85 206.594 80.45C207.448 78.3 207.258 75.85 207.069 73.55C206.5 66.3 206.073 59.05 205.788 51.75" fill="#263238"/>
<path d="M197.349 78.35C197.633 78.15 197.87 77.9 197.965 77.55C198.107 77.15 198.155 76.75 198.107 76.35C198.06 75.8 197.918 75.25 197.775 74.75C197.538 74.1 197.444 73.4 197.538 72.7C197.633 71.9 198.202 71.3 198.676 70.65C198.913 70.35 199.151 70 199.293 69.6C199.482 69.2 199.482 68.8 199.388 68.4C199.15 67.6 198.392 67 198.06 66.05C197.918 65.6 197.87 65.05 197.965 64.6C198.06 64.15 198.25 63.7 198.439 63.3C198.819 62.55 199.15 61.75 199.388 60.95C199.719 59.35 199.577 57.85 199.767 56.6C199.909 55.6 200.336 54.65 200.952 53.95C201.142 53.75 201.332 53.6 201.569 53.45C201.663 53.4 201.711 53.35 201.806 53.35C201.521 53.5 201.237 53.75 201 54C200.383 54.75 200.004 55.65 199.909 56.6C199.814 57.25 199.767 57.95 199.767 58.6C199.767 59.4 199.672 60.15 199.53 60.95C199.293 61.8 199.008 62.6 198.582 63.35C198.202 64.15 197.918 65.05 198.202 65.9C198.487 66.75 199.245 67.35 199.577 68.3C199.719 68.75 199.672 69.25 199.482 69.7C199.293 70.1 199.056 70.5 198.771 70.8C198.297 71.45 197.775 72.05 197.681 72.75C197.633 73.4 197.681 74.1 197.918 74.7C198.107 75.25 198.202 75.8 198.25 76.35C198.25 76.8 198.202 77.2 198.013 77.6C197.918 77.85 197.728 78.05 197.538 78.25C197.538 78.25 197.444 78.3 197.349 78.35Z" fill="#455A64"/>
<path d="M193.65 90.2L189.383 103.2L171.555 104.2L168.568 111.2L187.202 113.2C190.805 114.75 194.93 112.95 196.4 109.15C196.448 109.05 196.495 108.95 196.495 108.85L201.474 94.2L193.65 90.2Z" fill="#B78876"/>
<path d="M230.539 212.85C230.539 212.85 217.452 169.05 217.168 167.6C216.931 166.3 221.909 134.8 222.526 126.6L204.84 127.3V127.5L197.349 127.95L204.082 217.5H212.237L211.431 187.75C216.457 201.95 223.616 216.4 223.616 216.4L230.539 212.85Z" fill="#B78876"/>
<path d="M211.763 198.45C211.763 198.2 211.668 188.5 211.668 188.5C211.573 189.1 208.539 180.1 208.633 179.55C208.681 179.25 211.763 198.45 211.763 198.45Z" fill="#A36957"/>
<path d="M208.254 175.25C208.207 175.45 208.207 175.6 208.207 175.8C208.159 176.3 208.159 176.8 208.207 177.3C208.207 177.6 208.254 177.95 208.301 178.3C208.349 178.65 208.396 179.05 208.491 179.45C208.681 180.35 208.87 181.2 209.155 182.05C209.724 183.85 210.388 185.45 210.862 186.6C211.099 187.1 211.289 187.6 211.431 187.95C211.478 188.15 211.573 188.3 211.668 188.45C211.62 188.3 211.573 188.1 211.526 187.95C211.431 187.6 211.241 187.15 211.051 186.55C210.625 185.4 210.008 183.8 209.439 182C209.155 181.15 208.918 180.3 208.776 179.45C208.681 179.05 208.633 178.65 208.586 178.3C208.538 177.95 208.491 177.6 208.491 177.3C208.444 176.7 208.396 176.2 208.396 175.85C208.349 175.65 208.301 175.45 208.254 175.25Z" fill="#A36957"/>
<path d="M203.939 217.95V217.15L212.284 216.75V220.05L211.763 220.1C209.487 220.25 200.146 220.65 198.582 220.15C196.922 219.65 203.939 217.95 203.939 217.95Z" fill="#455A64"/>
<path d="M212.426 219.9C212.379 219.9 212.332 219.9 212.284 219.9L211.858 219.95L210.34 220C209.06 220.05 207.306 220.1 205.362 220.1C203.418 220.1 201.663 220.1 200.383 220.05L198.866 220H198.439H198.297C198.344 220 198.392 220 198.439 220H198.866L200.383 220.05C201.663 220.05 203.418 220.1 205.362 220.1C207.306 220.1 209.06 220.05 210.34 220L211.858 219.95L212.426 219.9Z" fill="#263238"/>
<path d="M201.237 220.15C201.189 219.9 201.094 219.65 200.952 219.4C200.81 219.2 200.62 219 200.431 218.8C200.668 218.9 200.905 219.1 201.047 219.35C201.189 219.6 201.284 219.9 201.237 220.15Z" fill="#263238"/>
<path d="M203.702 218.85C203.702 218.85 203.56 218.7 203.465 218.5C203.37 218.3 203.276 218.1 203.276 218.1C203.276 218.1 203.418 218.25 203.513 218.45C203.607 218.65 203.702 218.85 203.702 218.85Z" fill="#263238"/>
<path d="M204.366 218.5C204.366 218.5 204.224 218.45 204.082 218.3C203.939 218.15 203.844 218.05 203.844 218C203.844 217.95 203.987 218.05 204.129 218.2C204.271 218.35 204.366 218.45 204.366 218.5Z" fill="#263238"/>
<path d="M204.793 217.65C204.651 217.7 204.508 217.7 204.366 217.7C204.224 217.7 204.082 217.7 203.939 217.65C204.082 217.6 204.224 217.6 204.366 217.6C204.508 217.6 204.651 217.6 204.793 217.65Z" fill="#263238"/>
<path d="M204.935 217.05C204.793 217.15 204.65 217.2 204.461 217.2C204.319 217.2 204.129 217.2 203.987 217.15C204.129 217.1 204.319 217.1 204.461 217.1C204.603 217.1 204.793 217.05 204.935 217.05Z" fill="#263238"/>
<path d="M203.418 218.1C203.228 218.15 203.038 218.15 202.896 218.1C202.707 218.1 202.517 218.05 202.327 217.95C202.232 217.9 202.09 217.85 201.995 217.8C201.948 217.75 201.901 217.7 201.853 217.6C201.853 217.5 201.853 217.45 201.948 217.35C202.422 217.1 203.038 217.3 203.276 217.85C203.323 217.9 203.323 218 203.323 218.05C203.323 218.1 203.323 218.15 203.323 218.2C203.276 218 203.181 217.85 203.086 217.7C202.944 217.55 202.801 217.45 202.612 217.4C202.422 217.35 202.185 217.35 201.995 217.45C201.9 217.5 201.948 217.6 202.043 217.7C202.138 217.75 202.232 217.8 202.327 217.85C202.517 217.9 202.707 217.95 202.896 218C203.228 218.05 203.418 218.05 203.418 218.1Z" fill="#263238"/>
<path d="M203.276 218.1C203.228 218 203.181 217.85 203.228 217.7C203.228 217.55 203.276 217.4 203.37 217.3C203.465 217.15 203.607 217 203.797 217C203.892 217.05 203.987 217.15 203.939 217.25C203.939 217.35 203.892 217.4 203.845 217.5C203.75 217.6 203.702 217.75 203.607 217.85C203.56 218 203.418 218.05 203.276 218.1C203.323 218.1 203.418 218 203.56 217.8C203.655 217.7 203.702 217.6 203.797 217.45C203.892 217.35 203.939 217.1 203.797 217.1C203.655 217.1 203.513 217.25 203.465 217.35C203.37 217.45 203.323 217.6 203.323 217.7C203.276 217.85 203.276 218 203.276 218.1Z" fill="#263238"/>
<path d="M212.237 217.5C212.237 217.5 212 217.5 211.62 217.5C210.625 217.65 209.771 218.35 209.439 219.35C209.297 219.75 209.297 220 209.297 219.95C209.297 219.9 209.297 219.9 209.297 219.75C209.297 219.6 209.344 219.45 209.392 219.25C209.534 218.75 209.819 218.3 210.245 217.95C210.625 217.6 211.146 217.4 211.62 217.4C211.763 217.4 211.952 217.4 212.095 217.4C212.142 217.45 212.189 217.5 212.237 217.5Z" fill="#263238"/>
<path d="M208.254 219.2C207.875 219.3 207.448 219.35 207.021 219.3C206.595 219.3 206.215 219.3 205.836 219.2C205.836 219.15 206.357 219.2 207.021 219.2C207.685 219.2 208.254 219.15 208.254 219.2Z" fill="#263238"/>
<path d="M209.866 219.2C209.866 219.2 209.819 219.3 209.771 219.45C209.724 219.6 209.676 219.7 209.676 219.7C209.676 219.7 209.629 219.55 209.676 219.4C209.724 219.25 209.866 219.15 209.866 219.2Z" fill="#263238"/>
<path d="M210.483 218.35C210.483 218.35 210.435 218.45 210.388 218.55C210.34 218.65 210.198 218.7 210.198 218.7C210.198 218.7 210.245 218.6 210.293 218.5C210.34 218.4 210.483 218.35 210.483 218.35Z" fill="#263238"/>
<path d="M211.336 218C211.336 218.05 211.241 218.05 211.099 218.05C210.957 218.05 210.909 218.15 210.862 218.15C210.814 218.15 210.909 218 211.052 217.95C211.194 217.9 211.383 217.95 211.336 218Z" fill="#263238"/>
<path d="M212 217.8C212 217.85 211.952 217.85 211.905 217.9C211.858 217.95 211.763 217.95 211.763 217.9C211.763 217.85 211.81 217.85 211.858 217.8C211.905 217.75 211.952 217.8 212 217.8Z" fill="#263238"/>
<path d="M223.474 217.2L223.142 216.45L230.586 212.5L231.914 215.5L231.44 215.75C229.401 216.85 221.056 221.25 219.444 221.5C217.69 221.75 223.474 217.2 223.474 217.2Z" fill="#455A64"/>
<path d="M231.819 215.4L231.44 215.6L230.112 216.3C228.974 216.9 227.409 217.7 225.608 218.55C223.806 219.4 222.194 220.1 221.056 220.65L219.633 221.25L219.254 221.4C219.207 221.4 219.159 221.45 219.112 221.45L219.254 221.4L219.633 221.2L221.008 220.6C222.194 220.05 223.806 219.35 225.56 218.5C227.315 217.65 228.927 216.85 230.065 216.3L231.44 215.6L231.819 215.4Z" fill="#263238"/>
<path d="M221.862 220.35C221.72 220.15 221.53 219.95 221.293 219.8C221.056 219.65 220.819 219.55 220.582 219.45C221.151 219.45 221.672 219.8 221.862 220.35Z" fill="#263238"/>
<path d="M223.569 218.1C223.569 218.1 223.379 218.05 223.189 217.9C223 217.75 222.858 217.65 222.858 217.6C222.858 217.55 223.047 217.65 223.237 217.8C223.427 217.95 223.616 218.1 223.569 218.1Z" fill="#263238"/>
<path d="M224.043 217.5C224.043 217.5 223.901 217.5 223.711 217.45C223.521 217.4 223.379 217.3 223.379 217.3C223.521 217.3 223.616 217.3 223.711 217.35C223.901 217.4 224.043 217.45 224.043 217.5Z" fill="#263238"/>
<path d="M224.09 216.55C224.09 216.6 223.948 216.7 223.711 216.8C223.569 216.9 223.427 216.95 223.284 216.95C223.284 216.9 223.427 216.8 223.664 216.7C223.806 216.6 223.948 216.55 224.09 216.55Z" fill="#263238"/>
<path d="M223.996 215.95C223.996 215.95 223.853 216.15 223.616 216.3C223.474 216.4 223.332 216.45 223.142 216.45C223.284 216.35 223.427 216.25 223.569 216.2C223.806 216.05 223.996 215.95 223.996 215.95Z" fill="#263238"/>
<path d="M223.047 217.55C222.905 217.65 222.763 217.75 222.573 217.8C222.384 217.85 222.194 217.9 222.004 217.9C221.909 217.9 221.767 217.9 221.672 217.9C221.577 217.9 221.53 217.85 221.483 217.8C221.435 217.75 221.435 217.65 221.483 217.55C221.767 217.15 222.289 217.05 222.715 217.3C222.81 217.35 222.952 217.45 223 217.55C223.047 217.65 223.095 217.7 223.095 217.7C223 217.55 222.858 217.45 222.668 217.35C222.478 217.25 222.336 217.25 222.146 217.25C221.909 217.25 221.72 217.4 221.577 217.55C221.53 217.65 221.577 217.75 221.72 217.75C221.815 217.75 221.957 217.75 222.052 217.75C222.241 217.75 222.431 217.7 222.621 217.65C222.858 217.6 223.047 217.5 223.047 217.55Z" fill="#263238"/>
<path d="M222.905 217.6C222.81 217.5 222.715 217.4 222.715 217.25C222.668 217.1 222.668 216.95 222.668 216.8C222.668 216.6 222.81 216.45 222.952 216.35C223.047 216.3 223.332 216.55 223.379 216.65C223.427 216.75 223.237 216.7 223.237 216.75C223.237 216.9 223.189 217.05 223.142 217.15C223.095 217.4 223.047 217.5 222.905 217.6C222.952 217.55 223 217.45 223.047 217.2C223.095 217.05 223.095 216.95 223.142 216.8C223.142 216.65 223.142 216.45 223 216.5C222.858 216.55 222.81 216.75 222.763 216.85C222.715 217 222.715 217.1 222.763 217.25C222.81 217.4 222.858 217.5 222.905 217.6Z" fill="#263238"/>
<path d="M230.871 213.2C230.871 213.2 230.634 213.3 230.302 213.5C229.875 213.75 229.543 214.15 229.306 214.6C229.069 215.05 228.974 215.6 229.021 216.1C229.069 216.5 229.116 216.75 229.116 216.75C229.069 216.7 229.069 216.65 229.021 216.6C228.974 216.45 228.927 216.3 228.927 216.15C228.784 215.05 229.306 214 230.207 213.45C230.349 213.35 230.491 213.3 230.634 213.25C230.728 213.2 230.823 213.2 230.871 213.2Z" fill="#263238"/>
<path d="M227.884 216.45C227.22 216.95 226.461 217.3 225.655 217.5C225.655 217.45 226.129 217.25 226.746 217C227.362 216.75 227.884 216.45 227.884 216.45Z" fill="#263238"/>
<path d="M229.352 215.75C229.352 215.75 229.352 215.85 229.352 216C229.352 216.15 229.352 216.25 229.352 216.25C229.352 216.25 229.258 216.15 229.258 216C229.258 215.85 229.305 215.7 229.352 215.75Z" fill="#263238"/>
<path d="M229.591 214.75C229.591 214.75 229.591 214.85 229.543 215C229.496 215.15 229.448 215.2 229.401 215.2C229.353 215.2 229.401 215.1 229.448 214.95C229.496 214.8 229.543 214.75 229.591 214.75Z" fill="#263238"/>
<path d="M230.254 214C230.254 214.05 230.159 214.05 230.065 214.15C229.97 214.25 229.922 214.35 229.875 214.35C229.828 214.35 229.875 214.2 229.97 214.1C230.065 214 230.254 214 230.254 214Z" fill="#263238"/>
<path d="M230.728 213.6C230.728 213.6 230.728 213.7 230.681 213.75C230.634 213.8 230.586 213.85 230.539 213.8C230.491 213.75 230.539 213.7 230.586 213.65C230.634 213.6 230.728 213.55 230.728 213.6Z" fill="#263238"/>
<path d="M221.435 111.8L220.06 93.95L227.172 94.1C227.172 94.1 227.504 91.45 226.461 85.7C225.797 82.15 223.569 80 221.056 78.7V78.65L220.819 78.6C218.733 77.6 216.551 77 214.276 76.8L205.504 76.9C205.504 76.9 198.818 76 195.12 81.05C193.698 83 189.288 96.25 189.288 96.25L199.814 101.6L198.819 94.25C198.819 94.25 199.008 99.55 199.672 101.25C200.051 102.2 201.094 105.1 201.094 105.1L200.952 113.9L221.435 111.8Z" fill="#407BFF"/>
<path d="M216.599 91.4L215.319 97.2H227.552L226.746 87.45L216.599 91.4Z" fill="#407BFF"/>
<path d="M227.552 97.2C227.03 97.1 226.461 97.05 225.939 97.05C224.944 97 223.569 96.95 222.004 96.95C220.439 96.95 219.064 97.05 218.069 97.1C217.547 97.1 216.978 97.2 216.457 97.3C216.978 97.35 217.547 97.35 218.069 97.3C219.064 97.25 220.439 97.25 222.004 97.2C223.569 97.15 224.944 97.2 225.939 97.25C226.461 97.3 226.983 97.25 227.552 97.2Z" fill="#263238"/>
<path d="M216.077 87.4C216.03 87.9 215.983 88.4 216.03 88.9C216.03 89.8 216.077 91.1 216.125 92.45C216.172 93.8 216.22 95.1 216.314 96C216.314 96.5 216.362 97 216.457 97.5C216.504 97 216.504 96.5 216.504 96C216.504 95.1 216.457 93.8 216.409 92.45C216.362 91.1 216.314 89.8 216.22 88.9C216.22 88.4 216.172 87.9 216.077 87.4Z" fill="#263238"/>
<g opacity="0.3">
<path d="M204.935 92.45C204.935 92.45 207.638 113.75 215.319 113.15C215.319 113.15 218.78 113.1 219.87 110.7V109.75L204.935 92.45Z" fill="black"/>
</g>
<g opacity="0.3">
<path d="M216.077 88.65L214.608 99.05L215.556 100.9L217.12 97.3H216.457L216.077 88.65Z" fill="black"/>
</g>
<path d="M201.094 105.1C201 104.95 200.952 104.8 200.905 104.6C200.81 104.3 200.62 103.8 200.431 103.2C199.956 101.65 199.577 100.05 199.245 98.5C198.961 96.9 198.771 95.3 198.676 93.65C198.629 93.05 198.629 92.5 198.629 92.15C198.629 91.95 198.629 91.8 198.676 91.6C198.724 91.6 198.724 92.35 198.818 93.6C198.961 95.2 199.15 96.8 199.482 98.4C199.814 100.25 200.241 101.95 200.573 103.1C200.715 103.65 200.857 104.15 200.952 104.5C201 104.7 201.047 104.9 201.094 105.1Z" fill="#263238"/>
<path d="M204.176 111.2C204.129 111.2 203.939 110.75 203.75 110.2C203.607 109.85 203.56 109.5 203.56 109.1C203.75 109.4 203.892 109.75 203.987 110.15C204.129 110.45 204.176 110.85 204.176 111.2Z" fill="#263238"/>
<path d="M205.219 111.1C204.84 110.1 204.84 109 205.172 108C205.219 108.5 205.219 109.05 205.172 109.55C205.267 110.05 205.267 110.6 205.219 111.1Z" fill="#263238"/>
<path d="M200.051 101.8C200.004 101.85 197.586 100.65 194.599 99.05C191.611 97.45 189.241 96.15 189.241 96.1C189.241 96.05 191.706 97.25 194.693 98.85C197.681 100.45 200.099 101.75 200.051 101.8Z" fill="#263238"/>
<path d="M204.366 78.6C204.413 76.05 204.413 73.4 204.413 73.4C204.413 73.4 201.331 72.8 200.81 68.5C200.288 64.45 201.711 54.9 201.711 54.9C206.215 53.1 210.862 54.75 213.944 58.55L213.185 79.1C213.09 81.5 211.099 83.3 208.681 83.2C206.263 83.1 204.318 81.05 204.366 78.6Z" fill="#B78876"/>
<path d="M201.521 62.55C201.521 62.85 201.711 63.1 201.995 63.1C202.28 63.15 202.517 62.9 202.517 62.65C202.517 62.65 202.517 62.65 202.517 62.6C202.517 62.3 202.327 62.05 202.043 62.05C201.806 62 201.521 62.2 201.521 62.45C201.521 62.5 201.521 62.5 201.521 62.55Z" fill="#263238"/>
<path d="M201.331 61.85C201.379 61.9 201.806 61.65 202.375 61.65C202.944 61.65 203.323 61.95 203.37 61.9C203.418 61.85 203.323 61.75 203.181 61.6C202.944 61.4 202.659 61.3 202.375 61.3C202.09 61.3 201.806 61.4 201.569 61.55C201.331 61.65 201.284 61.8 201.331 61.85Z" fill="#263238"/>
<path d="M207.163 62.9C207.163 63.2 207.353 63.45 207.638 63.45C207.875 63.5 208.159 63.3 208.159 63.05C208.159 63 208.159 63 208.159 62.95C208.159 62.65 207.969 62.4 207.685 62.4C207.448 62.35 207.163 62.55 207.163 62.8C207.163 62.85 207.163 62.9 207.163 62.9Z" fill="#263238"/>
<path d="M207.116 62.2C207.163 62.3 207.59 62 208.159 62C208.728 62 209.107 62.3 209.202 62.25C209.297 62.2 209.155 62.1 209.013 61.95C208.776 61.75 208.491 61.65 208.207 61.65C207.922 61.65 207.638 61.75 207.401 61.9C207.163 62.05 207.069 62.15 207.116 62.2Z" fill="#263238"/>
<path d="M204.982 66.5C204.698 66.4 204.366 66.35 204.081 66.3C203.939 66.3 203.797 66.25 203.797 66.15C203.797 66 203.844 65.85 203.892 65.7L204.319 64.6C204.745 63.65 205.077 62.65 205.362 61.65C204.888 62.55 204.461 63.55 204.129 64.5C203.987 64.9 203.844 65.3 203.702 65.65C203.607 65.85 203.56 66.05 203.607 66.25C203.655 66.35 203.75 66.45 203.844 66.5C203.939 66.5 203.987 66.55 204.081 66.55C204.366 66.5 204.698 66.55 204.982 66.5Z" fill="#263238"/>
<path d="M204.414 73.45C206.31 73.55 208.207 73.05 209.866 72.05C209.866 72.05 208.491 74.95 204.461 74.45L204.414 73.45Z" fill="#A36957"/>
<path d="M208.918 60.5C208.823 60.7 208.396 60.6 207.922 60.5C207.448 60.4 207.021 60.3 206.974 60.1C206.926 59.9 207.4 59.6 208.064 59.75C208.728 59.9 209.013 60.35 208.918 60.5Z" fill="#263238"/>
<path d="M203.37 59.65C203.323 59.85 202.896 59.95 202.327 59.95C201.758 59.95 201.331 59.95 201.284 59.75C201.237 59.55 201.663 59.2 202.28 59.2C202.896 59.2 203.418 59.45 203.37 59.65Z" fill="#263238"/>
<path d="M204.982 67.9C204.84 67.85 204.745 67.95 204.651 68.05C204.556 68.2 204.603 68.4 204.793 68.5C204.982 68.6 205.125 68.55 205.22 68.35C205.267 68.25 205.267 68.1 205.22 68C205.172 67.85 204.982 67.8 204.84 67.85" fill="#A36957"/>
<path d="M205.125 67.95C205.125 67.9 205.03 67.8 204.793 67.85C204.65 67.9 204.508 68 204.508 68.15C204.461 68.35 204.508 68.55 204.65 68.7C204.793 68.8 205.03 68.8 205.172 68.7C205.314 68.6 205.362 68.45 205.362 68.3C205.314 68 205.125 67.95 205.125 67.95C205.125 68.05 205.172 68.1 205.172 68.3C205.172 68.4 205.125 68.45 205.077 68.5C204.982 68.55 204.887 68.55 204.84 68.5C204.793 68.45 204.745 68.35 204.745 68.25C204.745 68.15 204.793 68.1 204.888 68.05C204.982 67.95 205.125 68 205.125 67.95Z" fill="#263238"/>
<path d="M212.142 63.6C211.668 64.75 210.483 65.7 210.672 66.95C210.767 67.75 211.289 68.5 211.194 69.35C211.051 70.35 210.056 71.1 209.914 72.1C209.724 73.35 210.909 74.35 211.336 75.5C212 77.2 211.146 79.15 211.146 81C211.194 83.95 213.327 86.4 216.077 86.7C217.168 86.8 218.353 86.45 218.922 85.45C219.396 84.65 219.302 83.6 219.586 82.7C220.013 81.35 221.198 80.4 221.483 79C221.957 76.5 219.065 74.4 219.254 71.85C219.349 70.75 219.965 69.8 220.25 68.75C220.582 67.35 220.297 65.85 219.396 64.7C218.685 63.8 217.642 63.2 217.026 62.25C216.314 61.15 216.314 59.75 216.077 58.45C215.034 53.25 210.198 49.95 205.314 51.05C203.987 51.35 202.754 51.95 201.663 52.85C201.663 52.85 200.952 56.15 204.176 56.7C207.401 57.25 208.87 56.6 209.25 57.95C209.06 59.1 209.439 60.25 210.198 61.05C211.431 62.55 212.664 62.25 212.142 63.6Z" fill="#263238"/>
<path d="M217.263 86.45C217.168 86.45 217.073 86.45 216.978 86.4C216.694 86.35 216.409 86.25 216.172 86.15C215.176 85.75 214.323 85.1 213.707 84.2C213.232 83.6 212.901 82.9 212.663 82.2C212.379 81.4 212.237 80.5 212.237 79.65C212.237 78.7 212.332 77.75 212.569 76.8C212.711 76.3 212.853 75.85 213.043 75.35C213.232 74.9 213.422 74.4 213.564 73.9C213.707 73.4 213.707 72.9 213.564 72.45C213.422 72 213.232 71.5 213.043 71.1C212.806 70.65 212.616 70.2 212.474 69.75C212.332 69.3 212.284 68.8 212.379 68.3C212.569 67.35 213.09 66.65 213.422 65.95C213.707 65.3 213.896 64.55 213.849 63.8C213.801 62.7 213.422 61.7 212.806 60.85C212.569 60.55 212.284 60.3 212 60C212.332 60.2 212.616 60.45 212.853 60.75C213.564 61.6 213.944 62.65 213.991 63.75C214.039 64.5 213.896 65.3 213.564 66C213.232 66.75 212.711 67.45 212.569 68.3C212.426 69.15 212.806 70.05 213.232 70.95C213.47 71.4 213.659 71.9 213.801 72.35C213.944 72.85 213.944 73.45 213.801 73.95C213.659 74.45 213.47 74.95 213.232 75.45C213.043 75.9 212.901 76.4 212.758 76.85C212.521 77.75 212.426 78.7 212.426 79.65C212.426 81.25 212.901 82.8 213.801 84.1C214.418 84.95 215.224 85.65 216.172 86.05C216.836 86.4 217.263 86.45 217.263 86.45Z" fill="#455A64"/>
<path d="M216.789 61.25C216.551 61.3 216.314 61.35 216.077 61.35C215.414 61.4 214.75 61.4 214.133 61.3C213.138 61.15 212.237 60.6 211.668 59.7C211.383 59.15 211.194 58.6 211.004 58C210.814 57.4 210.435 56.9 209.913 56.6C208.87 55.9 207.638 55.8 206.594 55.7C205.599 55.65 204.65 55.35 203.844 54.8C203.275 54.4 202.896 53.8 202.706 53.15C202.659 52.95 202.659 52.75 202.659 52.6C202.659 52.45 202.706 52.4 202.706 52.4C202.706 52.65 202.754 52.9 202.801 53.15C202.991 53.8 203.418 54.35 203.939 54.7C204.745 55.2 205.694 55.5 206.642 55.5C207.685 55.65 208.965 55.7 210.056 56.45C210.577 56.8 211.004 57.35 211.241 58C211.383 58.55 211.573 59.1 211.857 59.65C212.426 60.45 213.232 61 214.181 61.15C214.797 61.25 215.461 61.3 216.077 61.3C216.267 61.2 216.504 61.2 216.789 61.25Z" fill="#455A64"/>
<path d="M215.603 57.15C215.414 57.2 215.224 57.25 215.034 57.25C214.133 57.25 213.28 56.9 212.663 56.25C212.379 55.95 212.142 55.6 211.952 55.2C211.526 54.45 211.099 53.5 210.245 53.1C209.392 52.8 208.491 52.7 207.59 52.85C206.832 52.95 206.073 52.95 205.314 52.85C204.793 52.75 204.319 52.55 203.892 52.2C203.797 52.1 203.702 52 203.607 51.85C203.56 51.75 203.513 51.7 203.513 51.7C203.513 51.7 203.655 51.85 203.939 52.1C204.366 52.4 204.793 52.6 205.314 52.65C206.073 52.75 206.784 52.7 207.543 52.6C208.491 52.45 209.439 52.55 210.293 52.85C210.767 53.05 211.146 53.4 211.431 53.85C211.668 54.25 211.905 54.65 212.142 55.05C212.332 55.4 212.569 55.75 212.853 56.05C213.09 56.3 213.375 56.5 213.659 56.7C214.086 56.95 214.607 57.1 215.082 57.1C215.366 57.15 215.603 57.15 215.603 57.15Z" fill="#455A64"/>
<path d="M218.638 85.4C218.638 85.4 218.78 85.05 218.922 84.45C219.159 83.6 219.254 82.7 219.254 81.75C219.207 80.4 218.875 79.1 218.258 77.95C217.927 77.3 217.405 76.7 216.931 76C216.694 75.65 216.552 75.2 216.457 74.8C216.362 74.35 216.409 73.9 216.552 73.45C216.836 72.6 217.31 71.85 217.405 71.05C217.5 70.25 217.168 69.55 216.789 68.9C216.599 68.6 216.457 68.25 216.267 67.9C216.125 67.55 216.03 67.2 215.983 66.85C215.935 66.2 215.935 65.6 216.03 64.95C216.172 64.05 216.125 63.15 215.793 62.3C215.651 62 215.461 61.75 215.224 61.5C215.224 61.5 215.224 61.5 215.271 61.55C215.319 61.6 215.366 61.6 215.414 61.65C215.603 61.8 215.745 62 215.84 62.25C216.172 63.1 216.267 64.05 216.172 64.95C216.125 65.55 216.077 66.2 216.172 66.8C216.267 67.5 216.552 68.15 216.931 68.75C217.121 69.1 217.31 69.45 217.452 69.8C217.595 70.2 217.642 70.65 217.595 71.05C217.5 71.95 216.978 72.65 216.741 73.5C216.599 73.9 216.599 74.3 216.646 74.7C216.741 75.1 216.883 75.5 217.073 75.8C217.452 76.5 218.021 77.1 218.353 77.75C218.97 78.95 219.349 80.3 219.349 81.7C219.349 82.6 219.207 83.55 218.97 84.4C218.875 84.65 218.78 84.85 218.685 85.1C218.733 85.25 218.685 85.3 218.638 85.4Z" fill="#455A64"/>
<path d="M199.34 178.55C199.34 178.55 196.163 146.65 195.974 134.85C195.784 123.05 201 111.4 201 111.4L221.435 110.5C221.435 110.5 225.465 122.45 225.56 127.5C225.703 137.25 223.095 146.9 223.379 154.65L224.043 178.55" fill="#263238"/>
<path d="M224.754 139.3C224.659 139.4 224.517 139.5 224.422 139.55L224.233 139.7L224.043 139.9C223.853 140.05 223.711 140.25 223.569 140.45C222.905 141.3 222.431 142.85 221.957 144.7C221.72 145.75 221.388 146.75 220.914 147.75C220.771 148 220.629 148.25 220.44 148.5C220.345 148.6 220.297 148.75 220.155 148.85L219.823 149.2C219.396 149.65 218.875 150 218.306 150.25C217.168 150.8 215.888 151.05 214.702 151.65C213.517 152.35 212.569 153.45 212.095 154.8C211.526 156.15 211.146 157.55 210.672 158.9C210.198 160.25 209.582 161.5 208.539 162.3C207.543 163 206.405 163.4 205.22 163.4C204.129 163.45 203.086 163.45 202.185 163.6C201.379 163.7 200.573 164 199.909 164.5C199.435 164.9 199.056 165.45 198.866 166.1C198.724 166.5 198.724 166.9 198.771 167.35C198.819 167.65 198.913 167.75 198.866 167.75C198.771 167.6 198.724 167.5 198.724 167.35C198.629 166.95 198.629 166.5 198.771 166.1C198.961 165.45 199.34 164.85 199.814 164.45C200.525 163.9 201.332 163.55 202.185 163.45C203.133 163.3 204.129 163.3 205.22 163.25C206.357 163.25 207.495 162.85 208.444 162.15C209.392 161.25 210.103 160.1 210.483 158.85C210.957 157.55 211.289 156.1 211.905 154.75C212.426 153.35 213.375 152.2 214.655 151.5C215.888 150.85 217.168 150.6 218.306 150.1C218.875 149.85 219.349 149.5 219.776 149.1L220.06 148.8C220.155 148.7 220.25 148.55 220.297 148.45C220.487 148.2 220.629 148 220.724 147.7C221.198 146.75 221.53 145.75 221.767 144.7C222.241 142.8 222.763 141.25 223.474 140.4C223.616 140.2 223.759 140.05 223.948 139.85C224.043 139.8 224.09 139.7 224.138 139.65L224.328 139.5C224.47 139.4 224.612 139.35 224.754 139.3Z" fill="#FAFAFA"/>
<path d="M224.849 124.55C224.849 124.7 224.897 124.85 224.897 125C224.897 125.4 224.849 125.8 224.754 126.2C224.328 127.65 223.521 128.95 222.431 129.95C221.72 130.65 220.914 131.25 220.06 131.8C219.159 132.35 218.116 132.9 217.121 133.55C216.03 134.15 215.034 134.9 214.086 135.8C213.138 136.8 212.379 137.95 211.81 139.2C211.241 140.5 210.577 141.7 209.819 142.9C209.439 143.45 209.013 143.95 208.539 144.4C208.064 144.85 207.543 145.2 206.974 145.5C205.978 146.05 204.888 146.45 203.797 146.8C202.801 147.15 201.853 147.4 201 147.8C200.241 148.1 199.53 148.5 198.866 149C198.344 149.35 197.918 149.8 197.538 150.3C197.207 150.75 196.969 151.2 196.732 151.7C196.78 151.55 196.827 151.45 196.875 151.3C197.017 150.9 197.207 150.55 197.444 150.25C197.823 149.75 198.25 149.3 198.771 148.9C199.435 148.4 200.146 148 200.905 147.65C201.806 147.25 202.754 146.9 203.702 146.65C204.793 146.3 205.836 145.9 206.832 145.35C207.353 145.05 207.875 144.7 208.349 144.3C208.823 143.85 209.25 143.35 209.582 142.85C210.293 141.65 210.957 140.45 211.573 139.2C212.189 137.9 212.948 136.75 213.944 135.75C214.892 134.85 215.935 134.1 217.026 133.5C218.069 132.9 219.065 132.35 220.013 131.8C220.866 131.3 221.672 130.7 222.384 130C223.474 129.05 224.28 127.75 224.707 126.35C224.802 125.65 224.849 125.1 224.849 124.55Z" fill="#FAFAFA"/>
<path d="M196.068 136.5C196.068 136.45 196.021 136.45 196.021 136.4C195.974 136.3 195.974 136.2 195.926 136.1C195.831 135.7 195.879 135.3 195.974 134.9C196.258 133.9 197.301 132.6 198.961 132C199.814 131.7 200.763 131.5 201.758 131.25C203.418 130.95 204.888 129.85 205.646 128.2C205.931 127.6 206.168 127 206.357 126.4C206.737 125.05 207.211 123.8 207.875 122.55C208.586 121.35 209.676 120.45 210.957 120C212.142 119.6 213.327 119.3 214.513 119.05C215.603 118.85 216.646 118.45 217.595 117.95C218.401 117.45 219.112 116.75 219.681 115.95C220.487 114.75 220.961 113.35 221.008 111.9C221.008 111.35 220.961 110.85 220.914 110.3C221.056 110.8 221.103 111.35 221.103 111.9C221.103 113.4 220.629 114.85 219.823 116.05C219.254 116.9 218.543 117.6 217.689 118.1C216.694 118.65 215.651 119.05 214.56 119.25C213.375 119.5 212.189 119.8 211.051 120.2C209.819 120.6 208.776 121.5 208.064 122.65C207.448 123.85 206.926 125.1 206.594 126.45C206.405 127.05 206.168 127.7 205.883 128.3C205.599 128.85 205.267 129.4 204.84 129.85C203.987 130.65 202.991 131.2 201.9 131.4C200.905 131.65 199.956 131.85 199.103 132.15C197.444 132.75 196.4 133.95 196.116 134.9C196.021 135.25 195.974 135.65 196.021 136.05C196.021 136.2 196.068 136.35 196.068 136.5Z" fill="#FAFAFA"/>
<path d="M223.095 163.5C223.095 163.6 223.142 163.7 223.142 163.8C223.142 164.1 223.142 164.4 223.047 164.7C222.763 165.8 222.099 166.75 221.245 167.4C220.677 167.9 220.013 168.3 219.349 168.6C218.638 168.9 217.832 169.2 216.978 169.45C216.125 169.7 215.224 170.05 214.418 170.45C213.564 170.9 212.758 171.5 212.142 172.25C211.431 173 210.862 173.85 210.198 174.6C209.582 175.3 208.823 175.9 208.017 176.4C206.642 177.2 205.077 177.6 203.513 177.65C202.469 177.65 201.426 177.5 200.431 177.1C200.146 177 199.909 176.9 199.625 176.75C199.53 176.7 199.435 176.65 199.387 176.6C199.482 176.65 199.577 176.65 199.672 176.7C199.909 176.8 200.194 176.9 200.478 177C201.474 177.35 202.517 177.5 203.56 177.45C205.125 177.4 206.594 176.95 207.969 176.2C208.776 175.75 209.487 175.15 210.103 174.45C210.767 173.7 211.336 172.9 212.047 172.1C212.711 171.3 213.564 170.7 214.465 170.25C215.319 169.85 216.172 169.5 217.073 169.25C217.926 169 218.685 168.75 219.444 168.4C220.108 168.1 220.724 167.75 221.293 167.3C222.146 166.65 222.763 165.75 223.095 164.7C223.047 164.3 223.095 163.9 223.095 163.5Z" fill="#FAFAFA"/>
<path d="M220.771 97.25L216.836 97.35C216.694 98.2 216.362 99 215.935 99.7C212.616 93.65 210.056 85.55 209.439 82.3C209.534 82 209.629 81.6 209.771 81.2C209.866 80.6 209.866 79.95 209.724 79.35C209.629 78.65 209.439 77.65 209.345 77.2C209.155 75.8 208.965 75.6 208.491 75.75C207.875 75.95 208.728 79.6 208.254 79.7C207.97 79.75 207.638 78.5 207.543 77.45C207.448 76.4 207.021 73.25 206.689 73.05C206.215 72.75 205.789 73.25 205.931 74.25C206.073 75.25 206.215 78.35 205.694 78.4C205.172 78.45 204.745 73.2 204.745 73.2C204.745 73.2 204.84 72.05 204.224 72.1C203.133 72.15 203.987 77.65 204.082 78.2C204.129 78.55 203.607 78.65 203.56 78.25C203.513 77.85 203.228 73 202.138 73.05C201.284 73.05 202.801 77.6 202.327 78.65C201.853 79.7 201.521 75.1 200.715 75.15C200.431 75.2 200.194 75.25 200.763 77.85C201.284 79.9 201.901 81.95 202.659 83.95C203.939 91.15 209.487 114.3 218.259 110.05C223.142 107.7 225.134 97.2 225.134 97.2L220.771 97.25Z" fill="#B78876"/>
<path d="M203.939 78.6C203.987 78.6 204.034 78.6 204.034 78.6C204.129 78.55 204.224 78.45 204.224 78.3C204.224 78 204.176 77.55 204.082 76.95C203.987 76.25 203.892 75.55 203.845 74.8C203.845 74.4 203.845 73.95 203.845 73.45C203.845 73.2 203.892 72.95 203.939 72.75C203.987 72.55 204.129 72.25 204.271 72.3H204.319C204.461 72.3 204.603 72.45 204.651 72.65C204.698 72.85 204.745 73.1 204.698 73.3C204.793 74.7 204.982 76.1 205.22 77.5C205.267 77.7 205.314 77.9 205.362 78.05C205.409 78.15 205.409 78.25 205.457 78.35C205.504 78.4 205.504 78.45 205.551 78.5C205.599 78.55 205.646 78.6 205.741 78.65C205.883 78.65 205.978 78.55 206.026 78.4C206.073 78.3 206.073 78.2 206.12 78.1C206.168 77.9 206.168 77.7 206.215 77.5C206.263 76.65 206.263 75.85 206.168 75C206.12 74.6 206.073 74.15 206.12 73.75C206.12 73.55 206.215 73.4 206.357 73.3C206.405 73.25 206.5 73.25 206.547 73.25C206.595 73.25 206.642 73.3 206.642 73.3C206.689 73.3 206.689 73.35 206.689 73.35C206.832 73.75 206.926 74.2 207.021 74.6C207.116 75.05 207.164 75.5 207.258 75.95C207.353 76.4 207.401 76.85 207.448 77.35C207.495 77.85 207.543 78.3 207.685 78.8C207.732 79.05 207.827 79.3 207.922 79.5C207.97 79.65 208.017 79.75 208.112 79.85C208.159 79.95 208.301 80 208.396 79.95C208.491 79.9 208.586 79.85 208.586 79.75C208.633 79.5 208.681 79.25 208.633 78.95C208.633 78.7 208.586 78.45 208.586 78.2C208.539 77.8 208.491 77.35 208.491 76.95C208.491 76.75 208.491 76.55 208.491 76.35C208.491 76.25 208.539 76.15 208.539 76.1C208.539 76.05 208.586 76.05 208.586 76.05H208.633C208.965 75.9 209.06 76.35 209.155 76.75C209.25 77.15 209.25 77.55 209.345 77.95C209.487 78.75 209.629 79.5 209.724 80.25C209.771 80.6 209.771 81 209.676 81.35C209.582 81.7 209.439 82.05 209.345 82.4V82.45V82.5C209.914 84.95 210.625 87.35 211.478 89.75C212.237 91.9 212.996 93.75 213.659 95.25C214.323 96.75 214.939 97.95 215.319 98.7L215.793 99.6C215.84 99.7 215.888 99.8 215.983 99.9C215.935 99.8 215.888 99.7 215.84 99.6L215.366 98.7C214.987 97.9 214.418 96.7 213.754 95.2C213.09 93.7 212.379 91.85 211.668 89.7C210.814 87.35 210.151 84.95 209.582 82.5V82.55C209.676 82.2 209.819 81.85 209.914 81.5C210.008 81.1 210.008 80.7 209.961 80.3C209.866 79.5 209.724 78.75 209.582 77.95C209.487 77.55 209.487 77.15 209.392 76.75C209.392 76.55 209.345 76.35 209.297 76.15C209.25 76.05 209.155 75.95 209.06 75.85C208.918 75.8 208.823 75.8 208.681 75.85H208.586C208.539 75.85 208.491 75.9 208.491 75.9C208.444 75.95 208.396 76 208.396 76.1C208.349 76.2 208.349 76.3 208.301 76.45C208.301 76.65 208.301 76.9 208.301 77.1C208.301 77.5 208.349 77.95 208.396 78.35C208.396 78.6 208.444 78.85 208.444 79.05C208.444 79.3 208.444 79.5 208.396 79.75C208.396 79.8 208.349 79.8 208.396 79.8L208.349 79.75C208.301 79.65 208.254 79.6 208.207 79.5C208.112 79.3 208.064 79.05 208.017 78.85C207.922 78.4 207.827 77.95 207.78 77.45C207.733 77 207.685 76.5 207.59 76.05C207.543 75.6 207.448 75.15 207.353 74.7C207.258 74.25 207.164 73.8 206.974 73.35C206.926 73.3 206.879 73.2 206.832 73.15C206.784 73.1 206.737 73.1 206.642 73.05C206.5 73 206.357 73.05 206.263 73.1C206.073 73.25 205.931 73.5 205.931 73.75C205.883 74 205.883 74.2 205.931 74.45C205.931 74.65 205.978 74.9 205.978 75.1C206.026 75.9 206.073 76.75 206.026 77.55C206.026 77.75 205.978 77.95 205.931 78.15C205.931 78.25 205.883 78.35 205.836 78.4C205.836 78.45 205.789 78.45 205.789 78.5C205.789 78.55 205.741 78.5 205.741 78.55C205.741 78.5 205.741 78.55 205.741 78.5C205.741 78.45 205.694 78.45 205.694 78.4C205.646 78.3 205.646 78.25 205.599 78.15C205.551 77.95 205.504 77.8 205.457 77.6C205.22 76.25 205.03 74.85 204.935 73.45C204.935 73.2 204.935 72.95 204.84 72.7C204.793 72.55 204.745 72.45 204.651 72.35C204.556 72.25 204.414 72.2 204.319 72.2H204.366C204.224 72.15 204.034 72.25 203.939 72.4C203.892 72.5 203.797 72.65 203.797 72.8C203.75 73.05 203.75 73.3 203.75 73.55C203.75 74.05 203.75 74.5 203.75 74.9C203.797 75.6 203.892 76.35 203.987 77.05C204.082 77.65 204.129 78.1 204.176 78.4C204.176 78.5 204.129 78.6 204.034 78.65C203.939 78.6 203.939 78.6 203.939 78.6Z" fill="#A36957"/>
<path d="M173.025 104.1C172.077 104.1 171.176 104.2 170.275 104.45C167.81 105.15 163.59 107.85 163.4 111.15H166.482C166.482 111.15 164.775 115 165.249 114.65C166.577 113.7 169.185 110.95 169.185 110.95L173.025 104.1Z" fill="#B78876"/>
<path d="M214.939 46C214.845 46 214.607 43.35 214.323 40C214.039 36.65 213.896 34 213.944 34C213.991 34 214.276 36.65 214.56 40C214.845 43.35 214.987 46 214.939 46Z" fill="#263238"/>
<path d="M228.405 34.2C228.452 34.25 226.366 37.4 223.758 41.3C221.151 45.2 218.97 48.3 218.922 48.25C218.875 48.2 220.961 45.05 223.569 41.15C226.177 37.25 228.358 34.15 228.405 34.2Z" fill="#263238"/>
<path d="M234 48.6C234 48.65 231.582 49.25 228.595 49.9C225.608 50.55 223.142 51 223.142 50.95C223.142 50.9 225.56 50.3 228.547 49.65C231.534 49 233.953 48.5 234 48.6Z" fill="#263238"/>
<path d="M91.8281 117.15L78.4281 208.05L76.6869 219.95L166.02 219.4C170.032 219.4 173.591 214.65 174.878 207.7L190.738 121.9C191.722 116.6 189.565 111.1 186.536 111.1L96.1055 111.2C94.0993 111.15 92.3202 113.6 91.8281 117.15Z" fill="#407BFF"/>
<g opacity="0.5">
<path d="M91.8281 117.15L78.4281 208.05L76.6869 219.95L166.02 219.4C170.032 219.4 173.591 214.65 174.878 207.7L190.738 121.9C191.722 116.6 189.565 111.1 186.536 111.1L96.1055 111.2C94.0993 111.15 92.3202 113.6 91.8281 117.15Z" fill="black"/>
</g>
<path d="M157.465 201.9L148.002 101.2C147.623 97.1 145.125 94 142.173 94L121.429 94.1C119.877 94.1 118.401 95 117.341 96.5L107.499 110.35L49.8112 110.75C46.2909 110.8 43.5655 115.2 44.0576 120.15L52.8395 213.2C53.218 217.3 55.7163 220.4 58.631 220.4L159.169 220.15C170.373 220.45 171.433 216.1 171.433 216.1C158.601 219.8 157.465 201.9 157.465 201.9Z" fill="#407BFF"/>
<g opacity="0.5">
<path d="M114.086 181.75L110.717 186.55L84.5981 155.55L87.9671 150.7L114.086 181.75Z" fill="white"/>
<path d="M109.278 149.65L113.026 154.1L89.4055 187.65L85.6581 183.2L109.278 149.65Z" fill="white"/>
</g>
<path d="M170.1 51.9C169.867 51.75 169.733 51.45 169.733 51.1L169.6 46.45C169.567 45.95 169.833 45.5 170.2 45.5C170.267 45.5 170.333 45.5 170.367 45.5C170.9 45.65 171.433 45.5 171.867 45.05C172.267 44.65 172.567 44.05 172.633 43.35C172.7 42.65 172.567 41.9 172.267 41.35C171.967 40.7 171.467 40.3 170.967 40.15C169.9 40.05 168.9 41.1 168.6 42.65C168.5 43.15 168.133 43.4 167.8 43.25C167.5 43.1 167.3 42.6 167.4 42.15C167.867 39.7 169.4 38.1 171.1 38.25C171.967 38.4 172.733 39.1 173.267 40.15C173.767 41.1 174 42.35 173.867 43.6C173.7 44.8 173.233 45.9 172.533 46.55C172.033 47.05 171.433 47.35 170.833 47.4L170.933 51C170.933 51.5 170.667 51.95 170.333 51.95C170.267 51.95 170.167 51.9 170.1 51.9Z" fill="#407BFF"/>
<path d="M171.033 53.8C171.067 54.2 170.833 54.6 170.567 54.6C170.3 54.6 170.033 54.3 170.033 53.9C170 53.5 170.233 53.1 170.5 53.1C170.767 53.05 171 53.35 171.033 53.8Z" fill="#407BFF"/>
<path d="M159.4 45.35C159.4 45.25 159.433 45.15 159.433 45.05C159.433 44.85 159.467 44.55 159.5 44.15C159.533 43.65 159.6 43.2 159.667 42.7C159.7 42.4 159.733 42.1 159.8 41.8C159.867 41.5 159.933 41.15 160 40.8C160.4 39.1 160.933 37.5 161.667 36.05C162.6 34.2 163.8 32.6 165.167 31.5C165.933 30.85 166.767 30.35 167.633 29.95C168.567 29.6 169.533 29.4 170.467 29.4C170.967 29.4 171.467 29.45 172 29.5C172.267 29.55 172.5 29.65 172.767 29.7C173.033 29.75 173.267 29.85 173.533 30C174.6 30.45 175.6 31.1 176.5 32C178.533 34 180.067 36.9 180.9 40.3C181.333 42.15 181.567 44.05 181.567 46C181.567 48 181.333 50 180.867 51.85L180.7 52.4L180.667 52.5L180.7 52.6C181.533 55.5 182.367 58.3 183.133 61.05L183.267 60.8L178.267 57.9L178.2 57.85L178.133 57.9C176.8 59.8 175.2 61.2 173.433 62C170.367 63.25 167.1 62.5 164.433 59.9C163.367 58.85 162.4 57.5 161.633 56C160.5 53.75 159.767 51.1 159.5 48.35C159.467 47.85 159.433 47.45 159.4 47.05C159.367 46.65 159.4 46.35 159.4 46.1C159.4 45.85 159.4 45.65 159.4 45.5C159.433 45.5 159.467 45.45 159.467 45.4C159.467 45.35 159.433 45.3 159.4 45.35C159.367 45.35 159.333 45.4 159.367 45.45C159.367 45.5 159.4 45.55 159.433 45.55C159.433 45.7 159.433 45.9 159.433 46.15C159.433 46.4 159.433 46.75 159.433 47.1C159.433 47.45 159.5 47.9 159.533 48.4C159.633 49.6 159.833 50.8 160.1 51.95C160.467 53.45 161 54.9 161.633 56.2C162.433 57.75 163.367 59.1 164.467 60.2C167.167 62.85 170.5 63.65 173.6 62.4C175.4 61.65 177.033 60.2 178.367 58.3L178.267 58.35L183.267 61.25L183.533 61.4L183.433 61C182.633 58.25 181.833 55.4 181 52.55V52.7L181.167 52.1C181.667 50.2 181.9 48.15 181.867 46.1C181.867 44.1 181.667 42.15 181.2 40.25C180.367 36.75 178.767 33.8 176.7 31.8C175.767 30.9 174.733 30.2 173.667 29.75C173.4 29.65 173.167 29.55 172.9 29.5C172.633 29.45 172.4 29.35 172.133 29.3C171.633 29.2 171.1 29.15 170.6 29.15C169.633 29.15 168.633 29.35 167.7 29.75C166.833 30.1 166 30.65 165.2 31.3C163.833 32.45 162.633 34.05 161.667 35.95C160.967 37.4 160.4 39.05 160.033 40.8C159.967 41.15 159.9 41.5 159.833 41.8C159.767 42.1 159.733 42.4 159.7 42.7C159.633 43.2 159.567 43.65 159.567 44.15C159.533 44.55 159.533 44.85 159.533 45.05C159.4 45.1 159.4 45.25 159.4 45.35Z" fill="#263238"/>
</svg>
