<svg width="44" height="44" viewBox="0 0 44 44" xmlns="http://www.w3.org/2000/svg">
    <path d="m30.797 24.572-.008.007c.007.06.01.122.011.183v2.202a1.655 1.655 0 0 1-1.65 1.65 1.655 1.655 0 0 1-1.503-.971v-.003.005l-4.453 12.217a1.259 1.259 0 0 1-2.388 0l-5.065-13.897a1.336 1.336 0 0 0-.958-.845 7.708 7.708 0 0 1-.928-14.749.868.868 0 0 0 .555-.67A7.703 7.703 0 0 1 22 3.3a7.704 7.704 0 0 1 7.577 6.324c.067.358.317.654.659.78a7.708 7.708 0 0 1 .56 14.168zm.705-10.74a5.498 5.498 0 0 0-1.948-1.331c-.322-.13-.855-.229-1.31-.295a.883.883 0 0 1-.751-.922 5.603 5.603 0 0 0-.102-1.379 5.502 5.502 0 0 0-10.886 1.341.942.942 0 0 1-.805.968c-.443.066-.945.162-1.254.287A5.503 5.503 0 0 0 16.5 23.11h.003v.642c.002.91.74 1.649 1.65 1.651a1.655 1.655 0 0 0 1.65-1.65L19.8 23.1a2.2 2.2 0 0 1 4.053-1.185c.152.123.297.255.435.393.624.624 2.005.803 3.212.803a5.504 5.504 0 0 0 4.002-9.278z" fill="#000" fill-rule="evenodd"/>
</svg>
