<?xml version="1.0" encoding="UTF-8"?><svg xmlns="http://www.w3.org/2000/svg" viewBox="0 0 1692 854"><defs><style>.d{fill:none;}.e{fill:#fff;}.f{fill:#fff6b6;}.g{fill:#ffb400;}.h{fill:#ffd200;}.i{fill:#ff7900;}.j{fill:#b5e8f7;}.k{fill:#b8ebd6;}.l{fill:#8f8f8f;}.m{fill:#d6d6d6;}.n{fill:#085ebd;}.o{fill:#0a6e31;}.p{fill:#1b1b1b;}.q{fill:#595959;}.r{fill:#4bb4e6;}.s{fill:#50be87;}.t{opacity:.9;}</style></defs><g id="a"/><g id="b"><g id="c"><rect class="d" width="1692" height="854"/><rect class="p" width="1692" height="854"/><g><path class="l" d="M281.19,666.45c0-311.43,253.37-564.8,564.81-564.8s564.81,253.37,564.81,564.8m-4.93,0c0-308.71-251.16-559.87-559.87-559.87S286.12,357.74,286.12,666.45"/><path class="l" d="M440.55,728.56c-9.92-36.15-14.95-73.64-14.95-111.43,0-231.81,188.59-420.4,420.4-420.4s420.4,188.59,420.4,420.4c0,45.55-7.26,90.38-21.57,133.24l-4.68-1.56c14.15-42.36,21.32-86.66,21.32-131.68,0-229.09-186.38-415.46-415.46-415.46s-415.46,186.37-415.46,415.46c0,37.35,4.97,74.4,14.77,110.13"/><path class="i" d="M1104.92,691.59c.51-17.19-.56-34.65-3.64-52.26-24.88-141.5-159.79-236.19-301.31-211.32-128.9,22.63-218.72,136.5-215.06,263.59h520.02Z"/><polygon class="f" points="1077.19 201.11 1083.51 212.09 1096.14 213.1 1087.66 222.5 1090.6 234.83 1079.04 229.67 1068.22 236.28 1069.55 223.68 1059.92 215.45 1072.32 212.82 1077.19 201.11"/><polygon class="f" points="382.25 646.5 396.19 665.1 419.4 664.15 406.03 683.14 414.12 704.93 391.91 698.09 373.68 712.51 373.33 689.26 353.99 676.4 375.97 668.88 382.25 646.5"/><polygon class="h" points="641.17 171.04 644.18 180.87 653.98 183.96 645.57 189.85 645.66 200.13 637.45 193.95 627.7 197.21 631.04 187.5 624.93 179.24 635.2 179.41 641.17 171.04"/><polygon class="f" points="618.37 354.33 619.42 368.65 631.81 375.89 618.51 381.31 615.45 395.33 606.19 384.37 591.9 385.78 599.47 373.59 593.71 360.45 607.63 363.88 618.37 354.33"/><polygon class="f" points="1024.61 304.3 1034.21 309.44 1043.88 304.44 1041.95 315.16 1049.69 322.82 1038.91 324.3 1034.01 334.03 1029.27 324.23 1018.52 322.59 1026.37 315.05 1024.61 304.3"/><polygon class="h" points="1344.8 539.59 1341.72 554.83 1352.52 565.99 1337.09 567.76 1329.8 581.48 1323.35 567.35 1308.04 564.65 1319.49 554.15 1317.31 538.77 1330.84 546.4 1344.8 539.59"/><polygon class="f" points="1355.58 642.54 1353.82 651.24 1359.98 657.61 1351.18 658.62 1347.02 666.45 1343.34 658.38 1334.61 656.84 1341.14 650.85 1339.9 642.08 1347.62 646.43 1355.58 642.54"/><g class="t"><path class="e" d="M401.13,363.79c0-1.59-1.29-2.89-2.89-2.89s-2.89,1.29-2.89,2.89,1.29,2.89,2.89,2.89,2.89-1.29,2.89-2.89Z"/></g><g class="t"><path class="e" d="M437.89,371.61c0-1.23-.99-2.22-2.22-2.22s-2.23,.99-2.23,2.22,.99,2.22,2.23,2.22,2.22-.99,2.22-2.22Z"/></g><g class="t"><path class="e" d="M414.7,456.31c0-1.6-1.29-2.89-2.89-2.89s-2.89,1.29-2.89,2.89,1.29,2.89,2.89,2.89,2.89-1.29,2.89-2.89Z"/></g><g class="t"><path class="e" d="M487.65,346.65c0-1.08-.87-1.95-1.95-1.95s-1.95,.87-1.95,1.95,.87,1.95,1.95,1.95,1.95-.87,1.95-1.95Z"/></g><g class="t"><path class="e" d="M352.09,440.61c0-1.08-.87-1.95-1.95-1.95s-1.95,.87-1.95,1.95,.87,1.95,1.95,1.95,1.95-.87,1.95-1.95Z"/></g><g class="t"><path class="e" d="M334.25,540.18c0-2.59-2.08-4.68-4.67-4.68s-4.68,2.09-4.68,4.68,2.09,4.68,4.68,4.68,4.67-2.09,4.67-4.68Z"/></g><g class="t"><path class="e" d="M718.78,137.24c0-1.5-1.21-2.71-2.71-2.71s-2.71,1.21-2.71,2.71,1.21,2.71,2.71,2.71,2.71-1.21,2.71-2.71Z"/></g><g class="t"><path class="e" d="M991.14,147.93c0-1.77-1.42-3.2-3.19-3.2s-3.2,1.43-3.2,3.2,1.43,3.2,3.2,3.2,3.19-1.43,3.19-3.2Z"/></g><g class="t"><path class="e" d="M973.25,187.69c0-1.25-1.01-2.26-2.26-2.26s-2.26,1.01-2.26,2.26,1.01,2.26,2.26,2.26,2.26-1.01,2.26-2.26Z"/></g><g class="t"><path class="e" d="M1196.26,274.98c0-2.59-2.08-4.68-4.67-4.68s-4.68,2.09-4.68,4.68,2.09,4.68,4.68,4.68,4.67-2.09,4.67-4.68Z"/></g><g class="t"><path class="e" d="M1043.1,173.43c0-2.59-2.08-4.68-4.67-4.68s-4.68,2.09-4.68,4.68,2.09,4.68,4.68,4.68,4.67-2.09,4.67-4.68Z"/></g><g class="t"><path class="e" d="M1139.16,264.95c0-1.8-1.45-3.25-3.24-3.25s-3.25,1.45-3.25,3.25,1.45,3.25,3.25,3.25,3.24-1.45,3.24-3.25Z"/></g><g class="t"><path class="e" d="M1283.83,642.29c0-.88-.71-1.59-1.58-1.59s-1.59,.71-1.59,1.59,.71,1.59,1.59,1.59,1.58-.71,1.58-1.59Z"/></g><g class="t"><path class="e" d="M1300.12,494.46c0-2.4-1.93-4.33-4.32-4.33s-4.32,1.93-4.32,4.33,1.93,4.33,4.32,4.33,4.32-1.94,4.32-4.33Z"/></g><g class="t"><path class="e" d="M1253.52,386.2c0-1.28-1.04-2.31-2.31-2.31s-2.31,1.03-2.31,2.31,1.04,2.32,2.31,2.32,2.31-1.04,2.31-2.32Z"/></g><g class="t"><path class="e" d="M1293.67,596.54c0-1.28-1.04-2.31-2.31-2.31s-2.31,1.03-2.31,2.31,1.04,2.31,2.31,2.31,2.31-1.03,2.31-2.31Z"/></g><g class="t"><path class="e" d="M1381.18,580.89c0-1.28-1.04-2.31-2.31-2.31s-2.31,1.03-2.31,2.31,1.04,2.31,2.31,2.31,2.31-1.03,2.31-2.31Z"/></g><g class="t"><path class="e" d="M1314.25,703.36c0-1.66-1.34-2.99-2.99-2.99s-2.99,1.33-2.99,2.99,1.34,2.99,2.99,2.99,2.99-1.34,2.99-2.99Z"/></g><g class="t"><path class="e" d="M1183.96,240.86c0-1.6-1.3-2.9-2.89-2.9s-2.89,1.29-2.89,2.9,1.29,2.9,2.89,2.9,2.89-1.29,2.89-2.9Z"/></g><g class="t"><path class="e" d="M1302.76,368.98c0-1.5-1.21-2.72-2.71-2.72s-2.71,1.21-2.71,2.72,1.21,2.72,2.71,2.72,2.71-1.22,2.71-2.72Z"/></g><g class="t"><path class="e" d="M1338.15,430.4c0-1.7-1.37-3.07-3.07-3.07s-3.07,1.38-3.07,3.07,1.37,3.08,3.07,3.08,3.07-1.37,3.07-3.08Z"/></g><g class="t"><path class="e" d="M613.13,239.25c0-1.77-1.42-3.2-3.19-3.2s-3.2,1.43-3.2,3.2,1.43,3.2,3.2,3.2,3.19-1.43,3.19-3.2Z"/></g><g class="t"><path class="e" d="M685.44,145.47c0-1.25-1.01-2.26-2.26-2.26s-2.26,1.01-2.26,2.26,1.01,2.26,2.26,2.26,2.26-1.01,2.26-2.26Z"/></g><g class="t"><path class="e" d="M705.77,196.72c0-1.25-1.01-2.26-2.26-2.26s-2.26,1.01-2.26,2.26,1.01,2.26,2.26,2.26,2.26-1.01,2.26-2.26Z"/></g><g class="t"><path class="e" d="M367.76,623.25c0-1.78-1.42-3.21-3.2-3.21s-3.2,1.43-3.2,3.21,1.43,3.2,3.2,3.2,3.2-1.43,3.2-3.2Z"/></g><g class="t"><path class="e" d="M324.17,676.66c0-1.13-.91-2.04-2.04-2.04s-2.04,.91-2.04,2.04,.91,2.04,2.04,2.04,2.04-.91,2.04-2.04Z"/></g><g class="t"><path class="e" d="M443.63,710.46c0-1.13-.91-2.04-2.04-2.04s-2.04,.91-2.04,2.04,.91,2.04,2.04,2.04,2.04-.91,2.04-2.04Z"/></g><g class="t"><path class="e" d="M354.97,733.75c0-1.68-1.35-3.04-3.03-3.04s-3.04,1.36-3.04,3.04,1.36,3.04,3.04,3.04,3.03-1.36,3.03-3.04Z"/></g><g class="t"><path class="e" d="M409.11,752.69c0-2.83-2.26-5.11-5.08-5.11s-5.11,2.28-5.11,5.11,2.28,5.11,5.11,5.11,5.08-2.28,5.08-5.11Z"/></g><g class="t"><path class="e" d="M439.7,720.75c0-1.11-.89-2.01-2-2.01s-2.01,.9-2.01,2.01,.9,2.01,2.01,2.01,2-.9,2-2.01Z"/></g><g><circle class="n" cx="474.51" cy="205.62" r="112.76" transform="translate(-29.56 90.08) rotate(-10.52)"/><circle class="r" cx="474.51" cy="205.62" r="83.32" transform="translate(-4.49 10.68) rotate(-1.28)"/><polygon class="j" points="539.63 205.62 545.46 197 537.75 190.02 541.34 180.27 532.18 175.35 533.33 165.01 523.25 162.44 521.9 152.12 511.5 152.02 507.73 142.33 497.61 144.72 491.61 136.22 482.37 140.97 474.51 134.15 466.65 140.97 457.4 136.22 451.4 144.72 441.28 142.33 437.51 152.02 427.11 152.13 425.76 162.44 415.69 165.02 416.83 175.36 407.67 180.27 411.26 190.03 403.56 197.01 409.39 205.62 403.56 214.24 411.27 221.22 407.67 230.98 416.83 235.89 415.69 246.23 425.77 248.81 427.12 259.12 437.52 259.22 441.29 268.91 451.41 266.53 457.4 275.03 466.65 270.27 474.51 277.09 482.37 270.27 491.62 275.03 497.61 266.52 507.74 268.91 511.5 259.22 521.9 259.11 523.26 248.8 533.33 246.22 532.18 235.88 541.35 230.97 537.75 221.21 545.46 214.23 539.63 205.62"/><circle class="g" cx="474.51" cy="205.62" r="59.56" transform="translate(-34.55 114.52) rotate(-13.28)"/><path class="g" d="M514.52,196.78c-1.36-5.55-2.41-10.87-6.7-15.06-1.6-1.56-4.02-1.81-6.39-2.09-4.44-4.6-10.05-8.06-16.36-9.92-1.83-1.28-3.82-2.35-6.2-2.97-3.21-.83-5.79-.39-7.9,.8-1.35,.27-2.62,.74-3.83,1.38-10.7,2.14-19.75,8.82-25.04,17.96-5.86,.14-7.58,9.11-7.65,13.95-.12,7.09,3.14,13.8,4.6,20.62,.34,1.58,1.46,2.36,2.81,2.52,4.11,7.29,10.58,13.06,18.38,16.28,.73,.84,1.69,1.6,2.84,2.17,2.98,2.34,8.04,2.58,12.56,1.34,.66-.18,1.38-.49,2.1-.84,7.1-.6,13.63-3.19,19.04-7.21,4.13-.5,7.57-3.37,10.09-7.32,1.27-.28,2.53-.87,3.73-1.9,2.27-1.95,4.89-6.06,4.13-9.43,1.67-2.65,2.8-5.73,3.23-8.45,.75-4.77-2.36-7.42-3.44-11.82Z"/><path class="h" d="M474.94,156.7c-3.82-.83-6.81-.71-10.05,1.72-2.78,2.08-4.13,6.51-7.97,6.51-3.25,0-7.63-3.22-9.24-2.5-11.03,4.91-3.24,9.11-9.87,10.44-8.53,1.71,2.5,19.04,10.73,15.53,4.46-1.9,3.25-7.07,8.81-8.15,3.94-.77,11.5,.62,13.36-3.68,1.82-4.21,.69-9.76,6.38-9.94,4.19-.14,5.72-5.84,1.96-6.66-1.78-.39-.3-2.43-4.11-3.26Z"/><path class="h" d="M461.18,233.84c-.28-5.95-5.95-4.8-6.13-7.05-1.25-14.65-6.79-7.05-11.48-8.23-10.33-2.59-7.91-7.12-10.92-11.55-6.23-9.17-6.73,7.51-5.94,11.21,1.59,7.48,4.8,19.94,11.35,24.14,2.26,1.44,5.53,1.13,11.15,2.43,2.74,.63,3.32,4.12,6.13,4.93,6.57,1.89-.21-6.39,3.77-9.28,1.65-1.2,5.09,.2,2.08-6.6Z"/><path class="h" d="M482.28,195.19c.27-4.14-4.78-5.47-8.74-3.87-1.13,.55-1.43,4.06-3.85,4.8-5.2,1.59-5.12-2.83-8.12-2.51-2.16,.2-3.99,1.07-5.51,2.59-2.51,2.62-4.28,2.1-7.11,4.15-3.87,2.8-.78,8.29,2.54,9.91,5.37,2.63,5.43-1.22,9.02,5.33,3.18,5.8,9.82,9.24,16.44,7.2,10.19-3.13,4.96-7.01,5.51-11.21,.51-3.88,6.67-4.77,5.78-8.94-1.07-5-6.04-6.16-5.95-7.45Z"/><path class="h" d="M485.57,238.81c-2.3,8.88-13.77-6.21-15.44,2.92-1.49,7.83,9.74,14.92,16.24,14.99,4.61,.06,14.37-4.43,12.51-13.85,1.57-6.48-5.95-14.54-7.78-7.46-1.39,5.34-3.88-3-5.53,3.4Z"/><path class="h" d="M523.72,186.04c-3.45-8.02-3.96-15.78-14.43-18.44-4.82-1.22-22.57,5.75-14.3,11.3,4.11,2.76,8.19-.77,12.02,2.09,3.73,2.78,2.85,7.61,5.91,10.58,6.47,6.27,15.87,6.31,10.79-5.52-.39-.92,1.05,2.45,0,0Z"/><path class="h" d="M493.92,153.49c-1.49-.4-3.06-.66-4.63-.84-1.76-.4-3.57-.57-5.41-.33-3.54,.47-2.04,5.93,1.11,5.92,.94,0,1.88,.03,2.83,.09,.4,.05,.81,.12,1.2,.2,1.58,.73,3.03,1.73,4.33,2.88,.32,.29,.69,.43,1.06,.49,.64,.57,1.36,.8,2.55,.79,.74,0,1.52-.58,1.86-1.21,2.05-3.77-1.47-7.08-4.9-7.99Z"/><path class="h" d="M521.64,220.42c-.56-7.07-3.21-8.75-7.66-13.5-2.66-2.85-2.67-9.01-7.13-9.92-4.9-1,.73,10.24,1.43,11.38,3.79,6.09,6.03,11.66,.86,18.39-.97,1.97-.54,3.57,1.31,4.79,2.31,1.55,0,3.71-1.32,5.4-1.79,2.28-3.24,8.12,1.9,7.7,7.48-.61,11-19.34,10.6-24.24-.35-4.39,.28,3.46,0,0Z"/></g><g><path class="i" d="M1283.4,404.62c0,49.45-40.1,89.56-89.55,89.56s-89.57-40.11-89.57-89.56,40.1-89.56,89.57-89.56,89.55,40.11,89.55,89.56Z"/><path class="f" d="M1265.03,404.62c0,39.31-31.87,71.19-71.18,71.19s-71.2-31.88-71.2-71.19,31.87-71.19,71.2-71.19,71.18,31.88,71.18,71.19Z"/><path class="h" d="M1132.49,368.52c.01,.34,.04,.66,.12,.99-.38,.19-.69,.42-1.05,.63-1.93,3.49-3.58,7.15-4.91,10.98,1.13,2.05,3.71,3.5,6.12,3.54-.04,.27-.14,9,.2,10.62,.01,7.4,3.98,13.78,9.47,17.94,4.26,3.24,9,1.09,13.67-2.29,18.07-13.04-8.07-27.11,.9-31.02,2.02-.88,4.88,4.3,4.92,4.34,7.98,7.98,20.75,4.68,26.2-4.23,3.27-5.36,4.14-12.29-.12-17.42-5.72-6.96-12.2-4.94-23.87-3.94,0,0,0,0,0,0-5.64-2.26-3.59-4.34-4.11-5.63-1.41-3.48-6.5-4.3-9.62-3.29-1.85,.62-3.44,1.5-4.84,2.57-5.09,4.72-9.51,10.17-13.07,16.21Z"/><path class="h" d="M1176.34,419.89c-1.82-5.17-5.9-9.32-11.61-9.67-4.23-.24-7.59,2.75-9.74,6.03-2.01,3.04-2.4,7.14-.85,10.45,1.29,2.75,3.8,4.4,6.63,5.22,1.43,.58,2.96,.88,4.51,1.02,3.63,.33,8.28,1.26,10.76-1.38,5.36-5.72,.53-11.34,.3-11.66Z"/><path class="h" d="M1230.4,373.67c-.8-2.1-1.06-4.63-1.8-6.62-2.19-5.87-7.71-8.02-8.84-8.48-7.95-3.25-13.69,.26-14.25,.91-4.7,1.6-7.9,6.94-9.32,12.88-1.85,7.59,3.91,12.8,10.88,14.75,.98,3.44,10.29,9.82,11.82,10.59,5.9,3.06,15.9-.47,18.55-6.14,4.85-10.44-6.01-17.47-7.04-17.88Z"/><path class="h" d="M1244.79,413.15c.77-2.85-1.11-5.84-3.66-7.1-1.11-.52-2.29-.88-3.47-1.09-.64-.37-1.31-.68-2.01-.81-1.81-.33-3.26,.36-4.15,1.56-.79,.35-1.54,.77-2.24,1.32-3.04,2.38-4.37,6.43-3.18,10.11,2.76,8.35,18.47,9.98,19.09-.46,.07-1.28-.1-2.41-.38-3.53Z"/><path class="h" d="M1172.87,455.17c-.59-2.34-2.85-3-4.41-4.58-1.96-1.97-2.66-6.61-6.89-5.63-1.19,.28-4.97,.79-5.95,5.51-.92,4.42,6.26,8.54,7.57,9.18,1.91,.97,3.91,1.23,6.03,1.28,2.97,.08,4.26-3.37,3.64-5.77Z"/><path class="h" d="M1207.2,395c-2.04-4.84-7.23-10.46-13.54-8.84-6.26,1.61-5.63,7.27-5.97,7.54-.04,.04-6.99,.69-8.28,5.62-1.2,4.66,1.27,8.48,6.14,9.38,6.67,.36,9.23-4.19,10.04-4.87,.36-.03,6.4-.65,9.04-1.66,2.04-.8,3.39-5.2,2.57-7.18Z"/><path class="h" d="M1205.61,340.05c-6.09-3.92-15.17-3.06-22.11-2.27-6.72,.76-15.28,2.05-20.86,6-.96,.68-1.13,2.31,.03,2.89,5.81,2.88,13.04,.55,19.33,.43,3.53-.06,7.06,.04,10.58,.27,4.34,.28,8.09,1.99,12.46,1.55,4.64-.47,3.37-7.08,.58-8.87Z"/><path class="h" d="M1142.58,416.58c-1.56-.82-3.17-.77-4.36,.67-.7,.84-1.08,1.96-1.06,3.06,.21,8,10.87,9.5,11.64,8.88,1.11-.94,1.67-2.36,1.57-3.82-.2-3.07-7.1-8.49-7.79-8.79Z"/><path class="h" d="M1253.27,373.54c-1.74-1.78-3.11-3.54-5.2-4.94-2.09-1.36-4.73-.42-6.21,1.35-1.8,2.14-1.95,4.84-1.03,7.36,.71,1.52,1.42,3.02,2.11,4.55,1.97,3.07,6.32,4.86,9.45,2.34,2.76-2.23,3.5-8,.87-10.66Z"/></g><path class="j" d="M709.85,615.16c0,3.6-2.91,6.51-6.51,6.51s-6.51-2.91-6.51-6.51,2.91-6.51,6.51-6.51,6.51,2.91,6.51,6.51Z"/><g><path class="h" d="M506.61,539.75c-14.15,26.55-47.14,36.61-73.69,22.45-26.55-14.16-36.6-47.14-22.44-73.7,14.15-26.55,47.14-36.6,73.7-22.44,26.54,14.16,36.6,47.15,22.43,73.69Z"/><path class="g" d="M492,471.19c1.52,1.19,2.98,2.47,4.37,3.83,19.62-9.6,33.48-14.03,35.62-10.61,3.58,5.75-27.19,31.41-68.74,57.3-41.53,25.9-78.11,42.23-81.7,36.47-2.14-3.42,7.95-13.91,25.17-27.29-.6-1.85-1.1-3.72-1.49-5.61-34.94,25.58-56.67,47.58-52.25,54.65,6,9.65,58.14-12.01,116.43-48.36,58.3-36.34,100.69-73.61,94.69-83.24-4.41-7.08-33.73,2.74-72.1,22.86Z"/></g><g><path class="s" d="M1041.59,691.59c1.95-17.98,1.52-36.5-1.77-55.2-18.91-107.58-121.48-179.57-229.07-160.66-103.2,18.12-173.48,113.16-162.47,215.86h393.31Z"/><path class="o" d="M910.85,516.95c6.96-8.66-8.16-21.68-19.07-21.08-10.94,.55-42.81,1.64-40.19-10.54,.62-2.77-.06-7.32-1.89-12.48-46.45-1.17-93.43,13.91-131.83,46.06-10.41,8.76-19.75,18.36-27.92,28.68,8.71-5.92,19.91-14.02,27.63-21.31,14.43-13.47,11.3-13.77,19.89-5.28,8.58,8.59,16.42,16.23,10.11,25.75-6.26,9.53-22.75,20.47-8.28,32.66,14.45,12.12,23.8,55.62,37.51,49.85,13.71-5.78,3.8-7.45,3.59-14.47-.16-6.96,14.73,.56,21.93,15.91,7.11,15.43,30.1,10.41,39.04,5.81,8.91-4.64,31.88-1.06,31.88-1.06,0,0,20.22,25.84,27.33,15.62,7.13-10.27-18.5-10.18-13.18-17.48,5.3-7.26-3.29-24.31-7.46-20.82-4.25,3.52-59.87,10.21-53.19-3.93,6.66-14.16-23.05-20.63-1.08-23.34,21.98-2.76,31.89-1.09,38.02-9.05,6.15-8.05,12.25,19.69,17.86,17.84,5.6-1.85-11.43-20.42-1.76-24.21,9.62-3.82,10.57-31.68,2.69-30.81-7.76,.87,21.42-13.65,28.37-22.32Z"/><path class="k" d="M734.2,601.72c-7.67,1.05-15.3,.66-21.49-4.55-5.25-4.43-7.16-12.49-5.99-19.47-5.42-4.37-15.43-1.27-19.4,3.48-9.74,11.6-16.77,29.98-19.12,44.87-2.13,13.72,17.94,20.53,34.6,22.07,3.29-2.12,6.66-3.89,9.94-5.12,10.64-4,18.83-4.07,27.49-1.37,3.84-2.67,6.93-6.95,8.81-13.13,2.86-9.44-.6-21.34-7.96-27.74-2.29,.26-4.59,.65-6.88,.96Z"/><path class="k" d="M998.64,582.23c-.07-.94-.25-1.88-.48-2.81-.07-.28-.14-.54-.23-.83-.34-1.07-.84-2.08-1.41-3.04-.06-.11-.14-.19-.19-.29-.68-1.08-1.53-2.12-2.51-2.92-.87-.71-1.78-1.32-2.67-1.97-5.13-15.61-18.38-26.39-28.69-39.24-9.82-12.16-34.37-9.95-38.84,6.29-2.68,9.81-6.11,19.04-10.84,28-7.14,13.54,4.71,23.21,16.97,24.77,1.71,.43,3.49,.69,5.18,.64,3.16-.03,6.48,.13,9.84,.43,5.43,1.03,10.73,3.04,14.67,6.32,8.79,7.48,21.73,7.89,31.12,.97,2.89-2.13,5.15-5.11,6.56-8.37,.04,.14,.07,.27,.1,.43,1.18-2.41,1.66-5.31,1.42-8.18,0-.07-.02-.12-.02-.23Z"/></g><g><path class="e" d="M845.8,688.84v9.04c-31.44,0-57.7,21.14-63.91,49.13H230.85l76.27-127.21h393.33c21.85,0,59.76,2.08,93.05,19.56,20.32,10.63,41.3,26.15,51.44,47.62,.32,.59,.6,1.19,.87,1.85Z"/><g><polygon class="m" points="239.17 733.14 784.71 733.14 784.71 724.97 244.07 724.97 239.17 733.14"/><polygon class="m" points="801.06 703.17 257.15 703.17 252.24 711.34 801.06 711.34 801.06 703.17"/><path class="m" d="M286.54,654.15h393.82c2.25,0,4.09-1.83,4.09-4.09s-1.83-4.09-4.09-4.09H291.43l-4.89,8.18Z"/><path class="m" d="M453.3,679.11c0,1.5,1.21,2.73,2.72,2.73h277.91c1.5,0,2.72-1.23,2.72-2.73s-1.22-2.73-2.72-2.73H456.02c-1.51,0-2.72,1.21-2.72,2.73Z"/></g><path class="q" d="M909.86,745.72c-5.82,2.56-14.32,6.32-14.7,6.32h-98.33c-.38,0-8.82-3.71-14.65-6.32,.32-1.09,1.19-4.14,1.52-4.95,8.44-24.84,33.07-42.88,62.11-42.88h.38c29.04,0,53.71,18.04,62.16,42.88,.28,.81,1.15,3.87,1.52,4.95Z"/><path class="e" d="M1384.88,619.81h-393.34c-21.85,0-59.76,2.08-93.05,19.56-20.32,10.63-41.3,26.15-51.43,47.62-.33,.59-.6,1.19-.87,1.85v9.04c31.43,0,57.69,21.14,63.9,49.13h551.05l-76.27-127.21Z"/><g><path class="m" d="M995.29,654.15h386.86c2.25,0,4.09-1.83,4.09-4.09s-1.83-4.09-4.09-4.09h-386.86c-2.26,0-4.09,1.83-4.09,4.09s1.83,4.09,4.09,4.09Z"/><polygon class="m" points="1434.86 703.17 890.94 703.17 890.94 711.34 1439.76 711.34 1434.86 703.17"/><path class="m" d="M958.07,681.84h427.72c1.51,0,2.73-1.23,2.73-2.73s-1.22-2.73-2.73-2.73h-427.72c-1.52,0-2.73,1.21-2.73,2.73s1.21,2.73,2.73,2.73Z"/><polygon class="m" points="1447.92 724.97 907.29 724.97 907.29 733.14 1452.83 733.14 1447.92 724.97"/></g><path class="i" d="M847.07,686.99h-.87c-.07,0-.14,0-.2,0s-.13,0-.2,0h-.87c-35.74,.38-65.59,24.41-73.34,56.33l10.5,2.64c.25-.85,1.29-4.34,1.58-5.18,8.44-24.84,33.08-42.89,62.12-42.89,.06,0,.13,.02,.2,.02s.14-.02,.2-.02c29.03,0,53.68,18.05,62.12,42.89,.28,.84,1.33,4.33,1.57,5.18l10.51-2.64c-7.74-31.92-37.59-55.95-73.33-56.33Z"/><path class="i" d="M1469.61,745.76c-1.64-1.63-3.77-2.45-5.91-2.45H920.4v.03h-5.16s-19.54,8.68-20.08,8.68h-98.31c-.55,0-20.08-8.68-20.08-8.68h-5.17v-.03H228.29c-2.13,0-4.27,.82-5.89,2.45-1.63,1.63-2.44,3.77-2.44,5.9v1.95c0,1.92,.73,3.85,2.19,5.31,1.47,1.47,3.4,2.21,5.32,2.21H762.96c2.21,0,4.43-.85,6.11-2.54,1.57-1.57,2.38-3.59,2.49-5.66,.11,.05,16.95,8.19,20.71,8.19h107.47c3.75,0,20.55-8.11,20.71-8.19,.11,2.06,.92,4.08,2.48,5.66,1.7,1.68,3.9,2.54,6.11,2.54h535.5c1.92,0,3.84-.74,5.31-2.21,1.46-1.46,2.2-3.39,2.2-5.31v-1.95c0-2.14-.81-4.27-2.44-5.9Z"/></g></g></g></g></svg>