<?xml version="1.0" encoding="UTF-8"?>
<!--Generator: Apple Native CoreSVG 175-->
<!DOCTYPE svg
PUBLIC "-//W3C//DTD SVG 1.1//EN"
       "http://www.w3.org/Graphics/SVG/1.1/DTD/svg11.dtd">
<svg version="1.1" xmlns="http://www.w3.org/2000/svg" xmlns:xlink="http://www.w3.org/1999/xlink" width="3300" height="2200">
 <!--glyph: "", point size: 100.0, font version: "17.0d11e1", template writer version: "65.1"-->
 <g id="Notes">
  <rect height="2200" id="artboard" style="fill:white;opacity:1" width="3300" x="0" y="0"/>
  <line style="fill:none;stroke:black;opacity:1;stroke-width:0.5;" x1="263" x2="3036" y1="292" y2="292"/>
  <text style="stroke:none;fill:black;font-family:sans-serif;font-size:13;font-weight:bold;" transform="matrix(1 0 0 1 263 322)">Weight/Scale Variations</text>
  <text style="stroke:none;fill:black;font-family:sans-serif;font-size:13;text-anchor:middle;" transform="matrix(1 0 0 1 559.711 322)">Ultralight</text>
  <text style="stroke:none;fill:black;font-family:sans-serif;font-size:13;text-anchor:middle;" transform="matrix(1 0 0 1 856.422 322)">Thin</text>
  <text style="stroke:none;fill:black;font-family:sans-serif;font-size:13;text-anchor:middle;" transform="matrix(1 0 0 1 1153.13 322)">Light</text>
  <text style="stroke:none;fill:black;font-family:sans-serif;font-size:13;text-anchor:middle;" transform="matrix(1 0 0 1 1449.84 322)">Regular</text>
  <text style="stroke:none;fill:black;font-family:sans-serif;font-size:13;text-anchor:middle;" transform="matrix(1 0 0 1 1746.56 322)">Medium</text>
  <text style="stroke:none;fill:black;font-family:sans-serif;font-size:13;text-anchor:middle;" transform="matrix(1 0 0 1 2043.27 322)">Semibold</text>
  <text style="stroke:none;fill:black;font-family:sans-serif;font-size:13;text-anchor:middle;" transform="matrix(1 0 0 1 2339.98 322)">Bold</text>
  <text style="stroke:none;fill:black;font-family:sans-serif;font-size:13;text-anchor:middle;" transform="matrix(1 0 0 1 2636.69 322)">Heavy</text>
  <text style="stroke:none;fill:black;font-family:sans-serif;font-size:13;text-anchor:middle;" transform="matrix(1 0 0 1 2933.4 322)">Black</text>
  <line style="fill:none;stroke:black;opacity:1;stroke-width:0.5;" x1="263" x2="3036" y1="1903" y2="1903"/>
  <g transform="matrix(1 0 0 1 263 1933)">
   <path d="M9.24805 0.830078Q10.8691 0.830078 12.2949 0.214844Q13.7207-0.400391 14.8096-1.49414Q15.8984-2.58789 16.5186-4.01367Q17.1387-5.43945 17.1387-7.05078Q17.1387-8.66211 16.5186-10.0879Q15.8984-11.5137 14.8047-12.6074Q13.7109-13.7012 12.2852-14.3164Q10.8594-14.9316 9.23828-14.9316Q7.62695-14.9316 6.20117-14.3164Q4.77539-13.7012 3.69141-12.6074Q2.60742-11.5137 1.9873-10.0879Q1.36719-8.66211 1.36719-7.05078Q1.36719-5.43945 1.9873-4.01367Q2.60742-2.58789 3.69629-1.49414Q4.78516-0.400391 6.21094 0.214844Q7.63672 0.830078 9.24805 0.830078ZM9.24805-0.654297Q7.91992-0.654297 6.7627-1.14746Q5.60547-1.64062 4.73145-2.51953Q3.85742-3.39844 3.36426-4.56055Q2.87109-5.72266 2.87109-7.05078Q2.87109-8.37891 3.35938-9.54102Q3.84766-10.7031 4.72168-11.582Q5.5957-12.4609 6.75293-12.9541Q7.91016-13.4473 9.23828-13.4473Q10.5762-13.4473 11.7334-12.9541Q12.8906-12.4609 13.7695-11.582Q14.6484-10.7031 15.1465-9.54102Q15.6445-8.37891 15.6445-7.05078Q15.6445-5.72266 15.1514-4.56055Q14.6582-3.39844 13.7842-2.51953Q12.9102-1.64062 11.748-1.14746Q10.5859-0.654297 9.24805-0.654297ZM5.6543-7.05078Q5.6543-6.72852 5.85938-6.52832Q6.06445-6.32812 6.40625-6.32812L8.51562-6.32812L8.51562-4.20898Q8.51562-3.88672 8.71094-3.67676Q8.90625-3.4668 9.23828-3.4668Q9.56055-3.4668 9.77051-3.67676Q9.98047-3.88672 9.98047-4.20898L9.98047-6.32812L12.0898-6.32812Q12.4219-6.32812 12.627-6.52832Q12.832-6.72852 12.832-7.05078Q12.832-7.38281 12.627-7.58789Q12.4219-7.79297 12.0898-7.79297L9.98047-7.79297L9.98047-9.90234Q9.98047-10.2344 9.77051-10.4443Q9.56055-10.6543 9.23828-10.6543Q8.90625-10.6543 8.71094-10.4443Q8.51562-10.2344 8.51562-9.90234L8.51562-7.79297L6.40625-7.79297Q6.06445-7.79297 5.85938-7.58789Q5.6543-7.38281 5.6543-7.05078Z"/>
  </g>
  <g transform="matrix(1 0 0 1 281.867 1933)">
   <path d="M11.709 2.91016Q13.75 2.91016 15.5518 2.12891Q17.3535 1.34766 18.7305-0.0292969Q20.1074-1.40625 20.8887-3.20801Q21.6699-5.00977 21.6699-7.05078Q21.6699-9.0918 20.8887-10.8936Q20.1074-12.6953 18.7305-14.0723Q17.3535-15.4492 15.5469-16.2305Q13.7402-17.0117 11.6992-17.0117Q9.6582-17.0117 7.85645-16.2305Q6.05469-15.4492 4.68262-14.0723Q3.31055-12.6953 2.5293-10.8936Q1.74805-9.0918 1.74805-7.05078Q1.74805-5.00977 2.5293-3.20801Q3.31055-1.40625 4.6875-0.0292969Q6.06445 1.34766 7.86621 2.12891Q9.66797 2.91016 11.709 2.91016ZM11.709 1.25Q9.98047 1.25 8.47656 0.605469Q6.97266-0.0390625 5.83496-1.17676Q4.69727-2.31445 4.05762-3.81836Q3.41797-5.32227 3.41797-7.05078Q3.41797-8.7793 4.05762-10.2832Q4.69727-11.7871 5.83008-12.9297Q6.96289-14.0723 8.4668-14.7119Q9.9707-15.3516 11.6992-15.3516Q13.4277-15.3516 14.9316-14.7119Q16.4355-14.0723 17.5781-12.9297Q18.7207-11.7871 19.3652-10.2832Q20.0098-8.7793 20.0098-7.05078Q20.0098-5.32227 19.3701-3.81836Q18.7305-2.31445 17.5928-1.17676Q16.4551-0.0390625 14.9463 0.605469Q13.4375 1.25 11.709 1.25ZM7.17773-7.05078Q7.17773-6.69922 7.41211-6.47461Q7.64648-6.25 8.01758-6.25L10.8887-6.25L10.8887-3.36914Q10.8887-2.99805 11.1133-2.76855Q11.3379-2.53906 11.6895-2.53906Q12.0605-2.53906 12.29-2.76855Q12.5195-2.99805 12.5195-3.36914L12.5195-6.25L15.4004-6.25Q15.7715-6.25 16.001-6.47461Q16.2305-6.69922 16.2305-7.05078Q16.2305-7.42188 16.001-7.65137Q15.7715-7.88086 15.4004-7.88086L12.5195-7.88086L12.5195-10.752Q12.5195-11.1328 12.29-11.3623Q12.0605-11.5918 11.6895-11.5918Q11.3379-11.5918 11.1133-11.3574Q10.8887-11.123 10.8887-10.752L10.8887-7.88086L8.01758-7.88086Q7.63672-7.88086 7.40723-7.65137Q7.17773-7.42188 7.17773-7.05078Z"/>
  </g>
  <g transform="matrix(1 0 0 1 305.646 1933)">
   <path d="M14.9707 5.66406Q17.0605 5.66406 18.96 5.01465Q20.8594 4.36523 22.4512 3.19336Q24.043 2.02148 25.2197 0.429688Q26.3965-1.16211 27.0459-3.06641Q27.6953-4.9707 27.6953-7.05078Q27.6953-9.14062 27.0459-11.04Q26.3965-12.9395 25.2197-14.5312Q24.043-16.123 22.4512-17.2998Q20.8594-18.4766 18.9551-19.126Q17.0508-19.7754 14.9609-19.7754Q12.8711-19.7754 10.9717-19.126Q9.07227-18.4766 7.48535-17.2998Q5.89844-16.123 4.72168-14.5312Q3.54492-12.9395 2.90039-11.04Q2.25586-9.14062 2.25586-7.05078Q2.25586-4.9707 2.90527-3.06641Q3.55469-1.16211 4.72656 0.429688Q5.89844 2.02148 7.49023 3.19336Q9.08203 4.36523 10.9814 5.01465Q12.8809 5.66406 14.9707 5.66406ZM14.9707 3.84766Q13.1641 3.84766 11.5283 3.2959Q9.89258 2.74414 8.53516 1.74805Q7.17773 0.751953 6.17676-0.610352Q5.17578-1.97266 4.62891-3.6084Q4.08203-5.24414 4.08203-7.05078Q4.08203-8.86719 4.62891-10.5029Q5.17578-12.1387 6.17188-13.501Q7.16797-14.8633 8.52539-15.8594Q9.88281-16.8555 11.5186-17.4023Q13.1543-17.9492 14.9609-17.9492Q16.7773-17.9492 18.4131-17.4023Q20.0488-16.8555 21.4111-15.8594Q22.7734-14.8633 23.7695-13.501Q24.7656-12.1387 25.3174-10.5029Q25.8691-8.86719 25.8691-7.05078Q25.8789-5.24414 25.332-3.6084Q24.7852-1.97266 23.7842-0.610352Q22.7832 0.751953 21.4209 1.74805Q20.0586 2.74414 18.4229 3.2959Q16.7871 3.84766 14.9707 3.84766ZM9.19922-7.05078Q9.19922-6.66992 9.45801-6.4209Q9.7168-6.17188 10.1172-6.17188L14.0625-6.17188L14.0625-2.2168Q14.0625-1.81641 14.3115-1.55762Q14.5605-1.29883 14.9512-1.29883Q15.3516-1.29883 15.6104-1.55273Q15.8691-1.80664 15.8691-2.2168L15.8691-6.17188L19.8242-6.17188Q20.2246-6.17188 20.4785-6.4209Q20.7324-6.66992 20.7324-7.05078Q20.7324-7.46094 20.4785-7.71484Q20.2246-7.96875 19.8242-7.96875L15.8691-7.96875L15.8691-11.9141Q15.8691-12.3242 15.6104-12.583Q15.3516-12.8418 14.9512-12.8418Q14.5605-12.8418 14.3115-12.583Q14.0625-12.3242 14.0625-11.9141L14.0625-7.96875L10.1172-7.96875Q9.70703-7.96875 9.45312-7.71484Q9.19922-7.46094 9.19922-7.05078Z"/>
  </g>
  <text style="stroke:none;fill:black;font-family:sans-serif;font-size:13;font-weight:bold;" transform="matrix(1 0 0 1 263 1953)">Design Variations</text>
  <text style="stroke:none;fill:black;font-family:sans-serif;font-size:13;" transform="matrix(1 0 0 1 263 1971)">Symbols are supported in up to nine weights and three scales.</text>
  <text style="stroke:none;fill:black;font-family:sans-serif;font-size:13;" transform="matrix(1 0 0 1 263 1989)">For optimal layout with text and other symbols, vertically align</text>
  <text style="stroke:none;fill:black;font-family:sans-serif;font-size:13;" transform="matrix(1 0 0 1 263 2007)">symbols with the adjacent text.</text>
  <line style="fill:none;stroke:#00AEEF;stroke-width:0.5;opacity:1.0;" x1="776" x2="776" y1="1919" y2="1933"/>
  <g transform="matrix(1 0 0 1 776 1933)">
   <path d="M3.31055 0.15625Q3.70117 0.15625 3.91602-0.00976562Q4.13086-0.175781 4.26758-0.585938L5.52734-4.0332L11.2891-4.0332L12.5488-0.585938Q12.6855-0.175781 12.9004-0.00976562Q13.1152 0.15625 13.4961 0.15625Q13.8867 0.15625 14.1162-0.0585938Q14.3457-0.273438 14.3457-0.644531Q14.3457-0.869141 14.2383-1.17188L9.6582-13.3691Q9.48242-13.8184 9.17969-14.043Q8.87695-14.2676 8.4082-14.2676Q7.5-14.2676 7.17773-13.3789L2.59766-1.16211Q2.49023-0.859375 2.49023-0.634766Q2.49023-0.263672 2.70996-0.0537109Q2.92969 0.15625 3.31055 0.15625ZM6.00586-5.51758L8.37891-12.0898L8.42773-12.0898L10.8008-5.51758Z"/>
  </g>
  <line style="fill:none;stroke:#00AEEF;stroke-width:0.5;opacity:1.0;" x1="793.197" x2="793.197" y1="1919" y2="1933"/>
  <text style="stroke:none;fill:black;font-family:sans-serif;font-size:13;font-weight:bold;" transform="matrix(1 0 0 1 776 1953)">Margins</text>
  <text style="stroke:none;fill:black;font-family:sans-serif;font-size:13;" transform="matrix(1 0 0 1 776 1971)">Leading and trailing margins on the left and right side of each symbol</text>
  <text style="stroke:none;fill:black;font-family:sans-serif;font-size:13;" transform="matrix(1 0 0 1 776 1989)">can be adjusted by modifying the x-location of the margin guidelines.</text>
  <text style="stroke:none;fill:black;font-family:sans-serif;font-size:13;" transform="matrix(1 0 0 1 776 2007)">Modifications are automatically applied proportionally to all</text>
  <text style="stroke:none;fill:black;font-family:sans-serif;font-size:13;" transform="matrix(1 0 0 1 776 2025)">scales and weights.</text>
  <g transform="matrix(1 0 0 1 1289 1933)">
   <path d="M2.8418 1.86523L4.54102 3.57422Q5.18555 4.22852 5.90332 4.17969Q6.62109 4.13086 7.31445 3.35938L18.0078-8.42773L17.041-9.4043L6.42578 2.27539Q6.16211 2.57812 5.89355 2.61719Q5.625 2.65625 5.27344 2.30469L4.10156 1.14258Q3.75 0.791016 3.79395 0.522461Q3.83789 0.253906 4.14062-0.0195312L15.6152-10.8203L14.6387-11.7871L3.04688-0.898438Q2.30469-0.214844 2.25098 0.498047Q2.19727 1.21094 2.8418 1.86523ZM9.25781-16.3281Q8.94531-16.0254 8.90625-15.6348Q8.86719-15.2441 9.04297-14.9512Q9.21875-14.6777 9.55566-14.541Q9.89258-14.4043 10.3809-14.5215Q11.4746-14.7754 12.5977-14.7314Q13.7207-14.6875 14.7949-13.9844L14.209-12.5293Q13.9551-11.9043 14.0674-11.4404Q14.1797-10.9766 14.5801-10.5664L16.875-8.25195Q17.2363-7.88086 17.5781-7.82227Q17.9199-7.76367 18.3398-7.8418L19.4043-8.03711L20.0684-7.36328L20.0293-6.80664Q20-6.43555 20.1221-6.12305Q20.2441-5.81055 20.6055-5.44922L21.3672-4.70703Q21.7285-4.3457 22.1533-4.33105Q22.5781-4.31641 22.9297-4.66797L25.8398-7.58789Q26.1914-7.93945 26.1816-8.35449Q26.1719-8.76953 25.8105-9.13086L25.0391-9.89258Q24.6875-10.2539 24.3799-10.3857Q24.0723-10.5176 23.7109-10.4883L23.1348-10.4395L22.4902-11.0742L22.7344-12.1973Q22.832-12.6172 22.6953-12.9834Q22.5586-13.3496 22.1191-13.7891L19.9219-15.9766Q18.6719-17.2168 17.2607-17.8369Q15.8496-18.457 14.4189-18.4814Q12.9883-18.5059 11.665-17.959Q10.3418-17.4121 9.25781-16.3281ZM10.752-15.957Q11.6602-16.6211 12.7002-16.9043Q13.7402-17.1875 14.8047-17.085Q15.8691-16.9824 16.8701-16.5137Q17.8711-16.0449 18.7012-15.2051L21.1328-12.793Q21.3086-12.6172 21.3525-12.4512Q21.3965-12.2852 21.3379-12.0312L21.0156-10.5469L22.5195-9.0625L23.5059-9.12109Q23.6914-9.13086 23.7891-9.09668Q23.8867-9.0625 24.0332-8.91602L24.6094-8.33984L22.168-5.89844L21.5918-6.47461Q21.4453-6.62109 21.4062-6.71875Q21.3672-6.81641 21.377-7.01172L21.4453-7.98828L19.9512-9.47266L18.4277-9.21875Q18.1836-9.16992 18.042-9.2041Q17.9004-9.23828 17.7148-9.41406L15.7129-11.416Q15.5176-11.5918 15.4932-11.7529Q15.4688-11.9141 15.5859-12.1875L16.4648-14.2773Q15.293-15.3711 13.8281-15.791Q12.3633-16.2109 10.8398-15.7617Q10.7227-15.7324 10.6885-15.8057Q10.6543-15.8789 10.752-15.957Z"/>
  </g>
  <text style="stroke:none;fill:black;font-family:sans-serif;font-size:13;font-weight:bold;" transform="matrix(1 0 0 1 1289 1953)">Exporting</text>
  <text style="stroke:none;fill:black;font-family:sans-serif;font-size:13;" transform="matrix(1 0 0 1 1289 1971)">Symbols should be outlined when exporting to ensure the</text>
  <text style="stroke:none;fill:black;font-family:sans-serif;font-size:13;" transform="matrix(1 0 0 1 1289 1989)">design is preserved when submitting to Xcode.</text>
  <text id="template-version" style="stroke:none;fill:black;font-family:sans-serif;font-size:13;text-anchor:end;" transform="matrix(1 0 0 1 3036 1933)">Template v.3.0</text>
  <text style="stroke:none;fill:black;font-family:sans-serif;font-size:13;text-anchor:end;" transform="matrix(1 0 0 1 3036 1951)">Requires Xcode 13 or greater</text>
  <text id="descriptive-name" style="stroke:none;fill:black;font-family:sans-serif;font-size:13;text-anchor:end;" transform="matrix(1 0 0 1 3036 1969)">Generated from orange.square.stack.3d.up.fill</text>
  <text style="stroke:none;fill:black;font-family:sans-serif;font-size:13;text-anchor:end;" transform="matrix(1 0 0 1 3036 1987)">Typeset at 100 points</text>
  <text style="stroke:none;fill:black;font-family:sans-serif;font-size:13;" transform="matrix(1 0 0 1 263 726)">Small</text>
  <text style="stroke:none;fill:black;font-family:sans-serif;font-size:13;" transform="matrix(1 0 0 1 263 1156)">Medium</text>
  <text style="stroke:none;fill:black;font-family:sans-serif;font-size:13;" transform="matrix(1 0 0 1 263 1586)">Large</text>
 </g>
 <g id="Guides">
  <g id="H-reference" style="fill:#27AAE1;stroke:none;" transform="matrix(1 0 0 1 339 696)">
   <path d="M0.976562 0L3.66211 0L29.3457-67.1387L30.0293-67.1387L30.0293-70.459L28.125-70.459ZM11.6699-24.4629L46.9727-24.4629L46.2402-26.709L12.4512-26.709ZM55.127 0L57.7637 0L30.6152-70.459L29.4434-70.459L29.4434-67.1387Z"/>
  </g>
  <line id="Baseline-S" style="fill:none;stroke:#27AAE1;opacity:1;stroke-width:0.5;" x1="263" x2="3036" y1="696" y2="696"/>
  <line id="Capline-S" style="fill:none;stroke:#27AAE1;opacity:1;stroke-width:0.5;" x1="263" x2="3036" y1="625.541" y2="625.541"/>
  <g id="H-reference" style="fill:#27AAE1;stroke:none;" transform="matrix(1 0 0 1 339 1126)">
   <path d="M0.976562 0L3.66211 0L29.3457-67.1387L30.0293-67.1387L30.0293-70.459L28.125-70.459ZM11.6699-24.4629L46.9727-24.4629L46.2402-26.709L12.4512-26.709ZM55.127 0L57.7637 0L30.6152-70.459L29.4434-70.459L29.4434-67.1387Z"/>
  </g>
  <line id="Baseline-M" style="fill:none;stroke:#27AAE1;opacity:1;stroke-width:0.5;" x1="263" x2="3036" y1="1126" y2="1126"/>
  <line id="Capline-M" style="fill:none;stroke:#27AAE1;opacity:1;stroke-width:0.5;" x1="263" x2="3036" y1="1055.54" y2="1055.54"/>
  <g id="H-reference" style="fill:#27AAE1;stroke:none;" transform="matrix(1 0 0 1 339 1556)">
   <path d="M0.976562 0L3.66211 0L29.3457-67.1387L30.0293-67.1387L30.0293-70.459L28.125-70.459ZM11.6699-24.4629L46.9727-24.4629L46.2402-26.709L12.4512-26.709ZM55.127 0L57.7637 0L30.6152-70.459L29.4434-70.459L29.4434-67.1387Z"/>
  </g>
  <line id="Baseline-L" style="fill:none;stroke:#27AAE1;opacity:1;stroke-width:0.5;" x1="263" x2="3036" y1="1556" y2="1556"/>
  <line id="Capline-L" style="fill:none;stroke:#27AAE1;opacity:1;stroke-width:0.5;" x1="263" x2="3036" y1="1485.54" y2="1485.54"/>
  <line id="left-margin-Regular-M" style="fill:none;stroke:#00AEEF;stroke-width:0.5;opacity:1.0;" x1="1387.78" x2="1387.78" y1="1030.78" y2="1150.12"/>
  <line id="right-margin-Regular-M" style="fill:none;stroke:#00AEEF;stroke-width:0.5;opacity:1.0;" x1="1511.9" x2="1511.9" y1="1030.78" y2="1150.12"/>
 </g>
 <g id="Symbols">
  <g id="Black-L" transform="matrix(1 0 0 1 2850.69 1556)">
   <path d="M82.7163-21.4963Q85.1409-21.4963 87.574-22.4674Q90.007-23.4385 93.2011-25.2821L141.033-52.9173Q145.723-55.6195 148.239-58.7079Q150.755-61.7965 150.755-66.1675Q150.755-70.5399 148.239-73.6174Q145.723-76.6949 141.033-79.3996L93.2011-107.034Q90.007-108.899 87.574-109.859Q85.1409-110.819 82.7163-110.819Q80.3513-110.819 77.8884-109.859Q75.4255-108.899 72.2522-107.034L24.3995-79.3996Q19.7099-76.6949 17.1936-73.6174Q14.6773-70.5399 14.6773-66.1675Q14.6773-61.7965 17.1936-58.7079Q19.7099-55.6195 24.3995-52.9173L72.2522-25.2821Q75.4255-23.4385 77.8884-22.4674Q80.3513-21.4963 82.7163-21.4963ZM82.7163 10.318Q85.0982 10.318 87.4276 9.31517Q89.757 8.31234 92.8475 6.51024L142.121-22.234Q146.199-24.5993 148.479-27.5481Q150.758-30.4967 150.758-34.5426Q150.758-37.9771 149.117-40.6103Q147.475-43.2435 144.742-45.2068L90.2427-13.3294Q87.9458-11.994 86.1959-11.2568Q84.4461-10.5198 82.7163-10.5198Q80.9852-10.5198 79.2464-11.2568Q77.5075-11.994 75.2106-13.3294L20.691-45.2068Q17.9569-43.2435 16.3158-40.6103Q14.6747-37.9771 14.6747-34.5426Q14.6747-30.4967 16.9644-27.5377Q19.254-24.5786 23.331-22.234L72.6046 6.51024Q75.695 8.31234 78.0542 9.31517Q80.4135 10.318 82.7163 10.318ZM82.7163 40.9694Q85.0982 40.9694 87.4276 39.9671Q89.757 38.9649 92.8475 37.1616L142.121 8.39664Q146.179 6.05322 148.468 3.10459Q150.758 0.156028 150.758-3.89126Q150.758-7.34514 149.117-9.97908Q147.475-12.6129 144.742-14.5555L90.2427 17.3026Q87.9458 18.6379 86.1959 19.3847Q84.4461 20.1315 82.7163 20.1315Q80.9852 20.1315 79.2464 19.3847Q77.5075 18.6379 75.2106 17.3026L20.691-14.5555Q17.9569-12.6129 16.3158-9.97908Q14.6747-7.34514 14.6747-3.89126Q14.6747 0.156028 16.9644 3.10459Q19.254 6.05322 23.331 8.39664L72.6046 37.1616Q75.695 38.9649 78.0542 39.9671Q80.4135 40.9694 82.7163 40.9694Z"/>
  </g>
  <g id="Heavy-L" transform="matrix(1 0 0 1 2554.69 1556)">
   <path d="M82.004-22.2544Q84.2843-22.2544 86.5703-23.14Q88.8562-24.0256 91.8179-25.7251L140.056-53.6303Q144.488-56.187 146.78-58.9908Q149.072-61.7948 149.072-65.7177Q149.072-69.6466 146.78-72.4326Q144.488-75.2185 140.056-77.7873L91.8179-105.686Q88.8562-107.422 86.5703-108.289Q84.2843-109.157 82.004-109.157Q79.7745-109.157 77.4631-108.289Q75.1518-107.422 72.2199-105.686L23.9519-77.7873Q19.5198-75.2185 17.2278-72.4326Q14.9358-69.6466 14.9358-65.7177Q14.9358-61.7948 17.2278-58.9908Q19.5198-56.187 23.9519-53.6303L72.2199-25.7251Q75.1518-24.0256 77.4631-23.14Q79.7745-22.2544 82.004-22.2544ZM82.004 9.40156Q84.2187 9.40156 86.3559 8.46833Q88.4931 7.53511 91.306 5.89505L141.719-23.5826Q145.24-25.6391 147.162-28.2254Q149.084-30.8116 149.084-34.2217Q149.084-37.2721 147.579-39.6066Q146.073-41.9413 143.704-43.5956L88.3161-11.2927Q86.4056-10.1826 84.9295-9.56502Q83.4534-8.94755 82.004-8.94755Q80.5486-8.94755 79.0905-9.56502Q77.6322-10.1826 75.7217-11.2927L20.3037-43.5956Q17.9352-41.9413 16.4294-39.6066Q14.9237-37.2721 14.9237-34.2217Q14.9237-30.8116 16.861-28.2105Q18.7982-25.6093 22.313-23.5826L72.7258 5.89505Q75.5387 7.53511 77.7013 8.46833Q79.8638 9.40156 82.004 9.40156ZM82.004 39.7172Q84.2187 39.7172 86.3559 38.787Q88.4931 37.8568 91.306 36.2107L141.719 6.7033Q145.21 4.68258 147.147 2.09633Q149.084-0.489835 149.084-3.90598Q149.084-6.98016 147.579-9.31779Q146.073-11.6553 143.704-13.28L88.3161 18.9993Q86.4056 20.1093 84.9295 20.7387Q83.4534 21.3681 82.004 21.3681Q80.5486 21.3681 79.0905 20.7387Q77.6322 20.1093 75.7217 18.9993L20.3037-13.28Q17.9352-11.6553 16.4294-9.31779Q14.9237-6.98016 14.9237-3.90598Q14.9237-0.489835 16.861 2.09633Q18.7982 4.68258 22.313 6.7033L72.7258 36.2107Q75.5387 37.8568 77.7013 38.787Q79.8638 39.7172 82.004 39.7172Z"/>
  </g>
  <g id="Bold-L" transform="matrix(1 0 0 1 2258.95 1556)">
   <path d="M81.0346-23.445Q83.1158-23.445 85.1941-24.2248Q87.2725-25.0046 89.9253-26.5143L138.739-54.7847Q142.794-57.1242 144.807-59.5707Q146.821-62.0173 146.821-65.3928Q146.821-68.7826 144.807-71.2036Q142.794-73.6245 138.739-75.9924L89.9253-104.249Q87.2725-105.81 85.1941-106.564Q83.1158-107.318 81.0346-107.318Q78.9968-107.318 76.8967-106.564Q74.7967-105.81 72.1808-104.249L23.3304-75.9924Q19.2755-73.6245 17.2618-71.2036Q15.248-68.7826 15.248-65.3928Q15.248-62.0173 17.2618-59.5707Q19.2755-57.1242 23.3304-54.7847L72.1808-26.5143Q74.7967-25.0046 76.8967-24.2248Q78.9968-23.445 81.0346-23.445ZM81.0346 8.07993Q83.0276 8.07993 84.921 7.23753Q86.8144 6.39512 89.2823 4.95936L140.967-25.3071Q143.835-26.9978 145.342-29.1471Q146.85-31.2963 146.85-33.9605Q146.85-36.5325 145.536-38.4897Q144.222-40.447 142.308-41.7356L85.9623-8.99134Q84.4927-8.13617 83.33-7.65376Q82.1674-7.17145 81.0346-7.17145Q79.8875-7.17145 78.7506-7.65376Q77.6135-8.13617 76.1439-8.99134L19.7612-41.7356Q17.8475-40.447 16.5335-38.4897Q15.2196-36.5325 15.2196-33.9605Q15.2196-31.2963 16.7453-29.1286Q18.2711-26.9609 21.1252-25.3071L72.8097 4.95936Q75.2776 6.39512 77.1927 7.23753Q79.1078 8.07993 81.0346 8.07993ZM81.0346 38.1007Q83.0276 38.1007 84.921 37.2654Q86.8144 36.4301 89.2823 34.9801L140.967 4.67666Q143.798 3.03709 145.324 0.887857Q146.85-1.26126 146.85-3.93972Q146.85-6.53446 145.536-8.49889Q144.222-10.4633 142.308-11.715L85.9623 21.0067Q84.4927 21.8618 83.33 22.3555Q82.1674 22.8493 81.0346 22.8493Q79.8875 22.8493 78.7506 22.3555Q77.6135 21.8618 76.1439 21.0067L19.7612-11.715Q17.8475-10.4633 16.5335-8.49889Q15.2196-6.53446 15.2196-3.93972Q15.2196-1.26126 16.7453 0.887857Q18.2711 3.03709 21.1252 4.67666L72.8097 34.9801Q75.2776 36.4301 77.1927 37.2654Q79.1078 38.1007 81.0346 38.1007Z"/>
  </g>
  <g id="Semibold-L" transform="matrix(1 0 0 1 1962.9 1556)">
   <path d="M80.3662-24.2657Q82.3103-24.2657 84.2455-24.9727Q86.1806-25.6795 88.6206-27.0584L137.831-55.5805Q141.626-57.7702 143.447-59.9704Q145.269-62.1707 145.269-65.1689Q145.269-68.187 143.447-70.3563Q141.626-72.5256 137.831-74.755L88.6206-103.257Q86.1806-104.698 84.2455-105.374Q82.3103-106.05 80.3662-106.05Q78.4607-106.05 76.5063-105.374Q74.5519-104.698 72.1539-103.257L22.9019-74.755Q19.1071-72.5256 17.2852-70.3563Q15.4633-68.187 15.4633-65.1689Q15.4633-62.1707 17.2852-59.9704Q19.1071-57.7702 22.9019-55.5805L72.1539-27.0584Q74.5519-25.6795 76.5063-24.9727Q78.4607-24.2657 80.3662-24.2657ZM80.3662 7.16881Q82.2065 7.16881 83.9318 6.38902Q85.6571 5.60922 87.8872 4.3143L140.448-26.496Q142.867-27.9346 144.088-29.7825Q145.309-31.6305 145.309-33.7804Q145.309-36.0226 144.127-37.7197Q142.945-39.4169 141.345-40.4534L84.3396-7.40481Q83.174-6.72536 82.2274-6.33615Q81.2808-5.94702 80.3662-5.94702Q79.4318-5.94702 78.5162-6.33615Q77.6006-6.72536 76.4349-7.40481L19.3871-40.4534Q17.7871-39.4169 16.6053-37.7197Q15.4235-36.0226 15.4235-33.7804Q15.4235-31.6305 16.6656-29.7616Q17.9077-27.8926 20.3064-26.496L72.8675 4.3143Q75.0976 5.60922 76.8421 6.38902Q78.5866 7.16881 80.3662 7.16881ZM80.3662 36.9862Q82.2065 36.9862 83.9318 36.2164Q85.6571 35.4465 87.8872 34.1318L140.448 3.27951Q142.825 1.90269 144.067 0.0547443Q145.309-1.79307 145.309-3.96298Q145.309-6.22719 144.127-7.93435Q142.945-9.64147 141.345-10.636L84.3396 22.3905Q83.174 23.0699 82.2274 23.4702Q81.2808 23.8704 80.3662 23.8704Q79.4318 23.8704 78.5162 23.4702Q77.6006 23.0699 76.4349 22.3905L19.3871-10.636Q17.7871-9.64147 16.6053-7.93435Q15.4235-6.22719 15.4235-3.96298Q15.4235-1.79307 16.6656 0.0547443Q17.9077 1.90269 20.3064 3.27951L72.8675 34.1318Q75.0976 35.4465 76.8421 36.2164Q78.5866 36.9862 80.3662 36.9862Z"/>
  </g>
  <g id="Medium-L" transform="matrix(1 0 0 1 1666.7 1556)">
   <path d="M79.8595-24.8881Q81.6996-24.8881 83.5261-25.5397Q85.3527-26.1913 87.6312-27.4709L137.142-56.1839Q140.74-58.2601 142.416-60.2735Q144.093-62.287 144.093-64.9991Q144.093-67.7354 142.416-69.7139Q140.74-71.6924 137.142-73.8168L87.6312-102.506Q85.3527-103.855 83.5261-104.472Q81.6996-105.088 79.8595-105.088Q78.0542-105.088 76.2102-104.472Q74.3662-103.855 72.1335-102.506L22.577-73.8168Q18.9794-71.6924 17.3029-69.7139Q15.6265-67.7354 15.6265-64.9991Q15.6265-62.287 17.3029-60.2735Q18.9794-58.2601 22.577-56.1839L72.1335-27.4709Q74.3662-26.1913 76.2102-25.5397Q78.0542-24.8881 79.8595-24.8881ZM79.8595 6.47796Q81.5839 6.47796 83.1817 5.74564Q84.7796 5.01332 86.8293 3.82519L140.055-27.3974Q142.133-28.6448 143.137-30.2643Q144.141-31.8838 144.141-33.6439Q144.141-35.6359 143.059-37.1359Q141.978-38.6359 140.615-39.4812L83.1092-6.20183Q82.1741-5.65562 81.3913-5.33708Q80.6086-5.01861 79.8595-5.01861Q79.0863-5.01861 78.3385-5.33708Q77.5908-5.65562 76.6556-6.20183L19.1035-39.4812Q17.7413-38.6359 16.6597-37.1359Q15.5782-35.6359 15.5782-33.6439Q15.5782-31.8838 16.6052-30.2415Q17.6321-28.5991 19.6855-27.3974L72.9113 3.82519Q74.9611 5.01332 76.5763 5.74564Q78.1915 6.47796 79.8595 6.47796ZM79.8595 36.1412Q81.5839 36.1412 83.1817 35.421Q84.7796 34.7007 86.8293 33.4885L140.055 2.22013Q142.087 1.04254 143.114-0.576957Q144.141-2.19631 144.141-3.98062Q144.141-5.99421 143.059-7.50629Q141.978-9.01835 140.615-9.81795L83.1092 23.4398Q82.1741 23.986 81.3913 24.3153Q80.6086 24.6447 79.8595 24.6447Q79.0863 24.6447 78.3385 24.3153Q77.5908 23.986 76.6556 23.4398L19.1035-9.81795Q17.7413-9.01835 16.6597-7.50629Q15.5782-5.99421 15.5782-3.98062Q15.5782-2.19631 16.6052-0.576957Q17.6321 1.04254 19.6855 2.22013L72.9113 33.4885Q74.9611 34.7007 76.5763 35.421Q78.1915 36.1412 79.8595 36.1412Z"/>
  </g>
  <g id="Regular-L" transform="matrix(1 0 0 1 1370.65 1556)">
   <path d="M79.1985-25.6998Q80.9029-25.6998 82.5879-26.2793Q84.2729-26.8588 86.3408-28.009L136.244-56.971Q139.584-58.899 141.071-60.6688Q142.558-62.4387 142.558-64.7776Q142.558-67.1463 141.071-68.8759Q139.584-70.6056 136.244-72.593L86.3408-101.525Q84.2729-102.756 82.5879-103.295Q80.9029-103.834 79.1985-103.834Q77.524-103.834 75.824-103.295Q74.1241-102.756 72.1069-101.525L22.1532-72.593Q18.8128-70.6056 17.3261-68.8759Q15.8394-67.1463 15.8394-64.7776Q15.8394-62.4387 17.3261-60.6688Q18.8128-58.899 22.1532-56.971L72.1069-28.009Q74.1241-26.8588 75.824-26.2793Q77.524-25.6998 79.1985-25.6998ZM79.1985 5.57686Q80.7718 5.57686 82.2034 4.90646Q83.635 4.23605 85.4495 3.18722L139.542-28.5732Q141.175-29.5713 141.896-30.8928Q142.617-32.2143 142.617-33.4658Q142.617-35.1316 141.666-36.3743Q140.716-37.6171 139.663-38.213L81.5043-4.63273Q80.8698-4.26031 80.3007-4.03395Q79.7317-3.80763 79.1985-3.80763Q78.6356-3.80763 78.1068-4.03395Q77.578-4.26031 76.9434-4.63273L18.7336-38.213Q17.6815-37.6171 16.7307-36.3743Q15.7799-35.1316 15.7799-33.4658Q15.7799-32.2143 16.5263-30.8675Q17.2727-29.5206 18.8757-28.5732L72.9685 3.18722Q74.783 4.23605 76.2296 4.90646Q77.676 5.57686 79.1985 5.57686ZM79.1985 35.039Q80.7718 35.039 82.2034 34.3835Q83.635 33.728 85.4495 32.6494L139.542 0.838331Q141.124-0.079386 141.871-1.40091Q142.617-2.72228 142.617-4.00362Q142.617-5.69032 141.666-6.94795Q140.716-8.20558 139.663-8.75088L81.5043 24.8085Q80.8698 25.1809 80.3007 25.4177Q79.7317 25.6546 79.1985 25.6546Q78.6356 25.6546 78.1068 25.4177Q77.578 25.1809 76.9434 24.8085L18.7336-8.75088Q17.6815-8.20558 16.7307-6.94795Q15.7799-5.69032 15.7799-4.00362Q15.7799-2.72228 16.5263-1.40091Q17.2727-0.079386 18.8757 0.838331L72.9685 32.6494Q74.783 33.728 76.2296 34.3835Q77.676 35.039 79.1985 35.039Z"/>
  </g>
  <g id="Light-L" transform="matrix(1 0 0 1 1075.17 1556)">
   <path d="M77.9672-28.142Q79.4048-28.142 80.782-28.6496Q82.1591-29.1573 83.8782-30.1022L134.643-59.5157Q137.347-61.0538 138.639-62.5466Q139.931-64.0395 139.931-66.05Q139.931-68.1108 138.639-69.5634Q137.347-71.016 134.643-72.6545L83.8782-102.018Q82.1591-103.043 80.782-103.511Q79.4048-103.978 77.9672-103.978Q76.58-103.978 75.1776-103.511Q73.7752-103.043 72.0864-102.018L21.2913-72.6545Q18.5871-71.016 17.2953-69.5634Q16.0036-68.1108 16.0036-66.05Q16.0036-64.0395 17.2953-62.5466Q18.5871-61.0538 21.2913-59.5157L72.0864-30.1022Q73.7752-29.1573 75.1776-28.6496Q76.58-28.142 77.9672-28.142ZM77.9672 3.46311Q79.2942 3.46311 80.5206 2.88504Q81.747 2.30697 83.3152 1.42234L137.388-30.1123Q138.815-30.9668 139.423-32.0625Q140.031-33.1583 140.031-34.1635Q140.031-35.4805 139.368-36.4153Q138.704-37.3503 137.981-37.8026L80.0883-4.46852Q79.5153-4.11666 78.9976-3.90059Q78.4799-3.68449 77.9672-3.68449Q77.4042-3.68449 76.9268-3.90059Q76.4493-4.11666 75.8763-4.46852L17.9538-37.8026Q17.23-37.3503 16.5665-36.4153Q15.903-35.4805 15.903-34.1635Q15.903-33.1583 16.5263-32.0475Q17.1495-30.9366 18.5268-30.1123L72.5991 1.42234Q74.1673 2.30697 75.4189 2.88504Q76.6705 3.46311 77.9672 3.46311ZM77.9672 33.4998Q79.2942 33.4998 80.5206 32.947Q81.747 32.3941 83.3152 31.4592L137.388-0.105682Q138.785-0.879744 139.408-1.97553Q140.031-3.07116 140.031-4.12676Q140.031-5.42352 139.368-6.38359Q138.704-7.34365 137.981-7.76585L80.0883 25.5883Q79.5153 25.9402 78.9976 26.1463Q78.4799 26.3523 77.9672 26.3523Q77.4042 26.3523 76.9268 26.1463Q76.4493 25.9402 75.8763 25.5883L17.9538-7.76585Q17.23-7.34365 16.5665-6.38359Q15.903-5.42352 15.903-4.12676Q15.903-3.07116 16.5263-1.97553Q17.1495-0.879744 18.5268-0.105682L72.5991 31.4592Q74.1673 32.3941 75.4189 32.947Q76.6705 33.4998 77.9672 33.4998Z"/>
  </g>
  <g id="Thin-L" transform="matrix(1 0 0 1 780.084 1556)">
   <path d="M76.3387-31.3719Q77.4234-31.3719 78.3934-31.7845Q79.3635-32.1972 80.6212-32.8707L132.526-62.8814Q134.389-63.9037 135.423-65.0301Q136.457-66.1565 136.457-67.7327Q136.457-69.3865 135.423-70.4727Q134.389-71.5588 132.526-72.736L80.6212-102.669Q79.3635-103.423 78.3934-103.796Q77.4234-104.168 76.3387-104.168Q75.3314-104.168 74.3227-103.796Q73.3138-103.423 72.0593-102.669L20.1513-72.736Q18.2885-71.5588 17.2545-70.4727Q16.2207-69.3865 16.2207-67.7327Q16.2207-66.1565 17.2545-65.0301Q18.2885-63.9037 20.1513-62.8814L72.0593-32.8707Q73.3138-32.1972 74.3227-31.7845Q75.3314-31.3719 76.3387-31.3719ZM76.3387 0.66752Q77.34 0.66752 78.295 0.21156Q79.2499-0.2444 80.4924-0.911861L134.538-32.148Q135.694-32.8124 136.153-33.6096Q136.611-34.4069 136.611-35.0864Q136.611-35.9419 136.328-36.4696Q136.045-36.9974 135.755-37.2598L78.2156-4.25135Q77.7239-3.92666 77.2742-3.72422Q76.8242-3.52162 76.3387-3.52162Q75.7757-3.52162 75.3661-3.72422Q74.9566-3.92666 74.4649-4.25135L16.9225-37.2598Q16.6329-36.9974 16.3494-36.4696Q16.0659-35.9419 16.0659-35.0864Q16.0659-34.4069 16.5263-33.6081Q16.9867-32.8094 18.0654-32.148L72.1106-0.911861Q73.353-0.2444 74.3468 0.21156Q75.3405 0.66752 76.3387 0.66752ZM76.3387 31.4642Q77.34 31.4642 78.295 31.047Q79.2499 30.6298 80.4924 29.8849L134.538-1.35422Q135.691-1.93828 136.151-2.73552Q136.611-3.53259 136.611-4.28963Q136.611-5.07066 136.328-5.63717Q136.045-6.20368 135.755-6.46307L78.2156 26.6197Q77.7239 26.9444 77.2742 27.1098Q76.8242 27.2751 76.3387 27.2751Q75.7757 27.2751 75.3661 27.1098Q74.9566 26.9444 74.4649 26.6197L16.9225-6.46307Q16.6329-6.20368 16.3494-5.63717Q16.0659-5.07066 16.0659-4.28963Q16.0659-3.53259 16.5263-2.73552Q16.9867-1.93828 18.0654-1.35422L72.1106 29.8849Q73.353 30.6298 74.3468 31.047Q75.3405 31.4642 76.3387 31.4642Z"/>
  </g>
  <g id="Ultralight-L" transform="matrix(1 0 0 1 484.207 1556)">
   <path d="M75.5045-33.0262Q76.4085-33.0262 77.1701-33.3901Q77.9316-33.7543 78.953-34.2887L131.442-64.6052Q132.874-65.3634 133.775-66.3021Q134.677-67.2409 134.677-68.5947Q134.677-70.0399 133.775-70.9384Q132.874-71.8368 131.442-72.7777L78.953-103.003Q77.9316-103.618 77.1701-103.942Q76.4085-104.265 75.5045-104.265Q74.6919-104.265 73.8848-103.942Q73.0775-103.618 72.0454-103.003L19.5674-72.7777Q18.1356-71.8368 17.2337-70.9384Q16.3319-70.0399 16.3319-68.5947Q16.3319-67.2409 17.2337-66.3021Q18.1356-65.3634 19.5674-64.6052L72.0454-34.2887Q73.0775-33.7543 73.8848-33.3901Q74.6919-33.0262 75.5045-33.0262ZM75.5045-0.764371Q76.3391-0.764371 77.155-1.15778Q77.9709-1.5512 79.0466-2.10743L133.078-33.1906Q134.095-33.7577 134.477-34.402Q134.86-35.0464 134.86-35.5591Q134.86-36.1783 134.771-36.4974Q134.682-36.8167 134.615-36.9818L77.2563-4.14011Q76.8064-3.82935 76.3914-3.63388Q75.9762-3.4382 75.5045-3.4382Q74.9416-3.4382 74.5668-3.63388Q74.192-3.82935 73.742-4.14011L16.3942-36.9818Q16.3271-36.8167 16.2382-36.4974Q16.1493-36.1783 16.1493-35.5591Q16.1493-35.0464 16.5263-34.4075Q16.9032-33.7686 17.829-33.1906L71.8603-2.10743Q72.936-1.5512 73.7977-1.15778Q74.6593-0.764371 75.5045-0.764371ZM75.5045 30.4216Q76.3391 30.4216 77.155 30.0739Q77.9709 29.7262 79.0466 29.0786L133.078-1.99371Q134.106-2.48046 134.483-3.12478Q134.86-3.76893 134.86-4.37305Q134.86-4.88992 134.771-5.25486Q134.682-5.61979 134.615-5.79578L77.2563 27.148Q76.8064 27.4588 76.3914 27.6033Q75.9762 27.7478 75.5045 27.7478Q74.9416 27.7478 74.5668 27.6033Q74.192 27.4588 73.742 27.148L16.3942-5.79578Q16.3271-5.61979 16.2382-5.25486Q16.1493-4.88992 16.1493-4.37305Q16.1493-3.76893 16.5263-3.12478Q16.9032-2.48046 17.829-1.99371L71.8603 29.0786Q72.936 29.7262 73.7977 30.0739Q74.6593 30.4216 75.5045 30.4216Z"/>
  </g>
  <g id="Black-M" transform="matrix(1 0 0 1 2868.88 1126)">
   <path d="M64.5291-24.2692Q66.4955-24.2692 68.4652-25.0854Q70.4349-25.9016 73.0618-27.4258L109.887-48.6652Q113.655-50.8307 115.771-53.4306Q117.887-56.0306 117.887-59.7577Q117.887-63.4844 115.771-66.0818Q113.655-68.6791 109.887-70.844L73.0618-92.0837Q70.4349-93.6131 68.4652-94.4267Q66.4955-95.2402 64.5291-95.2402Q62.6194-95.2402 60.6213-94.4267Q58.6233-93.6131 56.0018-92.0837L19.1712-70.844Q15.4029-68.6791 13.287-66.0818Q11.1711-63.4844 11.1711-59.7577Q11.1711-56.0306 13.287-53.4306Q15.4029-50.8307 19.1712-48.6652L56.0018-27.4258Q58.6233-25.9016 60.6213-25.0854Q62.6194-24.2692 64.5291-24.2692ZM64.5291 0.559189Q66.4848 0.559189 68.4269-0.265064Q70.369-1.08932 72.9684-2.6025L110.161-24.211Q113.772-26.2895 115.829-28.8549Q117.886-31.4201 117.886-35.0679Q117.886-38.0114 116.538-40.2664Q115.188-42.5215 112.801-44.2885L71.3788-19.9908Q69.2755-18.7654 67.6914-18.0929Q66.1075-17.4206 64.5291-17.4206Q62.951-17.4206 61.3696-18.0929Q59.7881-18.7654 57.6849-19.9908L16.2573-44.2885Q13.8695-42.5215 12.5207-40.2664Q11.1717-38.0114 11.1717-35.0679Q11.1717-31.4201 13.2318-28.8521Q15.292-26.284 18.9032-24.211L56.0955-2.6025Q58.6949-1.08932 60.6654-0.265064Q62.6359 0.559189 64.5291 0.559189ZM64.5291 24.6724Q66.4848 24.6724 68.4269 23.848Q70.369 23.0236 72.9684 21.5107L110.161-0.103208Q113.766-2.17664 115.826-4.74191Q117.886-7.30716 117.886-10.9546Q117.886-13.904 116.538-16.1589Q115.188-18.4138 112.801-20.1754L71.3788 4.11667Q69.2755 5.34204 67.6914 6.01733Q66.1075 6.69262 64.5291 6.69262Q62.951 6.69262 61.3696 6.01733Q59.7881 5.34204 57.6849 4.11667L16.2573-20.1754Q13.8695-18.4138 12.5207-16.1589Q11.1717-13.904 11.1717-10.9546Q11.1717-7.30716 13.2318-4.74191Q15.292-2.17664 18.9032-0.103208L56.0955 21.5107Q58.6949 23.0236 60.6654 23.848Q62.6359 24.6724 64.5291 24.6724Z"/>
  </g>
  <g id="Heavy-M" transform="matrix(1 0 0 1 2572.75 1126)">
   <path d="M63.9464-24.7851Q65.7963-24.7851 67.6506-25.5242Q69.5049-26.2634 71.9369-27.6658L109.08-49.1274Q112.655-51.1868 114.57-53.5339Q116.484-55.8812 116.484-59.2005Q116.484-62.5222 114.57-64.8601Q112.655-67.1979 109.08-69.2622L71.9369-90.7214Q69.5049-92.1425 67.6506-92.8723Q65.7963-93.6021 63.9464-93.6021Q62.1426-93.6021 60.2652-92.8723Q58.3879-92.1425 55.9721-90.7214L18.8132-69.2622Q15.2379-67.1979 13.3233-64.8601Q11.4087-62.5222 11.4087-59.2005Q11.4087-55.8812 13.3233-53.5339Q15.2379-51.1868 18.8132-49.1274L55.9721-27.6658Q58.3879-26.2634 60.2652-25.5242Q62.1426-24.7851 63.9464-24.7851ZM63.9464-0.141704Q65.7613-0.141704 67.5345-0.906427Q69.3076-1.67115 71.6584-3.04107L109.966-25.3873Q113.051-27.1771 114.77-29.4091Q116.489-31.6409 116.489-34.6897Q116.489-37.2901 115.246-39.2815Q114.003-41.273 111.942-42.7513L69.626-18.015Q67.8948-17.0079 66.5736-16.4514Q65.2525-15.8949 63.9464-15.8949Q62.6378-15.8949 61.3261-16.4514Q60.0142-17.0079 58.283-18.015L15.9507-42.7513Q13.8899-41.273 12.6469-39.2815Q11.4038-37.2901 11.4038-34.6897Q11.4038-31.6409 13.1308-29.401Q14.8577-27.1609 17.9402-25.3873L56.2482-3.04107Q58.599-1.67115 60.3952-0.906427Q62.1913-0.141704 63.9464-0.141704ZM63.9464 23.5904Q65.7613 23.5904 67.5345 22.8268Q69.3076 22.0633 71.6584 20.691L109.966-1.67147Q113.035-3.44269 114.762-5.67454Q116.489-7.90634 116.489-10.9576Q116.489-13.5718 115.246-15.5645Q114.003-17.5572 111.942-19.0193L69.626 5.70337Q67.8948 6.71039 66.5736 7.27376Q65.2525 7.83713 63.9464 7.83713Q62.6378 7.83713 61.3261 7.27376Q60.0142 6.71039 58.283 5.70337L15.9507-19.0193Q13.8899-17.5572 12.6469-15.5645Q11.4038-13.5718 11.4038-10.9576Q11.4038-7.90634 13.1308-5.67454Q14.8577-3.44269 17.9402-1.67147L56.2482 20.691Q58.599 22.0633 60.3952 22.8268Q62.1913 23.5904 63.9464 23.5904Z"/>
  </g>
  <g id="Bold-M" transform="matrix(1 0 0 1 2276.69 1126)">
   <path d="M63.2946-25.3621Q65.0141-25.3621 66.7393-26.0151Q68.4646-26.6681 70.6785-27.9342L108.177-49.6444Q111.536-51.5851 113.225-53.6495Q114.915-55.7141 114.915-58.5772Q114.915-61.4458 113.225-63.4935Q111.536-65.5411 108.177-67.4928L70.6785-89.1974Q68.4646-90.4973 66.7393-91.1334Q65.0141-91.7696 63.2946-91.7696Q61.6092-91.7696 59.8669-91.1334Q58.1246-90.4973 55.9389-89.1974L18.4127-67.4928Q15.0533-65.5411 13.3639-63.4935Q11.6745-61.4458 11.6745-58.5772Q11.6745-55.7141 13.3639-53.6495Q15.0533-51.5851 18.4127-49.6444L55.9389-27.9342Q58.1246-26.6681 59.8669-26.0151Q61.6092-25.3621 63.2946-25.3621ZM63.2946-0.925755Q64.952-0.925755 66.5361-1.62388Q68.1202-2.32201 70.193-3.53167L109.749-26.7033Q112.245-28.1701 113.586-30.029Q114.926-31.8879 114.926-34.2667Q114.926-36.4832 113.801-38.1798Q112.676-39.8765 110.981-41.0318L67.6652-15.8047Q66.3503-15.0419 65.3232-14.615Q64.2962-14.1883 63.2946-14.1883Q62.2875-14.1883 61.2773-14.615Q60.2671-15.0419 58.9521-15.8047L15.6077-41.0318Q13.9127-39.8765 12.7881-38.1798Q11.6635-36.4832 11.6635-34.2667Q11.6635-31.8879 13.0177-30.0149Q14.372-28.1419 16.8629-26.7033L56.4189-3.53167Q58.4917-2.32201 60.0928-1.62388Q61.6939-0.925755 63.2946-0.925755ZM63.2946 22.3799Q64.952 22.3799 66.5361 21.6846Q68.1202 20.9892 70.193 19.774L109.749-3.42581Q112.217-4.85895 113.571-6.71783Q114.926-8.57662 114.926-10.961Q114.926-13.2002 113.801-14.8996Q112.676-16.599 110.981-17.7261L67.6652 7.47831Q66.3503 8.24109 65.3232 8.67925Q64.2962 9.11743 63.2946 9.11743Q62.2875 9.11743 61.2773 8.67925Q60.2671 8.24109 58.9521 7.47831L15.6077-17.7261Q13.9127-16.599 12.7881-14.8996Q11.6635-13.2002 11.6635-10.961Q11.6635-8.57662 13.0177-6.71783Q14.372-4.85895 16.8629-3.42581L56.4189 19.774Q58.4917 20.9892 60.0928 21.6846Q61.6939 22.3799 63.2946 22.3799Z"/>
  </g>
  <g id="Semibold-M" transform="matrix(1 0 0 1 1980.42 1126)">
   <path d="M62.8452-25.7599Q64.4748-25.7599 66.1111-26.3535Q67.7474-26.9472 69.811-28.1193L107.554-50.0008Q110.764-51.8597 112.299-53.7292Q113.833-55.5989 113.833-58.1475Q113.833-60.7038 112.299-62.5513Q110.764-64.3988 107.554-66.2729L69.811-88.1468Q67.7474-89.3632 66.1111-89.9347Q64.4748-90.5062 62.8452-90.5062Q61.2415-90.5062 59.5922-89.9347Q57.943-89.3632 55.916-88.1468L18.1366-66.2729Q14.9261-64.3988 13.3919-62.5513Q11.8577-60.7038 11.8577-58.1475Q11.8577-55.5989 13.3919-53.7292Q14.9261-51.8597 18.1366-50.0008L55.916-28.1193Q57.943-26.9472 59.5922-26.3535Q61.2415-25.7599 62.8452-25.7599ZM62.8452-1.46627Q64.3941-1.46627 65.8479-2.11849Q67.3017-2.77071 69.1828-3.8699L109.599-27.6105Q111.69-28.8547 112.769-30.4564Q113.848-32.0582 113.848-33.9751Q113.848-35.9269 112.805-37.4203Q111.762-38.9137 110.319-39.8463L66.3135-14.2809Q65.2855-13.6865 64.4611-13.3491Q63.6369-13.0117 62.8452-13.0117Q62.0459-13.0117 61.2437-13.3491Q60.4415-13.6865 59.4134-14.2809L15.3712-39.8463Q13.9284-38.9137 12.8854-37.4203Q11.8425-35.9269 11.8425-33.9751Q11.8425-32.0582 12.9398-30.4382Q14.0371-28.8182 16.1202-27.6105L56.5366-3.8699Q58.4177-2.77071 59.8844-2.11849Q61.351-1.46627 62.8452-1.46627ZM62.8452 21.5455Q64.3941 21.5455 65.8479 20.8971Q67.3017 20.2487 69.1828 19.1419L109.599-4.63523Q111.653-5.83531 112.751-7.43706Q113.848-9.03871 113.848-10.9634Q113.848-12.944 112.805-14.4412Q111.762-15.9384 110.319-16.8346L66.3135 8.70195Q65.2855 9.29634 64.4611 9.6482Q63.6369 10.0001 62.8452 10.0001Q62.0459 10.0001 61.2437 9.6482Q60.4415 9.29634 59.4134 8.70195L15.3712-16.8346Q13.9284-15.9384 12.8854-14.4412Q11.8425-12.944 11.8425-10.9634Q11.8425-9.03871 12.9398-7.43706Q14.0371-5.83531 16.1202-4.63523L56.5366 19.1419Q58.4177 20.2487 59.8844 20.8971Q61.351 21.5455 62.8452 21.5455Z"/>
  </g>
  <g id="Medium-M" transform="matrix(1 0 0 1 1684.05 1126)">
   <path d="M62.5045-26.0615Q64.0659-26.0615 65.6347-26.6101Q67.2036-27.1587 69.1532-28.2597L107.082-50.2711Q110.18-52.0679 111.596-53.7897Q113.012-55.5115 113.012-57.8217Q113.012-60.1411 111.596-61.8369Q110.18-63.5328 107.082-65.348L69.1532-87.3502Q67.2036-88.5032 65.6347-89.0258Q64.0659-89.5483 62.5045-89.5483Q60.9627-89.5483 59.384-89.0258Q57.8054-88.5032 55.8986-87.3502L17.9272-65.348Q14.8296-63.5328 13.4131-61.8369Q11.9967-60.1411 11.9967-57.8217Q11.9967-55.5115 13.4131-53.7897Q14.8296-52.0679 17.9272-50.2711L55.8986-28.2597Q57.8054-27.1587 59.384-26.6101Q60.9627-26.0615 62.5045-26.0615ZM62.5045-1.87612Q63.9711-1.87612 65.326-2.49353Q66.681-3.11093 68.4167-4.12635L109.485-28.2984Q111.269-29.3737 112.15-30.7805Q113.031-32.1873 113.031-33.754Q113.031-35.5051 112.05-36.8444Q111.069-38.1836 109.817-38.9474L65.2886-13.1256Q64.4782-12.6588 63.8075-12.3892Q63.1369-12.1196 62.5045-12.1196Q61.8628-12.1196 61.2183-12.3892Q60.5737-12.6588 59.7632-13.1256L15.192-38.9474Q13.9403-38.1836 12.9592-36.8444Q11.9782-35.5051 11.9782-33.754Q11.9782-32.1873 12.8807-30.7591Q13.7832-29.3309 15.5571-28.2984L56.6259-4.12635Q58.3616-3.11093 59.7263-2.49353Q61.091-1.87612 62.5045-1.87612ZM62.5045 20.9127Q63.9711 20.9127 65.326 20.2999Q66.681 19.6872 68.4167 18.6625L109.485-5.55227Q111.226-6.57563 112.128-7.98241Q113.031-9.38908 113.031-10.9651Q113.031-12.7498 112.05-14.0937Q111.069-15.4375 109.817-16.1586L65.2886 9.62976Q64.4782 10.0965 63.8075 10.3829Q63.1369 10.6693 62.5045 10.6693Q61.8628 10.6693 61.2183 10.3829Q60.5737 10.0965 59.7632 9.62976L15.192-16.1586Q13.9403-15.4375 12.9592-14.0937Q11.9782-12.7498 11.9782-10.9651Q11.9782-9.38908 12.8807-7.98241Q13.7832-6.57563 15.5571-5.55227L56.6259 18.6625Q58.3616 19.6872 59.7263 20.2999Q61.091 20.9127 62.5045 20.9127Z"/>
  </g>
  <g id="Regular-M" transform="matrix(1 0 0 1 1387.78 1126)">
   <path d="M62.0601-26.4549Q63.5326-26.4549 65.0134-26.9448Q66.4943-27.4347 68.2952-28.4427L106.466-50.6236Q109.417-52.3395 110.679-53.8685Q111.942-55.3976 111.942-57.3967Q111.942-59.4072 110.679-60.9051Q109.417-62.4031 106.466-64.1416L68.2952-86.3111Q66.4943-87.3815 65.0134-87.8402Q63.5326-88.2989 62.0601-88.2989Q60.599-88.2989 59.1124-87.8402Q57.6259-87.3815 55.8759-86.3111L17.6542-64.1416Q14.7037-62.4031 13.4408-60.9051Q12.1779-59.4072 12.1779-57.3967Q12.1779-55.3976 13.4408-53.8685Q14.7037-52.3395 17.6542-50.6236L55.8759-28.4427Q57.6259-27.4347 59.1124-26.9448Q60.599-26.4549 62.0601-26.4549ZM62.0601-2.4107Q63.4193-2.4107 64.6454-2.9827Q65.8715-3.5547 67.4176-4.46085L109.337-29.1956Q110.719-30.0507 111.342-31.2032Q111.965-32.3557 111.965-33.4656Q111.965-34.955 111.065-36.0932Q110.164-37.2314 109.162-37.775L63.9517-11.6186Q63.4251-11.3183 62.9549-11.1371Q62.4849-10.9559 62.0601-10.9559Q61.6239-10.9559 61.185-11.1371Q60.7461-11.3183 60.2194-11.6186L14.9581-37.775Q13.9559-37.2314 13.0555-36.0932Q12.1552-34.955 12.1552-33.4656Q12.1552-32.3557 12.8036-31.1777Q13.452-29.9998 14.8226-29.1956L56.7423-4.46085Q58.2884-3.5547 59.5202-2.9827Q60.7519-2.4107 62.0601-2.4107ZM62.0601 20.0874Q63.4193 20.0874 64.6454 19.5211Q65.8715 18.9548 67.4176 18.0373L109.337-6.7484Q110.668-7.54126 111.317-8.69374Q111.965-9.84609 111.965-10.9674Q111.965-12.4964 111.065-13.6403Q110.164-14.7842 109.162-15.2768L63.9517 10.84Q63.4251 11.1401 62.9549 11.3412Q62.4849 11.5422 62.0601 11.5422Q61.6239 11.5422 61.185 11.3412Q60.7461 11.1401 60.2194 10.84L14.9581-15.2768Q13.9559-14.7842 13.0555-13.6403Q12.1552-12.4964 12.1552-10.9674Q12.1552-9.84609 12.8036-8.69374Q13.452-7.54126 14.8226-6.7484L56.7423 18.0373Q58.2884 18.9548 59.5202 19.5211Q60.7519 20.0874 62.0601 20.0874Z"/>
  </g>
  <g id="Light-M" transform="matrix(1 0 0 1 1092.18 1126)">
   <path d="M60.9561-28.6444Q62.1894-28.6444 63.3943-29.0699Q64.5992-29.4954 66.0873-30.3194L105.031-52.905Q107.411-54.2713 108.499-55.552Q109.587-56.8327 109.587-58.5375Q109.587-60.272 108.499-61.5215Q107.411-62.771 105.031-64.1968L66.0873-86.7527Q64.5992-87.6391 63.3943-88.0334Q62.1894-88.4277 60.9561-88.4277Q59.7527-88.4277 58.5329-88.0334Q57.3131-87.6391 55.8575-86.7527L16.8814-64.1968Q14.5013-62.771 13.4132-61.5215Q12.3251-60.272 12.3251-58.5375Q12.3251-56.8327 13.4132-55.552Q14.5013-54.2713 16.8814-52.905L55.8575-30.3194Q57.3131-29.4954 58.5329-29.0699Q59.7527-28.6444 60.9561-28.6444ZM60.9561-4.30578Q62.0946-4.30578 63.1367-4.795Q64.1787-5.28423 65.5041-6.04316L107.405-30.5755Q108.603-31.3019 109.125-32.2519Q109.647-33.202 109.647-34.0911Q109.647-35.2678 109.004-36.13Q108.361-36.9922 107.653-37.407L62.6822-11.4714Q62.2107-11.1896 61.7866-11.0175Q61.3625-10.8455 60.9561-10.8455Q60.52-10.8455 60.1271-11.0175Q59.7342-11.1896 59.2626-11.4714L14.259-37.407Q13.5511-36.9922 12.9083-36.13Q12.2656-35.2678 12.2656-34.0911Q12.2656-33.202 12.8036-32.2357Q13.3416-31.2693 14.5098-30.5755L56.4111-6.04316Q57.7364-5.28423 58.7934-4.795Q59.8504-4.30578 60.9561-4.30578ZM60.9561 18.7075Q62.0946 18.7075 63.1367 18.2332Q64.1787 17.7588 65.5041 16.9702L107.405-7.59476Q108.571-8.25882 109.109-9.20892Q109.647-10.1589 109.647-11.0778Q109.647-12.2572 109.004-13.1343Q108.361-14.0115 107.653-14.3937L62.6822 11.5391Q62.2107 11.8209 61.7866 11.9943Q61.3625 12.1678 60.9561 12.1678Q60.52 12.1678 60.1271 11.9943Q59.7342 11.8209 59.2626 11.5391L14.259-14.3937Q13.5511-14.0115 12.9083-13.1343Q12.2656-12.2572 12.2656-11.0778Q12.2656-10.1589 12.8036-9.20892Q13.3416-8.25882 14.5098-7.59476L56.4111 16.9702Q57.7364 17.7588 58.7934 18.2332Q59.8504 18.7075 60.9561 18.7075Z"/>
  </g>
  <g id="Thin-M" transform="matrix(1 0 0 1 796.926 1126)">
   <path d="M59.4961-31.5402Q60.413-31.5402 61.2529-31.8805Q62.0927-32.2209 63.1673-32.8015L103.133-55.9225Q104.759-56.8264 105.615-57.7786Q106.473-58.7308 106.473-60.0462Q106.473-61.4157 105.615-62.3367Q104.759-63.2577 103.133-64.2698L63.1673-87.3367Q62.0927-87.9798 61.2529-88.2889Q60.413-88.598 59.4961-88.598Q58.6333-88.598 57.7664-88.2889Q56.8994-87.9798 55.8332-87.3367L15.8594-64.2698Q14.2337-63.2577 13.3767-62.3367Q12.5197-61.4157 12.5197-60.0462Q12.5197-58.7308 13.3767-57.7786Q14.2337-56.8264 15.8594-55.9225L55.8332-32.8015Q56.8994-32.2209 57.7664-31.8805Q58.6333-31.5402 59.4961-31.5402ZM59.4961-6.81217Q60.3425-6.81217 61.1413-7.19192Q61.94-7.57166 62.9733-8.13589L104.85-32.4006Q105.805-32.9566 106.193-33.639Q106.581-34.3214 106.581-34.9185Q106.581-35.6814 106.279-36.1786Q105.977-36.6759 105.658-36.9204L61.0032-11.2767Q60.6046-11.0192 60.2414-10.8594Q59.8782-10.6995 59.4961-10.6995Q59.0599-10.6995 58.7279-10.8594Q58.3958-11.0192 57.9973-11.2767L13.3343-36.9204Q13.0157-36.6759 12.7137-36.1786Q12.4116-35.6814 12.4116-34.9185Q12.4116-34.3214 12.8036-33.6349Q13.1956-32.9483 14.0961-32.4006L55.9731-8.13589Q57.0063-7.57166 57.8322-7.19192Q58.658-6.81217 59.4961-6.81217ZM59.4961 16.8824Q60.3425 16.8824 61.1413 16.5298Q61.94 16.1771 62.9733 15.5588L104.85-8.71414Q105.797-9.20786 106.189-9.89028Q106.581-10.5726 106.581-11.2239Q106.581-11.9408 106.279-12.4651Q105.977-12.9894 105.658-13.2257L61.0032 12.4638Q60.6046 12.7213 60.2414 12.8582Q59.8782 12.9952 59.4961 12.9952Q59.0599 12.9952 58.7279 12.8582Q58.3958 12.7213 57.9973 12.4638L13.3343-13.2257Q13.0157-12.9894 12.7137-12.4651Q12.4116-11.9408 12.4116-11.2239Q12.4116-10.5726 12.8036-9.89028Q13.1956-9.20786 14.0961-8.71414L55.9731 15.5588Q57.0063 16.1771 57.8322 16.5298Q58.658 16.8824 59.4961 16.8824Z"/>
  </g>
  <g id="Ultralight-M" transform="matrix(1 0 0 1 500.963 1126)">
   <path d="M58.7482-33.0234Q59.5032-33.0234 60.1561-33.32Q60.809-33.6168 61.6716-34.0729L102.161-57.468Q103.4-58.1351 104.139-58.919Q104.877-59.703 104.877-60.8189Q104.877-62.0015 104.139-62.7543Q103.4-63.5069 102.161-64.3072L61.6716-87.6358Q60.809-88.1543 60.1561-88.4198Q59.5032-88.6853 58.7482-88.6853Q58.06-88.6853 57.3738-88.4198Q56.6875-88.1543 55.8208-87.6358L15.3359-64.3072Q14.0966-63.5069 13.358-62.7543Q12.6194-62.0015 12.6194-60.8189Q12.6194-59.703 13.358-58.919Q14.0966-58.1351 15.3359-57.468L55.8208-34.0729Q56.6875-33.6168 57.3738-33.32Q58.06-33.0234 58.7482-33.0234ZM58.7482-8.09594Q59.4451-8.09594 60.1192-8.41961Q60.7933-8.74327 61.677-9.20777L103.542-33.3354Q104.371-33.8041 104.691-34.3494Q105.01-34.8948 105.01-35.3423Q105.01-35.8933 104.883-36.2035Q104.755-36.5138 104.636-36.6711L60.1432-11.1769Q59.782-10.932 59.45-10.7784Q59.1179-10.6247 58.7482-10.6247Q58.3121-10.6247 58.0112-10.7784Q57.7104-10.932 57.3492-11.1769L12.8607-36.6711Q12.7415-36.5138 12.614-36.2035Q12.4864-35.8933 12.4864-35.3423Q12.4864-34.8948 12.8036-34.3515Q13.1208-33.8083 13.8842-33.3354L55.7487-9.20777Q56.6324-8.74327 57.3399-8.41961Q58.0472-8.09594 58.7482-8.09594ZM58.7482 15.9476Q59.4451 15.9476 60.1192 15.6573Q60.7933 15.367 61.677 14.8359L103.542-9.28747Q104.376-9.69395 104.693-10.2393Q105.01-10.7845 105.01-11.2987Q105.01-11.7788 104.883-12.1224Q104.755-12.4659 104.636-12.6274L60.1432 12.9374Q59.782 13.1824 59.45 13.3007Q59.1179 13.4189 58.7482 13.4189Q58.3121 13.4189 58.0112 13.3007Q57.7104 13.1824 57.3492 12.9374L12.8607-12.6274Q12.7415-12.4659 12.614-12.1224Q12.4864-11.7788 12.4864-11.2987Q12.4864-10.7845 12.8036-10.2393Q13.1208-9.69395 13.8842-9.28747L55.7487 14.8359Q56.6324 15.367 57.3399 15.6573Q58.0472 15.9476 58.7482 15.9476Z"/>
  </g>
  <g id="Black-S" transform="matrix(1 0 0 1 2882.72 696)">
   <path d="M50.6836-26.6113Q52.2461-26.6113 53.8086-27.2705Q55.3711-27.9297 57.4707-29.1504L86.2793-45.752Q89.2578-47.4609 90.9668-49.5605Q92.6758-51.6602 92.6758-54.6875Q92.6758-57.7148 90.9668-59.8145Q89.2578-61.9141 86.2793-63.623L57.4707-80.2246Q55.3711-81.4453 53.8086-82.1045Q52.2461-82.7637 50.6836-82.7637Q49.1699-82.7637 47.583-82.1045Q45.9961-81.4453 43.8965-80.2246L15.0879-63.623Q12.1094-61.9141 10.4004-59.8145Q8.69141-57.7148 8.69141-54.6875Q8.69141-51.6602 10.4004-49.5605Q12.1094-47.4609 15.0879-45.752L43.8965-29.1504Q45.9961-27.9297 47.583-27.2705Q49.1699-26.6113 50.6836-26.6113ZM50.6836-7.08008Q52.2461-7.08008 53.8086-7.73926Q55.3711-8.39844 57.4707-9.61914L86.2793-26.3184Q89.2578-28.0273 90.9668-30.127Q92.6758-32.2266 92.6758-35.2539Q92.6758-37.6465 91.6016-39.4775Q90.5273-41.3086 88.5742-42.7734L56.3965-23.877Q54.6387-22.8516 53.3203-22.29Q52.002-21.7285 50.6836-21.7285Q49.3652-21.7285 48.0469-22.29Q46.7285-22.8516 44.9707-23.877L12.793-42.7734Q10.8398-41.3086 9.76562-39.4775Q8.69141-37.6465 8.69141-35.2539Q8.69141-32.2266 10.4004-30.127Q12.1094-28.0273 15.0879-26.3184L43.8965-9.61914Q45.9961-8.39844 47.583-7.73926Q49.1699-7.08008 50.6836-7.08008ZM50.6836 11.9629Q52.2461 11.9629 53.8086 11.3037Q55.3711 10.6445 57.4707 9.42383L86.2793-7.27539Q89.2578-8.98438 90.9668-11.084Q92.6758-13.1836 92.6758-16.2109Q92.6758-18.6035 91.6016-20.4346Q90.5273-22.2656 88.5742-23.7305L56.3965-4.83398Q54.6387-3.80859 53.3203-3.24707Q52.002-2.68555 50.6836-2.68555Q49.3652-2.68555 48.0469-3.24707Q46.7285-3.80859 44.9707-4.83398L12.793-23.7305Q10.8398-22.2656 9.76562-20.4346Q8.69141-18.6035 8.69141-16.2109Q8.69141-13.1836 10.4004-11.084Q12.1094-8.98438 15.0879-7.27539L43.8965 9.42383Q45.9961 10.6445 47.583 11.3037Q49.1699 11.9629 50.6836 11.9629Z"/>
  </g>
  <g id="Heavy-S" transform="matrix(1 0 0 1 2586.37 696)">
   <path d="M50.3263-26.7726Q51.8197-26.7726 53.3188-27.3742Q54.8179-27.9758 56.7907-29.1158L85.7722-45.8557Q88.6585-47.5185 90.2177-49.4337Q91.7769-51.349 91.7769-54.0652Q91.7769-56.7813 90.2177-58.6909Q88.6585-60.6003 85.7722-62.2631L56.7907-79.003Q54.8179-80.1546 53.3188-80.7504Q51.8197-81.3462 50.3263-81.3462Q48.8703-81.3462 47.3525-80.7504Q45.8348-80.1546 43.8734-79.003L14.8805-62.2631Q11.9942-60.6003 10.435-58.6909Q8.8758-56.7813 8.8758-54.0652Q8.8758-51.349 10.435-49.4337Q11.9942-47.5185 14.8805-45.8557L43.8734-29.1158Q45.8348-27.9758 47.3525-27.3742Q48.8703-26.7726 50.3263-26.7726ZM50.3263-7.43734Q51.7966-7.43734 53.2381-8.05618Q54.6796-8.67503 56.5948-9.79202L86.36-27.1482Q88.9121-28.6266 90.3445-30.467Q91.7769-32.3073 91.7769-34.8505Q91.7769-36.9896 90.7603-38.6305Q89.7436-40.2714 88.0326-41.5057L55.0597-22.2059Q53.613-21.3649 52.5136-20.9013Q51.4142-20.4378 50.3263-20.4378Q49.2384-20.4378 48.1448-20.9013Q47.0512-21.3649 45.6045-22.2059L12.6201-41.5057Q10.909-40.2714 9.89238-38.6305Q8.8758-36.9896 8.8758-34.8505Q8.8758-32.3073 10.314-30.4612Q11.7521-28.6151 14.3042-27.1482L44.0694-9.79202Q45.9846-8.67503 47.4447-8.05618Q48.9048-7.43734 50.3263-7.43734ZM50.3263 11.2138Q51.7966 11.2138 53.2381 10.5949Q54.6796 9.97609 56.5948 8.85913L86.36-8.50851Q88.9005-9.97548 90.3387-11.8158Q91.7769-13.6561 91.7769-16.1994Q91.7769-18.35 90.7603-19.9909Q89.7436-21.6318 88.0326-22.8546L55.0597-3.56629Q53.613-2.72529 52.5136-2.25597Q51.4142-1.78664 50.3263-1.78664Q49.2384-1.78664 48.1448-2.25597Q47.0512-2.72529 45.6045-3.56629L12.6201-22.8546Q10.909-21.6318 9.89238-19.9909Q8.8758-18.35 8.8758-16.1994Q8.8758-13.6561 10.314-11.8158Q11.7521-9.97548 14.3042-8.50851L44.0694 8.85913Q45.9846 9.97609 47.4447 10.5949Q48.9048 11.2138 50.3263 11.2138Z"/>
  </g>
  <g id="Bold-S" transform="matrix(1 0 0 1 2290.05 696)">
   <path d="M49.9267-26.9531Q51.3428-26.9531 52.771-27.4903Q54.1992-28.0274 56.0302-29.0772L85.2051-45.9717Q87.9883-47.583 89.3799-49.292Q90.7715-51.001 90.7715-53.3691Q90.7715-55.7373 89.3799-57.4341Q87.9883-59.1309 85.2051-60.7422L56.0302-77.6367Q54.1992-78.7109 52.771-79.2359Q51.3428-79.7607 49.9267-79.7607Q48.5351-79.7607 47.0947-79.2359Q45.6543-78.7109 43.8476-77.6367L14.6485-60.7422Q11.8652-59.1309 10.4737-57.4341Q9.08203-55.7373 9.08203-53.3691Q9.08203-51.001 10.4737-49.292Q11.8652-47.583 14.6485-45.9717L43.8476-29.0772Q45.6543-28.0274 47.0947-27.4903Q48.5351-26.9531 49.9267-26.9531ZM49.9267-7.83691Q51.2939-7.83691 52.6001-8.41064Q53.9062-8.98438 55.6152-9.98537L86.4502-28.0762Q88.5254-29.2969 89.6485-30.8472Q90.7715-32.3975 90.7715-34.3994Q90.7715-36.2549 89.8193-37.6831Q88.8672-39.1113 87.4267-40.0879L53.5644-20.337Q52.4658-19.7021 51.6113-19.3481Q50.7568-18.9942 49.9267-18.9942Q49.0967-18.9942 48.2544-19.3481Q47.4121-19.7021 46.3134-20.337L12.4268-40.0879Q10.9863-39.1113 10.0342-37.6831Q9.08203-36.2549 9.08203-34.3994Q9.08203-32.3975 10.2173-30.835Q11.3525-29.2724 13.4277-28.0762L44.2627-9.98537Q45.9717-8.98438 47.2901-8.41064Q48.6084-7.83691 49.9267-7.83691ZM49.9267 10.376Q51.2939 10.376 52.6001 9.80224Q53.9062 9.2285 55.6152 8.22754L86.4502-9.8877Q88.5009-11.084 89.6363-12.6343Q90.7715-14.1846 90.7715-16.1865Q90.7715-18.0664 89.8193-19.4947Q88.8672-20.9228 87.4267-21.875L53.5644-2.14844Q52.4658-1.51367 51.6113-1.14746Q50.7568-0.78125 49.9267-0.78125Q49.0967-0.78125 48.2544-1.14746Q47.4121-1.51367 46.3134-2.14844L12.4268-21.875Q10.9863-20.9228 10.0342-19.4947Q9.08203-18.0664 9.08203-16.1865Q9.08203-14.1846 10.2173-12.6343Q11.3525-11.084 13.4277-9.8877L44.2627 8.22754Q45.9717 9.2285 47.2901 9.80224Q48.6084 10.376 49.9267 10.376Z"/>
  </g>
  <g id="Semibold-S" transform="matrix(1 0 0 1 1993.62 696)">
   <path d="M49.6513-27.0775Q51.014-27.0775 52.3933-27.5702Q53.7726-28.0629 55.5059-29.0505L84.8141-46.0517Q87.5262-47.6274 88.8023-49.1942Q90.0783-50.7611 90.0783-52.8893Q90.0783-55.0175 88.8023-56.5676Q87.5262-58.1178 84.8141-59.6935L55.5059-76.6947Q53.7726-77.7156 52.3933-78.1917Q51.014-78.6677 49.6513-78.6677Q48.3041-78.6677 46.917-78.1917Q45.5299-77.7156 43.8299-76.6947L14.4885-59.6935Q11.7764-58.1178 10.5003-56.5676Q9.22422-55.0175 9.22422-52.8893Q9.22422-50.7611 10.5003-49.1942Q11.7764-47.6274 14.4885-46.0517L43.8299-29.0505Q45.5299-28.0629 46.917-27.5702Q48.3041-27.0775 49.6513-27.0775ZM49.6513-8.1124Q50.9474-8.1124 52.1602-8.65503Q53.373-9.19766 54.9399-10.1187L86.5124-28.716Q88.2588-29.759 89.1686-31.1094Q90.0783-32.4597 90.0783-34.0884Q90.0783-35.7484 89.1706-37.0299Q88.2629-38.3116 87.0091-39.1103L52.5336-19.0484Q51.6749-18.5558 50.9892-18.2772Q50.3036-17.9988 49.6513-17.9988Q48.9989-17.9988 48.3299-18.2772Q47.6609-18.5558 46.8022-19.0484L12.2934-39.1103Q11.0396-38.3116 10.1319-37.0299Q9.22422-35.7484 9.22422-34.0884Q9.22422-32.4597 10.1507-31.0927Q11.0771-29.7257 12.8235-28.716L44.396-10.1187Q45.9628-9.19766 47.1834-8.65503Q48.404-8.1124 49.6513-8.1124ZM49.6513 9.79834Q50.9474 9.79834 52.1602 9.25571Q53.373 8.71308 54.9399 7.79209L86.5124-10.8386Q88.2255-11.8482 89.1519-13.1986Q90.0783-14.5489 90.0783-16.1776Q90.0783-17.8709 89.1706-19.1525Q88.2629-20.4341 87.0091-21.1996L52.5336-1.1709Q51.6749-0.678319 50.9892-0.383203Q50.3036-0.0880848 49.6513-0.0880848Q48.9989-0.0880848 48.3299-0.383203Q47.6609-0.678319 46.8022-1.1709L12.2934-21.1996Q11.0396-20.4341 10.1319-19.1525Q9.22422-17.8709 9.22422-16.1776Q9.22422-14.5489 10.1507-13.1986Q11.0771-11.8482 12.8235-10.8386L44.396 7.79209Q45.9628 8.71308 47.1834 9.25571Q48.404 9.79834 49.6513 9.79834Z"/>
  </g>
  <g id="Medium-S" transform="matrix(1 0 0 1 1697.11 696)">
   <path d="M49.4424-27.1719Q50.7647-27.1719 52.1069-27.6309Q53.4492-28.0898 55.1084-29.0303L84.5176-46.1123Q87.1758-47.6611 88.3643-49.1201Q89.5527-50.5791 89.5527-52.5254Q89.5527-54.4717 88.3643-55.9106Q87.1758-57.3497 84.5176-58.8984L55.1084-75.9804Q53.4492-76.961 52.1069-77.3999Q50.7647-77.8389 49.4424-77.8389Q48.1289-77.8389 46.7822-77.3999Q45.4355-76.961 43.8164-75.9804L14.3672-58.8984Q11.709-57.3497 10.5205-55.9106Q9.33203-54.4717 9.33203-52.5254Q9.33203-50.5791 10.5205-49.1201Q11.709-47.6611 14.3672-46.1123L43.8164-29.0303Q45.4355-28.0898 46.7822-27.6309Q48.1289-27.1719 49.4424-27.1719ZM49.4424-8.32129Q50.6846-8.32129 51.8267-8.84033Q52.9687-9.35937 54.4278-10.2198L86.5596-29.2012Q88.0567-30.1094 88.8047-31.3081Q89.5527-32.5069 89.5527-33.8525Q89.5527-35.3643 88.6787-36.5347Q87.8047-37.7051 86.6924-38.3691L51.7519-18.0713Q51.0752-17.6865 50.5175-17.4653Q49.96-17.2442 49.4424-17.2442Q48.9248-17.2442 48.3872-17.4653Q47.8496-17.6865 47.1728-18.0713L12.1924-38.3691Q11.0801-37.7051 10.206-36.5347Q9.33203-35.3643 9.33203-33.8525Q9.33203-32.5069 10.1001-31.2881Q10.8682-30.0693 12.3653-29.2012L44.4971-10.2198Q45.9561-9.35937 47.1026-8.84033Q48.249-8.32129 49.4424-8.32129ZM49.4424 9.36035Q50.6846 9.36035 51.8267 8.84131Q52.9687 8.32226 54.4278 7.46191L86.5596-11.5596Q88.0166-12.4277 88.7847-13.6265Q89.5527-14.8252 89.5527-16.1709Q89.5527-17.7227 88.6787-18.8931Q87.8047-20.0635 86.6924-20.6875L51.7519-0.429687Q51.0752-0.0449212 50.5175 0.196289Q49.96 0.437502 49.4424 0.437502Q48.9248 0.437502 48.3872 0.196289Q47.8496-0.0449212 47.1728-0.429687L12.1924-20.6875Q11.0801-20.0635 10.206-18.8931Q9.33203-17.7227 9.33203-16.1709Q9.33203-14.8252 10.1001-13.6265Q10.8682-12.4277 12.3653-11.5596L44.4971 7.46191Q45.9561 8.32226 47.1026 8.84131Q48.249 9.36035 49.4424 9.36035Z"/>
  </g>
  <g id="Regular-S" transform="matrix(1 0 0 1 1400.67 696)">
   <path d="M49.1699-27.2949Q50.4395-27.2949 51.7334-27.71Q53.0273-28.125 54.5898-29.0039L84.1309-46.1914Q86.7188-47.7051 87.793-49.0234Q88.8672-50.3418 88.8672-52.0508Q88.8672-53.7598 87.793-55.0537Q86.7188-56.3477 84.1309-57.8613L54.5898-75.0488Q53.0273-75.9766 51.7334-76.3672Q50.4395-76.7578 49.1699-76.7578Q47.9004-76.7578 46.6064-76.3672Q45.3125-75.9766 43.7988-75.0488L14.209-57.8613Q11.6211-56.3477 10.5469-55.0537Q9.47266-53.7598 9.47266-52.0508Q9.47266-50.3418 10.5469-49.0234Q11.6211-47.7051 14.209-46.1914L43.7988-29.0039Q45.3125-28.125 46.6064-27.71Q47.9004-27.2949 49.1699-27.2949ZM49.1699-8.59375Q50.3418-8.59375 51.3916-9.08203Q52.4414-9.57031 53.7598-10.3516L86.6211-29.834Q87.793-30.5664 88.3301-31.5674Q88.8672-32.5684 88.8672-33.5449Q88.8672-34.8633 88.0371-35.8887Q87.207-36.9141 86.2793-37.4023L50.7324-16.7969Q50.293-16.5527 49.9023-16.4062Q49.5117-16.2598 49.1699-16.2598Q48.8281-16.2598 48.4619-16.4062Q48.0957-16.5527 47.6562-16.7969L12.0605-37.4023Q11.1328-36.9141 10.3027-35.8887Q9.47266-34.8633 9.47266-33.5449Q9.47266-32.5684 10.0342-31.543Q10.5957-30.5176 11.7676-29.834L44.6289-10.3516Q45.9473-9.57031 46.9971-9.08203Q48.0469-8.59375 49.1699-8.59375ZM49.1699 8.78906Q50.3418 8.78906 51.3916 8.30078Q52.4414 7.8125 53.7598 7.03125L86.6211-12.5Q87.7441-13.1836 88.3057-14.1846Q88.8672-15.1855 88.8672-16.1621Q88.8672-17.5293 88.0371-18.5547Q87.207-19.5801 86.2793-20.0195L50.7324 0.537109Q50.293 0.78125 49.9023 0.952148Q49.5117 1.12305 49.1699 1.12305Q48.8281 1.12305 48.4619 0.952148Q48.0957 0.78125 47.6562 0.537109L12.0605-20.0195Q11.1328-19.5801 10.3027-18.5547Q9.47266-17.5293 9.47266-16.1621Q9.47266-15.1855 10.0342-14.1846Q10.5957-13.1836 11.7676-12.5L44.6289 7.03125Q45.9473 7.8125 46.9971 8.30078Q48.0469 8.78906 49.1699 8.78906Z"/>
  </g>
  <g id="Light-S" transform="matrix(1 0 0 1 1104.94 696)">
   <path d="M48.1933-29.2318Q49.2513-29.2318 50.3011-29.5899Q51.3509-29.9479 52.6367-30.6641L82.8614-48.2096Q84.9447-49.4141 85.8643-50.5127Q86.7839-51.6113 86.7839-53.0599Q86.7839-54.5248 85.8643-55.599Q84.9447-56.6732 82.8614-57.9101L52.6367-75.4394Q51.3509-76.2045 50.3011-76.5381Q49.2513-76.8717 48.1933-76.8717Q47.1517-76.8717 46.0937-76.5381Q45.0358-76.2045 43.7825-75.4394L13.5254-57.9101Q11.4421-56.6732 10.5225-55.599Q9.60287-54.5248 9.60287-53.0599Q9.60287-51.6113 10.5225-50.5127Q11.4421-49.4141 13.5254-48.2096L43.7825-30.6641Q45.0358-29.9479 46.0937-29.5899Q47.1517-29.2318 48.1933-29.2318ZM48.1933-10.2702Q49.1699-10.2702 50.057-10.6852Q50.944-11.1003 52.0671-11.7513L84.9121-31.0547Q85.9212-31.6732 86.3688-32.4951Q86.8164-33.3171 86.8164-34.0983Q86.8164-35.14 86.2142-35.9212Q85.612-36.7025 84.9447-37.0768L49.6094-16.6667Q49.2188-16.4388 48.8688-16.3004Q48.5189-16.1621 48.1933-16.1621Q47.8515-16.1621 47.526-16.3004Q47.2005-16.4388 46.8099-16.6667L11.442-37.0768Q10.7747-36.7025 10.1725-35.9212Q9.57031-35.14 9.57031-34.0983Q9.57031-33.3171 10.0342-32.4789Q10.498-31.6406 11.4909-31.0547L44.3359-11.7513Q45.459-11.1003 46.3542-10.6852Q47.2494-10.2702 48.1933-10.2702ZM48.1933 7.56836Q49.1699 7.56836 50.057 7.16146Q50.944 6.75456 52.0671 6.08724L84.9121-13.2487Q85.8886-13.8184 86.3526-14.6403Q86.8164-15.4622 86.8164-16.2598Q86.8164-17.3177 86.2142-18.1071Q85.612-18.8965 84.9447-19.2383L49.6094 1.1556Q49.2188 1.38346 48.8688 1.52995Q48.5189 1.67643 48.1933 1.67643Q47.8515 1.67643 47.526 1.52995Q47.2005 1.38346 46.8099 1.1556L11.442-19.2383Q10.7747-18.8965 10.1725-18.1071Q9.57031-17.3177 9.57031-16.2598Q9.57031-15.4622 10.0342-14.6403Q10.498-13.8184 11.4909-13.2487L44.3359 6.08724Q45.459 6.75456 46.3542 7.16146Q47.2494 7.56836 48.1933 7.56836Z"/>
  </g>
  <g id="Thin-S" transform="matrix(1 0 0 1 809.521 696)">
   <path d="M46.9017-31.7934Q47.6799-31.7934 48.4068-32.0761Q49.1336-32.3589 50.0536-32.8598L81.1823-50.8789Q82.5983-51.6743 83.3134-52.4823Q84.0285-53.2904 84.0285-54.3945Q84.0285-55.5365 83.3134-56.3201Q82.5983-57.1037 81.1823-57.9747L50.0536-75.9561Q49.1336-76.5058 48.4068-76.7641Q47.6799-77.0224 46.9017-77.0224Q46.1615-77.0224 45.4157-76.7641Q44.6698-76.5058 43.761-75.9561L12.6213-57.9747Q11.2053-57.1037 10.4902-56.3201Q9.77508-55.5365 9.77508-54.3945Q9.77508-53.2904 10.4902-52.4823Q11.2053-51.6743 12.6213-50.8789L43.761-32.8598Q44.6698-32.3589 45.4157-32.0761Q46.1615-31.7934 46.9017-31.7934ZM46.9017-12.4874Q47.62-12.4874 48.2918-12.8056Q48.9636-13.1238 49.8283-13.6026L82.6518-32.6692Q83.4457-33.137 83.7749-33.7221Q84.1041-34.3073 84.1041-34.8302Q84.1041-35.506 83.8033-35.9643Q83.5024-36.4226 83.1795-36.6463L48.1241-16.4944Q47.798-16.2881 47.5019-16.1605Q47.2058-16.033 46.9017-16.033Q46.5599-16.033 46.2883-16.1605Q46.0166-16.2881 45.6905-16.4944L10.6241-36.6463Q10.3012-36.4226 10.0003-35.9643Q9.69947-35.506 9.69947-34.8302Q9.69947-34.3073 10.0342-33.7166Q10.3689-33.1259 11.1249-32.6692L43.9485-13.6026Q44.8132-13.1238 45.5039-12.8056Q46.1946-12.4874 46.9017-12.4874ZM46.9017 5.95388Q47.62 5.95388 48.2918 5.65461Q48.9636 5.35534 49.8283 4.83871L82.6518-14.2389Q83.4346-14.6579 83.7694-15.2431Q84.1041-15.8282 84.1041-16.3889Q84.1041-17.0378 83.8033-17.5151Q83.5024-17.9924 83.1795-18.205L48.1241 1.9736Q47.798 2.17994 47.5019 2.29414Q47.2058 2.40833 46.9017 2.40833Q46.5599 2.40833 46.2883 2.29414Q46.0166 2.17994 45.6905 1.9736L10.6241-18.205Q10.3012-17.9924 10.0003-17.5151Q9.69947-17.0378 9.69947-16.3889Q9.69947-15.8282 10.0342-15.2431Q10.3689-14.6579 11.1249-14.2389L43.9485 4.83871Q44.8132 5.35534 45.5039 5.65461Q46.1946 5.95388 46.9017 5.95388Z"/>
  </g>
  <g id="Ultralight-S" transform="matrix(1 0 0 1 513.471 696)">
   <path d="M46.2402-33.1055Q46.875-33.1055 47.4365-33.3496Q47.998-33.5938 48.7305-33.9844L80.3223-52.2461Q81.3965-52.832 82.0068-53.4912Q82.6172-54.1504 82.6172-55.0781Q82.6172-56.0547 82.0068-56.6895Q81.3965-57.3242 80.3223-58.0078L48.7305-76.2207Q47.998-76.6602 47.4365-76.8799Q46.875-77.0996 46.2402-77.0996Q45.6543-77.0996 45.0684-76.8799Q44.4824-76.6602 43.75-76.2207L12.1582-58.0078Q11.084-57.3242 10.4736-56.6895Q9.86328-56.0547 9.86328-55.0781Q9.86328-54.1504 10.4736-53.4912Q11.084-52.832 12.1582-52.2461L43.75-33.9844Q44.4824-33.5938 45.0684-33.3496Q45.6543-33.1055 46.2402-33.1055ZM46.2402-13.623Q46.8262-13.623 47.3877-13.8916Q47.9492-14.1602 48.6816-14.5508L81.4941-33.4961Q82.1777-33.8867 82.4463-34.3506Q82.7148-34.8145 82.7148-35.2051Q82.7148-35.6934 82.5684-35.9863Q82.4219-36.2793 82.2754-36.4258L47.3633-16.4062Q47.0703-16.2109 46.8018-16.0889Q46.5332-15.9668 46.2402-15.9668Q45.8984-15.9668 45.6543-16.0889Q45.4102-16.2109 45.1172-16.4062L10.2051-36.4258Q10.0586-36.2793 9.91211-35.9863Q9.76562-35.6934 9.76562-35.2051Q9.76562-34.8145 10.0342-34.3506Q10.3027-33.8867 10.9375-33.4961L43.75-14.5508Q44.4824-14.1602 45.0684-13.8916Q45.6543-13.623 46.2402-13.623ZM46.2402 5.12695Q46.8262 5.12695 47.3877 4.88281Q47.9492 4.63867 48.6816 4.19922L81.4941-14.7461Q82.1777-15.0879 82.4463-15.5518Q82.7148-16.0156 82.7148-16.4551Q82.7148-16.8945 82.5684-17.2119Q82.4219-17.5293 82.2754-17.6758L47.3633 2.39258Q47.0703 2.58789 46.8018 2.68555Q46.5332 2.7832 46.2402 2.7832Q45.8984 2.7832 45.6543 2.68555Q45.4102 2.58789 45.1172 2.39258L10.2051-17.6758Q10.0586-17.5293 9.91211-17.2119Q9.76562-16.8945 9.76562-16.4551Q9.76562-16.0156 10.0342-15.5518Q10.3027-15.0879 10.9375-14.7461L43.75 4.19922Q44.4824 4.63867 45.0684 4.88281Q45.6543 5.12695 46.2402 5.12695Z"/>
  </g>
 </g>
</svg>
