<?xml version="1.0" encoding="UTF-8"?><svg xmlns="http://www.w3.org/2000/svg" viewBox="0 0 1692 854"><defs><style>.d{fill:#fff;}.e{fill:#f16e00;}.f{fill:#ff7900;}.g{fill:#1b1b1b;}</style></defs><g id="a"/><g id="b"><g id="c"><rect class="g" width="1692" height="854"/><g><g><rect class="e" x="181.02" y="518.78" width="141.7" height="9.1" rx="3.5" ry="3.5"/><path class="f" d="M257.28,330.05l13.34,41.06c.76,2.35,2.95,3.93,5.41,3.93h43.17c5.51,0,7.81,7.06,3.35,10.3l-34.93,25.38c-2,1.45-2.83,4.02-2.07,6.36l13.34,41.06c1.7,5.24-4.3,9.61-8.76,6.36l-34.93-25.38c-2-1.45-4.7-1.45-6.69,0l-34.93,25.38c-4.46,3.24-10.46-1.12-8.76-6.36l13.34-41.06c.76-2.35-.07-4.91-2.07-6.36l-34.93-25.38c-4.46-3.24-2.17-10.3,3.35-10.3h43.17c2.47,0,4.65-1.59,5.41-3.93l13.34-41.06c1.7-5.24,9.12-5.24,10.83,0Z"/></g><g><rect class="d" x="577.11" y="518.78" width="141.7" height="9.1" rx="3.5" ry="3.5"/><path class="d" d="M653.37,330.05l13.34,41.06c.76,2.35,2.95,3.93,5.41,3.93h43.17c5.51,0,7.81,7.06,3.35,10.3l-34.93,25.38c-2,1.45-2.83,4.02-2.07,6.36l13.34,41.06c1.7,5.24-4.3,9.61-8.76,6.36l-34.93-25.38c-2-1.45-4.7-1.45-6.69,0l-34.93,25.38c-4.46,3.24-10.46-1.12-8.76-6.36l13.34-41.06c.76-2.35-.07-4.91-2.07-6.36l-34.93-25.38c-4.46-3.24-2.17-10.3,3.35-10.3h43.17c2.47,0,4.65-1.59,5.41-3.93l13.34-41.06c1.7-5.24,9.12-5.24,10.83,0Z"/></g><g><rect class="d" x="973.2" y="518.78" width="141.7" height="9.1" rx="3.5" ry="3.5"/><path class="d" d="M1049.46,330.05l13.34,41.06c.76,2.35,2.95,3.93,5.41,3.93h43.17c5.51,0,7.81,7.06,3.35,10.3l-34.93,25.38c-2,1.45-2.83,4.02-2.07,6.36l13.34,41.06c1.7,5.24-4.3,9.61-8.76,6.36l-34.93-25.38c-2-1.45-4.7-1.45-6.69,0l-34.93,25.38c-4.46,3.24-10.46-1.12-8.76-6.36l13.34-41.06c.76-2.35-.07-4.91-2.07-6.36l-34.93-25.38c-4.46-3.24-2.17-10.3,3.35-10.3h43.17c2.47,0,4.65-1.59,5.41-3.93l13.34-41.06c1.7-5.24,9.12-5.24,10.83,0Z"/></g><g><rect class="d" x="1369.29" y="518.78" width="141.7" height="9.1" rx="3.5" ry="3.5"/><rect class="d" x="1369.29" y="518.78" width="141.7" height="9.1" rx="3.5" ry="3.5"/><path class="d" d="M1445.55,330.05l13.34,41.06c.76,2.35,2.95,3.93,5.41,3.93h43.17c5.51,0,7.81,7.06,3.35,10.3l-34.93,25.38c-2,1.45-2.83,4.02-2.07,6.36l13.34,41.06c1.7,5.24-4.3,9.61-8.76,6.36l-34.93-25.38c-2-1.45-4.7-1.45-6.69,0l-34.93,25.38c-4.46,3.24-10.46-1.12-8.76-6.36l13.34-41.06c.76-2.35-.07-4.91-2.07-6.36l-34.93-25.38c-4.46-3.24-2.17-10.3,3.35-10.3h43.17c2.47,0,4.65-1.59,5.41-3.93l13.34-41.06c1.7-5.24,9.12-5.24,10.83,0Z"/></g></g></g></g></svg>