<?xml version="1.0" encoding="UTF-8"?>
<svg width="24px" height="24px" viewBox="0 0 24 24" version="1.1" xmlns="http://www.w3.org/2000/svg" xmlns:xlink="http://www.w3.org/1999/xlink">
    <title>icons/communication/#-D/mdpi/ic_Data_Protection</title>
    <g id="icons/communication/#-D/ic_Data_Protection" stroke="none" stroke-width="1" fill="none" fill-rule="evenodd">
        <path d="M12,1.79999996 C9.84011999,3.30650396 7.15547998,4.19932797 4.24615197,4.19932797 L3.59999996,4.19999997 L3.59999996,10.8 C3.59999996,15.2376 6.18458398,20.4 12,22.2 C17.815392,20.4 20.4,15.2376 20.4,10.8 L20.4,4.19999997 L19.753848,4.19999997 C16.844544,4.19999997 14.159856,3.30650396 12,1.79999996 L12,1.79999996 Z M14.251992,10.253256 C12.979086,11.4478581 10.997034,11.4478581 9.72412799,10.253256 C8.70925631,10.8038635 8.06698527,11.8558166 8.04091198,13.010136 L8.03999998,13.010136 L8.03999998,16.016472 C8.04054064,16.3966822 8.19209889,16.7611047 8.46133289,17.0295691 C8.73056689,17.2980334 9.09542184,17.4485478 9.47563199,17.4480015 L15.936,17.4480015 L15.936,13.081824 C15.9357202,11.9015272 15.2894725,10.816048 14.251992,10.253256 Z M14.572152,7.85675998 C14.572152,9.27995999 13.41516,10.433496 11.988,10.433496 C10.56084,10.433496 9.40384799,9.27986399 9.40384799,7.85675998 C9.40384799,6.43365598 10.560816,5.27999997 11.988,5.27999997 C13.415184,5.27999997 14.572152,6.43365598 14.572152,7.85675998 Z" fill="#000000"></path>
    </g>
</svg>