<svg width="44" height="44" viewBox="0 0 44 44" xmlns="http://www.w3.org/2000/svg">
    <path d="M12.823 29.7h18.354a.16.16 0 0 0 .105-.039c1.962-1.698 3.318-3.93 3.76-6.428a.16.16 0 0 1 .158-.133 5.5 5.5 0 0 0 .153-10.998.158.158 0 0 1-.153-.158v-.871c0-.648-.525-1.173-1.173-1.173H15.4v4.242c0 .087.07.158.158.158h.958a1.087 1.087 0 0 1 1.084 1.084v4.432a1.087 1.087 0 0 1-1.084 1.084h-3.332a1.087 1.087 0 0 1-1.084-1.084v-4.432a1.087 1.087 0 0 1 1.084-1.084h.958c.087 0 .158-.07.158-.158V9.9H9.973c-.648 0-1.173.525-1.173 1.173v9.865a.998.998 0 0 0 .008.137c-.005.125-.008.25-.008.375 0 3.212 1.5 6.118 3.918 8.211a.16.16 0 0 0 .105.039zM38.5 17.6a3.3 3.3 0 0 1-3.135 3.296.158.158 0 0 1-.165-.159v-6.274a.158.158 0 0 1 .165-.159A3.3 3.3 0 0 1 38.5 17.6zm-24.2-1.1h1.1a1.1 1.1 0 0 1 1.1 1.1v1.1a1.1 1.1 0 0 1-1.1 1.1h-1.1a1.1 1.1 0 0 1-1.1-1.1v-1.1a1.1 1.1 0 0 1 1.1-1.1zm25.3 14.3H4.4a1.1 1.1 0 0 0-1.1 1.1c0 .26 3.005 1.939 9.902 2.797a.552.552 0 0 0 .548.503h16.5c.303 0 .55-.247.55-.55v-.015c6.461-.875 9.9-2.48 9.9-2.735a1.1 1.1 0 0 0-1.1-1.1z" fill="#000" fill-rule="evenodd"/>
</svg>
