<?xml version="1.0" encoding="UTF-8"?>
<!--Generator: Apple Native CoreSVG 175-->
<!DOCTYPE svg
PUBLIC "-//W3C//DTD SVG 1.1//EN"
       "http://www.w3.org/Graphics/SVG/1.1/DTD/svg11.dtd">
<svg version="1.1" xmlns="http://www.w3.org/2000/svg" xmlns:xlink="http://www.w3.org/1999/xlink" width="3300" height="2200">
 <!--glyph: "", point size: 100.0, font version: "17.0d11e1", template writer version: "65.1"-->
 <g id="Notes">
  <rect height="2200" id="artboard" style="fill:white;opacity:1" width="3300" x="0" y="0"/>
  <line style="fill:none;stroke:black;opacity:1;stroke-width:0.5;" x1="263" x2="3036" y1="292" y2="292"/>
  <text style="stroke:none;fill:black;font-family:sans-serif;font-size:13;font-weight:bold;" transform="matrix(1 0 0 1 263 322)">Weight/Scale Variations</text>
  <text style="stroke:none;fill:black;font-family:sans-serif;font-size:13;text-anchor:middle;" transform="matrix(1 0 0 1 559.711 322)">Ultralight</text>
  <text style="stroke:none;fill:black;font-family:sans-serif;font-size:13;text-anchor:middle;" transform="matrix(1 0 0 1 856.422 322)">Thin</text>
  <text style="stroke:none;fill:black;font-family:sans-serif;font-size:13;text-anchor:middle;" transform="matrix(1 0 0 1 1153.13 322)">Light</text>
  <text style="stroke:none;fill:black;font-family:sans-serif;font-size:13;text-anchor:middle;" transform="matrix(1 0 0 1 1449.84 322)">Regular</text>
  <text style="stroke:none;fill:black;font-family:sans-serif;font-size:13;text-anchor:middle;" transform="matrix(1 0 0 1 1746.56 322)">Medium</text>
  <text style="stroke:none;fill:black;font-family:sans-serif;font-size:13;text-anchor:middle;" transform="matrix(1 0 0 1 2043.27 322)">Semibold</text>
  <text style="stroke:none;fill:black;font-family:sans-serif;font-size:13;text-anchor:middle;" transform="matrix(1 0 0 1 2339.98 322)">Bold</text>
  <text style="stroke:none;fill:black;font-family:sans-serif;font-size:13;text-anchor:middle;" transform="matrix(1 0 0 1 2636.69 322)">Heavy</text>
  <text style="stroke:none;fill:black;font-family:sans-serif;font-size:13;text-anchor:middle;" transform="matrix(1 0 0 1 2933.4 322)">Black</text>
  <line style="fill:none;stroke:black;opacity:1;stroke-width:0.5;" x1="263" x2="3036" y1="1903" y2="1903"/>
  <g transform="matrix(1 0 0 1 263 1933)">
   <path d="M9.24805 0.830078Q10.8691 0.830078 12.2949 0.214844Q13.7207-0.400391 14.8096-1.49414Q15.8984-2.58789 16.5186-4.01367Q17.1387-5.43945 17.1387-7.05078Q17.1387-8.66211 16.5186-10.0879Q15.8984-11.5137 14.8047-12.6074Q13.7109-13.7012 12.2852-14.3164Q10.8594-14.9316 9.23828-14.9316Q7.62695-14.9316 6.20117-14.3164Q4.77539-13.7012 3.69141-12.6074Q2.60742-11.5137 1.9873-10.0879Q1.36719-8.66211 1.36719-7.05078Q1.36719-5.43945 1.9873-4.01367Q2.60742-2.58789 3.69629-1.49414Q4.78516-0.400391 6.21094 0.214844Q7.63672 0.830078 9.24805 0.830078ZM9.24805-0.654297Q7.91992-0.654297 6.7627-1.14746Q5.60547-1.64062 4.73145-2.51953Q3.85742-3.39844 3.36426-4.56055Q2.87109-5.72266 2.87109-7.05078Q2.87109-8.37891 3.35938-9.54102Q3.84766-10.7031 4.72168-11.582Q5.5957-12.4609 6.75293-12.9541Q7.91016-13.4473 9.23828-13.4473Q10.5762-13.4473 11.7334-12.9541Q12.8906-12.4609 13.7695-11.582Q14.6484-10.7031 15.1465-9.54102Q15.6445-8.37891 15.6445-7.05078Q15.6445-5.72266 15.1514-4.56055Q14.6582-3.39844 13.7842-2.51953Q12.9102-1.64062 11.748-1.14746Q10.5859-0.654297 9.24805-0.654297ZM5.6543-7.05078Q5.6543-6.72852 5.85938-6.52832Q6.06445-6.32812 6.40625-6.32812L8.51562-6.32812L8.51562-4.20898Q8.51562-3.88672 8.71094-3.67676Q8.90625-3.4668 9.23828-3.4668Q9.56055-3.4668 9.77051-3.67676Q9.98047-3.88672 9.98047-4.20898L9.98047-6.32812L12.0898-6.32812Q12.4219-6.32812 12.627-6.52832Q12.832-6.72852 12.832-7.05078Q12.832-7.38281 12.627-7.58789Q12.4219-7.79297 12.0898-7.79297L9.98047-7.79297L9.98047-9.90234Q9.98047-10.2344 9.77051-10.4443Q9.56055-10.6543 9.23828-10.6543Q8.90625-10.6543 8.71094-10.4443Q8.51562-10.2344 8.51562-9.90234L8.51562-7.79297L6.40625-7.79297Q6.06445-7.79297 5.85938-7.58789Q5.6543-7.38281 5.6543-7.05078Z"/>
  </g>
  <g transform="matrix(1 0 0 1 281.867 1933)">
   <path d="M11.709 2.91016Q13.75 2.91016 15.5518 2.12891Q17.3535 1.34766 18.7305-0.0292969Q20.1074-1.40625 20.8887-3.20801Q21.6699-5.00977 21.6699-7.05078Q21.6699-9.0918 20.8887-10.8936Q20.1074-12.6953 18.7305-14.0723Q17.3535-15.4492 15.5469-16.2305Q13.7402-17.0117 11.6992-17.0117Q9.6582-17.0117 7.85645-16.2305Q6.05469-15.4492 4.68262-14.0723Q3.31055-12.6953 2.5293-10.8936Q1.74805-9.0918 1.74805-7.05078Q1.74805-5.00977 2.5293-3.20801Q3.31055-1.40625 4.6875-0.0292969Q6.06445 1.34766 7.86621 2.12891Q9.66797 2.91016 11.709 2.91016ZM11.709 1.25Q9.98047 1.25 8.47656 0.605469Q6.97266-0.0390625 5.83496-1.17676Q4.69727-2.31445 4.05762-3.81836Q3.41797-5.32227 3.41797-7.05078Q3.41797-8.7793 4.05762-10.2832Q4.69727-11.7871 5.83008-12.9297Q6.96289-14.0723 8.4668-14.7119Q9.9707-15.3516 11.6992-15.3516Q13.4277-15.3516 14.9316-14.7119Q16.4355-14.0723 17.5781-12.9297Q18.7207-11.7871 19.3652-10.2832Q20.0098-8.7793 20.0098-7.05078Q20.0098-5.32227 19.3701-3.81836Q18.7305-2.31445 17.5928-1.17676Q16.4551-0.0390625 14.9463 0.605469Q13.4375 1.25 11.709 1.25ZM7.17773-7.05078Q7.17773-6.69922 7.41211-6.47461Q7.64648-6.25 8.01758-6.25L10.8887-6.25L10.8887-3.36914Q10.8887-2.99805 11.1133-2.76855Q11.3379-2.53906 11.6895-2.53906Q12.0605-2.53906 12.29-2.76855Q12.5195-2.99805 12.5195-3.36914L12.5195-6.25L15.4004-6.25Q15.7715-6.25 16.001-6.47461Q16.2305-6.69922 16.2305-7.05078Q16.2305-7.42188 16.001-7.65137Q15.7715-7.88086 15.4004-7.88086L12.5195-7.88086L12.5195-10.752Q12.5195-11.1328 12.29-11.3623Q12.0605-11.5918 11.6895-11.5918Q11.3379-11.5918 11.1133-11.3574Q10.8887-11.123 10.8887-10.752L10.8887-7.88086L8.01758-7.88086Q7.63672-7.88086 7.40723-7.65137Q7.17773-7.42188 7.17773-7.05078Z"/>
  </g>
  <g transform="matrix(1 0 0 1 305.646 1933)">
   <path d="M14.9707 5.66406Q17.0605 5.66406 18.96 5.01465Q20.8594 4.36523 22.4512 3.19336Q24.043 2.02148 25.2197 0.429688Q26.3965-1.16211 27.0459-3.06641Q27.6953-4.9707 27.6953-7.05078Q27.6953-9.14062 27.0459-11.04Q26.3965-12.9395 25.2197-14.5312Q24.043-16.123 22.4512-17.2998Q20.8594-18.4766 18.9551-19.126Q17.0508-19.7754 14.9609-19.7754Q12.8711-19.7754 10.9717-19.126Q9.07227-18.4766 7.48535-17.2998Q5.89844-16.123 4.72168-14.5312Q3.54492-12.9395 2.90039-11.04Q2.25586-9.14062 2.25586-7.05078Q2.25586-4.9707 2.90527-3.06641Q3.55469-1.16211 4.72656 0.429688Q5.89844 2.02148 7.49023 3.19336Q9.08203 4.36523 10.9814 5.01465Q12.8809 5.66406 14.9707 5.66406ZM14.9707 3.84766Q13.1641 3.84766 11.5283 3.2959Q9.89258 2.74414 8.53516 1.74805Q7.17773 0.751953 6.17676-0.610352Q5.17578-1.97266 4.62891-3.6084Q4.08203-5.24414 4.08203-7.05078Q4.08203-8.86719 4.62891-10.5029Q5.17578-12.1387 6.17188-13.501Q7.16797-14.8633 8.52539-15.8594Q9.88281-16.8555 11.5186-17.4023Q13.1543-17.9492 14.9609-17.9492Q16.7773-17.9492 18.4131-17.4023Q20.0488-16.8555 21.4111-15.8594Q22.7734-14.8633 23.7695-13.501Q24.7656-12.1387 25.3174-10.5029Q25.8691-8.86719 25.8691-7.05078Q25.8789-5.24414 25.332-3.6084Q24.7852-1.97266 23.7842-0.610352Q22.7832 0.751953 21.4209 1.74805Q20.0586 2.74414 18.4229 3.2959Q16.7871 3.84766 14.9707 3.84766ZM9.19922-7.05078Q9.19922-6.66992 9.45801-6.4209Q9.7168-6.17188 10.1172-6.17188L14.0625-6.17188L14.0625-2.2168Q14.0625-1.81641 14.3115-1.55762Q14.5605-1.29883 14.9512-1.29883Q15.3516-1.29883 15.6104-1.55273Q15.8691-1.80664 15.8691-2.2168L15.8691-6.17188L19.8242-6.17188Q20.2246-6.17188 20.4785-6.4209Q20.7324-6.66992 20.7324-7.05078Q20.7324-7.46094 20.4785-7.71484Q20.2246-7.96875 19.8242-7.96875L15.8691-7.96875L15.8691-11.9141Q15.8691-12.3242 15.6104-12.583Q15.3516-12.8418 14.9512-12.8418Q14.5605-12.8418 14.3115-12.583Q14.0625-12.3242 14.0625-11.9141L14.0625-7.96875L10.1172-7.96875Q9.70703-7.96875 9.45312-7.71484Q9.19922-7.46094 9.19922-7.05078Z"/>
  </g>
  <text style="stroke:none;fill:black;font-family:sans-serif;font-size:13;font-weight:bold;" transform="matrix(1 0 0 1 263 1953)">Design Variations</text>
  <text style="stroke:none;fill:black;font-family:sans-serif;font-size:13;" transform="matrix(1 0 0 1 263 1971)">Symbols are supported in up to nine weights and three scales.</text>
  <text style="stroke:none;fill:black;font-family:sans-serif;font-size:13;" transform="matrix(1 0 0 1 263 1989)">For optimal layout with text and other symbols, vertically align</text>
  <text style="stroke:none;fill:black;font-family:sans-serif;font-size:13;" transform="matrix(1 0 0 1 263 2007)">symbols with the adjacent text.</text>
  <line style="fill:none;stroke:#00AEEF;stroke-width:0.5;opacity:1.0;" x1="776" x2="776" y1="1919" y2="1933"/>
  <g transform="matrix(1 0 0 1 776 1933)">
   <path d="M3.31055 0.15625Q3.70117 0.15625 3.91602-0.00976562Q4.13086-0.175781 4.26758-0.585938L5.52734-4.0332L11.2891-4.0332L12.5488-0.585938Q12.6855-0.175781 12.9004-0.00976562Q13.1152 0.15625 13.4961 0.15625Q13.8867 0.15625 14.1162-0.0585938Q14.3457-0.273438 14.3457-0.644531Q14.3457-0.869141 14.2383-1.17188L9.6582-13.3691Q9.48242-13.8184 9.17969-14.043Q8.87695-14.2676 8.4082-14.2676Q7.5-14.2676 7.17773-13.3789L2.59766-1.16211Q2.49023-0.859375 2.49023-0.634766Q2.49023-0.263672 2.70996-0.0537109Q2.92969 0.15625 3.31055 0.15625ZM6.00586-5.51758L8.37891-12.0898L8.42773-12.0898L10.8008-5.51758Z"/>
  </g>
  <line style="fill:none;stroke:#00AEEF;stroke-width:0.5;opacity:1.0;" x1="793.197" x2="793.197" y1="1919" y2="1933"/>
  <text style="stroke:none;fill:black;font-family:sans-serif;font-size:13;font-weight:bold;" transform="matrix(1 0 0 1 776 1953)">Margins</text>
  <text style="stroke:none;fill:black;font-family:sans-serif;font-size:13;" transform="matrix(1 0 0 1 776 1971)">Leading and trailing margins on the left and right side of each symbol</text>
  <text style="stroke:none;fill:black;font-family:sans-serif;font-size:13;" transform="matrix(1 0 0 1 776 1989)">can be adjusted by modifying the x-location of the margin guidelines.</text>
  <text style="stroke:none;fill:black;font-family:sans-serif;font-size:13;" transform="matrix(1 0 0 1 776 2007)">Modifications are automatically applied proportionally to all</text>
  <text style="stroke:none;fill:black;font-family:sans-serif;font-size:13;" transform="matrix(1 0 0 1 776 2025)">scales and weights.</text>
  <g transform="matrix(1 0 0 1 1289 1933)">
   <path d="M2.8418 1.86523L4.54102 3.57422Q5.18555 4.22852 5.90332 4.17969Q6.62109 4.13086 7.31445 3.35938L18.0078-8.42773L17.041-9.4043L6.42578 2.27539Q6.16211 2.57812 5.89355 2.61719Q5.625 2.65625 5.27344 2.30469L4.10156 1.14258Q3.75 0.791016 3.79395 0.522461Q3.83789 0.253906 4.14062-0.0195312L15.6152-10.8203L14.6387-11.7871L3.04688-0.898438Q2.30469-0.214844 2.25098 0.498047Q2.19727 1.21094 2.8418 1.86523ZM9.25781-16.3281Q8.94531-16.0254 8.90625-15.6348Q8.86719-15.2441 9.04297-14.9512Q9.21875-14.6777 9.55566-14.541Q9.89258-14.4043 10.3809-14.5215Q11.4746-14.7754 12.5977-14.7314Q13.7207-14.6875 14.7949-13.9844L14.209-12.5293Q13.9551-11.9043 14.0674-11.4404Q14.1797-10.9766 14.5801-10.5664L16.875-8.25195Q17.2363-7.88086 17.5781-7.82227Q17.9199-7.76367 18.3398-7.8418L19.4043-8.03711L20.0684-7.36328L20.0293-6.80664Q20-6.43555 20.1221-6.12305Q20.2441-5.81055 20.6055-5.44922L21.3672-4.70703Q21.7285-4.3457 22.1533-4.33105Q22.5781-4.31641 22.9297-4.66797L25.8398-7.58789Q26.1914-7.93945 26.1816-8.35449Q26.1719-8.76953 25.8105-9.13086L25.0391-9.89258Q24.6875-10.2539 24.3799-10.3857Q24.0723-10.5176 23.7109-10.4883L23.1348-10.4395L22.4902-11.0742L22.7344-12.1973Q22.832-12.6172 22.6953-12.9834Q22.5586-13.3496 22.1191-13.7891L19.9219-15.9766Q18.6719-17.2168 17.2607-17.8369Q15.8496-18.457 14.4189-18.4814Q12.9883-18.5059 11.665-17.959Q10.3418-17.4121 9.25781-16.3281ZM10.752-15.957Q11.6602-16.6211 12.7002-16.9043Q13.7402-17.1875 14.8047-17.085Q15.8691-16.9824 16.8701-16.5137Q17.8711-16.0449 18.7012-15.2051L21.1328-12.793Q21.3086-12.6172 21.3525-12.4512Q21.3965-12.2852 21.3379-12.0312L21.0156-10.5469L22.5195-9.0625L23.5059-9.12109Q23.6914-9.13086 23.7891-9.09668Q23.8867-9.0625 24.0332-8.91602L24.6094-8.33984L22.168-5.89844L21.5918-6.47461Q21.4453-6.62109 21.4062-6.71875Q21.3672-6.81641 21.377-7.01172L21.4453-7.98828L19.9512-9.47266L18.4277-9.21875Q18.1836-9.16992 18.042-9.2041Q17.9004-9.23828 17.7148-9.41406L15.7129-11.416Q15.5176-11.5918 15.4932-11.7529Q15.4688-11.9141 15.5859-12.1875L16.4648-14.2773Q15.293-15.3711 13.8281-15.791Q12.3633-16.2109 10.8398-15.7617Q10.7227-15.7324 10.6885-15.8057Q10.6543-15.8789 10.752-15.957Z"/>
  </g>
  <text style="stroke:none;fill:black;font-family:sans-serif;font-size:13;font-weight:bold;" transform="matrix(1 0 0 1 1289 1953)">Exporting</text>
  <text style="stroke:none;fill:black;font-family:sans-serif;font-size:13;" transform="matrix(1 0 0 1 1289 1971)">Symbols should be outlined when exporting to ensure the</text>
  <text style="stroke:none;fill:black;font-family:sans-serif;font-size:13;" transform="matrix(1 0 0 1 1289 1989)">design is preserved when submitting to Xcode.</text>
  <text id="template-version" style="stroke:none;fill:black;font-family:sans-serif;font-size:13;text-anchor:end;" transform="matrix(1 0 0 1 3036 1933)">Template v.3.0</text>
  <text style="stroke:none;fill:black;font-family:sans-serif;font-size:13;text-anchor:end;" transform="matrix(1 0 0 1 3036 1951)">Requires Xcode 13 or greater</text>
  <text id="descriptive-name" style="stroke:none;fill:black;font-family:sans-serif;font-size:13;text-anchor:end;" transform="matrix(1 0 0 1 3036 1969)">Generated from orange.book.fill</text>
  <text style="stroke:none;fill:black;font-family:sans-serif;font-size:13;text-anchor:end;" transform="matrix(1 0 0 1 3036 1987)">Typeset at 100 points</text>
  <text style="stroke:none;fill:black;font-family:sans-serif;font-size:13;" transform="matrix(1 0 0 1 263 726)">Small</text>
  <text style="stroke:none;fill:black;font-family:sans-serif;font-size:13;" transform="matrix(1 0 0 1 263 1156)">Medium</text>
  <text style="stroke:none;fill:black;font-family:sans-serif;font-size:13;" transform="matrix(1 0 0 1 263 1586)">Large</text>
 </g>
 <g id="Guides">
  <g id="H-reference" style="fill:#27AAE1;stroke:none;" transform="matrix(1 0 0 1 339 696)">
   <path d="M0.976562 0L3.66211 0L29.3457-67.1387L30.0293-67.1387L30.0293-70.459L28.125-70.459ZM11.6699-24.4629L46.9727-24.4629L46.2402-26.709L12.4512-26.709ZM55.127 0L57.7637 0L30.6152-70.459L29.4434-70.459L29.4434-67.1387Z"/>
  </g>
  <line id="Baseline-S" style="fill:none;stroke:#27AAE1;opacity:1;stroke-width:0.5;" x1="263" x2="3036" y1="696" y2="696"/>
  <line id="Capline-S" style="fill:none;stroke:#27AAE1;opacity:1;stroke-width:0.5;" x1="263" x2="3036" y1="625.541" y2="625.541"/>
  <g id="H-reference" style="fill:#27AAE1;stroke:none;" transform="matrix(1 0 0 1 339 1126)">
   <path d="M0.976562 0L3.66211 0L29.3457-67.1387L30.0293-67.1387L30.0293-70.459L28.125-70.459ZM11.6699-24.4629L46.9727-24.4629L46.2402-26.709L12.4512-26.709ZM55.127 0L57.7637 0L30.6152-70.459L29.4434-70.459L29.4434-67.1387Z"/>
  </g>
  <line id="Baseline-M" style="fill:none;stroke:#27AAE1;opacity:1;stroke-width:0.5;" x1="263" x2="3036" y1="1126" y2="1126"/>
  <line id="Capline-M" style="fill:none;stroke:#27AAE1;opacity:1;stroke-width:0.5;" x1="263" x2="3036" y1="1055.54" y2="1055.54"/>
  <g id="H-reference" style="fill:#27AAE1;stroke:none;" transform="matrix(1 0 0 1 339 1556)">
   <path d="M0.976562 0L3.66211 0L29.3457-67.1387L30.0293-67.1387L30.0293-70.459L28.125-70.459ZM11.6699-24.4629L46.9727-24.4629L46.2402-26.709L12.4512-26.709ZM55.127 0L57.7637 0L30.6152-70.459L29.4434-70.459L29.4434-67.1387Z"/>
  </g>
  <line id="Baseline-L" style="fill:none;stroke:#27AAE1;opacity:1;stroke-width:0.5;" x1="263" x2="3036" y1="1556" y2="1556"/>
  <line id="Capline-L" style="fill:none;stroke:#27AAE1;opacity:1;stroke-width:0.5;" x1="263" x2="3036" y1="1485.54" y2="1485.54"/>
  <line id="left-margin-Regular-M" style="fill:none;stroke:#00AEEF;stroke-width:0.5;opacity:1.0;" x1="1381.17" x2="1381.17" y1="1030.78" y2="1150.12"/>
  <line id="right-margin-Regular-M" style="fill:none;stroke:#00AEEF;stroke-width:0.5;opacity:1.0;" x1="1518.52" x2="1518.52" y1="1030.78" y2="1150.12"/>
 </g>
 <g id="Symbols">
  <g id="Black-L" transform="matrix(1 0 0 1 2837.82 1556)">
   <path d="M54.1164-96.5115Q46.6358-96.5115 39.4632-94.2986Q32.2906-92.0856 26.6651-88.2197Q21.0395-84.3536 18.094-79.2978Q16.9483-77.3425 16.5161-75.6648Q16.084-73.9871 16.084-70.846L16.084 16.2776Q16.084 21.0604 18.6375 23.5361Q21.191 26.0117 25.744 26.0117Q28.522 26.0117 30.465 25.1443Q32.408 24.2769 35.5472 22.5226Q40.7909 19.1629 46.8409 17.4267Q52.8908 15.6904 59.0899 15.6904Q65.5981 15.6904 71.7843 17.7538Q77.9705 19.8172 83.2525 24.0678Q84.7626 25.3198 86.6283 25.3198Q88.0398 25.3198 89.005 24.4143Q89.9701 23.5088 89.9701 22.0532L89.9701-75.9469Q89.9701-77.4621 89.6523-78.5033Q89.3345-79.5445 88.2954-81.096Q83.8166-88.1356 74.5341-92.3236Q65.2516-96.5115 54.1164-96.5115ZM137.044-96.5115Q125.889-96.5115 116.617-92.3236Q107.344-88.1356 102.866-81.096Q101.826-79.5445 101.509-78.5033Q101.191-77.4621 101.191-75.9469L101.191 22.0532Q101.191 23.5088 102.156 24.4143Q103.121 25.3198 104.533 25.3198Q106.398 25.3198 107.908 24.0678Q113.19 19.8172 119.377 17.7538Q125.563 15.6904 132.05 15.6904Q138.27 15.6904 144.32 17.4267Q150.37 19.1629 155.614 22.5226Q158.753 24.2769 160.696 25.1443Q162.638 26.0117 165.417 26.0117Q169.97 26.0117 172.523 23.5361Q175.077 21.0604 175.077 16.2776L175.077-70.846Q175.077-73.9871 174.644-75.6648Q174.212-77.3425 173.066-79.2978Q170.18-84.3536 164.525-88.2197Q158.87-92.0856 151.698-94.2986Q144.525-96.5115 137.044-96.5115Z"/>
  </g>
  <g id="Heavy-L" transform="matrix(1 0 0 1 2542.89 1556)">
   <path d="M53.527-95.5759Q46.1619-95.5759 39.0884-93.4051Q32.0149-91.2341 26.417-87.367Q20.8189-83.4997 17.7955-78.335Q16.7923-76.6235 16.4382-75.1488Q16.084-73.674 16.084-70.8794L16.084 16.5796Q16.084 20.707 18.3279 22.8826Q20.5718 25.0581 24.5654 25.0581Q26.9523 25.0581 28.6665 24.3081Q30.3806 23.558 32.9903 22.0343Q38.3757 18.2554 44.804 16.3171Q51.2323 14.3789 57.8472 14.3789Q64.6171 14.3789 70.9022 16.5499Q77.1873 18.7209 82.3742 22.9554Q83.7646 24.1194 85.4735 24.1194Q86.7923 24.1194 87.6973 23.265Q88.6024 22.4106 88.6024 21.0201L88.6024-75.7027Q88.6024-77.1438 88.3121-78.0816Q88.0219-79.0194 87.0065-80.4959Q82.4841-87.4381 73.4057-91.507Q64.3272-95.5759 53.527-95.5759ZM134.083-95.5759Q123.253-95.5759 114.19-91.507Q105.126-87.4381 100.604-80.4959Q99.5883-79.0194 99.298-78.0816Q99.0077-77.1438 99.0077-75.7027L99.0077 21.0201Q99.0077 22.4106 99.9127 23.265Q100.818 24.1194 102.137 24.1194Q103.845 24.1194 105.236 22.9554Q110.423 18.7209 116.708 16.5499Q122.993 14.3789 129.733 14.3789Q136.378 14.3789 142.806 16.3171Q149.234 18.2554 154.62 22.0343Q157.229 23.558 158.944 24.3081Q160.657 25.0581 163.045 25.0581Q167.039 25.0581 169.282 22.8826Q171.526 20.707 171.526 16.5796L171.526-70.8794Q171.526-73.674 171.172-75.1488Q170.817-76.6235 169.814-78.335Q166.836-83.4997 161.215-87.367Q155.595-91.2341 148.522-93.4051Q141.448-95.5759 134.083-95.5759Z"/>
  </g>
  <g id="Bold-L" transform="matrix(1 0 0 1 2248.41 1556)">
   <path d="M52.8447-94.3049Q45.6203-94.3049 38.6635-92.194Q31.7066-90.083 26.1395-86.2346Q20.5722-82.3862 17.4645-77.1256Q16.6237-75.6926 16.3538-74.4593Q16.084-73.2259 16.084-70.8534L16.084 16.808Q16.084 20.1476 17.9484 21.9601Q19.8129 23.7726 23.1175 23.7726Q25.0553 23.7726 26.4876 23.1582Q27.9199 22.5438 29.9171 21.2923Q35.4466 17.0243 42.3269 14.863Q49.2071 12.7016 56.3303 12.7016Q63.4766 12.7016 69.8737 15.029Q76.2708 17.3563 81.294 21.5296Q82.5446 22.5838 84.0665 22.5838Q85.2672 22.5838 86.0978 21.7966Q86.9285 21.0094 86.9285 19.7062L86.9285-75.3317Q86.9285-76.6784 86.669-77.5005Q86.4096-78.3227 85.4352-79.6864Q80.8208-86.5024 72.0066-90.4036Q63.1925-94.3049 52.8447-94.3049ZM130.295-94.3049Q119.911-94.3049 111.115-90.4036Q102.319-86.5024 97.7049-79.6864Q96.7305-78.3227 96.471-77.5005Q96.2116-76.6784 96.2116-75.3317L96.2116 19.7062Q96.2116 21.0094 97.0422 21.7966Q97.8729 22.5838 99.0736 22.5838Q100.595 22.5838 101.846 21.5296Q106.869 17.3563 113.266 15.029Q119.664 12.7016 126.773 12.7016Q133.933 12.7016 140.813 14.863Q147.693 17.0243 153.223 21.2923Q155.22 22.5438 156.652 23.1582Q158.085 23.7726 160.023 23.7726Q163.327 23.7726 165.191 21.9601Q167.056 20.1476 167.056 16.808L167.056-70.8534Q167.056-73.2259 166.786-74.4593Q166.516-75.6926 165.675-77.1256Q162.597-82.3862 157.015-86.2346Q151.433-90.083 144.477-92.194Q137.52-94.3049 130.295-94.3049Z"/>
  </g>
  <g id="Semibold-L" transform="matrix(1 0 0 1 1953.24 1556)">
   <path d="M52.3744-93.4286Q45.2469-93.4286 38.3705-91.3591Q31.494-89.2895 25.9481-85.454Q20.4021-81.6186 17.2363-76.2919Q16.5074-75.0509 16.2957-73.984Q16.084-72.917 16.084-70.8354L16.084 16.9655Q16.084 19.762 17.6868 21.3242Q19.2897 22.8863 22.1192 22.8863Q23.7475 22.8863 24.9855 22.3655Q26.2234 21.8446 27.7985 20.7807Q33.4273 16.1756 40.6191 13.8605Q47.8109 11.5453 55.2846 11.5453Q62.6903 11.5453 69.1646 13.9805Q75.639 16.4156 80.5492 20.5467Q81.7035 21.5252 83.0965 21.5252Q84.2159 21.5252 84.9952 20.7843Q85.7745 20.0434 85.7745 18.8003L85.7745-75.0759Q85.7745-76.3575 85.5363-77.0999Q85.2982-77.8424 84.352-79.1284Q79.6741-85.8573 71.0422-89.6429Q62.4102-93.4286 52.3744-93.4286ZM127.684-93.4286Q117.606-93.4286 108.995-89.6429Q100.384-85.8573 95.7065-79.1284Q94.7604-77.8424 94.5222-77.0999Q94.284-76.3575 94.284-75.0759L94.284 18.8003Q94.284 20.0434 95.0633 20.7843Q95.8426 21.5252 96.962 21.5252Q98.355 21.5252 99.5092 20.5467Q104.42 16.4156 110.894 13.9805Q117.368 11.5453 124.732 11.5453Q132.248 11.5453 139.439 13.8605Q146.631 16.1756 152.26 20.7807Q153.835 21.8446 155.073 22.3655Q156.311 22.8863 157.939 22.8863Q160.769 22.8863 162.371 21.3242Q163.975 19.762 163.975 16.9655L163.975-70.8354Q163.975-72.917 163.763-73.984Q163.551-75.0509 162.822-76.2919Q159.675-81.6186 154.12-85.454Q148.564-89.2895 141.688-91.3591Q134.812-93.4286 127.684-93.4286Z"/>
  </g>
  <g id="Medium-L" transform="matrix(1 0 0 1 1657.7 1556)">
   <path d="M52.0177-92.7642Q44.9638-92.7642 38.1483-90.726Q31.3328-88.6878 25.8031-84.8621Q20.2732-81.0365 17.0632-75.6597Q16.4193-74.5643 16.2516-73.6236Q16.084-72.6828 16.084-70.8218L16.084 17.0849Q16.084 19.4696 17.4884 20.842Q18.893 22.2144 21.3624 22.2144Q22.7559 22.2144 23.8465 21.7644Q24.9371 21.3144 26.192 20.3929Q31.8962 15.5321 39.3242 13.1003Q46.7523 10.6686 54.4917 10.6686Q62.0941 10.6686 68.627 13.1854Q75.1599 15.7023 79.9845 19.8015Q81.0657 20.7225 82.3611 20.7225Q83.4187 20.7225 84.1591 20.0167Q84.8995 19.311 84.8995 18.1135L84.8995-74.882Q84.8995-76.1142 84.6774-76.7962Q84.4554-77.4782 83.5306-78.7052Q78.8046-85.3681 70.3109-89.0661Q61.817-92.7642 52.0177-92.7642ZM125.704-92.7642Q115.859-92.7642 107.388-89.0661Q98.9172-85.3681 94.1913-78.7052Q93.2666-77.4782 93.0445-76.7962Q92.8224-76.1142 92.8224-74.882L92.8224 18.1135Q92.8224 19.311 93.5628 20.0167Q94.3032 20.7225 95.3609 20.7225Q96.6562 20.7225 97.7373 19.8015Q102.562 15.7023 109.095 13.1854Q115.628 10.6686 123.184 10.6686Q130.97 10.6686 138.398 13.1003Q145.826 15.5321 151.53 20.3929Q152.785 21.3144 153.875 21.7644Q154.966 22.2144 156.36 22.2144Q158.829 22.2144 160.233 20.842Q161.638 19.4696 161.638 17.0849L161.638-70.8218Q161.638-72.6828 161.47-73.6236Q161.303-74.5643 160.659-75.6597Q157.459-81.0365 151.924-84.8621Q146.389-88.6878 139.574-90.726Q132.758-92.7642 125.704-92.7642Z"/>
  </g>
  <g id="Regular-L" transform="matrix(1 0 0 1 1362.51 1556)">
   <path d="M51.5525-91.8975Q44.5945-91.8975 37.8586-89.9003Q31.1225-87.9029 25.6138-84.0901Q20.1049-80.2773 16.8375-74.8351Q16.3043-73.9296 16.1941-73.1535Q16.084-72.3773 16.084-70.8041L16.084 17.2406Q16.084 19.0882 17.2297 20.213Q18.3756 21.3379 20.3751 21.3379Q21.4624 21.3379 22.3609 20.9804Q23.2593 20.6229 24.0967 19.887Q29.8991 14.6928 37.6353 12.1088Q45.3715 9.52497 53.4575 9.52497Q61.3164 9.52497 67.9257 12.1484Q74.535 14.7719 79.248 18.8294Q80.2339 19.6754 81.4018 19.6754Q82.3789 19.6754 83.0685 19.0155Q83.7582 18.3556 83.7582 17.2176L83.7582-74.6291Q83.7582-75.7968 83.5571-76.4Q83.3561-77.0031 82.4593-78.1533Q77.6706-84.7301 69.357-88.3138Q61.0433-91.8975 51.5525-91.8975ZM123.122-91.8975Q113.58-91.8975 105.292-88.3138Q97.0036-84.7301 92.2149-78.1533Q91.3181-77.0031 91.117-76.4Q90.916-75.7968 90.916-74.6291L90.916 17.2176Q90.916 18.3556 91.6056 19.0155Q92.2953 19.6754 93.2725 19.6754Q94.4403 19.6754 95.4262 18.8294Q100.139 14.7719 106.748 12.1484Q113.358 9.52497 121.166 9.52497Q129.303 9.52497 137.039 12.1088Q144.775 14.6928 150.578 19.887Q151.415 20.6229 152.313 20.9804Q153.212 21.3379 154.299 21.3379Q156.299 21.3379 157.444 20.213Q158.59 19.0882 158.59 17.2406L158.59-70.8041Q158.59-72.3773 158.48-73.1535Q158.37-73.9296 157.837-74.8351Q154.569-80.2773 149.06-84.0901Q143.552-87.9029 136.816-89.9003Q130.08-91.8975 123.122-91.8975Z"/>
  </g>
  <g id="Light-L" transform="matrix(1 0 0 1 1067.57 1556)">
   <path d="M51.3884-90.2968Q44.5124-90.2968 37.8175-88.3919Q31.1225-86.4869 25.6138-82.8178Q20.1049-79.1486 16.858-73.8911Q16.3453-73.0266 16.2147-72.3531Q16.084-71.6796 16.084-70.3526L16.084 16.4608Q16.084 17.9185 16.9937 18.8483Q17.9035 19.7782 19.4516 19.7782Q20.4569 19.7782 21.1706 19.4515Q21.8843 19.1248 22.578 18.4915Q28.2779 13.1536 36.2192 10.5902Q44.1607 8.02688 52.5545 8.02688Q61.0086 8.02688 67.6282 10.9069Q74.2477 13.7869 78.5502 17.5365Q79.4951 18.3005 80.5809 18.3005Q81.4554 18.3005 82.0937 17.7124Q82.7321 17.1243 82.7321 16.0889L82.7321-73.9313Q82.7321-75.017 82.531-75.6201Q82.33-76.2233 81.5358-77.1683Q76.4393-83.6219 68.3822-86.9594Q60.325-90.2968 51.3884-90.2968ZM119.736-90.2968Q110.769-90.2968 102.727-86.9594Q94.6846-83.6219 89.5881-77.1683Q88.7939-76.2233 88.5928-75.6201Q88.3918-75.017 88.3918-73.9313L88.3918 16.0889Q88.3918 17.1243 89.0301 17.7124Q89.6684 18.3005 90.5431 18.3005Q91.6287 18.3005 92.5736 17.5365Q96.8762 13.7869 103.496 10.9069Q110.115 8.02688 118.539 8.02688Q126.963 8.02688 134.905 10.5902Q142.846 13.1536 148.546 18.4915Q149.24 19.1248 149.953 19.4515Q150.667 19.7782 151.672 19.7782Q153.22 19.7782 154.13 18.8483Q155.04 17.9185 155.04 16.4608L155.04-70.3526Q155.04-71.6796 154.909-72.3531Q154.779-73.0266 154.266-73.8911Q151.019-79.1486 145.51-82.8178Q140.001-86.4869 133.306-88.3919Q126.611-90.2968 119.736-90.2968Z"/>
  </g>
  <g id="Thin-L" transform="matrix(1 0 0 1 773.208 1556)">
   <path d="M51.1712-88.1797Q44.4038-88.1797 37.7632-86.397Q31.1225-84.6142 25.6138-81.135Q20.1049-77.6558 16.8852-72.6426Q16.3996-71.8323 16.2418-71.2946Q16.084-70.7568 16.084-69.7554L16.084 15.4294Q16.084 16.3714 16.6816 17.0434Q17.2792 17.7154 18.2302 17.7154Q19.1269 17.7154 19.5964 17.4294Q20.0658 17.1434 20.5695 16.6458Q26.1337 11.118 34.3464 8.58172Q42.5593 6.04553 51.3602 6.04553Q60.6015 6.04553 67.2346 9.26476Q73.8677 12.484 77.6274 15.8265Q78.518 16.482 79.4952 16.482Q80.234 16.482 80.8045 15.9889Q81.375 15.4958 81.375 14.5961L81.375-73.0085Q81.375-73.9856 81.1739-74.5887Q80.9729-75.1919 80.3144-75.8655Q74.8107-82.1562 67.0929-85.1681Q59.375-88.1797 51.1712-88.1797ZM115.257-88.1797Q107.05-88.1797 99.3339-85.1681Q91.6175-82.1562 86.1139-75.8655Q85.4555-75.1919 85.2544-74.5887Q85.0533-73.9856 85.0533-73.0085L85.0533 14.5961Q85.0533 15.4958 85.6238 15.9889Q86.1943 16.482 86.9332 16.482Q87.9103 16.482 88.8009 15.8265Q92.5606 12.484 99.1937 9.26476Q105.827 6.04553 115.065 6.04553Q123.869 6.04553 132.082 8.58172Q140.295 11.118 145.859 16.6458Q146.362 17.1434 146.832 17.4294Q147.301 17.7154 148.198 17.7154Q149.149 17.7154 149.747 17.0434Q150.344 16.3714 150.344 15.4294L150.344-69.7554Q150.344-70.7568 150.186-71.2946Q150.029-71.8323 149.543-72.6426Q146.323-77.6558 140.815-81.135Q135.306-84.6142 128.665-86.397Q122.024-88.1797 115.257-88.1797Z"/>
  </g>
  <g id="Ultralight-L" transform="matrix(1 0 0 1 477.7 1556)">
   <path d="M51.06-87.0954Q44.3482-87.0954 37.7354-85.3751Q31.1225-83.6549 25.6138-80.2731Q20.1049-76.8912 16.8991-72.0031Q16.4274-71.2206 16.2557-70.7524Q16.084-70.2841 16.084-69.4495L16.084 14.9011Q16.084 15.5789 16.5217 16.1189Q16.9595 16.6589 17.6046 16.6589Q18.4457 16.6589 18.7901 16.3937Q19.1344 16.1286 19.5408 15.7005Q25.0354 10.0753 33.3871 7.55297Q41.7391 5.0307 50.7485 5.0307Q60.393 5.0307 67.033 8.42369Q73.6731 11.8168 77.1547 14.9507Q78.0175 15.5505 78.9392 15.5505Q79.6084 15.5505 80.1442 15.1061Q80.6799 14.6617 80.6799 13.8315L80.6799-72.5359Q80.6799-73.4573 80.4788-74.0604Q80.2779-74.6636 79.6888-75.1982Q73.9766-81.4055 66.4325-84.2505Q58.8885-87.0954 51.06-87.0954ZM112.963-87.0954Q105.146-87.0954 97.5961-84.2505Q90.0466-81.4055 84.3344-75.1982Q83.7456-74.6636 83.5445-74.0604Q83.3433-73.4573 83.3433-72.5359L83.3433 13.8315Q83.3433 14.6617 83.8791 15.1061Q84.4148 15.5505 85.0843 15.5505Q86.0057 15.5505 86.8685 14.9507Q90.3502 11.8168 96.9902 8.42369Q103.63 5.0307 113.286 5.0307Q122.284 5.0307 130.636 7.55297Q138.988 10.0753 144.482 15.7005Q144.889 16.1286 145.233 16.3937Q145.578 16.6589 146.419 16.6589Q147.064 16.6589 147.502 16.1189Q147.939 15.5789 147.939 14.9011L147.939-69.4495Q147.939-70.2841 147.767-70.7524Q147.596-71.2206 147.124-72.0031Q143.918-76.8912 138.41-80.2731Q132.901-83.6549 126.288-85.3751Q119.675-87.0954 112.963-87.0954Z"/>
  </g>
  <g id="Black-M" transform="matrix(1 0 0 1 2858.07 1126)">
   <path d="M42.4105-83.2946Q36.5268-83.2946 30.8903-81.5565Q25.2538-79.8184 20.8718-76.8438Q16.4897-73.8691 14.2775-70.0707Q13.2701-68.3519 12.8655-66.8916Q12.4609-65.4313 12.4609-62.7334L12.4609 4.30992Q12.4609 8.52579 14.6734 10.6753Q16.8858 12.8248 20.8328 12.8248Q23.31 12.8248 24.987 12.056Q26.664 11.2873 29.5316 9.74398Q33.4584 7.48192 37.8484 6.31316Q42.2381 5.1444 46.7252 5.1444Q51.623 5.1444 56.3321 6.68529Q61.0413 8.22618 65.1594 11.4914Q66.4267 12.5258 67.9959 12.5258Q69.1551 12.5258 69.9476 11.7901Q70.7401 11.0544 70.7401 9.88469L70.7401-66.8904Q70.7401-68.1169 70.4701-69.0124Q70.2002-69.9079 69.3887-71.1466Q65.9146-76.6675 58.5824-79.981Q51.2502-83.2946 42.4105-83.2946ZM108.26-83.2946Q99.4153-83.2946 92.0859-79.981Q84.7564-76.6675 81.2824-71.1466Q80.4708-69.9079 80.2009-69.0124Q79.9309-68.1169 79.9309-66.8904L79.9309 9.88469Q79.9309 11.0544 80.7234 11.7901Q81.5159 12.5258 82.6752 12.5258Q84.2442 12.5258 85.5115 11.4914Q89.6298 8.22618 94.3389 6.68529Q99.0481 5.1444 103.94 5.1444Q108.433 5.1444 112.823 6.31316Q117.213 7.48192 121.139 9.74398Q124.007 11.2873 125.684 12.056Q127.361 12.8248 129.838 12.8248Q133.786 12.8248 135.997 10.6753Q138.21 8.52579 138.21 4.30992L138.21-62.7334Q138.21-65.4313 137.805-66.8916Q137.4-68.3519 136.393-70.0707Q134.238-73.8691 129.827-76.8438Q125.417-79.8184 119.781-81.5565Q114.144-83.2946 108.26-83.2946Z"/>
  </g>
  <g id="Heavy-M" transform="matrix(1 0 0 1 2562.93 1126)">
   <path d="M41.8495-82.5276Q36.0712-82.5276 30.5278-80.8221Q24.9843-79.1166 20.6293-76.1276Q16.2741-73.1385 13.9838-69.2166Q13.1139-67.7323 12.7874-66.461Q12.4609-65.1896 12.4609-62.8076L12.4609 4.67706Q12.4609 8.28823 14.3925 10.1623Q16.324 12.0364 19.7658 12.0364Q21.8683 12.0364 23.3386 11.3796Q24.8089 10.7228 27.1722 9.39533Q31.247 6.73673 35.9878 5.3686Q40.7285 4.00047 45.5936 4.00047Q50.6924 4.00047 55.4972 5.62289Q60.3021 7.2453 64.3653 10.5232Q65.5193 11.4792 66.9427 11.4792Q68.0208 11.4792 68.7593 10.7868Q69.4977 10.0944 69.4977 8.97889L69.4977-66.7161Q69.4977-67.8777 69.2547-68.6721Q69.0117-69.4665 68.2139-70.6508Q64.7256-76.0879 57.5692-79.3077Q50.4129-82.5276 41.8495-82.5276ZM105.678-82.5276Q97.0983-82.5276 89.9501-79.3077Q82.8018-76.0879 79.3135-70.6508Q78.5157-69.4665 78.2727-68.6721Q78.0297-67.8777 78.0297-66.7161L78.0297 8.97889Q78.0297 10.0944 78.7681 10.7868Q79.5066 11.4792 80.5848 11.4792Q82.0081 11.4792 83.1621 10.5232Q87.2253 7.2453 92.0302 5.62289Q96.835 4.00047 101.918 4.00047Q106.799 4.00047 111.54 5.3686Q116.28 6.73673 120.355 9.39533Q122.718 10.7228 124.189 11.3796Q125.659 12.0364 127.762 12.0364Q131.204 12.0364 133.135 10.1623Q135.066 8.28823 135.066 4.67706L135.066-62.8076Q135.066-65.1896 134.74-66.461Q134.413-67.7323 133.543-69.2166Q131.297-73.1385 126.92-76.1276Q122.543-79.1166 117-80.8221Q111.456-82.5276 105.678-82.5276Z"/>
  </g>
  <g id="Bold-M" transform="matrix(1 0 0 1 2267.97 1126)">
   <path d="M41.222-81.6697Q35.5614-81.6697 30.1222-80.0007Q24.6829-78.3316 20.358-75.3264Q16.0329-72.3211 13.6553-68.2612Q12.9392-67.0393 12.7-65.9793Q12.4609-64.9192 12.4609-62.8907L12.4609 5.08776Q12.4609 8.02249 14.0782 9.58851Q15.6955 11.1545 18.5722 11.1545Q20.2555 11.1545 21.4946 10.6229Q22.7337 10.0913 24.5328 9.00532Q28.7732 5.90313 33.9065 4.31197Q39.0397 2.72082 44.3278 2.72082Q49.6514 2.72082 54.5633 4.43443Q59.4752 6.14805 63.4769 9.44011Q64.5042 10.3084 65.7645 10.3084Q66.7519 10.3084 67.4299 9.66448Q68.1079 9.02054 68.1079 7.96562L68.1079-66.521Q68.1079-67.6101 67.895-68.2915Q67.6822-68.9728 66.8998-70.0962Q63.3955-75.4395 56.4358-78.5546Q49.4762-81.6697 41.222-81.6697ZM102.789-81.6697Q94.5064-81.6697 87.5609-78.5546Q80.6153-75.4395 77.111-70.0962Q76.3286-68.9728 76.1157-68.2915Q75.9029-67.6101 75.9029-66.521L75.9029 7.96562Q75.9029 9.02054 76.5809 9.66448Q77.2589 10.3084 78.2463 10.3084Q79.5066 10.3084 80.5339 9.44011Q84.5356 6.14805 89.4475 4.43443Q94.3594 2.72082 99.6548 2.72082Q104.971 2.72082 110.104 4.31197Q115.238 5.90313 119.478 9.00532Q121.277 10.0913 122.516 10.6229Q123.755 11.1545 125.439 11.1545Q128.315 11.1545 129.932 9.58851Q131.55 8.02249 131.55 5.08776L131.55-62.8907Q131.55-64.9192 131.311-65.9793Q131.071-67.0393 130.355-68.2612Q128.006-72.3211 123.667-75.3264Q119.328-78.3316 113.889-80.0007Q108.449-81.6697 102.789-81.6697Z"/>
  </g>
  <g id="Semibold-M" transform="matrix(1 0 0 1 1972.47 1126)">
   <path d="M40.7893-81.0783Q35.21-81.0783 29.8426-79.4344Q24.475-77.7904 20.1709-74.7741Q15.8667-71.7577 13.4288-67.6025Q12.8187-66.5615 12.6398-65.6472Q12.4609-64.7328 12.4609-62.948L12.4609 5.37089Q12.4609 7.83928 13.8616 9.19293Q15.2623 10.5466 17.7494 10.5466Q19.1436 10.5466 20.2234 10.1013Q21.3031 9.65594 22.7133 8.73644Q27.0678 5.32845 32.4716 3.58354Q37.8754 1.83863 43.4551 1.83863Q48.9337 1.83863 53.9194 3.61512Q58.9051 5.39161 62.8644 8.69344Q63.8043 9.50131 64.9523 9.50131Q65.8771 9.50131 66.5134 8.89077Q67.1498 8.28022 67.1498 7.26708L67.1498-66.3866Q67.1498-67.4256 66.9577-68.029Q66.7657-68.6325 65.9939-69.7139Q62.4785-74.9924 55.6545-78.0353Q48.8304-81.0783 40.7893-81.0783ZM100.797-81.0783Q92.7195-81.0783 85.9137-78.0353Q79.1079-74.9924 75.5926-69.7139Q74.8208-68.6325 74.6287-68.029Q74.4367-67.4256 74.4367-66.3866L74.4367 7.26708Q74.4367 8.28022 75.073 8.89077Q75.7094 9.50131 76.6342 9.50131Q77.7821 9.50131 78.722 8.69344Q82.6813 5.39161 87.667 3.61512Q92.6527 1.83863 98.0949 1.83863Q103.711 1.83863 109.115 3.58354Q114.519 5.32845 118.873 8.73644Q120.283 9.65594 121.363 10.1013Q122.443 10.5466 123.837 10.5466Q126.324 10.5466 127.725 9.19293Q129.126 7.83928 129.126 5.37089L129.126-62.948Q129.126-64.7328 128.947-65.6472Q128.768-66.5615 128.158-67.6025Q125.738-71.7577 121.425-74.7741Q117.111-77.7904 111.744-79.4344Q106.376-81.0783 100.797-81.0783Z"/>
  </g>
  <g id="Medium-M" transform="matrix(1 0 0 1 1676.68 1126)">
   <path d="M40.4613-80.6298Q34.9435-80.6298 29.6305-79.005Q24.3175-77.3801 20.0291-74.3553Q15.7406-71.3305 13.257-67.1031Q12.7274-66.1993 12.5941-65.3954Q12.4609-64.5915 12.4609-62.9914L12.4609 5.58557Q12.4609 7.70037 13.6973 8.89297Q14.9338 10.0856 17.1255 10.0856Q18.3005 10.0856 19.2595 9.70571Q20.2184 9.32584 21.3336 8.53257Q25.7746 4.89271 31.3836 3.03121Q36.9926 1.16973 42.7934 1.16973Q48.3896 1.16973 53.4312 2.99389Q58.4729 4.81804 62.4001 8.12728Q63.2737 8.88932 64.3364 8.88932Q65.2138 8.88932 65.8185 8.30411Q66.4233 7.71888 66.4233 6.73742L66.4233-66.2847Q66.4233-67.2857 66.2469-67.83Q66.0707-68.3744 65.3069-69.424Q61.7832-74.6535 55.062-77.6416Q48.3408-80.6298 40.4613-80.6298ZM99.2869-80.6298Q91.3646-80.6298 84.6648-77.6416Q77.965-74.6535 74.4413-69.424Q73.6776-68.3744 73.5012-67.83Q73.3249-67.2857 73.3249-66.2847L73.3249 6.73742Q73.3249 7.71888 73.9296 8.30411Q74.5344 8.88932 75.4118 8.88932Q76.4745 8.88932 77.3482 8.12728Q81.2753 4.81804 86.317 2.99389Q91.3587 1.16973 96.9121 1.16973Q102.756 1.16973 108.365 3.03121Q113.974 4.89271 118.415 8.53257Q119.53 9.32584 120.489 9.70571Q121.448 10.0856 122.623 10.0856Q124.815 10.0856 126.051 8.89297Q127.287 7.70037 127.287 5.58557L127.287-62.9914Q127.287-64.5915 127.154-65.3954Q127.021-66.1993 126.491-67.1031Q124.018-71.3305 119.724-74.3553Q115.431-77.3801 110.118-79.005Q104.805-80.6298 99.2869-80.6298Z"/>
  </g>
  <g id="Regular-M" transform="matrix(1 0 0 1 1381.17 1126)">
   <path d="M40.0334-80.0449Q34.596-80.0449 29.354-78.4449Q24.1119-76.8448 19.8441-73.809Q15.5761-70.7732 13.033-66.4517Q12.6082-65.7267 12.5346-65.067Q12.4609-64.4072 12.4609-63.048L12.4609 5.8656Q12.4609 7.51918 13.4831 8.50173Q14.5053 9.48428 16.3117 9.48428Q17.2009 9.48428 18.0022 9.18978Q18.8035 8.89527 19.5341 8.26665Q24.0879 4.32434 29.9646 2.31078Q35.8412 0.297236 41.9303 0.297236Q47.6798 0.297236 52.7945 2.18358Q57.9091 4.06992 61.7944 7.38881Q62.5816 8.09108 63.5331 8.09108Q64.3487 8.09108 64.9121 7.53889Q65.4757 6.9867 65.4757 6.04656L65.4757-66.1517Q65.4757-67.1032 65.3199-67.5705Q65.1642-68.0378 64.4109-69.0458Q60.8763-74.2114 54.2893-77.1281Q47.7021-80.0449 40.0334-80.0449ZM97.3171-80.0449Q89.5974-80.0449 83.0358-77.1281Q76.4742-74.2114 72.9396-69.0458Q72.1864-68.0378 72.0306-67.5705Q71.8749-67.1032 71.8749-66.1517L71.8749 6.04656Q71.8749 6.9867 72.4383 7.53889Q73.0019 8.09108 73.8174 8.09108Q74.769 8.09108 75.5562 7.38881Q79.4414 4.06992 84.5561 2.18358Q89.6707 0.297236 95.3693 0.297236Q101.509 0.297236 107.386 2.31078Q113.263 4.32434 117.816 8.26665Q118.547 8.89527 119.348 9.18978Q120.15 9.48428 121.039 9.48428Q122.845 9.48428 123.867 8.50173Q124.89 7.51918 124.89 5.8656L124.89-63.048Q124.89-64.4072 124.816-65.067Q124.742-65.7267 124.318-66.4517Q121.774-70.7732 117.506-73.809Q113.239-76.8448 107.997-78.4449Q102.754-80.0449 97.3171-80.0449Z"/>
  </g>
  <g id="Light-M" transform="matrix(1 0 0 1 1086.05 1126)">
   <path d="M39.8863-78.6098Q34.5224-78.6098 29.3172-77.0926Q24.1119-75.5753 19.8441-72.6683Q15.5761-69.7613 13.0514-65.6053Q12.645-64.9172 12.553-64.3495Q12.4609-63.7816 12.4609-62.6432L12.4609 5.16643Q12.4609 6.47044 13.2715 7.2782Q14.0821 8.08596 15.4838 8.08596Q16.2993 8.08596 16.9351 7.81906Q17.5708 7.55215 18.1725 7.01552Q22.6344 2.94442 28.695 0.949255Q34.7556-1.04588 41.1208-1.04588Q47.4038-1.04588 52.5277 1.07043Q57.6515 3.18676 61.1688 6.22967Q61.9192 6.85835 62.7972 6.85835Q63.5207 6.85835 64.0382 6.37056Q64.5557 5.88276 64.5557 5.03462L64.5557-65.5262Q64.5557-66.4041 64.3999-66.8713Q64.2443-67.3386 63.583-68.1627Q59.7724-73.2178 53.4153-75.9138Q47.0581-78.6098 39.8863-78.6098ZM94.2812-78.6098Q87.0768-78.6098 80.7359-75.9138Q74.3951-73.2178 70.5846-68.1627Q69.9233-67.3386 69.7675-66.8713Q69.6118-66.4041 69.6118-65.5262L69.6118 5.03462Q69.6118 5.88276 70.1293 6.37056Q70.6468 6.85835 71.3704 6.85835Q72.2483 6.85835 72.9987 6.22967Q76.516 3.18676 81.6398 1.07043Q86.7637-1.04588 93.0142-1.04588Q99.4119-1.04588 105.473 0.949255Q111.533 2.94442 115.995 7.01552Q116.597 7.55215 117.232 7.81906Q117.868 8.08596 118.684 8.08596Q120.085 8.08596 120.896 7.2782Q121.707 6.47044 121.707 5.16643L121.707-62.6432Q121.707-63.7816 121.614-64.3495Q121.522-64.9172 121.116-65.6053Q118.591-69.7613 114.323-72.6683Q110.056-75.5753 104.85-77.0926Q99.6451-78.6098 94.2812-78.6098Z"/>
  </g>
  <g id="Thin-M" transform="matrix(1 0 0 1 791.444 1126)">
   <path d="M39.6916-76.7117Q34.4251-76.7117 29.2685-75.304Q24.1119-73.8963 19.8441-71.1596Q15.5761-68.4229 13.0758-64.4859Q12.6937-63.8464 12.5773-63.4004Q12.4609-62.9543 12.4609-62.1078L12.4609 4.24174Q12.4609 5.08339 12.9916 5.65998Q13.5224 6.23656 14.3887 6.23656Q15.1069 6.23656 15.5237 6.00616Q15.9404 5.77576 16.3718 5.3608Q20.712 1.11936 27.0159-0.851473Q33.3199-2.82226 40.05-2.82226Q47.0388-2.82226 52.1748-0.401787Q57.3108 2.01872 60.3414 4.69662Q61.0432 5.22796 61.8238 5.22796Q62.4256 5.22796 62.8823 4.82533Q63.339 4.42271 63.339 3.69624L63.339-64.6988Q63.339-65.4793 63.1832-65.9466Q63.0276-66.4139 62.4879-66.9947Q58.3123-71.9037 52.2594-74.3077Q46.2064-76.7117 39.6916-76.7117ZM90.2661-76.7117Q83.743-76.7117 77.6942-74.3077Q71.6454-71.9037 67.4698-66.9947Q66.9302-66.4139 66.7744-65.9466Q66.6186-65.4793 66.6186-64.6988L66.6186 3.69624Q66.6186 4.42271 67.0753 4.82533Q67.532 5.22796 68.134 5.22796Q68.9145 5.22796 69.6163 4.69662Q72.6468 2.01872 77.7828-0.401787Q82.9188-2.82226 89.8994-2.82226Q96.6378-2.82226 102.942-0.851473Q109.246 1.11936 113.586 5.3608Q114.017 5.77576 114.434 6.00616Q114.851 6.23656 115.569 6.23656Q116.435 6.23656 116.966 5.65998Q117.497 5.08339 117.497 4.24174L117.497-62.1078Q117.497-62.9543 117.38-63.4004Q117.264-63.8464 116.882-64.4859Q114.382-68.4229 110.114-71.1596Q105.846-73.8963 100.689-75.304Q95.5326-76.7117 90.2661-76.7117Z"/>
  </g>
  <g id="Ultralight-M" transform="matrix(1 0 0 1 495.811 1126)">
   <path d="M39.5919-75.7395Q34.3752-75.7395 29.2436-74.3879Q24.1119-73.0363 19.8441-70.3869Q15.5761-67.7374 13.0882-63.9126Q12.7186-63.298 12.5898-62.9143Q12.4609-62.5305 12.4609-61.8336L12.4609 3.76811Q12.4609 4.37295 12.8483 4.83113Q13.2357 5.28931 13.8278 5.28931Q14.4962 5.28931 14.8008 5.07761Q15.1053 4.8659 15.4495 4.51325Q19.7274 0.184568 26.1559-1.7738Q32.5845-3.73211 39.5016-3.73211Q46.8519-3.73211 51.9941-1.15585Q57.1364 1.42046 59.9176 3.9114Q60.5945 4.39288 61.3253 4.39288Q61.8648 4.39288 62.2903 4.03388Q62.7158 3.67488 62.7158 3.01073L62.7158-64.2751Q62.7158-65.0057 62.56-65.473Q62.4044-65.9403 61.927-66.3964Q57.5645-71.2306 51.6673-73.4851Q45.7702-75.7395 39.5919-75.7395ZM88.2095-75.7395Q82.0355-75.7395 76.1362-73.4851Q70.2369-71.2306 65.8744-66.3964Q65.3972-65.9403 65.2414-65.473Q65.0856-65.0057 65.0856-64.2751L65.0856 3.01073Q65.0856 3.67488 65.5111 4.03388Q65.9367 4.39288 66.4763 4.39288Q67.2069 4.39288 67.8838 3.9114Q70.6651 1.42046 75.8073-1.15585Q80.9495-3.73211 88.3041-3.73211Q95.2169-3.73211 101.646-1.7738Q108.074 0.184568 112.352 4.51325Q112.696 4.8659 113.001 5.07761Q113.305 5.28931 113.974 5.28931Q114.566 5.28931 114.953 4.83113Q115.341 4.37295 115.341 3.76811L115.341-61.8336Q115.341-62.5305 115.212-62.9143Q115.083-63.298 114.713-63.9126Q112.225-67.7374 107.957-70.3869Q103.689-73.0363 98.5579-74.3879Q93.4262-75.7395 88.2095-75.7395Z"/>
  </g>
  <g id="Black-S" transform="matrix(1 0 0 1 2873.98 696)">
   <path d="M33.3984-73.0469Q28.7598-73.0469 24.3164-71.6797Q19.873-70.3125 16.4307-67.9932Q12.9883-65.6738 11.2793-62.7441Q10.4492-61.3281 10.1074-60.1318Q9.76562-58.9355 9.76562-56.7383L9.76562-4.39453Q9.76562-0.927734 11.5723 0.830078Q13.3789 2.58789 16.6016 2.58789Q18.6523 2.58789 20.0195 1.95312Q21.3867 1.31836 23.7793 0.0488281Q26.8066-1.61133 30.1514-2.46582Q33.4961-3.32031 36.9141-3.32031Q40.7227-3.32031 44.3848-2.12402Q48.0469-0.927734 51.2695 1.61133Q52.2949 2.44141 53.5645 2.44141Q54.4922 2.44141 55.127 1.85547Q55.7617 1.26953 55.7617 0.341797L55.7617-60.0586Q55.7617-61.0352 55.542-61.7676Q55.3223-62.5 54.6875-63.4766Q51.9531-67.8223 46.167-70.4346Q40.3809-73.0469 33.3984-73.0469ZM85.4492-73.0469Q78.4668-73.0469 72.6807-70.4346Q66.8945-67.8223 64.1602-63.4766Q63.5254-62.5 63.3057-61.7676Q63.0859-61.0352 63.0859-60.0586L63.0859 0.341797Q63.0859 1.26953 63.7207 1.85547Q64.3555 2.44141 65.2832 2.44141Q66.5527 2.44141 67.5781 1.61133Q70.8008-0.927734 74.4629-2.12402Q78.125-3.32031 81.9336-3.32031Q85.3516-3.32031 88.6963-2.46582Q92.041-1.61133 95.0684 0.0488281Q97.4609 1.31836 98.8281 1.95312Q100.195 2.58789 102.246 2.58789Q105.469 2.58789 107.275 0.830078Q109.082-0.927734 109.082-4.39453L109.082-56.7383Q109.082-58.9355 108.74-60.1318Q108.398-61.3281 107.568-62.7441Q105.908-65.6738 102.441-67.9932Q98.9746-70.3125 94.5312-71.6797Q90.0879-73.0469 85.4492-73.0469Z"/>
  </g>
  <g id="Heavy-S" transform="matrix(1 0 0 1 2578.41 696)">
   <path d="M32.9374-72.5744Q28.3795-72.5744 24.011-71.2245Q19.6425-69.8746 16.2233-67.5264Q12.8039-65.1783 11.0258-62.1218Q10.3109-60.9017 10.0383-59.8552Q9.76562-58.8087 9.76562-56.8535L9.76562-3.99117Q9.76562-0.99688 11.3591 0.547729Q12.9525 2.09234 15.7949 2.09234Q17.5344 2.09234 18.746 1.54976Q19.9577 1.0072 21.9354-0.0894654Q25.101-2.07231 28.7224-3.09967Q32.3437-4.12702 36.0498-4.12702Q39.9621-4.12702 43.7048-2.8904Q47.4476-1.65378 50.6702 0.931386Q51.6034 1.70384 52.7578 1.70384Q53.6279 1.70384 54.2223 1.14672Q54.8167 0.589586 54.8167-0.303574L54.8167-59.9894Q54.8167-60.92 54.62-61.5659Q54.4234-62.2119 53.7886-63.1654Q51.0772-67.4535 45.4122-70.0139Q39.747-72.5744 32.9374-72.5744ZM83.6283-72.5744Q76.8073-72.5744 71.1479-70.0139Q65.4885-67.4535 62.7773-63.1654Q62.1425-62.2119 61.9458-61.5659Q61.7491-60.92 61.7491-59.9894L61.7491-0.303574Q61.7491 0.589586 62.3435 1.14672Q62.938 1.70384 63.8081 1.70384Q64.9623 1.70384 65.8955 0.931386Q69.1182-1.65378 72.861-2.8904Q76.6038-4.12702 80.5046-4.12702Q84.2222-4.12702 87.8435-3.09967Q91.4648-2.07231 94.6305-0.0894654Q96.6081 1.0072 97.8197 1.54976Q99.0311 2.09234 100.771 2.09234Q103.613 2.09234 105.206 0.547729Q106.8-0.99688 106.8-3.99117L106.8-56.8535Q106.8-58.8087 106.527-59.8552Q106.255-60.9017 105.54-62.1218Q103.799-65.1783 100.361-67.5264Q96.9232-69.8746 92.5548-71.2245Q88.1863-72.5744 83.6283-72.5744Z"/>
  </g>
  <g id="Bold-S" transform="matrix(1 0 0 1 2282.97 696)">
   <path d="M32.4219-72.0459Q27.9541-72.0459 23.6695-70.7154Q19.3848-69.3847 15.9912-67.0044Q12.5977-64.624 10.7422-61.4257Q10.1562-60.4248 9.96092-59.5459Q9.76562-58.667 9.76562-56.9824L9.76562-3.54004Q9.76562-1.07422 11.1206 0.231933Q12.4756 1.53809 14.8926 1.53809Q16.2842 1.53809 17.3217 1.09863Q18.3594 0.65918 19.8731-0.24414Q23.1933-2.58789 27.1241-3.8086Q31.0547-5.02929 35.083-5.02929Q39.1113-5.02929 42.9443-3.74755Q46.7773-2.46582 50 0.1709Q50.83 0.878908 51.8555 0.878908Q52.6612 0.878908 53.2104 0.354005Q53.7598-0.1709 53.7598-1.02539L53.7598-59.9121Q53.7598-60.7911 53.5888-61.3404Q53.418-61.8897 52.7832-62.8174Q50.0977-67.0411 44.5679-69.5435Q39.0381-72.0459 32.4219-72.0459ZM81.5918-72.0459Q74.9512-72.0459 69.4336-69.5435Q63.916-67.0411 61.2305-62.8174Q60.5957-61.8897 60.4248-61.3404Q60.2539-60.7911 60.2539-59.9121L60.2539-1.02539Q60.2539-0.1709 60.8032 0.354005Q61.3526 0.878908 62.1582 0.878908Q63.1836 0.878908 64.0137 0.1709Q67.2364-2.46582 71.0693-3.74755Q74.9023-5.02929 78.9062-5.02929Q82.959-5.02929 86.8897-3.8086Q90.8203-2.58789 94.1407-0.24414Q95.6543 0.65918 96.6919 1.09863Q97.7294 1.53809 99.1211 1.53809Q101.538 1.53809 102.893 0.231933Q104.248-1.07422 104.248-3.54004L104.248-56.9824Q104.248-58.667 104.053-59.5459Q103.857-60.4248 103.271-61.4257Q101.44-64.624 98.0344-67.0044Q94.6289-69.3847 90.3442-70.7154Q86.0595-72.0459 81.5918-72.0459Z"/>
  </g>
  <g id="Semibold-S" transform="matrix(1 0 0 1 1987.14 696)">
   <path d="M32.0664-71.6815Q27.6608-71.6815 23.434-70.3643Q19.207-69.047 15.8313-66.6445Q12.4555-64.2419 10.5467-60.9459Q10.0496-60.096 9.90761-59.3326Q9.76562-58.5692 9.76562-57.0713L9.76562-3.22901Q9.76562-1.12754 10.9562 0.0142089Q12.1468 1.15596 14.2705 1.15596Q15.4221 1.15596 16.3398 0.787596Q17.2574 0.419238 18.4512-0.350781Q21.8781-2.94336 26.0221-4.29737Q30.166-5.65137 34.4165-5.65137Q38.5248-5.65137 42.42-4.33852Q46.3152-3.02569 49.5379-0.353417Q50.2968 0.310157 51.2334 0.310157Q51.9946 0.310157 52.5128-0.192528Q53.031-0.695217 53.031-1.52305L53.031-59.8588Q53.031-60.7022 52.8779-61.1848Q52.7248-61.6675 52.09-62.5775Q49.4223-66.7567 43.9858-69.2191Q38.5493-71.6815 32.0664-71.6815ZM80.1877-71.6815Q73.6715-71.6815 68.2517-69.2191Q62.8318-66.7567 60.1641-62.5775Q59.5293-61.6675 59.3762-61.1848Q59.2231-60.7022 59.2231-59.8588L59.2231-1.52305Q59.2231-0.695217 59.7412-0.192528Q60.2595 0.310157 61.0207 0.310157Q61.9572 0.310157 62.7162-0.353417Q65.9389-3.02569 69.8341-4.33852Q73.7293-5.65137 77.8043-5.65137Q82.0881-5.65137 86.232-4.29737Q90.376-2.94336 93.8029-0.350781Q94.9967 0.419238 95.9143 0.787596Q96.8319 1.15596 97.9836 1.15596Q100.107 1.15596 101.298 0.0142089Q102.488-1.12754 102.488-3.22901L102.488-57.0713Q102.488-58.5692 102.346-59.3326Q102.204-60.096 101.707-60.9459Q99.8141-64.2419 96.4305-66.6445Q93.0471-69.047 88.8201-70.3643Q84.5932-71.6815 80.1877-71.6815Z"/>
  </g>
  <g id="Medium-S" transform="matrix(1 0 0 1 1691.1 696)">
   <path d="M31.7969-71.4053Q27.4385-71.4053 23.2554-70.0982Q19.0723-68.791 15.71-66.3716Q12.3476-63.9521 10.3985-60.582Q9.96875-59.8467 9.86718-59.1709Q9.76562-58.4951 9.76562-57.1387L9.76562-2.99317Q9.76562-1.16797 10.8315-0.150879Q11.8975 0.866211 13.7988 0.866211Q14.7685 0.866211 15.5952 0.551757Q16.4218 0.237305 17.373-0.43164Q20.8809-3.21289 25.1865-4.66797Q29.4922-6.12305 33.9112-6.12305Q38.0801-6.12305 42.0225-4.78662Q45.9648-3.4502 49.1875-0.750975Q49.8925-0.121093 50.7617-0.121093Q51.4893-0.121093 51.9839-0.606933Q52.4785-1.09278 52.4785-1.90039L52.4785-59.8183Q52.4785-60.6348 52.3388-61.0669Q52.1992-61.499 51.5644-62.3955Q48.9102-66.5411 43.5445-68.9731Q38.1787-71.4053 31.7969-71.4053ZM79.1231-71.4053Q72.7011-71.4053 67.3555-68.9731Q62.0098-66.5411 59.3555-62.3955Q58.7207-61.499 58.581-61.0669Q58.4414-60.6348 58.4414-59.8183L58.4414-1.90039Q58.4414-1.09278 58.936-0.606933Q59.4307-0.121093 60.1582-0.121093Q61.0274-0.121093 61.7324-0.750975Q64.9551-3.4502 68.8975-4.78662Q72.8399-6.12305 76.9687-6.12305Q81.4277-6.12305 85.7334-4.66797Q90.0391-3.21289 93.5469-0.43164Q94.4981 0.237305 95.3247 0.551757Q96.1513 0.866211 97.1211 0.866211Q99.0225 0.866211 100.088-0.150879Q101.154-1.16797 101.154-2.99317L101.154-57.1387Q101.154-58.4951 101.053-59.1709Q100.951-59.8467 100.521-60.582Q98.5811-63.9521 95.2143-66.3716Q91.8477-68.791 87.6645-70.0982Q83.4814-71.4053 79.1231-71.4053Z"/>
  </g>
  <g id="Regular-S" transform="matrix(1 0 0 1 1395.25 696)">
   <path d="M31.4453-71.0449Q27.1484-71.0449 23.0225-69.751Q18.8965-68.457 15.5518-66.0156Q12.207-63.5742 10.2051-60.1074Q9.86328-59.5215 9.81445-58.96Q9.76562-58.3984 9.76562-57.2266L9.76562-2.68555Q9.76562-1.2207 10.6689-0.366211Q11.5723 0.488281 13.1836 0.488281Q13.916 0.488281 14.624 0.244141Q15.332 0 15.9668-0.537109Q19.5801-3.56445 24.0967-5.15137Q28.6133-6.73828 33.252-6.73828Q37.5-6.73828 41.5039-5.37109Q45.5078-4.00391 48.7305-1.26953Q49.3652-0.683594 50.1465-0.683594Q50.8301-0.683594 51.2939-1.14746Q51.7578-1.61133 51.7578-2.39258L51.7578-59.7656Q51.7578-60.5469 51.6357-60.9131Q51.5137-61.2793 50.8789-62.1582Q48.2422-66.2598 42.9688-68.6523Q37.6953-71.0449 31.4453-71.0449ZM77.7344-71.0449Q71.4355-71.0449 66.1865-68.6523Q60.9375-66.2598 58.3008-62.1582Q57.666-61.2793 57.5439-60.9131Q57.4219-60.5469 57.4219-59.7656L57.4219-2.39258Q57.4219-1.61133 57.8857-1.14746Q58.3496-0.683594 59.0332-0.683594Q59.8145-0.683594 60.4492-1.26953Q63.6719-4.00391 67.6758-5.37109Q71.6797-6.73828 75.8789-6.73828Q80.5664-6.73828 85.083-5.15137Q89.5996-3.56445 93.2129-0.537109Q93.8477 0 94.5557 0.244141Q95.2637 0.488281 95.9961 0.488281Q97.6074 0.488281 98.5107-0.366211Q99.4141-1.2207 99.4141-2.68555L99.4141-57.2266Q99.4141-58.3984 99.3652-58.96Q99.3164-59.5215 98.9746-60.1074Q96.9727-63.5742 93.6279-66.0156Q90.2832-68.457 86.1572-69.751Q82.0312-71.0449 77.7344-71.0449Z"/>
  </g>
  <g id="Light-S" transform="matrix(1 0 0 1 1099.95 696)">
   <path d="M31.3151-69.7754Q27.0833-69.7754 22.9899-68.5547Q18.8965-67.334 15.5518-65.0065Q12.207-62.679 10.2214-59.3587Q9.89583-58.8053 9.83073-58.3252Q9.76562-57.845 9.76562-56.8685L9.76562-3.30404Q9.76562-2.14844 10.4817-1.44857Q11.1979-0.748699 12.4512-0.748699Q13.1185-0.748699 13.68-0.968423Q14.2415-1.18815 14.7624-1.64388Q18.2943-4.78515 22.9736-6.3558Q27.653-7.92642 32.5358-7.92642Q37.2559-7.92642 41.2679-6.35579Q45.2799-4.78516 48.1771-2.29492Q48.7793-1.77409 49.4955-1.77409Q50.0977-1.77409 50.5208-2.18099Q50.944-2.58789 50.944-3.28776L50.944-59.2122Q50.944-59.9284 50.8219-60.2946Q50.6999-60.6608 50.1465-61.377Q47.2656-65.3809 42.1957-67.5781Q37.1256-69.7754 31.3151-69.7754ZM75.0488-69.7754Q69.2057-69.7754 64.152-67.5781Q59.0983-65.3809 56.2175-61.377Q55.6641-60.6608 55.542-60.2946Q55.4199-59.9284 55.4199-59.2122L55.4199-3.28776Q55.4199-2.58789 55.8431-2.18099Q56.2663-1.77409 56.8685-1.77409Q57.5847-1.77409 58.1868-2.29492Q61.084-4.78516 65.096-6.35579Q69.1081-7.92642 73.7956-7.92642Q78.7109-7.92642 83.3903-6.3558Q88.0697-4.78515 91.6016-1.64388Q92.1224-1.18815 92.6839-0.968423Q93.2455-0.748699 93.9128-0.748699Q95.166-0.748699 95.8821-1.44857Q96.5983-2.14844 96.5983-3.30404L96.5983-56.8685Q96.5983-57.845 96.5332-58.3252Q96.4681-58.8053 96.1426-59.3587Q94.1569-62.679 90.8122-65.0065Q87.4674-67.334 83.374-68.5547Q79.2806-69.7754 75.0488-69.7754Z"/>
  </g>
  <g id="Thin-S" transform="matrix(1 0 0 1 805.102 696)">
   <path d="M31.1429-68.0963Q26.9972-68.0963 22.9469-66.9725Q18.8965-65.8487 15.5518-63.6719Q12.207-61.4951 10.2429-58.3685Q9.93889-57.8581 9.85225-57.4857Q9.76562-57.1132 9.76562-56.3949L9.76562-4.12204Q9.76562-3.37544 10.2342-2.88007Q10.7028-2.38471 11.4825-2.38471Q12.0637-2.38471 12.4315-2.57214Q12.7992-2.75957 13.1694-3.10767Q16.5937-6.39963 21.4883-7.94875Q26.3829-9.49783 31.5886-9.49783Q36.933-9.49783 40.9558-7.65814Q44.9786-5.81843 47.4452-3.65108Q48.0043-3.21636 48.6344-3.21636Q49.129-3.21636 49.4983-3.54792Q49.8677-3.87948 49.8677-4.47171L49.8677-58.4804Q49.8677-59.1104 49.7456-59.4766Q49.6236-59.8428 49.1778-60.3437Q45.974-64.2184 41.1731-66.1574Q36.3722-68.0963 31.1429-68.0963ZM71.497-68.0963Q66.2566-68.0963 61.4612-66.1574Q56.6658-64.2184 53.4621-60.3437Q53.0163-59.8428 52.8942-59.4766Q52.7722-59.1104 52.7722-58.4804L52.7722-4.47171Q52.7722-3.87948 53.1415-3.54792Q53.5109-3.21636 54.0055-3.21636Q54.6355-3.21636 55.1947-3.65108Q57.6613-5.81843 61.6841-7.65814Q65.7069-9.49783 71.0402-9.49783Q76.2569-9.49783 81.1516-7.94875Q86.0462-6.39963 89.4704-3.10767Q89.8406-2.75957 90.2084-2.57214Q90.5762-2.38471 91.1574-2.38471Q91.9371-2.38471 92.4056-2.88007Q92.8743-3.37544 92.8743-4.12204L92.8743-56.3949Q92.8743-57.1132 92.7876-57.4857Q92.701-57.8581 92.397-58.3685Q90.4329-61.4951 87.0881-63.6719Q83.7434-65.8487 79.693-66.9725Q75.6426-68.0963 71.497-68.0963Z"/>
  </g>
  <g id="Ultralight-S" transform="matrix(1 0 0 1 509.345 696)">
   <path d="M31.0547-67.2363Q26.9531-67.2363 22.9248-66.1621Q18.8965-65.0879 15.5518-62.9883Q12.207-60.8887 10.2539-57.8613Q9.96094-57.373 9.86328-57.0557Q9.76562-56.7383 9.76562-56.1523L9.76562-4.54102Q9.76562-4.00391 10.1074-3.61328Q10.4492-3.22266 10.9863-3.22266Q11.5234-3.22266 11.792-3.39355Q12.0605-3.56445 12.3535-3.85742Q15.7227-7.22656 20.7275-8.76465Q25.7324-10.3027 31.1035-10.3027Q36.7676-10.3027 40.7959-8.3252Q44.8242-6.34766 47.0703-4.3457Q47.6074-3.95508 48.1934-3.95508Q48.6328-3.95508 48.9746-4.24805Q49.3164-4.54102 49.3164-5.07812L49.3164-58.1055Q49.3164-58.6914 49.1943-59.0576Q49.0723-59.4238 48.6816-59.8145Q45.3125-63.623 40.6494-65.4297Q35.9863-67.2363 31.0547-67.2363ZM69.6777-67.2363Q64.7461-67.2363 60.083-65.4297Q55.4199-63.623 52.0508-59.8145Q51.6602-59.4238 51.5381-59.0576Q51.416-58.6914 51.416-58.1055L51.416-5.07812Q51.416-4.54102 51.7578-4.24805Q52.0996-3.95508 52.5391-3.95508Q53.125-3.95508 53.6621-4.3457Q55.9082-6.34766 59.9365-8.3252Q63.9648-10.3027 69.6289-10.3027Q75-10.3027 80.0049-8.76465Q85.0098-7.22656 88.3789-3.85742Q88.6719-3.56445 88.9404-3.39355Q89.209-3.22266 89.7461-3.22266Q90.2832-3.22266 90.625-3.61328Q90.9668-4.00391 90.9668-4.54102L90.9668-56.1523Q90.9668-56.7383 90.8691-57.0557Q90.7715-57.373 90.4785-57.8613Q88.5254-60.8887 85.1807-62.9883Q81.8359-65.0879 77.8076-66.1621Q73.7793-67.2363 69.6777-67.2363Z"/>
  </g>
 </g>
</svg>
