<svg width="250" height="250" viewBox="0 0 250 250" fill="none" xmlns="http://www.w3.org/2000/svg">
<g clip-path="url(#clip0_3502_1904)">
<path d="M25.0249 100.517H8.96042V106.476H25.0249V100.517Z" fill="#EBEBEB"/>
<path d="M16.0645 108.031H0V113.99H16.0645V108.031Z" fill="#DBDBDB"/>
<path d="M33.9853 108.031H17.9208V113.99H33.9853V108.031Z" fill="#EBEBEB"/>
<path d="M241.04 23.6607H224.975V29.6198H241.04V23.6607Z" fill="#EBEBEB"/>
<path d="M250 31.1748H233.936V37.1339H250V31.1748Z" fill="#DBDBDB"/>
<path d="M16.0645 23.666H0V29.6251H16.0645V23.666Z" fill="#EBEBEB"/>
<path d="M202.395 171.728H186.331V177.687H202.395V171.728Z" fill="#DBDBDB"/>
<path d="M211.356 164.213H195.291V170.173H211.356V164.213Z" fill="#EBEBEB"/>
<path d="M223.046 71.2536V0" stroke="#C7C7C7" stroke-miterlimit="10"/>
<path d="M197.93 92.5072L199.95 96.4054H246.148L248.162 92.5072L228.494 80.5571H217.598L197.93 92.5072Z" fill="#EBEBEB"/>
<path d="M216.233 69.0436L217.598 80.5571H228.494L229.859 69.0436H216.233Z" fill="#DBDBDB"/>
<path d="M197.93 92.5072L199.95 96.4054H246.148L248.162 92.5072H197.93Z" fill="#DBDBDB"/>
<path d="M183.619 29.4121V0" stroke="#C7C7C7" stroke-miterlimit="10"/>
<path d="M158.503 50.6657L160.523 54.5638H206.721L208.735 50.6657L189.067 38.7155H178.171L158.503 50.6657Z" fill="#EBEBEB"/>
<path d="M176.806 27.2021L178.171 38.7155H189.067L190.432 27.2021H176.806Z" fill="#DBDBDB"/>
<path d="M158.509 50.6657L160.529 54.5639H206.727L208.741 50.6657H158.509Z" fill="#DBDBDB"/>
<path d="M76.7429 59.591H8.90582V63.1271H76.7429V59.591Z" fill="#EBEBEB"/>
<path d="M18.0846 63.1324H14.0564V74.8269H18.0846V63.1324Z" fill="#EBEBEB"/>
<path d="M18.0846 63.1324H14.0564V66.7483H18.0846V63.1324Z" fill="#DBDBDB"/>
<path d="M71.5984 63.1324H67.5702V74.8269H71.5984V63.1324Z" fill="#EBEBEB"/>
<path d="M71.5984 63.1324H67.5702V66.7483H71.5984V63.1324Z" fill="#DBDBDB"/>
<path d="M32.5232 37.0593H26.0562V59.5963H32.5232V37.0593Z" fill="#C7C7C7"/>
<path d="M32.5232 35.8558H26.0562V38.3321H32.5232V35.8558Z" fill="#DBDBDB"/>
<path d="M32.5232 41.506H26.0562V42.422H32.5232V41.506Z" fill="#DBDBDB"/>
<path d="M33.324 54.1644H26.0562V56.6407H33.324V54.1644Z" fill="#DBDBDB"/>
<path d="M37.0368 33.3049H32.5172V59.591H37.0368V33.3049Z" fill="#DBDBDB"/>
<path d="M36.1147 35.7759H33.4029V45.8888H36.1147V35.7759Z" fill="#EBEBEB"/>
<path d="M47.8778 38.303L44.7004 41.1245L65.9962 59.6042L69.1736 56.7827L47.8778 38.303Z" fill="#C7C7C7"/>
<path d="M55.3604 45.8908L53.4539 47.5837L61.647 54.6933L63.5534 53.0004L55.3604 45.8908Z" fill="#DBDBDB"/>
<path d="M44.7051 39.6315H37.0308V59.5963H44.7051V39.6315Z" fill="#A6A6A6"/>
<path d="M44.7051 55.6236H37.0308V57.4875H44.7051V55.6236Z" fill="#C7C7C7"/>
<path d="M44.7051 53.6798H37.0308V54.4041H44.7051V53.6798Z" fill="#C7C7C7"/>
<path d="M26.0562 40.835H20.754V59.6017H26.0562V40.835Z" fill="#A6A6A6"/>
<path d="M26.0562 55.8579H20.754V57.6046H26.0562V55.8579Z" fill="#C7C7C7"/>
<path d="M26.0562 44.7012H20.754V46.448H26.0562V44.7012Z" fill="#C7C7C7"/>
<path d="M26.0562 47.6515H20.754V48.3278H26.0562V47.6515Z" fill="#C7C7C7"/>
<path d="M245.31 239.126C245.31 245.133 191.445 250 125.003 250C58.5612 250 4.68951 245.133 4.68951 239.126C4.68951 233.119 58.5552 228.251 124.997 228.251C191.439 228.251 245.304 233.119 245.304 239.126H245.31Z" fill="#EBEBEB"/>
<path d="M1.8382 216.45L32.6264 216.317L63.4206 216.269L124.997 216.184L186.579 216.269L217.374 216.317L248.162 216.45L217.374 216.578L186.579 216.626L124.997 216.711L63.4206 216.626L32.6264 216.578L1.8382 216.45Z" fill="#263238"/>
<path d="M219.667 129.279C219.667 129.279 205.726 127.564 208.984 112.797C208.984 112.797 224.557 115.864 219.667 129.279Z" fill="#1976D2"/>
<path opacity="0.1" d="M219.667 129.279C219.667 129.279 205.726 127.564 208.984 112.797C208.984 112.797 224.557 115.864 219.667 129.279Z" fill="black"/>
<path d="M218.963 126.196C218.69 125.45 218.369 124.715 218.011 123.996C217.999 123.9 217.986 123.81 217.974 123.719C217.956 123.517 217.932 123.314 217.914 123.107C217.871 122.665 217.841 122.223 217.81 121.781C217.75 120.897 217.689 120.013 217.671 119.134C217.671 119.086 217.586 119.086 217.586 119.134C217.574 120.018 217.562 120.902 217.598 121.786C217.616 122.228 217.647 122.67 217.683 123.112C217.689 123.208 217.701 123.309 217.707 123.405C216.931 121.935 215.984 120.524 214.911 119.209C214.431 118.623 213.928 118.058 213.388 117.515C212.83 116.956 212.247 116.423 211.683 115.875C211.647 115.838 211.586 115.896 211.622 115.928C212.648 116.865 213.497 117.978 214.31 119.065C214.735 119.629 215.135 120.204 215.511 120.79C215.469 120.774 215.426 120.764 215.384 120.748C215.22 120.689 215.056 120.625 214.886 120.572C214.51 120.444 214.128 120.316 213.746 120.194C213 119.949 212.247 119.709 211.501 119.459C211.459 119.443 211.428 119.512 211.471 119.528C212.211 119.789 212.945 120.061 213.679 120.338C214.037 120.476 214.401 120.609 214.759 120.742C214.941 120.812 215.123 120.875 215.305 120.939C215.426 120.982 215.548 121.035 215.675 121.051C215.954 121.493 216.233 121.941 216.494 122.393C217.137 123.538 217.713 124.715 218.199 125.919C218.235 126.004 218.265 126.089 218.302 126.174C217.956 125.972 217.519 125.839 217.161 125.69C216.682 125.493 216.197 125.306 215.717 125.114C214.741 124.72 213.77 124.321 212.83 123.858C212.781 123.836 212.739 123.9 212.787 123.922C213.746 124.38 214.686 124.869 215.645 125.327C216.124 125.556 216.603 125.78 217.095 125.988C217.495 126.158 217.95 126.398 218.405 126.446C218.842 127.575 219.206 128.72 219.321 129.918C219.479 131.59 219.461 133.273 219.503 134.945C219.503 134.972 219.552 134.972 219.552 134.945C219.691 133.427 219.77 131.894 219.776 130.371C219.782 128.922 219.455 127.575 218.951 126.201L218.963 126.196Z" fill="#332A28"/>
<path d="M216.816 117.51C216.706 118.367 216.609 119.251 216.676 120.114C216.676 120.135 216.718 120.135 216.718 120.114C216.773 119.251 216.785 118.389 216.9 117.526C216.9 117.478 216.822 117.462 216.816 117.51Z" fill="#332A28"/>
<path d="M212.83 118.25C212.211 118.021 211.598 117.803 211.04 117.478C210.992 117.451 210.955 117.515 210.998 117.542C211.562 117.851 212.162 118.149 212.805 118.303C212.842 118.309 212.86 118.266 212.83 118.25Z" fill="#332A28"/>
<path d="M220.11 152.727C220.098 151.374 220.067 150.021 220.049 148.669C220.019 144.179 219.976 139.69 219.885 135.195C219.812 131.633 219.715 128.07 219.6 124.502C219.6 124.481 219.582 124.465 219.564 124.454C219.564 123.48 219.552 122.505 219.546 121.536C219.546 121.509 219.515 121.499 219.479 121.499C219.448 121.499 219.412 121.509 219.412 121.536C219.406 122.51 219.4 123.485 219.394 124.459C219.376 124.47 219.363 124.481 219.363 124.502C219.157 130.845 218.975 137.192 218.933 143.535C218.927 144.824 218.927 146.118 218.921 147.407C218.872 151.544 218.848 155.682 218.866 159.82C218.866 160.48 218.854 161.135 218.848 161.796C218.836 165.582 218.89 169.363 218.896 173.149C218.896 173.352 219.151 173.453 219.43 173.464C219.746 173.474 220.079 173.368 220.079 173.133C220.079 168.958 220.11 164.783 220.11 160.613C220.122 157.983 220.134 155.352 220.11 152.721V152.727Z" fill="#332A28"/>
<path d="M214.292 148.621C214.292 148.621 207.588 144.259 201.224 147.204C194.86 150.149 193.865 161.508 193.865 161.508C193.865 161.508 203.208 162.68 209.093 157.764C214.765 153.025 214.292 148.615 214.292 148.615V148.621Z" fill="#1976D2"/>
<path d="M216.118 148.887C214.905 148.44 213.552 148.328 212.235 148.44C211.968 148.386 211.683 148.386 211.416 148.37C211.101 148.349 210.785 148.328 210.47 148.307C209.821 148.264 209.165 148.227 208.516 148.184C207.194 148.099 205.865 148.024 204.549 147.907C204.5 147.907 204.494 147.976 204.537 147.982C205.841 148.125 207.145 148.291 208.456 148.408C209.129 148.466 209.802 148.53 210.476 148.573C210.634 148.583 210.797 148.599 210.967 148.615C210.767 148.653 210.567 148.695 210.373 148.743C209.323 149.004 208.31 149.377 207.333 149.83C206.806 149.915 206.278 150.043 205.762 150.149C204.931 150.32 204.106 150.506 203.281 150.698C201.655 151.07 200.041 151.491 198.428 151.906C198.373 151.917 198.397 151.992 198.452 151.976C200.066 151.63 201.691 151.31 203.305 150.969C204.094 150.804 204.876 150.644 205.665 150.474C205.865 150.431 206.072 150.389 206.284 150.351C204.476 151.326 202.856 152.577 201.515 153.989C200.181 155.395 199.119 156.934 198.203 158.574C198.179 158.616 198.246 158.654 198.276 158.616C199.362 156.95 200.721 155.379 202.286 153.999C202.256 154.079 202.225 154.154 202.201 154.234C202.074 154.58 201.952 154.926 201.831 155.272C201.582 155.964 201.333 156.657 201.097 157.354C201.079 157.402 201.164 157.418 201.182 157.37C201.467 156.699 201.734 156.023 202.001 155.347C202.134 155.016 202.268 154.686 202.401 154.351C202.468 154.18 202.535 154.005 202.601 153.834C202.62 153.781 202.644 153.728 202.668 153.675C203.42 153.035 204.215 152.434 205.046 151.896C206.144 151.182 207.346 150.58 208.607 150.106C208.583 150.208 208.565 150.309 208.541 150.41C208.474 150.676 208.407 150.948 208.34 151.214C208.207 151.773 208.086 152.332 207.964 152.886C207.71 154.026 207.558 155.176 207.309 156.316C207.297 156.364 207.382 156.38 207.394 156.332C207.697 155.187 208.08 154.058 208.371 152.913C208.516 152.338 208.662 151.763 208.801 151.188C208.862 150.916 208.923 150.65 208.99 150.378C209.026 150.229 209.062 150.08 209.081 149.925C209.202 149.883 209.323 149.835 209.445 149.792C211.204 149.222 213.145 148.807 215.026 149.121C216.822 149.425 218.356 150.479 219.06 151.96C219.121 152.088 219.351 152.008 219.315 151.88C218.951 150.469 217.604 149.414 216.13 148.871L216.118 148.887Z" fill="#332A28"/>
<path d="M205.853 153.738C205.665 154.484 205.477 155.23 205.289 155.975C205.107 156.689 204.889 157.424 204.822 158.153C204.822 158.18 204.864 158.18 204.876 158.158C205.149 157.456 205.283 156.694 205.447 155.964C205.61 155.23 205.774 154.495 205.938 153.754C205.95 153.706 205.865 153.69 205.853 153.738Z" fill="#332A28"/>
<path d="M199.368 155.634C198.512 156.012 197.687 156.444 196.796 156.758C196.741 156.779 196.777 156.848 196.832 156.827C197.693 156.449 198.579 156.119 199.392 155.666C199.41 155.656 199.392 155.629 199.374 155.64L199.368 155.634Z" fill="#332A28"/>
<path d="M215.796 140.611C215.796 140.611 207.6 141.069 203.79 136.33C199.981 131.585 200.836 124.811 200.836 124.811C200.836 124.811 209.445 125.727 212.86 129.135C216.276 132.543 215.796 140.611 215.796 140.611Z" fill="#1976D2"/>
<path d="M219.643 147.71C219.357 146.938 219.006 146.182 218.678 145.425C218.362 144.701 218.023 143.982 217.659 143.269C216.925 141.82 216.112 140.404 215.202 139.03C214.625 138.156 214.007 137.31 213.364 136.473C213.351 136.346 213.321 136.218 213.297 136.09C213.26 135.866 213.224 135.643 213.182 135.424C213.103 134.972 213.012 134.514 212.921 134.061C212.733 133.065 212.496 132.08 212.32 131.084C212.314 131.036 212.229 131.036 212.235 131.084C212.399 132.064 212.514 133.055 212.672 134.034C212.751 134.519 212.818 134.998 212.903 135.483C212.933 135.659 212.963 135.829 212.994 136.005C211.744 134.402 210.397 132.863 208.941 131.388C208.747 131.191 208.541 130.994 208.34 130.802C208.322 130.749 208.292 130.695 208.268 130.637C208.207 130.498 208.146 130.365 208.092 130.227C207.97 129.939 207.855 129.657 207.74 129.369C207.509 128.805 207.303 128.24 207.127 127.66C207.115 127.612 207.03 127.633 207.048 127.681C207.212 128.272 207.388 128.858 207.588 129.444C207.685 129.726 207.788 130.003 207.904 130.28C207.922 130.328 207.94 130.371 207.964 130.419C206.915 129.417 205.823 128.448 204.719 127.495C204.682 127.463 204.622 127.516 204.658 127.548C206.799 129.471 208.692 131.595 210.464 133.789C210.264 133.731 210.057 133.688 209.857 133.656C209.226 133.55 208.589 133.47 207.952 133.401C206.617 133.252 205.289 133.103 203.954 132.921C203.9 132.916 203.881 132.985 203.936 132.996C205.204 133.214 206.466 133.465 207.728 133.72C208.322 133.843 208.917 133.944 209.517 134.045C210.015 134.13 210.482 134.263 210.955 134.407C211.089 134.572 211.222 134.737 211.356 134.903C211.956 135.669 212.532 136.452 213.097 137.246C212.818 137.198 212.539 137.15 212.259 137.102C211.629 136.995 210.992 136.894 210.355 136.804C209.105 136.623 207.855 136.431 206.617 136.186C206.563 136.175 206.545 136.25 206.599 136.26C207.855 136.516 209.093 136.82 210.336 137.113C210.937 137.251 211.544 137.384 212.144 137.501C212.448 137.56 212.751 137.618 213.054 137.672C213.188 137.693 213.309 137.725 213.424 137.725C214.619 139.429 215.748 141.176 216.785 142.954C217.24 143.737 217.683 144.525 218.108 145.324C218.544 146.139 218.921 146.975 219.327 147.806C219.406 147.971 219.703 147.907 219.643 147.726V147.71Z" fill="#332A28"/>
<path d="M211.259 131.18C211.101 130.493 210.937 129.811 210.761 129.124C210.749 129.077 210.67 129.098 210.682 129.146C210.84 129.822 210.986 130.493 211.125 131.169C211.265 131.84 211.374 132.527 211.592 133.182C211.592 133.193 211.616 133.193 211.616 133.182C211.574 132.511 211.41 131.835 211.259 131.175V131.18Z" fill="#332A28"/>
<path d="M206.478 130.978C206.096 130.813 205.695 130.674 205.301 130.541C205.095 130.472 204.889 130.397 204.682 130.328C204.579 130.291 204.47 130.253 204.367 130.216C204.258 130.179 204.118 130.147 204.021 130.083C203.96 130.04 203.918 130.136 203.979 130.147C204.1 130.163 204.215 130.227 204.33 130.275C204.434 130.317 204.537 130.355 204.64 130.397C204.84 130.477 205.04 130.552 205.24 130.632C205.635 130.786 206.041 130.94 206.448 131.052C206.496 131.068 206.527 130.999 206.478 130.978Z" fill="#332A28"/>
<path d="M224.186 134.956C224.186 134.956 229.143 126.824 236.69 125.567C244.237 124.31 248.853 131.122 248.853 131.122C248.853 131.122 243.351 137.288 236.429 138.369C229.507 139.445 224.193 134.961 224.193 134.961L224.186 134.956Z" fill="#1976D2"/>
<path d="M241.743 129.21C239.79 128.975 237.788 129.002 235.828 129.274C235.944 129.22 236.053 129.162 236.162 129.114C236.72 128.864 237.278 128.613 237.836 128.358C238.995 127.83 240.166 127.266 241.379 126.84C241.434 126.819 241.404 126.749 241.343 126.771C240.16 127.255 238.941 127.655 237.758 128.134C237.163 128.374 236.581 128.624 236.004 128.89C235.634 129.061 235.222 129.226 234.852 129.433C233.195 129.732 231.576 130.195 230.059 130.834C230.374 130.536 230.69 130.232 230.999 129.934C231.703 129.258 232.395 128.549 233.165 127.932C233.208 127.9 233.141 127.846 233.104 127.878C232.316 128.507 231.485 129.093 230.714 129.748C230.344 130.067 229.986 130.392 229.64 130.733C229.471 130.903 229.295 131.079 229.131 131.255C225.849 132.82 223.058 135.185 221.22 138.039C220.17 139.663 219.442 141.421 219.018 143.242C219.006 143.29 219.084 143.311 219.097 143.269C220.134 140.201 222.087 137.315 224.641 135.03C227.414 132.554 230.914 130.765 234.748 129.897C237.023 129.385 239.377 129.204 241.725 129.343C241.822 129.348 241.828 129.226 241.737 129.215L241.743 129.21Z" fill="#332A28"/>
<path opacity="0.1" d="M248.853 131.122C248.853 131.122 243.351 137.288 236.423 138.369C231.145 139.19 226.795 136.772 225.036 135.584L224.654 135.036C224.654 135.036 228.227 132.394 234.979 130.871C241.737 129.348 248.853 131.127 248.853 131.127V131.122Z" fill="black"/>
<path d="M237.363 126.313C236.787 126.622 236.223 126.925 235.689 127.282C235.167 127.633 234.676 128.017 234.233 128.454C234.19 128.491 234.257 128.539 234.3 128.507C234.803 128.123 235.301 127.745 235.822 127.383C236.332 127.026 236.854 126.675 237.406 126.377C237.454 126.35 237.406 126.286 237.363 126.313Z" fill="#332A28"/>
<path d="M241.501 127.687C241.222 127.788 240.936 127.878 240.657 127.98C240.378 128.081 240.099 128.182 239.82 128.283C239.76 128.304 239.79 128.39 239.851 128.368C240.13 128.267 240.409 128.166 240.694 128.07C240.973 127.969 241.252 127.857 241.531 127.756C241.58 127.74 241.555 127.665 241.507 127.687H241.501Z" fill="#332A28"/>
<path d="M223.192 145.191C223.192 145.191 224.514 153.259 231.424 156.082C238.334 158.904 246.754 156.082 246.754 156.082C246.754 156.082 243.442 138.63 223.185 145.191H223.192Z" fill="#1976D2"/>
<path d="M242.004 150.831C241.367 150.767 240.73 150.671 240.099 150.57C239.79 150.522 239.48 150.469 239.171 150.415C239.013 150.389 238.85 150.357 238.686 150.33C238.498 150.176 238.316 150.021 238.128 149.878C236.817 148.866 235.404 147.971 233.899 147.188C233.08 146.762 232.237 146.384 231.369 146.049C231.412 146.049 231.454 146.049 231.497 146.054C232.255 146.081 233.013 146.112 233.772 146.139C235.288 146.203 236.805 146.23 238.322 146.315C238.376 146.315 238.376 146.246 238.322 146.24C236.799 146.15 235.288 146.001 233.766 145.889C233.032 145.83 232.291 145.777 231.557 145.718C231.181 145.686 230.799 145.66 230.417 145.633C230.32 145.628 230.223 145.617 230.126 145.607C229.731 145.479 229.337 145.356 228.931 145.244C227.044 144.728 225.018 144.526 223.076 144.962C221.341 145.351 219.6 146.352 219.151 147.96C219.133 148.014 219.236 148.056 219.26 147.998C219.909 146.656 221.608 145.974 223.143 145.697C224.174 145.511 225.23 145.521 226.273 145.644C226.316 146.059 226.492 146.48 226.625 146.863C226.819 147.433 227.007 147.998 227.202 148.567C227.596 149.702 228.027 150.82 228.409 151.96C228.427 152.008 228.506 151.986 228.488 151.938C228.166 150.804 227.893 149.665 227.584 148.53C227.432 147.971 227.268 147.417 227.117 146.863C227.013 146.507 226.935 146.086 226.771 145.718C227.377 145.814 227.978 145.937 228.567 146.091C229.628 146.363 230.672 146.704 231.697 147.098C231.8 147.673 231.946 148.243 232.097 148.807C232.285 149.521 232.498 150.224 232.753 150.921C232.771 150.964 232.837 150.943 232.831 150.9C232.819 150.857 232.813 150.809 232.801 150.767C232.643 150.107 232.48 149.451 232.322 148.791C232.194 148.259 232.079 147.726 231.946 147.194C232.807 147.534 233.65 147.902 234.463 148.312C234.482 148.477 234.524 148.642 234.554 148.796C234.603 149.073 234.664 149.35 234.718 149.622C234.846 150.245 234.991 150.863 235.161 151.48C235.489 152.663 235.853 153.85 236.35 154.99C236.338 155.006 236.338 155.022 236.35 155.038C236.362 155.048 236.374 155.064 236.386 155.08C236.417 155.112 236.465 155.075 236.453 155.043C236.132 153.85 235.768 152.663 235.47 151.465C235.319 150.868 235.173 150.266 235.034 149.665C234.967 149.366 234.9 149.063 234.839 148.759C234.821 148.674 234.809 148.583 234.791 148.488C235.725 148.972 236.623 149.494 237.478 150.064C238.953 151.038 240.366 152.157 241.598 153.366C241.646 153.414 241.743 153.344 241.701 153.291C241.173 152.684 240.651 152.088 240.057 151.528C239.711 151.204 239.347 150.884 238.983 150.575C239.019 150.58 239.062 150.586 239.098 150.591C239.42 150.639 239.747 150.682 240.069 150.719C240.706 150.793 241.349 150.847 241.992 150.911C242.047 150.911 242.065 150.841 242.016 150.836L242.004 150.831Z" fill="#332A28"/>
<path d="M237.145 153.568C237.133 153.499 237.121 153.43 237.102 153.36C237.084 153.27 237.036 153.185 237.017 153.094C236.878 152.556 236.757 152.013 236.647 151.464C236.641 151.427 236.568 151.438 236.575 151.475C236.605 152.194 236.805 152.913 237.102 153.579C237.114 153.6 237.157 153.6 237.151 153.573C237.151 153.573 237.151 153.573 237.151 153.568H237.145Z" fill="#332A28"/>
<path d="M231.363 153.435C231.363 153.435 231.339 153.403 231.321 153.403C231.127 152.689 230.939 151.976 230.775 151.257C230.69 150.879 230.599 150.501 230.514 150.122C230.471 149.92 230.429 149.712 230.387 149.51C230.35 149.334 230.332 149.148 230.241 148.988C230.223 148.962 230.168 148.967 230.162 148.999C230.101 149.34 230.265 149.75 230.338 150.08C230.423 150.474 230.508 150.868 230.611 151.257C230.811 152.05 231.036 152.844 231.297 153.627C231.309 153.669 231.394 153.659 231.388 153.616C231.388 153.557 231.375 153.499 231.375 153.44L231.363 153.435Z" fill="#332A28"/>
<path d="M241.373 148.509C240.111 148.354 238.85 148.195 237.588 148.062C237.533 148.056 237.515 148.125 237.569 148.136C238.831 148.301 240.093 148.44 241.355 148.583C241.41 148.589 241.428 148.52 241.373 148.509Z" fill="#332A28"/>
<path d="M219.655 126.27C219.655 126.27 215.426 109.985 235.355 103.398C235.355 103.398 240.876 124.832 219.655 126.27Z" fill="#1976D2"/>
<path d="M223.956 117.036C224.029 116.993 224.102 116.956 224.168 116.924C224.544 116.743 224.921 116.557 225.297 116.37L227.608 115.236C229.131 114.49 230.629 113.713 232.164 112.983C232.213 112.962 232.164 112.898 232.122 112.919C230.587 113.654 229.028 114.336 227.481 115.055L225.194 116.115C224.884 116.258 224.569 116.402 224.259 116.546C224.927 115.438 225.636 114.352 226.413 113.308C227.456 111.913 228.597 110.587 229.786 109.287C229.841 109.229 229.75 109.149 229.689 109.208C227.93 110.683 226.407 112.371 225.078 114.165C225.078 114.107 225.078 114.048 225.084 113.995C225.109 113.59 225.121 113.186 225.127 112.781C225.139 111.987 225.096 111.189 225.127 110.395C225.127 110.347 225.042 110.347 225.042 110.395C225.005 111.178 224.896 111.955 224.848 112.738C224.823 113.127 224.805 113.516 224.787 113.91C224.781 114.123 224.757 114.363 224.763 114.591C224.35 115.167 223.956 115.747 223.586 116.338C222.919 117.387 222.324 118.49 221.802 119.619C221.784 119.214 221.754 118.809 221.729 118.404C221.669 117.515 221.547 116.626 221.505 115.731C221.505 115.683 221.42 115.683 221.42 115.731C221.444 116.626 221.396 117.515 221.42 118.404C221.438 118.852 221.45 119.294 221.487 119.741C221.499 119.906 221.511 120.071 221.523 120.236C220.886 121.696 220.377 123.203 220.019 124.71C219.63 126.339 219.473 127.974 219.279 129.625C219.279 129.636 219.297 129.636 219.303 129.625C219.479 128.15 219.903 126.664 220.358 125.242C220.607 124.475 220.862 123.709 221.147 122.952C221.978 122.612 222.767 122.18 223.574 121.791C224.405 121.387 225.242 120.993 226.073 120.588C227.735 119.789 229.398 118.974 231.109 118.266C231.157 118.245 231.108 118.181 231.066 118.202C229.331 118.894 227.578 119.549 225.873 120.3C225.024 120.673 224.186 121.078 223.361 121.483C222.67 121.823 221.96 122.17 221.299 122.558C221.493 122.052 221.693 121.546 221.918 121.046C222.524 119.677 223.204 118.335 223.968 117.025L223.956 117.036Z" fill="#332A28"/>
<path d="M222.275 113.313C222.275 113.265 222.184 113.265 222.191 113.313C222.263 114.24 222.3 115.172 222.409 116.099C222.415 116.152 222.506 116.152 222.5 116.099C222.464 115.167 222.348 114.245 222.269 113.313H222.275Z" fill="#332A28"/>
<path d="M231.83 116.423C230.581 116.865 229.325 117.281 228.081 117.739C228.045 117.749 228.063 117.803 228.099 117.787C229.361 117.371 230.599 116.924 231.855 116.493C231.903 116.477 231.879 116.402 231.83 116.423Z" fill="#332A28"/>
<path d="M233.723 108.915C232.504 109.41 231.321 109.958 230.18 110.582C230.12 110.613 230.18 110.693 230.235 110.661C231.388 110.07 232.571 109.5 233.766 108.979C233.814 108.957 233.766 108.893 233.723 108.915Z" fill="#332A28"/>
<path d="M233.426 161.482H204.682V188.076H233.426V161.482Z" fill="#483C3A"/>
<path d="M204.173 170.891H202.705V216.445H204.173V170.891Z" fill="#332A28"/>
<path d="M235.246 170.891H233.778V216.445H235.246V170.891Z" fill="#332A28"/>
<path d="M220.492 170.891H219.024V216.445H220.492V170.891Z" fill="#332A28"/>
<path d="M234.512 186.372H203.439V190.057H234.512V186.372Z" fill="#332A28"/>
<path d="M174.489 29.05H75.4993C69.9726 29.05 65.4833 33.0546 65.4833 38.0019V216.876C65.4833 221.813 69.9665 225.828 75.4993 225.828H174.489C180.015 225.828 184.511 221.813 184.511 216.876V38.0019C184.511 33.0493 180.015 29.05 174.489 29.05ZM178.25 211.343C178.25 216.051 174.234 219.858 169.277 219.858H80.7227C75.7602 219.858 71.738 216.051 71.738 211.343V44.7811C71.738 35.1901 75.7541 34.7215 80.7227 34.7215H98.4615C99.4928 34.7215 100.336 35.7493 100.336 37.0221V37.5706C100.336 40.5581 102.199 40.5688 104.48 40.5688H145.502C147.808 40.5688 149.658 40.5581 149.658 37.5706V37.0221C149.658 35.7493 150.489 34.7215 151.538 34.7215H169.271C174.228 34.7215 178.244 35.9943 178.244 44.7811V211.343H178.25Z" fill="#0B0707"/>
<path d="M178.256 44.9249V211.487C178.256 216.194 174.24 220.002 169.283 220.002H80.7287C75.7662 220.002 71.744 216.194 71.744 211.487V44.9249C71.744 35.3339 75.7601 34.8653 80.7287 34.8653H98.4675C99.4989 34.8653 100.342 35.8931 100.342 37.1658V37.7143C100.342 40.7019 102.205 40.7125 104.486 40.7125H145.508C147.814 40.7125 149.664 40.7019 149.664 37.7143V37.1658C149.664 35.8931 150.495 34.8653 151.545 34.8653H169.277C174.234 34.8653 178.25 36.138 178.25 44.9249H178.256Z" fill="white"/>
<path d="M178.256 44.9302V60.0437H71.744V44.9302C71.744 35.3392 75.7601 34.8706 80.7287 34.8706H98.4675C99.4989 34.8706 100.342 35.8984 100.342 37.1712V37.7197C100.342 40.7072 102.205 40.7179 104.486 40.7179H145.508C147.814 40.7179 149.664 40.7072 149.664 37.7197V37.1712C149.664 35.8984 150.495 34.8706 151.545 34.8706H169.283C174.24 34.8706 178.256 36.1434 178.256 44.9302Z" fill="#1976D2"/>
<path d="M130.59 36.841H119.397C119.015 36.841 118.706 36.5694 118.706 36.2339C118.706 35.8984 119.015 35.6268 119.397 35.6268H130.59C130.973 35.6268 131.282 35.8984 131.282 36.2339C131.282 36.5694 130.973 36.841 130.59 36.841Z" fill="white"/>
<path d="M95.3978 38.4652C95.3432 38.5132 95.2826 38.5664 95.228 38.6143C95.1976 38.641 95.1612 38.6729 95.1309 38.6996C94.6698 38.3055 94.1238 38.0978 93.4808 38.0978C92.8377 38.0978 92.2917 38.3055 91.8246 38.6996C91.7943 38.6729 91.7639 38.641 91.7336 38.6143C91.679 38.5664 91.6183 38.5132 91.5637 38.4652C91.5637 38.4652 91.5698 38.4546 91.5759 38.4546C91.6487 38.396 91.7215 38.3428 91.7943 38.2842C91.9459 38.1723 92.1158 38.0818 92.2978 38.0019C92.5101 37.9114 92.7285 37.8422 92.9651 37.8049C93.0743 37.7889 93.1896 37.7783 93.2988 37.7676C93.3352 37.7676 93.5839 37.7676 93.59 37.7676C93.6628 37.7676 93.7416 37.7729 93.8144 37.7836C94.0268 37.8049 94.227 37.8475 94.4211 37.9114C94.5667 37.9593 94.7002 38.0126 94.8336 38.0818C94.9732 38.151 95.1066 38.2309 95.228 38.3214C95.2886 38.3694 95.3493 38.4173 95.41 38.4652H95.3978Z" fill="white"/>
<path d="M92.3706 39.1735C92.2796 39.0937 92.1886 39.0191 92.0976 38.9392C92.407 38.673 92.771 38.5025 93.2017 38.4546C93.8448 38.3801 94.3908 38.5505 94.8579 38.9392C94.7669 39.0191 94.6759 39.099 94.5849 39.1789C94.2755 38.9179 93.9115 38.7795 93.4747 38.7795C93.044 38.7795 92.6739 38.9179 92.3645 39.1842L92.3706 39.1735Z" fill="white"/>
<path d="M94.318 39.4078C94.227 39.4877 94.1421 39.5623 94.0511 39.6421C93.8933 39.509 93.7053 39.4344 93.4808 39.4344C93.2563 39.4344 93.0683 39.509 92.9105 39.6421C92.8195 39.5623 92.7285 39.4824 92.6436 39.4078C93.0743 39.0137 93.8448 38.9818 94.318 39.4078Z" fill="white"/>
<path d="M93.7234 39.8605C93.7234 39.9776 93.6142 40.0735 93.4808 40.0735C93.3473 40.0735 93.2381 39.9776 93.2381 39.8605C93.2381 39.7433 93.3473 39.6475 93.4808 39.6475C93.6142 39.6475 93.7234 39.7433 93.7234 39.8605Z" fill="white"/>
<path d="M78.6843 38.9179C78.6843 38.5771 78.9997 38.3002 79.388 38.3002C79.7763 38.3002 80.0917 38.5771 80.0917 38.9179C80.0917 39.2587 79.7763 39.5357 79.388 39.5357C78.9997 39.5357 78.6843 39.2587 78.6843 38.9179Z" fill="white"/>
<path d="M80.9107 38.9179C80.9107 38.5771 81.2262 38.3002 81.6144 38.3002C82.0027 38.3002 82.3182 38.5771 82.3182 38.9179C82.3182 39.2587 82.0027 39.5357 81.6144 39.5357C81.2262 39.5357 80.9107 39.2587 80.9107 38.9179Z" fill="white"/>
<path d="M83.1311 38.9179C83.1311 38.5771 83.4466 38.3002 83.8348 38.3002C84.2231 38.3002 84.5386 38.5771 84.5386 38.9179C84.5386 39.2587 84.2231 39.5357 83.8348 39.5357C83.4466 39.5357 83.1311 39.2587 83.1311 38.9179Z" fill="white"/>
<path d="M85.3575 38.9179C85.3575 38.5771 85.673 38.3002 86.0613 38.3002C86.4495 38.3002 86.765 38.5771 86.765 38.9179C86.765 39.2587 86.4495 39.5357 86.0613 39.5357C85.673 39.5357 85.3575 39.2587 85.3575 38.9179Z" fill="white"/>
<path d="M87.5779 38.9179C87.5779 38.5771 87.8934 38.3002 88.2817 38.3002C88.6699 38.3002 88.9854 38.5771 88.9854 38.9179C88.9854 39.2587 88.6699 39.5357 88.2817 39.5357C87.8934 39.5357 87.5779 39.2587 87.5779 38.9179Z" fill="white"/>
<path d="M170.26 40.2706H164.515V37.9327H170.26V40.2706ZM164.806 40.0149H169.969V38.1937H164.806V40.0149Z" fill="white"/>
<path d="M168.701 38.3321H164.994V39.8764H168.701V38.3321Z" fill="white"/>
<path d="M170.776 38.4759H170.266V39.7274H170.776V38.4759Z" fill="white"/>
<path d="M81.8329 54.2603L78.6843 51.6721L81.8329 49.084L82.3242 49.542L79.7338 51.6721L82.3242 53.8023L81.8329 54.2603Z" fill="white"/>
<path d="M168.592 54.4467H166.468V53.8023C166.468 53.749 166.432 53.6958 166.371 53.6692C166.293 53.6319 166.214 53.5946 166.135 53.552C166.08 53.5201 166.013 53.5147 165.959 53.5467L165.316 53.8715L164.254 52.2579L164.897 51.9331C164.952 51.9065 164.982 51.8532 164.976 51.7946C164.976 51.752 164.976 51.7148 164.976 51.6775C164.976 51.6402 164.976 51.5976 164.976 51.5603C164.976 51.5017 164.946 51.4485 164.897 51.4219L164.26 51.097L165.322 49.4834L165.959 49.8083C166.013 49.8349 166.08 49.8349 166.135 49.8029C166.214 49.7603 166.293 49.7177 166.371 49.6805C166.432 49.6538 166.468 49.6059 166.468 49.5473V48.903H168.592V49.5473C168.592 49.6006 168.628 49.6538 168.683 49.6805C168.768 49.7177 168.847 49.755 168.919 49.8029C168.974 49.8349 169.041 49.8349 169.095 49.8083L169.732 49.4834L170.794 51.097L170.151 51.4219C170.096 51.4485 170.066 51.5017 170.072 51.5603C170.072 51.5976 170.072 51.6402 170.072 51.6775C170.072 51.7148 170.072 51.7574 170.072 51.7946C170.072 51.8532 170.096 51.9065 170.151 51.9331L170.794 52.2579L169.732 53.8715L169.089 53.5467C169.035 53.5201 168.968 53.5201 168.913 53.552C168.841 53.5946 168.756 53.6372 168.677 53.6745C168.616 53.7011 168.586 53.7491 168.586 53.8076V54.4573L168.592 54.4467ZM166.923 54.0473H168.137V53.8023C168.137 53.5946 168.27 53.4082 168.483 53.3177C168.549 53.2857 168.616 53.2538 168.677 53.2218C168.877 53.11 169.126 53.0994 169.332 53.2005L169.575 53.323L170.181 52.4017L169.933 52.2739C169.732 52.1727 169.617 51.9757 169.629 51.768V51.6722V51.571C169.617 51.3633 169.732 51.1716 169.939 51.0651L170.187 50.9426L169.581 50.0213L169.338 50.1438C169.132 50.245 168.883 50.2396 168.683 50.1278C168.622 50.0905 168.555 50.0586 168.489 50.0319C168.276 49.9361 168.143 49.7497 168.143 49.542V49.297H166.93V49.542C166.93 49.7497 166.796 49.9361 166.584 50.0319C166.517 50.0639 166.45 50.0958 166.39 50.1278C166.189 50.2396 165.941 50.2503 165.734 50.1438L165.492 50.0213L164.885 50.9426L165.128 51.0651C165.328 51.1662 165.449 51.3633 165.437 51.571V51.6668V51.768C165.449 51.9757 165.334 52.1674 165.128 52.2686L164.885 52.3911L165.492 53.3124L165.734 53.1899C165.941 53.0887 166.189 53.094 166.39 53.2112C166.45 53.2485 166.517 53.2804 166.584 53.307C166.796 53.4029 166.93 53.5893 166.93 53.7917V54.0366L166.923 54.0473ZM167.53 53.0674C166.65 53.0674 165.941 52.439 165.941 51.6722C165.941 50.9053 166.657 50.2769 167.53 50.2769C168.404 50.2769 169.126 50.9053 169.126 51.6722C169.126 52.439 168.41 53.0674 167.53 53.0674ZM167.53 50.671C166.905 50.671 166.396 51.1183 166.396 51.6722C166.396 52.226 166.905 52.668 167.53 52.668C168.155 52.668 168.671 52.2207 168.671 51.6722C168.671 51.1236 168.161 50.671 167.53 50.671Z" fill="white"/>
<path d="M98.0732 176.078H86.9955V185.803H98.0732V176.078Z" fill="#BABEB8"/>
<path d="M114.259 176.078H103.181V185.803H114.259V176.078Z" fill="#BABEB8"/>
<path d="M130.451 176.078H119.373V185.803H130.451V176.078Z" fill="#BABEB8"/>
<path d="M146.637 176.078H135.559V185.803H146.637V176.078Z" fill="#BABEB8"/>
<path d="M162.822 176.078H151.745V185.803H162.822V176.078Z" fill="#BABEB8"/>
<path d="M162.477 190.926H86.6558V191.975H162.477V190.926Z" fill="#BABEB8"/>
<path d="M162.477 193.695H86.6558V194.744H162.477V193.695Z" fill="#BABEB8"/>
<path d="M162.477 196.469H86.6558V197.518H162.477V196.469Z" fill="#BABEB8"/>
<path d="M121.854 199.238H86.6558V200.288H121.854V199.238Z" fill="#BABEB8"/>
<path d="M196.589 64.7566C196.353 64.0004 196.298 63.2389 196.292 62.4827C196.304 61.7265 196.359 60.9703 196.595 60.2087C196.832 60.9649 196.887 61.7265 196.893 62.4827C196.881 63.2389 196.826 63.9951 196.589 64.7566Z" fill="#263238"/>
<path d="M191.317 66.0879C190.68 65.5341 190.201 64.9057 189.764 64.2507C189.34 63.5903 188.958 62.9087 188.733 62.1472C189.37 62.701 189.849 63.3294 190.286 63.9844C190.711 64.6448 191.093 65.3264 191.317 66.0879Z" fill="#263238"/>
<path d="M187.514 69.5548C186.646 69.3577 185.876 69.0169 185.123 68.6441C184.383 68.2554 183.661 67.84 183.036 67.2755C183.904 67.4726 184.674 67.808 185.427 68.1808C186.167 68.5696 186.889 68.9903 187.514 69.5495V69.5548Z" fill="#263238"/>
<path d="M186.191 74.2304C185.33 74.4381 184.468 74.4861 183.601 74.4914C182.739 74.4807 181.878 74.4328 181.016 74.2251C181.878 74.0121 182.739 73.9695 183.607 73.9642C184.468 73.9748 185.33 74.0228 186.191 74.2304Z" fill="#263238"/>
<path d="M187.708 78.8582C187.077 79.4174 186.361 79.8381 185.615 80.2215C184.863 80.5943 184.086 80.9298 183.219 81.1268C183.843 80.5677 184.565 80.147 185.311 79.7635C186.064 79.3908 186.84 79.0553 187.708 78.8582Z" fill="#263238"/>
<path d="M191.663 82.2026C191.439 82.9641 191.051 83.6404 190.632 84.3008C190.189 84.9505 189.716 85.5842 189.073 86.1327C189.297 85.3712 189.679 84.6895 190.104 84.0345C190.547 83.3848 191.02 82.7511 191.663 82.2026Z" fill="#263238"/>
<path d="M196.984 83.3635C197.22 84.1197 197.275 84.8812 197.281 85.6374C197.269 86.3936 197.214 87.1498 196.978 87.9113C196.741 87.1551 196.686 86.3936 196.68 85.6374C196.692 84.8812 196.747 84.125 196.984 83.3635Z" fill="#263238"/>
<path d="M202.256 82.0269C202.893 82.5807 203.372 83.2091 203.809 83.8641C204.233 84.5245 204.616 85.2061 204.84 85.9676C204.203 85.4138 203.724 84.7854 203.287 84.1304C202.862 83.47 202.48 82.7884 202.256 82.0269Z" fill="#263238"/>
<path d="M206.059 78.56C206.927 78.757 207.697 79.0979 208.45 79.4653C209.19 79.8541 209.912 80.2694 210.537 80.8339C209.669 80.6369 208.899 80.2961 208.146 79.9286C207.406 79.5399 206.684 79.1192 206.059 78.56Z" fill="#263238"/>
<path d="M207.382 73.8843C208.243 73.6766 209.105 73.6287 209.972 73.6234C210.834 73.634 211.695 73.6819 212.557 73.8896C211.695 74.1026 210.834 74.1452 209.966 74.1506C209.105 74.1399 208.243 74.092 207.382 73.8843Z" fill="#263238"/>
<path d="M205.859 69.2566C206.49 68.6974 207.206 68.2767 207.952 67.8933C208.704 67.5205 209.481 67.185 210.349 66.988C209.724 67.5471 209.002 67.9678 208.256 68.3513C207.503 68.7241 206.727 69.0596 205.859 69.2566Z" fill="#263238"/>
<path d="M201.91 65.9122C202.134 65.1507 202.523 64.4744 202.941 63.814C203.384 63.1644 203.857 62.5306 204.5 61.9821C204.276 62.7436 203.894 63.4253 203.469 64.0803C203.026 64.73 202.547 65.3637 201.91 65.9122Z" fill="#263238"/>
<path d="M198.282 74.0601H93.6567V140.468H198.282V74.0601Z" fill="#1976D2"/>
<path d="M104.273 140.468V158.281L124.627 140.414L104.273 140.468Z" fill="#1976D2"/>
<path d="M146.276 84L119 125.469H173.545L146.276 84Z" fill="#0B0606"/>
<path d="M146.276 89.9005L124.921 122.359H167.624L146.276 89.9005Z" fill="white"/>
<path d="M144.11 99.2892H148.435L148.144 113.284H144.401L144.11 99.2892Z" fill="#0B0606"/>
<path d="M148.144 115.036H144.401V118.317H148.144V115.036Z" fill="#0B0606"/>
<path d="M11.1869 81.2068C11.1869 88.5132 17.9391 94.4403 26.2564 94.4403C29.6173 94.4403 32.7234 93.4711 35.235 91.8309L42.6181 93.4871L39.5423 87.4534C40.6829 85.5949 41.3259 83.4647 41.3259 81.2121C41.3259 73.9057 34.5738 67.9785 26.2564 67.9785C17.933 67.9785 11.1869 73.9057 11.1869 81.2121V81.2068Z" fill="white"/>
<path d="M11.1869 81.2067C11.2354 83.6404 11.9695 86.0741 13.4679 88.1297C13.8016 88.6623 14.2627 89.1256 14.6691 89.6155C15.1423 90.0575 15.5791 90.5315 16.113 90.9202C17.1201 91.7563 18.2909 92.422 19.5224 92.9652C20.7479 93.535 22.0886 93.8599 23.4354 94.1048C24.1149 94.19 24.7943 94.2965 25.4859 94.2965C26.1715 94.3338 26.8631 94.3232 27.5425 94.2646C30.2786 94.0409 32.9297 93.1303 35.1076 91.6764L35.1865 91.6232L35.2896 91.6445L42.6849 93.2581L42.3755 93.5776L39.2754 87.5493L39.2147 87.4374L39.2815 87.3256C40.331 85.5895 40.9255 83.6511 41.0165 81.6914C41.0711 79.7316 40.7132 77.7452 39.7789 75.9506C38.8689 74.1559 37.4979 72.5424 35.8053 71.243C34.1066 69.9489 32.05 69.0276 29.8721 68.527C27.6942 68.0318 25.3767 67.9625 23.1564 68.3566C20.936 68.756 18.8248 69.6081 17.0169 70.8169C13.383 73.2346 11.1929 77.1967 11.1808 81.2067H11.1869ZM11.1869 81.2067C11.1687 77.2021 13.3284 73.208 16.9684 70.753C18.7641 69.5069 20.8753 68.6122 23.12 68.1702C25.3646 67.7389 27.7245 67.7708 29.9631 68.2448C32.2017 68.7241 34.3311 69.6347 36.1086 70.9394C37.8861 72.2388 39.33 73.9003 40.2825 75.7589C42.1935 79.4707 42.0721 83.9813 39.8093 87.5706L39.8214 87.3416L42.8729 93.3859L43.0974 93.8332L42.5635 93.7107L35.1926 92.0119L35.3746 91.98C33.1056 93.4391 30.3696 94.3285 27.5789 94.5149C26.8813 94.5628 26.1775 94.5628 25.4799 94.5149C24.7761 94.5042 24.0906 94.3871 23.399 94.2912C22.0401 94.0196 20.6872 93.6681 19.4618 93.077C18.2242 92.5125 17.0655 91.8202 16.0584 90.9788C15.5245 90.5847 15.0877 90.1055 14.6145 89.6581C14.2081 89.1629 13.7531 88.6996 13.4194 88.1617C11.9391 86.0901 11.2172 83.6458 11.1869 81.2121V81.2067Z" fill="#263238"/>
<path d="M24.2423 73.2293H27.7731L27.5304 84.6363H24.4789L24.2423 73.2293Z" fill="#1976D2"/>
<path d="M27.5365 86.0635H24.485V88.7421H27.5365V86.0635Z" fill="#1976D2"/>
<path d="M67.467 181.638L68.9109 189.243L78.7024 235.653H80.2798L73.1636 189.243L72.108 181.638H67.467Z" fill="#C7C7C7"/>
<path d="M72.108 181.638H67.467L68.9109 189.243H73.1636L72.108 181.638Z" fill="#A6A6A6"/>
<path d="M36.7213 235.653H38.2986L48.0902 189.243L49.534 181.638H44.8931L43.8435 189.243L36.7213 235.653Z" fill="#C7C7C7"/>
<path d="M44.8931 181.638L43.8436 189.243H48.0902L49.5341 181.638H44.8931Z" fill="#A6A6A6"/>
<path d="M7.35883 235.653H8.93615L18.7277 189.243L20.1716 181.638H15.5306L14.4811 189.243L7.35883 235.653Z" fill="#C7C7C7"/>
<path d="M14.481 189.243H18.7277L20.1716 181.638H15.5306L14.481 189.243Z" fill="#A6A6A6"/>
<path d="M9.86435 185.211H81.5963V178.576H54.7453L45.7182 132.485H12.5943L9.86435 185.211Z" fill="#C7C7C7"/>
<path d="M9.86435 185.211H13.7713L16.3192 132.485H12.5943L9.86435 185.211Z" fill="#A6A6A6"/>
<path d="M149.027 237.773C147.741 238.172 109.818 237.704 108.399 236.932C108.229 236.846 107.974 230.477 107.974 230.477C107.962 229.854 107.21 225.924 107.21 225.924C103.818 218.772 95.7376 206.156 95.7376 206.156L120.599 206.737L132.259 227.032C132.259 227.032 137.421 228.842 141.923 230.648C141.923 230.648 141.935 230.648 141.935 230.658C144.714 231.766 147.122 232.778 147.68 233.15C149.13 234.136 150.325 237.384 149.039 237.773H149.027Z" fill="#AD6359"/>
<path d="M149.154 237.842C147.82 238.231 109.667 238.05 108.217 237.235C107.659 236.932 107.21 226.036 107.21 225.972L131.828 225.844L131.816 226.212C131.816 226.212 146.382 232.006 147.862 233.049C149.336 234.088 150.489 237.459 149.154 237.837V237.842Z" fill="#1976D2"/>
<path d="M148.73 236.543C142.299 236.372 116.34 236.229 109.97 236.489C109.915 236.489 109.915 236.521 109.97 236.527C116.34 236.814 142.299 236.777 148.73 236.639C148.863 236.639 148.869 236.548 148.73 236.548V236.543Z" fill="#263238"/>
<path d="M134.564 225.919C132.034 225.493 128.94 225.817 126.993 227.394C126.92 227.452 127.017 227.548 127.102 227.527C129.602 226.851 131.937 226.419 134.552 226.206C134.734 226.19 134.746 225.956 134.564 225.924V225.919Z" fill="#263238"/>
<path d="M136.384 226.893C133.854 226.467 130.76 226.792 128.813 228.368C128.74 228.427 128.837 228.523 128.922 228.501C131.422 227.825 133.757 227.394 136.372 227.181C136.554 227.165 136.566 226.93 136.384 226.898V226.893Z" fill="#263238"/>
<path d="M138.204 227.868C135.674 227.442 132.58 227.767 130.633 229.343C130.56 229.401 130.657 229.497 130.742 229.476C133.242 228.8 135.577 228.368 138.192 228.155C138.374 228.139 138.386 227.905 138.204 227.873V227.868Z" fill="#263238"/>
<path d="M132.865 226.105L103.406 226.323C103.406 226.323 84.2231 186.058 82.3425 183.869C81.4021 182.778 37.9893 177.133 30.3999 171.488C20.5416 164.155 27.8155 150.495 27.8155 150.495L55.6614 150.399C55.6614 150.399 54.4177 155.65 55.4612 156.385C56.1467 156.875 96.3503 165.119 103.406 172.819C113.525 183.869 132.865 226.1 132.865 226.1V226.105Z" fill="#37474F"/>
<path d="M129.31 221.893C127.751 221.818 126.168 221.871 124.603 221.866C123.031 221.866 121.466 221.866 119.895 221.866C116.752 221.871 113.616 221.898 110.479 221.919C108.702 221.93 106.924 222.026 105.153 222.09C105.08 222.09 105.08 222.18 105.153 222.18C108.296 222.308 111.426 222.383 114.574 222.367C117.717 222.351 120.853 222.303 123.99 222.212C125.761 222.164 127.557 222.175 129.316 222.026C129.426 222.015 129.426 221.893 129.316 221.887L129.31 221.893Z" fill="#263238"/>
<path d="M103.618 214.544C102.86 212.818 102.035 211.119 101.185 209.426C99.5171 206.108 97.7517 202.822 95.9863 199.542C94.1421 196.118 92.2978 192.694 90.4414 189.275C89.5314 187.597 88.6214 185.914 87.7054 184.232C87.3535 183.582 86.9834 182.932 86.4617 182.373C85.8854 181.75 85.1513 181.329 84.302 181.036C83.4102 180.733 82.4698 180.53 81.5538 180.307C80.5407 180.062 79.5275 179.817 78.5144 179.577C76.4821 179.098 74.4498 178.635 72.4114 178.198C68.3285 177.314 40.786 172.51 36.2239 170.78C32.6264 169.411 30.8488 166.711 30.2422 165.263C28.8347 161.913 28.95 158.34 29.4111 154.846C29.5324 153.946 29.6901 153.046 29.8479 152.146C29.86 152.088 29.7569 152.066 29.7447 152.125C29.132 155.656 28.4343 159.256 29.0956 162.824C29.6416 165.752 31.4676 168.809 34.3918 170.396C40.2279 173.56 71.8532 178.507 80.0129 180.456C81.0139 180.696 82.0149 180.935 83.0158 181.185C83.9562 181.425 84.9147 181.702 85.6366 182.309C86.2736 182.847 86.6983 183.545 87.0805 184.237C87.5294 185.052 87.9602 185.872 88.403 186.687C90.2412 190.111 92.0855 193.53 93.9419 196.949C97.5758 203.659 101.27 210.358 104.395 217.27C104.771 218.101 105.141 218.926 105.529 219.752C105.578 219.853 105.76 219.81 105.723 219.699C105.123 217.952 104.37 216.248 103.624 214.549L103.618 214.544Z" fill="#263238"/>
<path d="M116.989 243.354C115.697 243.737 78.7328 243.279 77.3253 242.486C75.7844 241.197 75.1292 210.587 75.1292 210.587L98.9104 210.416L100.391 232.394C100.391 232.394 105.523 234.269 109.994 236.133C109.994 236.133 110.006 236.133 110.006 236.143C112.767 237.283 115.157 238.332 115.709 238.716C117.141 239.722 118.281 242.981 116.989 243.354Z" fill="#AD6359"/>
<path d="M117.747 243.375C116.413 243.764 78.2535 243.604 76.8097 242.784C76.2515 242.481 75.9543 237.608 75.7905 231.707C75.7905 231.643 75.7905 231.585 75.7905 231.521L100.409 231.382L100.397 231.75C100.397 231.75 114.969 237.539 116.455 238.582C117.929 239.621 119.088 242.986 117.753 243.37L117.747 243.375Z" fill="#1976D2"/>
<path d="M117.323 242.076C110.892 241.911 84.9329 241.772 78.5629 242.039C78.5083 242.039 78.5083 242.071 78.5629 242.076C84.9329 242.363 110.892 242.315 117.323 242.172C117.456 242.172 117.462 242.081 117.323 242.081V242.076Z" fill="#263238"/>
<path d="M103.139 231.462C100.609 231.036 97.5151 231.366 95.5677 232.937C95.4949 232.996 95.592 233.092 95.6769 233.071C98.1764 232.389 100.512 231.958 103.127 231.745C103.309 231.729 103.321 231.494 103.139 231.462Z" fill="#263238"/>
<path d="M104.965 232.437C102.435 232.011 99.3412 232.341 97.3938 233.912C97.321 233.971 97.418 234.066 97.503 234.045C100.002 233.364 102.338 232.932 104.953 232.719C105.135 232.703 105.147 232.469 104.965 232.437Z" fill="#263238"/>
<path d="M106.785 233.406C104.255 232.98 101.161 233.31 99.2138 234.881C99.141 234.94 99.238 235.036 99.323 235.014C101.822 234.333 104.158 233.901 106.773 233.688C106.955 233.672 106.967 233.438 106.785 233.406Z" fill="#263238"/>
<path d="M101.713 231.601L74.7774 231.729C74.7774 231.729 75.2324 189.168 73.1333 186.814C70.3305 183.672 31.1158 183.747 22.7074 173.501C15.1545 164.299 22.7074 150.41 22.7074 150.41H51.257C51.257 150.41 50.2985 154.638 48.4724 158.702C48.4724 158.702 85.6912 165.934 94.2695 174.108C101.058 180.578 101.719 231.606 101.719 231.606L101.713 231.601Z" fill="#37474F"/>
<path d="M53.6958 156.912C52.8404 157.045 51.9911 157.349 51.1781 157.621C50.3288 157.908 49.4855 158.228 48.6665 158.579C47.0407 159.271 45.4937 160.065 43.971 160.912C43.9224 160.938 43.971 160.997 44.0195 160.976C45.6272 160.246 47.2834 159.586 48.9456 158.957C49.7464 158.654 50.5472 158.356 51.3419 158.052C52.1488 157.748 53.0042 157.487 53.7686 157.109C53.8717 157.061 53.8171 156.896 53.6958 156.912Z" fill="#263238"/>
<path d="M51.9122 150.49C51.5725 151.677 51.2752 152.876 50.8869 154.053C50.711 154.59 50.5351 155.144 50.2985 155.666C50.1043 156.108 49.801 156.614 49.2186 156.71C48.5452 156.822 48.3511 156.321 48.4057 155.831C48.4663 155.288 48.6241 154.74 48.7454 154.207C48.8849 153.589 49.6615 150.591 49.5462 150.485C49.528 150.469 49.5037 150.474 49.4855 150.485C49.3581 150.549 49.0851 151.417 48.9881 151.72C48.8 152.29 48.618 152.854 48.4542 153.43C48.2904 153.999 48.1266 154.574 47.9689 155.15C47.8475 155.576 47.708 156.028 47.8354 156.47C47.981 156.95 48.4178 157.195 48.8971 157.232C48.8728 157.269 48.8485 157.306 48.8243 157.349C48.7636 157.466 48.7211 157.589 48.6726 157.711C48.6241 157.834 48.5755 157.956 48.5331 158.084C48.5149 158.143 48.5027 158.206 48.4967 158.27C48.4906 158.34 48.5027 158.409 48.4967 158.478C48.4785 158.585 48.6483 158.648 48.709 158.542C48.7454 158.483 48.7939 158.435 48.8364 158.377C48.8789 158.318 48.9092 158.244 48.9335 158.18C48.982 158.063 49.0184 157.94 49.0548 157.823C49.0912 157.7 49.1337 157.583 49.1579 157.461C49.1761 157.386 49.1761 157.317 49.1822 157.243C49.4552 157.216 49.7343 157.136 49.9648 156.982C50.3713 156.715 50.6079 156.305 50.7717 155.895C50.9779 155.4 51.1357 154.889 51.2934 154.383C51.6877 153.126 52.0214 151.853 52.1549 150.554C52.167 150.415 51.9486 150.367 51.9122 150.506V150.49Z" fill="#263238"/>
<path d="M34.2522 153.398C34.1309 153.989 34.052 154.585 33.8943 155.166C33.7426 155.735 33.5667 156.311 33.3483 156.864C33.142 157.397 32.8872 157.935 32.5232 158.398C32.1653 158.845 31.6921 159.234 31.2068 159.575C30.2543 160.241 29.1684 160.768 28.0218 161.13C27.4455 161.311 26.8509 161.466 26.2503 161.583C25.9409 161.647 25.6194 161.689 25.3039 161.726C25.037 161.758 24.7761 161.764 24.5456 161.881C24.4425 161.929 24.4607 162.073 24.5577 162.11C24.9642 162.286 25.5345 162.19 25.9652 162.147C26.4748 162.099 26.9783 162.025 27.4697 161.918C28.4646 161.694 29.4292 161.327 30.315 160.869C31.1825 160.416 32.05 159.852 32.6931 159.165C33.3544 158.451 33.7244 157.61 33.961 156.721C34.2462 155.656 34.4403 154.5 34.3736 153.403C34.3736 153.339 34.2583 153.328 34.2462 153.392L34.2522 153.398Z" fill="#263238"/>
<path d="M78.751 202.178C78.4841 198.482 78.1383 194.792 77.7015 191.107C77.5923 190.196 77.4891 189.291 77.3617 188.38C77.2647 187.682 77.1312 186.969 76.84 186.308C76.2212 184.924 74.9048 184.226 73.3153 183.869C71.4407 183.454 69.4994 183.204 67.5884 182.932C65.6349 182.655 63.6815 182.405 61.722 182.165C57.7544 181.681 53.7868 181.233 49.8374 180.653C45.9062 180.072 41.9933 179.364 38.1773 178.352C34.6708 177.426 31.0733 176.275 28.2645 174.14C22.2221 169.549 21.9976 161.849 22.7378 155.411C22.8409 154.5 22.9683 153.595 23.0957 152.689C23.1018 152.641 23.0168 152.625 23.0108 152.673C22.5315 156.3 21.9734 159.948 22.3859 163.601C22.7196 166.589 23.7205 169.587 25.6922 172.063C27.7367 174.635 30.77 176.297 34.0399 177.458C37.6131 178.725 41.3927 179.577 45.1661 180.269C53.0042 181.707 61 182.32 68.8867 183.502C69.8573 183.646 70.828 183.806 71.7986 183.971C72.6844 184.125 73.5944 184.264 74.4255 184.588C76.2151 185.291 76.7065 186.82 76.931 188.401C77.4467 192.071 77.7985 195.761 78.0958 199.446C78.7085 206.875 79.0301 214.341 79.0119 221.786C79.0119 222.707 78.9876 224.491 78.9755 225.413C78.9755 225.493 79.115 225.487 79.1211 225.407C79.3759 217.947 79.2849 209.628 78.751 202.178Z" fill="#263238"/>
<path d="M101.022 206.71C100.476 200.181 99.6627 193.673 98.5889 187.198C98.0672 184.066 97.5758 180.903 96.8235 177.804C96.4959 176.456 96.0348 175.418 95.0642 174.305C94.1117 173.208 92.1825 171.829 90.8539 171.11C77.7561 163.984 50.1165 158.957 49.2732 158.782C49.2065 158.766 49.1822 158.856 49.2489 158.872C55.9586 160.326 79.2788 165.939 88.7124 170.726C90.1441 171.451 94.0147 173.245 95.4403 175.823C96.1622 177.133 96.502 179.13 96.775 180.557C97.0904 182.181 97.3877 183.811 97.6668 185.44C98.7648 191.82 99.602 198.227 100.184 204.654C100.767 211.077 101.331 221.435 101.349 222.249C101.349 222.457 101.713 222.446 101.719 222.239C101.816 215.667 101.58 213.266 101.028 206.71H101.022Z" fill="#263238"/>
<path d="M99.8204 226.994C98.3766 226.888 96.9084 226.909 95.4525 226.872C93.9965 226.835 92.5405 226.803 91.0845 226.776C88.1725 226.717 85.2605 226.68 82.3546 226.638C80.7045 226.616 79.0543 226.675 77.4103 226.701C77.3435 226.701 77.3435 226.787 77.4103 226.792C80.3162 226.984 83.216 227.122 86.1341 227.17C89.0461 227.218 91.9581 227.234 94.8701 227.213C96.5141 227.202 98.1764 227.25 99.8144 227.138C99.9114 227.133 99.9175 227.01 99.8144 227L99.8204 226.994Z" fill="#263238"/>
<path d="M79.5458 109.032L71.8351 122.798C71.556 123.192 71.7137 123.586 72.193 123.677L80.747 125.28C81.2262 125.37 81.8389 125.12 82.118 124.726L89.8287 110.96C90.1078 110.566 89.95 110.171 89.4708 110.081L80.9168 108.478C80.4376 108.387 79.8248 108.632 79.5397 109.032H79.5458Z" fill="#37474F"/>
<path d="M80.5589 109.213L72.8482 122.979C72.5691 123.373 72.7269 123.767 73.2061 123.858L81.7601 125.461C82.2393 125.551 82.8521 125.301 83.1372 124.907L90.8479 111.141C91.127 110.747 90.9692 110.353 90.49 110.262L81.936 108.659C81.4567 108.569 80.844 108.819 80.5589 109.213Z" fill="#263238"/>
<path d="M82.7429 110.315C82.6458 110.667 82.2454 110.885 81.8511 110.8C81.4507 110.715 81.202 110.363 81.299 110.017C81.3961 109.666 81.7965 109.447 82.1908 109.532C82.5912 109.618 82.8399 109.969 82.7429 110.315Z" fill="#455A64"/>
<path d="M46.6221 125.892C49.158 135.866 57.0325 149.712 61.5036 150.639C63.633 151.081 67.3275 152.274 70.6763 150.671C77.9806 147.167 85.3697 139.179 87.7175 134.242C88.5547 132.485 79.4183 126.536 77.5438 127.735C73.1515 130.536 67.3397 136.585 66.7269 136.426C64.4702 135.824 57.1538 127.506 52.0578 121.653C45.8698 114.554 45.6029 121.919 46.616 125.892H46.6221Z" fill="#AD6359"/>
<path d="M90.3686 124.832C90.2412 120.907 89.5193 119.917 91.4121 116.557C92.6557 114.347 91.582 112.706 89.222 114.208C85.3636 116.668 84.3202 121.765 84.5386 123.623L90.3686 124.838V124.832Z" fill="#AD6359"/>
<path d="M86.8197 135.733C86.8197 135.733 90.0229 130.924 90.3565 126.733C90.5871 123.831 90.2837 117.473 82.1362 112.557C80.2071 111.391 76.5064 110.933 78.8785 113.841C80.5589 115.907 82.3364 116.775 83.0644 118.133C83.0644 118.133 78.2839 118.037 77.0281 119.784C76.4639 120.561 74.9897 122.723 74.1161 124.55C74.1161 124.55 74.5166 124.822 75.0807 125.109C75.0807 125.109 73.9645 126.776 74.832 129.62L86.8136 135.739L86.8197 135.733Z" fill="#AD6359"/>
<path d="M90.0714 123.938C89.0219 122.723 86.7529 120.183 84.0715 118.671C81.0928 116.993 74.8381 114.458 73.4488 116.402C72.4296 117.829 74.7228 118.98 74.7228 118.98C74.7228 118.98 71.8897 118.41 71.2891 119.874C70.7431 121.211 72.5752 122.004 72.5752 122.004C72.5752 122.004 70.7855 121.919 70.5429 123.293C70.2456 124.944 74.0433 124.854 75.3901 126.749C75.6935 127.175 90.0714 123.938 90.0714 123.938Z" fill="#AD6359"/>
<path d="M82.573 121.722C81.3718 120.721 77.9866 119.065 74.7834 118.937C74.7107 118.937 74.6682 118.98 74.7349 118.996C78.2293 119.789 81.293 121.115 82.5548 121.744C82.573 121.754 82.5851 121.733 82.573 121.717V121.722Z" fill="#263238"/>
<path d="M80.5528 124.316C79.4184 123.544 75.839 121.973 72.5873 121.946C72.5145 121.946 72.4781 121.994 72.5449 122.01C76.2334 122.707 79.2303 123.778 80.5346 124.342C80.5528 124.348 80.565 124.326 80.5528 124.316Z" fill="#263238"/>
<path d="M63.1415 131.936L51.2206 142.241C51.2206 142.241 45.8698 126.787 45.7606 121.855C45.6332 116.301 48.8971 117.462 53.2711 121.083C57.6452 124.71 63.1476 131.936 63.1476 131.936H63.1415Z" fill="#1976D2"/>
<path d="M50.717 138.87C51.0689 138.46 54.721 135.195 55.54 134.503C56.3529 133.811 59.6411 130.946 60.5511 130.291C60.5935 130.264 60.6481 130.301 60.6117 130.339C59.8655 131.127 56.5531 134.024 55.7463 134.748C54.9334 135.467 51.2327 138.625 50.7716 138.923C50.7292 138.95 50.6988 138.897 50.7231 138.87H50.717Z" fill="#263238"/>
<path d="M56.3955 154.079C55.5583 154.793 19.7166 158.047 19.5406 157.834C19.0675 157.264 25.7832 127.745 40.1429 117.579C42.6727 115.79 46.889 116.541 48.8 117.622C49.7525 118.16 52.8343 122.606 53.5866 126.377C54.3389 130.142 56.9233 153.621 56.3955 154.074V154.079Z" fill="#1976D2"/>
<path d="M28.1795 132.671L54.4905 132.868C54.4177 132.298 54.3571 131.755 54.2903 131.233L29.0471 131.047C28.7498 131.585 28.4586 132.128 28.1795 132.677V132.671Z" fill="#37474F"/>
<path d="M26.5719 135.936L54.8849 136.138C54.8121 135.584 54.7575 135.036 54.6907 134.503L27.3484 134.306C27.0815 134.844 26.8267 135.392 26.5719 135.936Z" fill="#37474F"/>
<path d="M50.0559 118.16C51.4633 119.432 51.6999 123.368 48.7515 123.954C45.8031 124.539 42.145 120.173 41.8598 117.904C41.5686 115.635 46.9376 115.348 50.0559 118.165V118.16Z" fill="#37474F"/>
<path d="M48.8304 122.947C46.7374 123.213 43.4917 120.194 42.3209 117.861C42.242 117.702 43.5767 111.652 43.698 110.427C43.7223 110.177 52.2641 112.962 52.2641 112.962C52.2641 112.962 51.1478 115.46 50.9476 117.595C50.9355 117.776 50.8506 122.686 48.8304 122.947Z" fill="#AD6359"/>
<path d="M43.971 110.443C44.2137 112.451 45.3057 117.696 50.0558 118.165C50.3652 118.191 50.6504 118.202 50.9173 118.186C50.9416 117.851 50.9416 117.632 50.9476 117.595C51.1418 115.465 52.258 112.967 52.258 112.967C52.258 112.962 52.2459 112.962 52.2338 112.962C52.2095 112.951 52.1549 112.935 52.0942 112.914C52.0942 112.909 52.076 112.909 52.07 112.909C52.0032 112.882 51.9304 112.861 51.8334 112.829C51.803 112.818 51.7727 112.808 51.7363 112.797C51.6756 112.776 51.6089 112.76 51.5482 112.738C51.4694 112.712 51.3966 112.685 51.3116 112.658C51.1842 112.621 51.0568 112.579 50.9173 112.531C50.8688 112.509 50.8202 112.499 50.7717 112.483C50.6686 112.451 50.5715 112.419 50.4623 112.381C50.0862 112.264 49.6858 112.131 49.2611 111.998C49.1094 111.95 48.9517 111.897 48.8001 111.854C48.6059 111.796 48.4057 111.732 48.2116 111.668C48.0175 111.609 47.8173 111.545 47.6231 111.487C47.5989 111.482 47.5746 111.471 47.5443 111.466C47.2045 111.359 46.8709 111.258 46.5493 111.157C46.4341 111.125 46.3249 111.087 46.2157 111.055C45.9973 110.986 45.7849 110.928 45.5787 110.869C45.427 110.826 45.2875 110.789 45.1479 110.747C44.8203 110.656 44.5352 110.582 44.3107 110.518C44.244 110.502 44.1833 110.491 44.1227 110.475C44.0681 110.464 44.0195 110.454 43.971 110.443Z" fill="#263238"/>
<path d="M44.6747 101.012C43.1034 103.515 42.8608 111.529 44.614 113.649C47.1559 116.722 52.2459 117.915 55.4612 115.05C58.5734 112.275 58.6765 101.821 56.632 99.8083C53.6169 96.8474 46.9921 97.3213 44.6747 101.012Z" fill="#AD6359"/>
<path d="M51.9668 107.291C51.9668 107.291 51.9183 107.312 51.9183 107.338C51.9183 107.882 51.803 108.505 51.2388 108.67C51.2206 108.67 51.2206 108.702 51.2388 108.702C51.9243 108.643 52.0639 107.812 51.9668 107.296V107.291Z" fill="#263238"/>
<path d="M51.439 106.705C50.4441 106.604 50.2924 108.356 51.2085 108.451C52.1124 108.542 52.2701 106.79 51.439 106.705Z" fill="#263238"/>
<path d="M55.5401 107.493C55.5401 107.493 55.5886 107.519 55.5825 107.546C55.5097 108.089 55.534 108.718 56.0739 108.941C56.0921 108.947 56.0861 108.973 56.0679 108.973C55.3945 108.84 55.3763 108.004 55.5401 107.498V107.493Z" fill="#263238"/>
<path d="M56.1467 106.966C57.1477 106.971 57.0567 108.728 56.1285 108.723C55.2185 108.718 55.3096 106.96 56.1467 106.966Z" fill="#263238"/>
<path d="M52.2398 105.996C51.9729 106.076 51.712 106.119 51.4451 106.177C51.1357 106.241 50.9052 106.321 50.5958 106.225C50.432 106.172 50.3228 105.964 50.3652 105.821C50.4684 105.48 50.8202 105.32 51.1842 105.224C51.5786 105.123 51.9183 105.139 52.2944 105.277C52.6584 105.416 52.5917 105.89 52.2398 106.002V105.996Z" fill="#263238"/>
<path d="M57.0871 105.533C56.8141 105.475 56.5714 105.379 56.3105 105.299C56.0133 105.203 55.7645 105.16 55.5704 104.926C55.4673 104.804 55.5097 104.575 55.6371 104.473C55.9344 104.239 56.3348 104.271 56.6927 104.372C57.0871 104.479 57.3601 104.649 57.5845 104.953C57.8029 105.246 57.445 105.608 57.0871 105.533Z" fill="#263238"/>
<path d="M51.4936 111.604C52.3005 111.38 53.3015 111.53 53.9324 111.641C54.0052 111.641 54.078 111.519 54.0962 111.46L54.1508 110.305C54.3146 110.39 55.164 110.789 55.17 110.576C55.1943 108.782 55.2186 106.79 54.8121 104.995C54.8 104.937 54.6968 104.942 54.6968 105.001C54.5998 106.726 54.8424 108.451 54.7757 110.182C54.5027 110.07 54.0598 109.868 53.8172 109.857C53.7504 109.868 53.8293 111.077 53.7929 111.258C53.7929 111.258 52.5735 110.853 51.5058 111.359C51.2328 111.492 51.1114 111.705 51.4997 111.599L51.4936 111.604Z" fill="#263238"/>
<path d="M49.8738 112.738C50.0134 112.871 50.1468 113.053 50.3652 113.084C50.5776 113.111 50.8324 113.042 51.0326 112.989C51.0508 112.989 51.069 113.005 51.0568 113.015C50.8809 113.212 50.5351 113.324 50.256 113.26C49.983 113.202 49.8617 112.983 49.8071 112.754C49.801 112.722 49.8496 112.712 49.8678 112.733L49.8738 112.738Z" fill="#263238"/>
<path d="M52.9679 111.119C52.3915 111.077 50.4502 111.258 50.6504 112.078C50.7353 112.435 51.3966 112.398 51.979 112.057C52.5614 111.711 52.9679 111.119 52.9679 111.119Z" fill="#263238"/>
<path d="M51.6877 112.2C51.1963 112.403 50.7231 112.382 50.6503 112.078C50.5957 111.854 50.6989 111.684 50.893 111.545C51.2449 111.577 51.9729 111.711 51.6877 112.2Z" fill="#FF9ABB"/>
<path d="M42.9214 107.78C42.788 107.03 41.6899 98.9722 42.0357 98.1415C42.3512 97.3853 43.2794 97.8006 43.3036 97.758C43.3279 97.7101 43.4492 97.0072 43.9831 96.7941C44.4563 96.6078 45.063 96.922 45.063 96.922C45.063 96.922 45.3117 96.1871 45.8759 96.0433C46.4401 95.8995 46.8951 96.3468 46.8951 96.3468C46.8951 96.3468 47.1681 95.6439 47.8718 95.5427C48.5695 95.4415 48.8607 95.9953 48.8607 95.9953C48.8607 95.9953 49.1822 95.303 49.7585 95.2232C50.3349 95.1433 50.7474 95.7184 50.7474 95.7184C50.7474 95.7184 51.1417 95.1007 51.8212 95.1593C52.5128 95.2232 52.6766 95.8995 52.6766 95.8995C52.6766 95.8995 53.1619 95.3137 53.7989 95.3616C54.4359 95.4095 54.5633 96.1285 54.5633 96.1285C54.5633 96.1285 54.9091 95.532 55.4976 95.6332C56.0921 95.7344 56.1346 96.4853 56.1346 96.4853C56.1346 96.4853 56.5592 95.8356 57.2387 96.1072C58.2822 96.5279 57.815 101.086 57.7968 103.083C57.7968 103.083 57.6209 102.109 57.1659 102.024C56.7109 101.944 56.2802 102.567 55.4005 102.625C53.1983 102.78 51.9668 101.315 50.2378 101.459C48.5634 101.598 47.6898 102.94 46.798 105.134C45.797 107.61 43.2248 109.543 42.9032 107.764L42.9214 107.78Z" fill="#263238"/>
<path d="M45.0448 107.647C45.0448 107.647 43.5888 104.809 42.1571 105.219C40.7253 105.629 41.4412 109.511 42.8608 110.262C44.2743 111.013 45.0933 109.879 45.0933 109.879L45.0509 107.653L45.0448 107.647Z" fill="#AD6359"/>
<path d="M42.3937 106.327C42.3937 106.327 42.3573 106.348 42.3755 106.364C43.3583 106.918 43.7344 107.882 43.9346 108.846C43.6919 108.446 43.3037 108.185 42.697 108.43C42.6667 108.441 42.6849 108.483 42.7152 108.483C43.1702 108.473 43.4735 108.595 43.698 108.952C43.8618 109.202 43.9406 109.501 44.0377 109.777C44.068 109.868 44.25 109.852 44.2379 109.751C44.2379 109.745 44.2379 109.735 44.2379 109.73C44.523 108.542 43.8254 106.694 42.3876 106.332L42.3937 106.327Z" fill="#263238"/>
<path d="M36.3149 123.597C34.8771 129.785 34.2341 151.816 38.9842 155.23C43.7951 158.686 48.2844 157.386 48.8607 153.099C49.3339 149.558 44.4321 128.118 42.7031 123.027C41.059 118.181 37.9954 116.365 36.3149 123.597Z" fill="#AD6359"/>
<path d="M47.702 136.894L32.0197 142.001C32.0197 142.001 34.3554 125.983 36.5576 121.44C39.0327 116.328 41.4715 118.559 43.7647 123.437C46.0579 128.315 47.708 136.889 47.708 136.889L47.702 136.894Z" fill="#1976D2"/>
<path d="M33.136 138.748C33.6456 138.497 38.505 136.836 39.5727 136.495C40.6404 136.154 44.9781 134.727 46.1064 134.455C46.155 134.445 46.1853 134.503 46.1368 134.524C45.0873 134.977 40.7193 136.426 39.6394 136.793C38.5656 137.161 33.7123 138.71 33.1542 138.811C33.1056 138.822 33.0996 138.764 33.136 138.748Z" fill="#263238"/>
<path d="M46.3976 137.198C46.8587 137.011 47.5867 136.75 47.5867 136.75C46.9254 134.78 46.4947 132.735 45.9366 130.749C45.3663 128.72 44.8628 126.686 44.3228 124.651C44.3168 124.619 44.3653 124.609 44.3775 124.641C44.7657 125.775 45.154 126.904 45.524 128.038C45.5058 127.889 45.4876 127.74 45.4694 127.591C45.4027 127.064 45.3542 126.531 45.2692 126.004C45.2632 125.961 45.336 125.94 45.3481 125.988C45.4876 126.51 45.615 127.037 45.6757 127.57C45.7182 127.948 45.7303 128.32 45.7364 128.699C45.9487 129.348 46.161 130.003 46.3491 130.658C46.9315 132.677 47.7566 134.876 48.163 136.926C48.163 136.926 47.0164 137.203 46.428 137.288C46.3552 137.299 46.337 137.219 46.4037 137.192L46.3976 137.198Z" fill="#263238"/>
<path d="M35.3503 140.92C34.2704 141.357 33.1845 141.778 32.0865 142.166L31.7953 142.273L31.8195 141.985C32.0379 139.536 32.3959 137.107 32.8448 134.684C33.0753 133.475 33.324 132.267 33.6334 131.068C33.9246 129.87 34.2704 128.677 34.689 127.506L34.0278 131.132L33.4211 134.764C33.0207 137.182 32.6325 139.605 32.2078 142.023L31.9409 141.842C33.0632 141.511 34.1976 141.202 35.3382 140.92H35.3503Z" fill="#263238"/>
<path d="M33.4636 129.412C33.5364 129.913 33.5425 130.408 33.5607 130.898C33.5728 131.393 33.5789 131.872 33.6031 132.378C33.4697 132.149 33.3969 131.904 33.3423 131.654C33.2816 131.404 33.2695 131.154 33.2573 130.903C33.2573 130.403 33.2998 129.897 33.4636 129.412Z" fill="#263238"/>
<path d="M39.6091 151.832C38.511 156.465 43.516 158.281 46.798 156.673C54.5087 152.886 61.3034 144.084 64.8402 137.129C65.8897 135.068 51.6878 130.797 50.1104 132.772C47.9022 135.531 41.8416 142.443 39.6091 151.837V151.832Z" fill="#AD6359"/>
<path d="M55.1761 126.6C54.5694 127.25 54.1751 126.973 54.2176 125.482C54.254 123.97 55.8556 118.112 53.4714 117.797C51.0811 117.478 48.9699 125.802 49.1216 128.294C49.2672 130.786 50.5109 134.764 50.5109 134.764C51.2934 133.22 53.5988 129.625 55.1761 126.606V126.6Z" fill="#AD6359"/>
<path d="M64.0395 138.54C66.727 133.96 68.8867 128.709 67.9646 123.384C67.7826 122.34 67.0849 121.818 67.0849 121.818C66.7209 119.427 65.3256 118.863 65.3256 118.863C64.2093 116.727 62.6927 116.317 62.6927 116.317C62.6927 116.317 62.2316 113.516 60.2539 113.479C58.0396 113.431 59.1194 117.377 58.2034 119.869C56.1043 125.573 51.3056 133.167 50.5109 134.759L64.0395 138.535V138.54Z" fill="#AD6359"/>
<path d="M60.7877 127.202C61.3701 125.514 61.9889 123.868 62.3044 122.116C62.6502 120.199 62.6199 118.298 62.6381 116.365C62.6381 116.306 62.7351 116.301 62.7473 116.36C63.3418 119.864 62.5531 124.012 60.8787 127.229C60.8363 127.303 60.7635 127.287 60.7938 127.202H60.7877Z" fill="#263238"/>
<path d="M64.5308 128.816C64.9919 127.143 65.7806 124.204 65.2649 118.868C65.2649 118.852 65.2952 118.841 65.3013 118.863C66.1628 122.287 65.8716 125.541 64.6218 128.837C64.5854 128.938 64.5005 128.927 64.5308 128.816Z" fill="#263238"/>
<path d="M66.5571 129.652C67.2183 126.781 67.2183 124.902 67.0727 121.834C67.0727 121.818 67.1031 121.813 67.1091 121.834C67.6915 125.306 67.4549 126.622 66.6663 129.689C66.642 129.796 66.5328 129.769 66.5571 129.657V129.652Z" fill="#263238"/>
<path d="M57.8394 120.806C58.1912 119.853 58.4096 118.868 58.446 117.883C58.4764 116.887 58.4582 115.88 58.6766 114.863C58.7372 114.613 58.8222 114.357 58.9556 114.118C59.083 113.878 59.2711 113.638 59.5562 113.484C59.8535 113.335 60.1447 113.292 60.4662 113.287C60.7817 113.287 61.0971 113.393 61.3459 113.558C61.8433 113.894 62.1103 114.379 62.3105 114.847C62.4925 115.326 62.6199 115.822 62.6927 116.317C62.5349 115.832 62.3772 115.353 62.1406 114.906C61.9161 114.458 61.6189 114.016 61.1821 113.761C60.9637 113.633 60.7149 113.569 60.4662 113.569C60.2235 113.569 59.9323 113.628 59.7382 113.734C59.3318 113.974 59.1498 114.469 59.0406 114.932C58.804 115.886 58.8282 116.892 58.7312 117.899C58.6341 118.91 58.3368 119.906 57.8394 120.812V120.806Z" fill="#263238"/>
<path d="M50.341 121.994C50.5776 120.993 50.9295 120.002 51.4573 119.076C51.7424 118.623 52.0639 118.16 52.5917 117.845C52.8647 117.691 53.1984 117.6 53.5381 117.643C53.89 117.68 54.1933 117.888 54.3753 118.117C54.7515 118.591 54.8485 119.134 54.9274 119.651C54.9941 120.173 55.0063 120.694 54.9759 121.216C54.8971 122.26 54.7151 123.267 54.5634 124.278C54.4967 124.779 54.4057 125.29 54.4421 125.764C54.4603 126.015 54.4906 126.265 54.5513 126.488C54.5816 126.595 54.6301 126.712 54.6726 126.755C54.6969 126.776 54.6787 126.755 54.6726 126.765C54.6726 126.765 54.7151 126.755 54.7515 126.723C55.1094 126.446 55.3096 125.929 55.5644 125.482C55.8071 125.019 56.0376 124.55 56.2621 124.081C56.717 123.139 57.1356 122.191 57.5482 121.232C57.9546 120.279 58.3429 119.31 58.537 118.298C58.44 119.321 58.0942 120.311 57.7544 121.291C57.4026 122.271 57.0022 123.229 56.5897 124.193C56.3834 124.673 56.1711 125.152 55.9405 125.626C55.8313 125.865 55.71 126.1 55.5765 126.334C55.5098 126.451 55.4431 126.568 55.3521 126.691C55.2611 126.808 55.1701 126.915 55.0245 127.021C54.9517 127.069 54.8667 127.128 54.7211 127.149C54.5695 127.17 54.4057 127.09 54.3389 127.016C54.1933 126.861 54.1569 126.723 54.1145 126.59C54.0356 126.318 54.0053 126.057 53.981 125.796C53.9325 125.248 54.0235 124.736 54.0781 124.225C54.1994 123.208 54.4299 122.191 54.5088 121.195C54.5452 120.694 54.5452 120.189 54.4845 119.693C54.4239 119.203 54.3086 118.703 54.0356 118.314C53.8961 118.128 53.708 117.989 53.4714 117.952C53.2348 117.915 52.9739 117.968 52.7495 118.08C52.2945 118.325 51.9547 118.751 51.6635 119.177C51.0751 120.045 50.6747 121.014 50.3228 121.989L50.341 121.994Z" fill="#263238"/>
<path d="M40.695 148.482C40.9741 147.518 41.332 146.576 41.7142 145.639C42.0903 144.701 42.5271 143.785 42.9821 142.875C43.4493 141.969 43.9467 141.075 44.4988 140.201C45.0508 139.333 45.6454 138.481 46.3127 137.677C46.0761 138.13 45.8031 138.561 45.5726 139.014C45.3178 139.456 45.0812 139.903 44.8385 140.35C44.3714 141.25 43.8921 142.14 43.4371 143.045L40.695 148.477V148.482Z" fill="#263238"/>
<path d="M57.6452 147.785C58.355 146.805 59.0648 145.83 59.7503 144.845C60.4359 143.86 61.1275 142.875 61.7705 141.868C62.45 140.878 63.0748 139.866 63.7058 138.849C64.3428 137.837 64.9252 136.798 65.5379 135.771C65.095 136.862 64.5915 137.938 64.0152 138.987C63.451 140.036 62.814 141.059 62.1648 142.071C61.4854 143.066 60.7938 144.057 60.0415 145.015C59.2893 145.969 58.5067 146.906 57.6452 147.79V147.785Z" fill="#263238"/>
</g>
<defs>
<clipPath id="clip0_3502_1904">
<rect width="250" height="250" fill="white"/>
</clipPath>
</defs>
</svg>
